%TF.GenerationSoftware,KiCad,Pcbnew,9.0.6*%
%TF.CreationDate,2026-01-11T11:59:42+09:00*%
%TF.ProjectId,SyncSeparator,53796e63-5365-4706-9172-61746f722e6b,rev?*%
%TF.SameCoordinates,Original*%
%TF.FileFunction,Plated,1,2,PTH,Drill*%
%TF.FilePolarity,Positive*%
%FSLAX46Y46*%
G04 Gerber Fmt 4.6, Leading zero omitted, Abs format (unit mm)*
G04 Created by KiCad (PCBNEW 9.0.6) date 2026-01-11 11:59:42*
%MOMM*%
%LPD*%
G01*
G04 APERTURE LIST*
%TA.AperFunction,ViaDrill*%
%ADD10C,0.300000*%
%TD*%
%TA.AperFunction,ComponentDrill*%
%ADD11C,0.700000*%
%TD*%
%TA.AperFunction,ComponentDrill*%
%ADD12C,0.800000*%
%TD*%
%TA.AperFunction,ComponentDrill*%
%ADD13C,1.000000*%
%TD*%
%TA.AperFunction,ComponentDrill*%
%ADD14C,1.020000*%
%TD*%
G04 APERTURE END LIST*
D10*
X86360000Y-73660000D03*
X86360000Y-77470000D03*
X86360000Y-81280000D03*
X86360000Y-85090000D03*
X86360000Y-88900000D03*
X86360000Y-92710000D03*
X86360000Y-96520000D03*
X86360000Y-100330000D03*
X90170000Y-73660000D03*
X90170000Y-77470000D03*
X90170000Y-81280000D03*
X90170000Y-85090000D03*
X90170000Y-88900000D03*
X90170000Y-92710000D03*
X90170000Y-96520000D03*
X90170000Y-100330000D03*
X93980000Y-66040000D03*
X93980000Y-69850000D03*
X93980000Y-73660000D03*
X93980000Y-77470000D03*
X93980000Y-81280000D03*
X93980000Y-85090000D03*
X93980000Y-88900000D03*
X93980000Y-92710000D03*
X93980000Y-96520000D03*
X93980000Y-100330000D03*
X93980000Y-105410000D03*
X93980000Y-109220000D03*
X97790000Y-66040000D03*
X97790000Y-69850000D03*
X97790000Y-73660000D03*
X97790000Y-77470000D03*
X97790000Y-100330000D03*
X97790000Y-105410000D03*
X97790000Y-109220000D03*
X100315000Y-96505000D03*
X101600000Y-66040000D03*
X101600000Y-77470000D03*
X101600000Y-81280000D03*
X101600000Y-92710000D03*
X101600000Y-96520000D03*
X101600000Y-100330000D03*
X101600000Y-109220000D03*
X105395000Y-86345000D03*
X105410000Y-66040000D03*
X105410000Y-92710000D03*
X105410000Y-96520000D03*
X105410000Y-100330000D03*
X105410000Y-109220000D03*
X108585000Y-88265000D03*
X109220000Y-66040000D03*
X109220000Y-69850000D03*
X109220000Y-73660000D03*
X109220000Y-77470000D03*
X109220000Y-109220000D03*
X113030000Y-66040000D03*
X113030000Y-96520000D03*
X113030000Y-109220000D03*
X116840000Y-66040000D03*
X116840000Y-73660000D03*
X116840000Y-77470000D03*
X116840000Y-85090000D03*
X116840000Y-96520000D03*
X116840000Y-100330000D03*
X116840000Y-109220000D03*
X118110000Y-93980000D03*
X120650000Y-66040000D03*
X120650000Y-69850000D03*
X120650000Y-77470000D03*
X120650000Y-81280000D03*
X120650000Y-85090000D03*
X120650000Y-88900000D03*
X120650000Y-90170000D03*
X120650000Y-96520000D03*
X120650000Y-105410000D03*
X120650000Y-109220000D03*
X124460000Y-66040000D03*
X124460000Y-69850000D03*
X124460000Y-73660000D03*
X124460000Y-77470000D03*
X124460000Y-81280000D03*
X124460000Y-85090000D03*
X124460000Y-88900000D03*
X124460000Y-100330000D03*
X124460000Y-105410000D03*
X124460000Y-109220000D03*
X125730000Y-90170000D03*
X125730000Y-92710000D03*
X128270000Y-66040000D03*
X128270000Y-69850000D03*
X128270000Y-73660000D03*
X128270000Y-92710000D03*
X128270000Y-96520000D03*
X128270000Y-100330000D03*
X128270000Y-105410000D03*
X128270000Y-109220000D03*
X132080000Y-66040000D03*
X132080000Y-69850000D03*
X132080000Y-73660000D03*
X132080000Y-77470000D03*
X132080000Y-100330000D03*
X132080000Y-105410000D03*
X132080000Y-109220000D03*
X135890000Y-66040000D03*
X135890000Y-69850000D03*
X135890000Y-73660000D03*
X135890000Y-77470000D03*
X135890000Y-81280000D03*
X135890000Y-85090000D03*
X135890000Y-88900000D03*
X135890000Y-92710000D03*
X135890000Y-96520000D03*
X135890000Y-100330000D03*
X135890000Y-105410000D03*
X135890000Y-109220000D03*
X139700000Y-73660000D03*
X139700000Y-77470000D03*
X139700000Y-81280000D03*
X139700000Y-85090000D03*
X139700000Y-88900000D03*
X139700000Y-92710000D03*
X139700000Y-96520000D03*
X139700000Y-100330000D03*
X143510000Y-73660000D03*
X143510000Y-77470000D03*
X143510000Y-81280000D03*
X143510000Y-85090000D03*
X143510000Y-88900000D03*
X143510000Y-92710000D03*
X143510000Y-96520000D03*
X143510000Y-100330000D03*
D11*
%TO.C,RV1*%
X100965000Y-94600000D03*
X103505000Y-92060000D03*
X103505000Y-97140000D03*
D12*
%TO.C,C3*%
X101005000Y-106680000D03*
%TO.C,C2*%
X101045000Y-68580000D03*
%TO.C,R3*%
X102050000Y-102870000D03*
%TO.C,C1*%
X102315000Y-88265000D03*
%TO.C,R2*%
X103505000Y-72430000D03*
%TO.C,R1*%
X103505000Y-76240000D03*
%TO.C,R3*%
X104590000Y-102870000D03*
%TO.C,C3*%
X106005000Y-106680000D03*
%TO.C,C2*%
X106045000Y-68580000D03*
%TO.C,R2*%
X106045000Y-72430000D03*
%TO.C,R1*%
X106045000Y-76240000D03*
%TO.C,C1*%
X107315000Y-88265000D03*
%TO.C,U1*%
X111770000Y-99070000D03*
X111770000Y-101610000D03*
X111770000Y-104150000D03*
X111770000Y-106690000D03*
%TO.C,C4*%
X114340000Y-71120000D03*
%TO.C,C5*%
X114340000Y-80010000D03*
%TO.C,C6*%
X114340000Y-88900000D03*
%TO.C,C4*%
X116840000Y-71120000D03*
%TO.C,C5*%
X116840000Y-80010000D03*
%TO.C,C6*%
X116840000Y-88900000D03*
%TO.C,U1*%
X119390000Y-99070000D03*
X119390000Y-101610000D03*
X119390000Y-104150000D03*
X119390000Y-106690000D03*
D13*
%TO.C,J1*%
X96577000Y-78725000D03*
X96577000Y-81265000D03*
X96577000Y-83805000D03*
X96577000Y-86345000D03*
X96577000Y-88885000D03*
X96577000Y-91425000D03*
X96577000Y-93965000D03*
X96577000Y-96505000D03*
%TO.C,D1*%
X99695000Y-82580000D03*
X109855000Y-82580000D03*
%TO.C,RV2*%
X122220000Y-68620000D03*
X122220000Y-73620000D03*
%TO.C,RV3*%
X122220000Y-77510000D03*
X122220000Y-82510000D03*
%TO.C,RV4*%
X122220000Y-86400000D03*
X122220000Y-91400000D03*
%TO.C,RV2*%
X127220000Y-71120000D03*
%TO.C,RV3*%
X127220000Y-80010000D03*
%TO.C,RV4*%
X127220000Y-88900000D03*
%TO.C,J2*%
X133293000Y-78755000D03*
X133293000Y-81295000D03*
X133293000Y-83835000D03*
X133293000Y-86375000D03*
X133293000Y-88915000D03*
X133293000Y-91455000D03*
X133293000Y-93995000D03*
X133293000Y-96535000D03*
D14*
%TO.C,SW1*%
X127000000Y-102235000D03*
X129540000Y-102235000D03*
X132080000Y-102235000D03*
M02*
