%TF.GenerationSoftware,KiCad,Pcbnew,9.0.6*%
%TF.CreationDate,2026-01-11T11:59:37+09:00*%
%TF.ProjectId,SyncSeparator,53796e63-5365-4706-9172-61746f722e6b,rev?*%
%TF.SameCoordinates,Original*%
%TF.FileFunction,Copper,L1,Top*%
%TF.FilePolarity,Positive*%
%FSLAX46Y46*%
G04 Gerber Fmt 4.6, Leading zero omitted, Abs format (unit mm)*
G04 Created by KiCad (PCBNEW 9.0.6) date 2026-01-11 11:59:37*
%MOMM*%
%LPD*%
G01*
G04 APERTURE LIST*
%TA.AperFunction,ComponentPad*%
%ADD10C,1.600000*%
%TD*%
%TA.AperFunction,ComponentPad*%
%ADD11R,1.700000X1.700000*%
%TD*%
%TA.AperFunction,ComponentPad*%
%ADD12O,1.700000X1.700000*%
%TD*%
%TA.AperFunction,ComponentPad*%
%ADD13R,1.560000X1.560000*%
%TD*%
%TA.AperFunction,ComponentPad*%
%ADD14C,1.560000*%
%TD*%
%TA.AperFunction,ComponentPad*%
%ADD15C,1.260000*%
%TD*%
%TA.AperFunction,ComponentPad*%
%ADD16R,1.600000X1.600000*%
%TD*%
%TA.AperFunction,ComponentPad*%
%ADD17R,2.000000X2.000000*%
%TD*%
%TA.AperFunction,ComponentPad*%
%ADD18O,2.000000X2.000000*%
%TD*%
%TA.AperFunction,ComponentPad*%
%ADD19O,1.600000X1.600000*%
%TD*%
%TA.AperFunction,ComponentPad*%
%ADD20R,1.730000X2.030000*%
%TD*%
%TA.AperFunction,ComponentPad*%
%ADD21O,1.730000X2.030000*%
%TD*%
%TA.AperFunction,ViaPad*%
%ADD22C,0.600000*%
%TD*%
%TA.AperFunction,Conductor*%
%ADD23C,0.200000*%
%TD*%
G04 APERTURE END LIST*
D10*
%TO.P,C2,1*%
%TO.N,Net-(C2-Pad1)*%
X106045000Y-68580000D03*
%TO.P,C2,2*%
%TO.N,GND*%
X101045000Y-68580000D03*
%TD*%
D11*
%TO.P,J2,1,Pin_1*%
%TO.N,R_out*%
X133293000Y-78755000D03*
D12*
%TO.P,J2,2,Pin_2*%
%TO.N,G_out*%
X133293000Y-81295000D03*
%TO.P,J2,3,Pin_3*%
%TO.N,B_out*%
X133293000Y-83835000D03*
%TO.P,J2,4,Pin_4*%
%TO.N,Cs_out*%
X133293000Y-86375000D03*
%TO.P,J2,5,Pin_5*%
%TO.N,Hs_out*%
X133293000Y-88915000D03*
%TO.P,J2,6,Pin_6*%
%TO.N,Vs_out*%
X133293000Y-91455000D03*
%TO.P,J2,7,Pin_7*%
%TO.N,Net-(J2-Pad7)*%
X133293000Y-93995000D03*
%TO.P,J2,8,Pin_8*%
%TO.N,GND*%
X133293000Y-96535000D03*
%TD*%
D13*
%TO.P,RV2,1,1*%
%TO.N,Net-(RV2-Pad1)*%
X122220000Y-73620000D03*
D14*
%TO.P,RV2,2,2*%
%TO.N,R_out*%
X127220000Y-71120000D03*
%TO.P,RV2,3,3*%
%TO.N,unconnected-(RV2-Pad3)*%
X122220000Y-68620000D03*
%TD*%
D11*
%TO.P,J1,1,Pin_1*%
%TO.N,GND*%
X96577000Y-96505000D03*
D12*
%TO.P,J1,2,Pin_2*%
%TO.N,VCC*%
X96577000Y-93965000D03*
%TO.P,J1,3,Pin_3*%
%TO.N,unconnected-(J1-Pad3)*%
X96577000Y-91425000D03*
%TO.P,J1,4,Pin_4*%
%TO.N,unconnected-(J1-Pad4)*%
X96577000Y-88885000D03*
%TO.P,J1,5,Pin_5*%
%TO.N,Cs_in*%
X96577000Y-86345000D03*
%TO.P,J1,6,Pin_6*%
%TO.N,B_in*%
X96577000Y-83805000D03*
%TO.P,J1,7,Pin_7*%
%TO.N,G_in*%
X96577000Y-81265000D03*
%TO.P,J1,8,Pin_8*%
%TO.N,R_in*%
X96577000Y-78725000D03*
%TD*%
D15*
%TO.P,RV1,1,1*%
%TO.N,Net-(R3-Pad2)*%
X103505000Y-97140000D03*
%TO.P,RV1,2,2*%
%TO.N,GND*%
X100965000Y-94600000D03*
%TO.P,RV1,3,3*%
%TO.N,unconnected-(RV1-Pad3)*%
X103505000Y-92060000D03*
%TD*%
D16*
%TO.P,C4,1*%
%TO.N,Net-(RV2-Pad1)*%
X116840000Y-71120000D03*
D10*
%TO.P,C4,2*%
%TO.N,R_in*%
X114340000Y-71120000D03*
%TD*%
%TO.P,C1,1*%
%TO.N,Net-(J2-Pad7)*%
X107315000Y-88265000D03*
%TO.P,C1,2*%
%TO.N,GND*%
X102315000Y-88265000D03*
%TD*%
D17*
%TO.P,D1,1,K*%
%TO.N,Net-(J2-Pad7)*%
X109855000Y-82580000D03*
D18*
%TO.P,D1,2,A*%
%TO.N,VCC*%
X99695000Y-82580000D03*
%TD*%
D10*
%TO.P,R1,1*%
%TO.N,GND*%
X103505000Y-76240000D03*
D19*
%TO.P,R1,2*%
%TO.N,Cs_in*%
X106045000Y-76240000D03*
%TD*%
D10*
%TO.P,R2,1*%
%TO.N,Cs_in*%
X103505000Y-72430000D03*
D19*
%TO.P,R2,2*%
%TO.N,Net-(C2-Pad1)*%
X106045000Y-72430000D03*
%TD*%
D16*
%TO.P,C5,1*%
%TO.N,Net-(RV3-Pad1)*%
X116840000Y-80010000D03*
D10*
%TO.P,C5,2*%
%TO.N,G_in*%
X114340000Y-80010000D03*
%TD*%
D16*
%TO.P,C6,1*%
%TO.N,Net-(RV4-Pad1)*%
X116840000Y-88900000D03*
D10*
%TO.P,C6,2*%
%TO.N,B_in*%
X114340000Y-88900000D03*
%TD*%
D13*
%TO.P,RV4,1,1*%
%TO.N,Net-(RV4-Pad1)*%
X122220000Y-91400000D03*
D14*
%TO.P,RV4,2,2*%
%TO.N,B_out*%
X127220000Y-88900000D03*
%TO.P,RV4,3,3*%
%TO.N,unconnected-(RV4-Pad3)*%
X122220000Y-86400000D03*
%TD*%
D10*
%TO.P,R3,1*%
%TO.N,Net-(C3-Pad2)*%
X104590000Y-102870000D03*
D19*
%TO.P,R3,2*%
%TO.N,Net-(R3-Pad2)*%
X102050000Y-102870000D03*
%TD*%
D10*
%TO.P,C3,1*%
%TO.N,GND*%
X101005000Y-106680000D03*
%TO.P,C3,2*%
%TO.N,Net-(C3-Pad2)*%
X106005000Y-106680000D03*
%TD*%
D13*
%TO.P,RV3,1,1*%
%TO.N,Net-(RV3-Pad1)*%
X122220000Y-82510000D03*
D14*
%TO.P,RV3,2,2*%
%TO.N,G_out*%
X127220000Y-80010000D03*
%TO.P,RV3,3,3*%
%TO.N,unconnected-(RV3-Pad3)*%
X122220000Y-77510000D03*
%TD*%
D16*
%TO.P,U1,1,CSYNC_out*%
%TO.N,Net-(SW1-Pad3)*%
X111770000Y-99070000D03*
D19*
%TO.P,U1,2,CVIDEO_in*%
%TO.N,Net-(C2-Pad1)*%
X111770000Y-101610000D03*
%TO.P,U1,3,VSYNC_out*%
%TO.N,Vs_out*%
X111770000Y-104150000D03*
%TO.P,U1,4,GND*%
%TO.N,GND*%
X111770000Y-106690000D03*
%TO.P,U1,5,BURST_out*%
%TO.N,unconnected-(U1-Pad5)*%
X119390000Y-106690000D03*
%TO.P,U1,6,RSET*%
%TO.N,Net-(C3-Pad2)*%
X119390000Y-104150000D03*
%TO.P,U1,7,HSYNC_out*%
%TO.N,Hs_out*%
X119390000Y-101610000D03*
%TO.P,U1,8,VCC*%
%TO.N,Net-(J2-Pad7)*%
X119390000Y-99070000D03*
%TD*%
D20*
%TO.P,SW1,1,A*%
%TO.N,Cs_in*%
X127000000Y-102235000D03*
D21*
%TO.P,SW1,2,B*%
%TO.N,Cs_out*%
X129540000Y-102235000D03*
%TO.P,SW1,3,C*%
%TO.N,Net-(SW1-Pad3)*%
X132080000Y-102235000D03*
%TD*%
D22*
%TO.N,Net-(J2-Pad7)*%
X118110000Y-93980000D03*
X108585000Y-88265000D03*
%TO.N,GND*%
X132080000Y-77470000D03*
X86360000Y-100330000D03*
X132080000Y-105410000D03*
X128270000Y-69850000D03*
X97790000Y-66040000D03*
X124460000Y-109220000D03*
X116840000Y-66040000D03*
X109220000Y-69850000D03*
X93980000Y-96520000D03*
X135890000Y-81280000D03*
X90170000Y-81280000D03*
X132080000Y-73660000D03*
X139700000Y-92710000D03*
X101600000Y-66040000D03*
X135890000Y-85090000D03*
X116840000Y-109220000D03*
X101600000Y-77470000D03*
X93980000Y-85090000D03*
X97790000Y-109220000D03*
X113030000Y-109220000D03*
X116840000Y-100330000D03*
X135890000Y-88900000D03*
X135890000Y-105410000D03*
X124460000Y-105410000D03*
X139700000Y-96520000D03*
X101600000Y-96520000D03*
X143510000Y-96520000D03*
X120650000Y-85090000D03*
X90170000Y-100330000D03*
X90170000Y-92710000D03*
X124460000Y-100330000D03*
X120650000Y-66040000D03*
X101600000Y-92710000D03*
X128270000Y-73660000D03*
X135890000Y-73660000D03*
X124460000Y-88900000D03*
X135890000Y-92710000D03*
X93980000Y-81280000D03*
X86360000Y-88900000D03*
X90170000Y-85090000D03*
X143510000Y-88900000D03*
X97790000Y-105410000D03*
X100315000Y-96505000D03*
X139700000Y-100330000D03*
X124460000Y-77470000D03*
X132080000Y-69850000D03*
X93980000Y-77470000D03*
X93980000Y-92710000D03*
X86360000Y-92710000D03*
X101600000Y-109220000D03*
X101600000Y-100330000D03*
X86360000Y-96520000D03*
X105410000Y-96520000D03*
X90170000Y-96520000D03*
X124460000Y-81280000D03*
X113030000Y-66040000D03*
X139700000Y-85090000D03*
X132080000Y-109220000D03*
X90170000Y-73660000D03*
X143510000Y-73660000D03*
X120650000Y-81280000D03*
X101600000Y-81280000D03*
X86360000Y-81280000D03*
X120650000Y-69850000D03*
X86360000Y-77470000D03*
X120650000Y-105410000D03*
X139700000Y-77470000D03*
X139700000Y-81280000D03*
X105410000Y-92710000D03*
X128270000Y-109220000D03*
X124460000Y-69850000D03*
X128270000Y-92710000D03*
X120650000Y-88900000D03*
X139700000Y-88900000D03*
X86360000Y-73660000D03*
X135890000Y-69850000D03*
X135890000Y-100330000D03*
X128270000Y-100330000D03*
X116840000Y-73660000D03*
X93980000Y-88900000D03*
X143510000Y-81280000D03*
X143510000Y-100330000D03*
X97790000Y-77470000D03*
X93980000Y-105410000D03*
X135890000Y-66040000D03*
X120650000Y-96520000D03*
X109220000Y-77470000D03*
X143510000Y-85090000D03*
X113030000Y-96520000D03*
X97790000Y-73660000D03*
X97790000Y-69850000D03*
X132080000Y-66040000D03*
X105410000Y-66040000D03*
X93980000Y-69850000D03*
X139700000Y-73660000D03*
X135890000Y-96520000D03*
X93980000Y-109220000D03*
X124460000Y-66040000D03*
X105410000Y-109220000D03*
X128270000Y-105410000D03*
X128270000Y-96520000D03*
X109220000Y-109220000D03*
X109220000Y-73660000D03*
X90170000Y-77470000D03*
X132080000Y-100330000D03*
X124460000Y-85090000D03*
X93980000Y-73660000D03*
X124460000Y-73660000D03*
X135890000Y-77470000D03*
X116840000Y-85090000D03*
X128270000Y-66040000D03*
X93980000Y-66040000D03*
X86360000Y-85090000D03*
X120650000Y-109220000D03*
X135890000Y-109220000D03*
X105410000Y-100330000D03*
X116840000Y-77470000D03*
X93980000Y-100330000D03*
X143510000Y-77470000D03*
X109220000Y-66040000D03*
X143510000Y-92710000D03*
X90170000Y-88900000D03*
X120650000Y-77470000D03*
X116840000Y-96520000D03*
X97790000Y-100330000D03*
%TO.N,Cs_in*%
X125730000Y-92710000D03*
X105395000Y-86345000D03*
%TO.N,Hs_out*%
X125730000Y-90170000D03*
%TO.N,Vs_out*%
X120650000Y-90170000D03*
%TD*%
D23*
%TO.N,Net-(J2-Pad7)*%
X119390000Y-95260000D02*
X119390000Y-99070000D01*
X109855000Y-86995000D02*
X108585000Y-88265000D01*
X109855000Y-82580000D02*
X109855000Y-86995000D01*
X118110000Y-93980000D02*
X119390000Y-95260000D01*
X108585000Y-88265000D02*
X107315000Y-88265000D01*
%TO.N,GND*%
X103505000Y-87075000D02*
X102315000Y-88265000D01*
X102315000Y-93250000D02*
X100965000Y-94600000D01*
X103505000Y-76240000D02*
X103505000Y-87075000D01*
X103505000Y-76240000D02*
X101640000Y-76240000D01*
X100315000Y-96505000D02*
X100315000Y-105990000D01*
X101640000Y-76240000D02*
X101045000Y-75645000D01*
X102315000Y-88265000D02*
X102315000Y-93250000D01*
X100315000Y-105990000D02*
X101005000Y-106680000D01*
X101045000Y-75645000D02*
X101045000Y-68580000D01*
%TO.N,Net-(C2-Pad1)*%
X107950000Y-85090000D02*
X105410000Y-87630000D01*
X109220000Y-92710000D02*
X109220000Y-100330000D01*
X107950000Y-74335000D02*
X107950000Y-85090000D01*
X109220000Y-100330000D02*
X110500000Y-101610000D01*
X105410000Y-88900000D02*
X109220000Y-92710000D01*
X106045000Y-72430000D02*
X107950000Y-74335000D01*
X110500000Y-101610000D02*
X111770000Y-101610000D01*
X106045000Y-68580000D02*
X106045000Y-72430000D01*
X105410000Y-87630000D02*
X105410000Y-88900000D01*
%TO.N,Net-(C3-Pad2)*%
X104590000Y-105265000D02*
X106005000Y-106680000D01*
X104590000Y-102870000D02*
X104590000Y-105265000D01*
%TO.N,Cs_in*%
X106045000Y-76240000D02*
X103505000Y-73700000D01*
X125730000Y-92710000D02*
X127000000Y-93980000D01*
X103505000Y-72430000D02*
X103505000Y-73700000D01*
X106045000Y-85695000D02*
X106045000Y-76240000D01*
X105395000Y-86345000D02*
X106045000Y-85695000D01*
X127000000Y-93980000D02*
X127000000Y-102235000D01*
%TO.N,VCC*%
X99695000Y-92075000D02*
X99695000Y-82580000D01*
X96577000Y-93965000D02*
X97805000Y-93965000D01*
X97805000Y-93965000D02*
X99695000Y-92075000D01*
%TO.N,Cs_out*%
X132065000Y-86375000D02*
X129540000Y-88900000D01*
X129540000Y-88900000D02*
X129540000Y-102235000D01*
X133293000Y-86375000D02*
X132065000Y-86375000D01*
%TO.N,Hs_out*%
X119390000Y-101610000D02*
X124460000Y-96540000D01*
X124460000Y-96540000D02*
X124460000Y-91440000D01*
X124460000Y-91440000D02*
X125730000Y-90170000D01*
%TO.N,Vs_out*%
X114300000Y-102870000D02*
X114300000Y-94615000D01*
X114300000Y-94615000D02*
X118745000Y-90170000D01*
X111770000Y-104150000D02*
X113020000Y-104150000D01*
X118745000Y-90170000D02*
X120650000Y-90170000D01*
X113020000Y-104150000D02*
X114300000Y-102870000D01*
%TO.N,Net-(R3-Pad2)*%
X103505000Y-99695000D02*
X102050000Y-101150000D01*
X102050000Y-101150000D02*
X102050000Y-102870000D01*
X103505000Y-97140000D02*
X103505000Y-99695000D01*
%TD*%
%TA.AperFunction,Conductor*%
%TO.N,GND*%
G36*
X103204500Y-73739562D02*
G01*
X103214739Y-73777775D01*
X103224979Y-73815991D01*
X103229794Y-73824329D01*
X103229796Y-73824332D01*
X103264540Y-73884511D01*
X103264543Y-73884514D01*
X103264546Y-73884518D01*
X104261657Y-74881628D01*
X104295682Y-74943940D01*
X104290618Y-75014755D01*
X104248071Y-75071591D01*
X104181551Y-75096402D01*
X104115359Y-75082990D01*
X104007099Y-75027829D01*
X104007093Y-75027826D01*
X103811294Y-74964208D01*
X103811298Y-74964208D01*
X103607939Y-74932000D01*
X103402061Y-74932000D01*
X103198703Y-74964208D01*
X103002906Y-75027826D01*
X103002900Y-75027829D01*
X102819452Y-75121301D01*
X102776626Y-75152415D01*
X103464211Y-75840000D01*
X103452339Y-75840000D01*
X103350606Y-75867259D01*
X103259394Y-75919920D01*
X103184920Y-75994394D01*
X103132259Y-76085606D01*
X103105000Y-76187339D01*
X103105000Y-76199209D01*
X102417416Y-75511625D01*
X102386301Y-75554452D01*
X102292829Y-75737900D01*
X102292826Y-75737906D01*
X102229208Y-75933703D01*
X102197000Y-76137061D01*
X102197000Y-76342938D01*
X102229208Y-76546296D01*
X102292826Y-76742093D01*
X102292829Y-76742099D01*
X102386297Y-76925540D01*
X102386298Y-76925541D01*
X102417416Y-76968372D01*
X103105000Y-76280788D01*
X103105000Y-76292661D01*
X103132259Y-76394394D01*
X103184920Y-76485606D01*
X103259394Y-76560080D01*
X103350606Y-76612741D01*
X103452339Y-76640000D01*
X103464210Y-76640000D01*
X102776626Y-77327582D01*
X102776626Y-77327583D01*
X102819454Y-77358699D01*
X103002900Y-77452170D01*
X103002906Y-77452173D01*
X103198705Y-77515791D01*
X103198701Y-77515791D01*
X103402061Y-77548000D01*
X103607939Y-77548000D01*
X103811296Y-77515791D01*
X104007093Y-77452173D01*
X104007099Y-77452170D01*
X104190541Y-77358701D01*
X104233372Y-77327582D01*
X104233372Y-77327581D01*
X103545791Y-76640000D01*
X103557661Y-76640000D01*
X103659394Y-76612741D01*
X103750606Y-76560080D01*
X103825080Y-76485606D01*
X103877741Y-76394394D01*
X103905000Y-76292661D01*
X103905000Y-76280789D01*
X104592582Y-76968372D01*
X104623701Y-76925541D01*
X104717170Y-76742099D01*
X104717173Y-76742093D01*
X104780791Y-76546295D01*
X104805631Y-76389462D01*
X104836043Y-76325309D01*
X104896311Y-76287781D01*
X104967300Y-76288795D01*
X105026473Y-76328027D01*
X105053659Y-76384589D01*
X105068515Y-76459275D01*
X105082949Y-76531835D01*
X105158368Y-76713914D01*
X105267861Y-76877782D01*
X105407218Y-77017139D01*
X105571086Y-77126632D01*
X105666719Y-77166243D01*
X105721998Y-77210789D01*
X105744420Y-77278152D01*
X105744500Y-77282651D01*
X105744500Y-85518337D01*
X105724498Y-85586458D01*
X105707595Y-85607432D01*
X105507432Y-85807595D01*
X105445120Y-85841621D01*
X105418337Y-85844500D01*
X105329108Y-85844500D01*
X105260894Y-85862777D01*
X105201816Y-85878607D01*
X105201809Y-85878610D01*
X105087689Y-85944497D01*
X105087679Y-85944505D01*
X104994505Y-86037679D01*
X104994497Y-86037689D01*
X104928610Y-86151809D01*
X104928608Y-86151814D01*
X104894500Y-86279108D01*
X104894500Y-86410892D01*
X104915924Y-86490848D01*
X104928607Y-86538183D01*
X104928610Y-86538190D01*
X104994497Y-86652310D01*
X104994505Y-86652320D01*
X105087679Y-86745494D01*
X105087684Y-86745498D01*
X105087686Y-86745500D01*
X105201814Y-86811392D01*
X105329108Y-86845500D01*
X105329110Y-86845500D01*
X105465339Y-86845500D01*
X105533460Y-86865502D01*
X105579953Y-86919158D01*
X105590057Y-86989432D01*
X105560563Y-87054012D01*
X105554434Y-87060595D01*
X105225489Y-87389540D01*
X105197515Y-87417514D01*
X105169541Y-87445487D01*
X105169539Y-87445490D01*
X105129977Y-87514014D01*
X105109500Y-87590434D01*
X105109500Y-88939565D01*
X105129977Y-89015986D01*
X105129979Y-89015989D01*
X105131394Y-89018439D01*
X105131401Y-89018467D01*
X105131408Y-89018464D01*
X105169538Y-89084508D01*
X105169546Y-89084518D01*
X108882595Y-92797566D01*
X108916621Y-92859878D01*
X108919500Y-92886661D01*
X108919500Y-100369565D01*
X108939977Y-100445985D01*
X108939978Y-100445988D01*
X108939979Y-100445989D01*
X108979540Y-100514511D01*
X108979542Y-100514513D01*
X108979545Y-100514517D01*
X109965029Y-101500000D01*
X102350500Y-101500000D01*
X102350500Y-101326661D01*
X102370502Y-101258540D01*
X102387405Y-101237566D01*
X103745454Y-99879517D01*
X103745460Y-99879511D01*
X103785022Y-99810988D01*
X103805500Y-99734562D01*
X103805500Y-99655438D01*
X103805500Y-97998645D01*
X103825502Y-97930524D01*
X103879158Y-97884031D01*
X103883250Y-97882249D01*
X103898389Y-97875979D01*
X104034413Y-97785091D01*
X104150091Y-97669413D01*
X104240979Y-97533389D01*
X104303584Y-97382248D01*
X104335500Y-97221797D01*
X104335500Y-97058203D01*
X104303584Y-96897752D01*
X104240979Y-96746611D01*
X104150091Y-96610587D01*
X104034413Y-96494909D01*
X103898389Y-96404021D01*
X103747249Y-96341416D01*
X103586800Y-96309500D01*
X103586797Y-96309500D01*
X103423203Y-96309500D01*
X103423199Y-96309500D01*
X103262750Y-96341416D01*
X103262749Y-96341417D01*
X103111609Y-96404022D01*
X102975590Y-96494906D01*
X102975584Y-96494911D01*
X102859911Y-96610584D01*
X102859906Y-96610590D01*
X102769022Y-96746609D01*
X102706417Y-96897749D01*
X102706416Y-96897750D01*
X102674500Y-97058199D01*
X102674500Y-97221800D01*
X102706416Y-97382248D01*
X102769021Y-97533389D01*
X102859909Y-97669413D01*
X102975587Y-97785091D01*
X102975590Y-97785093D01*
X103111609Y-97875978D01*
X103111610Y-97875978D01*
X103111611Y-97875979D01*
X103126717Y-97882236D01*
X103181998Y-97926783D01*
X103204420Y-97994146D01*
X103204500Y-97998645D01*
X103204500Y-99518339D01*
X103184498Y-99586460D01*
X103167595Y-99607434D01*
X101865489Y-100909540D01*
X101837515Y-100937514D01*
X101809541Y-100965487D01*
X101809539Y-100965490D01*
X101769977Y-101034014D01*
X101749500Y-101110434D01*
X101749500Y-101500000D01*
X85626000Y-101500000D01*
X85557879Y-101479998D01*
X85511386Y-101426342D01*
X85500000Y-101374000D01*
X85500000Y-95606402D01*
X95219000Y-95606402D01*
X95219000Y-96251000D01*
X96146297Y-96251000D01*
X96111075Y-96312007D01*
X96077000Y-96439174D01*
X96077000Y-96570826D01*
X96111075Y-96697993D01*
X96146297Y-96759000D01*
X95219000Y-96759000D01*
X95219000Y-97403597D01*
X95225505Y-97464093D01*
X95276555Y-97600964D01*
X95276555Y-97600965D01*
X95364095Y-97717904D01*
X95481034Y-97805444D01*
X95617906Y-97856494D01*
X95678402Y-97862999D01*
X95678415Y-97863000D01*
X96323000Y-97863000D01*
X96323000Y-96935702D01*
X96384007Y-96970925D01*
X96511174Y-97005000D01*
X96642826Y-97005000D01*
X96769993Y-96970925D01*
X96831000Y-96935702D01*
X96831000Y-97863000D01*
X97475585Y-97863000D01*
X97475597Y-97862999D01*
X97536093Y-97856494D01*
X97672964Y-97805444D01*
X97672965Y-97805444D01*
X97789904Y-97717904D01*
X97877444Y-97600965D01*
X97877444Y-97600964D01*
X97928494Y-97464093D01*
X97934999Y-97403597D01*
X97935000Y-97403585D01*
X97935000Y-96759000D01*
X97007703Y-96759000D01*
X97042925Y-96697993D01*
X97077000Y-96570826D01*
X97077000Y-96439174D01*
X97042925Y-96312007D01*
X97007703Y-96251000D01*
X97935000Y-96251000D01*
X97935000Y-95606414D01*
X97934999Y-95606402D01*
X97930641Y-95565875D01*
X100358333Y-95565875D01*
X100358334Y-95565876D01*
X100368553Y-95573301D01*
X100368566Y-95573309D01*
X100528158Y-95654625D01*
X100528162Y-95654626D01*
X100698512Y-95709977D01*
X100875440Y-95738000D01*
X101054560Y-95738000D01*
X101231487Y-95709977D01*
X101401836Y-95654627D01*
X101561444Y-95573303D01*
X101571665Y-95565876D01*
X100965000Y-94959210D01*
X100964999Y-94959210D01*
X100358333Y-95565875D01*
X97930641Y-95565875D01*
X97928494Y-95545906D01*
X97877444Y-95409035D01*
X97877444Y-95409034D01*
X97789904Y-95292095D01*
X97672965Y-95204555D01*
X97536093Y-95153505D01*
X97475597Y-95147000D01*
X97101933Y-95147000D01*
X97033812Y-95126998D01*
X96987319Y-95073342D01*
X96977215Y-95003068D01*
X97006709Y-94938488D01*
X97053715Y-94904591D01*
X97074598Y-94895941D01*
X97246655Y-94780977D01*
X97392977Y-94634655D01*
X97475974Y-94510440D01*
X99827000Y-94510440D01*
X99827000Y-94689559D01*
X99855022Y-94866487D01*
X99910373Y-95036837D01*
X99910374Y-95036841D01*
X99991690Y-95196433D01*
X99991698Y-95196446D01*
X99999122Y-95206664D01*
X99999123Y-95206664D01*
X100605789Y-94599999D01*
X100559712Y-94553922D01*
X100615000Y-94553922D01*
X100615000Y-94646078D01*
X100638852Y-94735095D01*
X100684930Y-94814905D01*
X100750095Y-94880070D01*
X100829905Y-94926148D01*
X100918922Y-94950000D01*
X101011078Y-94950000D01*
X101100095Y-94926148D01*
X101179905Y-94880070D01*
X101245070Y-94814905D01*
X101291148Y-94735095D01*
X101315000Y-94646078D01*
X101315000Y-94599999D01*
X101324210Y-94599999D01*
X101930876Y-95206664D01*
X101938303Y-95196444D01*
X102019627Y-95036836D01*
X102074977Y-94866487D01*
X102103000Y-94689559D01*
X102103000Y-94510440D01*
X102074977Y-94333512D01*
X102019626Y-94163162D01*
X102019625Y-94163158D01*
X101938309Y-94003566D01*
X101938301Y-94003553D01*
X101930876Y-93993334D01*
X101930875Y-93993333D01*
X101324210Y-94599999D01*
X101315000Y-94599999D01*
X101315000Y-94553922D01*
X101291148Y-94464905D01*
X101245070Y-94385095D01*
X101179905Y-94319930D01*
X101100095Y-94273852D01*
X101011078Y-94250000D01*
X100918922Y-94250000D01*
X100829905Y-94273852D01*
X100750095Y-94319930D01*
X100684930Y-94385095D01*
X100638852Y-94464905D01*
X100615000Y-94553922D01*
X100559712Y-94553922D01*
X99999124Y-93993334D01*
X99999122Y-93993334D01*
X99991693Y-94003559D01*
X99910374Y-94163158D01*
X99910373Y-94163162D01*
X99855022Y-94333512D01*
X99827000Y-94510440D01*
X97475974Y-94510440D01*
X97507941Y-94462598D01*
X97557364Y-94343280D01*
X97601913Y-94288001D01*
X97669276Y-94265580D01*
X97673773Y-94265500D01*
X97844562Y-94265500D01*
X97920989Y-94245021D01*
X97989511Y-94205460D01*
X98045460Y-94149511D01*
X98560849Y-93634122D01*
X100358334Y-93634122D01*
X100358334Y-93634124D01*
X100964999Y-94240789D01*
X100965000Y-94240789D01*
X101571664Y-93634123D01*
X101571664Y-93634122D01*
X101561446Y-93626698D01*
X101561433Y-93626690D01*
X101401841Y-93545374D01*
X101401837Y-93545373D01*
X101231487Y-93490022D01*
X101054560Y-93462000D01*
X100875440Y-93462000D01*
X100698512Y-93490022D01*
X100528162Y-93545373D01*
X100528158Y-93545374D01*
X100368559Y-93626693D01*
X100358334Y-93634122D01*
X98560849Y-93634122D01*
X99935460Y-92259511D01*
X99975022Y-92190988D01*
X99995500Y-92114562D01*
X99995500Y-92035438D01*
X99995500Y-91978199D01*
X102674500Y-91978199D01*
X102674500Y-92141800D01*
X102706416Y-92302248D01*
X102769021Y-92453389D01*
X102783795Y-92475500D01*
X102817198Y-92525492D01*
X102859909Y-92589413D01*
X102975587Y-92705091D01*
X103111611Y-92795979D01*
X103262752Y-92858584D01*
X103423203Y-92890500D01*
X103586797Y-92890500D01*
X103747248Y-92858584D01*
X103898389Y-92795979D01*
X104034413Y-92705091D01*
X104150091Y-92589413D01*
X104240979Y-92453389D01*
X104303584Y-92302248D01*
X104335500Y-92141797D01*
X104335500Y-91978203D01*
X104303584Y-91817752D01*
X104240979Y-91666611D01*
X104150091Y-91530587D01*
X104034413Y-91414909D01*
X103898389Y-91324021D01*
X103747249Y-91261416D01*
X103586800Y-91229500D01*
X103586797Y-91229500D01*
X103423203Y-91229500D01*
X103423199Y-91229500D01*
X103262750Y-91261416D01*
X103262749Y-91261417D01*
X103174211Y-91298091D01*
X103111636Y-91324011D01*
X103111609Y-91324022D01*
X102975590Y-91414906D01*
X102975584Y-91414911D01*
X102859911Y-91530584D01*
X102859906Y-91530590D01*
X102769022Y-91666609D01*
X102706417Y-91817749D01*
X102706416Y-91817750D01*
X102674500Y-91978199D01*
X99995500Y-91978199D01*
X99995500Y-88162061D01*
X101007000Y-88162061D01*
X101007000Y-88367938D01*
X101039208Y-88571296D01*
X101102826Y-88767093D01*
X101102829Y-88767099D01*
X101196297Y-88950540D01*
X101196298Y-88950541D01*
X101227416Y-88993372D01*
X101915000Y-88305788D01*
X101915000Y-88317661D01*
X101942259Y-88419394D01*
X101994920Y-88510606D01*
X102069394Y-88585080D01*
X102160606Y-88637741D01*
X102262339Y-88665000D01*
X102274210Y-88665000D01*
X101586626Y-89352582D01*
X101586626Y-89352583D01*
X101629454Y-89383699D01*
X101812900Y-89477170D01*
X101812906Y-89477173D01*
X102008705Y-89540791D01*
X102008701Y-89540791D01*
X102212061Y-89573000D01*
X102417939Y-89573000D01*
X102621296Y-89540791D01*
X102817093Y-89477173D01*
X102817099Y-89477170D01*
X103000541Y-89383701D01*
X103043372Y-89352582D01*
X103043372Y-89352581D01*
X102355791Y-88665000D01*
X102367661Y-88665000D01*
X102469394Y-88637741D01*
X102560606Y-88585080D01*
X102635080Y-88510606D01*
X102687741Y-88419394D01*
X102715000Y-88317661D01*
X102715000Y-88305791D01*
X103402581Y-88993372D01*
X103402582Y-88993372D01*
X103433701Y-88950541D01*
X103527170Y-88767099D01*
X103527173Y-88767093D01*
X103590791Y-88571296D01*
X103623000Y-88367938D01*
X103623000Y-88162061D01*
X103590791Y-87958703D01*
X103527173Y-87762906D01*
X103527170Y-87762900D01*
X103433699Y-87579454D01*
X103402583Y-87536626D01*
X103402582Y-87536626D01*
X102715000Y-88224208D01*
X102715000Y-88212339D01*
X102687741Y-88110606D01*
X102635080Y-88019394D01*
X102560606Y-87944920D01*
X102469394Y-87892259D01*
X102367661Y-87865000D01*
X102355790Y-87865000D01*
X103043372Y-87177416D01*
X103000541Y-87146298D01*
X103000540Y-87146297D01*
X102817099Y-87052829D01*
X102817093Y-87052826D01*
X102621294Y-86989208D01*
X102621298Y-86989208D01*
X102417939Y-86957000D01*
X102212061Y-86957000D01*
X102008703Y-86989208D01*
X101812906Y-87052826D01*
X101812900Y-87052829D01*
X101629452Y-87146301D01*
X101586625Y-87177416D01*
X102274209Y-87865000D01*
X102262339Y-87865000D01*
X102160606Y-87892259D01*
X102069394Y-87944920D01*
X101994920Y-88019394D01*
X101942259Y-88110606D01*
X101915000Y-88212339D01*
X101915000Y-88224209D01*
X101227416Y-87536625D01*
X101196301Y-87579452D01*
X101102829Y-87762900D01*
X101102826Y-87762906D01*
X101039208Y-87958703D01*
X101007000Y-88162061D01*
X99995500Y-88162061D01*
X99995500Y-83836186D01*
X100015502Y-83768065D01*
X100069158Y-83721572D01*
X100082560Y-83716354D01*
X100155832Y-83692547D01*
X100324199Y-83606760D01*
X100477073Y-83495690D01*
X100610690Y-83362073D01*
X100721760Y-83209199D01*
X100807547Y-83040832D01*
X100865940Y-82861118D01*
X100895500Y-82674481D01*
X100895500Y-82485519D01*
X100865940Y-82298882D01*
X100807547Y-82119168D01*
X100721760Y-81950801D01*
X100610690Y-81797927D01*
X100610688Y-81797924D01*
X100477075Y-81664311D01*
X100324202Y-81553242D01*
X100324201Y-81553241D01*
X100324199Y-81553240D01*
X100155832Y-81467453D01*
X100155831Y-81467452D01*
X100155828Y-81467451D01*
X99976123Y-81409061D01*
X99976119Y-81409060D01*
X99976118Y-81409060D01*
X99789481Y-81379500D01*
X99600519Y-81379500D01*
X99413882Y-81409060D01*
X99413876Y-81409061D01*
X99234171Y-81467451D01*
X99065797Y-81553242D01*
X98912924Y-81664311D01*
X98779311Y-81797924D01*
X98668242Y-81950797D01*
X98582451Y-82119171D01*
X98524061Y-82298876D01*
X98524060Y-82298881D01*
X98524060Y-82298882D01*
X98494500Y-82485519D01*
X98494500Y-82674481D01*
X98524060Y-82861118D01*
X98524061Y-82861123D01*
X98582451Y-83040828D01*
X98582452Y-83040831D01*
X98582453Y-83040832D01*
X98645895Y-83165345D01*
X98668242Y-83209202D01*
X98779311Y-83362075D01*
X98912924Y-83495688D01*
X98958196Y-83528580D01*
X99065801Y-83606760D01*
X99234168Y-83692547D01*
X99307436Y-83716353D01*
X99366042Y-83756427D01*
X99393679Y-83821823D01*
X99394500Y-83836186D01*
X99394500Y-91898339D01*
X99374498Y-91966460D01*
X99357595Y-91987434D01*
X97749560Y-93595468D01*
X97687248Y-93629494D01*
X97616432Y-93624429D01*
X97559597Y-93581882D01*
X97544056Y-93554591D01*
X97527080Y-93513608D01*
X97507941Y-93467402D01*
X97392977Y-93295345D01*
X97392975Y-93295343D01*
X97392970Y-93295337D01*
X97246662Y-93149029D01*
X97246656Y-93149024D01*
X97246655Y-93149023D01*
X97074598Y-93034059D01*
X96883420Y-92954870D01*
X96680467Y-92914500D01*
X96680465Y-92914500D01*
X96473535Y-92914500D01*
X96473532Y-92914500D01*
X96270579Y-92954870D01*
X96270574Y-92954872D01*
X96079402Y-93034059D01*
X95907343Y-93149024D01*
X95907337Y-93149029D01*
X95761029Y-93295337D01*
X95761024Y-93295343D01*
X95646059Y-93467402D01*
X95566872Y-93658574D01*
X95566870Y-93658579D01*
X95526500Y-93861532D01*
X95526500Y-94068467D01*
X95547330Y-94173186D01*
X95566870Y-94271420D01*
X95646059Y-94462598D01*
X95721456Y-94575438D01*
X95761024Y-94634656D01*
X95761029Y-94634662D01*
X95907337Y-94780970D01*
X95907343Y-94780975D01*
X95907345Y-94780977D01*
X96079402Y-94895941D01*
X96100285Y-94904591D01*
X96155566Y-94949140D01*
X96177987Y-95016503D01*
X96160429Y-95085294D01*
X96108466Y-95133673D01*
X96052067Y-95147000D01*
X95678402Y-95147000D01*
X95617906Y-95153505D01*
X95481035Y-95204555D01*
X95481034Y-95204555D01*
X95364095Y-95292095D01*
X95276555Y-95409034D01*
X95276555Y-95409035D01*
X95225505Y-95545906D01*
X95219000Y-95606402D01*
X85500000Y-95606402D01*
X85500000Y-91321532D01*
X95526500Y-91321532D01*
X95526500Y-91528467D01*
X95533662Y-91564471D01*
X95566870Y-91731420D01*
X95646059Y-91922598D01*
X95683213Y-91978203D01*
X95761024Y-92094656D01*
X95761029Y-92094662D01*
X95907337Y-92240970D01*
X95907343Y-92240975D01*
X95907345Y-92240977D01*
X96079402Y-92355941D01*
X96270580Y-92435130D01*
X96473535Y-92475500D01*
X96473536Y-92475500D01*
X96680464Y-92475500D01*
X96680465Y-92475500D01*
X96883420Y-92435130D01*
X97074598Y-92355941D01*
X97246655Y-92240977D01*
X97392977Y-92094655D01*
X97507941Y-91922598D01*
X97587130Y-91731420D01*
X97627500Y-91528465D01*
X97627500Y-91321535D01*
X97587130Y-91118580D01*
X97507941Y-90927402D01*
X97392977Y-90755345D01*
X97392975Y-90755343D01*
X97392970Y-90755337D01*
X97246662Y-90609029D01*
X97246656Y-90609024D01*
X97246655Y-90609023D01*
X97074598Y-90494059D01*
X96883420Y-90414870D01*
X96855352Y-90409287D01*
X96680467Y-90374500D01*
X96680465Y-90374500D01*
X96473535Y-90374500D01*
X96473532Y-90374500D01*
X96270579Y-90414870D01*
X96270574Y-90414872D01*
X96079402Y-90494059D01*
X95907343Y-90609024D01*
X95907337Y-90609029D01*
X95761029Y-90755337D01*
X95761024Y-90755343D01*
X95646059Y-90927402D01*
X95566872Y-91118574D01*
X95566870Y-91118579D01*
X95526500Y-91321532D01*
X85500000Y-91321532D01*
X85500000Y-88781532D01*
X95526500Y-88781532D01*
X95526500Y-88988467D01*
X95558956Y-89151632D01*
X95566870Y-89191420D01*
X95646059Y-89382598D01*
X95761023Y-89554655D01*
X95761024Y-89554656D01*
X95761029Y-89554662D01*
X95907337Y-89700970D01*
X95907343Y-89700975D01*
X95907345Y-89700977D01*
X96079402Y-89815941D01*
X96270580Y-89895130D01*
X96473535Y-89935500D01*
X96473536Y-89935500D01*
X96680464Y-89935500D01*
X96680465Y-89935500D01*
X96883420Y-89895130D01*
X97074598Y-89815941D01*
X97246655Y-89700977D01*
X97392977Y-89554655D01*
X97507941Y-89382598D01*
X97587130Y-89191420D01*
X97627500Y-88988465D01*
X97627500Y-88781535D01*
X97587130Y-88578580D01*
X97507941Y-88387402D01*
X97392977Y-88215345D01*
X97392975Y-88215343D01*
X97392970Y-88215337D01*
X97246662Y-88069029D01*
X97246656Y-88069024D01*
X97246655Y-88069023D01*
X97074598Y-87954059D01*
X96883420Y-87874870D01*
X96833800Y-87865000D01*
X96680467Y-87834500D01*
X96680465Y-87834500D01*
X96473535Y-87834500D01*
X96473532Y-87834500D01*
X96270579Y-87874870D01*
X96270574Y-87874872D01*
X96079402Y-87954059D01*
X95907343Y-88069024D01*
X95907337Y-88069029D01*
X95761029Y-88215337D01*
X95761024Y-88215343D01*
X95646059Y-88387402D01*
X95566872Y-88578574D01*
X95566870Y-88578579D01*
X95526500Y-88781532D01*
X85500000Y-88781532D01*
X85500000Y-86241532D01*
X95526500Y-86241532D01*
X95526500Y-86448467D01*
X95566870Y-86651420D01*
X95646059Y-86842598D01*
X95744020Y-86989208D01*
X95761024Y-87014656D01*
X95761029Y-87014662D01*
X95907337Y-87160970D01*
X95907343Y-87160975D01*
X95907345Y-87160977D01*
X96079402Y-87275941D01*
X96270580Y-87355130D01*
X96473535Y-87395500D01*
X96473536Y-87395500D01*
X96680464Y-87395500D01*
X96680465Y-87395500D01*
X96883420Y-87355130D01*
X97074598Y-87275941D01*
X97246655Y-87160977D01*
X97392977Y-87014655D01*
X97507941Y-86842598D01*
X97587130Y-86651420D01*
X97627500Y-86448465D01*
X97627500Y-86241535D01*
X97587130Y-86038580D01*
X97507941Y-85847402D01*
X97392977Y-85675345D01*
X97392975Y-85675343D01*
X97392970Y-85675337D01*
X97246662Y-85529029D01*
X97246656Y-85529024D01*
X97230662Y-85518337D01*
X97074598Y-85414059D01*
X96883420Y-85334870D01*
X96680467Y-85294500D01*
X96680465Y-85294500D01*
X96473535Y-85294500D01*
X96473532Y-85294500D01*
X96270579Y-85334870D01*
X96270574Y-85334872D01*
X96079402Y-85414059D01*
X95907343Y-85529024D01*
X95907337Y-85529029D01*
X95761029Y-85675337D01*
X95761024Y-85675343D01*
X95646059Y-85847402D01*
X95566872Y-86038574D01*
X95566870Y-86038579D01*
X95526500Y-86241532D01*
X85500000Y-86241532D01*
X85500000Y-83701532D01*
X95526500Y-83701532D01*
X95526500Y-83908467D01*
X95566870Y-84111420D01*
X95646059Y-84302598D01*
X95761023Y-84474655D01*
X95761024Y-84474656D01*
X95761029Y-84474662D01*
X95907337Y-84620970D01*
X95907343Y-84620975D01*
X95907345Y-84620977D01*
X96079402Y-84735941D01*
X96270580Y-84815130D01*
X96473535Y-84855500D01*
X96473536Y-84855500D01*
X96680464Y-84855500D01*
X96680465Y-84855500D01*
X96883420Y-84815130D01*
X97074598Y-84735941D01*
X97246655Y-84620977D01*
X97392977Y-84474655D01*
X97507941Y-84302598D01*
X97587130Y-84111420D01*
X97627500Y-83908465D01*
X97627500Y-83701535D01*
X97587130Y-83498580D01*
X97507941Y-83307402D01*
X97392977Y-83135345D01*
X97392975Y-83135343D01*
X97392970Y-83135337D01*
X97246662Y-82989029D01*
X97246656Y-82989024D01*
X97119496Y-82904059D01*
X97074598Y-82874059D01*
X96883420Y-82794870D01*
X96680467Y-82754500D01*
X96680465Y-82754500D01*
X96473535Y-82754500D01*
X96473532Y-82754500D01*
X96270579Y-82794870D01*
X96270574Y-82794872D01*
X96079402Y-82874059D01*
X95907343Y-82989024D01*
X95907337Y-82989029D01*
X95761029Y-83135337D01*
X95761024Y-83135343D01*
X95646059Y-83307402D01*
X95566872Y-83498574D01*
X95566870Y-83498579D01*
X95526500Y-83701532D01*
X85500000Y-83701532D01*
X85500000Y-81161532D01*
X95526500Y-81161532D01*
X95526500Y-81368467D01*
X95546189Y-81467451D01*
X95566870Y-81571420D01*
X95646059Y-81762598D01*
X95761023Y-81934655D01*
X95761024Y-81934656D01*
X95761029Y-81934662D01*
X95907337Y-82080970D01*
X95907343Y-82080975D01*
X95907345Y-82080977D01*
X96079402Y-82195941D01*
X96270580Y-82275130D01*
X96473535Y-82315500D01*
X96473536Y-82315500D01*
X96680464Y-82315500D01*
X96680465Y-82315500D01*
X96883420Y-82275130D01*
X97074598Y-82195941D01*
X97246655Y-82080977D01*
X97392977Y-81934655D01*
X97507941Y-81762598D01*
X97587130Y-81571420D01*
X97627500Y-81368465D01*
X97627500Y-81161535D01*
X97587130Y-80958580D01*
X97507941Y-80767402D01*
X97392977Y-80595345D01*
X97392975Y-80595343D01*
X97392970Y-80595337D01*
X97246662Y-80449029D01*
X97246656Y-80449024D01*
X97119496Y-80364059D01*
X97074598Y-80334059D01*
X96883420Y-80254870D01*
X96680467Y-80214500D01*
X96680465Y-80214500D01*
X96473535Y-80214500D01*
X96473532Y-80214500D01*
X96270579Y-80254870D01*
X96270574Y-80254872D01*
X96079402Y-80334059D01*
X95907343Y-80449024D01*
X95907337Y-80449029D01*
X95761029Y-80595337D01*
X95761024Y-80595343D01*
X95646059Y-80767402D01*
X95566872Y-80958574D01*
X95566870Y-80958579D01*
X95526500Y-81161532D01*
X85500000Y-81161532D01*
X85500000Y-78621532D01*
X95526500Y-78621532D01*
X95526500Y-78621535D01*
X95526500Y-78828465D01*
X95566870Y-79031420D01*
X95646059Y-79222598D01*
X95761023Y-79394655D01*
X95761024Y-79394656D01*
X95761029Y-79394662D01*
X95907337Y-79540970D01*
X95907343Y-79540975D01*
X95907345Y-79540977D01*
X96079402Y-79655941D01*
X96270580Y-79735130D01*
X96473535Y-79775500D01*
X96473536Y-79775500D01*
X96680464Y-79775500D01*
X96680465Y-79775500D01*
X96883420Y-79735130D01*
X97074598Y-79655941D01*
X97246655Y-79540977D01*
X97392977Y-79394655D01*
X97507941Y-79222598D01*
X97587130Y-79031420D01*
X97627500Y-78828465D01*
X97627500Y-78621535D01*
X97587130Y-78418580D01*
X97507941Y-78227402D01*
X97392977Y-78055345D01*
X97392975Y-78055343D01*
X97392970Y-78055337D01*
X97246662Y-77909029D01*
X97246656Y-77909024D01*
X97211080Y-77885253D01*
X97074598Y-77794059D01*
X96883420Y-77714870D01*
X96680467Y-77674500D01*
X96680465Y-77674500D01*
X96473535Y-77674500D01*
X96473532Y-77674500D01*
X96270579Y-77714870D01*
X96270574Y-77714872D01*
X96079402Y-77794059D01*
X95907343Y-77909024D01*
X95907337Y-77909029D01*
X95761029Y-78055337D01*
X95761024Y-78055343D01*
X95646059Y-78227402D01*
X95566872Y-78418574D01*
X95566870Y-78418579D01*
X95526500Y-78621532D01*
X85500000Y-78621532D01*
X85500000Y-73626000D01*
X85520002Y-73557879D01*
X85573658Y-73511386D01*
X85626000Y-73500000D01*
X93500000Y-73500000D01*
X103204500Y-73500000D01*
X103204500Y-73739562D01*
G37*
%TD.AperFunction*%
%TA.AperFunction,Conductor*%
G36*
X121239500Y-74419750D02*
G01*
X121240060Y-74422566D01*
X121251133Y-74478231D01*
X121295448Y-74544552D01*
X121361769Y-74588867D01*
X121420252Y-74600500D01*
X121420253Y-74600500D01*
X123019747Y-74600500D01*
X123019748Y-74600500D01*
X123078231Y-74588867D01*
X123144552Y-74544552D01*
X123188867Y-74478231D01*
X123200500Y-74419748D01*
X123200500Y-73500000D01*
X136500000Y-73500000D01*
X144374000Y-73500000D01*
X144442121Y-73520002D01*
X144488614Y-73573658D01*
X144500000Y-73626000D01*
X144500000Y-101374000D01*
X144479998Y-101442121D01*
X144426342Y-101488614D01*
X144374000Y-101500000D01*
X132970581Y-101500000D01*
X132907628Y-101405784D01*
X132907626Y-101405782D01*
X132907621Y-101405776D01*
X132759223Y-101257378D01*
X132759217Y-101257373D01*
X132720822Y-101231718D01*
X132584703Y-101140767D01*
X132390796Y-101060447D01*
X132184946Y-101019500D01*
X132184943Y-101019500D01*
X131975057Y-101019500D01*
X131975053Y-101019500D01*
X131769203Y-101060447D01*
X131769202Y-101060448D01*
X131701593Y-101088453D01*
X131586601Y-101136085D01*
X131575295Y-101140768D01*
X131400782Y-101257373D01*
X131400776Y-101257378D01*
X131252378Y-101405776D01*
X131252373Y-101405782D01*
X131189419Y-101500000D01*
X130430581Y-101500000D01*
X130367628Y-101405784D01*
X130367626Y-101405782D01*
X130367621Y-101405776D01*
X130219223Y-101257378D01*
X130219217Y-101257373D01*
X130180822Y-101231718D01*
X130044703Y-101140767D01*
X129918280Y-101088400D01*
X129863001Y-101043852D01*
X129840580Y-100976489D01*
X129840500Y-100971992D01*
X129840500Y-96281000D01*
X131958302Y-96281000D01*
X132862297Y-96281000D01*
X132827075Y-96342007D01*
X132793000Y-96469174D01*
X132793000Y-96600826D01*
X132827075Y-96727993D01*
X132862297Y-96789000D01*
X131958302Y-96789000D01*
X131968440Y-96853004D01*
X132034490Y-97056286D01*
X132034493Y-97056292D01*
X132131536Y-97246750D01*
X132257177Y-97419679D01*
X132408320Y-97570822D01*
X132581249Y-97696463D01*
X132771707Y-97793506D01*
X132771713Y-97793509D01*
X132974998Y-97859560D01*
X133039000Y-97869696D01*
X133039000Y-96965702D01*
X133100007Y-97000925D01*
X133227174Y-97035000D01*
X133358826Y-97035000D01*
X133485993Y-97000925D01*
X133547000Y-96965702D01*
X133547000Y-97869696D01*
X133611001Y-97859560D01*
X133814286Y-97793509D01*
X133814292Y-97793506D01*
X134004750Y-97696463D01*
X134177679Y-97570822D01*
X134328822Y-97419679D01*
X134454463Y-97246750D01*
X134551506Y-97056292D01*
X134551509Y-97056286D01*
X134617559Y-96853004D01*
X134627698Y-96789000D01*
X133723703Y-96789000D01*
X133758925Y-96727993D01*
X133793000Y-96600826D01*
X133793000Y-96469174D01*
X133758925Y-96342007D01*
X133723703Y-96281000D01*
X134627697Y-96281000D01*
X134617559Y-96216995D01*
X134551509Y-96013713D01*
X134551506Y-96013707D01*
X134454463Y-95823249D01*
X134328822Y-95650320D01*
X134177679Y-95499177D01*
X134004750Y-95373536D01*
X133814292Y-95276493D01*
X133814286Y-95276490D01*
X133651562Y-95223618D01*
X133592956Y-95183544D01*
X133565319Y-95118148D01*
X133577426Y-95048191D01*
X133625432Y-94995885D01*
X133642272Y-94987379D01*
X133790598Y-94925941D01*
X133962655Y-94810977D01*
X134108977Y-94664655D01*
X134223941Y-94492598D01*
X134303130Y-94301420D01*
X134343500Y-94098465D01*
X134343500Y-93891535D01*
X134303130Y-93688580D01*
X134223941Y-93497402D01*
X134108977Y-93325345D01*
X134108975Y-93325343D01*
X134108970Y-93325337D01*
X133962662Y-93179029D01*
X133962656Y-93179024D01*
X133958717Y-93176392D01*
X133790598Y-93064059D01*
X133599420Y-92984870D01*
X133396467Y-92944500D01*
X133396465Y-92944500D01*
X133189535Y-92944500D01*
X133189532Y-92944500D01*
X132986579Y-92984870D01*
X132986574Y-92984872D01*
X132795402Y-93064059D01*
X132623343Y-93179024D01*
X132623337Y-93179029D01*
X132477029Y-93325337D01*
X132477024Y-93325343D01*
X132362059Y-93497402D01*
X132282872Y-93688574D01*
X132282870Y-93688579D01*
X132242500Y-93891532D01*
X132242500Y-94098467D01*
X132263782Y-94205458D01*
X132282870Y-94301420D01*
X132362059Y-94492598D01*
X132477023Y-94664655D01*
X132477024Y-94664656D01*
X132477029Y-94664662D01*
X132623337Y-94810970D01*
X132623343Y-94810975D01*
X132623345Y-94810977D01*
X132795402Y-94925941D01*
X132943719Y-94987376D01*
X132999000Y-95031924D01*
X133021421Y-95099288D01*
X133003863Y-95168079D01*
X132951901Y-95216457D01*
X132934438Y-95223618D01*
X132771710Y-95276492D01*
X132771707Y-95276493D01*
X132581249Y-95373536D01*
X132408320Y-95499177D01*
X132257177Y-95650320D01*
X132131536Y-95823249D01*
X132034493Y-96013707D01*
X132034490Y-96013713D01*
X131968440Y-96216995D01*
X131958302Y-96281000D01*
X129840500Y-96281000D01*
X129840500Y-91351532D01*
X132242500Y-91351532D01*
X132242500Y-91558467D01*
X132254076Y-91616661D01*
X132282870Y-91761420D01*
X132362059Y-91952598D01*
X132470278Y-92114560D01*
X132477024Y-92124656D01*
X132477029Y-92124662D01*
X132623337Y-92270970D01*
X132623343Y-92270975D01*
X132623345Y-92270977D01*
X132795402Y-92385941D01*
X132986580Y-92465130D01*
X133189535Y-92505500D01*
X133189536Y-92505500D01*
X133396464Y-92505500D01*
X133396465Y-92505500D01*
X133599420Y-92465130D01*
X133790598Y-92385941D01*
X133962655Y-92270977D01*
X134108977Y-92124655D01*
X134223941Y-91952598D01*
X134303130Y-91761420D01*
X134343500Y-91558465D01*
X134343500Y-91351535D01*
X134303130Y-91148580D01*
X134223941Y-90957402D01*
X134108977Y-90785345D01*
X134108975Y-90785343D01*
X134108970Y-90785337D01*
X133962662Y-90639029D01*
X133962656Y-90639024D01*
X133958717Y-90636392D01*
X133790598Y-90524059D01*
X133599420Y-90444870D01*
X133396467Y-90404500D01*
X133396465Y-90404500D01*
X133189535Y-90404500D01*
X133189532Y-90404500D01*
X132986579Y-90444870D01*
X132986574Y-90444872D01*
X132795402Y-90524059D01*
X132623343Y-90639024D01*
X132623337Y-90639029D01*
X132477029Y-90785337D01*
X132477024Y-90785343D01*
X132362059Y-90957402D01*
X132282872Y-91148574D01*
X132282870Y-91148579D01*
X132242500Y-91351532D01*
X129840500Y-91351532D01*
X129840500Y-89076661D01*
X129860502Y-89008540D01*
X129877405Y-88987566D01*
X130053439Y-88811532D01*
X132242500Y-88811532D01*
X132242500Y-88811535D01*
X132242500Y-89018465D01*
X132282870Y-89221420D01*
X132362059Y-89412598D01*
X132477023Y-89584655D01*
X132477024Y-89584656D01*
X132477029Y-89584662D01*
X132623337Y-89730970D01*
X132623343Y-89730975D01*
X132623345Y-89730977D01*
X132795402Y-89845941D01*
X132986580Y-89925130D01*
X133189535Y-89965500D01*
X133189536Y-89965500D01*
X133396464Y-89965500D01*
X133396465Y-89965500D01*
X133599420Y-89925130D01*
X133790598Y-89845941D01*
X133962655Y-89730977D01*
X134108977Y-89584655D01*
X134223941Y-89412598D01*
X134303130Y-89221420D01*
X134343500Y-89018465D01*
X134343500Y-88811535D01*
X134303130Y-88608580D01*
X134223941Y-88417402D01*
X134108977Y-88245345D01*
X134108975Y-88245343D01*
X134108970Y-88245337D01*
X133962662Y-88099029D01*
X133962656Y-88099024D01*
X133962655Y-88099023D01*
X133790598Y-87984059D01*
X133599420Y-87904870D01*
X133572423Y-87899500D01*
X133396467Y-87864500D01*
X133396465Y-87864500D01*
X133189535Y-87864500D01*
X133189532Y-87864500D01*
X132986579Y-87904870D01*
X132986574Y-87904872D01*
X132795402Y-87984059D01*
X132623343Y-88099024D01*
X132623337Y-88099029D01*
X132477029Y-88245337D01*
X132477024Y-88245343D01*
X132362059Y-88417402D01*
X132282872Y-88608574D01*
X132282870Y-88608579D01*
X132242500Y-88811532D01*
X130053439Y-88811532D01*
X130148721Y-88716250D01*
X131126431Y-87738540D01*
X132120441Y-86744529D01*
X132182751Y-86710506D01*
X132253566Y-86715570D01*
X132310402Y-86758117D01*
X132325942Y-86785407D01*
X132362056Y-86872593D01*
X132362058Y-86872597D01*
X132362059Y-86872598D01*
X132463911Y-87025032D01*
X132477024Y-87044656D01*
X132477029Y-87044662D01*
X132623337Y-87190970D01*
X132623343Y-87190975D01*
X132623345Y-87190977D01*
X132795402Y-87305941D01*
X132986580Y-87385130D01*
X133189535Y-87425500D01*
X133189536Y-87425500D01*
X133396464Y-87425500D01*
X133396465Y-87425500D01*
X133599420Y-87385130D01*
X133790598Y-87305941D01*
X133962655Y-87190977D01*
X134108977Y-87044655D01*
X134223941Y-86872598D01*
X134303130Y-86681420D01*
X134343500Y-86478465D01*
X134343500Y-86271535D01*
X134303130Y-86068580D01*
X134223941Y-85877402D01*
X134108977Y-85705345D01*
X134108975Y-85705343D01*
X134108970Y-85705337D01*
X133962662Y-85559029D01*
X133962656Y-85559024D01*
X133962655Y-85559023D01*
X133790598Y-85444059D01*
X133599420Y-85364870D01*
X133396467Y-85324500D01*
X133396465Y-85324500D01*
X133189535Y-85324500D01*
X133189532Y-85324500D01*
X132986579Y-85364870D01*
X132986574Y-85364872D01*
X132795402Y-85444059D01*
X132623343Y-85559024D01*
X132623337Y-85559029D01*
X132477029Y-85705337D01*
X132477024Y-85705343D01*
X132382104Y-85847403D01*
X132362059Y-85877402D01*
X132334267Y-85944497D01*
X132312636Y-85996719D01*
X132268087Y-86051999D01*
X132200724Y-86074420D01*
X132196227Y-86074500D01*
X132025434Y-86074500D01*
X131949013Y-86094977D01*
X131888722Y-86129787D01*
X131888717Y-86129790D01*
X131880489Y-86134539D01*
X130589530Y-87425499D01*
X129355489Y-88659540D01*
X129328880Y-88686149D01*
X129299541Y-88715487D01*
X129299539Y-88715490D01*
X129259977Y-88784014D01*
X129239500Y-88860434D01*
X129239500Y-100971992D01*
X129219498Y-101040113D01*
X129165842Y-101086606D01*
X129161726Y-101088397D01*
X129046601Y-101136085D01*
X129035295Y-101140768D01*
X128860782Y-101257373D01*
X128860776Y-101257378D01*
X128712378Y-101405776D01*
X128712373Y-101405782D01*
X128649419Y-101500000D01*
X128065500Y-101500000D01*
X128065500Y-101200252D01*
X128053867Y-101141769D01*
X128009552Y-101075448D01*
X127943231Y-101031133D01*
X127943228Y-101031132D01*
X127884750Y-101019500D01*
X127884748Y-101019500D01*
X127426500Y-101019500D01*
X127358379Y-100999498D01*
X127311886Y-100945842D01*
X127300500Y-100893500D01*
X127300500Y-93940438D01*
X127300499Y-93940434D01*
X127280022Y-93864014D01*
X127280021Y-93864013D01*
X127280021Y-93864011D01*
X127240460Y-93795489D01*
X127184511Y-93739540D01*
X126267405Y-92822434D01*
X126233379Y-92760122D01*
X126230500Y-92733339D01*
X126230500Y-92644109D01*
X126230499Y-92644105D01*
X126196392Y-92516814D01*
X126159774Y-92453390D01*
X126130502Y-92402689D01*
X126130494Y-92402679D01*
X126037320Y-92309505D01*
X126037310Y-92309497D01*
X125923190Y-92243610D01*
X125923187Y-92243609D01*
X125923186Y-92243608D01*
X125923184Y-92243607D01*
X125923183Y-92243607D01*
X125889073Y-92234467D01*
X125795892Y-92209500D01*
X125664108Y-92209500D01*
X125595894Y-92227777D01*
X125536816Y-92243607D01*
X125536809Y-92243610D01*
X125422689Y-92309497D01*
X125422679Y-92309505D01*
X125329505Y-92402679D01*
X125329497Y-92402689D01*
X125263610Y-92516809D01*
X125263607Y-92516816D01*
X125244156Y-92589409D01*
X125229500Y-92644108D01*
X125229500Y-92775892D01*
X125241971Y-92822434D01*
X125263607Y-92903183D01*
X125263610Y-92903190D01*
X125329497Y-93017310D01*
X125329505Y-93017320D01*
X125422679Y-93110494D01*
X125422684Y-93110498D01*
X125422686Y-93110500D01*
X125536814Y-93176392D01*
X125664108Y-93210500D01*
X125664110Y-93210500D01*
X125753339Y-93210500D01*
X125821460Y-93230502D01*
X125842434Y-93247405D01*
X126662595Y-94067566D01*
X126696621Y-94129878D01*
X126699500Y-94156661D01*
X126699500Y-100893500D01*
X126679498Y-100961621D01*
X126625842Y-101008114D01*
X126573500Y-101019500D01*
X126115249Y-101019500D01*
X126056771Y-101031132D01*
X126056768Y-101031133D01*
X125990448Y-101075448D01*
X125946133Y-101141768D01*
X125946132Y-101141771D01*
X125934500Y-101200249D01*
X125934500Y-101500000D01*
X120388221Y-101500000D01*
X120352051Y-101318165D01*
X120333175Y-101272595D01*
X120312438Y-101222530D01*
X120304849Y-101151940D01*
X120336628Y-101088453D01*
X120339723Y-101085246D01*
X124700460Y-96724511D01*
X124740022Y-96655988D01*
X124760500Y-96579562D01*
X124760500Y-96500438D01*
X124760500Y-91616661D01*
X124780502Y-91548540D01*
X124797405Y-91527566D01*
X125617566Y-90707405D01*
X125679878Y-90673379D01*
X125706661Y-90670500D01*
X125795890Y-90670500D01*
X125795892Y-90670500D01*
X125923186Y-90636392D01*
X126037314Y-90570500D01*
X126130500Y-90477314D01*
X126196392Y-90363186D01*
X126230500Y-90235892D01*
X126230500Y-90104108D01*
X126196392Y-89976814D01*
X126152332Y-89900500D01*
X126130502Y-89862689D01*
X126130494Y-89862679D01*
X126037320Y-89769505D01*
X126037310Y-89769497D01*
X125923190Y-89703610D01*
X125923187Y-89703609D01*
X125923186Y-89703608D01*
X125923184Y-89703607D01*
X125923183Y-89703607D01*
X125889073Y-89694467D01*
X125795892Y-89669500D01*
X125664108Y-89669500D01*
X125595894Y-89687777D01*
X125536816Y-89703607D01*
X125536809Y-89703610D01*
X125422689Y-89769497D01*
X125422679Y-89769505D01*
X125329505Y-89862679D01*
X125329497Y-89862689D01*
X125263610Y-89976809D01*
X125263607Y-89976816D01*
X125229500Y-90104109D01*
X125229500Y-90193337D01*
X125209498Y-90261458D01*
X125192596Y-90282432D01*
X124275489Y-91199540D01*
X124275488Y-91199540D01*
X124219545Y-91255482D01*
X124219539Y-91255490D01*
X124179977Y-91324014D01*
X124159500Y-91400434D01*
X124159500Y-96363338D01*
X124139498Y-96431459D01*
X124122595Y-96452433D01*
X119914780Y-100660247D01*
X119852468Y-100694273D01*
X119781652Y-100689208D01*
X119777467Y-100687561D01*
X119681838Y-100647950D01*
X119681835Y-100647949D01*
X119488544Y-100609500D01*
X119488541Y-100609500D01*
X119291459Y-100609500D01*
X119291455Y-100609500D01*
X119098164Y-100647949D01*
X119098161Y-100647950D01*
X118916085Y-100723368D01*
X118752222Y-100832858D01*
X118752215Y-100832863D01*
X118612863Y-100972215D01*
X118612858Y-100972222D01*
X118503368Y-101136085D01*
X118427950Y-101318161D01*
X118427949Y-101318164D01*
X118391779Y-101500000D01*
X114600500Y-101500000D01*
X114600500Y-94791661D01*
X114620502Y-94723540D01*
X114637405Y-94702566D01*
X115425863Y-93914108D01*
X117609500Y-93914108D01*
X117609500Y-94045892D01*
X117625196Y-94104471D01*
X117643607Y-94173183D01*
X117643610Y-94173190D01*
X117709497Y-94287310D01*
X117709505Y-94287320D01*
X117802679Y-94380494D01*
X117802684Y-94380498D01*
X117802686Y-94380500D01*
X117802687Y-94380501D01*
X117802689Y-94380502D01*
X117882906Y-94426815D01*
X117916814Y-94446392D01*
X118044108Y-94480500D01*
X118044110Y-94480500D01*
X118133339Y-94480500D01*
X118201460Y-94500502D01*
X118222434Y-94517405D01*
X119052595Y-95347566D01*
X119086621Y-95409878D01*
X119089500Y-95436661D01*
X119089500Y-98027347D01*
X119069498Y-98095468D01*
X119015842Y-98141961D01*
X119011718Y-98143756D01*
X118916085Y-98183368D01*
X118752222Y-98292858D01*
X118752215Y-98292863D01*
X118612863Y-98432215D01*
X118612858Y-98432222D01*
X118503368Y-98596085D01*
X118427950Y-98778161D01*
X118427949Y-98778164D01*
X118389500Y-98971455D01*
X118389500Y-99168544D01*
X118427949Y-99361835D01*
X118503368Y-99543914D01*
X118612861Y-99707782D01*
X118752218Y-99847139D01*
X118916086Y-99956632D01*
X119098165Y-100032051D01*
X119291459Y-100070500D01*
X119488541Y-100070500D01*
X119681835Y-100032051D01*
X119863914Y-99956632D01*
X120027782Y-99847139D01*
X120167139Y-99707782D01*
X120276632Y-99543914D01*
X120352051Y-99361835D01*
X120390500Y-99168541D01*
X120390500Y-98971459D01*
X120352051Y-98778165D01*
X120276632Y-98596086D01*
X120167139Y-98432218D01*
X120027782Y-98292861D01*
X119863914Y-98183368D01*
X119768282Y-98143756D01*
X119713001Y-98099208D01*
X119690580Y-98031844D01*
X119690500Y-98027347D01*
X119690500Y-95220438D01*
X119690499Y-95220434D01*
X119670022Y-95144014D01*
X119670021Y-95144013D01*
X119670021Y-95144011D01*
X119630460Y-95075489D01*
X119574511Y-95019540D01*
X118647405Y-94092434D01*
X118613379Y-94030122D01*
X118610500Y-94003339D01*
X118610500Y-93914109D01*
X118604452Y-93891536D01*
X118576392Y-93786814D01*
X118549098Y-93739540D01*
X118510502Y-93672689D01*
X118510494Y-93672679D01*
X118417320Y-93579505D01*
X118417310Y-93579497D01*
X118303190Y-93513610D01*
X118303187Y-93513609D01*
X118303186Y-93513608D01*
X118303184Y-93513607D01*
X118303183Y-93513607D01*
X118269073Y-93504467D01*
X118175892Y-93479500D01*
X118044108Y-93479500D01*
X117977296Y-93497402D01*
X117916816Y-93513607D01*
X117916809Y-93513610D01*
X117802689Y-93579497D01*
X117802679Y-93579505D01*
X117709505Y-93672679D01*
X117709497Y-93672689D01*
X117643610Y-93786809D01*
X117643607Y-93786816D01*
X117621983Y-93867517D01*
X117609500Y-93914108D01*
X115425863Y-93914108D01*
X118832566Y-90507405D01*
X118894878Y-90473379D01*
X118921661Y-90470500D01*
X120190495Y-90470500D01*
X120258616Y-90490502D01*
X120279590Y-90507405D01*
X120342679Y-90570494D01*
X120342684Y-90570498D01*
X120342686Y-90570500D01*
X120342687Y-90570501D01*
X120342689Y-90570502D01*
X120409410Y-90609023D01*
X120456814Y-90636392D01*
X120584108Y-90670500D01*
X120584110Y-90670500D01*
X120715890Y-90670500D01*
X120715892Y-90670500D01*
X120843186Y-90636392D01*
X120957314Y-90570500D01*
X121024576Y-90503237D01*
X121086886Y-90469214D01*
X121157702Y-90474278D01*
X121214538Y-90516824D01*
X121239349Y-90583344D01*
X121239206Y-90594062D01*
X121239500Y-90594062D01*
X121239500Y-92199750D01*
X121248224Y-92243610D01*
X121251133Y-92258231D01*
X121295448Y-92324552D01*
X121361769Y-92368867D01*
X121420252Y-92380500D01*
X121420253Y-92380500D01*
X123019747Y-92380500D01*
X123019748Y-92380500D01*
X123078231Y-92368867D01*
X123144552Y-92324552D01*
X123188867Y-92258231D01*
X123200500Y-92199748D01*
X123200500Y-90600252D01*
X123188867Y-90541769D01*
X123144552Y-90475448D01*
X123078231Y-90431133D01*
X123078228Y-90431132D01*
X123019750Y-90419500D01*
X123019748Y-90419500D01*
X121420252Y-90419500D01*
X121420249Y-90419500D01*
X121361771Y-90431132D01*
X121361767Y-90431134D01*
X121319056Y-90459673D01*
X121251303Y-90480888D01*
X121182836Y-90462105D01*
X121135393Y-90409287D01*
X121124036Y-90339205D01*
X121127343Y-90322314D01*
X121150500Y-90235892D01*
X121150500Y-90104108D01*
X121116392Y-89976814D01*
X121072332Y-89900500D01*
X121050502Y-89862689D01*
X121050494Y-89862679D01*
X120957320Y-89769505D01*
X120957310Y-89769497D01*
X120843190Y-89703610D01*
X120843187Y-89703609D01*
X120843186Y-89703608D01*
X120843184Y-89703607D01*
X120843183Y-89703607D01*
X120809073Y-89694467D01*
X120715892Y-89669500D01*
X120584108Y-89669500D01*
X120515894Y-89687777D01*
X120456816Y-89703607D01*
X120456809Y-89703610D01*
X120342689Y-89769497D01*
X120342679Y-89769505D01*
X120279590Y-89832595D01*
X120217278Y-89866621D01*
X120190495Y-89869500D01*
X118705434Y-89869500D01*
X118629011Y-89889978D01*
X118629008Y-89889979D01*
X118568127Y-89925128D01*
X118568128Y-89925129D01*
X118560489Y-89929539D01*
X118560485Y-89929542D01*
X115194692Y-93295337D01*
X114115489Y-94374540D01*
X114087515Y-94402514D01*
X114059541Y-94430487D01*
X114059539Y-94430490D01*
X114019977Y-94499014D01*
X113999500Y-94575434D01*
X113999500Y-101500000D01*
X112768221Y-101500000D01*
X112732051Y-101318165D01*
X112656632Y-101136086D01*
X112547139Y-100972218D01*
X112407782Y-100832861D01*
X112243914Y-100723368D01*
X112157468Y-100687561D01*
X112061838Y-100647950D01*
X112061835Y-100647949D01*
X111868544Y-100609500D01*
X111868541Y-100609500D01*
X111671459Y-100609500D01*
X111671455Y-100609500D01*
X111478164Y-100647949D01*
X111478161Y-100647950D01*
X111296085Y-100723368D01*
X111132222Y-100832858D01*
X111132215Y-100832863D01*
X110992863Y-100972215D01*
X110992858Y-100972222D01*
X110883368Y-101136085D01*
X110843756Y-101231718D01*
X110831009Y-101247536D01*
X110822571Y-101266012D01*
X110809190Y-101274611D01*
X110799208Y-101286999D01*
X110779932Y-101293414D01*
X110762845Y-101304396D01*
X110734841Y-101308422D01*
X110731844Y-101309420D01*
X110727347Y-101309500D01*
X110676661Y-101309500D01*
X110608540Y-101289498D01*
X110587566Y-101272595D01*
X109557405Y-100242434D01*
X109523379Y-100180122D01*
X109520500Y-100153339D01*
X109520500Y-98250249D01*
X110769500Y-98250249D01*
X110769500Y-98250252D01*
X110769500Y-99889748D01*
X110781133Y-99948231D01*
X110825448Y-100014552D01*
X110891769Y-100058867D01*
X110950252Y-100070500D01*
X110950253Y-100070500D01*
X112589747Y-100070500D01*
X112589748Y-100070500D01*
X112648231Y-100058867D01*
X112714552Y-100014552D01*
X112758867Y-99948231D01*
X112770500Y-99889748D01*
X112770500Y-98250252D01*
X112758867Y-98191769D01*
X112714552Y-98125448D01*
X112648231Y-98081133D01*
X112648228Y-98081132D01*
X112589750Y-98069500D01*
X112589748Y-98069500D01*
X110950252Y-98069500D01*
X110950249Y-98069500D01*
X110891771Y-98081132D01*
X110891768Y-98081133D01*
X110825448Y-98125448D01*
X110781133Y-98191768D01*
X110781132Y-98191771D01*
X110769500Y-98250249D01*
X109520500Y-98250249D01*
X109520500Y-92670439D01*
X109520499Y-92670435D01*
X109513445Y-92644106D01*
X109513445Y-92644105D01*
X109500024Y-92594019D01*
X109500023Y-92594018D01*
X109500022Y-92594012D01*
X109460460Y-92525489D01*
X109460458Y-92525487D01*
X109460454Y-92525482D01*
X105747405Y-88812433D01*
X105713379Y-88750121D01*
X105710500Y-88723338D01*
X105710500Y-88166455D01*
X106314500Y-88166455D01*
X106314500Y-88363544D01*
X106352949Y-88556835D01*
X106352950Y-88556838D01*
X106376627Y-88613999D01*
X106428368Y-88738914D01*
X106537861Y-88902782D01*
X106677218Y-89042139D01*
X106841086Y-89151632D01*
X107023165Y-89227051D01*
X107216459Y-89265500D01*
X107413541Y-89265500D01*
X107606835Y-89227051D01*
X107788914Y-89151632D01*
X107952782Y-89042139D01*
X108092139Y-88902782D01*
X108159843Y-88801455D01*
X113339500Y-88801455D01*
X113339500Y-88998544D01*
X113356602Y-89084518D01*
X113377949Y-89191835D01*
X113453368Y-89373914D01*
X113562861Y-89537782D01*
X113702218Y-89677139D01*
X113866086Y-89786632D01*
X114048165Y-89862051D01*
X114241459Y-89900500D01*
X114438541Y-89900500D01*
X114631835Y-89862051D01*
X114813914Y-89786632D01*
X114977782Y-89677139D01*
X115117139Y-89537782D01*
X115226632Y-89373914D01*
X115302051Y-89191835D01*
X115340500Y-88998541D01*
X115340500Y-88801459D01*
X115302051Y-88608165D01*
X115226632Y-88426086D01*
X115117139Y-88262218D01*
X114977782Y-88122861D01*
X114914009Y-88080249D01*
X115839500Y-88080249D01*
X115839500Y-89719750D01*
X115849395Y-89769497D01*
X115851133Y-89778231D01*
X115895448Y-89844552D01*
X115961769Y-89888867D01*
X116020252Y-89900500D01*
X116020253Y-89900500D01*
X117659747Y-89900500D01*
X117659748Y-89900500D01*
X117718231Y-89888867D01*
X117784552Y-89844552D01*
X117828867Y-89778231D01*
X117840500Y-89719748D01*
X117840500Y-88803426D01*
X126239500Y-88803426D01*
X126239500Y-88996573D01*
X126277180Y-89186001D01*
X126277182Y-89186006D01*
X126279598Y-89191838D01*
X126351092Y-89364441D01*
X126383269Y-89412597D01*
X126458395Y-89525031D01*
X126458400Y-89525037D01*
X126594962Y-89661599D01*
X126594968Y-89661604D01*
X126755559Y-89768908D01*
X126933999Y-89842820D01*
X127123429Y-89880500D01*
X127123430Y-89880500D01*
X127316570Y-89880500D01*
X127316571Y-89880500D01*
X127506001Y-89842820D01*
X127684441Y-89768908D01*
X127845032Y-89661604D01*
X127981604Y-89525032D01*
X128088908Y-89364441D01*
X128162820Y-89186001D01*
X128200500Y-88996571D01*
X128200500Y-88803429D01*
X128162820Y-88613999D01*
X128088908Y-88435559D01*
X127981604Y-88274968D01*
X127981599Y-88274962D01*
X127845037Y-88138400D01*
X127845031Y-88138395D01*
X127758015Y-88080253D01*
X127684441Y-88031092D01*
X127506001Y-87957180D01*
X127490311Y-87954059D01*
X127316573Y-87919500D01*
X127316571Y-87919500D01*
X127123429Y-87919500D01*
X127123426Y-87919500D01*
X126933998Y-87957180D01*
X126933993Y-87957182D01*
X126755559Y-88031092D01*
X126594968Y-88138395D01*
X126594962Y-88138400D01*
X126458400Y-88274962D01*
X126458395Y-88274968D01*
X126351092Y-88435559D01*
X126277182Y-88613993D01*
X126277180Y-88613998D01*
X126239500Y-88803426D01*
X117840500Y-88803426D01*
X117840500Y-88080252D01*
X117828867Y-88021769D01*
X117784552Y-87955448D01*
X117718231Y-87911133D01*
X117718228Y-87911132D01*
X117659750Y-87899500D01*
X117659748Y-87899500D01*
X116020252Y-87899500D01*
X116020249Y-87899500D01*
X115961771Y-87911132D01*
X115961768Y-87911133D01*
X115895448Y-87955448D01*
X115851133Y-88021768D01*
X115851132Y-88021771D01*
X115839500Y-88080249D01*
X114914009Y-88080249D01*
X114813914Y-88013368D01*
X114716855Y-87973165D01*
X114631838Y-87937950D01*
X114631835Y-87937949D01*
X114438544Y-87899500D01*
X114438541Y-87899500D01*
X114241459Y-87899500D01*
X114241455Y-87899500D01*
X114048164Y-87937949D01*
X114048161Y-87937950D01*
X113866085Y-88013368D01*
X113702222Y-88122858D01*
X113702215Y-88122863D01*
X113562863Y-88262215D01*
X113562858Y-88262222D01*
X113453368Y-88426085D01*
X113377950Y-88608161D01*
X113377949Y-88608164D01*
X113339500Y-88801455D01*
X108159843Y-88801455D01*
X108192639Y-88752371D01*
X108247114Y-88706846D01*
X108317557Y-88697997D01*
X108360402Y-88713256D01*
X108391814Y-88731392D01*
X108519108Y-88765500D01*
X108519110Y-88765500D01*
X108650890Y-88765500D01*
X108650892Y-88765500D01*
X108778186Y-88731392D01*
X108892314Y-88665500D01*
X108985500Y-88572314D01*
X109051392Y-88458186D01*
X109085500Y-88330892D01*
X109085500Y-88241660D01*
X109105502Y-88173539D01*
X109122400Y-88152569D01*
X110095460Y-87179511D01*
X110135021Y-87110989D01*
X110155500Y-87034562D01*
X110155500Y-86303426D01*
X121239500Y-86303426D01*
X121239500Y-86496573D01*
X121247832Y-86538460D01*
X121277180Y-86686001D01*
X121351092Y-86864441D01*
X121379818Y-86907432D01*
X121458395Y-87025031D01*
X121458400Y-87025037D01*
X121594962Y-87161599D01*
X121594968Y-87161604D01*
X121755559Y-87268908D01*
X121933999Y-87342820D01*
X122123429Y-87380500D01*
X122123430Y-87380500D01*
X122316570Y-87380500D01*
X122316571Y-87380500D01*
X122506001Y-87342820D01*
X122684441Y-87268908D01*
X122845032Y-87161604D01*
X122981604Y-87025032D01*
X123088908Y-86864441D01*
X123162820Y-86686001D01*
X123200500Y-86496571D01*
X123200500Y-86303429D01*
X123162820Y-86113999D01*
X123088908Y-85935559D01*
X122981604Y-85774968D01*
X122981599Y-85774962D01*
X122845037Y-85638400D01*
X122845031Y-85638395D01*
X122791744Y-85602789D01*
X122684441Y-85531092D01*
X122506001Y-85457180D01*
X122316573Y-85419500D01*
X122316571Y-85419500D01*
X122123429Y-85419500D01*
X122123426Y-85419500D01*
X121933998Y-85457180D01*
X121933993Y-85457182D01*
X121755559Y-85531092D01*
X121594968Y-85638395D01*
X121594962Y-85638400D01*
X121458400Y-85774962D01*
X121458395Y-85774968D01*
X121351092Y-85935559D01*
X121277182Y-86113993D01*
X121277180Y-86113998D01*
X121239500Y-86303426D01*
X110155500Y-86303426D01*
X110155500Y-83906500D01*
X110175502Y-83838379D01*
X110229158Y-83791886D01*
X110281500Y-83780500D01*
X110874747Y-83780500D01*
X110874748Y-83780500D01*
X110933231Y-83768867D01*
X110989106Y-83731532D01*
X132242500Y-83731532D01*
X132242500Y-83731535D01*
X132242500Y-83938465D01*
X132282870Y-84141420D01*
X132362059Y-84332598D01*
X132477023Y-84504655D01*
X132477024Y-84504656D01*
X132477029Y-84504662D01*
X132623337Y-84650970D01*
X132623343Y-84650975D01*
X132623345Y-84650977D01*
X132795402Y-84765941D01*
X132986580Y-84845130D01*
X133189535Y-84885500D01*
X133189536Y-84885500D01*
X133396464Y-84885500D01*
X133396465Y-84885500D01*
X133599420Y-84845130D01*
X133790598Y-84765941D01*
X133962655Y-84650977D01*
X134108977Y-84504655D01*
X134223941Y-84332598D01*
X134303130Y-84141420D01*
X134343500Y-83938465D01*
X134343500Y-83731535D01*
X134303130Y-83528580D01*
X134223941Y-83337402D01*
X134108977Y-83165345D01*
X134108975Y-83165343D01*
X134108970Y-83165337D01*
X133962662Y-83019029D01*
X133962656Y-83019024D01*
X133917765Y-82989029D01*
X133790598Y-82904059D01*
X133599420Y-82824870D01*
X133396467Y-82784500D01*
X133396465Y-82784500D01*
X133189535Y-82784500D01*
X133189532Y-82784500D01*
X132986579Y-82824870D01*
X132986574Y-82824872D01*
X132795402Y-82904059D01*
X132623343Y-83019024D01*
X132623337Y-83019029D01*
X132477029Y-83165337D01*
X132477024Y-83165343D01*
X132362059Y-83337402D01*
X132282872Y-83528574D01*
X132282870Y-83528579D01*
X132242500Y-83731532D01*
X110989106Y-83731532D01*
X110999552Y-83724552D01*
X111043867Y-83658231D01*
X111055500Y-83599748D01*
X111055500Y-81710249D01*
X121239500Y-81710249D01*
X121239500Y-83309750D01*
X121245000Y-83337402D01*
X121251133Y-83368231D01*
X121295448Y-83434552D01*
X121361769Y-83478867D01*
X121420252Y-83490500D01*
X121420253Y-83490500D01*
X123019747Y-83490500D01*
X123019748Y-83490500D01*
X123078231Y-83478867D01*
X123144552Y-83434552D01*
X123188867Y-83368231D01*
X123200500Y-83309748D01*
X123200500Y-81710252D01*
X123188867Y-81651769D01*
X123144552Y-81585448D01*
X123078231Y-81541133D01*
X123078228Y-81541132D01*
X123019750Y-81529500D01*
X123019748Y-81529500D01*
X121420252Y-81529500D01*
X121420249Y-81529500D01*
X121361771Y-81541132D01*
X121361768Y-81541133D01*
X121295448Y-81585448D01*
X121251133Y-81651768D01*
X121251132Y-81651771D01*
X121239500Y-81710249D01*
X111055500Y-81710249D01*
X111055500Y-81560252D01*
X111043867Y-81501769D01*
X110999552Y-81435448D01*
X110933231Y-81391133D01*
X110933228Y-81391132D01*
X110874750Y-81379500D01*
X110874748Y-81379500D01*
X108835252Y-81379500D01*
X108835249Y-81379500D01*
X108776771Y-81391132D01*
X108776768Y-81391133D01*
X108710448Y-81435448D01*
X108666133Y-81501768D01*
X108666132Y-81501771D01*
X108654500Y-81560249D01*
X108654500Y-83599750D01*
X108655894Y-83606760D01*
X108666133Y-83658231D01*
X108710448Y-83724552D01*
X108776769Y-83768867D01*
X108835252Y-83780500D01*
X109428500Y-83780500D01*
X109496621Y-83800502D01*
X109543114Y-83854158D01*
X109554500Y-83906500D01*
X109554500Y-86818337D01*
X109534498Y-86886458D01*
X109517595Y-86907432D01*
X108697432Y-87727595D01*
X108635120Y-87761621D01*
X108608337Y-87764500D01*
X108519108Y-87764500D01*
X108470121Y-87777626D01*
X108391816Y-87798607D01*
X108391811Y-87798609D01*
X108360402Y-87816744D01*
X108291407Y-87833481D01*
X108224315Y-87810260D01*
X108192638Y-87777626D01*
X108185228Y-87766536D01*
X108092139Y-87627218D01*
X107952782Y-87487861D01*
X107788914Y-87378368D01*
X107703093Y-87342820D01*
X107606838Y-87302950D01*
X107606835Y-87302949D01*
X107413544Y-87264500D01*
X107413541Y-87264500D01*
X107216459Y-87264500D01*
X107216455Y-87264500D01*
X107023164Y-87302949D01*
X107023161Y-87302950D01*
X106841085Y-87378368D01*
X106677222Y-87487858D01*
X106677215Y-87487863D01*
X106537863Y-87627215D01*
X106537858Y-87627222D01*
X106428368Y-87791085D01*
X106352950Y-87973161D01*
X106352949Y-87973164D01*
X106314500Y-88166455D01*
X105710500Y-88166455D01*
X105710500Y-87806661D01*
X105730502Y-87738540D01*
X105747405Y-87717566D01*
X108190454Y-85274517D01*
X108190460Y-85274511D01*
X108230021Y-85205989D01*
X108250500Y-85129562D01*
X108250500Y-81191532D01*
X132242500Y-81191532D01*
X132242500Y-81398467D01*
X132249856Y-81435448D01*
X132282870Y-81601420D01*
X132362059Y-81792598D01*
X132467766Y-81950801D01*
X132477024Y-81964656D01*
X132477029Y-81964662D01*
X132623337Y-82110970D01*
X132623343Y-82110975D01*
X132623345Y-82110977D01*
X132795402Y-82225941D01*
X132986580Y-82305130D01*
X133189535Y-82345500D01*
X133189536Y-82345500D01*
X133396464Y-82345500D01*
X133396465Y-82345500D01*
X133599420Y-82305130D01*
X133790598Y-82225941D01*
X133962655Y-82110977D01*
X134108977Y-81964655D01*
X134223941Y-81792598D01*
X134303130Y-81601420D01*
X134343500Y-81398465D01*
X134343500Y-81191535D01*
X134303130Y-80988580D01*
X134223941Y-80797402D01*
X134108977Y-80625345D01*
X134108975Y-80625343D01*
X134108970Y-80625337D01*
X133962662Y-80479029D01*
X133962656Y-80479024D01*
X133962655Y-80479023D01*
X133790598Y-80364059D01*
X133599420Y-80284870D01*
X133396467Y-80244500D01*
X133396465Y-80244500D01*
X133189535Y-80244500D01*
X133189532Y-80244500D01*
X132986579Y-80284870D01*
X132986574Y-80284872D01*
X132795402Y-80364059D01*
X132623343Y-80479024D01*
X132623337Y-80479029D01*
X132477029Y-80625337D01*
X132477024Y-80625343D01*
X132362059Y-80797402D01*
X132282872Y-80988574D01*
X132282870Y-80988579D01*
X132242500Y-81191532D01*
X108250500Y-81191532D01*
X108250500Y-79911455D01*
X113339500Y-79911455D01*
X113339500Y-80108544D01*
X113377949Y-80301835D01*
X113377950Y-80301838D01*
X113403723Y-80364059D01*
X113453368Y-80483914D01*
X113562861Y-80647782D01*
X113702218Y-80787139D01*
X113866086Y-80896632D01*
X114048165Y-80972051D01*
X114241459Y-81010500D01*
X114438541Y-81010500D01*
X114631835Y-80972051D01*
X114813914Y-80896632D01*
X114977782Y-80787139D01*
X115117139Y-80647782D01*
X115226632Y-80483914D01*
X115302051Y-80301835D01*
X115340500Y-80108541D01*
X115340500Y-79911459D01*
X115302051Y-79718165D01*
X115226632Y-79536086D01*
X115117139Y-79372218D01*
X114977782Y-79232861D01*
X114914009Y-79190249D01*
X115839500Y-79190249D01*
X115839500Y-80829750D01*
X115849278Y-80878908D01*
X115851133Y-80888231D01*
X115895448Y-80954552D01*
X115961769Y-80998867D01*
X116020252Y-81010500D01*
X116020253Y-81010500D01*
X117659747Y-81010500D01*
X117659748Y-81010500D01*
X117718231Y-80998867D01*
X117784552Y-80954552D01*
X117828867Y-80888231D01*
X117840500Y-80829748D01*
X117840500Y-79913426D01*
X126239500Y-79913426D01*
X126239500Y-80106573D01*
X126277180Y-80296001D01*
X126277182Y-80296006D01*
X126279598Y-80301838D01*
X126351092Y-80474441D01*
X126354158Y-80479029D01*
X126458395Y-80635031D01*
X126458400Y-80635037D01*
X126594962Y-80771599D01*
X126594968Y-80771604D01*
X126755559Y-80878908D01*
X126933999Y-80952820D01*
X127123429Y-80990500D01*
X127123430Y-80990500D01*
X127316570Y-80990500D01*
X127316571Y-80990500D01*
X127506001Y-80952820D01*
X127684441Y-80878908D01*
X127845032Y-80771604D01*
X127981604Y-80635032D01*
X128088908Y-80474441D01*
X128162820Y-80296001D01*
X128200500Y-80106571D01*
X128200500Y-79913429D01*
X128162820Y-79723999D01*
X128088908Y-79545559D01*
X127981604Y-79384968D01*
X127981599Y-79384962D01*
X127845037Y-79248400D01*
X127845031Y-79248395D01*
X127758015Y-79190253D01*
X127684441Y-79141092D01*
X127506001Y-79067180D01*
X127497294Y-79065448D01*
X127316573Y-79029500D01*
X127316571Y-79029500D01*
X127123429Y-79029500D01*
X127123426Y-79029500D01*
X126933998Y-79067180D01*
X126933993Y-79067182D01*
X126755559Y-79141092D01*
X126594968Y-79248395D01*
X126594962Y-79248400D01*
X126458400Y-79384962D01*
X126458395Y-79384968D01*
X126351092Y-79545559D01*
X126277182Y-79723993D01*
X126277180Y-79723998D01*
X126239500Y-79913426D01*
X117840500Y-79913426D01*
X117840500Y-79190252D01*
X117828867Y-79131769D01*
X117784552Y-79065448D01*
X117718231Y-79021133D01*
X117718228Y-79021132D01*
X117659750Y-79009500D01*
X117659748Y-79009500D01*
X116020252Y-79009500D01*
X116020249Y-79009500D01*
X115961771Y-79021132D01*
X115961768Y-79021133D01*
X115895448Y-79065448D01*
X115851133Y-79131768D01*
X115851132Y-79131771D01*
X115839500Y-79190249D01*
X114914009Y-79190249D01*
X114813914Y-79123368D01*
X114678268Y-79067182D01*
X114631838Y-79047950D01*
X114631835Y-79047949D01*
X114438544Y-79009500D01*
X114438541Y-79009500D01*
X114241459Y-79009500D01*
X114241455Y-79009500D01*
X114048164Y-79047949D01*
X114048161Y-79047950D01*
X113866085Y-79123368D01*
X113702222Y-79232858D01*
X113702215Y-79232863D01*
X113562863Y-79372215D01*
X113562858Y-79372222D01*
X113453368Y-79536085D01*
X113377950Y-79718161D01*
X113377949Y-79718164D01*
X113339500Y-79911455D01*
X108250500Y-79911455D01*
X108250500Y-77413426D01*
X121239500Y-77413426D01*
X121239500Y-77413429D01*
X121239500Y-77606571D01*
X121277180Y-77796001D01*
X121351092Y-77974441D01*
X121405145Y-78055337D01*
X121458395Y-78135031D01*
X121458400Y-78135037D01*
X121594962Y-78271599D01*
X121594968Y-78271604D01*
X121755559Y-78378908D01*
X121933999Y-78452820D01*
X122123429Y-78490500D01*
X122123430Y-78490500D01*
X122316570Y-78490500D01*
X122316571Y-78490500D01*
X122506001Y-78452820D01*
X122684441Y-78378908D01*
X122845032Y-78271604D01*
X122981604Y-78135032D01*
X123088908Y-77974441D01*
X123125852Y-77885249D01*
X132242500Y-77885249D01*
X132242500Y-79624750D01*
X132248704Y-79655941D01*
X132254133Y-79683231D01*
X132298448Y-79749552D01*
X132364769Y-79793867D01*
X132423252Y-79805500D01*
X132423253Y-79805500D01*
X134162747Y-79805500D01*
X134162748Y-79805500D01*
X134221231Y-79793867D01*
X134287552Y-79749552D01*
X134331867Y-79683231D01*
X134343500Y-79624748D01*
X134343500Y-77885252D01*
X134331867Y-77826769D01*
X134287552Y-77760448D01*
X134221231Y-77716133D01*
X134221228Y-77716132D01*
X134162750Y-77704500D01*
X134162748Y-77704500D01*
X132423252Y-77704500D01*
X132423249Y-77704500D01*
X132364771Y-77716132D01*
X132364768Y-77716133D01*
X132298448Y-77760448D01*
X132254133Y-77826768D01*
X132254132Y-77826771D01*
X132242500Y-77885249D01*
X123125852Y-77885249D01*
X123162820Y-77796001D01*
X123200500Y-77606571D01*
X123200500Y-77413429D01*
X123162820Y-77223999D01*
X123088908Y-77045559D01*
X122981604Y-76884968D01*
X122981599Y-76884962D01*
X122845037Y-76748400D01*
X122845031Y-76748395D01*
X122791744Y-76712789D01*
X122684441Y-76641092D01*
X122506001Y-76567180D01*
X122470307Y-76560080D01*
X122316573Y-76529500D01*
X122316571Y-76529500D01*
X122123429Y-76529500D01*
X122123426Y-76529500D01*
X121933998Y-76567180D01*
X121933993Y-76567182D01*
X121755559Y-76641092D01*
X121594968Y-76748395D01*
X121594962Y-76748400D01*
X121458400Y-76884962D01*
X121458395Y-76884968D01*
X121351092Y-77045559D01*
X121277182Y-77223993D01*
X121277180Y-77223998D01*
X121239500Y-77413426D01*
X108250500Y-77413426D01*
X108250500Y-74295438D01*
X108230021Y-74219011D01*
X108190460Y-74150489D01*
X108134511Y-74094540D01*
X107539971Y-73500000D01*
X121239500Y-73500000D01*
X121239500Y-74419750D01*
G37*
%TD.AperFunction*%
%TA.AperFunction,Conductor*%
G36*
X107612595Y-74422566D02*
G01*
X107646621Y-74484878D01*
X107649500Y-74511661D01*
X107649500Y-84913339D01*
X107629498Y-84981460D01*
X107612595Y-85002434D01*
X106110595Y-86504434D01*
X106090848Y-86515216D01*
X106073842Y-86529953D01*
X106060294Y-86531900D01*
X106048283Y-86538460D01*
X106025839Y-86536854D01*
X106003568Y-86540057D01*
X105991118Y-86534371D01*
X105977468Y-86533395D01*
X105959454Y-86519910D01*
X105938988Y-86510563D01*
X105931589Y-86499050D01*
X105920632Y-86490848D01*
X105912768Y-86469764D01*
X105900604Y-86450837D01*
X105897401Y-86428566D01*
X105895821Y-86424328D01*
X105895500Y-86415339D01*
X105895500Y-86321661D01*
X105915502Y-86253540D01*
X105932405Y-86232565D01*
X106069993Y-86094977D01*
X106285460Y-85879511D01*
X106303998Y-85847402D01*
X106325021Y-85810989D01*
X106325931Y-85807595D01*
X106345499Y-85734565D01*
X106345500Y-85734562D01*
X106345500Y-77282651D01*
X106365502Y-77214530D01*
X106419158Y-77168037D01*
X106423241Y-77166260D01*
X106518914Y-77126632D01*
X106682782Y-77017139D01*
X106822139Y-76877782D01*
X106931632Y-76713914D01*
X107007051Y-76531835D01*
X107045500Y-76338541D01*
X107045500Y-76141459D01*
X107007051Y-75948165D01*
X106931632Y-75766086D01*
X106822139Y-75602218D01*
X106682782Y-75462861D01*
X106518914Y-75353368D01*
X106374065Y-75293370D01*
X106336838Y-75277950D01*
X106336835Y-75277949D01*
X106143544Y-75239500D01*
X106143541Y-75239500D01*
X105946459Y-75239500D01*
X105946455Y-75239500D01*
X105753164Y-75277949D01*
X105753155Y-75277952D01*
X105657530Y-75317561D01*
X105586940Y-75325150D01*
X105523454Y-75293370D01*
X105520218Y-75290247D01*
X103842405Y-73612434D01*
X103827460Y-73585065D01*
X103810604Y-73558837D01*
X103809698Y-73552538D01*
X103808379Y-73550122D01*
X103805500Y-73523339D01*
X103805500Y-73500000D01*
X106690029Y-73500000D01*
X107612595Y-74422566D01*
G37*
%TD.AperFunction*%
%TD*%
%TA.AperFunction,Conductor*%
%TO.N,GND*%
G36*
X101749500Y-101827347D02*
G01*
X101729498Y-101895468D01*
X101675842Y-101941961D01*
X101671718Y-101943756D01*
X101576085Y-101983368D01*
X101412222Y-102092858D01*
X101412215Y-102092863D01*
X101272863Y-102232215D01*
X101272858Y-102232222D01*
X101163368Y-102396085D01*
X101087950Y-102578161D01*
X101087949Y-102578164D01*
X101049500Y-102771455D01*
X101049500Y-102968544D01*
X101087949Y-103161835D01*
X101087950Y-103161838D01*
X101156871Y-103328228D01*
X101163368Y-103343914D01*
X101272861Y-103507782D01*
X101412218Y-103647139D01*
X101576086Y-103756632D01*
X101758165Y-103832051D01*
X101951459Y-103870500D01*
X102148541Y-103870500D01*
X102341835Y-103832051D01*
X102523914Y-103756632D01*
X102687782Y-103647139D01*
X102827139Y-103507782D01*
X102936632Y-103343914D01*
X103012051Y-103161835D01*
X103050500Y-102968541D01*
X103050500Y-102771459D01*
X103050499Y-102771455D01*
X103589500Y-102771455D01*
X103589500Y-102968544D01*
X103627949Y-103161835D01*
X103627950Y-103161838D01*
X103696871Y-103328228D01*
X103703368Y-103343914D01*
X103812861Y-103507782D01*
X103952218Y-103647139D01*
X104116086Y-103756632D01*
X104211719Y-103796243D01*
X104266998Y-103840789D01*
X104289420Y-103908152D01*
X104289500Y-103912651D01*
X104289500Y-105304565D01*
X104309977Y-105380985D01*
X104309978Y-105380988D01*
X104309979Y-105380989D01*
X104349540Y-105449511D01*
X105055248Y-106155219D01*
X105089272Y-106217530D01*
X105084208Y-106288345D01*
X105082561Y-106292530D01*
X105042952Y-106388155D01*
X105042949Y-106388164D01*
X105004500Y-106581455D01*
X105004500Y-106778544D01*
X105042949Y-106971835D01*
X105042950Y-106971838D01*
X105054648Y-107000080D01*
X105118368Y-107153914D01*
X105227861Y-107317782D01*
X105367218Y-107457139D01*
X105531086Y-107566632D01*
X105713165Y-107642051D01*
X105906459Y-107680500D01*
X106103541Y-107680500D01*
X106296835Y-107642051D01*
X106478914Y-107566632D01*
X106642782Y-107457139D01*
X106782139Y-107317782D01*
X106891632Y-107153914D01*
X106967051Y-106971835D01*
X107005500Y-106778541D01*
X107005500Y-106581459D01*
X106967051Y-106388165D01*
X106891632Y-106206086D01*
X106782139Y-106042218D01*
X106642782Y-105902861D01*
X106478914Y-105793368D01*
X106334065Y-105733370D01*
X106296838Y-105717950D01*
X106296835Y-105717949D01*
X106103544Y-105679500D01*
X106103541Y-105679500D01*
X105906459Y-105679500D01*
X105906455Y-105679500D01*
X105713164Y-105717949D01*
X105713155Y-105717952D01*
X105617530Y-105757561D01*
X105546940Y-105765150D01*
X105483454Y-105733370D01*
X105480218Y-105730247D01*
X104927405Y-105177434D01*
X104893379Y-105115122D01*
X104890500Y-105088339D01*
X104890500Y-103912651D01*
X104910502Y-103844530D01*
X104964158Y-103798037D01*
X104968241Y-103796260D01*
X105063914Y-103756632D01*
X105227782Y-103647139D01*
X105367139Y-103507782D01*
X105476632Y-103343914D01*
X105552051Y-103161835D01*
X105590500Y-102968541D01*
X105590500Y-102771459D01*
X105552051Y-102578165D01*
X105476632Y-102396086D01*
X105367139Y-102232218D01*
X105227782Y-102092861D01*
X105063914Y-101983368D01*
X104881838Y-101907950D01*
X104881835Y-101907949D01*
X104688544Y-101869500D01*
X104688541Y-101869500D01*
X104491459Y-101869500D01*
X104491455Y-101869500D01*
X104298164Y-101907949D01*
X104298161Y-101907950D01*
X104116085Y-101983368D01*
X103952222Y-102092858D01*
X103952215Y-102092863D01*
X103812863Y-102232215D01*
X103812858Y-102232222D01*
X103703368Y-102396085D01*
X103627950Y-102578161D01*
X103627949Y-102578164D01*
X103589500Y-102771455D01*
X103050499Y-102771455D01*
X103012051Y-102578165D01*
X102936632Y-102396086D01*
X102827139Y-102232218D01*
X102687782Y-102092861D01*
X102523914Y-101983368D01*
X102428282Y-101943756D01*
X102373001Y-101899208D01*
X102350580Y-101831844D01*
X102350500Y-101827347D01*
X102350500Y-101500000D01*
X109965029Y-101500000D01*
X110259540Y-101794511D01*
X110315489Y-101850460D01*
X110384011Y-101890021D01*
X110384013Y-101890021D01*
X110384014Y-101890022D01*
X110450921Y-101907950D01*
X110460438Y-101910500D01*
X110727347Y-101910500D01*
X110795468Y-101930502D01*
X110841961Y-101984158D01*
X110843756Y-101988282D01*
X110883368Y-102083914D01*
X110992861Y-102247782D01*
X111132218Y-102387139D01*
X111296086Y-102496632D01*
X111478165Y-102572051D01*
X111671459Y-102610500D01*
X111868541Y-102610500D01*
X112061835Y-102572051D01*
X112243914Y-102496632D01*
X112407782Y-102387139D01*
X112547139Y-102247782D01*
X112656632Y-102083914D01*
X112732051Y-101901835D01*
X112770500Y-101708541D01*
X112770500Y-101511459D01*
X112768221Y-101500000D01*
X113999500Y-101500000D01*
X113999500Y-102693339D01*
X113979498Y-102761460D01*
X113962595Y-102782434D01*
X112932434Y-103812595D01*
X112905065Y-103827539D01*
X112878837Y-103844396D01*
X112872538Y-103845301D01*
X112870122Y-103846621D01*
X112843339Y-103849500D01*
X112812653Y-103849500D01*
X112744532Y-103829498D01*
X112698039Y-103775842D01*
X112696244Y-103771718D01*
X112687492Y-103750589D01*
X112656632Y-103676086D01*
X112547139Y-103512218D01*
X112407782Y-103372861D01*
X112243914Y-103263368D01*
X112121399Y-103212621D01*
X112061838Y-103187950D01*
X112061835Y-103187949D01*
X111868544Y-103149500D01*
X111868541Y-103149500D01*
X111671459Y-103149500D01*
X111671455Y-103149500D01*
X111478164Y-103187949D01*
X111478161Y-103187950D01*
X111296085Y-103263368D01*
X111132222Y-103372858D01*
X111132215Y-103372863D01*
X110992863Y-103512215D01*
X110992858Y-103512222D01*
X110883368Y-103676085D01*
X110807950Y-103858161D01*
X110807949Y-103858164D01*
X110769500Y-104051455D01*
X110769500Y-104248544D01*
X110807949Y-104441835D01*
X110807950Y-104441838D01*
X110811538Y-104450500D01*
X110883368Y-104623914D01*
X110992861Y-104787782D01*
X111132218Y-104927139D01*
X111296086Y-105036632D01*
X111478165Y-105112051D01*
X111621332Y-105140529D01*
X111625409Y-105141340D01*
X111688318Y-105174248D01*
X111723450Y-105235943D01*
X111719650Y-105306838D01*
X111678124Y-105364424D01*
X111620538Y-105389368D01*
X111463703Y-105414208D01*
X111267906Y-105477826D01*
X111267900Y-105477829D01*
X111084454Y-105571300D01*
X110917892Y-105692315D01*
X110917889Y-105692317D01*
X110772317Y-105837889D01*
X110772315Y-105837892D01*
X110651300Y-106004454D01*
X110557829Y-106187900D01*
X110557826Y-106187906D01*
X110494208Y-106383704D01*
X110485926Y-106436000D01*
X111458314Y-106436000D01*
X111449920Y-106444394D01*
X111397259Y-106535606D01*
X111370000Y-106637339D01*
X111370000Y-106742661D01*
X111397259Y-106844394D01*
X111449920Y-106935606D01*
X111458314Y-106944000D01*
X110485926Y-106944000D01*
X110494208Y-106996295D01*
X110557826Y-107192093D01*
X110557829Y-107192099D01*
X110651300Y-107375545D01*
X110772315Y-107542107D01*
X110772317Y-107542110D01*
X110917889Y-107687682D01*
X110917892Y-107687684D01*
X111084454Y-107808699D01*
X111267900Y-107902170D01*
X111267906Y-107902173D01*
X111463705Y-107965791D01*
X111463717Y-107965794D01*
X111515999Y-107974074D01*
X111516000Y-107974074D01*
X111516000Y-107001686D01*
X111524394Y-107010080D01*
X111615606Y-107062741D01*
X111717339Y-107090000D01*
X111822661Y-107090000D01*
X111924394Y-107062741D01*
X112015606Y-107010080D01*
X112024000Y-107001686D01*
X112024000Y-107974074D01*
X112076282Y-107965794D01*
X112076294Y-107965791D01*
X112272093Y-107902173D01*
X112272099Y-107902170D01*
X112455545Y-107808699D01*
X112622107Y-107687684D01*
X112622110Y-107687682D01*
X112767682Y-107542110D01*
X112767684Y-107542107D01*
X112888699Y-107375545D01*
X112982170Y-107192099D01*
X112982173Y-107192093D01*
X113045791Y-106996295D01*
X113054074Y-106944000D01*
X112081686Y-106944000D01*
X112090080Y-106935606D01*
X112142741Y-106844394D01*
X112170000Y-106742661D01*
X112170000Y-106637339D01*
X112157706Y-106591455D01*
X118389500Y-106591455D01*
X118389500Y-106788544D01*
X118400610Y-106844394D01*
X118427949Y-106981835D01*
X118503368Y-107163914D01*
X118612861Y-107327782D01*
X118752218Y-107467139D01*
X118916086Y-107576632D01*
X119098165Y-107652051D01*
X119291459Y-107690500D01*
X119488541Y-107690500D01*
X119681835Y-107652051D01*
X119863914Y-107576632D01*
X120027782Y-107467139D01*
X120167139Y-107327782D01*
X120276632Y-107163914D01*
X120352051Y-106981835D01*
X120390500Y-106788541D01*
X120390500Y-106591459D01*
X120352051Y-106398165D01*
X120276632Y-106216086D01*
X120167139Y-106052218D01*
X120027782Y-105912861D01*
X119863914Y-105803368D01*
X119771647Y-105765150D01*
X119681838Y-105727950D01*
X119681835Y-105727949D01*
X119488544Y-105689500D01*
X119488541Y-105689500D01*
X119291459Y-105689500D01*
X119291455Y-105689500D01*
X119098164Y-105727949D01*
X119098161Y-105727950D01*
X118916085Y-105803368D01*
X118752222Y-105912858D01*
X118752215Y-105912863D01*
X118612863Y-106052215D01*
X118612858Y-106052222D01*
X118503368Y-106216085D01*
X118427950Y-106398161D01*
X118427949Y-106398164D01*
X118389500Y-106591455D01*
X112157706Y-106591455D01*
X112142741Y-106535606D01*
X112090080Y-106444394D01*
X112081686Y-106436000D01*
X113054074Y-106436000D01*
X113045791Y-106383704D01*
X112982173Y-106187906D01*
X112982170Y-106187900D01*
X112888699Y-106004454D01*
X112767684Y-105837892D01*
X112767682Y-105837889D01*
X112622110Y-105692317D01*
X112622107Y-105692315D01*
X112455545Y-105571300D01*
X112272099Y-105477829D01*
X112272093Y-105477826D01*
X112076294Y-105414208D01*
X112076298Y-105414208D01*
X111919461Y-105389368D01*
X111855308Y-105358955D01*
X111817781Y-105298687D01*
X111818795Y-105227698D01*
X111858028Y-105168526D01*
X111914589Y-105141340D01*
X112061835Y-105112051D01*
X112243914Y-105036632D01*
X112407782Y-104927139D01*
X112547139Y-104787782D01*
X112656632Y-104623914D01*
X112696244Y-104528282D01*
X112740792Y-104473001D01*
X112808156Y-104450580D01*
X112812653Y-104450500D01*
X113059562Y-104450500D01*
X113135989Y-104430021D01*
X113204511Y-104390460D01*
X113260460Y-104334511D01*
X113543516Y-104051455D01*
X118389500Y-104051455D01*
X118389500Y-104248544D01*
X118427949Y-104441835D01*
X118427950Y-104441838D01*
X118431538Y-104450500D01*
X118503368Y-104623914D01*
X118612861Y-104787782D01*
X118752218Y-104927139D01*
X118916086Y-105036632D01*
X119098165Y-105112051D01*
X119291459Y-105150500D01*
X119488541Y-105150500D01*
X119681835Y-105112051D01*
X119863914Y-105036632D01*
X120027782Y-104927139D01*
X120167139Y-104787782D01*
X120276632Y-104623914D01*
X120352051Y-104441835D01*
X120390500Y-104248541D01*
X120390500Y-104051459D01*
X120352051Y-103858165D01*
X120276632Y-103676086D01*
X120167139Y-103512218D01*
X120027782Y-103372861D01*
X119863914Y-103263368D01*
X119741399Y-103212621D01*
X119681838Y-103187950D01*
X119681835Y-103187949D01*
X119488544Y-103149500D01*
X119488541Y-103149500D01*
X119291459Y-103149500D01*
X119291455Y-103149500D01*
X119098164Y-103187949D01*
X119098161Y-103187950D01*
X118916085Y-103263368D01*
X118752222Y-103372858D01*
X118752215Y-103372863D01*
X118612863Y-103512215D01*
X118612858Y-103512222D01*
X118503368Y-103676085D01*
X118427950Y-103858161D01*
X118427949Y-103858164D01*
X118389500Y-104051455D01*
X113543516Y-104051455D01*
X114540460Y-103054511D01*
X114580021Y-102985989D01*
X114600500Y-102909562D01*
X114600500Y-101500000D01*
X118391779Y-101500000D01*
X118389500Y-101511455D01*
X118389500Y-101708544D01*
X118427949Y-101901835D01*
X118427950Y-101901838D01*
X118445313Y-101943756D01*
X118503368Y-102083914D01*
X118612861Y-102247782D01*
X118752218Y-102387139D01*
X118916086Y-102496632D01*
X119098165Y-102572051D01*
X119291459Y-102610500D01*
X119488541Y-102610500D01*
X119681835Y-102572051D01*
X119863914Y-102496632D01*
X120027782Y-102387139D01*
X120167139Y-102247782D01*
X120276632Y-102083914D01*
X120352051Y-101901835D01*
X120390500Y-101708541D01*
X120390500Y-101511459D01*
X120388221Y-101500000D01*
X125934500Y-101500000D01*
X125934500Y-103269748D01*
X125946133Y-103328231D01*
X125990448Y-103394552D01*
X126056769Y-103438867D01*
X126115252Y-103450500D01*
X126115253Y-103450500D01*
X127884747Y-103450500D01*
X127884748Y-103450500D01*
X127943231Y-103438867D01*
X128009552Y-103394552D01*
X128053867Y-103328231D01*
X128065500Y-103269748D01*
X128065500Y-101500000D01*
X128649419Y-101500000D01*
X128641763Y-101511459D01*
X128595768Y-101580295D01*
X128515448Y-101774202D01*
X128515447Y-101774203D01*
X128474500Y-101980053D01*
X128474500Y-102489946D01*
X128514958Y-102693339D01*
X128515447Y-102695795D01*
X128595767Y-102889703D01*
X128705888Y-103054511D01*
X128712373Y-103064217D01*
X128712378Y-103064223D01*
X128860776Y-103212621D01*
X128860782Y-103212626D01*
X128860784Y-103212628D01*
X129035297Y-103329233D01*
X129229205Y-103409553D01*
X129435057Y-103450500D01*
X129644943Y-103450500D01*
X129850795Y-103409553D01*
X130044703Y-103329233D01*
X130219216Y-103212628D01*
X130367628Y-103064216D01*
X130484233Y-102889703D01*
X130564553Y-102695795D01*
X130605500Y-102489943D01*
X130605500Y-101980057D01*
X130564553Y-101774205D01*
X130484233Y-101580297D01*
X130430581Y-101500000D01*
X131189419Y-101500000D01*
X131181763Y-101511459D01*
X131135768Y-101580295D01*
X131055448Y-101774202D01*
X131055447Y-101774203D01*
X131014500Y-101980053D01*
X131014500Y-102489946D01*
X131054958Y-102693339D01*
X131055447Y-102695795D01*
X131135767Y-102889703D01*
X131245888Y-103054511D01*
X131252373Y-103064217D01*
X131252378Y-103064223D01*
X131400776Y-103212621D01*
X131400782Y-103212626D01*
X131400784Y-103212628D01*
X131575297Y-103329233D01*
X131769205Y-103409553D01*
X131975057Y-103450500D01*
X132184943Y-103450500D01*
X132390795Y-103409553D01*
X132584703Y-103329233D01*
X132759216Y-103212628D01*
X132907628Y-103064216D01*
X133024233Y-102889703D01*
X133104553Y-102695795D01*
X133145500Y-102489943D01*
X133145500Y-101980057D01*
X133104553Y-101774205D01*
X133024233Y-101580297D01*
X132970581Y-101500000D01*
X136500000Y-101500000D01*
X136500000Y-109374000D01*
X136479998Y-109442121D01*
X136426342Y-109488614D01*
X136374000Y-109500000D01*
X93626000Y-109500000D01*
X93557879Y-109479998D01*
X93511386Y-109426342D01*
X93500000Y-109374000D01*
X93500000Y-106577061D01*
X99697000Y-106577061D01*
X99697000Y-106782938D01*
X99729208Y-106986296D01*
X99792826Y-107182093D01*
X99792829Y-107182099D01*
X99886297Y-107365540D01*
X99886298Y-107365541D01*
X99917416Y-107408372D01*
X100605000Y-106720788D01*
X100605000Y-106732661D01*
X100632259Y-106834394D01*
X100684920Y-106925606D01*
X100759394Y-107000080D01*
X100850606Y-107052741D01*
X100952339Y-107080000D01*
X100964210Y-107080000D01*
X100276626Y-107767582D01*
X100276626Y-107767583D01*
X100319454Y-107798699D01*
X100502900Y-107892170D01*
X100502906Y-107892173D01*
X100698705Y-107955791D01*
X100698701Y-107955791D01*
X100902061Y-107988000D01*
X101107939Y-107988000D01*
X101311296Y-107955791D01*
X101507093Y-107892173D01*
X101507099Y-107892170D01*
X101690541Y-107798701D01*
X101733372Y-107767582D01*
X101733372Y-107767581D01*
X101045791Y-107080000D01*
X101057661Y-107080000D01*
X101159394Y-107052741D01*
X101250606Y-107000080D01*
X101325080Y-106925606D01*
X101377741Y-106834394D01*
X101405000Y-106732661D01*
X101405000Y-106720791D01*
X102092581Y-107408372D01*
X102092582Y-107408372D01*
X102123701Y-107365541D01*
X102217170Y-107182099D01*
X102217173Y-107182093D01*
X102280791Y-106986296D01*
X102313000Y-106782938D01*
X102313000Y-106577061D01*
X102280791Y-106373703D01*
X102217173Y-106177906D01*
X102217170Y-106177900D01*
X102123699Y-105994454D01*
X102092583Y-105951626D01*
X102092582Y-105951626D01*
X101405000Y-106639208D01*
X101405000Y-106627339D01*
X101377741Y-106525606D01*
X101325080Y-106434394D01*
X101250606Y-106359920D01*
X101159394Y-106307259D01*
X101057661Y-106280000D01*
X101045790Y-106280000D01*
X101733372Y-105592416D01*
X101690541Y-105561298D01*
X101690540Y-105561297D01*
X101507099Y-105467829D01*
X101507093Y-105467826D01*
X101311294Y-105404208D01*
X101311298Y-105404208D01*
X101107939Y-105372000D01*
X100902061Y-105372000D01*
X100698703Y-105404208D01*
X100502906Y-105467826D01*
X100502900Y-105467829D01*
X100319452Y-105561301D01*
X100276625Y-105592416D01*
X100964209Y-106280000D01*
X100952339Y-106280000D01*
X100850606Y-106307259D01*
X100759394Y-106359920D01*
X100684920Y-106434394D01*
X100632259Y-106525606D01*
X100605000Y-106627339D01*
X100605000Y-106639209D01*
X99917416Y-105951625D01*
X99886301Y-105994452D01*
X99792829Y-106177900D01*
X99792826Y-106177906D01*
X99729208Y-106373703D01*
X99697000Y-106577061D01*
X93500000Y-106577061D01*
X93500000Y-101500000D01*
X101749500Y-101500000D01*
X101749500Y-101827347D01*
G37*
%TD.AperFunction*%
%TD*%
%TA.AperFunction,Conductor*%
%TO.N,GND*%
G36*
X136442121Y-65520002D02*
G01*
X136488614Y-65573658D01*
X136500000Y-65626000D01*
X136500000Y-73500000D01*
X123200500Y-73500000D01*
X123200500Y-72820252D01*
X123188867Y-72761769D01*
X123144552Y-72695448D01*
X123078231Y-72651133D01*
X123078228Y-72651132D01*
X123019750Y-72639500D01*
X123019748Y-72639500D01*
X121420252Y-72639500D01*
X121420249Y-72639500D01*
X121361771Y-72651132D01*
X121361768Y-72651133D01*
X121295448Y-72695448D01*
X121251133Y-72761768D01*
X121251132Y-72761771D01*
X121239500Y-72820249D01*
X121239500Y-73500000D01*
X107539971Y-73500000D01*
X106994752Y-72954781D01*
X106960726Y-72892469D01*
X106965791Y-72821654D01*
X106967439Y-72817467D01*
X107007047Y-72721846D01*
X107007048Y-72721841D01*
X107007051Y-72721835D01*
X107045500Y-72528541D01*
X107045500Y-72331459D01*
X107007051Y-72138165D01*
X106931632Y-71956086D01*
X106822139Y-71792218D01*
X106682782Y-71652861D01*
X106518914Y-71543368D01*
X106423282Y-71503756D01*
X106368001Y-71459208D01*
X106345580Y-71391844D01*
X106345500Y-71387347D01*
X106345500Y-71021455D01*
X113339500Y-71021455D01*
X113339500Y-71218544D01*
X113377949Y-71411835D01*
X113377950Y-71411838D01*
X113415280Y-71501961D01*
X113453368Y-71593914D01*
X113562861Y-71757782D01*
X113702218Y-71897139D01*
X113866086Y-72006632D01*
X114048165Y-72082051D01*
X114241459Y-72120500D01*
X114438541Y-72120500D01*
X114631835Y-72082051D01*
X114813914Y-72006632D01*
X114977782Y-71897139D01*
X115117139Y-71757782D01*
X115226632Y-71593914D01*
X115302051Y-71411835D01*
X115340500Y-71218541D01*
X115340500Y-71021459D01*
X115302051Y-70828165D01*
X115226632Y-70646086D01*
X115117139Y-70482218D01*
X114977782Y-70342861D01*
X114914009Y-70300249D01*
X115839500Y-70300249D01*
X115839500Y-71939750D01*
X115849278Y-71988908D01*
X115851133Y-71998231D01*
X115895448Y-72064552D01*
X115961769Y-72108867D01*
X116020252Y-72120500D01*
X116020253Y-72120500D01*
X117659747Y-72120500D01*
X117659748Y-72120500D01*
X117718231Y-72108867D01*
X117784552Y-72064552D01*
X117828867Y-71998231D01*
X117840500Y-71939748D01*
X117840500Y-71023426D01*
X126239500Y-71023426D01*
X126239500Y-71216573D01*
X126277180Y-71406001D01*
X126277182Y-71406006D01*
X126279598Y-71411838D01*
X126351092Y-71584441D01*
X126422789Y-71691744D01*
X126458395Y-71745031D01*
X126458400Y-71745037D01*
X126594962Y-71881599D01*
X126594968Y-71881604D01*
X126755559Y-71988908D01*
X126933999Y-72062820D01*
X127123429Y-72100500D01*
X127123430Y-72100500D01*
X127316570Y-72100500D01*
X127316571Y-72100500D01*
X127506001Y-72062820D01*
X127684441Y-71988908D01*
X127845032Y-71881604D01*
X127981604Y-71745032D01*
X128088908Y-71584441D01*
X128162820Y-71406001D01*
X128200500Y-71216571D01*
X128200500Y-71023429D01*
X128162820Y-70833999D01*
X128088908Y-70655559D01*
X127981604Y-70494968D01*
X127981599Y-70494962D01*
X127845037Y-70358400D01*
X127845031Y-70358395D01*
X127758015Y-70300253D01*
X127684441Y-70251092D01*
X127506001Y-70177180D01*
X127497294Y-70175448D01*
X127316573Y-70139500D01*
X127316571Y-70139500D01*
X127123429Y-70139500D01*
X127123426Y-70139500D01*
X126933998Y-70177180D01*
X126933993Y-70177182D01*
X126755559Y-70251092D01*
X126594968Y-70358395D01*
X126594962Y-70358400D01*
X126458400Y-70494962D01*
X126458395Y-70494968D01*
X126351092Y-70655559D01*
X126277182Y-70833993D01*
X126277180Y-70833998D01*
X126239500Y-71023426D01*
X117840500Y-71023426D01*
X117840500Y-70300252D01*
X117828867Y-70241769D01*
X117784552Y-70175448D01*
X117718231Y-70131133D01*
X117718228Y-70131132D01*
X117659750Y-70119500D01*
X117659748Y-70119500D01*
X116020252Y-70119500D01*
X116020249Y-70119500D01*
X115961771Y-70131132D01*
X115961768Y-70131133D01*
X115895448Y-70175448D01*
X115851133Y-70241768D01*
X115851132Y-70241771D01*
X115839500Y-70300249D01*
X114914009Y-70300249D01*
X114813914Y-70233368D01*
X114678268Y-70177182D01*
X114631838Y-70157950D01*
X114631835Y-70157949D01*
X114438544Y-70119500D01*
X114438541Y-70119500D01*
X114241459Y-70119500D01*
X114241455Y-70119500D01*
X114048164Y-70157949D01*
X114048161Y-70157950D01*
X113866085Y-70233368D01*
X113702222Y-70342858D01*
X113702215Y-70342863D01*
X113562863Y-70482215D01*
X113562858Y-70482222D01*
X113453368Y-70646085D01*
X113377950Y-70828161D01*
X113377949Y-70828164D01*
X113339500Y-71021455D01*
X106345500Y-71021455D01*
X106345500Y-69622651D01*
X106365502Y-69554530D01*
X106419158Y-69508037D01*
X106423241Y-69506260D01*
X106518914Y-69466632D01*
X106682782Y-69357139D01*
X106822139Y-69217782D01*
X106931632Y-69053914D01*
X107007051Y-68871835D01*
X107045500Y-68678541D01*
X107045500Y-68523426D01*
X121239500Y-68523426D01*
X121239500Y-68716573D01*
X121273260Y-68886296D01*
X121277180Y-68906001D01*
X121351092Y-69084441D01*
X121422789Y-69191744D01*
X121458395Y-69245031D01*
X121458400Y-69245037D01*
X121594962Y-69381599D01*
X121594968Y-69381604D01*
X121755559Y-69488908D01*
X121933999Y-69562820D01*
X122123429Y-69600500D01*
X122123430Y-69600500D01*
X122316570Y-69600500D01*
X122316571Y-69600500D01*
X122506001Y-69562820D01*
X122684441Y-69488908D01*
X122845032Y-69381604D01*
X122981604Y-69245032D01*
X123088908Y-69084441D01*
X123162820Y-68906001D01*
X123200500Y-68716571D01*
X123200500Y-68523429D01*
X123162820Y-68333999D01*
X123088908Y-68155559D01*
X122981604Y-67994968D01*
X122981599Y-67994962D01*
X122845037Y-67858400D01*
X122845031Y-67858395D01*
X122761914Y-67802858D01*
X122684441Y-67751092D01*
X122506001Y-67677180D01*
X122316573Y-67639500D01*
X122316571Y-67639500D01*
X122123429Y-67639500D01*
X122123426Y-67639500D01*
X121933998Y-67677180D01*
X121933993Y-67677182D01*
X121755559Y-67751092D01*
X121594968Y-67858395D01*
X121594962Y-67858400D01*
X121458400Y-67994962D01*
X121458395Y-67994968D01*
X121351092Y-68155559D01*
X121277182Y-68333993D01*
X121277180Y-68333998D01*
X121239500Y-68523426D01*
X107045500Y-68523426D01*
X107045500Y-68481459D01*
X107007051Y-68288165D01*
X106931632Y-68106086D01*
X106822139Y-67942218D01*
X106682782Y-67802861D01*
X106518914Y-67693368D01*
X106479837Y-67677182D01*
X106336838Y-67617950D01*
X106336835Y-67617949D01*
X106143544Y-67579500D01*
X106143541Y-67579500D01*
X105946459Y-67579500D01*
X105946455Y-67579500D01*
X105753164Y-67617949D01*
X105753161Y-67617950D01*
X105571085Y-67693368D01*
X105407222Y-67802858D01*
X105407215Y-67802863D01*
X105267863Y-67942215D01*
X105267858Y-67942222D01*
X105158368Y-68106085D01*
X105082950Y-68288161D01*
X105082949Y-68288164D01*
X105044500Y-68481455D01*
X105044500Y-68678544D01*
X105052065Y-68716573D01*
X105082949Y-68871835D01*
X105158368Y-69053914D01*
X105267861Y-69217782D01*
X105407218Y-69357139D01*
X105571086Y-69466632D01*
X105666719Y-69506243D01*
X105721998Y-69550789D01*
X105744420Y-69618152D01*
X105744500Y-69622651D01*
X105744500Y-71387347D01*
X105724498Y-71455468D01*
X105670842Y-71501961D01*
X105666718Y-71503756D01*
X105571085Y-71543368D01*
X105407222Y-71652858D01*
X105407215Y-71652863D01*
X105267863Y-71792215D01*
X105267858Y-71792222D01*
X105158368Y-71956085D01*
X105082950Y-72138161D01*
X105082949Y-72138164D01*
X105044500Y-72331455D01*
X105044500Y-72528544D01*
X105082949Y-72721835D01*
X105082950Y-72721838D01*
X105099490Y-72761769D01*
X105158368Y-72903914D01*
X105267861Y-73067782D01*
X105407218Y-73207139D01*
X105571086Y-73316632D01*
X105753165Y-73392051D01*
X105946459Y-73430500D01*
X106143541Y-73430500D01*
X106336835Y-73392051D01*
X106336841Y-73392048D01*
X106336846Y-73392047D01*
X106432467Y-73352439D01*
X106503057Y-73344849D01*
X106566544Y-73376628D01*
X106569781Y-73379752D01*
X106690029Y-73500000D01*
X103805500Y-73500000D01*
X103805500Y-73472651D01*
X103825502Y-73404530D01*
X103879158Y-73358037D01*
X103883241Y-73356260D01*
X103978914Y-73316632D01*
X104142782Y-73207139D01*
X104282139Y-73067782D01*
X104391632Y-72903914D01*
X104467051Y-72721835D01*
X104505500Y-72528541D01*
X104505500Y-72331459D01*
X104467051Y-72138165D01*
X104391632Y-71956086D01*
X104282139Y-71792218D01*
X104142782Y-71652861D01*
X103978914Y-71543368D01*
X103796838Y-71467950D01*
X103796835Y-71467949D01*
X103603544Y-71429500D01*
X103603541Y-71429500D01*
X103406459Y-71429500D01*
X103406455Y-71429500D01*
X103213164Y-71467949D01*
X103213161Y-71467950D01*
X103031085Y-71543368D01*
X102867222Y-71652858D01*
X102867215Y-71652863D01*
X102727863Y-71792215D01*
X102727858Y-71792222D01*
X102618368Y-71956085D01*
X102542950Y-72138161D01*
X102542949Y-72138164D01*
X102504500Y-72331455D01*
X102504500Y-72528544D01*
X102542949Y-72721835D01*
X102542950Y-72721838D01*
X102559490Y-72761769D01*
X102618368Y-72903914D01*
X102727861Y-73067782D01*
X102867218Y-73207139D01*
X103031086Y-73316632D01*
X103126719Y-73356243D01*
X103142534Y-73368988D01*
X103161012Y-73377427D01*
X103169611Y-73390807D01*
X103181998Y-73400789D01*
X103188414Y-73420064D01*
X103199396Y-73437153D01*
X103203422Y-73465153D01*
X103204420Y-73468152D01*
X103204500Y-73472651D01*
X103204500Y-73500000D01*
X93500000Y-73500000D01*
X93500000Y-68477061D01*
X99737000Y-68477061D01*
X99737000Y-68682938D01*
X99769208Y-68886296D01*
X99832826Y-69082093D01*
X99832829Y-69082099D01*
X99926297Y-69265540D01*
X99926298Y-69265541D01*
X99957416Y-69308372D01*
X100645000Y-68620788D01*
X100645000Y-68632661D01*
X100672259Y-68734394D01*
X100724920Y-68825606D01*
X100799394Y-68900080D01*
X100890606Y-68952741D01*
X100992339Y-68980000D01*
X101004210Y-68980000D01*
X100316626Y-69667582D01*
X100316626Y-69667583D01*
X100359454Y-69698699D01*
X100542900Y-69792170D01*
X100542906Y-69792173D01*
X100738705Y-69855791D01*
X100738701Y-69855791D01*
X100942061Y-69888000D01*
X101147939Y-69888000D01*
X101351296Y-69855791D01*
X101547093Y-69792173D01*
X101547099Y-69792170D01*
X101730541Y-69698701D01*
X101773372Y-69667582D01*
X101773372Y-69667581D01*
X101085791Y-68980000D01*
X101097661Y-68980000D01*
X101199394Y-68952741D01*
X101290606Y-68900080D01*
X101365080Y-68825606D01*
X101417741Y-68734394D01*
X101445000Y-68632661D01*
X101445000Y-68620791D01*
X102132581Y-69308372D01*
X102132582Y-69308372D01*
X102163701Y-69265541D01*
X102257170Y-69082099D01*
X102257173Y-69082093D01*
X102320791Y-68886296D01*
X102353000Y-68682938D01*
X102353000Y-68477061D01*
X102320791Y-68273703D01*
X102257173Y-68077906D01*
X102257170Y-68077900D01*
X102163699Y-67894454D01*
X102132583Y-67851626D01*
X102132582Y-67851626D01*
X101445000Y-68539208D01*
X101445000Y-68527339D01*
X101417741Y-68425606D01*
X101365080Y-68334394D01*
X101290606Y-68259920D01*
X101199394Y-68207259D01*
X101097661Y-68180000D01*
X101085790Y-68180000D01*
X101773372Y-67492416D01*
X101730541Y-67461298D01*
X101730540Y-67461297D01*
X101547099Y-67367829D01*
X101547093Y-67367826D01*
X101351294Y-67304208D01*
X101351298Y-67304208D01*
X101147939Y-67272000D01*
X100942061Y-67272000D01*
X100738703Y-67304208D01*
X100542906Y-67367826D01*
X100542900Y-67367829D01*
X100359452Y-67461301D01*
X100316625Y-67492416D01*
X101004209Y-68180000D01*
X100992339Y-68180000D01*
X100890606Y-68207259D01*
X100799394Y-68259920D01*
X100724920Y-68334394D01*
X100672259Y-68425606D01*
X100645000Y-68527339D01*
X100645000Y-68539209D01*
X99957416Y-67851625D01*
X99926301Y-67894452D01*
X99832829Y-68077900D01*
X99832826Y-68077906D01*
X99769208Y-68273703D01*
X99737000Y-68477061D01*
X93500000Y-68477061D01*
X93500000Y-65626000D01*
X93520002Y-65557879D01*
X93573658Y-65511386D01*
X93626000Y-65500000D01*
X136374000Y-65500000D01*
X136442121Y-65520002D01*
G37*
%TD.AperFunction*%
%TD*%
M02*
