%TF.GenerationSoftware,KiCad,Pcbnew,9.0.6*%
%TF.CreationDate,2026-01-11T11:54:49+09:00*%
%TF.ProjectId,MH01852029121Z2_MJ-HF_control,4d483031-3835-4323-9032-393132315a32,rev?*%
%TF.SameCoordinates,Original*%
%TF.FileFunction,Legend,Top*%
%TF.FilePolarity,Positive*%
%FSLAX46Y46*%
G04 Gerber Fmt 4.6, Leading zero omitted, Abs format (unit mm)*
G04 Created by KiCad (PCBNEW 9.0.6) date 2026-01-11 11:54:49*
%MOMM*%
%LPD*%
G01*
G04 APERTURE LIST*
%ADD10C,0.150000*%
%ADD11C,0.120000*%
%ADD12C,0.560000*%
G04 APERTURE END LIST*
D10*
G36*
X194014334Y-78616453D02*
G01*
X194048845Y-78612826D01*
X194484416Y-78574687D01*
X194538601Y-78570950D01*
X194615081Y-78579374D01*
X194668550Y-78601689D01*
X194705229Y-78635999D01*
X194728190Y-78684021D01*
X194736658Y-78750652D01*
X194725068Y-78880989D01*
X194676317Y-79151711D01*
X194614098Y-79414110D01*
X194542387Y-79645707D01*
X194462214Y-79849415D01*
X194405710Y-79954128D01*
X194351466Y-80017366D01*
X194298900Y-80050662D01*
X194245693Y-80061100D01*
X194190961Y-80051393D01*
X194134904Y-80020434D01*
X193909810Y-79840842D01*
X193864559Y-79792923D01*
X193853207Y-79759619D01*
X193864308Y-79726427D01*
X193881821Y-79708684D01*
X193903655Y-79703016D01*
X193936152Y-79710013D01*
X193988505Y-79737418D01*
X194158408Y-79833010D01*
X194211291Y-79850624D01*
X194233391Y-79843372D01*
X194260756Y-79816039D01*
X194296141Y-79754673D01*
X194368293Y-79584209D01*
X194435236Y-79375747D01*
X194495517Y-79123464D01*
X194534228Y-78908410D01*
X194543437Y-78804727D01*
X194537001Y-78771422D01*
X194520133Y-78753445D01*
X194490571Y-78746915D01*
X194448695Y-78749443D01*
X194127540Y-78773953D01*
X193968831Y-78787581D01*
X193886445Y-79016120D01*
X193786100Y-79227849D01*
X193667867Y-79424152D01*
X193531444Y-79606174D01*
X193376163Y-79774800D01*
X193201005Y-79930638D01*
X193155125Y-79959434D01*
X193118573Y-79967568D01*
X193091949Y-79961939D01*
X193071862Y-79945366D01*
X193057771Y-79922339D01*
X193053397Y-79899863D01*
X193058608Y-79875344D01*
X193075489Y-79850624D01*
X193160448Y-79770720D01*
X193294071Y-79635195D01*
X193418572Y-79481689D01*
X193534036Y-79308804D01*
X193640312Y-79114891D01*
X193705967Y-78969831D01*
X193767038Y-78804727D01*
X193440937Y-78830556D01*
X193263763Y-78844185D01*
X193235517Y-78845394D01*
X193180004Y-78834820D01*
X193150216Y-78807252D01*
X193139456Y-78759225D01*
X193146371Y-78721810D01*
X193165801Y-78695627D01*
X193199796Y-78678002D01*
X193274864Y-78669429D01*
X193763411Y-78634918D01*
X193812540Y-78631290D01*
X193868261Y-78364550D01*
X193893763Y-78205502D01*
X193910864Y-78150595D01*
X193943213Y-78120378D01*
X193994660Y-78109551D01*
X194037287Y-78117247D01*
X194068519Y-78139117D01*
X194084935Y-78166365D01*
X194090611Y-78200556D01*
X194077500Y-78311470D01*
X194014334Y-78616453D01*
G37*
G36*
X195366328Y-78343328D02*
G01*
X195415168Y-78353927D01*
X195549656Y-78406086D01*
X195693226Y-78474924D01*
X195810193Y-78544338D01*
X195904114Y-78614035D01*
X195941602Y-78659912D01*
X195953243Y-78708777D01*
X195948081Y-78741843D01*
X195932361Y-78772744D01*
X195900853Y-78800522D01*
X195861029Y-78809673D01*
X195816430Y-78798377D01*
X195752769Y-78755598D01*
X195575373Y-78622075D01*
X195344236Y-78477418D01*
X195302204Y-78443538D01*
X195291260Y-78414659D01*
X195299878Y-78374510D01*
X195323351Y-78351876D01*
X195366328Y-78343328D01*
G37*
G36*
X196946274Y-78743288D02*
G01*
X196971664Y-78747339D01*
X196992985Y-78759225D01*
X197012588Y-78785099D01*
X197018924Y-78814619D01*
X197011003Y-78848560D01*
X196978534Y-78908690D01*
X196904398Y-79009049D01*
X196751588Y-79180276D01*
X196580621Y-79340755D01*
X196390414Y-79490760D01*
X196179656Y-79630366D01*
X195959010Y-79751783D01*
X195734448Y-79852904D01*
X195505363Y-79934375D01*
X195408203Y-79956467D01*
X195368192Y-79950031D01*
X195338258Y-79931898D01*
X195315879Y-79901072D01*
X195304756Y-79873438D01*
X195301152Y-79845788D01*
X195313734Y-79798301D01*
X195352809Y-79762037D01*
X195509100Y-79712798D01*
X195697481Y-79649407D01*
X195887245Y-79567495D01*
X196078972Y-79466021D01*
X196273189Y-79343722D01*
X196443850Y-79217724D01*
X196597057Y-79085350D01*
X196733891Y-78946539D01*
X196855269Y-78801100D01*
X196902925Y-78756043D01*
X196946274Y-78743288D01*
G37*
G36*
X192072896Y-81193891D02*
G01*
X192112704Y-81202117D01*
X192134792Y-81224205D01*
X192143018Y-81264013D01*
X192137027Y-81290942D01*
X192117190Y-81319298D01*
X192053222Y-81379638D01*
X191976676Y-81462536D01*
X191901545Y-81567975D01*
X191828018Y-81699584D01*
X191759826Y-81860507D01*
X191710703Y-82030335D01*
X191680731Y-82210379D01*
X191670518Y-82402124D01*
X191683866Y-82615527D01*
X191723325Y-82818355D01*
X191788671Y-83012450D01*
X191855073Y-83152223D01*
X191929030Y-83272369D01*
X192010237Y-83374945D01*
X192098725Y-83461650D01*
X192133484Y-83501465D01*
X192143018Y-83534190D01*
X192139417Y-83556725D01*
X192128290Y-83578483D01*
X192104883Y-83597698D01*
X192072896Y-83604312D01*
X192037939Y-83595199D01*
X191982381Y-83559040D01*
X191895722Y-83477586D01*
X191796892Y-83358819D01*
X191706981Y-83220507D01*
X191626225Y-83060481D01*
X191561793Y-82892608D01*
X191516649Y-82726683D01*
X191489901Y-82561870D01*
X191481035Y-82397288D01*
X191491931Y-82214882D01*
X191524761Y-82033242D01*
X191580181Y-81851182D01*
X191659418Y-81667600D01*
X191737292Y-81527943D01*
X191820759Y-81408443D01*
X191909630Y-81307073D01*
X192003983Y-81222138D01*
X192039546Y-81200496D01*
X192072896Y-81193891D01*
G37*
G36*
X192758071Y-82335739D02*
G01*
X192758071Y-82920236D01*
X192752186Y-82953485D01*
X192734660Y-82981676D01*
X192699095Y-83007254D01*
X192651019Y-83016187D01*
X192596344Y-83004716D01*
X192558695Y-82971894D01*
X192547818Y-82949067D01*
X192543967Y-82920236D01*
X192543967Y-81314462D01*
X192549647Y-81280176D01*
X192566059Y-81252913D01*
X192602076Y-81226506D01*
X192652228Y-81217192D01*
X192702873Y-81227902D01*
X192739606Y-81259068D01*
X192753281Y-81283448D01*
X192758071Y-81314462D01*
X192758071Y-82066241D01*
X193672296Y-81249176D01*
X193708598Y-81226821D01*
X193746045Y-81219720D01*
X193778052Y-81226085D01*
X193811331Y-81246758D01*
X193836126Y-81279125D01*
X193844524Y-81320617D01*
X193835424Y-81360635D01*
X193806385Y-81398103D01*
X193150557Y-81982600D01*
X193934320Y-82834068D01*
X193959629Y-82872082D01*
X193967622Y-82911554D01*
X193957776Y-82957349D01*
X193928165Y-82993986D01*
X193892781Y-83013364D01*
X193853097Y-83019814D01*
X193806857Y-83010068D01*
X193768247Y-82980467D01*
X193000421Y-82116690D01*
X192758071Y-82335739D01*
G37*
G36*
X194980235Y-81228339D02*
G01*
X195030857Y-81264734D01*
X195071331Y-81330399D01*
X195713641Y-82859896D01*
X195724742Y-82911554D01*
X195718300Y-82951632D01*
X195700163Y-82981559D01*
X195669348Y-83003877D01*
X195642471Y-83013971D01*
X195612744Y-83017396D01*
X195568929Y-83009456D01*
X195535272Y-82986517D01*
X195509320Y-82946065D01*
X195295217Y-82431690D01*
X194534864Y-82431690D01*
X194320761Y-82946065D01*
X194294769Y-82987395D01*
X194261468Y-83010623D01*
X194218545Y-83018605D01*
X194188785Y-83014930D01*
X194160733Y-83003877D01*
X194129914Y-82980091D01*
X194111822Y-82949289D01*
X194105449Y-82909136D01*
X194116439Y-82859896D01*
X194375837Y-82242206D01*
X194602458Y-82242206D01*
X195227622Y-82242206D01*
X194915040Y-81428877D01*
X194602458Y-82242206D01*
X194375837Y-82242206D01*
X194758749Y-81330399D01*
X194799319Y-81264945D01*
X194850684Y-81228445D01*
X194916249Y-81215983D01*
X194980235Y-81228339D01*
G37*
G36*
X197242369Y-82638429D02*
G01*
X197242369Y-81309516D01*
X197249283Y-81273554D01*
X197269517Y-81245549D01*
X197304737Y-81224443D01*
X197348212Y-81217192D01*
X197401848Y-81228603D01*
X197439327Y-81261486D01*
X197450324Y-81283831D01*
X197454055Y-81309516D01*
X197454055Y-82831650D01*
X197443889Y-82919214D01*
X197418346Y-82972224D01*
X197380317Y-83001966D01*
X197326120Y-83012450D01*
X197273537Y-83002713D01*
X197225429Y-82972749D01*
X197179721Y-82917709D01*
X196234721Y-81446133D01*
X196234721Y-82920236D01*
X196227473Y-82958393D01*
X196206364Y-82987831D01*
X196170121Y-83008971D01*
X196126351Y-83016187D01*
X196075706Y-83005478D01*
X196038973Y-82974312D01*
X196027184Y-82950295D01*
X196023036Y-82920236D01*
X196023036Y-81410413D01*
X196030483Y-81345240D01*
X196050972Y-81295529D01*
X196083615Y-81257566D01*
X196130087Y-81229502D01*
X196170336Y-81217778D01*
X196219883Y-81213565D01*
X196282418Y-81223428D01*
X196334396Y-81252231D01*
X196378592Y-81302152D01*
X197242369Y-82638429D01*
G37*
G36*
X197927324Y-81193891D02*
G01*
X197960823Y-81202892D01*
X198015710Y-81239163D01*
X198103289Y-81321826D01*
X198202059Y-81439853D01*
X198291973Y-81577738D01*
X198372786Y-81737722D01*
X198437875Y-81906341D01*
X198483380Y-82072298D01*
X198510284Y-82236453D01*
X198519185Y-82399706D01*
X198509934Y-82565810D01*
X198481945Y-82733130D01*
X198434541Y-82902624D01*
X198366631Y-83075209D01*
X198288709Y-83226941D01*
X198203359Y-83357590D01*
X198110835Y-83469275D01*
X198011075Y-83563755D01*
X197961774Y-83595604D01*
X197924906Y-83604312D01*
X197895736Y-83598675D01*
X197873249Y-83582220D01*
X197860301Y-83559701D01*
X197855993Y-83534190D01*
X197862220Y-83507331D01*
X197883031Y-83478795D01*
X197945789Y-83418565D01*
X198022335Y-83335667D01*
X198097466Y-83230228D01*
X198170993Y-83098619D01*
X198239797Y-82937595D01*
X198289286Y-82768122D01*
X198319439Y-82588909D01*
X198329702Y-82398497D01*
X198318010Y-82196173D01*
X198283679Y-82006397D01*
X198227306Y-81827417D01*
X198148791Y-81657709D01*
X198075254Y-81537793D01*
X197989725Y-81428109D01*
X197891713Y-81327981D01*
X197863978Y-81294258D01*
X197855993Y-81264013D01*
X197859594Y-81241478D01*
X197870721Y-81219720D01*
X197894224Y-81200572D01*
X197927324Y-81193891D01*
G37*
G36*
X230752459Y-33448046D02*
G01*
X231449284Y-35164645D01*
X232158565Y-33448046D01*
X233476378Y-33448046D01*
X233476378Y-33796641D01*
X233258208Y-33796641D01*
X233151046Y-33817707D01*
X233081987Y-33851413D01*
X233044068Y-33910214D01*
X233031612Y-34002538D01*
X233031612Y-35708147D01*
X233044068Y-35806882D01*
X233081987Y-35867698D01*
X233151046Y-35903419D01*
X233258208Y-35913860D01*
X233476378Y-35905617D01*
X233476378Y-36250000D01*
X231894234Y-36250000D01*
X231894234Y-35904884D01*
X232112404Y-35904884D01*
X232129073Y-35909098D01*
X232141713Y-35909098D01*
X232229823Y-35898656D01*
X232288625Y-35866966D01*
X232326360Y-35808164D01*
X232339000Y-35715474D01*
X232339000Y-34116294D01*
X231449284Y-36250000D01*
X231134394Y-36250000D01*
X230265744Y-34086985D01*
X230265744Y-35707231D01*
X230278201Y-35806149D01*
X230316120Y-35866966D01*
X230385179Y-35902869D01*
X230492341Y-35913311D01*
X230689628Y-35904884D01*
X230689628Y-36250000D01*
X229380059Y-36250000D01*
X229380059Y-35905617D01*
X229598412Y-35905617D01*
X229615081Y-35909647D01*
X229627721Y-35909647D01*
X229715832Y-35899206D01*
X229774633Y-35867698D01*
X229812369Y-35808897D01*
X229825008Y-35716573D01*
X229825008Y-33994112D01*
X229812369Y-33910214D01*
X229774633Y-33851413D01*
X229705390Y-33817707D01*
X229598412Y-33805068D01*
X229380059Y-33796641D01*
X229380059Y-33448046D01*
X230752459Y-33448046D01*
G37*
G36*
X235202686Y-33448046D02*
G01*
X234241530Y-37086775D01*
X233712683Y-37086775D01*
X234673839Y-33448046D01*
X235202686Y-33448046D01*
G37*
G36*
X222288503Y-35888764D02*
G01*
X222867725Y-35888764D01*
X223077281Y-35877772D01*
X223222365Y-35834176D01*
X223302709Y-35784144D01*
X223362723Y-35721600D01*
X223404998Y-35645132D01*
X223445158Y-35514665D01*
X223476256Y-35363764D01*
X223495959Y-35204971D01*
X223505565Y-35027625D01*
X223904352Y-35019199D01*
X223904352Y-36250000D01*
X221151125Y-36250000D01*
X221151125Y-35905617D01*
X221369295Y-35905617D01*
X221386147Y-35909647D01*
X221398787Y-35909647D01*
X221486898Y-35899206D01*
X221545699Y-35867698D01*
X221583435Y-35808897D01*
X221596074Y-35716573D01*
X221596074Y-33994112D01*
X221583435Y-33910214D01*
X221545699Y-33851413D01*
X221476273Y-33817707D01*
X221369295Y-33805068D01*
X221151125Y-33796641D01*
X221151125Y-33448046D01*
X222766974Y-33448046D01*
X222766974Y-33796641D01*
X222515099Y-33796641D01*
X222408121Y-33817707D01*
X222338878Y-33851413D01*
X222300959Y-33910214D01*
X222288503Y-34002538D01*
X222288503Y-35888764D01*
G37*
G36*
X172375429Y-36462205D02*
G01*
X167929167Y-36462205D01*
X167929167Y-36005774D01*
X168262500Y-36005774D01*
X168270794Y-36044351D01*
X168297304Y-36081612D01*
X168334412Y-36108252D01*
X168371127Y-36116416D01*
X168416324Y-36103809D01*
X168498653Y-36050621D01*
X168639855Y-35925724D01*
X168870620Y-35678833D01*
X169076842Y-35404530D01*
X169259042Y-35100723D01*
X169417139Y-34764819D01*
X169550453Y-34393771D01*
X169623081Y-34134223D01*
X169638564Y-34032903D01*
X169626617Y-33958750D01*
X169594342Y-33909579D01*
X169540546Y-33878604D01*
X169456114Y-33866756D01*
X169383002Y-33884306D01*
X169328535Y-33937254D01*
X169289968Y-34039131D01*
X169197399Y-34396287D01*
X169080229Y-34726356D01*
X168939174Y-35031612D01*
X168757573Y-35348075D01*
X168564019Y-35621560D01*
X168358853Y-35856114D01*
X168280853Y-35951044D01*
X168262500Y-36005774D01*
X167929167Y-36005774D01*
X167929167Y-33715081D01*
X170184080Y-33715081D01*
X170204596Y-33799162D01*
X170330253Y-34108063D01*
X170497713Y-34463771D01*
X170713110Y-34871693D01*
X171061887Y-35464125D01*
X171321449Y-35840449D01*
X171510868Y-36059080D01*
X171588149Y-36111340D01*
X171681228Y-36128872D01*
X171802955Y-36119695D01*
X171923028Y-36092053D01*
X172021509Y-36048132D01*
X172042096Y-36016032D01*
X172025083Y-35977375D01*
X171947758Y-35907405D01*
X171771493Y-35763303D01*
X171572349Y-35560660D01*
X171347133Y-35287155D01*
X171092663Y-34929030D01*
X170816295Y-34487087D01*
X170609760Y-34099544D01*
X170463066Y-33760144D01*
X170413790Y-33643274D01*
X170372605Y-33607979D01*
X170317437Y-33596013D01*
X170240314Y-33610652D01*
X170198988Y-33648771D01*
X170184080Y-33715081D01*
X167929167Y-33715081D01*
X167929167Y-33262680D01*
X172375429Y-33262680D01*
X172375429Y-36462205D01*
G37*
G36*
X207724055Y-77849129D02*
G01*
X207751752Y-77867693D01*
X207769335Y-77898882D01*
X207776094Y-77948138D01*
X207776094Y-77973967D01*
X207774885Y-78069918D01*
X207778622Y-78355462D01*
X208396312Y-78309849D01*
X208428295Y-78307431D01*
X208458820Y-78311214D01*
X208484899Y-78322159D01*
X208516072Y-78352063D01*
X208526664Y-78396018D01*
X208518765Y-78437440D01*
X208496671Y-78465531D01*
X208457751Y-78483396D01*
X208391366Y-78489551D01*
X208005035Y-78517798D01*
X207778622Y-78535054D01*
X207779831Y-78623640D01*
X207789613Y-79609307D01*
X207780864Y-79704335D01*
X207758948Y-79764279D01*
X207727557Y-79803036D01*
X207692016Y-79824724D01*
X207650577Y-79831983D01*
X207614928Y-79825192D01*
X207563199Y-79800000D01*
X207424164Y-79715150D01*
X207303594Y-79641290D01*
X207255544Y-79601378D01*
X207243363Y-79569849D01*
X207250346Y-79535542D01*
X207268992Y-79516625D01*
X207302385Y-79509619D01*
X207327122Y-79513292D01*
X207363934Y-79526875D01*
X207560781Y-79608098D01*
X207586610Y-79614253D01*
X207598039Y-79605824D01*
X207603866Y-79566222D01*
X207602657Y-79545340D01*
X207602657Y-79318927D01*
X207592765Y-78638478D01*
X207591556Y-78549891D01*
X207130157Y-78584293D01*
X206941882Y-78597812D01*
X206916054Y-78599021D01*
X206882162Y-78594304D01*
X206853295Y-78580556D01*
X206825925Y-78550217D01*
X206816366Y-78505598D01*
X206823862Y-78464613D01*
X206844525Y-78437425D01*
X206880333Y-78420638D01*
X206959138Y-78412065D01*
X207532535Y-78372608D01*
X207591556Y-78368981D01*
X207587819Y-78023206D01*
X207593282Y-77920848D01*
X207603866Y-77884171D01*
X207636069Y-77852971D01*
X207682561Y-77842295D01*
X207724055Y-77849129D01*
G37*
G36*
X207127629Y-78851263D02*
G01*
X207157374Y-78876780D01*
X207167086Y-78912812D01*
X207155038Y-78970200D01*
X207095645Y-79129443D01*
X207029684Y-79274517D01*
X206962284Y-79391735D01*
X206893852Y-79485000D01*
X206848744Y-79522882D01*
X206804056Y-79534239D01*
X206773163Y-79529155D01*
X206742507Y-79513246D01*
X206715777Y-79481850D01*
X206706896Y-79441915D01*
X206717442Y-79401827D01*
X206758554Y-79341018D01*
X206857313Y-79208191D01*
X206942570Y-79062577D01*
X207014422Y-78903030D01*
X207035188Y-78867051D01*
X207059786Y-78847812D01*
X207089490Y-78841481D01*
X207127629Y-78851263D01*
G37*
G36*
X208225654Y-78824629D02*
G01*
X208278538Y-78859521D01*
X208358249Y-78937028D01*
X208475007Y-79078995D01*
X208571925Y-79219218D01*
X208617016Y-79312960D01*
X208628880Y-79374211D01*
X208620036Y-79421601D01*
X208595577Y-79453016D01*
X208561971Y-79471618D01*
X208526664Y-79477636D01*
X208486717Y-79468276D01*
X208454124Y-79439497D01*
X208427086Y-79390258D01*
X208281034Y-79129268D01*
X208160007Y-78955896D01*
X208133035Y-78913901D01*
X208125605Y-78882037D01*
X208130007Y-78859833D01*
X208144070Y-78837744D01*
X208165860Y-78821046D01*
X208190781Y-78815652D01*
X208225654Y-78824629D01*
G37*
G36*
X208643274Y-77622226D02*
G01*
X208710103Y-77649185D01*
X208771507Y-77694955D01*
X208818363Y-77756236D01*
X208847019Y-77823773D01*
X208856502Y-77895272D01*
X208848192Y-77963782D01*
X208823536Y-78026342D01*
X208781434Y-78084755D01*
X208720715Y-78136263D01*
X208652301Y-78166594D01*
X208573486Y-78176969D01*
X208516716Y-78171172D01*
X208461488Y-78153668D01*
X208397562Y-78114025D01*
X208345863Y-78058927D01*
X208306060Y-77979925D01*
X208293274Y-77896481D01*
X208411040Y-77896481D01*
X208421510Y-77955230D01*
X208452915Y-78005950D01*
X208488578Y-78035451D01*
X208529037Y-78052926D01*
X208575904Y-78058927D01*
X208615191Y-78054264D01*
X208650972Y-78040462D01*
X208700100Y-78003012D01*
X208728490Y-77956074D01*
X208738350Y-77896481D01*
X208725699Y-77830581D01*
X208687901Y-77775910D01*
X208636479Y-77742782D01*
X208574695Y-77731617D01*
X208531499Y-77737632D01*
X208488526Y-77756236D01*
X208445216Y-77793436D01*
X208419864Y-77839224D01*
X208411040Y-77896481D01*
X208293274Y-77896481D01*
X208292887Y-77893953D01*
X208301083Y-77822282D01*
X208324728Y-77760807D01*
X208363961Y-77707192D01*
X208420931Y-77660176D01*
X208494668Y-77625163D01*
X208575904Y-77613464D01*
X208643274Y-77622226D01*
G37*
G36*
X209179635Y-78093328D02*
G01*
X209228475Y-78103927D01*
X209362964Y-78156086D01*
X209506534Y-78224924D01*
X209623500Y-78294338D01*
X209717421Y-78364035D01*
X209754909Y-78409912D01*
X209766551Y-78458777D01*
X209761389Y-78491843D01*
X209745668Y-78522744D01*
X209714160Y-78550522D01*
X209674337Y-78559673D01*
X209629737Y-78548377D01*
X209566076Y-78505598D01*
X209388681Y-78372075D01*
X209157543Y-78227418D01*
X209115511Y-78193538D01*
X209104567Y-78164659D01*
X209113186Y-78124510D01*
X209136658Y-78101876D01*
X209179635Y-78093328D01*
G37*
G36*
X210759581Y-78493288D02*
G01*
X210784972Y-78497339D01*
X210806293Y-78509225D01*
X210825896Y-78535099D01*
X210832231Y-78564619D01*
X210824310Y-78598560D01*
X210791842Y-78658690D01*
X210717706Y-78759049D01*
X210564895Y-78930276D01*
X210393928Y-79090755D01*
X210203721Y-79240760D01*
X209992964Y-79380366D01*
X209772318Y-79501783D01*
X209547756Y-79602904D01*
X209318671Y-79684375D01*
X209221511Y-79706467D01*
X209181499Y-79700031D01*
X209151566Y-79681898D01*
X209129187Y-79651072D01*
X209118063Y-79623438D01*
X209114459Y-79595788D01*
X209127041Y-79548301D01*
X209166116Y-79512037D01*
X209322407Y-79462798D01*
X209510788Y-79399407D01*
X209700552Y-79317495D01*
X209892280Y-79216021D01*
X210086497Y-79093722D01*
X210257158Y-78967724D01*
X210410364Y-78835350D01*
X210547199Y-78696539D01*
X210668576Y-78551100D01*
X210716232Y-78506043D01*
X210759581Y-78493288D01*
G37*
G36*
X205749916Y-80943891D02*
G01*
X205789724Y-80952117D01*
X205811812Y-80974205D01*
X205820038Y-81014013D01*
X205814047Y-81040942D01*
X205794210Y-81069298D01*
X205730242Y-81129638D01*
X205653696Y-81212536D01*
X205578565Y-81317975D01*
X205505038Y-81449584D01*
X205436846Y-81610507D01*
X205387723Y-81780335D01*
X205357751Y-81960379D01*
X205347538Y-82152124D01*
X205360886Y-82365527D01*
X205400345Y-82568355D01*
X205465691Y-82762450D01*
X205532093Y-82902223D01*
X205606050Y-83022369D01*
X205687257Y-83124945D01*
X205775745Y-83211650D01*
X205810504Y-83251465D01*
X205820038Y-83284190D01*
X205816437Y-83306725D01*
X205805310Y-83328483D01*
X205781903Y-83347698D01*
X205749916Y-83354312D01*
X205714959Y-83345199D01*
X205659401Y-83309040D01*
X205572742Y-83227586D01*
X205473912Y-83108819D01*
X205384001Y-82970507D01*
X205303245Y-82810481D01*
X205238813Y-82642608D01*
X205193669Y-82476683D01*
X205166921Y-82311870D01*
X205158055Y-82147288D01*
X205168951Y-81964882D01*
X205201781Y-81783242D01*
X205257201Y-81601182D01*
X205336438Y-81417600D01*
X205414312Y-81277943D01*
X205497779Y-81158443D01*
X205586650Y-81057073D01*
X205681003Y-80972138D01*
X205716566Y-80950496D01*
X205749916Y-80943891D01*
G37*
G36*
X207065585Y-80993731D02*
G01*
X207189304Y-81020172D01*
X207297448Y-81062339D01*
X207392291Y-81119746D01*
X207472823Y-81194907D01*
X207529673Y-81282670D01*
X207564656Y-81385517D01*
X207576938Y-81507396D01*
X207565958Y-81631114D01*
X207535120Y-81733343D01*
X207486049Y-81818289D01*
X207418229Y-81888891D01*
X207322709Y-81952566D01*
X207210251Y-81999716D01*
X207077688Y-82029616D01*
X206921110Y-82040236D01*
X206442455Y-82040236D01*
X206442455Y-82670236D01*
X206436531Y-82703281D01*
X206419044Y-82730467D01*
X206381868Y-82756863D01*
X206330457Y-82766187D01*
X206274973Y-82754615D01*
X206238133Y-82721894D01*
X206227256Y-82699067D01*
X206223405Y-82670236D01*
X206223405Y-81234272D01*
X206442455Y-81234272D01*
X206442455Y-81848225D01*
X206954302Y-81848225D01*
X207041852Y-81842412D01*
X207116213Y-81826032D01*
X207179506Y-81800195D01*
X207257413Y-81747928D01*
X207311110Y-81683615D01*
X207343885Y-81605253D01*
X207355471Y-81508605D01*
X207343128Y-81410266D01*
X207308278Y-81331541D01*
X207250994Y-81267772D01*
X207167196Y-81217016D01*
X207072279Y-81187036D01*
X206956720Y-81176349D01*
X206497739Y-81176349D01*
X206466598Y-81183012D01*
X206449067Y-81201135D01*
X206442455Y-81234272D01*
X206223405Y-81234272D01*
X206223405Y-81200969D01*
X206233164Y-81119213D01*
X206259347Y-81061085D01*
X206300464Y-81020294D01*
X206359343Y-80994200D01*
X206442455Y-80984448D01*
X206923528Y-80984448D01*
X207065585Y-80993731D01*
G37*
G36*
X208773948Y-80952915D02*
G01*
X208887330Y-80979664D01*
X208996022Y-81024287D01*
X209101160Y-81087763D01*
X209208671Y-81180070D01*
X209299909Y-81292440D01*
X209375494Y-81427382D01*
X209427082Y-81564599D01*
X209458375Y-81710452D01*
X209469026Y-81866690D01*
X209456085Y-82040243D01*
X209418200Y-82200245D01*
X209355820Y-82349081D01*
X209286613Y-82462592D01*
X209204774Y-82559683D01*
X209109733Y-82641880D01*
X209005268Y-82706973D01*
X208894320Y-82753209D01*
X208775511Y-82781245D01*
X208647125Y-82790807D01*
X208508120Y-82779568D01*
X208381576Y-82746780D01*
X208265190Y-82692831D01*
X208157196Y-82616770D01*
X208056472Y-82516363D01*
X207976266Y-82407491D01*
X207913875Y-82289538D01*
X207868694Y-82161232D01*
X207840863Y-82020930D01*
X207831418Y-81869108D01*
X208057681Y-81869108D01*
X208065327Y-81992431D01*
X208087659Y-82106438D01*
X208124177Y-82212464D01*
X208186386Y-82330146D01*
X208264421Y-82427777D01*
X208351579Y-82501467D01*
X208444320Y-82552708D01*
X208544139Y-82583406D01*
X208653170Y-82593849D01*
X208760717Y-82583192D01*
X208859653Y-82551764D01*
X208952125Y-82499055D01*
X209039611Y-82422831D01*
X209111354Y-82334882D01*
X209167422Y-82237023D01*
X209208325Y-82127865D01*
X209233760Y-82005563D01*
X209242613Y-81867899D01*
X209230892Y-81711295D01*
X209197251Y-81573478D01*
X209142952Y-81451363D01*
X209067858Y-81342532D01*
X208975046Y-81251173D01*
X208875540Y-81188358D01*
X208767571Y-81150943D01*
X208648334Y-81138211D01*
X208531500Y-81150737D01*
X208425286Y-81187614D01*
X208326975Y-81249643D01*
X208234855Y-81340004D01*
X208158694Y-81449595D01*
X208103652Y-81572565D01*
X208069559Y-81711361D01*
X208057681Y-81869108D01*
X207831418Y-81869108D01*
X207831268Y-81866690D01*
X207844544Y-81688010D01*
X207883016Y-81527152D01*
X207945704Y-81381186D01*
X208033062Y-81247790D01*
X208136813Y-81136476D01*
X208249209Y-81052344D01*
X208371469Y-80992693D01*
X208505648Y-80956378D01*
X208654489Y-80943891D01*
X208773948Y-80952915D01*
G37*
G36*
X211065349Y-82388429D02*
G01*
X211065349Y-81059516D01*
X211072262Y-81023554D01*
X211092496Y-80995549D01*
X211127716Y-80974443D01*
X211171192Y-80967192D01*
X211224828Y-80978603D01*
X211262306Y-81011486D01*
X211273303Y-81033831D01*
X211277034Y-81059516D01*
X211277034Y-82581650D01*
X211266868Y-82669214D01*
X211241326Y-82722224D01*
X211203296Y-82751966D01*
X211149100Y-82762450D01*
X211096517Y-82752713D01*
X211048408Y-82722749D01*
X211002701Y-82667709D01*
X210057701Y-81196133D01*
X210057701Y-82670236D01*
X210050453Y-82708393D01*
X210029344Y-82737831D01*
X209993100Y-82758971D01*
X209949330Y-82766187D01*
X209898685Y-82755478D01*
X209861952Y-82724312D01*
X209850163Y-82700295D01*
X209846015Y-82670236D01*
X209846015Y-81160413D01*
X209853462Y-81095240D01*
X209873952Y-81045529D01*
X209906595Y-81007566D01*
X209953067Y-80979502D01*
X209993315Y-80967778D01*
X210042863Y-80963565D01*
X210105398Y-80973428D01*
X210157375Y-81002231D01*
X210201572Y-81052152D01*
X211065349Y-82388429D01*
G37*
G36*
X211750304Y-80943891D02*
G01*
X211783803Y-80952892D01*
X211838689Y-80989163D01*
X211926268Y-81071826D01*
X212025038Y-81189853D01*
X212114953Y-81327738D01*
X212195766Y-81487722D01*
X212260855Y-81656341D01*
X212306360Y-81822298D01*
X212333264Y-81986453D01*
X212342165Y-82149706D01*
X212332914Y-82315810D01*
X212304924Y-82483130D01*
X212257521Y-82652624D01*
X212189611Y-82825209D01*
X212111688Y-82976941D01*
X212026338Y-83107590D01*
X211933815Y-83219275D01*
X211834054Y-83313755D01*
X211784753Y-83345604D01*
X211747886Y-83354312D01*
X211718716Y-83348675D01*
X211696228Y-83332220D01*
X211683281Y-83309701D01*
X211678972Y-83284190D01*
X211685200Y-83257331D01*
X211706010Y-83228795D01*
X211768768Y-83168565D01*
X211845314Y-83085667D01*
X211920446Y-82980228D01*
X211993972Y-82848619D01*
X212062777Y-82687595D01*
X212112265Y-82518122D01*
X212142419Y-82338909D01*
X212152681Y-82148497D01*
X212140990Y-81946173D01*
X212106658Y-81756397D01*
X212050286Y-81577417D01*
X211971771Y-81407709D01*
X211898234Y-81287793D01*
X211812704Y-81178109D01*
X211714693Y-81077981D01*
X211686958Y-81044258D01*
X211678972Y-81014013D01*
X211682574Y-80991478D01*
X211693700Y-80969720D01*
X211717203Y-80950572D01*
X211750304Y-80943891D01*
G37*
G36*
X208292716Y-34761645D02*
G01*
X209232807Y-33997775D01*
X209268527Y-33974694D01*
X209295821Y-33943187D01*
X209310476Y-33911863D01*
X209316704Y-33880355D01*
X209308278Y-33851046D01*
X209287395Y-33834193D01*
X209249476Y-33821554D01*
X209190858Y-33817341D01*
X208934769Y-33808914D01*
X208934769Y-33448046D01*
X210424773Y-33448046D01*
X210424773Y-33811845D01*
X210288302Y-33826683D01*
X210177110Y-33841338D01*
X210080573Y-33866800D01*
X209988250Y-33904902D01*
X209923220Y-33945019D01*
X209853977Y-33993562D01*
X209782536Y-34050715D01*
X209702852Y-34116294D01*
X209232807Y-34506106D01*
X209963154Y-35608679D01*
X209979823Y-35642201D01*
X210000889Y-35667297D01*
X210011331Y-35679937D01*
X210021955Y-35692393D01*
X210036427Y-35707231D01*
X210047051Y-35721885D01*
X210089000Y-35772260D01*
X210126735Y-35814026D01*
X210158243Y-35843518D01*
X210189750Y-35864401D01*
X210225471Y-35885284D01*
X210265404Y-35893710D01*
X210313581Y-35897923D01*
X210378611Y-35897923D01*
X210466721Y-35889497D01*
X210466721Y-36250000D01*
X208934769Y-36250000D01*
X208934769Y-35889131D01*
X209094321Y-35889131D01*
X209113189Y-35893161D01*
X209132056Y-35893161D01*
X209178218Y-35889131D01*
X209211924Y-35880704D01*
X209241233Y-35855608D01*
X209249659Y-35817690D01*
X209245446Y-35784167D01*
X209232807Y-35750462D01*
X209213939Y-35719138D01*
X209195071Y-35687630D01*
X209184446Y-35668763D01*
X209169975Y-35649895D01*
X209159351Y-35633042D01*
X209148909Y-35616189D01*
X208691503Y-34927974D01*
X208292716Y-35255321D01*
X208292716Y-35708513D01*
X208305172Y-35807248D01*
X208343091Y-35868065D01*
X208412151Y-35903785D01*
X208519312Y-35914227D01*
X208699747Y-35905800D01*
X208699747Y-36250000D01*
X207155338Y-36250000D01*
X207155338Y-35905617D01*
X207373508Y-35905617D01*
X207390361Y-35909647D01*
X207403000Y-35909647D01*
X207490928Y-35899206D01*
X207549729Y-35867698D01*
X207587465Y-35808897D01*
X207600104Y-35716573D01*
X207600104Y-33994112D01*
X207587465Y-33910214D01*
X207549729Y-33851413D01*
X207480486Y-33817707D01*
X207373508Y-33805068D01*
X207155338Y-33796641D01*
X207155338Y-33448046D01*
X208699747Y-33448046D01*
X208699747Y-33796275D01*
X208519312Y-33796275D01*
X208412151Y-33817341D01*
X208343091Y-33850863D01*
X208305172Y-33909665D01*
X208292716Y-34001988D01*
X208292716Y-34761645D01*
G37*
G36*
X180405338Y-33796641D02*
G01*
X180405338Y-33448046D01*
X181949747Y-33448046D01*
X181949747Y-33796641D01*
X181769312Y-33796641D01*
X181662151Y-33817707D01*
X181593091Y-33851413D01*
X181555172Y-33910214D01*
X181542716Y-34002538D01*
X181542716Y-35708147D01*
X181555172Y-35806882D01*
X181593091Y-35867698D01*
X181662151Y-35903419D01*
X181769312Y-35913860D01*
X181949747Y-35905617D01*
X181949747Y-36250000D01*
X180405338Y-36250000D01*
X180405338Y-35905617D01*
X180623508Y-35905617D01*
X180640361Y-35909647D01*
X180653000Y-35909647D01*
X180740928Y-35899206D01*
X180799729Y-35867698D01*
X180837465Y-35808897D01*
X180850104Y-35716573D01*
X180850104Y-33994112D01*
X180837465Y-33910214D01*
X180799729Y-33851413D01*
X180730486Y-33817707D01*
X180623508Y-33805068D01*
X180405338Y-33796641D01*
G37*
G36*
X164904998Y-34986592D02*
G01*
X163788503Y-34986592D01*
X163788503Y-35708513D01*
X163800959Y-35807248D01*
X163838878Y-35868065D01*
X163908121Y-35903785D01*
X164015099Y-35914227D01*
X164195533Y-35905800D01*
X164195533Y-36250000D01*
X162651125Y-36250000D01*
X162651125Y-35905617D01*
X162869295Y-35905617D01*
X162886147Y-35909647D01*
X162898787Y-35909647D01*
X162986898Y-35899206D01*
X163045699Y-35867698D01*
X163083435Y-35808897D01*
X163096074Y-35716573D01*
X163096074Y-33994112D01*
X163083435Y-33910214D01*
X163045699Y-33851413D01*
X162976273Y-33817707D01*
X162869295Y-33805068D01*
X162651125Y-33796641D01*
X162651125Y-33448046D01*
X164195533Y-33448046D01*
X164195533Y-33796275D01*
X164015099Y-33796275D01*
X163908121Y-33817341D01*
X163838878Y-33850863D01*
X163800959Y-33909665D01*
X163788503Y-34001988D01*
X163788503Y-34602093D01*
X164904998Y-34602093D01*
X164904998Y-33993562D01*
X164892358Y-33909665D01*
X164854623Y-33850863D01*
X164785197Y-33817341D01*
X164678218Y-33804701D01*
X164497784Y-33796275D01*
X164497784Y-33448046D01*
X166042376Y-33448046D01*
X166042376Y-33796641D01*
X165824023Y-33796641D01*
X165717044Y-33817707D01*
X165647801Y-33851413D01*
X165610066Y-33910214D01*
X165597426Y-34002538D01*
X165597426Y-35708147D01*
X165610066Y-35806882D01*
X165647801Y-35867698D01*
X165717044Y-35903419D01*
X165824023Y-35913860D01*
X166042376Y-35905617D01*
X166042376Y-36250000D01*
X164497784Y-36250000D01*
X164497784Y-35905800D01*
X164678218Y-35905800D01*
X164695071Y-35910013D01*
X164707711Y-35910013D01*
X164795821Y-35899572D01*
X164854623Y-35868065D01*
X164892358Y-35809263D01*
X164904998Y-35716939D01*
X164904998Y-34986592D01*
G37*
G36*
X167772714Y-33448046D02*
G01*
X166811557Y-37086775D01*
X166282711Y-37086775D01*
X167243867Y-33448046D01*
X167772714Y-33448046D01*
G37*
G36*
X180061235Y-80000000D02*
G01*
X180061235Y-77991346D01*
X180326361Y-77991346D01*
X180326361Y-79767480D01*
X181312736Y-79767480D01*
X181312736Y-80000000D01*
X180061235Y-80000000D01*
G37*
G36*
X182385943Y-78527164D02*
G01*
X182511479Y-78558845D01*
X182616299Y-78610871D01*
X182682205Y-78668876D01*
X182727808Y-78741947D01*
X182758775Y-78836304D01*
X182767278Y-78911817D01*
X182771110Y-79063328D01*
X182771110Y-79391468D01*
X182776332Y-79704006D01*
X182786741Y-79825732D01*
X182810029Y-79914366D01*
X182848901Y-80000000D01*
X182592080Y-80000000D01*
X182561254Y-79918403D01*
X182542865Y-79819382D01*
X182404041Y-79921442D01*
X182279937Y-79983391D01*
X182150072Y-80019092D01*
X182008706Y-80031263D01*
X181888550Y-80022878D01*
X181789590Y-79999542D01*
X181708103Y-79963151D01*
X181641120Y-79914392D01*
X181584874Y-79851768D01*
X181545248Y-79782184D01*
X181521116Y-79704193D01*
X181512770Y-79615683D01*
X181513516Y-79609455D01*
X181775087Y-79609455D01*
X181783444Y-79671915D01*
X181807882Y-79726018D01*
X181849459Y-79773953D01*
X181902967Y-79808763D01*
X181973910Y-79831412D01*
X182067446Y-79839776D01*
X182160553Y-79832548D01*
X182244280Y-79811591D01*
X182320237Y-79777372D01*
X182388242Y-79730008D01*
X182441935Y-79673392D01*
X182482781Y-79606646D01*
X182510905Y-79512302D01*
X182522348Y-79359717D01*
X182522348Y-79269225D01*
X182370932Y-79316364D01*
X182120691Y-79362770D01*
X181980664Y-79388646D01*
X181906246Y-79412229D01*
X181850002Y-79446370D01*
X181809159Y-79492341D01*
X181783657Y-79547820D01*
X181775087Y-79609455D01*
X181513516Y-79609455D01*
X181525064Y-79512989D01*
X181561253Y-79420900D01*
X181617704Y-79340950D01*
X181688259Y-79279483D01*
X181771057Y-79232968D01*
X181865213Y-79198761D01*
X182083810Y-79161880D01*
X182361382Y-79119466D01*
X182522348Y-79077739D01*
X182523814Y-79013869D01*
X182514557Y-78916596D01*
X182490333Y-78849001D01*
X182454082Y-78803087D01*
X182386327Y-78759407D01*
X182295323Y-78730793D01*
X182174058Y-78720167D01*
X182059338Y-78728390D01*
X181976486Y-78749992D01*
X181917847Y-78781716D01*
X181870932Y-78828720D01*
X181829811Y-78899023D01*
X181795604Y-78999581D01*
X181555147Y-78966852D01*
X181583188Y-78865062D01*
X181619417Y-78781961D01*
X181662980Y-78714672D01*
X181718394Y-78657404D01*
X181789852Y-78608082D01*
X181880234Y-78566905D01*
X182029195Y-78528691D01*
X182209595Y-78515003D01*
X182385943Y-78527164D01*
G37*
G36*
X183053088Y-79561584D02*
G01*
X183296232Y-79523237D01*
X183319188Y-79616574D01*
X183357358Y-79690247D01*
X183410293Y-79748063D01*
X183476990Y-79789622D01*
X183562498Y-79816349D01*
X183671999Y-79826099D01*
X183783218Y-79817129D01*
X183864618Y-79793322D01*
X183923325Y-79757711D01*
X183970125Y-79707785D01*
X183996612Y-79654942D01*
X184005391Y-79597243D01*
X183997328Y-79546068D01*
X183973781Y-79503512D01*
X183932973Y-79467306D01*
X183863025Y-79436581D01*
X183681525Y-79384752D01*
X183432764Y-79314680D01*
X183306490Y-79266538D01*
X183213468Y-79206049D01*
X183147976Y-79128419D01*
X183107593Y-79035904D01*
X183093999Y-78933513D01*
X183105204Y-78839658D01*
X183138451Y-78753750D01*
X183190900Y-78677977D01*
X183259351Y-78616242D01*
X183323358Y-78578866D01*
X183415789Y-78544434D01*
X183517216Y-78522530D01*
X183628280Y-78515003D01*
X183792588Y-78528133D01*
X183928088Y-78564829D01*
X184010261Y-78604064D01*
X184072688Y-78649165D01*
X184118720Y-78699895D01*
X184168912Y-78794705D01*
X184203472Y-78927651D01*
X183963015Y-78960502D01*
X183944469Y-78888849D01*
X183912837Y-78830791D01*
X183868004Y-78783792D01*
X183812190Y-78750067D01*
X183739727Y-78728194D01*
X183645988Y-78720167D01*
X183533514Y-78727853D01*
X183455960Y-78747610D01*
X183404187Y-78775854D01*
X183362563Y-78816908D01*
X183339377Y-78859832D01*
X183331769Y-78906280D01*
X183339248Y-78951406D01*
X183361811Y-78991887D01*
X183398376Y-79026494D01*
X183456089Y-79057100D01*
X183673343Y-79119626D01*
X183913779Y-79188912D01*
X184037387Y-79233565D01*
X184130334Y-79288664D01*
X184199320Y-79362526D01*
X184231165Y-79421532D01*
X184251043Y-79490803D01*
X184258060Y-79572697D01*
X184250197Y-79652509D01*
X184226600Y-79729200D01*
X184186375Y-79804117D01*
X184132647Y-79869832D01*
X184064366Y-79925656D01*
X183979379Y-79971912D01*
X183887423Y-80004293D01*
X183785924Y-80024327D01*
X183673343Y-80031263D01*
X183529683Y-80022531D01*
X183412908Y-79998450D01*
X183318385Y-79961443D01*
X183242254Y-79912805D01*
X183176905Y-79848921D01*
X183123540Y-79770729D01*
X183081985Y-79675972D01*
X183053088Y-79561584D01*
G37*
G36*
X185087387Y-79775296D02*
G01*
X185122924Y-80000000D01*
X184937055Y-80015631D01*
X184812051Y-80003761D01*
X184729449Y-79973377D01*
X184665807Y-79923503D01*
X184625646Y-79862124D01*
X184605307Y-79774196D01*
X184595604Y-79571964D01*
X184595604Y-78737752D01*
X184415230Y-78737752D01*
X184415230Y-78546266D01*
X184595604Y-78546266D01*
X184595604Y-78186130D01*
X184840091Y-78038241D01*
X184840091Y-78546266D01*
X185087387Y-78546266D01*
X185087387Y-78737752D01*
X184840091Y-78737752D01*
X184840091Y-79589305D01*
X184844345Y-79685618D01*
X184853036Y-79725104D01*
X184870050Y-79752056D01*
X184895412Y-79773098D01*
X184928590Y-79785909D01*
X184979431Y-79790928D01*
X185087387Y-79775296D01*
G37*
G36*
X179324599Y-82656580D02*
G01*
X179589603Y-82723503D01*
X179537026Y-82883026D01*
X179469183Y-83016773D01*
X179386827Y-83128306D01*
X179289672Y-83220293D01*
X179177415Y-83294009D01*
X179053281Y-83347145D01*
X178915133Y-83379909D01*
X178760276Y-83391263D01*
X178596958Y-83381983D01*
X178456888Y-83355802D01*
X178336714Y-83314619D01*
X178233566Y-83259494D01*
X178139644Y-83187465D01*
X178057196Y-83100829D01*
X177985606Y-82998204D01*
X177924843Y-82877620D01*
X177866372Y-82708098D01*
X177830972Y-82529697D01*
X177818964Y-82340652D01*
X177833109Y-82134880D01*
X177873580Y-81954257D01*
X177938521Y-81794891D01*
X178005553Y-81684075D01*
X178084205Y-81589030D01*
X178174931Y-81508291D01*
X178278751Y-81440983D01*
X178429817Y-81374151D01*
X178590891Y-81333807D01*
X178764428Y-81320083D01*
X178913888Y-81330310D01*
X179046301Y-81359688D01*
X179164264Y-81407015D01*
X179269889Y-81472124D01*
X179363216Y-81554372D01*
X179441600Y-81651741D01*
X179505728Y-81765946D01*
X179555409Y-81899427D01*
X179294557Y-81960976D01*
X179237481Y-81822036D01*
X179169800Y-81718639D01*
X179092324Y-81644071D01*
X178999377Y-81590198D01*
X178889604Y-81556642D01*
X178758933Y-81544787D01*
X178608484Y-81558024D01*
X178481282Y-81595551D01*
X178372907Y-81655795D01*
X178280005Y-81737973D01*
X178207784Y-81836453D01*
X178155042Y-81953649D01*
X178120174Y-82079563D01*
X178099274Y-82207834D01*
X178092272Y-82339187D01*
X178101195Y-82508871D01*
X178126542Y-82657032D01*
X178166644Y-82786517D01*
X178227036Y-82905541D01*
X178303944Y-82999554D01*
X178398186Y-83072037D01*
X178506169Y-83124673D01*
X178618981Y-83156008D01*
X178738416Y-83166559D01*
X178848307Y-83158087D01*
X178946549Y-83133590D01*
X179035112Y-83093708D01*
X179115527Y-83038087D01*
X179183776Y-82969329D01*
X179241539Y-82884603D01*
X179288777Y-82781426D01*
X179324599Y-82656580D01*
G37*
G36*
X179884404Y-83360000D02*
G01*
X179884404Y-81351346D01*
X180130356Y-81351346D01*
X180130356Y-82073817D01*
X180223269Y-81985931D01*
X180325154Y-81924672D01*
X180438006Y-81887707D01*
X180564864Y-81875003D01*
X180670773Y-81882535D01*
X180763410Y-81904068D01*
X180844889Y-81938628D01*
X180917796Y-81987371D01*
X180973839Y-82045650D01*
X181015004Y-82114361D01*
X181041277Y-82191183D01*
X181059413Y-82297052D01*
X181066295Y-82439692D01*
X181066295Y-83360000D01*
X180820342Y-83360000D01*
X180820342Y-82439082D01*
X180809815Y-82318266D01*
X180782004Y-82231478D01*
X180740353Y-82170170D01*
X180682047Y-82124710D01*
X180608232Y-82096270D01*
X180514306Y-82086029D01*
X180408535Y-82100145D01*
X180308654Y-82142815D01*
X180249866Y-82185796D01*
X180204531Y-82236831D01*
X180171267Y-82296810D01*
X180141944Y-82403839D01*
X180130356Y-82564989D01*
X180130356Y-83360000D01*
X179884404Y-83360000D01*
G37*
G36*
X182229628Y-81887164D02*
G01*
X182355164Y-81918845D01*
X182459984Y-81970871D01*
X182525890Y-82028876D01*
X182571493Y-82101947D01*
X182602460Y-82196304D01*
X182610963Y-82271817D01*
X182614794Y-82423328D01*
X182614794Y-82751468D01*
X182620016Y-83064006D01*
X182630426Y-83185732D01*
X182653714Y-83274366D01*
X182692586Y-83360000D01*
X182435764Y-83360000D01*
X182404939Y-83278403D01*
X182386550Y-83179382D01*
X182247726Y-83281442D01*
X182123622Y-83343391D01*
X181993757Y-83379092D01*
X181852390Y-83391263D01*
X181732235Y-83382878D01*
X181633275Y-83359542D01*
X181551787Y-83323151D01*
X181484805Y-83274392D01*
X181428559Y-83211768D01*
X181388932Y-83142184D01*
X181364800Y-83064193D01*
X181356455Y-82975683D01*
X181357201Y-82969455D01*
X181618772Y-82969455D01*
X181627129Y-83031915D01*
X181651567Y-83086018D01*
X181693144Y-83133953D01*
X181746651Y-83168763D01*
X181817595Y-83191412D01*
X181911131Y-83199776D01*
X182004238Y-83192548D01*
X182087965Y-83171591D01*
X182163922Y-83137372D01*
X182231927Y-83090008D01*
X182285619Y-83033392D01*
X182326466Y-82966646D01*
X182354590Y-82872302D01*
X182366033Y-82719717D01*
X182366033Y-82629225D01*
X182214617Y-82676364D01*
X181964376Y-82722770D01*
X181824349Y-82748646D01*
X181749931Y-82772229D01*
X181693686Y-82806370D01*
X181652844Y-82852341D01*
X181627342Y-82907820D01*
X181618772Y-82969455D01*
X181357201Y-82969455D01*
X181368749Y-82872989D01*
X181404938Y-82780900D01*
X181461389Y-82700950D01*
X181531944Y-82639483D01*
X181614742Y-82592968D01*
X181708898Y-82558761D01*
X181927495Y-82521880D01*
X182205066Y-82479466D01*
X182366033Y-82437739D01*
X182367499Y-82373869D01*
X182358242Y-82276596D01*
X182334018Y-82209001D01*
X182297767Y-82163087D01*
X182230012Y-82119407D01*
X182139007Y-82090793D01*
X182017743Y-82080167D01*
X181903023Y-82088390D01*
X181820171Y-82109992D01*
X181761532Y-82141716D01*
X181714617Y-82188720D01*
X181673496Y-82259023D01*
X181639289Y-82359581D01*
X181398831Y-82326852D01*
X181426873Y-82225062D01*
X181463102Y-82141961D01*
X181506665Y-82074672D01*
X181562079Y-82017404D01*
X181633537Y-81968082D01*
X181723919Y-81926905D01*
X181872879Y-81888691D01*
X182053280Y-81875003D01*
X182229628Y-81887164D01*
G37*
G36*
X182995081Y-83360000D02*
G01*
X182995081Y-81906266D01*
X183216487Y-81906266D01*
X183216487Y-82111919D01*
X183286719Y-82026017D01*
X183366424Y-81960735D01*
X183456739Y-81913965D01*
X183559730Y-81885083D01*
X183678228Y-81875003D01*
X183805431Y-81887086D01*
X183919296Y-81922264D01*
X184017986Y-81978671D01*
X184083915Y-82045973D01*
X184129779Y-82128221D01*
X184160485Y-82227812D01*
X184169951Y-82308989D01*
X184174163Y-82467048D01*
X184174163Y-83360000D01*
X183928210Y-83360000D01*
X183928210Y-82475108D01*
X183919787Y-82334152D01*
X183899512Y-82249794D01*
X183860224Y-82183134D01*
X183797785Y-82130603D01*
X183719819Y-82097559D01*
X183626326Y-82086029D01*
X183525310Y-82097383D01*
X183435821Y-82130535D01*
X183355095Y-82186046D01*
X183310066Y-82239305D01*
X183274502Y-82315405D01*
X183250233Y-82421239D01*
X183241033Y-82565478D01*
X183241033Y-83360000D01*
X182995081Y-83360000D01*
G37*
G36*
X185497226Y-82828527D02*
G01*
X185739027Y-82859912D01*
X185710170Y-82982012D01*
X185666480Y-83086118D01*
X185608612Y-83174908D01*
X185536183Y-83250334D01*
X185450854Y-83311433D01*
X185356790Y-83355154D01*
X185252318Y-83381984D01*
X185135259Y-83391263D01*
X184989239Y-83378287D01*
X184863051Y-83341145D01*
X184752955Y-83280935D01*
X184656298Y-83196601D01*
X184580678Y-83094859D01*
X184524349Y-82971152D01*
X184488271Y-82820973D01*
X184475314Y-82638628D01*
X184484574Y-82483492D01*
X184510994Y-82347320D01*
X184553106Y-82227445D01*
X184615020Y-82118439D01*
X184693596Y-82031217D01*
X184790143Y-81963175D01*
X184899157Y-81914280D01*
X185014083Y-81884935D01*
X185136602Y-81875003D01*
X185254337Y-81883259D01*
X185356426Y-81906767D01*
X185445354Y-81944318D01*
X185523116Y-81995659D01*
X185590140Y-82060678D01*
X185644483Y-82138173D01*
X185686552Y-82229906D01*
X185715824Y-82338332D01*
X185476710Y-82375212D01*
X185446343Y-82281235D01*
X185405801Y-82208932D01*
X185355810Y-82154295D01*
X185294508Y-82113380D01*
X185225362Y-82088691D01*
X185146127Y-82080167D01*
X185055775Y-82088813D01*
X184976740Y-82113752D01*
X184906742Y-82154640D01*
X184844243Y-82212669D01*
X184797339Y-82281026D01*
X184761045Y-82370153D01*
X184736981Y-82485055D01*
X184728106Y-82631789D01*
X184736760Y-82781171D01*
X184760132Y-82897312D01*
X184795165Y-82986593D01*
X184840091Y-83054330D01*
X184900595Y-83112160D01*
X184968364Y-83152790D01*
X185044894Y-83177528D01*
X185132450Y-83186099D01*
X185225617Y-83175913D01*
X185305223Y-83146642D01*
X185374250Y-83098415D01*
X185428362Y-83033777D01*
X185469901Y-82945897D01*
X185497226Y-82828527D01*
G37*
G36*
X186687258Y-81888003D02*
G01*
X186811757Y-81925464D01*
X186922065Y-81986678D01*
X187020569Y-82073084D01*
X187098091Y-82176673D01*
X187155488Y-82301069D01*
X187192033Y-82450436D01*
X187205095Y-82630080D01*
X187203629Y-82695659D01*
X186121633Y-82695659D01*
X186136620Y-82814665D01*
X186165015Y-82912821D01*
X186205257Y-82993616D01*
X186256822Y-83059825D01*
X186344575Y-83129970D01*
X186444388Y-83171724D01*
X186560171Y-83186099D01*
X186648059Y-83177876D01*
X186724270Y-83154262D01*
X186791103Y-83115757D01*
X186847560Y-83062886D01*
X186898265Y-82989522D01*
X186942778Y-82891053D01*
X187196912Y-82922438D01*
X187143824Y-83063075D01*
X187069698Y-83176967D01*
X186974163Y-83268286D01*
X186890432Y-83320491D01*
X186794761Y-83358801D01*
X186685073Y-83382824D01*
X186558828Y-83391263D01*
X186401895Y-83377960D01*
X186268081Y-83340157D01*
X186153139Y-83279447D01*
X186053978Y-83195258D01*
X185975418Y-83092431D01*
X185917447Y-82969403D01*
X185880634Y-82822143D01*
X185867499Y-82645467D01*
X185878785Y-82490495D01*
X186135311Y-82490495D01*
X186945464Y-82490495D01*
X186925919Y-82372548D01*
X186894181Y-82284583D01*
X186852530Y-82220118D01*
X186788936Y-82158505D01*
X186718102Y-82115378D01*
X186638513Y-82089211D01*
X186547837Y-82080167D01*
X186439444Y-82092947D01*
X186345667Y-82130007D01*
X186263050Y-82191908D01*
X186198725Y-82272750D01*
X186155978Y-82370831D01*
X186135311Y-82490495D01*
X185878785Y-82490495D01*
X185880837Y-82462313D01*
X185918167Y-82309960D01*
X185976815Y-82183012D01*
X186056054Y-82077236D01*
X186156733Y-81989178D01*
X186269955Y-81926665D01*
X186398233Y-81888329D01*
X186545150Y-81875003D01*
X186687258Y-81888003D01*
G37*
G36*
X242764758Y-36481677D02*
G01*
X235566255Y-36481677D01*
X235566255Y-33821462D01*
X235844033Y-33821462D01*
X235851896Y-33867456D01*
X235876395Y-33912137D01*
X236778872Y-35104959D01*
X236778872Y-36036440D01*
X236785089Y-36079522D01*
X236802686Y-36113224D01*
X236853789Y-36155108D01*
X236925724Y-36169705D01*
X236984498Y-36160027D01*
X237030901Y-36132152D01*
X237062189Y-36089557D01*
X237072727Y-36036440D01*
X237072727Y-35104959D01*
X237919508Y-33985563D01*
X238414078Y-33985563D01*
X238414078Y-35855242D01*
X238427174Y-35964920D01*
X238462311Y-36042907D01*
X238517494Y-36097637D01*
X238596524Y-36132651D01*
X238708086Y-36145738D01*
X240135075Y-36145738D01*
X240176562Y-36139923D01*
X240208500Y-36123604D01*
X240245295Y-36077046D01*
X240258112Y-36012473D01*
X240246517Y-35948888D01*
X240213690Y-35903022D01*
X240178188Y-35882672D01*
X240135075Y-35875697D01*
X238784870Y-35875697D01*
X238747086Y-35867890D01*
X238726121Y-35846925D01*
X238718313Y-35809141D01*
X238718313Y-35720145D01*
X240591809Y-35720145D01*
X240604658Y-35776394D01*
X240650406Y-35847163D01*
X240745529Y-35938895D01*
X240913449Y-36053067D01*
X241100285Y-36135398D01*
X241309482Y-36186241D01*
X241545424Y-36203899D01*
X241743625Y-36192602D01*
X241913920Y-36160699D01*
X242060320Y-36110466D01*
X242186256Y-36043156D01*
X242296264Y-35956881D01*
X242379210Y-35859824D01*
X242438193Y-35750773D01*
X242474395Y-35627334D01*
X242486980Y-35486130D01*
X242474238Y-35352032D01*
X242437504Y-35234820D01*
X242377327Y-35131101D01*
X242291998Y-35038580D01*
X242177708Y-34956276D01*
X241969761Y-34858006D01*
X241600074Y-34735846D01*
X241252073Y-34620037D01*
X241095865Y-34542742D01*
X241006622Y-34464080D01*
X240956914Y-34378714D01*
X240940465Y-34282929D01*
X240954842Y-34181841D01*
X240996491Y-34097514D01*
X241067348Y-34025669D01*
X241174480Y-33965108D01*
X241321372Y-33921189D01*
X241506040Y-33905268D01*
X241664183Y-33920400D01*
X241809300Y-33964919D01*
X241944445Y-34039290D01*
X242071768Y-34146305D01*
X242120371Y-34179761D01*
X242176029Y-34190727D01*
X242240225Y-34177851D01*
X242292197Y-34139436D01*
X242321807Y-34093077D01*
X242331581Y-34040212D01*
X242320927Y-33990221D01*
X242284633Y-33932797D01*
X242211902Y-33864205D01*
X242064041Y-33767428D01*
X241898742Y-33697316D01*
X241712914Y-33653863D01*
X241502682Y-33638738D01*
X241303831Y-33652807D01*
X241132133Y-33692796D01*
X240983208Y-33756585D01*
X240857179Y-33840250D01*
X240764189Y-33933771D01*
X240699311Y-34037883D01*
X240660027Y-34154826D01*
X240646458Y-34288119D01*
X240662458Y-34430659D01*
X240708280Y-34551011D01*
X240783709Y-34654124D01*
X240892533Y-34742716D01*
X241028835Y-34818666D01*
X241207759Y-34896344D01*
X241437652Y-34975052D01*
X241819368Y-35103696D01*
X242003380Y-35185253D01*
X242086913Y-35244625D01*
X242143736Y-35313719D01*
X242177791Y-35394156D01*
X242189615Y-35489488D01*
X242176093Y-35595651D01*
X242136827Y-35686716D01*
X242070695Y-35766437D01*
X241972697Y-35836466D01*
X241857268Y-35886751D01*
X241718728Y-35918859D01*
X241552294Y-35930347D01*
X241360540Y-35912190D01*
X241183029Y-35858600D01*
X241023103Y-35775562D01*
X240902760Y-35679234D01*
X240801728Y-35598766D01*
X240733622Y-35578332D01*
X240670623Y-35592084D01*
X240622492Y-35632981D01*
X240599276Y-35675887D01*
X240591809Y-35720145D01*
X238718313Y-35720145D01*
X238718313Y-34997339D01*
X239953877Y-34997339D01*
X240018589Y-34982807D01*
X240055772Y-34942541D01*
X240070045Y-34867432D01*
X240054689Y-34796173D01*
X240012037Y-34752943D01*
X239953877Y-34737526D01*
X238718313Y-34737526D01*
X238718313Y-34031664D01*
X238726121Y-33993880D01*
X238747086Y-33972915D01*
X238784870Y-33965108D01*
X240083784Y-33965108D01*
X240123800Y-33959313D01*
X240155530Y-33942821D01*
X240192370Y-33894993D01*
X240205142Y-33830011D01*
X240193075Y-33766918D01*
X240158888Y-33722391D01*
X240125145Y-33702035D01*
X240083784Y-33695067D01*
X238708086Y-33695067D01*
X238596524Y-33708154D01*
X238517494Y-33743168D01*
X238462311Y-33797898D01*
X238427174Y-33875885D01*
X238414078Y-33985563D01*
X237919508Y-33985563D01*
X237975052Y-33912137D01*
X237999670Y-33867446D01*
X238007567Y-33821462D01*
X237999281Y-33769876D01*
X237975370Y-33728613D01*
X237934141Y-33695067D01*
X237890354Y-33675650D01*
X237846977Y-33669421D01*
X237779444Y-33686047D01*
X237723940Y-33737809D01*
X236925724Y-34853694D01*
X236127660Y-33737809D01*
X236072156Y-33686047D01*
X236004623Y-33669421D01*
X235958285Y-33676484D01*
X235912421Y-33698425D01*
X235861110Y-33750592D01*
X235844033Y-33821462D01*
X235566255Y-33821462D01*
X235566255Y-33360960D01*
X242764758Y-33360960D01*
X242764758Y-36481677D01*
G37*
G36*
X221282315Y-78667934D02*
G01*
X221282315Y-78253246D01*
X221289679Y-78205326D01*
X221037314Y-78289695D01*
X220823333Y-78349307D01*
X220762993Y-78359089D01*
X220720958Y-78351185D01*
X220698519Y-78330669D01*
X220690453Y-78295122D01*
X220697027Y-78265687D01*
X220716282Y-78244673D01*
X220812233Y-78211481D01*
X221007535Y-78146132D01*
X221203460Y-78066341D01*
X221400357Y-77971549D01*
X221521827Y-77904363D01*
X221610833Y-77847241D01*
X221660273Y-77818942D01*
X221693265Y-77811521D01*
X221734219Y-77820956D01*
X221771961Y-77850978D01*
X221787661Y-77878824D01*
X221792953Y-77911209D01*
X221786694Y-77942368D01*
X221767082Y-77971471D01*
X221730195Y-77999795D01*
X221589055Y-78076070D01*
X221413986Y-78157295D01*
X221447028Y-78176883D01*
X221466885Y-78207512D01*
X221474216Y-78253246D01*
X221474216Y-78655624D01*
X221528402Y-78651997D01*
X222202695Y-78617486D01*
X222262077Y-78624473D01*
X222298152Y-78642076D01*
X222318488Y-78668402D01*
X222325683Y-78706072D01*
X222318104Y-78748822D01*
X222297333Y-78777130D01*
X222261716Y-78794659D01*
X222175547Y-78800814D01*
X221474216Y-78832798D01*
X221459763Y-79027844D01*
X221428657Y-79198421D01*
X221382607Y-79347532D01*
X221322743Y-79477833D01*
X221249571Y-79591574D01*
X221162953Y-79690530D01*
X221053135Y-79785774D01*
X220977000Y-79830073D01*
X220924230Y-79841875D01*
X220899874Y-79836595D01*
X220881146Y-79820882D01*
X220869986Y-79801505D01*
X220866418Y-79781535D01*
X220876505Y-79748649D01*
X220914338Y-79706467D01*
X221020408Y-79603414D01*
X221107374Y-79490014D01*
X221176455Y-79365295D01*
X221228129Y-79227812D01*
X221264837Y-79055648D01*
X221282315Y-78845108D01*
X220835022Y-78880213D01*
X220505806Y-78918967D01*
X220467667Y-78922704D01*
X220411018Y-78912357D01*
X220381131Y-78885774D01*
X220370507Y-78840272D01*
X220380683Y-78792250D01*
X220409312Y-78761357D01*
X220461512Y-78744211D01*
X220780639Y-78709552D01*
X221282315Y-78667934D01*
G37*
G36*
X224391209Y-78648260D02*
G01*
X224452680Y-78655647D01*
X224490230Y-78674334D01*
X224511555Y-78702476D01*
X224519143Y-78743002D01*
X224512668Y-78784508D01*
X224495174Y-78812402D01*
X224466277Y-78830380D01*
X224321086Y-78841481D01*
X223711657Y-78865312D01*
X222815000Y-78914021D01*
X222801481Y-78914021D01*
X222764495Y-78908371D01*
X222733777Y-78891929D01*
X222710067Y-78861477D01*
X222701793Y-78819279D01*
X222711257Y-78773022D01*
X222737747Y-78742992D01*
X222785434Y-78725746D01*
X222909741Y-78717173D01*
X223624591Y-78680244D01*
X224164795Y-78658152D01*
X224391209Y-78648260D01*
G37*
G36*
X219885917Y-80943891D02*
G01*
X219925725Y-80952117D01*
X219947813Y-80974205D01*
X219956039Y-81014013D01*
X219950048Y-81040942D01*
X219930211Y-81069298D01*
X219866243Y-81129638D01*
X219789697Y-81212536D01*
X219714566Y-81317975D01*
X219641039Y-81449584D01*
X219572847Y-81610507D01*
X219523724Y-81780335D01*
X219493752Y-81960379D01*
X219483539Y-82152124D01*
X219496887Y-82365527D01*
X219536346Y-82568355D01*
X219601692Y-82762450D01*
X219668094Y-82902223D01*
X219742051Y-83022369D01*
X219823258Y-83124945D01*
X219911746Y-83211650D01*
X219946505Y-83251465D01*
X219956039Y-83284190D01*
X219952438Y-83306725D01*
X219941311Y-83328483D01*
X219917904Y-83347698D01*
X219885917Y-83354312D01*
X219850960Y-83345199D01*
X219795402Y-83309040D01*
X219708743Y-83227586D01*
X219609913Y-83108819D01*
X219520002Y-82970507D01*
X219439246Y-82810481D01*
X219374814Y-82642608D01*
X219329670Y-82476683D01*
X219302922Y-82311870D01*
X219294056Y-82147288D01*
X219304952Y-81964882D01*
X219337782Y-81783242D01*
X219393202Y-81601182D01*
X219472439Y-81417600D01*
X219550313Y-81277943D01*
X219633780Y-81158443D01*
X219722651Y-81057073D01*
X219817004Y-80972138D01*
X219852567Y-80950496D01*
X219885917Y-80943891D01*
G37*
G36*
X221106240Y-80943891D02*
G01*
X221236890Y-80952709D01*
X221359321Y-80978650D01*
X221474933Y-81021467D01*
X221584895Y-81081608D01*
X221683873Y-81156960D01*
X221748550Y-81230535D01*
X221775626Y-81280369D01*
X221783061Y-81316704D01*
X221774908Y-81353784D01*
X221748550Y-81390453D01*
X221712544Y-81414665D01*
X221672273Y-81422546D01*
X221637139Y-81415728D01*
X221608306Y-81395399D01*
X221576322Y-81354842D01*
X221503726Y-81276864D01*
X221422306Y-81217103D01*
X221330887Y-81174074D01*
X221227595Y-81147474D01*
X221109977Y-81138211D01*
X221002501Y-81147623D01*
X220905507Y-81175044D01*
X220816932Y-81220242D01*
X220735270Y-81284307D01*
X220659679Y-81369570D01*
X220594751Y-81473701D01*
X220547658Y-81589625D01*
X220518477Y-81719380D01*
X220508333Y-81865481D01*
X220516138Y-81991591D01*
X220538787Y-82106447D01*
X220575571Y-82211614D01*
X220626376Y-82308415D01*
X220706051Y-82413879D01*
X220794625Y-82492707D01*
X220893030Y-82548280D01*
X221003311Y-82582139D01*
X221128442Y-82593849D01*
X221253110Y-82582757D01*
X221362436Y-82550811D01*
X221459335Y-82498704D01*
X221545885Y-82425373D01*
X221623143Y-82328089D01*
X221657701Y-82294962D01*
X221705575Y-82283795D01*
X221747520Y-82291593D01*
X221786798Y-82315779D01*
X221814574Y-82351511D01*
X221823618Y-82393375D01*
X221809981Y-82447370D01*
X221757233Y-82528673D01*
X221665776Y-82620896D01*
X221559727Y-82692950D01*
X221436982Y-82745831D01*
X221294490Y-82779079D01*
X221128442Y-82790807D01*
X220978821Y-82779768D01*
X220844379Y-82747810D01*
X220722643Y-82695800D01*
X220611648Y-82623415D01*
X220513542Y-82532993D01*
X220433450Y-82430489D01*
X220370248Y-82314639D01*
X220323716Y-82183550D01*
X220294552Y-82034790D01*
X220284338Y-81865481D01*
X220293290Y-81715238D01*
X220319242Y-81578539D01*
X220361310Y-81453570D01*
X220419256Y-81338784D01*
X220493496Y-81232953D01*
X220595128Y-81127577D01*
X220705596Y-81047577D01*
X220826150Y-80990634D01*
X220958812Y-80955866D01*
X221106240Y-80943891D01*
G37*
G36*
X222418887Y-81924502D02*
G01*
X222418887Y-82670236D01*
X222413026Y-82703493D01*
X222395586Y-82731676D01*
X222359841Y-82757196D01*
X222310626Y-82766187D01*
X222255722Y-82754757D01*
X222217093Y-82721894D01*
X222206216Y-82699067D01*
X222202365Y-82670236D01*
X222202365Y-81064462D01*
X222206182Y-81035351D01*
X222217093Y-81011486D01*
X222255023Y-80977772D01*
X222310626Y-80965983D01*
X222365996Y-80977813D01*
X222402950Y-81011486D01*
X222414782Y-81035435D01*
X222418887Y-81064462D01*
X222418887Y-81732600D01*
X223416863Y-81732600D01*
X223416863Y-81064462D01*
X223420679Y-81035351D01*
X223431591Y-81011486D01*
X223469521Y-80977772D01*
X223525123Y-80965983D01*
X223580493Y-80977813D01*
X223617447Y-81011486D01*
X223629280Y-81035435D01*
X223633384Y-81064462D01*
X223633384Y-82670236D01*
X223627499Y-82703485D01*
X223609973Y-82731676D01*
X223574243Y-82757201D01*
X223525123Y-82766187D01*
X223470220Y-82754757D01*
X223431591Y-82721894D01*
X223420713Y-82699067D01*
X223416863Y-82670236D01*
X223416863Y-81924502D01*
X222418887Y-81924502D01*
G37*
G36*
X224254372Y-81164150D02*
G01*
X224057414Y-81164150D01*
X224013053Y-81154043D01*
X223987406Y-81125880D01*
X223977510Y-81073035D01*
X223987293Y-81021887D01*
X224012837Y-80994394D01*
X224057414Y-80984448D01*
X224667740Y-80984448D01*
X224712389Y-80994400D01*
X224737964Y-81021898D01*
X224747754Y-81073035D01*
X224739693Y-81116384D01*
X224716980Y-81146894D01*
X224695217Y-81159700D01*
X224667740Y-81164150D01*
X224470893Y-81164150D01*
X224470893Y-82570549D01*
X224667740Y-82570549D01*
X224712389Y-82580501D01*
X224737964Y-82607999D01*
X224747754Y-82659136D01*
X224739655Y-82702171D01*
X224716980Y-82731676D01*
X224695217Y-82744482D01*
X224667740Y-82748931D01*
X224057414Y-82748931D01*
X224012941Y-82738908D01*
X223987347Y-82711095D01*
X223977510Y-82659136D01*
X223987293Y-82607988D01*
X224012837Y-82580495D01*
X224057414Y-82570549D01*
X224254372Y-82570549D01*
X224254372Y-81164150D01*
G37*
G36*
X225114302Y-80943891D02*
G01*
X225147801Y-80952892D01*
X225202687Y-80989163D01*
X225290266Y-81071826D01*
X225389037Y-81189853D01*
X225478951Y-81327738D01*
X225559764Y-81487722D01*
X225624853Y-81656341D01*
X225670358Y-81822298D01*
X225697262Y-81986453D01*
X225706163Y-82149706D01*
X225696912Y-82315810D01*
X225668922Y-82483130D01*
X225621519Y-82652624D01*
X225553609Y-82825209D01*
X225475687Y-82976941D01*
X225390336Y-83107590D01*
X225297813Y-83219275D01*
X225198053Y-83313755D01*
X225148751Y-83345604D01*
X225111884Y-83354312D01*
X225082714Y-83348675D01*
X225060226Y-83332220D01*
X225047279Y-83309701D01*
X225042971Y-83284190D01*
X225049198Y-83257331D01*
X225070008Y-83228795D01*
X225132766Y-83168565D01*
X225209313Y-83085667D01*
X225284444Y-82980228D01*
X225357971Y-82848619D01*
X225426775Y-82687595D01*
X225476264Y-82518122D01*
X225506417Y-82338909D01*
X225516680Y-82148497D01*
X225504988Y-81946173D01*
X225470657Y-81756397D01*
X225414284Y-81577417D01*
X225335769Y-81407709D01*
X225262232Y-81287793D01*
X225176702Y-81178109D01*
X225078691Y-81077981D01*
X225050956Y-81044258D01*
X225042971Y-81014013D01*
X225046572Y-80991478D01*
X225057698Y-80969720D01*
X225081201Y-80950572D01*
X225114302Y-80943891D01*
G37*
G36*
X233592063Y-78051453D02*
G01*
X233592063Y-78847636D01*
X233585376Y-78895499D01*
X233567911Y-78925958D01*
X233540226Y-78944204D01*
X233498531Y-78950950D01*
X233456835Y-78944204D01*
X233429151Y-78925958D01*
X233411685Y-78895499D01*
X233404998Y-78847636D01*
X233404998Y-78051453D01*
X233411685Y-78003589D01*
X233429151Y-77973130D01*
X233456835Y-77954885D01*
X233498531Y-77948138D01*
X233540226Y-77954885D01*
X233567911Y-77973130D01*
X233585376Y-78003589D01*
X233592063Y-78051453D01*
G37*
G36*
X234448477Y-77934619D02*
G01*
X234448477Y-78665516D01*
X234437839Y-78893892D01*
X234407643Y-79093570D01*
X234360008Y-79268067D01*
X234296402Y-79420519D01*
X234217586Y-79553621D01*
X234123585Y-79669537D01*
X234004952Y-79782741D01*
X233928991Y-79832888D01*
X233881235Y-79845502D01*
X233855229Y-79841014D01*
X233835732Y-79828246D01*
X233821776Y-79807075D01*
X233817268Y-79783953D01*
X233825859Y-79748705D01*
X233855406Y-79708995D01*
X233983130Y-79568997D01*
X234078452Y-79436072D01*
X234145786Y-79309035D01*
X234194138Y-79178089D01*
X234230382Y-79029218D01*
X234253339Y-78860041D01*
X234261411Y-78667934D01*
X234261411Y-77934619D01*
X234272196Y-77883989D01*
X234301486Y-77855538D01*
X234354944Y-77844823D01*
X234408401Y-77855538D01*
X234437691Y-77883989D01*
X234448477Y-77934619D01*
G37*
G36*
X236755472Y-78648260D02*
G01*
X236816944Y-78655647D01*
X236854493Y-78674334D01*
X236875819Y-78702476D01*
X236883407Y-78743002D01*
X236876932Y-78784508D01*
X236859437Y-78812402D01*
X236830540Y-78830380D01*
X236685350Y-78841481D01*
X236075921Y-78865312D01*
X235179263Y-78914021D01*
X235165745Y-78914021D01*
X235128759Y-78908371D01*
X235098040Y-78891929D01*
X235074331Y-78861477D01*
X235066057Y-78819279D01*
X235075521Y-78773022D01*
X235102011Y-78742992D01*
X235149698Y-78725746D01*
X235274005Y-78717173D01*
X235988855Y-78680244D01*
X236529059Y-78658152D01*
X236755472Y-78648260D01*
G37*
G36*
X238257493Y-78667934D02*
G01*
X238257493Y-78253246D01*
X238264857Y-78205326D01*
X238012492Y-78289695D01*
X237798511Y-78349307D01*
X237738171Y-78359089D01*
X237696136Y-78351185D01*
X237673697Y-78330669D01*
X237665631Y-78295122D01*
X237672205Y-78265687D01*
X237691460Y-78244673D01*
X237787411Y-78211481D01*
X237982713Y-78146132D01*
X238178638Y-78066341D01*
X238375535Y-77971549D01*
X238497005Y-77904363D01*
X238586011Y-77847241D01*
X238635451Y-77818942D01*
X238668443Y-77811521D01*
X238709397Y-77820956D01*
X238747138Y-77850978D01*
X238762839Y-77878824D01*
X238768131Y-77911209D01*
X238761872Y-77942368D01*
X238742260Y-77971471D01*
X238705373Y-77999795D01*
X238564233Y-78076070D01*
X238389164Y-78157295D01*
X238422206Y-78176883D01*
X238442063Y-78207512D01*
X238449394Y-78253246D01*
X238449394Y-78655624D01*
X238503580Y-78651997D01*
X239177873Y-78617486D01*
X239237255Y-78624473D01*
X239273330Y-78642076D01*
X239293666Y-78668402D01*
X239300861Y-78706072D01*
X239293282Y-78748822D01*
X239272511Y-78777130D01*
X239236894Y-78794659D01*
X239150725Y-78800814D01*
X238449394Y-78832798D01*
X238434941Y-79027844D01*
X238403835Y-79198421D01*
X238357785Y-79347532D01*
X238297921Y-79477833D01*
X238224749Y-79591574D01*
X238138131Y-79690530D01*
X238028313Y-79785774D01*
X237952178Y-79830073D01*
X237899408Y-79841875D01*
X237875052Y-79836595D01*
X237856324Y-79820882D01*
X237845164Y-79801505D01*
X237841596Y-79781535D01*
X237851683Y-79748649D01*
X237889516Y-79706467D01*
X237995586Y-79603414D01*
X238082552Y-79490014D01*
X238151633Y-79365295D01*
X238203307Y-79227812D01*
X238240015Y-79055648D01*
X238257493Y-78845108D01*
X237810200Y-78880213D01*
X237480984Y-78918967D01*
X237442845Y-78922704D01*
X237386196Y-78912357D01*
X237356309Y-78885774D01*
X237345685Y-78840272D01*
X237355861Y-78792250D01*
X237384490Y-78761357D01*
X237436690Y-78744211D01*
X237755817Y-78709552D01*
X238257493Y-78667934D01*
G37*
G36*
X231585450Y-80943891D02*
G01*
X231625258Y-80952117D01*
X231647346Y-80974205D01*
X231655572Y-81014013D01*
X231649581Y-81040942D01*
X231629744Y-81069298D01*
X231565776Y-81129638D01*
X231489230Y-81212536D01*
X231414099Y-81317975D01*
X231340572Y-81449584D01*
X231272380Y-81610507D01*
X231223257Y-81780335D01*
X231193285Y-81960379D01*
X231183072Y-82152124D01*
X231196420Y-82365527D01*
X231235879Y-82568355D01*
X231301225Y-82762450D01*
X231367627Y-82902223D01*
X231441584Y-83022369D01*
X231522791Y-83124945D01*
X231611279Y-83211650D01*
X231646038Y-83251465D01*
X231655572Y-83284190D01*
X231651971Y-83306725D01*
X231640844Y-83328483D01*
X231617437Y-83347698D01*
X231585450Y-83354312D01*
X231550493Y-83345199D01*
X231494935Y-83309040D01*
X231408276Y-83227586D01*
X231309446Y-83108819D01*
X231219535Y-82970507D01*
X231138779Y-82810481D01*
X231074347Y-82642608D01*
X231029203Y-82476683D01*
X231002455Y-82311870D01*
X230993589Y-82147288D01*
X231004485Y-81964882D01*
X231037315Y-81783242D01*
X231092735Y-81601182D01*
X231171972Y-81417600D01*
X231249846Y-81277943D01*
X231333313Y-81158443D01*
X231422184Y-81057073D01*
X231516537Y-80972138D01*
X231552100Y-80950496D01*
X231585450Y-80943891D01*
G37*
G36*
X232951862Y-80995132D02*
G01*
X233084865Y-81024154D01*
X233188477Y-81068089D01*
X233260773Y-81119178D01*
X233321357Y-81187450D01*
X233367932Y-81270283D01*
X233395699Y-81358689D01*
X233405108Y-81454530D01*
X233395114Y-81563681D01*
X233366950Y-81654402D01*
X233321878Y-81730373D01*
X233259140Y-81794100D01*
X233176051Y-81846648D01*
X233068260Y-81887519D01*
X232930080Y-81914720D01*
X233449402Y-82585277D01*
X233469663Y-82622183D01*
X233476439Y-82664081D01*
X233465037Y-82711775D01*
X233430937Y-82746513D01*
X233396363Y-82761286D01*
X233359496Y-82766187D01*
X233319592Y-82760216D01*
X233286547Y-82742890D01*
X233258599Y-82713211D01*
X232701249Y-81927030D01*
X232275461Y-81927030D01*
X232275461Y-82670236D01*
X232268237Y-82708402D01*
X232247214Y-82737831D01*
X232210805Y-82758925D01*
X232165991Y-82766187D01*
X232111316Y-82754716D01*
X232073667Y-82721894D01*
X232062790Y-82699067D01*
X232058939Y-82670236D01*
X232058939Y-81229326D01*
X232275461Y-81229326D01*
X232275461Y-81735018D01*
X232804564Y-81735018D01*
X232915451Y-81726802D01*
X233002921Y-81704333D01*
X233071644Y-81669842D01*
X233120447Y-81628466D01*
X233154825Y-81578987D01*
X233176038Y-81519835D01*
X233183531Y-81448375D01*
X233174438Y-81374230D01*
X233148669Y-81314064D01*
X233106288Y-81264604D01*
X233044496Y-81224380D01*
X232981332Y-81200353D01*
X232902470Y-81184614D01*
X232804564Y-81178877D01*
X232325909Y-81178877D01*
X232297270Y-81184795D01*
X232281379Y-81200686D01*
X232275461Y-81229326D01*
X232058939Y-81229326D01*
X232058939Y-81193605D01*
X232068309Y-81114438D01*
X232093412Y-81058252D01*
X232132744Y-81018921D01*
X232188930Y-80993817D01*
X232268097Y-80984448D01*
X232782472Y-80984448D01*
X232951862Y-80995132D01*
G37*
G36*
X233990815Y-81922084D02*
G01*
X233990815Y-82506581D01*
X233996436Y-82533786D01*
X234011531Y-82548881D01*
X234038735Y-82554502D01*
X235010883Y-82554502D01*
X235041925Y-82559523D01*
X235067486Y-82574176D01*
X235091122Y-82607199D01*
X235099470Y-82652981D01*
X235090242Y-82699473D01*
X235063749Y-82732995D01*
X235040754Y-82744745D01*
X235010883Y-82748931D01*
X233983451Y-82748931D01*
X233903126Y-82739509D01*
X233846225Y-82714299D01*
X233806493Y-82674893D01*
X233781194Y-82618743D01*
X233771766Y-82539774D01*
X233771766Y-81193605D01*
X233781194Y-81114637D01*
X233806493Y-81058486D01*
X233846225Y-81019081D01*
X233903126Y-80993871D01*
X233983451Y-80984448D01*
X234973953Y-80984448D01*
X235003733Y-80989465D01*
X235028029Y-81004122D01*
X235052643Y-81036181D01*
X235061331Y-81081608D01*
X235052136Y-81128395D01*
X235025611Y-81162831D01*
X235002765Y-81174705D01*
X234973953Y-81178877D01*
X234038735Y-81178877D01*
X234011531Y-81184499D01*
X233996436Y-81199594D01*
X233990815Y-81226798D01*
X233990815Y-81735018D01*
X234880421Y-81735018D01*
X234922296Y-81746119D01*
X234953005Y-81777244D01*
X234964062Y-81828551D01*
X234953785Y-81882630D01*
X234927013Y-81911621D01*
X234880421Y-81922084D01*
X233990815Y-81922084D01*
G37*
G36*
X236124722Y-80978339D02*
G01*
X236175344Y-81014734D01*
X236215818Y-81080399D01*
X236858128Y-82609896D01*
X236869229Y-82661554D01*
X236862787Y-82701632D01*
X236844650Y-82731559D01*
X236813835Y-82753877D01*
X236786958Y-82763971D01*
X236757231Y-82767396D01*
X236713416Y-82759456D01*
X236679759Y-82736517D01*
X236653807Y-82696065D01*
X236439704Y-82181690D01*
X235679351Y-82181690D01*
X235465248Y-82696065D01*
X235439257Y-82737395D01*
X235405955Y-82760623D01*
X235363032Y-82768605D01*
X235333272Y-82764930D01*
X235305220Y-82753877D01*
X235274401Y-82730091D01*
X235256309Y-82699289D01*
X235249936Y-82659136D01*
X235260926Y-82609896D01*
X235520324Y-81992206D01*
X235746945Y-81992206D01*
X236372109Y-81992206D01*
X236059527Y-81178877D01*
X235746945Y-81992206D01*
X235520324Y-81992206D01*
X235903236Y-81080399D01*
X235943806Y-81014945D01*
X235995171Y-80978445D01*
X236060736Y-80965983D01*
X236124722Y-80978339D01*
G37*
G36*
X237914356Y-80943891D02*
G01*
X238045007Y-80952709D01*
X238167438Y-80978650D01*
X238283049Y-81021467D01*
X238393011Y-81081608D01*
X238491990Y-81156960D01*
X238556666Y-81230535D01*
X238583742Y-81280369D01*
X238591178Y-81316704D01*
X238583025Y-81353784D01*
X238556666Y-81390453D01*
X238520661Y-81414665D01*
X238480389Y-81422546D01*
X238445255Y-81415728D01*
X238416422Y-81395399D01*
X238384438Y-81354842D01*
X238311842Y-81276864D01*
X238230422Y-81217103D01*
X238139004Y-81174074D01*
X238035712Y-81147474D01*
X237918093Y-81138211D01*
X237810617Y-81147623D01*
X237713623Y-81175044D01*
X237625049Y-81220242D01*
X237543386Y-81284307D01*
X237467795Y-81369570D01*
X237402868Y-81473701D01*
X237355774Y-81589625D01*
X237326594Y-81719380D01*
X237316450Y-81865481D01*
X237324254Y-81991591D01*
X237346904Y-82106447D01*
X237383687Y-82211614D01*
X237434492Y-82308415D01*
X237514168Y-82413879D01*
X237602741Y-82492707D01*
X237701146Y-82548280D01*
X237811428Y-82582139D01*
X237936558Y-82593849D01*
X238061226Y-82582757D01*
X238170552Y-82550811D01*
X238267452Y-82498704D01*
X238354001Y-82425373D01*
X238431260Y-82328089D01*
X238465818Y-82294962D01*
X238513692Y-82283795D01*
X238555636Y-82291593D01*
X238594915Y-82315779D01*
X238622690Y-82351511D01*
X238631734Y-82393375D01*
X238618097Y-82447370D01*
X238565349Y-82528673D01*
X238473892Y-82620896D01*
X238367843Y-82692950D01*
X238245098Y-82745831D01*
X238102607Y-82779079D01*
X237936558Y-82790807D01*
X237786938Y-82779768D01*
X237652496Y-82747810D01*
X237530759Y-82695800D01*
X237419765Y-82623415D01*
X237321659Y-82532993D01*
X237241567Y-82430489D01*
X237178365Y-82314639D01*
X237131833Y-82183550D01*
X237102668Y-82034790D01*
X237092455Y-81865481D01*
X237101406Y-81715238D01*
X237127359Y-81578539D01*
X237169427Y-81453570D01*
X237227373Y-81338784D01*
X237301612Y-81232953D01*
X237403244Y-81127577D01*
X237513712Y-81047577D01*
X237634266Y-80990634D01*
X237766928Y-80955866D01*
X237914356Y-80943891D01*
G37*
G36*
X239227003Y-81924502D02*
G01*
X239227003Y-82670236D01*
X239221143Y-82703493D01*
X239203702Y-82731676D01*
X239167957Y-82757196D01*
X239118742Y-82766187D01*
X239063838Y-82754757D01*
X239025209Y-82721894D01*
X239014332Y-82699067D01*
X239010482Y-82670236D01*
X239010482Y-81064462D01*
X239014298Y-81035351D01*
X239025209Y-81011486D01*
X239063140Y-80977772D01*
X239118742Y-80965983D01*
X239174112Y-80977813D01*
X239211066Y-81011486D01*
X239222899Y-81035435D01*
X239227003Y-81064462D01*
X239227003Y-81732600D01*
X240224979Y-81732600D01*
X240224979Y-81064462D01*
X240228796Y-81035351D01*
X240239707Y-81011486D01*
X240277637Y-80977772D01*
X240333240Y-80965983D01*
X240388610Y-80977813D01*
X240425564Y-81011486D01*
X240437396Y-81035435D01*
X240441500Y-81064462D01*
X240441500Y-82670236D01*
X240435616Y-82703485D01*
X240418090Y-82731676D01*
X240382360Y-82757201D01*
X240333240Y-82766187D01*
X240278336Y-82754757D01*
X240239707Y-82721894D01*
X240228830Y-82699067D01*
X240224979Y-82670236D01*
X240224979Y-81924502D01*
X239227003Y-81924502D01*
G37*
G36*
X240914770Y-80943891D02*
G01*
X240948269Y-80952892D01*
X241003155Y-80989163D01*
X241090735Y-81071826D01*
X241189505Y-81189853D01*
X241279419Y-81327738D01*
X241360232Y-81487722D01*
X241425321Y-81656341D01*
X241470826Y-81822298D01*
X241497730Y-81986453D01*
X241506631Y-82149706D01*
X241497380Y-82315810D01*
X241469390Y-82483130D01*
X241421987Y-82652624D01*
X241354077Y-82825209D01*
X241276155Y-82976941D01*
X241190804Y-83107590D01*
X241098281Y-83219275D01*
X240998521Y-83313755D01*
X240949220Y-83345604D01*
X240912352Y-83354312D01*
X240883182Y-83348675D01*
X240860694Y-83332220D01*
X240847747Y-83309701D01*
X240843439Y-83284190D01*
X240849666Y-83257331D01*
X240870476Y-83228795D01*
X240933235Y-83168565D01*
X241009781Y-83085667D01*
X241084912Y-82980228D01*
X241158439Y-82848619D01*
X241227243Y-82687595D01*
X241276732Y-82518122D01*
X241306885Y-82338909D01*
X241317148Y-82148497D01*
X241305456Y-81946173D01*
X241271125Y-81756397D01*
X241214752Y-81577417D01*
X241136237Y-81407709D01*
X241062700Y-81287793D01*
X240977171Y-81178109D01*
X240879159Y-81077981D01*
X240851424Y-81044258D01*
X240843439Y-81014013D01*
X240847040Y-80991478D01*
X240858167Y-80969720D01*
X240881669Y-80950572D01*
X240914770Y-80943891D01*
G37*
G36*
X249668717Y-78188942D02*
G01*
X249724348Y-78222581D01*
X249759870Y-78274815D01*
X249772378Y-78345570D01*
X249752372Y-78529894D01*
X249641916Y-79195828D01*
X249630815Y-79256168D01*
X249678160Y-79274245D01*
X249704833Y-79305726D01*
X249714456Y-79354537D01*
X249707453Y-79392830D01*
X249687654Y-79420288D01*
X249653017Y-79439497D01*
X249539810Y-79445652D01*
X249064807Y-79454738D01*
X248464348Y-79485000D01*
X248450698Y-79538141D01*
X248419887Y-79567678D01*
X248367188Y-79578532D01*
X248330689Y-79572173D01*
X248304014Y-79554208D01*
X248284756Y-79523138D01*
X248267500Y-79404986D01*
X248207702Y-78895171D01*
X248142926Y-78439103D01*
X248336413Y-78439103D01*
X248444674Y-79313981D01*
X248794459Y-79291154D01*
X249373627Y-79263532D01*
X249445068Y-79261004D01*
X249511788Y-78851905D01*
X249555747Y-78528899D01*
X249569266Y-78399755D01*
X249563586Y-78377011D01*
X249547171Y-78363331D01*
X249515190Y-78357880D01*
X249312942Y-78365666D01*
X248780557Y-78402173D01*
X248336413Y-78439103D01*
X248142926Y-78439103D01*
X248132092Y-78362826D01*
X248127256Y-78322159D01*
X248134024Y-78283500D01*
X248153152Y-78255260D01*
X248186277Y-78234891D01*
X248231780Y-78225000D01*
X248273038Y-78235780D01*
X248300693Y-78268084D01*
X248385653Y-78261929D01*
X249406515Y-78187651D01*
X249593885Y-78176969D01*
X249668717Y-78188942D01*
G37*
G36*
X250366328Y-78093328D02*
G01*
X250415168Y-78103927D01*
X250549656Y-78156086D01*
X250693226Y-78224924D01*
X250810193Y-78294338D01*
X250904114Y-78364035D01*
X250941602Y-78409912D01*
X250953243Y-78458777D01*
X250948081Y-78491843D01*
X250932361Y-78522744D01*
X250900853Y-78550522D01*
X250861029Y-78559673D01*
X250816430Y-78548377D01*
X250752769Y-78505598D01*
X250575373Y-78372075D01*
X250344236Y-78227418D01*
X250302204Y-78193538D01*
X250291260Y-78164659D01*
X250299878Y-78124510D01*
X250323351Y-78101876D01*
X250366328Y-78093328D01*
G37*
G36*
X251946274Y-78493288D02*
G01*
X251971664Y-78497339D01*
X251992985Y-78509225D01*
X252012588Y-78535099D01*
X252018924Y-78564619D01*
X252011003Y-78598560D01*
X251978534Y-78658690D01*
X251904398Y-78759049D01*
X251751588Y-78930276D01*
X251580621Y-79090755D01*
X251390414Y-79240760D01*
X251179656Y-79380366D01*
X250959010Y-79501783D01*
X250734448Y-79602904D01*
X250505363Y-79684375D01*
X250408203Y-79706467D01*
X250368192Y-79700031D01*
X250338258Y-79681898D01*
X250315879Y-79651072D01*
X250304756Y-79623438D01*
X250301152Y-79595788D01*
X250313734Y-79548301D01*
X250352809Y-79512037D01*
X250509100Y-79462798D01*
X250697481Y-79399407D01*
X250887245Y-79317495D01*
X251078972Y-79216021D01*
X251273189Y-79093722D01*
X251443850Y-78967724D01*
X251597057Y-78835350D01*
X251733891Y-78696539D01*
X251855269Y-78551100D01*
X251902925Y-78506043D01*
X251946274Y-78493288D01*
G37*
G36*
X246984968Y-80943891D02*
G01*
X247024776Y-80952117D01*
X247046864Y-80974205D01*
X247055090Y-81014013D01*
X247049099Y-81040942D01*
X247029262Y-81069298D01*
X246965294Y-81129638D01*
X246888748Y-81212536D01*
X246813617Y-81317975D01*
X246740090Y-81449584D01*
X246671898Y-81610507D01*
X246622775Y-81780335D01*
X246592803Y-81960379D01*
X246582590Y-82152124D01*
X246595938Y-82365527D01*
X246635397Y-82568355D01*
X246700743Y-82762450D01*
X246767145Y-82902223D01*
X246841102Y-83022369D01*
X246922309Y-83124945D01*
X247010797Y-83211650D01*
X247045556Y-83251465D01*
X247055090Y-83284190D01*
X247051489Y-83306725D01*
X247040362Y-83328483D01*
X247016955Y-83347698D01*
X246984968Y-83354312D01*
X246950011Y-83345199D01*
X246894453Y-83309040D01*
X246807794Y-83227586D01*
X246708964Y-83108819D01*
X246619053Y-82970507D01*
X246538297Y-82810481D01*
X246473865Y-82642608D01*
X246428721Y-82476683D01*
X246401973Y-82311870D01*
X246393107Y-82147288D01*
X246404003Y-81964882D01*
X246436833Y-81783242D01*
X246492253Y-81601182D01*
X246571490Y-81417600D01*
X246649364Y-81277943D01*
X246732831Y-81158443D01*
X246821702Y-81057073D01*
X246916055Y-80972138D01*
X246951618Y-80950496D01*
X246984968Y-80943891D01*
G37*
G36*
X248351380Y-80995132D02*
G01*
X248484383Y-81024154D01*
X248587995Y-81068089D01*
X248660291Y-81119178D01*
X248720875Y-81187450D01*
X248767450Y-81270283D01*
X248795217Y-81358689D01*
X248804626Y-81454530D01*
X248794632Y-81563681D01*
X248766468Y-81654402D01*
X248721396Y-81730373D01*
X248658658Y-81794100D01*
X248575569Y-81846648D01*
X248467778Y-81887519D01*
X248329598Y-81914720D01*
X248848920Y-82585277D01*
X248869181Y-82622183D01*
X248875957Y-82664081D01*
X248864555Y-82711775D01*
X248830455Y-82746513D01*
X248795881Y-82761286D01*
X248759014Y-82766187D01*
X248719110Y-82760216D01*
X248686065Y-82742890D01*
X248658117Y-82713211D01*
X248100767Y-81927030D01*
X247674979Y-81927030D01*
X247674979Y-82670236D01*
X247667755Y-82708402D01*
X247646732Y-82737831D01*
X247610323Y-82758925D01*
X247565509Y-82766187D01*
X247510834Y-82754716D01*
X247473185Y-82721894D01*
X247462308Y-82699067D01*
X247458457Y-82670236D01*
X247458457Y-81229326D01*
X247674979Y-81229326D01*
X247674979Y-81735018D01*
X248204082Y-81735018D01*
X248314969Y-81726802D01*
X248402439Y-81704333D01*
X248471162Y-81669842D01*
X248519965Y-81628466D01*
X248554343Y-81578987D01*
X248575556Y-81519835D01*
X248583049Y-81448375D01*
X248573956Y-81374230D01*
X248548187Y-81314064D01*
X248505806Y-81264604D01*
X248444014Y-81224380D01*
X248380850Y-81200353D01*
X248301988Y-81184614D01*
X248204082Y-81178877D01*
X247725427Y-81178877D01*
X247696788Y-81184795D01*
X247680897Y-81200686D01*
X247674979Y-81229326D01*
X247458457Y-81229326D01*
X247458457Y-81193605D01*
X247467827Y-81114438D01*
X247492930Y-81058252D01*
X247532262Y-81018921D01*
X247588448Y-80993817D01*
X247667615Y-80984448D01*
X248181990Y-80984448D01*
X248351380Y-80995132D01*
G37*
G36*
X250038895Y-80952915D02*
G01*
X250152278Y-80979664D01*
X250260970Y-81024287D01*
X250366107Y-81087763D01*
X250473619Y-81180070D01*
X250564856Y-81292440D01*
X250640441Y-81427382D01*
X250692029Y-81564599D01*
X250723322Y-81710452D01*
X250733974Y-81866690D01*
X250721032Y-82040243D01*
X250683147Y-82200245D01*
X250620767Y-82349081D01*
X250551560Y-82462592D01*
X250469722Y-82559683D01*
X250374680Y-82641880D01*
X250270215Y-82706973D01*
X250159267Y-82753209D01*
X250040458Y-82781245D01*
X249912072Y-82790807D01*
X249773067Y-82779568D01*
X249646523Y-82746780D01*
X249530138Y-82692831D01*
X249422143Y-82616770D01*
X249321420Y-82516363D01*
X249241214Y-82407491D01*
X249178823Y-82289538D01*
X249133641Y-82161232D01*
X249105810Y-82020930D01*
X249096366Y-81869108D01*
X249322629Y-81869108D01*
X249330274Y-81992431D01*
X249352606Y-82106438D01*
X249389124Y-82212464D01*
X249451333Y-82330146D01*
X249529368Y-82427777D01*
X249616526Y-82501467D01*
X249709267Y-82552708D01*
X249809086Y-82583406D01*
X249918117Y-82593849D01*
X250025665Y-82583192D01*
X250124600Y-82551764D01*
X250217073Y-82499055D01*
X250304558Y-82422831D01*
X250376302Y-82334882D01*
X250432369Y-82237023D01*
X250473273Y-82127865D01*
X250498707Y-82005563D01*
X250507561Y-81867899D01*
X250495840Y-81711295D01*
X250462198Y-81573478D01*
X250407900Y-81451363D01*
X250332805Y-81342532D01*
X250239993Y-81251173D01*
X250140487Y-81188358D01*
X250032519Y-81150943D01*
X249913281Y-81138211D01*
X249796447Y-81150737D01*
X249690233Y-81187614D01*
X249591923Y-81249643D01*
X249499802Y-81340004D01*
X249423642Y-81449595D01*
X249368599Y-81572565D01*
X249334506Y-81711361D01*
X249322629Y-81869108D01*
X249096366Y-81869108D01*
X249096216Y-81866690D01*
X249109492Y-81688010D01*
X249147964Y-81527152D01*
X249210651Y-81381186D01*
X249298009Y-81247790D01*
X249401761Y-81136476D01*
X249514156Y-81052344D01*
X249636416Y-80992693D01*
X249770595Y-80956378D01*
X249919436Y-80943891D01*
X250038895Y-80952915D01*
G37*
G36*
X252330296Y-82388429D02*
G01*
X252330296Y-81059516D01*
X252337210Y-81023554D01*
X252357444Y-80995549D01*
X252392664Y-80974443D01*
X252436139Y-80967192D01*
X252489775Y-80978603D01*
X252527254Y-81011486D01*
X252538251Y-81033831D01*
X252541981Y-81059516D01*
X252541981Y-82581650D01*
X252531816Y-82669214D01*
X252506273Y-82722224D01*
X252468244Y-82751966D01*
X252414047Y-82762450D01*
X252361464Y-82752713D01*
X252313355Y-82722749D01*
X252267648Y-82667709D01*
X251322648Y-81196133D01*
X251322648Y-82670236D01*
X251315400Y-82708393D01*
X251294291Y-82737831D01*
X251258047Y-82758971D01*
X251214277Y-82766187D01*
X251163633Y-82755478D01*
X251126899Y-82724312D01*
X251115110Y-82700295D01*
X251110963Y-82670236D01*
X251110963Y-81160413D01*
X251118409Y-81095240D01*
X251138899Y-81045529D01*
X251171542Y-81007566D01*
X251218014Y-80979502D01*
X251258262Y-80967778D01*
X251307810Y-80963565D01*
X251370345Y-80973428D01*
X251422322Y-81002231D01*
X251466519Y-81052152D01*
X252330296Y-82388429D01*
G37*
G36*
X253015251Y-80943891D02*
G01*
X253048750Y-80952892D01*
X253103636Y-80989163D01*
X253191216Y-81071826D01*
X253289986Y-81189853D01*
X253379900Y-81327738D01*
X253460713Y-81487722D01*
X253525802Y-81656341D01*
X253571307Y-81822298D01*
X253598211Y-81986453D01*
X253607112Y-82149706D01*
X253597861Y-82315810D01*
X253569871Y-82483130D01*
X253522468Y-82652624D01*
X253454558Y-82825209D01*
X253376636Y-82976941D01*
X253291285Y-83107590D01*
X253198762Y-83219275D01*
X253099002Y-83313755D01*
X253049701Y-83345604D01*
X253012833Y-83354312D01*
X252983663Y-83348675D01*
X252961175Y-83332220D01*
X252948228Y-83309701D01*
X252943920Y-83284190D01*
X252950147Y-83257331D01*
X252970957Y-83228795D01*
X253033716Y-83168565D01*
X253110262Y-83085667D01*
X253185393Y-82980228D01*
X253258920Y-82848619D01*
X253327724Y-82687595D01*
X253377213Y-82518122D01*
X253407366Y-82338909D01*
X253417629Y-82148497D01*
X253405937Y-81946173D01*
X253371606Y-81756397D01*
X253315233Y-81577417D01*
X253236718Y-81407709D01*
X253163181Y-81287793D01*
X253077652Y-81178109D01*
X252979640Y-81077981D01*
X252951905Y-81044258D01*
X252943920Y-81014013D01*
X252947521Y-80991478D01*
X252958648Y-80969720D01*
X252982150Y-80950572D01*
X253015251Y-80943891D01*
G37*
G36*
X245559569Y-33448046D02*
G01*
X246931969Y-35370176D01*
X246931969Y-33993562D01*
X246919330Y-33909665D01*
X246881594Y-33850863D01*
X246812168Y-33817341D01*
X246705373Y-33804701D01*
X246508086Y-33796275D01*
X246508086Y-33448046D01*
X247762883Y-33448046D01*
X247762883Y-33796641D01*
X247599302Y-33796641D01*
X247492140Y-33817707D01*
X247422897Y-33851413D01*
X247385162Y-33910214D01*
X247372705Y-34002538D01*
X247372705Y-36250000D01*
X246696946Y-36250000D01*
X245290840Y-34280425D01*
X245290840Y-35707048D01*
X245303480Y-35805966D01*
X245341215Y-35866966D01*
X245410458Y-35902869D01*
X245517437Y-35913311D01*
X245735790Y-35904884D01*
X245735790Y-36250000D01*
X244405338Y-36250000D01*
X244405338Y-35905617D01*
X244623508Y-35905617D01*
X244640361Y-35909647D01*
X244653000Y-35909647D01*
X244740928Y-35899206D01*
X244799729Y-35867698D01*
X244837465Y-35808897D01*
X244850104Y-35716573D01*
X244850104Y-33994112D01*
X244837465Y-33910214D01*
X244799729Y-33851413D01*
X244730486Y-33817707D01*
X244623508Y-33805068D01*
X244405338Y-33796641D01*
X244405338Y-33448046D01*
X245559569Y-33448046D01*
G37*
G36*
X249464096Y-33448046D02*
G01*
X248502939Y-37086775D01*
X247974092Y-37086775D01*
X248935249Y-33448046D01*
X249464096Y-33448046D01*
G37*
G36*
X254126463Y-33926310D02*
G01*
X254276419Y-33978275D01*
X254414621Y-34065518D01*
X254543527Y-34192406D01*
X254647825Y-34343560D01*
X254723240Y-34513164D01*
X254769964Y-34704577D01*
X254786243Y-34922082D01*
X254773947Y-35113283D01*
X254738621Y-35283147D01*
X254681810Y-35434755D01*
X254603939Y-35570669D01*
X254504296Y-35692821D01*
X254382788Y-35798688D01*
X254254354Y-35871895D01*
X254116943Y-35915544D01*
X253967572Y-35930347D01*
X253816140Y-35915841D01*
X253677503Y-35873206D01*
X253548695Y-35802038D01*
X253427643Y-35699690D01*
X253319261Y-35564092D01*
X253232859Y-35400645D01*
X253182140Y-35253386D01*
X253151123Y-35095043D01*
X253140505Y-34923761D01*
X253157001Y-34704668D01*
X253204353Y-34511896D01*
X253280800Y-34341104D01*
X253386579Y-34188895D01*
X253514524Y-34063393D01*
X253651066Y-33977241D01*
X253798586Y-33926024D01*
X253960855Y-33908627D01*
X254126463Y-33926310D01*
G37*
G36*
X255378484Y-36481677D02*
G01*
X250036684Y-36481677D01*
X250036684Y-33939462D01*
X250314462Y-33939462D01*
X250314462Y-36036440D01*
X250320223Y-36078188D01*
X250336597Y-36111544D01*
X250387615Y-36154830D01*
X250457955Y-36169705D01*
X250518747Y-36159683D01*
X250569085Y-36130321D01*
X250598403Y-36089435D01*
X250608469Y-36036440D01*
X250608469Y-33989074D01*
X251920969Y-36032929D01*
X251984452Y-36109373D01*
X252051270Y-36150991D01*
X252124302Y-36164515D01*
X252199575Y-36149953D01*
X252252393Y-36108645D01*
X252287869Y-36035020D01*
X252301988Y-35913402D01*
X252301988Y-34920403D01*
X252826042Y-34920403D01*
X252826251Y-34923761D01*
X252839367Y-35134626D01*
X252878021Y-35329489D01*
X252940774Y-35507692D01*
X253027428Y-35671515D01*
X253138825Y-35822727D01*
X253278719Y-35962180D01*
X253428711Y-36067821D01*
X253590358Y-36142750D01*
X253766113Y-36188289D01*
X253959176Y-36203899D01*
X254137489Y-36190618D01*
X254302502Y-36151679D01*
X254456597Y-36087463D01*
X254601687Y-35997056D01*
X254733689Y-35882893D01*
X254847354Y-35748044D01*
X254943475Y-35590391D01*
X255030114Y-35383674D01*
X255082732Y-35161449D01*
X255100706Y-34920403D01*
X255085912Y-34703406D01*
X255042449Y-34500832D01*
X254970799Y-34310253D01*
X254865820Y-34122833D01*
X254739102Y-33966764D01*
X254589781Y-33838559D01*
X254443756Y-33750398D01*
X254292795Y-33688423D01*
X254135319Y-33651271D01*
X253969404Y-33638738D01*
X253762680Y-33656080D01*
X253576320Y-33706518D01*
X253406514Y-33789367D01*
X253250410Y-33906216D01*
X253106311Y-34060820D01*
X252984981Y-34246092D01*
X252897914Y-34448823D01*
X252844481Y-34672237D01*
X252826042Y-34920403D01*
X252301988Y-34920403D01*
X252301988Y-33799328D01*
X252296807Y-33763654D01*
X252281533Y-33732619D01*
X252229479Y-33686949D01*
X252154985Y-33671100D01*
X252094602Y-33681171D01*
X252045686Y-33710484D01*
X252017583Y-33749381D01*
X252007981Y-33799328D01*
X252007981Y-35645040D01*
X250808291Y-33789100D01*
X250746906Y-33719766D01*
X250674716Y-33679761D01*
X250587862Y-33666063D01*
X250519045Y-33671915D01*
X250463145Y-33688197D01*
X250398600Y-33727175D01*
X250353263Y-33779902D01*
X250324805Y-33848944D01*
X250314462Y-33939462D01*
X250036684Y-33939462D01*
X250036684Y-33360960D01*
X255378484Y-33360960D01*
X255378484Y-36481677D01*
G37*
G36*
X194491111Y-35929980D02*
G01*
X194497339Y-35944818D01*
X194503567Y-35955259D01*
X194509795Y-35961671D01*
X194516207Y-35963686D01*
X194551927Y-35988782D01*
X194587648Y-36001421D01*
X194635825Y-36007833D01*
X194696641Y-36009848D01*
X194788332Y-36003459D01*
X194853995Y-35986767D01*
X194907715Y-35956336D01*
X194944303Y-35913311D01*
X194965037Y-35858841D01*
X194984237Y-35759987D01*
X194998892Y-35484848D01*
X194998892Y-33989715D01*
X194986252Y-33905818D01*
X194948517Y-33847016D01*
X194879274Y-33815509D01*
X194772295Y-33805068D01*
X194491111Y-33796641D01*
X194491111Y-33448046D01*
X196073438Y-33448046D01*
X196073438Y-33796641D01*
X195922313Y-33796641D01*
X195810938Y-33815509D01*
X195741695Y-33847016D01*
X195703960Y-33905818D01*
X195691503Y-33998142D01*
X195691503Y-35476421D01*
X195680879Y-35667480D01*
X195649371Y-35825017D01*
X195598996Y-35953244D01*
X195519312Y-36060223D01*
X195456470Y-36123126D01*
X195385040Y-36177826D01*
X195305572Y-36223367D01*
X195213032Y-36261723D01*
X195021973Y-36318326D01*
X194822670Y-36337194D01*
X194639212Y-36326203D01*
X194482684Y-36295245D01*
X194339641Y-36242734D01*
X194222383Y-36173613D01*
X194122652Y-36080813D01*
X194054588Y-35976142D01*
X194014074Y-35857415D01*
X194000000Y-35720054D01*
X194006900Y-35637676D01*
X194027294Y-35560502D01*
X194061233Y-35488309D01*
X194109176Y-35421833D01*
X194170754Y-35365662D01*
X194232824Y-35327311D01*
X194300248Y-35303760D01*
X194373508Y-35295804D01*
X194455156Y-35301267D01*
X194526648Y-35316870D01*
X194591719Y-35344465D01*
X194646266Y-35384098D01*
X194690163Y-35431093D01*
X194721737Y-35489061D01*
X194740527Y-35554314D01*
X194747016Y-35627730D01*
X194736575Y-35720054D01*
X194705068Y-35795708D01*
X194644251Y-35856524D01*
X194545699Y-35913311D01*
X194535075Y-35921737D01*
X194520420Y-35925767D01*
X194511994Y-35927965D01*
X194507780Y-35929980D01*
X194499354Y-35936392D01*
X194491111Y-35938407D01*
X194491111Y-35929980D01*
G37*
X206940476Y-43407200D02*
X207083333Y-43454819D01*
X207083333Y-43454819D02*
X207321428Y-43454819D01*
X207321428Y-43454819D02*
X207416666Y-43407200D01*
X207416666Y-43407200D02*
X207464285Y-43359580D01*
X207464285Y-43359580D02*
X207511904Y-43264342D01*
X207511904Y-43264342D02*
X207511904Y-43169104D01*
X207511904Y-43169104D02*
X207464285Y-43073866D01*
X207464285Y-43073866D02*
X207416666Y-43026247D01*
X207416666Y-43026247D02*
X207321428Y-42978628D01*
X207321428Y-42978628D02*
X207130952Y-42931009D01*
X207130952Y-42931009D02*
X207035714Y-42883390D01*
X207035714Y-42883390D02*
X206988095Y-42835771D01*
X206988095Y-42835771D02*
X206940476Y-42740533D01*
X206940476Y-42740533D02*
X206940476Y-42645295D01*
X206940476Y-42645295D02*
X206988095Y-42550057D01*
X206988095Y-42550057D02*
X207035714Y-42502438D01*
X207035714Y-42502438D02*
X207130952Y-42454819D01*
X207130952Y-42454819D02*
X207369047Y-42454819D01*
X207369047Y-42454819D02*
X207511904Y-42502438D01*
X207845238Y-42454819D02*
X208083333Y-43454819D01*
X208083333Y-43454819D02*
X208273809Y-42740533D01*
X208273809Y-42740533D02*
X208464285Y-43454819D01*
X208464285Y-43454819D02*
X208702381Y-42454819D01*
X209607142Y-43454819D02*
X209035714Y-43454819D01*
X209321428Y-43454819D02*
X209321428Y-42454819D01*
X209321428Y-42454819D02*
X209226190Y-42597676D01*
X209226190Y-42597676D02*
X209130952Y-42692914D01*
X209130952Y-42692914D02*
X209035714Y-42740533D01*
X210559523Y-43454819D02*
X209988095Y-43454819D01*
X210273809Y-43454819D02*
X210273809Y-42454819D01*
X210273809Y-42454819D02*
X210178571Y-42597676D01*
X210178571Y-42597676D02*
X210083333Y-42692914D01*
X210083333Y-42692914D02*
X209988095Y-42740533D01*
X193190476Y-68407200D02*
X193333333Y-68454819D01*
X193333333Y-68454819D02*
X193571428Y-68454819D01*
X193571428Y-68454819D02*
X193666666Y-68407200D01*
X193666666Y-68407200D02*
X193714285Y-68359580D01*
X193714285Y-68359580D02*
X193761904Y-68264342D01*
X193761904Y-68264342D02*
X193761904Y-68169104D01*
X193761904Y-68169104D02*
X193714285Y-68073866D01*
X193714285Y-68073866D02*
X193666666Y-68026247D01*
X193666666Y-68026247D02*
X193571428Y-67978628D01*
X193571428Y-67978628D02*
X193380952Y-67931009D01*
X193380952Y-67931009D02*
X193285714Y-67883390D01*
X193285714Y-67883390D02*
X193238095Y-67835771D01*
X193238095Y-67835771D02*
X193190476Y-67740533D01*
X193190476Y-67740533D02*
X193190476Y-67645295D01*
X193190476Y-67645295D02*
X193238095Y-67550057D01*
X193238095Y-67550057D02*
X193285714Y-67502438D01*
X193285714Y-67502438D02*
X193380952Y-67454819D01*
X193380952Y-67454819D02*
X193619047Y-67454819D01*
X193619047Y-67454819D02*
X193761904Y-67502438D01*
X194095238Y-67454819D02*
X194333333Y-68454819D01*
X194333333Y-68454819D02*
X194523809Y-67740533D01*
X194523809Y-67740533D02*
X194714285Y-68454819D01*
X194714285Y-68454819D02*
X194952381Y-67454819D01*
X195285714Y-67550057D02*
X195333333Y-67502438D01*
X195333333Y-67502438D02*
X195428571Y-67454819D01*
X195428571Y-67454819D02*
X195666666Y-67454819D01*
X195666666Y-67454819D02*
X195761904Y-67502438D01*
X195761904Y-67502438D02*
X195809523Y-67550057D01*
X195809523Y-67550057D02*
X195857142Y-67645295D01*
X195857142Y-67645295D02*
X195857142Y-67740533D01*
X195857142Y-67740533D02*
X195809523Y-67883390D01*
X195809523Y-67883390D02*
X195238095Y-68454819D01*
X195238095Y-68454819D02*
X195857142Y-68454819D01*
X196190476Y-67454819D02*
X196809523Y-67454819D01*
X196809523Y-67454819D02*
X196476190Y-67835771D01*
X196476190Y-67835771D02*
X196619047Y-67835771D01*
X196619047Y-67835771D02*
X196714285Y-67883390D01*
X196714285Y-67883390D02*
X196761904Y-67931009D01*
X196761904Y-67931009D02*
X196809523Y-68026247D01*
X196809523Y-68026247D02*
X196809523Y-68264342D01*
X196809523Y-68264342D02*
X196761904Y-68359580D01*
X196761904Y-68359580D02*
X196714285Y-68407200D01*
X196714285Y-68407200D02*
X196619047Y-68454819D01*
X196619047Y-68454819D02*
X196333333Y-68454819D01*
X196333333Y-68454819D02*
X196238095Y-68407200D01*
X196238095Y-68407200D02*
X196190476Y-68359580D01*
X234440476Y-68407200D02*
X234583333Y-68454819D01*
X234583333Y-68454819D02*
X234821428Y-68454819D01*
X234821428Y-68454819D02*
X234916666Y-68407200D01*
X234916666Y-68407200D02*
X234964285Y-68359580D01*
X234964285Y-68359580D02*
X235011904Y-68264342D01*
X235011904Y-68264342D02*
X235011904Y-68169104D01*
X235011904Y-68169104D02*
X234964285Y-68073866D01*
X234964285Y-68073866D02*
X234916666Y-68026247D01*
X234916666Y-68026247D02*
X234821428Y-67978628D01*
X234821428Y-67978628D02*
X234630952Y-67931009D01*
X234630952Y-67931009D02*
X234535714Y-67883390D01*
X234535714Y-67883390D02*
X234488095Y-67835771D01*
X234488095Y-67835771D02*
X234440476Y-67740533D01*
X234440476Y-67740533D02*
X234440476Y-67645295D01*
X234440476Y-67645295D02*
X234488095Y-67550057D01*
X234488095Y-67550057D02*
X234535714Y-67502438D01*
X234535714Y-67502438D02*
X234630952Y-67454819D01*
X234630952Y-67454819D02*
X234869047Y-67454819D01*
X234869047Y-67454819D02*
X235011904Y-67502438D01*
X235345238Y-67454819D02*
X235583333Y-68454819D01*
X235583333Y-68454819D02*
X235773809Y-67740533D01*
X235773809Y-67740533D02*
X235964285Y-68454819D01*
X235964285Y-68454819D02*
X236202381Y-67454819D01*
X236535714Y-67550057D02*
X236583333Y-67502438D01*
X236583333Y-67502438D02*
X236678571Y-67454819D01*
X236678571Y-67454819D02*
X236916666Y-67454819D01*
X236916666Y-67454819D02*
X237011904Y-67502438D01*
X237011904Y-67502438D02*
X237059523Y-67550057D01*
X237059523Y-67550057D02*
X237107142Y-67645295D01*
X237107142Y-67645295D02*
X237107142Y-67740533D01*
X237107142Y-67740533D02*
X237059523Y-67883390D01*
X237059523Y-67883390D02*
X236488095Y-68454819D01*
X236488095Y-68454819D02*
X237107142Y-68454819D01*
X237964285Y-67454819D02*
X237773809Y-67454819D01*
X237773809Y-67454819D02*
X237678571Y-67502438D01*
X237678571Y-67502438D02*
X237630952Y-67550057D01*
X237630952Y-67550057D02*
X237535714Y-67692914D01*
X237535714Y-67692914D02*
X237488095Y-67883390D01*
X237488095Y-67883390D02*
X237488095Y-68264342D01*
X237488095Y-68264342D02*
X237535714Y-68359580D01*
X237535714Y-68359580D02*
X237583333Y-68407200D01*
X237583333Y-68407200D02*
X237678571Y-68454819D01*
X237678571Y-68454819D02*
X237869047Y-68454819D01*
X237869047Y-68454819D02*
X237964285Y-68407200D01*
X237964285Y-68407200D02*
X238011904Y-68359580D01*
X238011904Y-68359580D02*
X238059523Y-68264342D01*
X238059523Y-68264342D02*
X238059523Y-68026247D01*
X238059523Y-68026247D02*
X238011904Y-67931009D01*
X238011904Y-67931009D02*
X237964285Y-67883390D01*
X237964285Y-67883390D02*
X237869047Y-67835771D01*
X237869047Y-67835771D02*
X237678571Y-67835771D01*
X237678571Y-67835771D02*
X237583333Y-67883390D01*
X237583333Y-67883390D02*
X237535714Y-67931009D01*
X237535714Y-67931009D02*
X237488095Y-68026247D01*
X248190476Y-68407200D02*
X248333333Y-68454819D01*
X248333333Y-68454819D02*
X248571428Y-68454819D01*
X248571428Y-68454819D02*
X248666666Y-68407200D01*
X248666666Y-68407200D02*
X248714285Y-68359580D01*
X248714285Y-68359580D02*
X248761904Y-68264342D01*
X248761904Y-68264342D02*
X248761904Y-68169104D01*
X248761904Y-68169104D02*
X248714285Y-68073866D01*
X248714285Y-68073866D02*
X248666666Y-68026247D01*
X248666666Y-68026247D02*
X248571428Y-67978628D01*
X248571428Y-67978628D02*
X248380952Y-67931009D01*
X248380952Y-67931009D02*
X248285714Y-67883390D01*
X248285714Y-67883390D02*
X248238095Y-67835771D01*
X248238095Y-67835771D02*
X248190476Y-67740533D01*
X248190476Y-67740533D02*
X248190476Y-67645295D01*
X248190476Y-67645295D02*
X248238095Y-67550057D01*
X248238095Y-67550057D02*
X248285714Y-67502438D01*
X248285714Y-67502438D02*
X248380952Y-67454819D01*
X248380952Y-67454819D02*
X248619047Y-67454819D01*
X248619047Y-67454819D02*
X248761904Y-67502438D01*
X249095238Y-67454819D02*
X249333333Y-68454819D01*
X249333333Y-68454819D02*
X249523809Y-67740533D01*
X249523809Y-67740533D02*
X249714285Y-68454819D01*
X249714285Y-68454819D02*
X249952381Y-67454819D01*
X250285714Y-67550057D02*
X250333333Y-67502438D01*
X250333333Y-67502438D02*
X250428571Y-67454819D01*
X250428571Y-67454819D02*
X250666666Y-67454819D01*
X250666666Y-67454819D02*
X250761904Y-67502438D01*
X250761904Y-67502438D02*
X250809523Y-67550057D01*
X250809523Y-67550057D02*
X250857142Y-67645295D01*
X250857142Y-67645295D02*
X250857142Y-67740533D01*
X250857142Y-67740533D02*
X250809523Y-67883390D01*
X250809523Y-67883390D02*
X250238095Y-68454819D01*
X250238095Y-68454819D02*
X250857142Y-68454819D01*
X251190476Y-67454819D02*
X251857142Y-67454819D01*
X251857142Y-67454819D02*
X251428571Y-68454819D01*
X186166666Y-15204819D02*
X186166666Y-15919104D01*
X186166666Y-15919104D02*
X186119047Y-16061961D01*
X186119047Y-16061961D02*
X186023809Y-16157200D01*
X186023809Y-16157200D02*
X185880952Y-16204819D01*
X185880952Y-16204819D02*
X185785714Y-16204819D01*
X187166666Y-16204819D02*
X186595238Y-16204819D01*
X186880952Y-16204819D02*
X186880952Y-15204819D01*
X186880952Y-15204819D02*
X186785714Y-15347676D01*
X186785714Y-15347676D02*
X186690476Y-15442914D01*
X186690476Y-15442914D02*
X186595238Y-15490533D01*
X181297618Y-29954819D02*
X181297618Y-30669104D01*
X181297618Y-30669104D02*
X181249999Y-30811961D01*
X181249999Y-30811961D02*
X181154761Y-30907200D01*
X181154761Y-30907200D02*
X181011904Y-30954819D01*
X181011904Y-30954819D02*
X180916666Y-30954819D01*
X181726190Y-30907200D02*
X181869047Y-30954819D01*
X181869047Y-30954819D02*
X182107142Y-30954819D01*
X182107142Y-30954819D02*
X182202380Y-30907200D01*
X182202380Y-30907200D02*
X182249999Y-30859580D01*
X182249999Y-30859580D02*
X182297618Y-30764342D01*
X182297618Y-30764342D02*
X182297618Y-30669104D01*
X182297618Y-30669104D02*
X182249999Y-30573866D01*
X182249999Y-30573866D02*
X182202380Y-30526247D01*
X182202380Y-30526247D02*
X182107142Y-30478628D01*
X182107142Y-30478628D02*
X181916666Y-30431009D01*
X181916666Y-30431009D02*
X181821428Y-30383390D01*
X181821428Y-30383390D02*
X181773809Y-30335771D01*
X181773809Y-30335771D02*
X181726190Y-30240533D01*
X181726190Y-30240533D02*
X181726190Y-30145295D01*
X181726190Y-30145295D02*
X181773809Y-30050057D01*
X181773809Y-30050057D02*
X181821428Y-30002438D01*
X181821428Y-30002438D02*
X181916666Y-29954819D01*
X181916666Y-29954819D02*
X182154761Y-29954819D01*
X182154761Y-29954819D02*
X182297618Y-30002438D01*
X182583333Y-29954819D02*
X183154761Y-29954819D01*
X182869047Y-30954819D02*
X182869047Y-29954819D01*
X183250000Y-31050057D02*
X184011904Y-31050057D01*
X184250000Y-30954819D02*
X184250000Y-29954819D01*
X184250000Y-29954819D02*
X184821428Y-30954819D01*
X184821428Y-30954819D02*
X184821428Y-29954819D01*
X185297619Y-30954819D02*
X185297619Y-29954819D01*
X185297619Y-30431009D02*
X185869047Y-30431009D01*
X185869047Y-30954819D02*
X185869047Y-29954819D01*
X186107143Y-31050057D02*
X186869047Y-31050057D01*
X187440476Y-30431009D02*
X187583333Y-30478628D01*
X187583333Y-30478628D02*
X187630952Y-30526247D01*
X187630952Y-30526247D02*
X187678571Y-30621485D01*
X187678571Y-30621485D02*
X187678571Y-30764342D01*
X187678571Y-30764342D02*
X187630952Y-30859580D01*
X187630952Y-30859580D02*
X187583333Y-30907200D01*
X187583333Y-30907200D02*
X187488095Y-30954819D01*
X187488095Y-30954819D02*
X187107143Y-30954819D01*
X187107143Y-30954819D02*
X187107143Y-29954819D01*
X187107143Y-29954819D02*
X187440476Y-29954819D01*
X187440476Y-29954819D02*
X187535714Y-30002438D01*
X187535714Y-30002438D02*
X187583333Y-30050057D01*
X187583333Y-30050057D02*
X187630952Y-30145295D01*
X187630952Y-30145295D02*
X187630952Y-30240533D01*
X187630952Y-30240533D02*
X187583333Y-30335771D01*
X187583333Y-30335771D02*
X187535714Y-30383390D01*
X187535714Y-30383390D02*
X187440476Y-30431009D01*
X187440476Y-30431009D02*
X187107143Y-30431009D01*
X188059524Y-30907200D02*
X188202381Y-30954819D01*
X188202381Y-30954819D02*
X188440476Y-30954819D01*
X188440476Y-30954819D02*
X188535714Y-30907200D01*
X188535714Y-30907200D02*
X188583333Y-30859580D01*
X188583333Y-30859580D02*
X188630952Y-30764342D01*
X188630952Y-30764342D02*
X188630952Y-30669104D01*
X188630952Y-30669104D02*
X188583333Y-30573866D01*
X188583333Y-30573866D02*
X188535714Y-30526247D01*
X188535714Y-30526247D02*
X188440476Y-30478628D01*
X188440476Y-30478628D02*
X188250000Y-30431009D01*
X188250000Y-30431009D02*
X188154762Y-30383390D01*
X188154762Y-30383390D02*
X188107143Y-30335771D01*
X188107143Y-30335771D02*
X188059524Y-30240533D01*
X188059524Y-30240533D02*
X188059524Y-30145295D01*
X188059524Y-30145295D02*
X188107143Y-30050057D01*
X188107143Y-30050057D02*
X188154762Y-30002438D01*
X188154762Y-30002438D02*
X188250000Y-29954819D01*
X188250000Y-29954819D02*
X188488095Y-29954819D01*
X188488095Y-29954819D02*
X188630952Y-30002438D01*
X189583333Y-30954819D02*
X189011905Y-30954819D01*
X189297619Y-30954819D02*
X189297619Y-29954819D01*
X189297619Y-29954819D02*
X189202381Y-30097676D01*
X189202381Y-30097676D02*
X189107143Y-30192914D01*
X189107143Y-30192914D02*
X189011905Y-30240533D01*
X189916667Y-29954819D02*
X190535714Y-29954819D01*
X190535714Y-29954819D02*
X190202381Y-30335771D01*
X190202381Y-30335771D02*
X190345238Y-30335771D01*
X190345238Y-30335771D02*
X190440476Y-30383390D01*
X190440476Y-30383390D02*
X190488095Y-30431009D01*
X190488095Y-30431009D02*
X190535714Y-30526247D01*
X190535714Y-30526247D02*
X190535714Y-30764342D01*
X190535714Y-30764342D02*
X190488095Y-30859580D01*
X190488095Y-30859580D02*
X190440476Y-30907200D01*
X190440476Y-30907200D02*
X190345238Y-30954819D01*
X190345238Y-30954819D02*
X190059524Y-30954819D01*
X190059524Y-30954819D02*
X189964286Y-30907200D01*
X189964286Y-30907200D02*
X189916667Y-30859580D01*
X190964286Y-30954819D02*
X190964286Y-29954819D01*
X190964286Y-29954819D02*
X191345238Y-29954819D01*
X191345238Y-29954819D02*
X191440476Y-30002438D01*
X191440476Y-30002438D02*
X191488095Y-30050057D01*
X191488095Y-30050057D02*
X191535714Y-30145295D01*
X191535714Y-30145295D02*
X191535714Y-30288152D01*
X191535714Y-30288152D02*
X191488095Y-30383390D01*
X191488095Y-30383390D02*
X191440476Y-30431009D01*
X191440476Y-30431009D02*
X191345238Y-30478628D01*
X191345238Y-30478628D02*
X190964286Y-30478628D01*
X234440476Y-43407200D02*
X234583333Y-43454819D01*
X234583333Y-43454819D02*
X234821428Y-43454819D01*
X234821428Y-43454819D02*
X234916666Y-43407200D01*
X234916666Y-43407200D02*
X234964285Y-43359580D01*
X234964285Y-43359580D02*
X235011904Y-43264342D01*
X235011904Y-43264342D02*
X235011904Y-43169104D01*
X235011904Y-43169104D02*
X234964285Y-43073866D01*
X234964285Y-43073866D02*
X234916666Y-43026247D01*
X234916666Y-43026247D02*
X234821428Y-42978628D01*
X234821428Y-42978628D02*
X234630952Y-42931009D01*
X234630952Y-42931009D02*
X234535714Y-42883390D01*
X234535714Y-42883390D02*
X234488095Y-42835771D01*
X234488095Y-42835771D02*
X234440476Y-42740533D01*
X234440476Y-42740533D02*
X234440476Y-42645295D01*
X234440476Y-42645295D02*
X234488095Y-42550057D01*
X234488095Y-42550057D02*
X234535714Y-42502438D01*
X234535714Y-42502438D02*
X234630952Y-42454819D01*
X234630952Y-42454819D02*
X234869047Y-42454819D01*
X234869047Y-42454819D02*
X235011904Y-42502438D01*
X235345238Y-42454819D02*
X235583333Y-43454819D01*
X235583333Y-43454819D02*
X235773809Y-42740533D01*
X235773809Y-42740533D02*
X235964285Y-43454819D01*
X235964285Y-43454819D02*
X236202381Y-42454819D01*
X237107142Y-43454819D02*
X236535714Y-43454819D01*
X236821428Y-43454819D02*
X236821428Y-42454819D01*
X236821428Y-42454819D02*
X236726190Y-42597676D01*
X236726190Y-42597676D02*
X236630952Y-42692914D01*
X236630952Y-42692914D02*
X236535714Y-42740533D01*
X237440476Y-42454819D02*
X238059523Y-42454819D01*
X238059523Y-42454819D02*
X237726190Y-42835771D01*
X237726190Y-42835771D02*
X237869047Y-42835771D01*
X237869047Y-42835771D02*
X237964285Y-42883390D01*
X237964285Y-42883390D02*
X238011904Y-42931009D01*
X238011904Y-42931009D02*
X238059523Y-43026247D01*
X238059523Y-43026247D02*
X238059523Y-43264342D01*
X238059523Y-43264342D02*
X238011904Y-43359580D01*
X238011904Y-43359580D02*
X237964285Y-43407200D01*
X237964285Y-43407200D02*
X237869047Y-43454819D01*
X237869047Y-43454819D02*
X237583333Y-43454819D01*
X237583333Y-43454819D02*
X237488095Y-43407200D01*
X237488095Y-43407200D02*
X237440476Y-43359580D01*
X179916667Y-43407200D02*
X180059524Y-43454819D01*
X180059524Y-43454819D02*
X180297619Y-43454819D01*
X180297619Y-43454819D02*
X180392857Y-43407200D01*
X180392857Y-43407200D02*
X180440476Y-43359580D01*
X180440476Y-43359580D02*
X180488095Y-43264342D01*
X180488095Y-43264342D02*
X180488095Y-43169104D01*
X180488095Y-43169104D02*
X180440476Y-43073866D01*
X180440476Y-43073866D02*
X180392857Y-43026247D01*
X180392857Y-43026247D02*
X180297619Y-42978628D01*
X180297619Y-42978628D02*
X180107143Y-42931009D01*
X180107143Y-42931009D02*
X180011905Y-42883390D01*
X180011905Y-42883390D02*
X179964286Y-42835771D01*
X179964286Y-42835771D02*
X179916667Y-42740533D01*
X179916667Y-42740533D02*
X179916667Y-42645295D01*
X179916667Y-42645295D02*
X179964286Y-42550057D01*
X179964286Y-42550057D02*
X180011905Y-42502438D01*
X180011905Y-42502438D02*
X180107143Y-42454819D01*
X180107143Y-42454819D02*
X180345238Y-42454819D01*
X180345238Y-42454819D02*
X180488095Y-42502438D01*
X180821429Y-42454819D02*
X181059524Y-43454819D01*
X181059524Y-43454819D02*
X181250000Y-42740533D01*
X181250000Y-42740533D02*
X181440476Y-43454819D01*
X181440476Y-43454819D02*
X181678572Y-42454819D01*
X182107143Y-43454819D02*
X182297619Y-43454819D01*
X182297619Y-43454819D02*
X182392857Y-43407200D01*
X182392857Y-43407200D02*
X182440476Y-43359580D01*
X182440476Y-43359580D02*
X182535714Y-43216723D01*
X182535714Y-43216723D02*
X182583333Y-43026247D01*
X182583333Y-43026247D02*
X182583333Y-42645295D01*
X182583333Y-42645295D02*
X182535714Y-42550057D01*
X182535714Y-42550057D02*
X182488095Y-42502438D01*
X182488095Y-42502438D02*
X182392857Y-42454819D01*
X182392857Y-42454819D02*
X182202381Y-42454819D01*
X182202381Y-42454819D02*
X182107143Y-42502438D01*
X182107143Y-42502438D02*
X182059524Y-42550057D01*
X182059524Y-42550057D02*
X182011905Y-42645295D01*
X182011905Y-42645295D02*
X182011905Y-42883390D01*
X182011905Y-42883390D02*
X182059524Y-42978628D01*
X182059524Y-42978628D02*
X182107143Y-43026247D01*
X182107143Y-43026247D02*
X182202381Y-43073866D01*
X182202381Y-43073866D02*
X182392857Y-43073866D01*
X182392857Y-43073866D02*
X182488095Y-43026247D01*
X182488095Y-43026247D02*
X182535714Y-42978628D01*
X182535714Y-42978628D02*
X182583333Y-42883390D01*
X220690476Y-43407200D02*
X220833333Y-43454819D01*
X220833333Y-43454819D02*
X221071428Y-43454819D01*
X221071428Y-43454819D02*
X221166666Y-43407200D01*
X221166666Y-43407200D02*
X221214285Y-43359580D01*
X221214285Y-43359580D02*
X221261904Y-43264342D01*
X221261904Y-43264342D02*
X221261904Y-43169104D01*
X221261904Y-43169104D02*
X221214285Y-43073866D01*
X221214285Y-43073866D02*
X221166666Y-43026247D01*
X221166666Y-43026247D02*
X221071428Y-42978628D01*
X221071428Y-42978628D02*
X220880952Y-42931009D01*
X220880952Y-42931009D02*
X220785714Y-42883390D01*
X220785714Y-42883390D02*
X220738095Y-42835771D01*
X220738095Y-42835771D02*
X220690476Y-42740533D01*
X220690476Y-42740533D02*
X220690476Y-42645295D01*
X220690476Y-42645295D02*
X220738095Y-42550057D01*
X220738095Y-42550057D02*
X220785714Y-42502438D01*
X220785714Y-42502438D02*
X220880952Y-42454819D01*
X220880952Y-42454819D02*
X221119047Y-42454819D01*
X221119047Y-42454819D02*
X221261904Y-42502438D01*
X221595238Y-42454819D02*
X221833333Y-43454819D01*
X221833333Y-43454819D02*
X222023809Y-42740533D01*
X222023809Y-42740533D02*
X222214285Y-43454819D01*
X222214285Y-43454819D02*
X222452381Y-42454819D01*
X223357142Y-43454819D02*
X222785714Y-43454819D01*
X223071428Y-43454819D02*
X223071428Y-42454819D01*
X223071428Y-42454819D02*
X222976190Y-42597676D01*
X222976190Y-42597676D02*
X222880952Y-42692914D01*
X222880952Y-42692914D02*
X222785714Y-42740533D01*
X223738095Y-42550057D02*
X223785714Y-42502438D01*
X223785714Y-42502438D02*
X223880952Y-42454819D01*
X223880952Y-42454819D02*
X224119047Y-42454819D01*
X224119047Y-42454819D02*
X224214285Y-42502438D01*
X224214285Y-42502438D02*
X224261904Y-42550057D01*
X224261904Y-42550057D02*
X224309523Y-42645295D01*
X224309523Y-42645295D02*
X224309523Y-42740533D01*
X224309523Y-42740533D02*
X224261904Y-42883390D01*
X224261904Y-42883390D02*
X223690476Y-43454819D01*
X223690476Y-43454819D02*
X224309523Y-43454819D01*
X166166667Y-43407200D02*
X166309524Y-43454819D01*
X166309524Y-43454819D02*
X166547619Y-43454819D01*
X166547619Y-43454819D02*
X166642857Y-43407200D01*
X166642857Y-43407200D02*
X166690476Y-43359580D01*
X166690476Y-43359580D02*
X166738095Y-43264342D01*
X166738095Y-43264342D02*
X166738095Y-43169104D01*
X166738095Y-43169104D02*
X166690476Y-43073866D01*
X166690476Y-43073866D02*
X166642857Y-43026247D01*
X166642857Y-43026247D02*
X166547619Y-42978628D01*
X166547619Y-42978628D02*
X166357143Y-42931009D01*
X166357143Y-42931009D02*
X166261905Y-42883390D01*
X166261905Y-42883390D02*
X166214286Y-42835771D01*
X166214286Y-42835771D02*
X166166667Y-42740533D01*
X166166667Y-42740533D02*
X166166667Y-42645295D01*
X166166667Y-42645295D02*
X166214286Y-42550057D01*
X166214286Y-42550057D02*
X166261905Y-42502438D01*
X166261905Y-42502438D02*
X166357143Y-42454819D01*
X166357143Y-42454819D02*
X166595238Y-42454819D01*
X166595238Y-42454819D02*
X166738095Y-42502438D01*
X167071429Y-42454819D02*
X167309524Y-43454819D01*
X167309524Y-43454819D02*
X167500000Y-42740533D01*
X167500000Y-42740533D02*
X167690476Y-43454819D01*
X167690476Y-43454819D02*
X167928572Y-42454819D01*
X168452381Y-42883390D02*
X168357143Y-42835771D01*
X168357143Y-42835771D02*
X168309524Y-42788152D01*
X168309524Y-42788152D02*
X168261905Y-42692914D01*
X168261905Y-42692914D02*
X168261905Y-42645295D01*
X168261905Y-42645295D02*
X168309524Y-42550057D01*
X168309524Y-42550057D02*
X168357143Y-42502438D01*
X168357143Y-42502438D02*
X168452381Y-42454819D01*
X168452381Y-42454819D02*
X168642857Y-42454819D01*
X168642857Y-42454819D02*
X168738095Y-42502438D01*
X168738095Y-42502438D02*
X168785714Y-42550057D01*
X168785714Y-42550057D02*
X168833333Y-42645295D01*
X168833333Y-42645295D02*
X168833333Y-42692914D01*
X168833333Y-42692914D02*
X168785714Y-42788152D01*
X168785714Y-42788152D02*
X168738095Y-42835771D01*
X168738095Y-42835771D02*
X168642857Y-42883390D01*
X168642857Y-42883390D02*
X168452381Y-42883390D01*
X168452381Y-42883390D02*
X168357143Y-42931009D01*
X168357143Y-42931009D02*
X168309524Y-42978628D01*
X168309524Y-42978628D02*
X168261905Y-43073866D01*
X168261905Y-43073866D02*
X168261905Y-43264342D01*
X168261905Y-43264342D02*
X168309524Y-43359580D01*
X168309524Y-43359580D02*
X168357143Y-43407200D01*
X168357143Y-43407200D02*
X168452381Y-43454819D01*
X168452381Y-43454819D02*
X168642857Y-43454819D01*
X168642857Y-43454819D02*
X168738095Y-43407200D01*
X168738095Y-43407200D02*
X168785714Y-43359580D01*
X168785714Y-43359580D02*
X168833333Y-43264342D01*
X168833333Y-43264342D02*
X168833333Y-43073866D01*
X168833333Y-43073866D02*
X168785714Y-42978628D01*
X168785714Y-42978628D02*
X168738095Y-42931009D01*
X168738095Y-42931009D02*
X168642857Y-42883390D01*
X180690476Y-69657200D02*
X180833333Y-69704819D01*
X180833333Y-69704819D02*
X181071428Y-69704819D01*
X181071428Y-69704819D02*
X181166666Y-69657200D01*
X181166666Y-69657200D02*
X181214285Y-69609580D01*
X181214285Y-69609580D02*
X181261904Y-69514342D01*
X181261904Y-69514342D02*
X181261904Y-69419104D01*
X181261904Y-69419104D02*
X181214285Y-69323866D01*
X181214285Y-69323866D02*
X181166666Y-69276247D01*
X181166666Y-69276247D02*
X181071428Y-69228628D01*
X181071428Y-69228628D02*
X180880952Y-69181009D01*
X180880952Y-69181009D02*
X180785714Y-69133390D01*
X180785714Y-69133390D02*
X180738095Y-69085771D01*
X180738095Y-69085771D02*
X180690476Y-68990533D01*
X180690476Y-68990533D02*
X180690476Y-68895295D01*
X180690476Y-68895295D02*
X180738095Y-68800057D01*
X180738095Y-68800057D02*
X180785714Y-68752438D01*
X180785714Y-68752438D02*
X180880952Y-68704819D01*
X180880952Y-68704819D02*
X181119047Y-68704819D01*
X181119047Y-68704819D02*
X181261904Y-68752438D01*
X181595238Y-68704819D02*
X181833333Y-69704819D01*
X181833333Y-69704819D02*
X182023809Y-68990533D01*
X182023809Y-68990533D02*
X182214285Y-69704819D01*
X182214285Y-69704819D02*
X182452381Y-68704819D01*
X182785714Y-68800057D02*
X182833333Y-68752438D01*
X182833333Y-68752438D02*
X182928571Y-68704819D01*
X182928571Y-68704819D02*
X183166666Y-68704819D01*
X183166666Y-68704819D02*
X183261904Y-68752438D01*
X183261904Y-68752438D02*
X183309523Y-68800057D01*
X183309523Y-68800057D02*
X183357142Y-68895295D01*
X183357142Y-68895295D02*
X183357142Y-68990533D01*
X183357142Y-68990533D02*
X183309523Y-69133390D01*
X183309523Y-69133390D02*
X182738095Y-69704819D01*
X182738095Y-69704819D02*
X183357142Y-69704819D01*
X183738095Y-68800057D02*
X183785714Y-68752438D01*
X183785714Y-68752438D02*
X183880952Y-68704819D01*
X183880952Y-68704819D02*
X184119047Y-68704819D01*
X184119047Y-68704819D02*
X184214285Y-68752438D01*
X184214285Y-68752438D02*
X184261904Y-68800057D01*
X184261904Y-68800057D02*
X184309523Y-68895295D01*
X184309523Y-68895295D02*
X184309523Y-68990533D01*
X184309523Y-68990533D02*
X184261904Y-69133390D01*
X184261904Y-69133390D02*
X183690476Y-69704819D01*
X183690476Y-69704819D02*
X184309523Y-69704819D01*
X248190476Y-43407200D02*
X248333333Y-43454819D01*
X248333333Y-43454819D02*
X248571428Y-43454819D01*
X248571428Y-43454819D02*
X248666666Y-43407200D01*
X248666666Y-43407200D02*
X248714285Y-43359580D01*
X248714285Y-43359580D02*
X248761904Y-43264342D01*
X248761904Y-43264342D02*
X248761904Y-43169104D01*
X248761904Y-43169104D02*
X248714285Y-43073866D01*
X248714285Y-43073866D02*
X248666666Y-43026247D01*
X248666666Y-43026247D02*
X248571428Y-42978628D01*
X248571428Y-42978628D02*
X248380952Y-42931009D01*
X248380952Y-42931009D02*
X248285714Y-42883390D01*
X248285714Y-42883390D02*
X248238095Y-42835771D01*
X248238095Y-42835771D02*
X248190476Y-42740533D01*
X248190476Y-42740533D02*
X248190476Y-42645295D01*
X248190476Y-42645295D02*
X248238095Y-42550057D01*
X248238095Y-42550057D02*
X248285714Y-42502438D01*
X248285714Y-42502438D02*
X248380952Y-42454819D01*
X248380952Y-42454819D02*
X248619047Y-42454819D01*
X248619047Y-42454819D02*
X248761904Y-42502438D01*
X249095238Y-42454819D02*
X249333333Y-43454819D01*
X249333333Y-43454819D02*
X249523809Y-42740533D01*
X249523809Y-42740533D02*
X249714285Y-43454819D01*
X249714285Y-43454819D02*
X249952381Y-42454819D01*
X250857142Y-43454819D02*
X250285714Y-43454819D01*
X250571428Y-43454819D02*
X250571428Y-42454819D01*
X250571428Y-42454819D02*
X250476190Y-42597676D01*
X250476190Y-42597676D02*
X250380952Y-42692914D01*
X250380952Y-42692914D02*
X250285714Y-42740533D01*
X251714285Y-42788152D02*
X251714285Y-43454819D01*
X251476190Y-42407200D02*
X251238095Y-43121485D01*
X251238095Y-43121485D02*
X251857142Y-43121485D01*
X193190476Y-43407200D02*
X193333333Y-43454819D01*
X193333333Y-43454819D02*
X193571428Y-43454819D01*
X193571428Y-43454819D02*
X193666666Y-43407200D01*
X193666666Y-43407200D02*
X193714285Y-43359580D01*
X193714285Y-43359580D02*
X193761904Y-43264342D01*
X193761904Y-43264342D02*
X193761904Y-43169104D01*
X193761904Y-43169104D02*
X193714285Y-43073866D01*
X193714285Y-43073866D02*
X193666666Y-43026247D01*
X193666666Y-43026247D02*
X193571428Y-42978628D01*
X193571428Y-42978628D02*
X193380952Y-42931009D01*
X193380952Y-42931009D02*
X193285714Y-42883390D01*
X193285714Y-42883390D02*
X193238095Y-42835771D01*
X193238095Y-42835771D02*
X193190476Y-42740533D01*
X193190476Y-42740533D02*
X193190476Y-42645295D01*
X193190476Y-42645295D02*
X193238095Y-42550057D01*
X193238095Y-42550057D02*
X193285714Y-42502438D01*
X193285714Y-42502438D02*
X193380952Y-42454819D01*
X193380952Y-42454819D02*
X193619047Y-42454819D01*
X193619047Y-42454819D02*
X193761904Y-42502438D01*
X194095238Y-42454819D02*
X194333333Y-43454819D01*
X194333333Y-43454819D02*
X194523809Y-42740533D01*
X194523809Y-42740533D02*
X194714285Y-43454819D01*
X194714285Y-43454819D02*
X194952381Y-42454819D01*
X195857142Y-43454819D02*
X195285714Y-43454819D01*
X195571428Y-43454819D02*
X195571428Y-42454819D01*
X195571428Y-42454819D02*
X195476190Y-42597676D01*
X195476190Y-42597676D02*
X195380952Y-42692914D01*
X195380952Y-42692914D02*
X195285714Y-42740533D01*
X196476190Y-42454819D02*
X196571428Y-42454819D01*
X196571428Y-42454819D02*
X196666666Y-42502438D01*
X196666666Y-42502438D02*
X196714285Y-42550057D01*
X196714285Y-42550057D02*
X196761904Y-42645295D01*
X196761904Y-42645295D02*
X196809523Y-42835771D01*
X196809523Y-42835771D02*
X196809523Y-43073866D01*
X196809523Y-43073866D02*
X196761904Y-43264342D01*
X196761904Y-43264342D02*
X196714285Y-43359580D01*
X196714285Y-43359580D02*
X196666666Y-43407200D01*
X196666666Y-43407200D02*
X196571428Y-43454819D01*
X196571428Y-43454819D02*
X196476190Y-43454819D01*
X196476190Y-43454819D02*
X196380952Y-43407200D01*
X196380952Y-43407200D02*
X196333333Y-43359580D01*
X196333333Y-43359580D02*
X196285714Y-43264342D01*
X196285714Y-43264342D02*
X196238095Y-43073866D01*
X196238095Y-43073866D02*
X196238095Y-42835771D01*
X196238095Y-42835771D02*
X196285714Y-42645295D01*
X196285714Y-42645295D02*
X196333333Y-42550057D01*
X196333333Y-42550057D02*
X196380952Y-42502438D01*
X196380952Y-42502438D02*
X196476190Y-42454819D01*
X206940476Y-68407200D02*
X207083333Y-68454819D01*
X207083333Y-68454819D02*
X207321428Y-68454819D01*
X207321428Y-68454819D02*
X207416666Y-68407200D01*
X207416666Y-68407200D02*
X207464285Y-68359580D01*
X207464285Y-68359580D02*
X207511904Y-68264342D01*
X207511904Y-68264342D02*
X207511904Y-68169104D01*
X207511904Y-68169104D02*
X207464285Y-68073866D01*
X207464285Y-68073866D02*
X207416666Y-68026247D01*
X207416666Y-68026247D02*
X207321428Y-67978628D01*
X207321428Y-67978628D02*
X207130952Y-67931009D01*
X207130952Y-67931009D02*
X207035714Y-67883390D01*
X207035714Y-67883390D02*
X206988095Y-67835771D01*
X206988095Y-67835771D02*
X206940476Y-67740533D01*
X206940476Y-67740533D02*
X206940476Y-67645295D01*
X206940476Y-67645295D02*
X206988095Y-67550057D01*
X206988095Y-67550057D02*
X207035714Y-67502438D01*
X207035714Y-67502438D02*
X207130952Y-67454819D01*
X207130952Y-67454819D02*
X207369047Y-67454819D01*
X207369047Y-67454819D02*
X207511904Y-67502438D01*
X207845238Y-67454819D02*
X208083333Y-68454819D01*
X208083333Y-68454819D02*
X208273809Y-67740533D01*
X208273809Y-67740533D02*
X208464285Y-68454819D01*
X208464285Y-68454819D02*
X208702381Y-67454819D01*
X209035714Y-67550057D02*
X209083333Y-67502438D01*
X209083333Y-67502438D02*
X209178571Y-67454819D01*
X209178571Y-67454819D02*
X209416666Y-67454819D01*
X209416666Y-67454819D02*
X209511904Y-67502438D01*
X209511904Y-67502438D02*
X209559523Y-67550057D01*
X209559523Y-67550057D02*
X209607142Y-67645295D01*
X209607142Y-67645295D02*
X209607142Y-67740533D01*
X209607142Y-67740533D02*
X209559523Y-67883390D01*
X209559523Y-67883390D02*
X208988095Y-68454819D01*
X208988095Y-68454819D02*
X209607142Y-68454819D01*
X210464285Y-67788152D02*
X210464285Y-68454819D01*
X210226190Y-67407200D02*
X209988095Y-68121485D01*
X209988095Y-68121485D02*
X210607142Y-68121485D01*
X220690476Y-68407200D02*
X220833333Y-68454819D01*
X220833333Y-68454819D02*
X221071428Y-68454819D01*
X221071428Y-68454819D02*
X221166666Y-68407200D01*
X221166666Y-68407200D02*
X221214285Y-68359580D01*
X221214285Y-68359580D02*
X221261904Y-68264342D01*
X221261904Y-68264342D02*
X221261904Y-68169104D01*
X221261904Y-68169104D02*
X221214285Y-68073866D01*
X221214285Y-68073866D02*
X221166666Y-68026247D01*
X221166666Y-68026247D02*
X221071428Y-67978628D01*
X221071428Y-67978628D02*
X220880952Y-67931009D01*
X220880952Y-67931009D02*
X220785714Y-67883390D01*
X220785714Y-67883390D02*
X220738095Y-67835771D01*
X220738095Y-67835771D02*
X220690476Y-67740533D01*
X220690476Y-67740533D02*
X220690476Y-67645295D01*
X220690476Y-67645295D02*
X220738095Y-67550057D01*
X220738095Y-67550057D02*
X220785714Y-67502438D01*
X220785714Y-67502438D02*
X220880952Y-67454819D01*
X220880952Y-67454819D02*
X221119047Y-67454819D01*
X221119047Y-67454819D02*
X221261904Y-67502438D01*
X221595238Y-67454819D02*
X221833333Y-68454819D01*
X221833333Y-68454819D02*
X222023809Y-67740533D01*
X222023809Y-67740533D02*
X222214285Y-68454819D01*
X222214285Y-68454819D02*
X222452381Y-67454819D01*
X222785714Y-67550057D02*
X222833333Y-67502438D01*
X222833333Y-67502438D02*
X222928571Y-67454819D01*
X222928571Y-67454819D02*
X223166666Y-67454819D01*
X223166666Y-67454819D02*
X223261904Y-67502438D01*
X223261904Y-67502438D02*
X223309523Y-67550057D01*
X223309523Y-67550057D02*
X223357142Y-67645295D01*
X223357142Y-67645295D02*
X223357142Y-67740533D01*
X223357142Y-67740533D02*
X223309523Y-67883390D01*
X223309523Y-67883390D02*
X222738095Y-68454819D01*
X222738095Y-68454819D02*
X223357142Y-68454819D01*
X224261904Y-67454819D02*
X223785714Y-67454819D01*
X223785714Y-67454819D02*
X223738095Y-67931009D01*
X223738095Y-67931009D02*
X223785714Y-67883390D01*
X223785714Y-67883390D02*
X223880952Y-67835771D01*
X223880952Y-67835771D02*
X224119047Y-67835771D01*
X224119047Y-67835771D02*
X224214285Y-67883390D01*
X224214285Y-67883390D02*
X224261904Y-67931009D01*
X224261904Y-67931009D02*
X224309523Y-68026247D01*
X224309523Y-68026247D02*
X224309523Y-68264342D01*
X224309523Y-68264342D02*
X224261904Y-68359580D01*
X224261904Y-68359580D02*
X224214285Y-68407200D01*
X224214285Y-68407200D02*
X224119047Y-68454819D01*
X224119047Y-68454819D02*
X223880952Y-68454819D01*
X223880952Y-68454819D02*
X223785714Y-68407200D01*
X223785714Y-68407200D02*
X223738095Y-68359580D01*
D11*
%TO.C,SW11*%
X202750000Y-40000000D02*
X202750000Y-50000000D01*
X202750000Y-50000000D02*
X203750000Y-51000000D01*
X203750000Y-39000000D02*
X202750000Y-40000000D01*
X203750000Y-51000000D02*
X204500000Y-51000000D01*
X204500000Y-39000000D02*
X203750000Y-39000000D01*
X208000000Y-39000000D02*
X209500000Y-39000000D01*
X208000000Y-51000000D02*
X209500000Y-51000000D01*
X213000000Y-51000000D02*
X213750000Y-51000000D01*
X213750000Y-39000000D02*
X213000000Y-39000000D01*
X213750000Y-51000000D02*
X214750000Y-50000000D01*
X214750000Y-40000000D02*
X213750000Y-39000000D01*
X214750000Y-50000000D02*
X214750000Y-40000000D01*
%TO.C,SW23*%
X189000000Y-64800000D02*
X189000000Y-75200000D01*
X189000000Y-64800000D02*
X189800000Y-64000000D01*
X189800000Y-76000000D02*
X189000000Y-75200000D01*
X189800000Y-76000000D02*
X190800000Y-76000000D01*
X190800000Y-64000000D02*
X189800000Y-64000000D01*
X194200000Y-64000000D02*
X195800000Y-64000000D01*
X194200000Y-76000000D02*
X195800000Y-76000000D01*
X199200000Y-64000000D02*
X200200000Y-64000000D01*
X199200000Y-76000000D02*
X200200000Y-76000000D01*
X200200000Y-64000000D02*
X201000000Y-64800000D01*
X200200000Y-76000000D02*
X201000000Y-75200000D01*
X201000000Y-75200000D02*
X201000000Y-64800000D01*
%TO.C,SW26*%
X230250000Y-64800000D02*
X230250000Y-75200000D01*
X230250000Y-64800000D02*
X231050000Y-64000000D01*
X231050000Y-76000000D02*
X230250000Y-75200000D01*
X231050000Y-76000000D02*
X232050000Y-76000000D01*
X232050000Y-64000000D02*
X231050000Y-64000000D01*
X235450000Y-64000000D02*
X237050000Y-64000000D01*
X235450000Y-76000000D02*
X237050000Y-76000000D01*
X240450000Y-64000000D02*
X241450000Y-64000000D01*
X240450000Y-76000000D02*
X241450000Y-76000000D01*
X241450000Y-64000000D02*
X242250000Y-64800000D01*
X241450000Y-76000000D02*
X242250000Y-75200000D01*
X242250000Y-75200000D02*
X242250000Y-64800000D01*
%TO.C,SW27*%
X244000000Y-65000000D02*
X244000000Y-75000000D01*
X244000000Y-75000000D02*
X245000000Y-76000000D01*
X245000000Y-64000000D02*
X244000000Y-65000000D01*
X245000000Y-76000000D02*
X245750000Y-76000000D01*
X245750000Y-64000000D02*
X245000000Y-64000000D01*
X249250000Y-64000000D02*
X250750000Y-64000000D01*
X249250000Y-76000000D02*
X250750000Y-76000000D01*
X254250000Y-76000000D02*
X255000000Y-76000000D01*
X255000000Y-64000000D02*
X254250000Y-64000000D01*
X255000000Y-76000000D02*
X256000000Y-75000000D01*
X256000000Y-65000000D02*
X255000000Y-64000000D01*
X256000000Y-75000000D02*
X256000000Y-65000000D01*
%TO.C,J1*%
X169500000Y-25250000D02*
X169500000Y-31250000D01*
X169500000Y-25250000D02*
X203000000Y-25250000D01*
X169500000Y-31250000D02*
X203000000Y-31250000D01*
X203000000Y-25250000D02*
X203000000Y-31250000D01*
D12*
X170780000Y-26250000D02*
G75*
G02*
X170220000Y-26250000I-280000J0D01*
G01*
X170220000Y-26250000D02*
G75*
G02*
X170780000Y-26250000I280000J0D01*
G01*
D11*
%TO.C,SW13*%
X230250000Y-40000000D02*
X230250000Y-50000000D01*
X230250000Y-50000000D02*
X231250000Y-51000000D01*
X231250000Y-39000000D02*
X230250000Y-40000000D01*
X231250000Y-51000000D02*
X232000000Y-51000000D01*
X232000000Y-39000000D02*
X231250000Y-39000000D01*
X235500000Y-39000000D02*
X237000000Y-39000000D01*
X235500000Y-51000000D02*
X237000000Y-51000000D01*
X240500000Y-51000000D02*
X241250000Y-51000000D01*
X241250000Y-39000000D02*
X240500000Y-39000000D01*
X241250000Y-51000000D02*
X242250000Y-50000000D01*
X242250000Y-40000000D02*
X241250000Y-39000000D01*
X242250000Y-50000000D02*
X242250000Y-40000000D01*
%TO.C,SW9*%
X175250000Y-40000000D02*
X175250000Y-50000000D01*
X175250000Y-50000000D02*
X176250000Y-51000000D01*
X176250000Y-39000000D02*
X175250000Y-40000000D01*
X176250000Y-51000000D02*
X177000000Y-51000000D01*
X177000000Y-39000000D02*
X176250000Y-39000000D01*
X180500000Y-39000000D02*
X182000000Y-39000000D01*
X180500000Y-51000000D02*
X182000000Y-51000000D01*
X185500000Y-51000000D02*
X186250000Y-51000000D01*
X186250000Y-39000000D02*
X185500000Y-39000000D01*
X186250000Y-51000000D02*
X187250000Y-50000000D01*
X187250000Y-40000000D02*
X186250000Y-39000000D01*
X187250000Y-50000000D02*
X187250000Y-40000000D01*
%TO.C,SW12*%
X216500000Y-40000000D02*
X216500000Y-50000000D01*
X216500000Y-50000000D02*
X217500000Y-51000000D01*
X217500000Y-39000000D02*
X216500000Y-40000000D01*
X217500000Y-51000000D02*
X218250000Y-51000000D01*
X218250000Y-39000000D02*
X217500000Y-39000000D01*
X221750000Y-39000000D02*
X223250000Y-39000000D01*
X221750000Y-51000000D02*
X223250000Y-51000000D01*
X226750000Y-51000000D02*
X227500000Y-51000000D01*
X227500000Y-39000000D02*
X226750000Y-39000000D01*
X227500000Y-51000000D02*
X228500000Y-50000000D01*
X228500000Y-40000000D02*
X227500000Y-39000000D01*
X228500000Y-50000000D02*
X228500000Y-40000000D01*
%TO.C,SW8*%
X161500000Y-40000000D02*
X161500000Y-50000000D01*
X161500000Y-50000000D02*
X162500000Y-51000000D01*
X162500000Y-39000000D02*
X161500000Y-40000000D01*
X162500000Y-51000000D02*
X163250000Y-51000000D01*
X163250000Y-39000000D02*
X162500000Y-39000000D01*
X166750000Y-39000000D02*
X168250000Y-39000000D01*
X166750000Y-51000000D02*
X168250000Y-51000000D01*
X171750000Y-51000000D02*
X172500000Y-51000000D01*
X172500000Y-39000000D02*
X171750000Y-39000000D01*
X172500000Y-51000000D02*
X173500000Y-50000000D01*
X173500000Y-40000000D02*
X172500000Y-39000000D01*
X173500000Y-50000000D02*
X173500000Y-40000000D01*
%TO.C,SW22*%
X179400000Y-68000000D02*
X179400000Y-72000000D01*
X181500000Y-66900000D02*
X183500000Y-66900000D01*
X181500000Y-73100000D02*
X183500000Y-73100000D01*
X185600000Y-68000000D02*
X185600000Y-72000000D01*
%TO.C,SW14*%
X244000000Y-40000000D02*
X244000000Y-50000000D01*
X244000000Y-50000000D02*
X245000000Y-51000000D01*
X245000000Y-39000000D02*
X244000000Y-40000000D01*
X245000000Y-51000000D02*
X245750000Y-51000000D01*
X245750000Y-39000000D02*
X245000000Y-39000000D01*
X249250000Y-39000000D02*
X250750000Y-39000000D01*
X249250000Y-51000000D02*
X250750000Y-51000000D01*
X254250000Y-51000000D02*
X255000000Y-51000000D01*
X255000000Y-39000000D02*
X254250000Y-39000000D01*
X255000000Y-51000000D02*
X256000000Y-50000000D01*
X256000000Y-40000000D02*
X255000000Y-39000000D01*
X256000000Y-50000000D02*
X256000000Y-40000000D01*
%TO.C,SW10*%
X189000000Y-40000000D02*
X189000000Y-50000000D01*
X189000000Y-50000000D02*
X190000000Y-51000000D01*
X190000000Y-39000000D02*
X189000000Y-40000000D01*
X190000000Y-51000000D02*
X190750000Y-51000000D01*
X190750000Y-39000000D02*
X190000000Y-39000000D01*
X194250000Y-39000000D02*
X195750000Y-39000000D01*
X194250000Y-51000000D02*
X195750000Y-51000000D01*
X199250000Y-51000000D02*
X200000000Y-51000000D01*
X200000000Y-39000000D02*
X199250000Y-39000000D01*
X200000000Y-51000000D02*
X201000000Y-50000000D01*
X201000000Y-40000000D02*
X200000000Y-39000000D01*
X201000000Y-50000000D02*
X201000000Y-40000000D01*
%TO.C,SW24*%
X202750000Y-64800000D02*
X202750000Y-75200000D01*
X202750000Y-64800000D02*
X203550000Y-64000000D01*
X203550000Y-76000000D02*
X202750000Y-75200000D01*
X203550000Y-76000000D02*
X204550000Y-76000000D01*
X204550000Y-64000000D02*
X203550000Y-64000000D01*
X207950000Y-64000000D02*
X209550000Y-64000000D01*
X207950000Y-76000000D02*
X209550000Y-76000000D01*
X212950000Y-64000000D02*
X213950000Y-64000000D01*
X212950000Y-76000000D02*
X213950000Y-76000000D01*
X213950000Y-64000000D02*
X214750000Y-64800000D01*
X213950000Y-76000000D02*
X214750000Y-75200000D01*
X214750000Y-75200000D02*
X214750000Y-64800000D01*
%TO.C,SW25*%
X216500000Y-64800000D02*
X216500000Y-75200000D01*
X216500000Y-64800000D02*
X217300000Y-64000000D01*
X217300000Y-76000000D02*
X216500000Y-75200000D01*
X217300000Y-76000000D02*
X218300000Y-76000000D01*
X218300000Y-64000000D02*
X217300000Y-64000000D01*
X221700000Y-64000000D02*
X223300000Y-64000000D01*
X221700000Y-76000000D02*
X223300000Y-76000000D01*
X226700000Y-64000000D02*
X227700000Y-64000000D01*
X226700000Y-76000000D02*
X227700000Y-76000000D01*
X227700000Y-64000000D02*
X228500000Y-64800000D01*
X227700000Y-76000000D02*
X228500000Y-75200000D01*
X228500000Y-75200000D02*
X228500000Y-64800000D01*
%TD*%
M02*
