%TF.GenerationSoftware,KiCad,Pcbnew,9.0.6*%
%TF.CreationDate,2026-01-11T11:54:49+09:00*%
%TF.ProjectId,MH01852029121Z2_MJ-HF_control,4d483031-3835-4323-9032-393132315a32,rev?*%
%TF.SameCoordinates,Original*%
%TF.FileFunction,Legend,Bot*%
%TF.FilePolarity,Positive*%
%FSLAX46Y46*%
G04 Gerber Fmt 4.6, Leading zero omitted, Abs format (unit mm)*
G04 Created by KiCad (PCBNEW 9.0.6) date 2026-01-11 11:54:49*
%MOMM*%
%LPD*%
G01*
G04 APERTURE LIST*
%ADD10C,0.100000*%
%ADD11C,0.500000*%
%ADD12C,0.150000*%
%ADD13C,0.120000*%
G04 APERTURE END LIST*
D10*
G36*
X244902302Y-28621655D02*
G01*
X246512473Y-28621655D01*
X246512473Y-32920329D01*
X244631192Y-32920329D01*
X244404758Y-32881379D01*
X244193047Y-32799609D01*
X243992338Y-32672793D01*
X243800156Y-32495652D01*
X243594614Y-32220058D01*
X243468573Y-31931947D01*
X243415168Y-31624621D01*
X243417532Y-31610272D01*
X244071265Y-31610272D01*
X244097584Y-31817717D01*
X244173042Y-31990076D01*
X244298716Y-32135699D01*
X244459494Y-32246152D01*
X244635654Y-32311779D01*
X244832387Y-32334146D01*
X245908887Y-32334146D01*
X245908887Y-30868689D01*
X244850095Y-30868689D01*
X244710936Y-30874286D01*
X244570131Y-30908684D01*
X244437070Y-30970024D01*
X244316424Y-31058588D01*
X244214846Y-31169623D01*
X244136906Y-31301304D01*
X244087969Y-31447849D01*
X244071265Y-31610272D01*
X243417532Y-31610272D01*
X243452533Y-31397818D01*
X243528108Y-31190437D01*
X243642619Y-30998749D01*
X243791183Y-30835250D01*
X243956100Y-30724982D01*
X244141180Y-30661693D01*
X243983324Y-30582224D01*
X243847042Y-30472307D01*
X243729936Y-30328913D01*
X243642043Y-30165600D01*
X243589937Y-29994468D01*
X243572634Y-29814781D01*
X244193692Y-29814781D01*
X244208047Y-29932571D01*
X244250784Y-30041011D01*
X244317015Y-30138457D01*
X244403741Y-30223888D01*
X244613790Y-30345399D01*
X244727166Y-30376082D01*
X244832387Y-30380204D01*
X245908887Y-30380204D01*
X245908887Y-29188299D01*
X244937411Y-29188299D01*
X244756008Y-29206710D01*
X244586610Y-29261379D01*
X244425723Y-29353773D01*
X244296619Y-29478672D01*
X244220276Y-29629481D01*
X244193692Y-29814781D01*
X243572634Y-29814781D01*
X243572399Y-29812339D01*
X243601324Y-29549932D01*
X243686278Y-29313473D01*
X243819615Y-29101063D01*
X243992497Y-28919326D01*
X244196369Y-28774532D01*
X244421143Y-28674167D01*
X244659920Y-28621619D01*
X244902302Y-28621655D01*
G37*
D11*
X241250000Y-27500000D02*
X248750000Y-27500000D01*
X248750000Y-35000000D01*
X241250000Y-35000000D01*
X241250000Y-27500000D01*
D12*
X173543333Y-81454819D02*
X173543333Y-82169104D01*
X173543333Y-82169104D02*
X173590952Y-82311961D01*
X173590952Y-82311961D02*
X173686190Y-82407200D01*
X173686190Y-82407200D02*
X173829047Y-82454819D01*
X173829047Y-82454819D02*
X173924285Y-82454819D01*
X173162380Y-81454819D02*
X172543333Y-81454819D01*
X172543333Y-81454819D02*
X172876666Y-81835771D01*
X172876666Y-81835771D02*
X172733809Y-81835771D01*
X172733809Y-81835771D02*
X172638571Y-81883390D01*
X172638571Y-81883390D02*
X172590952Y-81931009D01*
X172590952Y-81931009D02*
X172543333Y-82026247D01*
X172543333Y-82026247D02*
X172543333Y-82264342D01*
X172543333Y-82264342D02*
X172590952Y-82359580D01*
X172590952Y-82359580D02*
X172638571Y-82407200D01*
X172638571Y-82407200D02*
X172733809Y-82454819D01*
X172733809Y-82454819D02*
X173019523Y-82454819D01*
X173019523Y-82454819D02*
X173114761Y-82407200D01*
X173114761Y-82407200D02*
X173162380Y-82359580D01*
D13*
%TO.C,J3*%
X160620000Y-54760000D02*
X169250000Y-54760000D01*
X160620000Y-57360000D02*
X169250000Y-57360000D01*
X160620000Y-59900000D02*
X169250000Y-59900000D01*
X160620000Y-62440000D02*
X169250000Y-62440000D01*
X160620000Y-64980000D02*
X169250000Y-64980000D01*
X160620000Y-67520000D02*
X169250000Y-67520000D01*
X160620000Y-70060000D02*
X169250000Y-70060000D01*
X160620000Y-72600000D02*
X169250000Y-72600000D01*
X160620000Y-75140000D02*
X169250000Y-75140000D01*
X160620000Y-77680000D02*
X169250000Y-77680000D01*
X160620000Y-77798100D02*
X169250000Y-77798100D01*
X160620000Y-77916195D02*
X169250000Y-77916195D01*
X160620000Y-78034290D02*
X169250000Y-78034290D01*
X160620000Y-78152385D02*
X169250000Y-78152385D01*
X160620000Y-78270480D02*
X169250000Y-78270480D01*
X160620000Y-78388575D02*
X169250000Y-78388575D01*
X160620000Y-78506670D02*
X169250000Y-78506670D01*
X160620000Y-78624765D02*
X169250000Y-78624765D01*
X160620000Y-78742860D02*
X169250000Y-78742860D01*
X160620000Y-78860955D02*
X169250000Y-78860955D01*
X160620000Y-78979050D02*
X169250000Y-78979050D01*
X160620000Y-79097145D02*
X169250000Y-79097145D01*
X160620000Y-79215240D02*
X169250000Y-79215240D01*
X160620000Y-79333335D02*
X169250000Y-79333335D01*
X160620000Y-79451430D02*
X169250000Y-79451430D01*
X160620000Y-79569525D02*
X169250000Y-79569525D01*
X160620000Y-79687620D02*
X169250000Y-79687620D01*
X160620000Y-79805715D02*
X169250000Y-79805715D01*
X160620000Y-79923810D02*
X169250000Y-79923810D01*
X160620000Y-80041905D02*
X169250000Y-80041905D01*
X160620000Y-80160000D02*
X169250000Y-80160000D01*
X160620000Y-80280000D02*
X160620000Y-54760000D01*
X160620000Y-80280000D02*
X169250000Y-80280000D01*
X169250000Y-55730000D02*
X169660000Y-55730000D01*
X169250000Y-56450000D02*
X169660000Y-56450000D01*
X169250000Y-58270000D02*
X169660000Y-58270000D01*
X169250000Y-58990000D02*
X169660000Y-58990000D01*
X169250000Y-60810000D02*
X169660000Y-60810000D01*
X169250000Y-61530000D02*
X169660000Y-61530000D01*
X169250000Y-63350000D02*
X169660000Y-63350000D01*
X169250000Y-64070000D02*
X169660000Y-64070000D01*
X169250000Y-65890000D02*
X169660000Y-65890000D01*
X169250000Y-66610000D02*
X169660000Y-66610000D01*
X169250000Y-68430000D02*
X169660000Y-68430000D01*
X169250000Y-69150000D02*
X169660000Y-69150000D01*
X169250000Y-70970000D02*
X169660000Y-70970000D01*
X169250000Y-71690000D02*
X169660000Y-71690000D01*
X169250000Y-73510000D02*
X169660000Y-73510000D01*
X169250000Y-74230000D02*
X169660000Y-74230000D01*
X169250000Y-76050000D02*
X169660000Y-76050000D01*
X169250000Y-76770000D02*
X169660000Y-76770000D01*
X169250000Y-78590000D02*
X169660000Y-78590000D01*
X169250000Y-79310000D02*
X169660000Y-79310000D01*
X169250000Y-80280000D02*
X169250000Y-54760000D01*
X171760000Y-55730000D02*
X172200000Y-55730000D01*
X171760000Y-56450000D02*
X172200000Y-56450000D01*
X171760000Y-58270000D02*
X172200000Y-58270000D01*
X171760000Y-58990000D02*
X172200000Y-58990000D01*
X171760000Y-60810000D02*
X172200000Y-60810000D01*
X171760000Y-61530000D02*
X172200000Y-61530000D01*
X171760000Y-63350000D02*
X172200000Y-63350000D01*
X171760000Y-64070000D02*
X172200000Y-64070000D01*
X171760000Y-65890000D02*
X172200000Y-65890000D01*
X171760000Y-66610000D02*
X172200000Y-66610000D01*
X171760000Y-68430000D02*
X172200000Y-68430000D01*
X171760000Y-69150000D02*
X172200000Y-69150000D01*
X171760000Y-70970000D02*
X172200000Y-70970000D01*
X171760000Y-71690000D02*
X172200000Y-71690000D01*
X171760000Y-73510000D02*
X172200000Y-73510000D01*
X171760000Y-74230000D02*
X172200000Y-74230000D01*
X171760000Y-76050000D02*
X172200000Y-76050000D01*
X171760000Y-76770000D02*
X172200000Y-76770000D01*
X171760000Y-78590000D02*
X172140000Y-78590000D01*
X171760000Y-79310000D02*
X172140000Y-79310000D01*
X173250000Y-80280000D02*
X174360000Y-80280000D01*
X174360000Y-80280000D02*
X174360000Y-78950000D01*
%TD*%
M02*
