%TF.GenerationSoftware,KiCad,Pcbnew,9.0.6*%
%TF.CreationDate,2026-01-11T11:54:49+09:00*%
%TF.ProjectId,MH01852029121Z2_MJ-HF_control,4d483031-3835-4323-9032-393132315a32,rev?*%
%TF.SameCoordinates,Original*%
%TF.FileFunction,Copper,L1,Top*%
%TF.FilePolarity,Positive*%
%FSLAX46Y46*%
G04 Gerber Fmt 4.6, Leading zero omitted, Abs format (unit mm)*
G04 Created by KiCad (PCBNEW 9.0.6) date 2026-01-11 11:54:49*
%MOMM*%
%LPD*%
G01*
G04 APERTURE LIST*
G04 Aperture macros list*
%AMRoundRect*
0 Rectangle with rounded corners*
0 $1 Rounding radius*
0 $2 $3 $4 $5 $6 $7 $8 $9 X,Y pos of 4 corners*
0 Add a 4 corners polygon primitive as box body*
4,1,4,$2,$3,$4,$5,$6,$7,$8,$9,$2,$3,0*
0 Add four circle primitives for the rounded corners*
1,1,$1+$1,$2,$3*
1,1,$1+$1,$4,$5*
1,1,$1+$1,$6,$7*
1,1,$1+$1,$8,$9*
0 Add four rect primitives between the rounded corners*
20,1,$1+$1,$2,$3,$4,$5,0*
20,1,$1+$1,$4,$5,$6,$7,0*
20,1,$1+$1,$6,$7,$8,$9,0*
20,1,$1+$1,$8,$9,$2,$3,0*%
G04 Aperture macros list end*
%TA.AperFunction,ComponentPad*%
%ADD10C,2.600000*%
%TD*%
%TA.AperFunction,ComponentPad*%
%ADD11RoundRect,0.354331X-0.545669X-0.545669X0.545669X-0.545669X0.545669X0.545669X-0.545669X0.545669X0*%
%TD*%
%TA.AperFunction,ComponentPad*%
%ADD12C,1.800000*%
%TD*%
%TA.AperFunction,ComponentPad*%
%ADD13R,1.700000X1.700000*%
%TD*%
%TA.AperFunction,ComponentPad*%
%ADD14C,1.700000*%
%TD*%
%TA.AperFunction,ViaPad*%
%ADD15C,0.600000*%
%TD*%
%TA.AperFunction,Conductor*%
%ADD16C,0.400000*%
%TD*%
G04 APERTURE END LIST*
D10*
%TO.P,SW11,1,1*%
%TO.N,/Pin8(B13)_B*%
X206250000Y-38750000D03*
X206250000Y-51250000D03*
%TO.P,SW11,2,2*%
%TO.N,/Pin6(B2)_B*%
X211250000Y-38750000D03*
X211250000Y-51250000D03*
%TD*%
%TO.P,SW23,1,1*%
%TO.N,/Pin11(B15)_B*%
X192500000Y-63750000D03*
X192500000Y-76250000D03*
%TO.P,SW23,2,2*%
%TO.N,/Pin3(B1)_B*%
X197500000Y-63750000D03*
X197500000Y-76250000D03*
%TD*%
%TO.P,SW26,1,1*%
%TO.N,/Pin11(B15)_B*%
X233750000Y-63750000D03*
X233750000Y-76250000D03*
%TO.P,SW26,2,2*%
%TO.N,/Pin2(A1)_B*%
X238750000Y-63750000D03*
X238750000Y-76250000D03*
%TD*%
%TO.P,SW27,1,1*%
%TO.N,/Pin11(B15)_B*%
X247500000Y-63750000D03*
X247500000Y-76250000D03*
%TO.P,SW27,2,2*%
%TO.N,/Pin6(B2)_B*%
X252500000Y-63750000D03*
X252500000Y-76250000D03*
%TD*%
D11*
%TO.P,J1,1,Pin_1*%
%TO.N,/Pin1(B16)_B*%
X171250000Y-28250000D03*
D12*
%TO.P,J1,2,Pin_2*%
%TO.N,/Pin2(A1)_B*%
X173750000Y-28250000D03*
%TO.P,J1,3,Pin_3*%
%TO.N,/Pin3(B1)_B*%
X176250000Y-28250000D03*
%TO.P,J1,4,Pin_4*%
%TO.N,/Pin4(B11)_B*%
X178750000Y-28250000D03*
%TO.P,J1,5,Pin_5*%
%TO.N,/Pin5(B12)_B*%
X181250000Y-28250000D03*
%TO.P,J1,6,Pin_6*%
%TO.N,/Pin6(B2)_B*%
X183750000Y-28250000D03*
%TO.P,J1,7,Pin_7*%
%TO.N,/Pin7(B3)_B*%
X186250000Y-28250000D03*
%TO.P,J1,8,Pin_8*%
%TO.N,/Pin8(B13)_B*%
X188750000Y-28250000D03*
%TO.P,J1,9,Pin_9*%
%TO.N,/Pin9(B14)_B*%
X191250000Y-28250000D03*
%TO.P,J1,10,Pin_10*%
%TO.N,/Pin10(A2)_B*%
X193750000Y-28250000D03*
%TO.P,J1,11,Pin_11*%
%TO.N,/Pin11(B15)_B*%
X196250000Y-28250000D03*
%TO.P,J1,12,Pin_12*%
%TO.N,/Pin12(A5)_B*%
X198750000Y-28250000D03*
%TO.P,J1,13,Pin_13*%
%TO.N,/Pin13(A17)_B*%
X201250000Y-28250000D03*
%TD*%
D10*
%TO.P,SW13,1,1*%
%TO.N,/Pin9(B14)_B*%
X233750000Y-38750000D03*
X233750000Y-51250000D03*
%TO.P,SW13,2,2*%
%TO.N,/Pin3(B1)_B*%
X238750000Y-38750000D03*
X238750000Y-51250000D03*
%TD*%
%TO.P,SW9,1,1*%
%TO.N,/Pin8(B13)_B*%
X178750000Y-38750000D03*
X178750000Y-51250000D03*
%TO.P,SW9,2,2*%
%TO.N,/Pin3(B1)_B*%
X183750000Y-38750000D03*
X183750000Y-51250000D03*
%TD*%
%TO.P,SW12,1,1*%
%TO.N,/Pin8(B13)_B*%
X220000000Y-38750000D03*
X220000000Y-51250000D03*
%TO.P,SW12,2,2*%
%TO.N,/Pin10(A2)_B*%
X225000000Y-38750000D03*
X225000000Y-51250000D03*
%TD*%
%TO.P,SW8,1,1*%
%TO.N,/Pin5(B12)_B*%
X165000000Y-38750000D03*
X165000000Y-51250000D03*
%TO.P,SW8,2,2*%
%TO.N,/Pin10(A2)_B*%
X170000000Y-38750000D03*
X170000000Y-51250000D03*
%TD*%
D12*
%TO.P,SW22,1,1*%
%TO.N,/Pin4(B11)_B*%
X180250000Y-66750000D03*
X180250000Y-73250000D03*
%TO.P,SW22,2,2*%
%TO.N,/Pin7(B3)_B*%
X184750000Y-66750000D03*
X184750000Y-73250000D03*
%TD*%
D10*
%TO.P,SW14,1,1*%
%TO.N,/Pin9(B14)_B*%
X247500000Y-38750000D03*
X247500000Y-51250000D03*
%TO.P,SW14,2,2*%
%TO.N,/Pin2(A1)_B*%
X252500000Y-38750000D03*
X252500000Y-51250000D03*
%TD*%
%TO.P,SW10,1,1*%
%TO.N,/Pin8(B13)_B*%
X192500000Y-38750000D03*
X192500000Y-51250000D03*
%TO.P,SW10,2,2*%
%TO.N,/Pin2(A1)_B*%
X197500000Y-38750000D03*
X197500000Y-51250000D03*
%TD*%
%TO.P,SW24,1,1*%
%TO.N,/Pin11(B15)_B*%
X206250000Y-63750000D03*
X206250000Y-76250000D03*
%TO.P,SW24,2,2*%
%TO.N,/Pin10(A2)_B*%
X211250000Y-63750000D03*
X211250000Y-76250000D03*
%TD*%
%TO.P,SW25,1,1*%
%TO.N,/Pin9(B14)_B*%
X220000000Y-63750000D03*
X220000000Y-76250000D03*
%TO.P,SW25,2,2*%
%TO.N,/Pin6(B2)_B*%
X225000000Y-63750000D03*
X225000000Y-76250000D03*
%TD*%
D13*
%TO.P,J3,1,Pin_1*%
%TO.N,/Pin5(B12)_B*%
X173250000Y-78950000D03*
D14*
%TO.P,J3,2,Pin_2*%
%TO.N,/Pin8(B13)_B*%
X170710000Y-78950000D03*
%TO.P,J3,3,Pin_3*%
%TO.N,/Pin1(B16)_B*%
X173250000Y-76410000D03*
%TO.P,J3,4,Pin_4*%
%TO.N,/Pin4(B11)_B*%
X170710000Y-76410000D03*
%TO.P,J3,5,Pin_5*%
%TO.N,/Pin9(B14)_B*%
X173250000Y-73870000D03*
%TO.P,J3,6,Pin_6*%
%TO.N,/Pin11(B15)_B*%
X170710000Y-73870000D03*
%TO.P,J3,7,Pin_7*%
%TO.N,unconnected-(J3-Pin_7-Pad7)*%
X173250000Y-71330000D03*
%TO.P,J3,8,Pin_8*%
%TO.N,unconnected-(J3-Pin_8-Pad8)*%
X170710000Y-71330000D03*
%TO.P,J3,9,Pin_9*%
%TO.N,unconnected-(J3-Pin_9-Pad9)*%
X173250000Y-68790000D03*
%TO.P,J3,10,Pin_10*%
%TO.N,unconnected-(J3-Pin_10-Pad10)*%
X170710000Y-68790000D03*
%TO.P,J3,11,Pin_11*%
%TO.N,/Pin12(A5)_B*%
X173250000Y-66250000D03*
%TO.P,J3,12,Pin_12*%
%TO.N,/Pin13(A17)_B*%
X170710000Y-66250000D03*
%TO.P,J3,13,Pin_13*%
%TO.N,unconnected-(J3-Pin_13-Pad13)*%
X173250000Y-63710000D03*
%TO.P,J3,14,Pin_14*%
%TO.N,unconnected-(J3-Pin_14-Pad14)*%
X170710000Y-63710000D03*
%TO.P,J3,15,Pin_15*%
%TO.N,unconnected-(J3-Pin_15-Pad15)*%
X173250000Y-61170000D03*
%TO.P,J3,16,Pin_16*%
%TO.N,/Pin2(A1)_B*%
X170710000Y-61170000D03*
%TO.P,J3,17,Pin_17*%
%TO.N,/Pin10(A2)_B*%
X173250000Y-58630000D03*
%TO.P,J3,18,Pin_18*%
%TO.N,/Pin3(B1)_B*%
X170710000Y-58630000D03*
%TO.P,J3,19,Pin_19*%
%TO.N,/Pin6(B2)_B*%
X173250000Y-56090000D03*
%TO.P,J3,20,Pin_20*%
%TO.N,/Pin7(B3)_B*%
X170710000Y-56090000D03*
%TD*%
D15*
%TO.N,/Pin2(A1)_B*%
X172500000Y-49250000D03*
X174750000Y-49250000D03*
X197500000Y-49250000D03*
X238750000Y-66294000D03*
X252500000Y-49250000D03*
X250698000Y-66294000D03*
%TO.N,/Pin13(A17)_B*%
X195500000Y-70000000D03*
%TO.N,/Pin7(B3)_B*%
X169000000Y-56250000D03*
X169000000Y-72619000D03*
X184750000Y-71000000D03*
%TO.N,/Pin5(B12)_B*%
X176750000Y-41500000D03*
X165000000Y-41500000D03*
X165000000Y-80250000D03*
%TO.N,/Pin10(A2)_B*%
X170000000Y-40750000D03*
X211250000Y-67818000D03*
X223139000Y-67818000D03*
X225000000Y-41500000D03*
X189250000Y-40750000D03*
%TO.N,/Pin1(B16)_B*%
X168000000Y-77699000D03*
%TO.N,/Pin8(B13)_B*%
X192500000Y-43000000D03*
X192500000Y-40750000D03*
X178750000Y-43000000D03*
X220000000Y-40750000D03*
X187500000Y-43000000D03*
X206250000Y-40750000D03*
%TO.N,/Pin11(B15)_B*%
X175250000Y-75121000D03*
X192500000Y-74250000D03*
X233750000Y-66294000D03*
X233750000Y-74250000D03*
X206250000Y-66294000D03*
X206250000Y-74250000D03*
X247500000Y-74250000D03*
X192500000Y-66294000D03*
%TO.N,/Pin6(B2)_B*%
X252500000Y-68580000D03*
X179750000Y-43750000D03*
X225000000Y-68580000D03*
X211250000Y-43750000D03*
X209500000Y-68580000D03*
X173250000Y-43750000D03*
%TO.N,/Pin9(B14)_B*%
X247500000Y-48500000D03*
X233750000Y-48500000D03*
X220000000Y-71750000D03*
X231902000Y-71755000D03*
X188500000Y-71750000D03*
%TO.N,/Pin12(A5)_B*%
X194250000Y-69250000D03*
%TO.N,/Pin3(B1)_B*%
X197500000Y-68500000D03*
X197500000Y-67056000D03*
X236982000Y-67056000D03*
X183750000Y-44500000D03*
X175250000Y-44500000D03*
X186500000Y-68500000D03*
%TO.N,/Pin4(B11)_B*%
X181000000Y-42250000D03*
X176000000Y-42250000D03*
%TD*%
D16*
%TO.N,/Pin2(A1)_B*%
X174750000Y-49250000D02*
X172500000Y-49250000D01*
X174750000Y-49250000D02*
X197500000Y-49250000D01*
X250698000Y-66294000D02*
X238750000Y-66294000D01*
X252500000Y-49250000D02*
X197500000Y-49250000D01*
%TO.N,/Pin13(A17)_B*%
X171960000Y-67500000D02*
X170710000Y-66250000D01*
X195500000Y-70000000D02*
X176750000Y-70000000D01*
X174250000Y-67500000D02*
X171960000Y-67500000D01*
X176750000Y-70000000D02*
X174250000Y-67500000D01*
%TO.N,/Pin7(B3)_B*%
X174131000Y-72619000D02*
X175750000Y-71000000D01*
X170175000Y-56250000D02*
X170335000Y-56090000D01*
X175750000Y-71000000D02*
X184750000Y-71000000D01*
X169000000Y-72619000D02*
X174131000Y-72619000D01*
X169000000Y-56250000D02*
X170175000Y-56250000D01*
X170335000Y-56090000D02*
X170710000Y-56090000D01*
%TO.N,/Pin5(B12)_B*%
X171950000Y-80250000D02*
X173250000Y-78950000D01*
X165000000Y-41500000D02*
X176750000Y-41500000D01*
X165000000Y-80250000D02*
X171950000Y-80250000D01*
%TO.N,/Pin10(A2)_B*%
X223139000Y-67818000D02*
X211250000Y-67818000D01*
X170000000Y-40750000D02*
X189250000Y-40750000D01*
X225000000Y-41500000D02*
X190000000Y-41500000D01*
X190000000Y-41500000D02*
X189250000Y-40750000D01*
%TO.N,/Pin1(B16)_B*%
X171961000Y-77699000D02*
X173250000Y-76410000D01*
X168000000Y-77699000D02*
X171961000Y-77699000D01*
%TO.N,/Pin8(B13)_B*%
X185000000Y-43000000D02*
X187500000Y-43000000D01*
X206250000Y-40750000D02*
X220000000Y-40750000D01*
X178750000Y-43000000D02*
X185000000Y-43000000D01*
X187500000Y-43000000D02*
X192500000Y-43000000D01*
X192500000Y-40750000D02*
X206250000Y-40750000D01*
%TO.N,/Pin11(B15)_B*%
X175250000Y-75121000D02*
X185879000Y-75121000D01*
X206250000Y-74250000D02*
X233750000Y-74250000D01*
X233750000Y-74250000D02*
X247500000Y-74250000D01*
X192500000Y-74250000D02*
X206250000Y-74250000D01*
X186750000Y-74250000D02*
X192500000Y-74250000D01*
X185879000Y-75121000D02*
X186750000Y-74250000D01*
X192500000Y-66294000D02*
X206250000Y-66294000D01*
X206250000Y-66294000D02*
X233750000Y-66294000D01*
%TO.N,/Pin6(B2)_B*%
X225000000Y-68580000D02*
X209500000Y-68580000D01*
X179750000Y-43750000D02*
X211250000Y-43750000D01*
X173250000Y-43750000D02*
X179750000Y-43750000D01*
X225000000Y-68580000D02*
X252500000Y-68580000D01*
%TO.N,/Pin9(B14)_B*%
X247500000Y-48500000D02*
X233750000Y-48500000D01*
X174130000Y-73870000D02*
X173250000Y-73870000D01*
X188500000Y-71750000D02*
X220000000Y-71750000D01*
X220000000Y-71750000D02*
X231897000Y-71750000D01*
X188500000Y-71750000D02*
X176250000Y-71750000D01*
X176250000Y-71750000D02*
X174130000Y-73870000D01*
X231897000Y-71750000D02*
X231902000Y-71755000D01*
%TO.N,/Pin12(A5)_B*%
X177531250Y-69250000D02*
X174531250Y-66250000D01*
X174531250Y-66250000D02*
X173250000Y-66250000D01*
X194250000Y-69250000D02*
X177531250Y-69250000D01*
%TO.N,/Pin3(B1)_B*%
X183750000Y-44500000D02*
X175250000Y-44500000D01*
X186500000Y-68500000D02*
X178000000Y-68500000D01*
X169961000Y-64961000D02*
X169250000Y-64250000D01*
X178000000Y-68500000D02*
X174461000Y-64961000D01*
X169250000Y-60090000D02*
X170710000Y-58630000D01*
X174461000Y-64961000D02*
X169961000Y-64961000D01*
X197500000Y-67056000D02*
X236982000Y-67056000D01*
X197500000Y-68500000D02*
X186500000Y-68500000D01*
X169250000Y-64250000D02*
X169250000Y-60090000D01*
%TO.N,/Pin4(B11)_B*%
X171961000Y-75159000D02*
X174091000Y-75159000D01*
X181000000Y-42250000D02*
X176000000Y-42250000D01*
X174091000Y-75159000D02*
X176000000Y-73250000D01*
X176000000Y-73250000D02*
X180250000Y-73250000D01*
X170710000Y-76410000D02*
X171961000Y-75159000D01*
%TD*%
M02*
