%TF.GenerationSoftware,KiCad,Pcbnew,9.0.6*%
%TF.CreationDate,2026-01-11T11:54:49+09:00*%
%TF.ProjectId,MH01852029121Z2_MJ-HF_control,4d483031-3835-4323-9032-393132315a32,rev?*%
%TF.SameCoordinates,Original*%
%TF.FileFunction,Copper,L2,Bot*%
%TF.FilePolarity,Positive*%
%FSLAX46Y46*%
G04 Gerber Fmt 4.6, Leading zero omitted, Abs format (unit mm)*
G04 Created by KiCad (PCBNEW 9.0.6) date 2026-01-11 11:54:49*
%MOMM*%
%LPD*%
G01*
G04 APERTURE LIST*
G04 Aperture macros list*
%AMRoundRect*
0 Rectangle with rounded corners*
0 $1 Rounding radius*
0 $2 $3 $4 $5 $6 $7 $8 $9 X,Y pos of 4 corners*
0 Add a 4 corners polygon primitive as box body*
4,1,4,$2,$3,$4,$5,$6,$7,$8,$9,$2,$3,0*
0 Add four circle primitives for the rounded corners*
1,1,$1+$1,$2,$3*
1,1,$1+$1,$4,$5*
1,1,$1+$1,$6,$7*
1,1,$1+$1,$8,$9*
0 Add four rect primitives between the rounded corners*
20,1,$1+$1,$2,$3,$4,$5,0*
20,1,$1+$1,$4,$5,$6,$7,0*
20,1,$1+$1,$6,$7,$8,$9,0*
20,1,$1+$1,$8,$9,$2,$3,0*%
G04 Aperture macros list end*
%ADD10C,0.250000*%
%TA.AperFunction,ComponentPad*%
%ADD11C,2.600000*%
%TD*%
%TA.AperFunction,ComponentPad*%
%ADD12RoundRect,0.354331X-0.545669X-0.545669X0.545669X-0.545669X0.545669X0.545669X-0.545669X0.545669X0*%
%TD*%
%TA.AperFunction,ComponentPad*%
%ADD13C,1.800000*%
%TD*%
%TA.AperFunction,ComponentPad*%
%ADD14R,1.700000X1.700000*%
%TD*%
%TA.AperFunction,ComponentPad*%
%ADD15C,1.700000*%
%TD*%
%TA.AperFunction,ViaPad*%
%ADD16C,0.600000*%
%TD*%
%TA.AperFunction,Conductor*%
%ADD17C,0.400000*%
%TD*%
G04 APERTURE END LIST*
D10*
G36*
X231588746Y-85363203D02*
G01*
X231682877Y-85406554D01*
X231770760Y-85481929D01*
X231837039Y-85577106D01*
X231877868Y-85690525D01*
X231892271Y-85827166D01*
X231878686Y-85949330D01*
X231840044Y-86050881D01*
X231776866Y-86136378D01*
X231693731Y-86202570D01*
X231599943Y-86241846D01*
X231491957Y-86255324D01*
X231383343Y-86241695D01*
X231291114Y-86202314D01*
X231211322Y-86136378D01*
X231152178Y-86050878D01*
X231114791Y-85943097D01*
X231101290Y-85806772D01*
X231114964Y-85670577D01*
X231153131Y-85561035D01*
X231214009Y-85472404D01*
X231295598Y-85402798D01*
X231384889Y-85362356D01*
X231485118Y-85348695D01*
X231588746Y-85363203D01*
G37*
G36*
X234686464Y-85357788D02*
G01*
X234757130Y-85384175D01*
X234819837Y-85428115D01*
X234875942Y-85491943D01*
X234924053Y-85583304D01*
X234964089Y-85717198D01*
X234992181Y-85906792D01*
X235002948Y-86167397D01*
X234992814Y-86430419D01*
X234966746Y-86615838D01*
X234930312Y-86741609D01*
X234887543Y-86823066D01*
X234823383Y-86897281D01*
X234755455Y-86947124D01*
X234682595Y-86976274D01*
X234602634Y-86986099D01*
X234522779Y-86976244D01*
X234449976Y-86946990D01*
X234382053Y-86896932D01*
X234317847Y-86822334D01*
X234274978Y-86740529D01*
X234238507Y-86614635D01*
X234212443Y-86429501D01*
X234202320Y-86167397D01*
X234212483Y-85903545D01*
X234238606Y-85717884D01*
X234275079Y-85592243D01*
X234317847Y-85511116D01*
X234381947Y-85437405D01*
X234450278Y-85387720D01*
X234524039Y-85358554D01*
X234605443Y-85348695D01*
X234686464Y-85357788D01*
G37*
G36*
X239380967Y-86190338D02*
G01*
X239475568Y-86228343D01*
X239557711Y-86291594D01*
X239620835Y-86373749D01*
X239658683Y-86467858D01*
X239671772Y-86577602D01*
X239659463Y-86680100D01*
X239621946Y-86780446D01*
X239583266Y-86840921D01*
X239534201Y-86891261D01*
X239473691Y-86932365D01*
X239371657Y-86972627D01*
X239261810Y-86986099D01*
X239148972Y-86973010D01*
X239053314Y-86935396D01*
X238970917Y-86873136D01*
X238907537Y-86791621D01*
X238869379Y-86697106D01*
X238856123Y-86585662D01*
X238869721Y-86472670D01*
X238908959Y-86376405D01*
X238974337Y-86292937D01*
X239059070Y-86228965D01*
X239156396Y-86190495D01*
X239270115Y-86177166D01*
X239380967Y-86190338D01*
G37*
G36*
X239356130Y-85359048D02*
G01*
X239432995Y-85388851D01*
X239499581Y-85438210D01*
X239551706Y-85502523D01*
X239582187Y-85573025D01*
X239592515Y-85652166D01*
X239581889Y-85742263D01*
X239551428Y-85817978D01*
X239501046Y-85882609D01*
X239435180Y-85931584D01*
X239357086Y-85961496D01*
X239263276Y-85972002D01*
X239172136Y-85961640D01*
X239095554Y-85932001D01*
X239030268Y-85883220D01*
X238979644Y-85819345D01*
X238949671Y-85747725D01*
X238939410Y-85665722D01*
X238950027Y-85580262D01*
X238980964Y-85506006D01*
X239033077Y-85440163D01*
X239100151Y-85389559D01*
X239176804Y-85359193D01*
X239265963Y-85348695D01*
X239356130Y-85359048D01*
G37*
G36*
X242463156Y-85357788D02*
G01*
X242533823Y-85384175D01*
X242596529Y-85428115D01*
X242652634Y-85491943D01*
X242700745Y-85583304D01*
X242740781Y-85717198D01*
X242768874Y-85906792D01*
X242779640Y-86167397D01*
X242769506Y-86430419D01*
X242743438Y-86615838D01*
X242707004Y-86741609D01*
X242664235Y-86823066D01*
X242600075Y-86897281D01*
X242532148Y-86947124D01*
X242459287Y-86976274D01*
X242379326Y-86986099D01*
X242299471Y-86976244D01*
X242226669Y-86946990D01*
X242158745Y-86896932D01*
X242094539Y-86822334D01*
X242051670Y-86740529D01*
X242015199Y-86614635D01*
X241989135Y-86429501D01*
X241979012Y-86167397D01*
X241989175Y-85903545D01*
X242015298Y-85717884D01*
X242051771Y-85592243D01*
X242094539Y-85511116D01*
X242158639Y-85437405D01*
X242226970Y-85387720D01*
X242300731Y-85358554D01*
X242382135Y-85348695D01*
X242463156Y-85357788D01*
G37*
G36*
X211425209Y-86927480D02*
G01*
X210926587Y-86927480D01*
X210746214Y-86917711D01*
X210659850Y-86894665D01*
X210593318Y-86862267D01*
X210538181Y-86815600D01*
X210492201Y-86749183D01*
X210462793Y-86670727D01*
X210452512Y-86577725D01*
X210459175Y-86503637D01*
X210478420Y-86438293D01*
X210509909Y-86380010D01*
X210552867Y-86329790D01*
X210605450Y-86290672D01*
X210669155Y-86262041D01*
X210782249Y-86237832D01*
X210962124Y-86227969D01*
X211425209Y-86227969D01*
X211425209Y-86927480D01*
G37*
G36*
X211425209Y-85995450D02*
G01*
X210992166Y-85995450D01*
X210828395Y-85988349D01*
X210739375Y-85972002D01*
X210648870Y-85930359D01*
X210587090Y-85871252D01*
X210549276Y-85794065D01*
X210535799Y-85694542D01*
X210548099Y-85598522D01*
X210583670Y-85517100D01*
X210620110Y-85471378D01*
X210665199Y-85436677D01*
X210720324Y-85412198D01*
X210824976Y-85392543D01*
X211025017Y-85383866D01*
X211425209Y-85383866D01*
X211425209Y-85995450D01*
G37*
G36*
X247514493Y-87934943D02*
G01*
X209955639Y-87934943D01*
X209955639Y-87712721D01*
X221187229Y-87712721D01*
X222817184Y-87712721D01*
X222817184Y-87535157D01*
X221187229Y-87535157D01*
X221187229Y-87712721D01*
X209955639Y-87712721D01*
X209955639Y-86576748D01*
X210177861Y-86576748D01*
X210177968Y-86577725D01*
X210192887Y-86713794D01*
X210237334Y-86839553D01*
X210305757Y-86949563D01*
X210384246Y-87026887D01*
X210479768Y-87083296D01*
X210603576Y-87126416D01*
X210742946Y-87150828D01*
X210926587Y-87160000D01*
X211690334Y-87160000D01*
X211690334Y-86558185D01*
X211982937Y-86558185D01*
X212738503Y-86558185D01*
X212738503Y-86308080D01*
X211982937Y-86308080D01*
X211982937Y-86558185D01*
X211690334Y-86558185D01*
X211690334Y-85383866D01*
X212956245Y-85383866D01*
X214042393Y-85383866D01*
X214042393Y-86011081D01*
X213102424Y-86011081D01*
X213102424Y-86243600D01*
X214042393Y-86243600D01*
X214042393Y-87160000D01*
X214307397Y-87160000D01*
X214762177Y-87160000D01*
X215027180Y-87160000D01*
X215027180Y-86212337D01*
X216068265Y-86212337D01*
X216068265Y-87160000D01*
X216333269Y-87160000D01*
X216333269Y-86558185D01*
X216645045Y-86558185D01*
X217400610Y-86558185D01*
X217400610Y-86518129D01*
X217706646Y-86518129D01*
X217714707Y-86686353D01*
X217736126Y-86813606D01*
X217767463Y-86908063D01*
X217816078Y-86993188D01*
X217879777Y-87062854D01*
X217960048Y-87118722D01*
X218050584Y-87158205D01*
X218152971Y-87182713D01*
X218269504Y-87191263D01*
X218400487Y-87180668D01*
X218475942Y-87160000D01*
X219100418Y-87160000D01*
X219355896Y-87160000D01*
X219355896Y-85477899D01*
X219937927Y-87160000D01*
X220177041Y-87160000D01*
X220756263Y-85449200D01*
X220756263Y-87160000D01*
X221011741Y-87160000D01*
X221011741Y-86927480D01*
X222921598Y-86927480D01*
X222921598Y-87160000D01*
X224245394Y-87160000D01*
X224239603Y-87072929D01*
X224216695Y-86989518D01*
X224186409Y-86927480D01*
X224400366Y-86927480D01*
X224400366Y-87160000D01*
X225983792Y-87160000D01*
X226552756Y-87160000D01*
X226798709Y-87160000D01*
X226798709Y-86927480D01*
X227741974Y-86927480D01*
X227741974Y-87160000D01*
X229065771Y-87160000D01*
X229663433Y-87160000D01*
X229909385Y-87160000D01*
X229909385Y-86113419D01*
X230827983Y-86113419D01*
X230838846Y-86370415D01*
X230868083Y-86571102D01*
X230911392Y-86725491D01*
X230978398Y-86869464D01*
X231061023Y-86983595D01*
X231159298Y-87072316D01*
X231274030Y-87137823D01*
X231401600Y-87177566D01*
X231545324Y-87191263D01*
X231661730Y-87182365D01*
X231762914Y-87156951D01*
X231851435Y-87116100D01*
X231929274Y-87059738D01*
X231994594Y-86989471D01*
X232032903Y-86927480D01*
X232407990Y-86927480D01*
X232407990Y-87160000D01*
X233731786Y-87160000D01*
X233725995Y-87072929D01*
X233703087Y-86989518D01*
X233639137Y-86858521D01*
X233541277Y-86723660D01*
X233414537Y-86591403D01*
X233219487Y-86420921D01*
X233003378Y-86233967D01*
X232936542Y-86168129D01*
X233949651Y-86168129D01*
X233958996Y-86404074D01*
X233984315Y-86591259D01*
X234022069Y-86737826D01*
X234080716Y-86875955D01*
X234153005Y-86986247D01*
X234238590Y-87072927D01*
X234340420Y-87137418D01*
X234460227Y-87177246D01*
X234602634Y-87191263D01*
X234743564Y-87177474D01*
X234863827Y-87138072D01*
X234967614Y-87073958D01*
X235057658Y-86983290D01*
X235093868Y-86927480D01*
X235518667Y-86927480D01*
X235518667Y-87160000D01*
X236842463Y-87160000D01*
X236836672Y-87072929D01*
X236813764Y-86989518D01*
X236749814Y-86858521D01*
X236651953Y-86723660D01*
X236525214Y-86591403D01*
X236392199Y-86475143D01*
X237038468Y-86475143D01*
X237048785Y-86609637D01*
X237078814Y-86731769D01*
X237128014Y-86843671D01*
X237196981Y-86947020D01*
X237279835Y-87035113D01*
X237372218Y-87102532D01*
X237475406Y-87150985D01*
X237591433Y-87180874D01*
X237722958Y-87191263D01*
X237858238Y-87180844D01*
X237975800Y-87151081D01*
X238078640Y-87103222D01*
X238169068Y-87037145D01*
X238245507Y-86954730D01*
X238303544Y-86860528D01*
X238344016Y-86752676D01*
X238366416Y-86628527D01*
X238108251Y-86606667D01*
X238078627Y-86728201D01*
X238033741Y-86821042D01*
X237975017Y-86890966D01*
X237900726Y-86943723D01*
X237817624Y-86975266D01*
X237722958Y-86986099D01*
X237637036Y-86977599D01*
X237559454Y-86952727D01*
X237488335Y-86911318D01*
X237422418Y-86851765D01*
X237369980Y-86781414D01*
X237331781Y-86700061D01*
X237307866Y-86605626D01*
X237306153Y-86583220D01*
X238604675Y-86583220D01*
X238604903Y-86585662D01*
X238616349Y-86708446D01*
X238650330Y-86820673D01*
X238706453Y-86922576D01*
X238786392Y-87016018D01*
X238882144Y-87091256D01*
X238991840Y-87145608D01*
X239118147Y-87179408D01*
X239264619Y-87191263D01*
X239411047Y-87179366D01*
X239483137Y-87160000D01*
X240550802Y-87160000D01*
X240796755Y-87160000D01*
X240796755Y-86168129D01*
X241726343Y-86168129D01*
X241735689Y-86404074D01*
X241761008Y-86591259D01*
X241798761Y-86737826D01*
X241857409Y-86875955D01*
X241929697Y-86986247D01*
X242015282Y-87072927D01*
X242117112Y-87137418D01*
X242236919Y-87177246D01*
X242379326Y-87191263D01*
X242520257Y-87177474D01*
X242573591Y-87160000D01*
X243373761Y-87160000D01*
X243638764Y-87160000D01*
X243638764Y-86212337D01*
X244679849Y-86212337D01*
X244679849Y-87160000D01*
X244944853Y-87160000D01*
X245380949Y-87160000D01*
X245636427Y-87160000D01*
X245636427Y-85477899D01*
X246218457Y-87160000D01*
X246457571Y-87160000D01*
X247036793Y-85449200D01*
X247036793Y-87160000D01*
X247292271Y-87160000D01*
X247292271Y-85151346D01*
X246893422Y-85151346D01*
X246419347Y-86574183D01*
X246323726Y-86871671D01*
X246217114Y-86549515D01*
X245737543Y-85151346D01*
X245380949Y-85151346D01*
X245380949Y-87160000D01*
X244944853Y-87160000D01*
X244944853Y-85151346D01*
X244679849Y-85151346D01*
X244679849Y-85979818D01*
X243638764Y-85979818D01*
X243638764Y-85151346D01*
X243373761Y-85151346D01*
X243373761Y-87160000D01*
X242573591Y-87160000D01*
X242640519Y-87138072D01*
X242744307Y-87073958D01*
X242834351Y-86983290D01*
X242898475Y-86884456D01*
X242952371Y-86759247D01*
X242994486Y-86602367D01*
X243022293Y-86407638D01*
X243032431Y-86168129D01*
X243022982Y-85930184D01*
X242997428Y-85742165D01*
X242959403Y-85595624D01*
X242900296Y-85457507D01*
X242827760Y-85347478D01*
X242742149Y-85261256D01*
X242640309Y-85197057D01*
X242520874Y-85157452D01*
X242379326Y-85143531D01*
X242273477Y-85151164D01*
X242179892Y-85173098D01*
X242096615Y-85208499D01*
X242020732Y-85257814D01*
X241953992Y-85319893D01*
X241895725Y-85395956D01*
X241826770Y-85527515D01*
X241771406Y-85694176D01*
X241739122Y-85885242D01*
X241726376Y-86167397D01*
X241726343Y-86168129D01*
X240796755Y-86168129D01*
X240796755Y-85588785D01*
X240894624Y-85670214D01*
X241029640Y-85758656D01*
X241171730Y-85835539D01*
X241288538Y-85886029D01*
X241288538Y-85651556D01*
X241154772Y-85580394D01*
X241034927Y-85501243D01*
X240927913Y-85414152D01*
X240829735Y-85316309D01*
X240758330Y-85226486D01*
X240709316Y-85143531D01*
X240550802Y-85143531D01*
X240550802Y-87160000D01*
X239483137Y-87160000D01*
X239537337Y-87145440D01*
X239647049Y-87090867D01*
X239742847Y-87015286D01*
X239822469Y-86921609D01*
X239878583Y-86818678D01*
X239912688Y-86704532D01*
X239924441Y-86576381D01*
X239912707Y-86449155D01*
X239879320Y-86341104D01*
X239825401Y-86248485D01*
X239751620Y-86170992D01*
X239658800Y-86111027D01*
X239543300Y-86068356D01*
X239640327Y-86023488D01*
X239714662Y-85970128D01*
X239770080Y-85908499D01*
X239810464Y-85836150D01*
X239835229Y-85754050D01*
X239843841Y-85659860D01*
X239833784Y-85553744D01*
X239804481Y-85458559D01*
X239756003Y-85372011D01*
X239686793Y-85292519D01*
X239604176Y-85228844D01*
X239508709Y-85182600D01*
X239397942Y-85153702D01*
X239268649Y-85143531D01*
X239138889Y-85153882D01*
X239027281Y-85183352D01*
X238930651Y-85230640D01*
X238846598Y-85295938D01*
X238775922Y-85377260D01*
X238726596Y-85465024D01*
X238696898Y-85560762D01*
X238686835Y-85665722D01*
X238686741Y-85666699D01*
X238695191Y-85757242D01*
X238719665Y-85837393D01*
X238759891Y-85909232D01*
X238814668Y-85970629D01*
X238887482Y-86023721D01*
X238981786Y-86068356D01*
X238865460Y-86118466D01*
X238773098Y-86183231D01*
X238701029Y-86262773D01*
X238648208Y-86356364D01*
X238615893Y-86462185D01*
X238604675Y-86583220D01*
X237306153Y-86583220D01*
X237299441Y-86495415D01*
X237307611Y-86390616D01*
X237330688Y-86301961D01*
X237367390Y-86226607D01*
X237417655Y-86162390D01*
X237503134Y-86095402D01*
X237604671Y-86054676D01*
X237726988Y-86040390D01*
X237841105Y-86054387D01*
X237941556Y-86095345D01*
X238027528Y-86158938D01*
X238091765Y-86237739D01*
X238322697Y-86207697D01*
X238128646Y-85174794D01*
X237132745Y-85174794D01*
X237132745Y-85407313D01*
X237931908Y-85407313D01*
X238039863Y-85952219D01*
X237914876Y-85879441D01*
X237789544Y-85837372D01*
X237661409Y-85823503D01*
X237533668Y-85835231D01*
X237418965Y-85869381D01*
X237314647Y-85925755D01*
X237218841Y-86005952D01*
X237140730Y-86102461D01*
X237084867Y-86211107D01*
X237050451Y-86334256D01*
X237038468Y-86475143D01*
X236392199Y-86475143D01*
X236330163Y-86420921D01*
X236114055Y-86233967D01*
X235973263Y-86095278D01*
X235888939Y-85994717D01*
X235822104Y-85885622D01*
X235785579Y-85787484D01*
X235774145Y-85697351D01*
X235785942Y-85603908D01*
X235820409Y-85522367D01*
X235878681Y-85449689D01*
X235953730Y-85394460D01*
X236043190Y-85360613D01*
X236151133Y-85348695D01*
X236265139Y-85361438D01*
X236358360Y-85397455D01*
X236435432Y-85456039D01*
X236493114Y-85533671D01*
X236529563Y-85630860D01*
X236543265Y-85753161D01*
X236796057Y-85727027D01*
X236772356Y-85586153D01*
X236731154Y-85469371D01*
X236673925Y-85372624D01*
X236600662Y-85292885D01*
X236512367Y-85229624D01*
X236409129Y-85183172D01*
X236288121Y-85153894D01*
X236145760Y-85143531D01*
X236002550Y-85154625D01*
X235881144Y-85185988D01*
X235777730Y-85235893D01*
X235689392Y-85304242D01*
X235615492Y-85389893D01*
X235563599Y-85483507D01*
X235532162Y-85586827D01*
X235521353Y-85702358D01*
X235533514Y-85821438D01*
X235570568Y-85939884D01*
X235632732Y-86054769D01*
X235733845Y-86185715D01*
X235869581Y-86323644D01*
X236112909Y-86539867D01*
X236313464Y-86713614D01*
X236397208Y-86793513D01*
X236455495Y-86861554D01*
X236500889Y-86927480D01*
X235518667Y-86927480D01*
X235093868Y-86927480D01*
X235121783Y-86884456D01*
X235175678Y-86759247D01*
X235217793Y-86602367D01*
X235245601Y-86407638D01*
X235255739Y-86168129D01*
X235246290Y-85930184D01*
X235220735Y-85742165D01*
X235182711Y-85595624D01*
X235123603Y-85457507D01*
X235051068Y-85347478D01*
X234965457Y-85261256D01*
X234863617Y-85197057D01*
X234744182Y-85157452D01*
X234602634Y-85143531D01*
X234496784Y-85151164D01*
X234403200Y-85173098D01*
X234319923Y-85208499D01*
X234244039Y-85257814D01*
X234177299Y-85319893D01*
X234119033Y-85395956D01*
X234050078Y-85527515D01*
X233994713Y-85694176D01*
X233962430Y-85885242D01*
X233949684Y-86167397D01*
X233949651Y-86168129D01*
X232936542Y-86168129D01*
X232862586Y-86095278D01*
X232778262Y-85994717D01*
X232711427Y-85885622D01*
X232674903Y-85787484D01*
X232663468Y-85697351D01*
X232675265Y-85603908D01*
X232709732Y-85522367D01*
X232768004Y-85449689D01*
X232843053Y-85394460D01*
X232932513Y-85360613D01*
X233040457Y-85348695D01*
X233154462Y-85361438D01*
X233247684Y-85397455D01*
X233324755Y-85456039D01*
X233382437Y-85533671D01*
X233418886Y-85630860D01*
X233432588Y-85753161D01*
X233685380Y-85727027D01*
X233661679Y-85586153D01*
X233620477Y-85469371D01*
X233563248Y-85372624D01*
X233489986Y-85292885D01*
X233401690Y-85229624D01*
X233298452Y-85183172D01*
X233177444Y-85153894D01*
X233035083Y-85143531D01*
X232891873Y-85154625D01*
X232770467Y-85185988D01*
X232667053Y-85235893D01*
X232578715Y-85304242D01*
X232504815Y-85389893D01*
X232452922Y-85483507D01*
X232421485Y-85586827D01*
X232410676Y-85702358D01*
X232422837Y-85821438D01*
X232459891Y-85939884D01*
X232522055Y-86054769D01*
X232623168Y-86185715D01*
X232758904Y-86323644D01*
X233002233Y-86539867D01*
X233202787Y-86713614D01*
X233286531Y-86793513D01*
X233344819Y-86861554D01*
X233390212Y-86927480D01*
X232407990Y-86927480D01*
X232032903Y-86927480D01*
X232046229Y-86905915D01*
X232084384Y-86806949D01*
X232108182Y-86689710D01*
X231871877Y-86667606D01*
X231843254Y-86775836D01*
X231804469Y-86854703D01*
X231757083Y-86910628D01*
X231696717Y-86951830D01*
X231625294Y-86977178D01*
X231539829Y-86986099D01*
X231431832Y-86972679D01*
X231341015Y-86934075D01*
X231263568Y-86873449D01*
X231201064Y-86794979D01*
X231153216Y-86698773D01*
X231109473Y-86559895D01*
X231081824Y-86410518D01*
X231072592Y-86258255D01*
X231073935Y-86208918D01*
X231128643Y-86281711D01*
X231195401Y-86344994D01*
X231275436Y-86399305D01*
X231362984Y-86439819D01*
X231454769Y-86464037D01*
X231552163Y-86472212D01*
X231672846Y-86460744D01*
X231781649Y-86427258D01*
X231881111Y-86371736D01*
X231972993Y-86292327D01*
X232046779Y-86197634D01*
X232100160Y-86088961D01*
X232133396Y-85963639D01*
X232145062Y-85818129D01*
X232132895Y-85667958D01*
X232098227Y-85538670D01*
X232042513Y-85426576D01*
X231965422Y-85328911D01*
X231869814Y-85247732D01*
X231764428Y-85190439D01*
X231647218Y-85155564D01*
X231515282Y-85143531D01*
X231388138Y-85155355D01*
X231269762Y-85190317D01*
X231157955Y-85248921D01*
X231059793Y-85327933D01*
X230978057Y-85427049D01*
X230912002Y-85549096D01*
X230869012Y-85682335D01*
X230848866Y-85806772D01*
X230839273Y-85866027D01*
X230827983Y-86113419D01*
X229909385Y-86113419D01*
X229909385Y-85588785D01*
X230007255Y-85670214D01*
X230142271Y-85758656D01*
X230284360Y-85835539D01*
X230401168Y-85886029D01*
X230401168Y-85651556D01*
X230267403Y-85580394D01*
X230147558Y-85501243D01*
X230040544Y-85414152D01*
X229942365Y-85316309D01*
X229870961Y-85226486D01*
X229821946Y-85143531D01*
X229663433Y-85143531D01*
X229663433Y-87160000D01*
X229065771Y-87160000D01*
X229059980Y-87072929D01*
X229037072Y-86989518D01*
X228973122Y-86858521D01*
X228875261Y-86723660D01*
X228748522Y-86591403D01*
X228553471Y-86420921D01*
X228337363Y-86233967D01*
X228196571Y-86095278D01*
X228112247Y-85994717D01*
X228045412Y-85885622D01*
X228008887Y-85787484D01*
X227997452Y-85697351D01*
X228009250Y-85603908D01*
X228043717Y-85522367D01*
X228101988Y-85449689D01*
X228177037Y-85394460D01*
X228266498Y-85360613D01*
X228374441Y-85348695D01*
X228488447Y-85361438D01*
X228581668Y-85397455D01*
X228658740Y-85456039D01*
X228716422Y-85533671D01*
X228752871Y-85630860D01*
X228766573Y-85753161D01*
X229019364Y-85727027D01*
X228995664Y-85586153D01*
X228954461Y-85469371D01*
X228897233Y-85372624D01*
X228823970Y-85292885D01*
X228735675Y-85229624D01*
X228632436Y-85183172D01*
X228511429Y-85153894D01*
X228369068Y-85143531D01*
X228225858Y-85154625D01*
X228104452Y-85185988D01*
X228001038Y-85235893D01*
X227912700Y-85304242D01*
X227838800Y-85389893D01*
X227786907Y-85483507D01*
X227755469Y-85586827D01*
X227744661Y-85702358D01*
X227756822Y-85821438D01*
X227793876Y-85939884D01*
X227856040Y-86054769D01*
X227957152Y-86185715D01*
X228092888Y-86323644D01*
X228336217Y-86539867D01*
X228536771Y-86713614D01*
X228620516Y-86793513D01*
X228678803Y-86861554D01*
X228724197Y-86927480D01*
X227741974Y-86927480D01*
X226798709Y-86927480D01*
X226798709Y-85588785D01*
X226896578Y-85670214D01*
X227031594Y-85758656D01*
X227173683Y-85835539D01*
X227290491Y-85886029D01*
X227290491Y-85651556D01*
X227156726Y-85580394D01*
X227036881Y-85501243D01*
X226929867Y-85414152D01*
X226831689Y-85316309D01*
X226760284Y-85226486D01*
X226711270Y-85143531D01*
X226552756Y-85143531D01*
X226552756Y-87160000D01*
X225983792Y-87160000D01*
X225983792Y-86917833D01*
X224957728Y-85623712D01*
X224848250Y-85491435D01*
X224750122Y-85383866D01*
X225867655Y-85383866D01*
X225867655Y-85151346D01*
X224433094Y-85151346D01*
X224433094Y-85383866D01*
X225557588Y-86785575D01*
X225679099Y-86927480D01*
X224400366Y-86927480D01*
X224186409Y-86927480D01*
X224152745Y-86858521D01*
X224054884Y-86723660D01*
X223928145Y-86591403D01*
X223733094Y-86420921D01*
X223516986Y-86233967D01*
X223376194Y-86095278D01*
X223291870Y-85994717D01*
X223225035Y-85885622D01*
X223188510Y-85787484D01*
X223177076Y-85697351D01*
X223188873Y-85603908D01*
X223223340Y-85522367D01*
X223281612Y-85449689D01*
X223356661Y-85394460D01*
X223446121Y-85360613D01*
X223554064Y-85348695D01*
X223668070Y-85361438D01*
X223761291Y-85397455D01*
X223838363Y-85456039D01*
X223896045Y-85533671D01*
X223932494Y-85630860D01*
X223946196Y-85753161D01*
X224198988Y-85727027D01*
X224175287Y-85586153D01*
X224134085Y-85469371D01*
X224076856Y-85372624D01*
X224003593Y-85292885D01*
X223915298Y-85229624D01*
X223812060Y-85183172D01*
X223691052Y-85153894D01*
X223548691Y-85143531D01*
X223405481Y-85154625D01*
X223284075Y-85185988D01*
X223180661Y-85235893D01*
X223092323Y-85304242D01*
X223018423Y-85389893D01*
X222966530Y-85483507D01*
X222935092Y-85586827D01*
X222924284Y-85702358D01*
X222936445Y-85821438D01*
X222973499Y-85939884D01*
X223035663Y-86054769D01*
X223136775Y-86185715D01*
X223272512Y-86323644D01*
X223515840Y-86539867D01*
X223716395Y-86713614D01*
X223800139Y-86793513D01*
X223858426Y-86861554D01*
X223903820Y-86927480D01*
X222921598Y-86927480D01*
X221011741Y-86927480D01*
X221011741Y-85151346D01*
X220612892Y-85151346D01*
X220138817Y-86574183D01*
X220043196Y-86871671D01*
X219936584Y-86549515D01*
X219457013Y-85151346D01*
X219100418Y-85151346D01*
X219100418Y-87160000D01*
X218475942Y-87160000D01*
X218508800Y-87151000D01*
X218598670Y-87104152D01*
X218673237Y-87040198D01*
X218730858Y-86961384D01*
X218773536Y-86863285D01*
X218800127Y-86741623D01*
X218807815Y-86591036D01*
X218568702Y-86558185D01*
X218552021Y-86711215D01*
X218521780Y-86811394D01*
X218482728Y-86873747D01*
X218426602Y-86920107D01*
X218357292Y-86948608D01*
X218270847Y-86958743D01*
X218176385Y-86946827D01*
X218098778Y-86912826D01*
X218037459Y-86858455D01*
X217999005Y-86788018D01*
X217979840Y-86697310D01*
X217971650Y-86536325D01*
X217971650Y-85151346D01*
X217706646Y-85151346D01*
X217706646Y-86518129D01*
X217400610Y-86518129D01*
X217400610Y-86308080D01*
X216645045Y-86308080D01*
X216645045Y-86558185D01*
X216333269Y-86558185D01*
X216333269Y-85151346D01*
X216068265Y-85151346D01*
X216068265Y-85979818D01*
X215027180Y-85979818D01*
X215027180Y-85151346D01*
X214762177Y-85151346D01*
X214762177Y-87160000D01*
X214307397Y-87160000D01*
X214307397Y-85151346D01*
X212956245Y-85151346D01*
X212956245Y-85383866D01*
X211690334Y-85383866D01*
X211690334Y-85151346D01*
X210938921Y-85151346D01*
X210786058Y-85159172D01*
X210665234Y-85180402D01*
X210570725Y-85212285D01*
X210484443Y-85260468D01*
X210412540Y-85322542D01*
X210353471Y-85399619D01*
X210309321Y-85486500D01*
X210283507Y-85574207D01*
X210274947Y-85664134D01*
X210277741Y-85694542D01*
X210282647Y-85747936D01*
X210305672Y-85828234D01*
X210344678Y-85906301D01*
X210397448Y-85975443D01*
X210466701Y-86036414D01*
X210554972Y-86089483D01*
X210440070Y-86135137D01*
X210348126Y-86195977D01*
X210275558Y-86272055D01*
X210221717Y-86362262D01*
X210189104Y-86462899D01*
X210177861Y-86576748D01*
X209955639Y-86576748D01*
X209955639Y-84921309D01*
X247514493Y-84921309D01*
X247514493Y-87934943D01*
G37*
D11*
%TO.P,SW11,1,1*%
%TO.N,/Pin8(B13)_B*%
X206250000Y-38750000D03*
X206250000Y-51250000D03*
%TO.P,SW11,2,2*%
%TO.N,/Pin6(B2)_B*%
X211250000Y-38750000D03*
X211250000Y-51250000D03*
%TD*%
%TO.P,SW23,1,1*%
%TO.N,/Pin11(B15)_B*%
X192500000Y-63750000D03*
X192500000Y-76250000D03*
%TO.P,SW23,2,2*%
%TO.N,/Pin3(B1)_B*%
X197500000Y-63750000D03*
X197500000Y-76250000D03*
%TD*%
%TO.P,SW26,1,1*%
%TO.N,/Pin11(B15)_B*%
X233750000Y-63750000D03*
X233750000Y-76250000D03*
%TO.P,SW26,2,2*%
%TO.N,/Pin2(A1)_B*%
X238750000Y-63750000D03*
X238750000Y-76250000D03*
%TD*%
%TO.P,SW27,1,1*%
%TO.N,/Pin11(B15)_B*%
X247500000Y-63750000D03*
X247500000Y-76250000D03*
%TO.P,SW27,2,2*%
%TO.N,/Pin6(B2)_B*%
X252500000Y-63750000D03*
X252500000Y-76250000D03*
%TD*%
D12*
%TO.P,J1,1,Pin_1*%
%TO.N,/Pin1(B16)_B*%
X171250000Y-28250000D03*
D13*
%TO.P,J1,2,Pin_2*%
%TO.N,/Pin2(A1)_B*%
X173750000Y-28250000D03*
%TO.P,J1,3,Pin_3*%
%TO.N,/Pin3(B1)_B*%
X176250000Y-28250000D03*
%TO.P,J1,4,Pin_4*%
%TO.N,/Pin4(B11)_B*%
X178750000Y-28250000D03*
%TO.P,J1,5,Pin_5*%
%TO.N,/Pin5(B12)_B*%
X181250000Y-28250000D03*
%TO.P,J1,6,Pin_6*%
%TO.N,/Pin6(B2)_B*%
X183750000Y-28250000D03*
%TO.P,J1,7,Pin_7*%
%TO.N,/Pin7(B3)_B*%
X186250000Y-28250000D03*
%TO.P,J1,8,Pin_8*%
%TO.N,/Pin8(B13)_B*%
X188750000Y-28250000D03*
%TO.P,J1,9,Pin_9*%
%TO.N,/Pin9(B14)_B*%
X191250000Y-28250000D03*
%TO.P,J1,10,Pin_10*%
%TO.N,/Pin10(A2)_B*%
X193750000Y-28250000D03*
%TO.P,J1,11,Pin_11*%
%TO.N,/Pin11(B15)_B*%
X196250000Y-28250000D03*
%TO.P,J1,12,Pin_12*%
%TO.N,/Pin12(A5)_B*%
X198750000Y-28250000D03*
%TO.P,J1,13,Pin_13*%
%TO.N,/Pin13(A17)_B*%
X201250000Y-28250000D03*
%TD*%
D11*
%TO.P,SW13,1,1*%
%TO.N,/Pin9(B14)_B*%
X233750000Y-38750000D03*
X233750000Y-51250000D03*
%TO.P,SW13,2,2*%
%TO.N,/Pin3(B1)_B*%
X238750000Y-38750000D03*
X238750000Y-51250000D03*
%TD*%
%TO.P,SW9,1,1*%
%TO.N,/Pin8(B13)_B*%
X178750000Y-38750000D03*
X178750000Y-51250000D03*
%TO.P,SW9,2,2*%
%TO.N,/Pin3(B1)_B*%
X183750000Y-38750000D03*
X183750000Y-51250000D03*
%TD*%
%TO.P,SW12,1,1*%
%TO.N,/Pin8(B13)_B*%
X220000000Y-38750000D03*
X220000000Y-51250000D03*
%TO.P,SW12,2,2*%
%TO.N,/Pin10(A2)_B*%
X225000000Y-38750000D03*
X225000000Y-51250000D03*
%TD*%
%TO.P,SW8,1,1*%
%TO.N,/Pin5(B12)_B*%
X165000000Y-38750000D03*
X165000000Y-51250000D03*
%TO.P,SW8,2,2*%
%TO.N,/Pin10(A2)_B*%
X170000000Y-38750000D03*
X170000000Y-51250000D03*
%TD*%
D13*
%TO.P,SW22,1,1*%
%TO.N,/Pin4(B11)_B*%
X180250000Y-66750000D03*
X180250000Y-73250000D03*
%TO.P,SW22,2,2*%
%TO.N,/Pin7(B3)_B*%
X184750000Y-66750000D03*
X184750000Y-73250000D03*
%TD*%
D11*
%TO.P,SW14,1,1*%
%TO.N,/Pin9(B14)_B*%
X247500000Y-38750000D03*
X247500000Y-51250000D03*
%TO.P,SW14,2,2*%
%TO.N,/Pin2(A1)_B*%
X252500000Y-38750000D03*
X252500000Y-51250000D03*
%TD*%
%TO.P,SW10,1,1*%
%TO.N,/Pin8(B13)_B*%
X192500000Y-38750000D03*
X192500000Y-51250000D03*
%TO.P,SW10,2,2*%
%TO.N,/Pin2(A1)_B*%
X197500000Y-38750000D03*
X197500000Y-51250000D03*
%TD*%
%TO.P,SW24,1,1*%
%TO.N,/Pin11(B15)_B*%
X206250000Y-63750000D03*
X206250000Y-76250000D03*
%TO.P,SW24,2,2*%
%TO.N,/Pin10(A2)_B*%
X211250000Y-63750000D03*
X211250000Y-76250000D03*
%TD*%
%TO.P,SW25,1,1*%
%TO.N,/Pin9(B14)_B*%
X220000000Y-63750000D03*
X220000000Y-76250000D03*
%TO.P,SW25,2,2*%
%TO.N,/Pin6(B2)_B*%
X225000000Y-63750000D03*
X225000000Y-76250000D03*
%TD*%
D14*
%TO.P,J3,1,Pin_1*%
%TO.N,/Pin5(B12)_B*%
X173250000Y-78950000D03*
D15*
%TO.P,J3,2,Pin_2*%
%TO.N,/Pin8(B13)_B*%
X170710000Y-78950000D03*
%TO.P,J3,3,Pin_3*%
%TO.N,/Pin1(B16)_B*%
X173250000Y-76410000D03*
%TO.P,J3,4,Pin_4*%
%TO.N,/Pin4(B11)_B*%
X170710000Y-76410000D03*
%TO.P,J3,5,Pin_5*%
%TO.N,/Pin9(B14)_B*%
X173250000Y-73870000D03*
%TO.P,J3,6,Pin_6*%
%TO.N,/Pin11(B15)_B*%
X170710000Y-73870000D03*
%TO.P,J3,7,Pin_7*%
%TO.N,unconnected-(J3-Pin_7-Pad7)*%
X173250000Y-71330000D03*
%TO.P,J3,8,Pin_8*%
%TO.N,unconnected-(J3-Pin_8-Pad8)*%
X170710000Y-71330000D03*
%TO.P,J3,9,Pin_9*%
%TO.N,unconnected-(J3-Pin_9-Pad9)*%
X173250000Y-68790000D03*
%TO.P,J3,10,Pin_10*%
%TO.N,unconnected-(J3-Pin_10-Pad10)*%
X170710000Y-68790000D03*
%TO.P,J3,11,Pin_11*%
%TO.N,/Pin12(A5)_B*%
X173250000Y-66250000D03*
%TO.P,J3,12,Pin_12*%
%TO.N,/Pin13(A17)_B*%
X170710000Y-66250000D03*
%TO.P,J3,13,Pin_13*%
%TO.N,unconnected-(J3-Pin_13-Pad13)*%
X173250000Y-63710000D03*
%TO.P,J3,14,Pin_14*%
%TO.N,unconnected-(J3-Pin_14-Pad14)*%
X170710000Y-63710000D03*
%TO.P,J3,15,Pin_15*%
%TO.N,unconnected-(J3-Pin_15-Pad15)*%
X173250000Y-61170000D03*
%TO.P,J3,16,Pin_16*%
%TO.N,/Pin2(A1)_B*%
X170710000Y-61170000D03*
%TO.P,J3,17,Pin_17*%
%TO.N,/Pin10(A2)_B*%
X173250000Y-58630000D03*
%TO.P,J3,18,Pin_18*%
%TO.N,/Pin3(B1)_B*%
X170710000Y-58630000D03*
%TO.P,J3,19,Pin_19*%
%TO.N,/Pin6(B2)_B*%
X173250000Y-56090000D03*
%TO.P,J3,20,Pin_20*%
%TO.N,/Pin7(B3)_B*%
X170710000Y-56090000D03*
%TD*%
D16*
%TO.N,/Pin2(A1)_B*%
X172500000Y-49250000D03*
X174750000Y-49250000D03*
X197500000Y-49250000D03*
X238750000Y-66294000D03*
X252500000Y-49250000D03*
X250698000Y-66294000D03*
%TO.N,/Pin13(A17)_B*%
X195500000Y-70000000D03*
%TO.N,/Pin7(B3)_B*%
X169000000Y-56250000D03*
X169000000Y-72619000D03*
X184750000Y-71000000D03*
%TO.N,/Pin5(B12)_B*%
X176750000Y-41500000D03*
X165000000Y-41500000D03*
X165000000Y-80250000D03*
%TO.N,/Pin10(A2)_B*%
X170000000Y-40750000D03*
X211250000Y-67818000D03*
X223139000Y-67818000D03*
X225000000Y-41500000D03*
X189250000Y-40750000D03*
%TO.N,/Pin1(B16)_B*%
X168000000Y-77699000D03*
%TO.N,/Pin8(B13)_B*%
X192500000Y-43000000D03*
X192500000Y-40750000D03*
X178750000Y-43000000D03*
X220000000Y-40750000D03*
X187500000Y-43000000D03*
X206250000Y-40750000D03*
%TO.N,/Pin11(B15)_B*%
X175250000Y-75121000D03*
X192500000Y-74250000D03*
X233750000Y-66294000D03*
X233750000Y-74250000D03*
X206250000Y-66294000D03*
X206250000Y-74250000D03*
X247500000Y-74250000D03*
X192500000Y-66294000D03*
%TO.N,/Pin6(B2)_B*%
X252500000Y-68580000D03*
X179750000Y-43750000D03*
X225000000Y-68580000D03*
X211250000Y-43750000D03*
X209500000Y-68580000D03*
X173250000Y-43750000D03*
%TO.N,/Pin9(B14)_B*%
X247500000Y-48500000D03*
X233750000Y-48500000D03*
X220000000Y-71750000D03*
X231902000Y-71755000D03*
X188500000Y-71750000D03*
%TO.N,/Pin12(A5)_B*%
X194250000Y-69250000D03*
%TO.N,/Pin3(B1)_B*%
X197500000Y-68500000D03*
X197500000Y-67056000D03*
X236982000Y-67056000D03*
X183750000Y-44500000D03*
X175250000Y-44500000D03*
X186500000Y-68500000D03*
%TO.N,/Pin4(B11)_B*%
X181000000Y-42250000D03*
X176000000Y-42250000D03*
%TD*%
D17*
%TO.N,/Pin2(A1)_B*%
X172500000Y-49250000D02*
X172500000Y-43000000D01*
X252500000Y-49250000D02*
X252500000Y-38750000D01*
X197500000Y-38750000D02*
X197500000Y-51250000D01*
X173750000Y-41750000D02*
X173750000Y-28250000D01*
X238750000Y-66294000D02*
X238750000Y-76250000D01*
X238750000Y-63750000D02*
X238750000Y-66294000D01*
X252500000Y-61029500D02*
X252500000Y-51250000D01*
X250698000Y-62831500D02*
X252500000Y-61029500D01*
X170830000Y-61170000D02*
X170710000Y-61170000D01*
X172119000Y-59881000D02*
X170830000Y-61170000D01*
X252500000Y-51250000D02*
X252500000Y-49250000D01*
X174119000Y-59881000D02*
X172119000Y-59881000D01*
X174750000Y-59250000D02*
X174119000Y-59881000D01*
X172500000Y-43000000D02*
X173750000Y-41750000D01*
X174750000Y-49250000D02*
X174750000Y-59250000D01*
X250698000Y-66294000D02*
X250698000Y-62831500D01*
%TO.N,/Pin13(A17)_B*%
X195500000Y-70000000D02*
X195500000Y-38000000D01*
X195500000Y-38000000D02*
X201250000Y-32250000D01*
X201250000Y-32250000D02*
X201250000Y-28250000D01*
%TO.N,/Pin7(B3)_B*%
X184750000Y-71000000D02*
X184750000Y-66750000D01*
X186250000Y-33500000D02*
X186250000Y-28250000D01*
X184250000Y-66750000D02*
X181750000Y-64250000D01*
X184750000Y-73250000D02*
X184750000Y-71000000D01*
X181750000Y-38000000D02*
X186250000Y-33500000D01*
X169000000Y-72619000D02*
X169000000Y-56250000D01*
X184750000Y-66750000D02*
X184250000Y-66750000D01*
X181750000Y-64250000D02*
X181750000Y-38000000D01*
%TO.N,/Pin5(B12)_B*%
X176750000Y-38062500D02*
X181250000Y-33562500D01*
X165000000Y-51250000D02*
X165000000Y-41500000D01*
X176750000Y-41500000D02*
X176750000Y-38062500D01*
X165000000Y-41500000D02*
X165000000Y-38750000D01*
X165000000Y-51250000D02*
X165000000Y-80250000D01*
X181250000Y-33562500D02*
X181250000Y-28250000D01*
%TO.N,/Pin10(A2)_B*%
X170000000Y-51250000D02*
X170000000Y-53250000D01*
X193750000Y-33500000D02*
X193750000Y-28250000D01*
X170000000Y-38750000D02*
X170000000Y-40750000D01*
X225000000Y-38750000D02*
X225000000Y-41500000D01*
X211250000Y-67818000D02*
X211250000Y-76250000D01*
X189250000Y-38000000D02*
X193750000Y-33500000D01*
X225000000Y-61004000D02*
X225000000Y-51250000D01*
X170000000Y-53250000D02*
X171999000Y-55249000D01*
X225000000Y-41500000D02*
X225000000Y-51250000D01*
X171999000Y-55249000D02*
X171999000Y-57379000D01*
X211250000Y-63750000D02*
X211250000Y-67818000D01*
X223139000Y-62865000D02*
X225000000Y-61004000D01*
X171999000Y-57379000D02*
X173250000Y-58630000D01*
X223139000Y-67818000D02*
X223139000Y-62865000D01*
X170000000Y-40750000D02*
X170000000Y-51250000D01*
X189250000Y-40750000D02*
X189250000Y-38000000D01*
%TO.N,/Pin1(B16)_B*%
X171250000Y-34750000D02*
X171250000Y-28250000D01*
X168000000Y-77699000D02*
X168000000Y-38000000D01*
X168000000Y-38000000D02*
X171250000Y-34750000D01*
%TO.N,/Pin8(B13)_B*%
X170800000Y-78950000D02*
X170710000Y-78950000D01*
X178750000Y-73000000D02*
X174051000Y-77699000D01*
X188750000Y-36000000D02*
X188750000Y-28250000D01*
X220000000Y-51250000D02*
X220000000Y-40750000D01*
X178750000Y-51250000D02*
X178750000Y-73000000D01*
X174051000Y-77699000D02*
X172051000Y-77699000D01*
X187500000Y-43000000D02*
X187500000Y-37250000D01*
X187500000Y-37250000D02*
X188750000Y-36000000D01*
X220000000Y-40750000D02*
X220000000Y-38750000D01*
X192500000Y-51250000D02*
X192500000Y-43000000D01*
X178750000Y-51250000D02*
X178750000Y-43000000D01*
X178750000Y-43000000D02*
X178750000Y-38750000D01*
X192500000Y-40750000D02*
X192500000Y-38750000D01*
X172051000Y-77699000D02*
X170800000Y-78950000D01*
X206250000Y-51250000D02*
X206250000Y-38750000D01*
X192500000Y-43000000D02*
X192500000Y-40750000D01*
%TO.N,/Pin11(B15)_B*%
X190500000Y-38000000D02*
X190500000Y-61750000D01*
X196250000Y-28250000D02*
X196250000Y-32250000D01*
X247500000Y-74250000D02*
X247500000Y-63750000D01*
X233750000Y-74250000D02*
X233750000Y-63750000D01*
X233750000Y-76250000D02*
X233750000Y-74250000D01*
X196250000Y-32250000D02*
X190500000Y-38000000D01*
X192500000Y-66294000D02*
X192500000Y-63750000D01*
X206250000Y-66294000D02*
X206250000Y-63750000D01*
X192500000Y-76250000D02*
X192500000Y-74250000D01*
X170710000Y-73870000D02*
X171961000Y-75121000D01*
X247500000Y-76250000D02*
X247500000Y-74250000D01*
X192500000Y-74250000D02*
X192500000Y-66294000D01*
X206250000Y-76250000D02*
X206250000Y-74250000D01*
X171961000Y-75121000D02*
X175250000Y-75121000D01*
X206250000Y-74250000D02*
X206250000Y-66294000D01*
X190500000Y-61750000D02*
X192500000Y-63750000D01*
%TO.N,/Pin6(B2)_B*%
X209500000Y-62788000D02*
X211250000Y-61038000D01*
X179750000Y-43750000D02*
X179750000Y-41750000D01*
X252500000Y-63750000D02*
X252500000Y-68580000D01*
X181000000Y-37500000D02*
X183750000Y-34750000D01*
X211250000Y-38750000D02*
X211250000Y-51250000D01*
X179750000Y-41750000D02*
X181000000Y-40500000D01*
X209500000Y-68580000D02*
X209500000Y-62788000D01*
X211250000Y-61038000D02*
X211250000Y-51250000D01*
X225000000Y-63750000D02*
X225000000Y-76250000D01*
X181000000Y-40500000D02*
X181000000Y-37500000D01*
X173250000Y-43750000D02*
X173250000Y-56090000D01*
X252500000Y-68580000D02*
X252500000Y-76250000D01*
X183750000Y-34750000D02*
X183750000Y-28250000D01*
%TO.N,/Pin9(B14)_B*%
X220000000Y-71750000D02*
X220000000Y-63750000D01*
X188500000Y-37500000D02*
X191250000Y-34750000D01*
X233750000Y-60890000D02*
X233750000Y-51250000D01*
X247500000Y-48500000D02*
X247500000Y-51250000D01*
X233750000Y-38750000D02*
X233750000Y-48500000D01*
X233750000Y-48500000D02*
X233750000Y-51250000D01*
X188500000Y-71750000D02*
X188500000Y-37500000D01*
X231902000Y-62738000D02*
X233750000Y-60890000D01*
X231902000Y-71755000D02*
X231902000Y-62738000D01*
X220000000Y-76250000D02*
X220000000Y-71750000D01*
X191250000Y-34750000D02*
X191250000Y-28250000D01*
X247500000Y-38750000D02*
X247500000Y-48500000D01*
%TO.N,/Pin12(A5)_B*%
X198750000Y-33500000D02*
X198750000Y-28250000D01*
X194250000Y-69250000D02*
X194250000Y-38000000D01*
X194250000Y-38000000D02*
X198750000Y-33500000D01*
%TO.N,/Pin3(B1)_B*%
X183750000Y-44500000D02*
X183750000Y-49250000D01*
X183750000Y-51250000D02*
X183750000Y-52250000D01*
X176250000Y-36000000D02*
X176250000Y-28250000D01*
X183750000Y-63500000D02*
X183750000Y-51250000D01*
X238750000Y-60970000D02*
X238750000Y-51250000D01*
X197500000Y-67056000D02*
X197500000Y-76250000D01*
X236982000Y-62738000D02*
X238750000Y-60970000D01*
X175250000Y-37000000D02*
X176250000Y-36000000D01*
X236982000Y-67056000D02*
X236982000Y-62738000D01*
X238750000Y-51250000D02*
X238750000Y-38750000D01*
X197500000Y-63750000D02*
X197500000Y-67056000D01*
X186500000Y-66250000D02*
X186500000Y-68500000D01*
X183750000Y-49250000D02*
X183750000Y-51250000D01*
X183750000Y-38750000D02*
X183750000Y-44500000D01*
X175250000Y-44500000D02*
X175250000Y-37000000D01*
X186500000Y-66250000D02*
X183750000Y-63500000D01*
%TO.N,/Pin4(B11)_B*%
X181000000Y-64250000D02*
X181000000Y-42250000D01*
X180250000Y-65000000D02*
X181000000Y-64250000D01*
X178750000Y-34750000D02*
X178750000Y-28250000D01*
X176000000Y-42250000D02*
X176000000Y-37500000D01*
X180250000Y-73250000D02*
X180250000Y-66750000D01*
X180250000Y-66750000D02*
X180250000Y-65000000D01*
X176000000Y-37500000D02*
X178750000Y-34750000D01*
%TD*%
M02*
