%TF.GenerationSoftware,KiCad,Pcbnew,9.0.6*%
%TF.CreationDate,2026-01-11T11:51:12+09:00*%
%TF.ProjectId,MH02052021321Z2_1Mbit_eprom_adaptor,4d483032-3035-4323-9032-313332315a32,rev?*%
%TF.SameCoordinates,Original*%
%TF.FileFunction,Plated,1,2,PTH,Drill*%
%TF.FilePolarity,Positive*%
%FSLAX46Y46*%
G04 Gerber Fmt 4.6, Leading zero omitted, Abs format (unit mm)*
G04 Created by KiCad (PCBNEW 9.0.6) date 2026-01-11 11:51:12*
%MOMM*%
%LPD*%
G01*
G04 APERTURE LIST*
%TA.AperFunction,ViaDrill*%
%ADD10C,0.300000*%
%TD*%
%TA.AperFunction,ComponentDrill*%
%ADD11C,0.800000*%
%TD*%
%TA.AperFunction,ComponentDrill*%
%ADD12C,1.000000*%
%TD*%
G04 APERTURE END LIST*
D10*
X115062000Y-55880000D03*
X115824000Y-74930000D03*
X117856000Y-74930000D03*
D11*
%TO.C,J1*%
X93974500Y-53340000D03*
X93974500Y-55880000D03*
X93974500Y-58420000D03*
X93974500Y-60960000D03*
X93974500Y-63500000D03*
X93974500Y-66040000D03*
X93974500Y-68580000D03*
X93974500Y-71120000D03*
X93974500Y-73660000D03*
X93974500Y-76200000D03*
X93974500Y-78740000D03*
X93974500Y-81280000D03*
X93974500Y-83820000D03*
X93974500Y-86360000D03*
X93974500Y-88900000D03*
X93974500Y-91440000D03*
X109214500Y-53340000D03*
X109214500Y-55880000D03*
X109214500Y-58420000D03*
X109214500Y-60960000D03*
X109214500Y-63500000D03*
X109214500Y-66040000D03*
X109214500Y-68580000D03*
X109214500Y-71120000D03*
X109214500Y-73660000D03*
X109214500Y-76200000D03*
X109214500Y-78740000D03*
X109214500Y-81280000D03*
X109214500Y-83820000D03*
X109214500Y-86360000D03*
X109214500Y-88900000D03*
X109214500Y-91440000D03*
D12*
%TO.C,J2*%
X116840000Y-53340000D03*
X116840000Y-55880000D03*
X116840000Y-58420000D03*
X116840000Y-60960000D03*
X116840000Y-63500000D03*
X116840000Y-66040000D03*
X116840000Y-68580000D03*
X116840000Y-71120000D03*
X116840000Y-73660000D03*
X116840000Y-76200000D03*
X116840000Y-78740000D03*
X116840000Y-81280000D03*
X116840000Y-83820000D03*
X116840000Y-86360000D03*
X116840000Y-88900000D03*
X116840000Y-91440000D03*
X132080000Y-53340000D03*
X132080000Y-55880000D03*
X132080000Y-58420000D03*
X132080000Y-60960000D03*
X132080000Y-63500000D03*
X132080000Y-66040000D03*
X132080000Y-68580000D03*
X132080000Y-71120000D03*
X132080000Y-73660000D03*
X132080000Y-76200000D03*
X132080000Y-78740000D03*
X132080000Y-81280000D03*
X132080000Y-83820000D03*
X132080000Y-86360000D03*
X132080000Y-88900000D03*
X132080000Y-91440000D03*
M02*
