%TF.GenerationSoftware,KiCad,Pcbnew,9.0.6*%
%TF.CreationDate,2026-01-11T11:31:52+09:00*%
%TF.ProjectId,MH02052021321Z2_1Mbit_eprom_adaptor,4d483032-3035-4323-9032-313332315a32,rev?*%
%TF.SameCoordinates,Original*%
%TF.FileFunction,Copper,L2,Bot*%
%TF.FilePolarity,Positive*%
%FSLAX46Y46*%
G04 Gerber Fmt 4.6, Leading zero omitted, Abs format (unit mm)*
G04 Created by KiCad (PCBNEW 9.0.6) date 2026-01-11 11:31:52*
%MOMM*%
%LPD*%
G01*
G04 APERTURE LIST*
%ADD10C,0.100000*%
%ADD11C,0.150000*%
%ADD12C,0.300000*%
%ADD13C,0.400000*%
%ADD14C,0.187500*%
%TA.AperFunction,ComponentPad*%
%ADD15R,1.600000X1.600000*%
%TD*%
%TA.AperFunction,ComponentPad*%
%ADD16O,1.600000X1.600000*%
%TD*%
%TA.AperFunction,ComponentPad*%
%ADD17R,2.000000X1.440000*%
%TD*%
%TA.AperFunction,ComponentPad*%
%ADD18O,2.000000X1.440000*%
%TD*%
%TA.AperFunction,ViaPad*%
%ADD19C,0.600000*%
%TD*%
%TA.AperFunction,Conductor*%
%ADD20C,0.400000*%
%TD*%
G04 APERTURE END LIST*
D10*
D11*
X177002200Y-166007200D02*
X285002200Y-166007200D01*
X285002200Y-198007200D01*
X177002200Y-198007200D01*
X177002200Y-166007200D01*
D10*
D11*
X10000000Y-10000000D02*
X287002200Y-10000000D01*
X287002200Y-200007200D01*
X10000000Y-200007200D01*
X10000000Y-10000000D01*
D10*
D11*
X12000000Y-12000000D02*
X285002200Y-12000000D01*
X285002200Y-198007200D01*
X12000000Y-198007200D01*
X12000000Y-12000000D01*
D10*
D11*
X60000000Y-12000000D02*
X60000000Y-10000000D01*
D10*
D11*
X110000000Y-12000000D02*
X110000000Y-10000000D01*
D10*
D11*
X160000000Y-12000000D02*
X160000000Y-10000000D01*
D10*
D11*
X210000000Y-12000000D02*
X210000000Y-10000000D01*
D10*
D11*
X260000000Y-12000000D02*
X260000000Y-10000000D01*
D10*
D11*
X36089160Y-11593604D02*
X35346303Y-11593604D01*
X35717731Y-11593604D02*
X35717731Y-10293604D01*
X35717731Y-10293604D02*
X35593922Y-10479319D01*
X35593922Y-10479319D02*
X35470112Y-10603128D01*
X35470112Y-10603128D02*
X35346303Y-10665033D01*
D10*
D11*
X85346303Y-10417414D02*
X85408207Y-10355509D01*
X85408207Y-10355509D02*
X85532017Y-10293604D01*
X85532017Y-10293604D02*
X85841541Y-10293604D01*
X85841541Y-10293604D02*
X85965350Y-10355509D01*
X85965350Y-10355509D02*
X86027255Y-10417414D01*
X86027255Y-10417414D02*
X86089160Y-10541223D01*
X86089160Y-10541223D02*
X86089160Y-10665033D01*
X86089160Y-10665033D02*
X86027255Y-10850747D01*
X86027255Y-10850747D02*
X85284398Y-11593604D01*
X85284398Y-11593604D02*
X86089160Y-11593604D01*
D10*
D11*
X135284398Y-10293604D02*
X136089160Y-10293604D01*
X136089160Y-10293604D02*
X135655826Y-10788842D01*
X135655826Y-10788842D02*
X135841541Y-10788842D01*
X135841541Y-10788842D02*
X135965350Y-10850747D01*
X135965350Y-10850747D02*
X136027255Y-10912652D01*
X136027255Y-10912652D02*
X136089160Y-11036461D01*
X136089160Y-11036461D02*
X136089160Y-11345985D01*
X136089160Y-11345985D02*
X136027255Y-11469795D01*
X136027255Y-11469795D02*
X135965350Y-11531700D01*
X135965350Y-11531700D02*
X135841541Y-11593604D01*
X135841541Y-11593604D02*
X135470112Y-11593604D01*
X135470112Y-11593604D02*
X135346303Y-11531700D01*
X135346303Y-11531700D02*
X135284398Y-11469795D01*
D10*
D11*
X185965350Y-10726938D02*
X185965350Y-11593604D01*
X185655826Y-10231700D02*
X185346303Y-11160271D01*
X185346303Y-11160271D02*
X186151064Y-11160271D01*
D10*
D11*
X236027255Y-10293604D02*
X235408207Y-10293604D01*
X235408207Y-10293604D02*
X235346303Y-10912652D01*
X235346303Y-10912652D02*
X235408207Y-10850747D01*
X235408207Y-10850747D02*
X235532017Y-10788842D01*
X235532017Y-10788842D02*
X235841541Y-10788842D01*
X235841541Y-10788842D02*
X235965350Y-10850747D01*
X235965350Y-10850747D02*
X236027255Y-10912652D01*
X236027255Y-10912652D02*
X236089160Y-11036461D01*
X236089160Y-11036461D02*
X236089160Y-11345985D01*
X236089160Y-11345985D02*
X236027255Y-11469795D01*
X236027255Y-11469795D02*
X235965350Y-11531700D01*
X235965350Y-11531700D02*
X235841541Y-11593604D01*
X235841541Y-11593604D02*
X235532017Y-11593604D01*
X235532017Y-11593604D02*
X235408207Y-11531700D01*
X235408207Y-11531700D02*
X235346303Y-11469795D01*
D10*
D11*
X285965350Y-10293604D02*
X285717731Y-10293604D01*
X285717731Y-10293604D02*
X285593922Y-10355509D01*
X285593922Y-10355509D02*
X285532017Y-10417414D01*
X285532017Y-10417414D02*
X285408207Y-10603128D01*
X285408207Y-10603128D02*
X285346303Y-10850747D01*
X285346303Y-10850747D02*
X285346303Y-11345985D01*
X285346303Y-11345985D02*
X285408207Y-11469795D01*
X285408207Y-11469795D02*
X285470112Y-11531700D01*
X285470112Y-11531700D02*
X285593922Y-11593604D01*
X285593922Y-11593604D02*
X285841541Y-11593604D01*
X285841541Y-11593604D02*
X285965350Y-11531700D01*
X285965350Y-11531700D02*
X286027255Y-11469795D01*
X286027255Y-11469795D02*
X286089160Y-11345985D01*
X286089160Y-11345985D02*
X286089160Y-11036461D01*
X286089160Y-11036461D02*
X286027255Y-10912652D01*
X286027255Y-10912652D02*
X285965350Y-10850747D01*
X285965350Y-10850747D02*
X285841541Y-10788842D01*
X285841541Y-10788842D02*
X285593922Y-10788842D01*
X285593922Y-10788842D02*
X285470112Y-10850747D01*
X285470112Y-10850747D02*
X285408207Y-10912652D01*
X285408207Y-10912652D02*
X285346303Y-11036461D01*
D10*
D11*
X60000000Y-198007200D02*
X60000000Y-200007200D01*
D10*
D11*
X110000000Y-198007200D02*
X110000000Y-200007200D01*
D10*
D11*
X160000000Y-198007200D02*
X160000000Y-200007200D01*
D10*
D11*
X210000000Y-198007200D02*
X210000000Y-200007200D01*
D10*
D11*
X260000000Y-198007200D02*
X260000000Y-200007200D01*
D10*
D11*
X36089160Y-199600804D02*
X35346303Y-199600804D01*
X35717731Y-199600804D02*
X35717731Y-198300804D01*
X35717731Y-198300804D02*
X35593922Y-198486519D01*
X35593922Y-198486519D02*
X35470112Y-198610328D01*
X35470112Y-198610328D02*
X35346303Y-198672233D01*
D10*
D11*
X85346303Y-198424614D02*
X85408207Y-198362709D01*
X85408207Y-198362709D02*
X85532017Y-198300804D01*
X85532017Y-198300804D02*
X85841541Y-198300804D01*
X85841541Y-198300804D02*
X85965350Y-198362709D01*
X85965350Y-198362709D02*
X86027255Y-198424614D01*
X86027255Y-198424614D02*
X86089160Y-198548423D01*
X86089160Y-198548423D02*
X86089160Y-198672233D01*
X86089160Y-198672233D02*
X86027255Y-198857947D01*
X86027255Y-198857947D02*
X85284398Y-199600804D01*
X85284398Y-199600804D02*
X86089160Y-199600804D01*
D10*
D11*
X135284398Y-198300804D02*
X136089160Y-198300804D01*
X136089160Y-198300804D02*
X135655826Y-198796042D01*
X135655826Y-198796042D02*
X135841541Y-198796042D01*
X135841541Y-198796042D02*
X135965350Y-198857947D01*
X135965350Y-198857947D02*
X136027255Y-198919852D01*
X136027255Y-198919852D02*
X136089160Y-199043661D01*
X136089160Y-199043661D02*
X136089160Y-199353185D01*
X136089160Y-199353185D02*
X136027255Y-199476995D01*
X136027255Y-199476995D02*
X135965350Y-199538900D01*
X135965350Y-199538900D02*
X135841541Y-199600804D01*
X135841541Y-199600804D02*
X135470112Y-199600804D01*
X135470112Y-199600804D02*
X135346303Y-199538900D01*
X135346303Y-199538900D02*
X135284398Y-199476995D01*
D10*
D11*
X185965350Y-198734138D02*
X185965350Y-199600804D01*
X185655826Y-198238900D02*
X185346303Y-199167471D01*
X185346303Y-199167471D02*
X186151064Y-199167471D01*
D10*
D11*
X236027255Y-198300804D02*
X235408207Y-198300804D01*
X235408207Y-198300804D02*
X235346303Y-198919852D01*
X235346303Y-198919852D02*
X235408207Y-198857947D01*
X235408207Y-198857947D02*
X235532017Y-198796042D01*
X235532017Y-198796042D02*
X235841541Y-198796042D01*
X235841541Y-198796042D02*
X235965350Y-198857947D01*
X235965350Y-198857947D02*
X236027255Y-198919852D01*
X236027255Y-198919852D02*
X236089160Y-199043661D01*
X236089160Y-199043661D02*
X236089160Y-199353185D01*
X236089160Y-199353185D02*
X236027255Y-199476995D01*
X236027255Y-199476995D02*
X235965350Y-199538900D01*
X235965350Y-199538900D02*
X235841541Y-199600804D01*
X235841541Y-199600804D02*
X235532017Y-199600804D01*
X235532017Y-199600804D02*
X235408207Y-199538900D01*
X235408207Y-199538900D02*
X235346303Y-199476995D01*
D10*
D11*
X285965350Y-198300804D02*
X285717731Y-198300804D01*
X285717731Y-198300804D02*
X285593922Y-198362709D01*
X285593922Y-198362709D02*
X285532017Y-198424614D01*
X285532017Y-198424614D02*
X285408207Y-198610328D01*
X285408207Y-198610328D02*
X285346303Y-198857947D01*
X285346303Y-198857947D02*
X285346303Y-199353185D01*
X285346303Y-199353185D02*
X285408207Y-199476995D01*
X285408207Y-199476995D02*
X285470112Y-199538900D01*
X285470112Y-199538900D02*
X285593922Y-199600804D01*
X285593922Y-199600804D02*
X285841541Y-199600804D01*
X285841541Y-199600804D02*
X285965350Y-199538900D01*
X285965350Y-199538900D02*
X286027255Y-199476995D01*
X286027255Y-199476995D02*
X286089160Y-199353185D01*
X286089160Y-199353185D02*
X286089160Y-199043661D01*
X286089160Y-199043661D02*
X286027255Y-198919852D01*
X286027255Y-198919852D02*
X285965350Y-198857947D01*
X285965350Y-198857947D02*
X285841541Y-198796042D01*
X285841541Y-198796042D02*
X285593922Y-198796042D01*
X285593922Y-198796042D02*
X285470112Y-198857947D01*
X285470112Y-198857947D02*
X285408207Y-198919852D01*
X285408207Y-198919852D02*
X285346303Y-199043661D01*
D10*
D11*
X10000000Y-60000000D02*
X12000000Y-60000000D01*
D10*
D11*
X10000000Y-110000000D02*
X12000000Y-110000000D01*
D10*
D11*
X10000000Y-160000000D02*
X12000000Y-160000000D01*
D10*
D11*
X10690476Y-35222176D02*
X11309523Y-35222176D01*
X10566666Y-35593604D02*
X10999999Y-34293604D01*
X10999999Y-34293604D02*
X11433333Y-35593604D01*
D10*
D11*
X11092857Y-84912652D02*
X11278571Y-84974557D01*
X11278571Y-84974557D02*
X11340476Y-85036461D01*
X11340476Y-85036461D02*
X11402380Y-85160271D01*
X11402380Y-85160271D02*
X11402380Y-85345985D01*
X11402380Y-85345985D02*
X11340476Y-85469795D01*
X11340476Y-85469795D02*
X11278571Y-85531700D01*
X11278571Y-85531700D02*
X11154761Y-85593604D01*
X11154761Y-85593604D02*
X10659523Y-85593604D01*
X10659523Y-85593604D02*
X10659523Y-84293604D01*
X10659523Y-84293604D02*
X11092857Y-84293604D01*
X11092857Y-84293604D02*
X11216666Y-84355509D01*
X11216666Y-84355509D02*
X11278571Y-84417414D01*
X11278571Y-84417414D02*
X11340476Y-84541223D01*
X11340476Y-84541223D02*
X11340476Y-84665033D01*
X11340476Y-84665033D02*
X11278571Y-84788842D01*
X11278571Y-84788842D02*
X11216666Y-84850747D01*
X11216666Y-84850747D02*
X11092857Y-84912652D01*
X11092857Y-84912652D02*
X10659523Y-84912652D01*
D10*
D11*
X11402380Y-135469795D02*
X11340476Y-135531700D01*
X11340476Y-135531700D02*
X11154761Y-135593604D01*
X11154761Y-135593604D02*
X11030952Y-135593604D01*
X11030952Y-135593604D02*
X10845238Y-135531700D01*
X10845238Y-135531700D02*
X10721428Y-135407890D01*
X10721428Y-135407890D02*
X10659523Y-135284080D01*
X10659523Y-135284080D02*
X10597619Y-135036461D01*
X10597619Y-135036461D02*
X10597619Y-134850747D01*
X10597619Y-134850747D02*
X10659523Y-134603128D01*
X10659523Y-134603128D02*
X10721428Y-134479319D01*
X10721428Y-134479319D02*
X10845238Y-134355509D01*
X10845238Y-134355509D02*
X11030952Y-134293604D01*
X11030952Y-134293604D02*
X11154761Y-134293604D01*
X11154761Y-134293604D02*
X11340476Y-134355509D01*
X11340476Y-134355509D02*
X11402380Y-134417414D01*
D10*
D11*
X10659523Y-185593604D02*
X10659523Y-184293604D01*
X10659523Y-184293604D02*
X10969047Y-184293604D01*
X10969047Y-184293604D02*
X11154761Y-184355509D01*
X11154761Y-184355509D02*
X11278571Y-184479319D01*
X11278571Y-184479319D02*
X11340476Y-184603128D01*
X11340476Y-184603128D02*
X11402380Y-184850747D01*
X11402380Y-184850747D02*
X11402380Y-185036461D01*
X11402380Y-185036461D02*
X11340476Y-185284080D01*
X11340476Y-185284080D02*
X11278571Y-185407890D01*
X11278571Y-185407890D02*
X11154761Y-185531700D01*
X11154761Y-185531700D02*
X10969047Y-185593604D01*
X10969047Y-185593604D02*
X10659523Y-185593604D01*
D10*
D11*
X287002200Y-60000000D02*
X285002200Y-60000000D01*
D10*
D11*
X287002200Y-110000000D02*
X285002200Y-110000000D01*
D10*
D11*
X287002200Y-160000000D02*
X285002200Y-160000000D01*
D10*
D11*
X285692676Y-35222176D02*
X286311723Y-35222176D01*
X285568866Y-35593604D02*
X286002199Y-34293604D01*
X286002199Y-34293604D02*
X286435533Y-35593604D01*
D10*
D11*
X286095057Y-84912652D02*
X286280771Y-84974557D01*
X286280771Y-84974557D02*
X286342676Y-85036461D01*
X286342676Y-85036461D02*
X286404580Y-85160271D01*
X286404580Y-85160271D02*
X286404580Y-85345985D01*
X286404580Y-85345985D02*
X286342676Y-85469795D01*
X286342676Y-85469795D02*
X286280771Y-85531700D01*
X286280771Y-85531700D02*
X286156961Y-85593604D01*
X286156961Y-85593604D02*
X285661723Y-85593604D01*
X285661723Y-85593604D02*
X285661723Y-84293604D01*
X285661723Y-84293604D02*
X286095057Y-84293604D01*
X286095057Y-84293604D02*
X286218866Y-84355509D01*
X286218866Y-84355509D02*
X286280771Y-84417414D01*
X286280771Y-84417414D02*
X286342676Y-84541223D01*
X286342676Y-84541223D02*
X286342676Y-84665033D01*
X286342676Y-84665033D02*
X286280771Y-84788842D01*
X286280771Y-84788842D02*
X286218866Y-84850747D01*
X286218866Y-84850747D02*
X286095057Y-84912652D01*
X286095057Y-84912652D02*
X285661723Y-84912652D01*
D10*
D11*
X286404580Y-135469795D02*
X286342676Y-135531700D01*
X286342676Y-135531700D02*
X286156961Y-135593604D01*
X286156961Y-135593604D02*
X286033152Y-135593604D01*
X286033152Y-135593604D02*
X285847438Y-135531700D01*
X285847438Y-135531700D02*
X285723628Y-135407890D01*
X285723628Y-135407890D02*
X285661723Y-135284080D01*
X285661723Y-135284080D02*
X285599819Y-135036461D01*
X285599819Y-135036461D02*
X285599819Y-134850747D01*
X285599819Y-134850747D02*
X285661723Y-134603128D01*
X285661723Y-134603128D02*
X285723628Y-134479319D01*
X285723628Y-134479319D02*
X285847438Y-134355509D01*
X285847438Y-134355509D02*
X286033152Y-134293604D01*
X286033152Y-134293604D02*
X286156961Y-134293604D01*
X286156961Y-134293604D02*
X286342676Y-134355509D01*
X286342676Y-134355509D02*
X286404580Y-134417414D01*
D10*
D11*
X285661723Y-185593604D02*
X285661723Y-184293604D01*
X285661723Y-184293604D02*
X285971247Y-184293604D01*
X285971247Y-184293604D02*
X286156961Y-184355509D01*
X286156961Y-184355509D02*
X286280771Y-184479319D01*
X286280771Y-184479319D02*
X286342676Y-184603128D01*
X286342676Y-184603128D02*
X286404580Y-184850747D01*
X286404580Y-184850747D02*
X286404580Y-185036461D01*
X286404580Y-185036461D02*
X286342676Y-185284080D01*
X286342676Y-185284080D02*
X286280771Y-185407890D01*
X286280771Y-185407890D02*
X286156961Y-185531700D01*
X286156961Y-185531700D02*
X285971247Y-185593604D01*
X285971247Y-185593604D02*
X285661723Y-185593604D01*
D10*
D11*
X200458026Y-193793328D02*
X200458026Y-192293328D01*
X200458026Y-192293328D02*
X200815169Y-192293328D01*
X200815169Y-192293328D02*
X201029455Y-192364757D01*
X201029455Y-192364757D02*
X201172312Y-192507614D01*
X201172312Y-192507614D02*
X201243741Y-192650471D01*
X201243741Y-192650471D02*
X201315169Y-192936185D01*
X201315169Y-192936185D02*
X201315169Y-193150471D01*
X201315169Y-193150471D02*
X201243741Y-193436185D01*
X201243741Y-193436185D02*
X201172312Y-193579042D01*
X201172312Y-193579042D02*
X201029455Y-193721900D01*
X201029455Y-193721900D02*
X200815169Y-193793328D01*
X200815169Y-193793328D02*
X200458026Y-193793328D01*
X202600884Y-193793328D02*
X202600884Y-193007614D01*
X202600884Y-193007614D02*
X202529455Y-192864757D01*
X202529455Y-192864757D02*
X202386598Y-192793328D01*
X202386598Y-192793328D02*
X202100884Y-192793328D01*
X202100884Y-192793328D02*
X201958026Y-192864757D01*
X202600884Y-193721900D02*
X202458026Y-193793328D01*
X202458026Y-193793328D02*
X202100884Y-193793328D01*
X202100884Y-193793328D02*
X201958026Y-193721900D01*
X201958026Y-193721900D02*
X201886598Y-193579042D01*
X201886598Y-193579042D02*
X201886598Y-193436185D01*
X201886598Y-193436185D02*
X201958026Y-193293328D01*
X201958026Y-193293328D02*
X202100884Y-193221900D01*
X202100884Y-193221900D02*
X202458026Y-193221900D01*
X202458026Y-193221900D02*
X202600884Y-193150471D01*
X203100884Y-192793328D02*
X203672312Y-192793328D01*
X203315169Y-192293328D02*
X203315169Y-193579042D01*
X203315169Y-193579042D02*
X203386598Y-193721900D01*
X203386598Y-193721900D02*
X203529455Y-193793328D01*
X203529455Y-193793328D02*
X203672312Y-193793328D01*
X204743741Y-193721900D02*
X204600884Y-193793328D01*
X204600884Y-193793328D02*
X204315170Y-193793328D01*
X204315170Y-193793328D02*
X204172312Y-193721900D01*
X204172312Y-193721900D02*
X204100884Y-193579042D01*
X204100884Y-193579042D02*
X204100884Y-193007614D01*
X204100884Y-193007614D02*
X204172312Y-192864757D01*
X204172312Y-192864757D02*
X204315170Y-192793328D01*
X204315170Y-192793328D02*
X204600884Y-192793328D01*
X204600884Y-192793328D02*
X204743741Y-192864757D01*
X204743741Y-192864757D02*
X204815170Y-193007614D01*
X204815170Y-193007614D02*
X204815170Y-193150471D01*
X204815170Y-193150471D02*
X204100884Y-193293328D01*
X205458026Y-193650471D02*
X205529455Y-193721900D01*
X205529455Y-193721900D02*
X205458026Y-193793328D01*
X205458026Y-193793328D02*
X205386598Y-193721900D01*
X205386598Y-193721900D02*
X205458026Y-193650471D01*
X205458026Y-193650471D02*
X205458026Y-193793328D01*
X205458026Y-192864757D02*
X205529455Y-192936185D01*
X205529455Y-192936185D02*
X205458026Y-193007614D01*
X205458026Y-193007614D02*
X205386598Y-192936185D01*
X205386598Y-192936185D02*
X205458026Y-192864757D01*
X205458026Y-192864757D02*
X205458026Y-193007614D01*
D10*
D11*
X177002200Y-194507200D02*
X285002200Y-194507200D01*
D10*
D11*
X178458026Y-196593328D02*
X178458026Y-195093328D01*
X179315169Y-196593328D02*
X178672312Y-195736185D01*
X179315169Y-195093328D02*
X178458026Y-195950471D01*
X179958026Y-196593328D02*
X179958026Y-195593328D01*
X179958026Y-195093328D02*
X179886598Y-195164757D01*
X179886598Y-195164757D02*
X179958026Y-195236185D01*
X179958026Y-195236185D02*
X180029455Y-195164757D01*
X180029455Y-195164757D02*
X179958026Y-195093328D01*
X179958026Y-195093328D02*
X179958026Y-195236185D01*
X181529455Y-196450471D02*
X181458027Y-196521900D01*
X181458027Y-196521900D02*
X181243741Y-196593328D01*
X181243741Y-196593328D02*
X181100884Y-196593328D01*
X181100884Y-196593328D02*
X180886598Y-196521900D01*
X180886598Y-196521900D02*
X180743741Y-196379042D01*
X180743741Y-196379042D02*
X180672312Y-196236185D01*
X180672312Y-196236185D02*
X180600884Y-195950471D01*
X180600884Y-195950471D02*
X180600884Y-195736185D01*
X180600884Y-195736185D02*
X180672312Y-195450471D01*
X180672312Y-195450471D02*
X180743741Y-195307614D01*
X180743741Y-195307614D02*
X180886598Y-195164757D01*
X180886598Y-195164757D02*
X181100884Y-195093328D01*
X181100884Y-195093328D02*
X181243741Y-195093328D01*
X181243741Y-195093328D02*
X181458027Y-195164757D01*
X181458027Y-195164757D02*
X181529455Y-195236185D01*
X182815170Y-196593328D02*
X182815170Y-195807614D01*
X182815170Y-195807614D02*
X182743741Y-195664757D01*
X182743741Y-195664757D02*
X182600884Y-195593328D01*
X182600884Y-195593328D02*
X182315170Y-195593328D01*
X182315170Y-195593328D02*
X182172312Y-195664757D01*
X182815170Y-196521900D02*
X182672312Y-196593328D01*
X182672312Y-196593328D02*
X182315170Y-196593328D01*
X182315170Y-196593328D02*
X182172312Y-196521900D01*
X182172312Y-196521900D02*
X182100884Y-196379042D01*
X182100884Y-196379042D02*
X182100884Y-196236185D01*
X182100884Y-196236185D02*
X182172312Y-196093328D01*
X182172312Y-196093328D02*
X182315170Y-196021900D01*
X182315170Y-196021900D02*
X182672312Y-196021900D01*
X182672312Y-196021900D02*
X182815170Y-195950471D01*
X184172313Y-196593328D02*
X184172313Y-195093328D01*
X184172313Y-196521900D02*
X184029455Y-196593328D01*
X184029455Y-196593328D02*
X183743741Y-196593328D01*
X183743741Y-196593328D02*
X183600884Y-196521900D01*
X183600884Y-196521900D02*
X183529455Y-196450471D01*
X183529455Y-196450471D02*
X183458027Y-196307614D01*
X183458027Y-196307614D02*
X183458027Y-195879042D01*
X183458027Y-195879042D02*
X183529455Y-195736185D01*
X183529455Y-195736185D02*
X183600884Y-195664757D01*
X183600884Y-195664757D02*
X183743741Y-195593328D01*
X183743741Y-195593328D02*
X184029455Y-195593328D01*
X184029455Y-195593328D02*
X184172313Y-195664757D01*
X186029455Y-195807614D02*
X186529455Y-195807614D01*
X186743741Y-196593328D02*
X186029455Y-196593328D01*
X186029455Y-196593328D02*
X186029455Y-195093328D01*
X186029455Y-195093328D02*
X186743741Y-195093328D01*
X187386598Y-196450471D02*
X187458027Y-196521900D01*
X187458027Y-196521900D02*
X187386598Y-196593328D01*
X187386598Y-196593328D02*
X187315170Y-196521900D01*
X187315170Y-196521900D02*
X187386598Y-196450471D01*
X187386598Y-196450471D02*
X187386598Y-196593328D01*
X188100884Y-196593328D02*
X188100884Y-195093328D01*
X188100884Y-195093328D02*
X188458027Y-195093328D01*
X188458027Y-195093328D02*
X188672313Y-195164757D01*
X188672313Y-195164757D02*
X188815170Y-195307614D01*
X188815170Y-195307614D02*
X188886599Y-195450471D01*
X188886599Y-195450471D02*
X188958027Y-195736185D01*
X188958027Y-195736185D02*
X188958027Y-195950471D01*
X188958027Y-195950471D02*
X188886599Y-196236185D01*
X188886599Y-196236185D02*
X188815170Y-196379042D01*
X188815170Y-196379042D02*
X188672313Y-196521900D01*
X188672313Y-196521900D02*
X188458027Y-196593328D01*
X188458027Y-196593328D02*
X188100884Y-196593328D01*
X189600884Y-196450471D02*
X189672313Y-196521900D01*
X189672313Y-196521900D02*
X189600884Y-196593328D01*
X189600884Y-196593328D02*
X189529456Y-196521900D01*
X189529456Y-196521900D02*
X189600884Y-196450471D01*
X189600884Y-196450471D02*
X189600884Y-196593328D01*
X190243742Y-196164757D02*
X190958028Y-196164757D01*
X190100885Y-196593328D02*
X190600885Y-195093328D01*
X190600885Y-195093328D02*
X191100885Y-196593328D01*
X191600884Y-196450471D02*
X191672313Y-196521900D01*
X191672313Y-196521900D02*
X191600884Y-196593328D01*
X191600884Y-196593328D02*
X191529456Y-196521900D01*
X191529456Y-196521900D02*
X191600884Y-196450471D01*
X191600884Y-196450471D02*
X191600884Y-196593328D01*
X193529456Y-196593328D02*
X193815170Y-196593328D01*
X193815170Y-196593328D02*
X193958027Y-196521900D01*
X193958027Y-196521900D02*
X194029456Y-196450471D01*
X194029456Y-196450471D02*
X194172313Y-196236185D01*
X194172313Y-196236185D02*
X194243742Y-195950471D01*
X194243742Y-195950471D02*
X194243742Y-195379042D01*
X194243742Y-195379042D02*
X194172313Y-195236185D01*
X194172313Y-195236185D02*
X194100885Y-195164757D01*
X194100885Y-195164757D02*
X193958027Y-195093328D01*
X193958027Y-195093328D02*
X193672313Y-195093328D01*
X193672313Y-195093328D02*
X193529456Y-195164757D01*
X193529456Y-195164757D02*
X193458027Y-195236185D01*
X193458027Y-195236185D02*
X193386599Y-195379042D01*
X193386599Y-195379042D02*
X193386599Y-195736185D01*
X193386599Y-195736185D02*
X193458027Y-195879042D01*
X193458027Y-195879042D02*
X193529456Y-195950471D01*
X193529456Y-195950471D02*
X193672313Y-196021900D01*
X193672313Y-196021900D02*
X193958027Y-196021900D01*
X193958027Y-196021900D02*
X194100885Y-195950471D01*
X194100885Y-195950471D02*
X194172313Y-195879042D01*
X194172313Y-195879042D02*
X194243742Y-195736185D01*
X194886598Y-196450471D02*
X194958027Y-196521900D01*
X194958027Y-196521900D02*
X194886598Y-196593328D01*
X194886598Y-196593328D02*
X194815170Y-196521900D01*
X194815170Y-196521900D02*
X194886598Y-196450471D01*
X194886598Y-196450471D02*
X194886598Y-196593328D01*
X195886599Y-195093328D02*
X196029456Y-195093328D01*
X196029456Y-195093328D02*
X196172313Y-195164757D01*
X196172313Y-195164757D02*
X196243742Y-195236185D01*
X196243742Y-195236185D02*
X196315170Y-195379042D01*
X196315170Y-195379042D02*
X196386599Y-195664757D01*
X196386599Y-195664757D02*
X196386599Y-196021900D01*
X196386599Y-196021900D02*
X196315170Y-196307614D01*
X196315170Y-196307614D02*
X196243742Y-196450471D01*
X196243742Y-196450471D02*
X196172313Y-196521900D01*
X196172313Y-196521900D02*
X196029456Y-196593328D01*
X196029456Y-196593328D02*
X195886599Y-196593328D01*
X195886599Y-196593328D02*
X195743742Y-196521900D01*
X195743742Y-196521900D02*
X195672313Y-196450471D01*
X195672313Y-196450471D02*
X195600884Y-196307614D01*
X195600884Y-196307614D02*
X195529456Y-196021900D01*
X195529456Y-196021900D02*
X195529456Y-195664757D01*
X195529456Y-195664757D02*
X195600884Y-195379042D01*
X195600884Y-195379042D02*
X195672313Y-195236185D01*
X195672313Y-195236185D02*
X195743742Y-195164757D01*
X195743742Y-195164757D02*
X195886599Y-195093328D01*
X197029455Y-196450471D02*
X197100884Y-196521900D01*
X197100884Y-196521900D02*
X197029455Y-196593328D01*
X197029455Y-196593328D02*
X196958027Y-196521900D01*
X196958027Y-196521900D02*
X197029455Y-196450471D01*
X197029455Y-196450471D02*
X197029455Y-196593328D01*
X198386599Y-195093328D02*
X198100884Y-195093328D01*
X198100884Y-195093328D02*
X197958027Y-195164757D01*
X197958027Y-195164757D02*
X197886599Y-195236185D01*
X197886599Y-195236185D02*
X197743741Y-195450471D01*
X197743741Y-195450471D02*
X197672313Y-195736185D01*
X197672313Y-195736185D02*
X197672313Y-196307614D01*
X197672313Y-196307614D02*
X197743741Y-196450471D01*
X197743741Y-196450471D02*
X197815170Y-196521900D01*
X197815170Y-196521900D02*
X197958027Y-196593328D01*
X197958027Y-196593328D02*
X198243741Y-196593328D01*
X198243741Y-196593328D02*
X198386599Y-196521900D01*
X198386599Y-196521900D02*
X198458027Y-196450471D01*
X198458027Y-196450471D02*
X198529456Y-196307614D01*
X198529456Y-196307614D02*
X198529456Y-195950471D01*
X198529456Y-195950471D02*
X198458027Y-195807614D01*
X198458027Y-195807614D02*
X198386599Y-195736185D01*
X198386599Y-195736185D02*
X198243741Y-195664757D01*
X198243741Y-195664757D02*
X197958027Y-195664757D01*
X197958027Y-195664757D02*
X197815170Y-195736185D01*
X197815170Y-195736185D02*
X197743741Y-195807614D01*
X197743741Y-195807614D02*
X197672313Y-195950471D01*
D10*
D11*
X177002200Y-191507200D02*
X285002200Y-191507200D01*
D10*
D12*
X264413853Y-193785528D02*
X263913853Y-193071242D01*
X263556710Y-193785528D02*
X263556710Y-192285528D01*
X263556710Y-192285528D02*
X264128139Y-192285528D01*
X264128139Y-192285528D02*
X264270996Y-192356957D01*
X264270996Y-192356957D02*
X264342425Y-192428385D01*
X264342425Y-192428385D02*
X264413853Y-192571242D01*
X264413853Y-192571242D02*
X264413853Y-192785528D01*
X264413853Y-192785528D02*
X264342425Y-192928385D01*
X264342425Y-192928385D02*
X264270996Y-192999814D01*
X264270996Y-192999814D02*
X264128139Y-193071242D01*
X264128139Y-193071242D02*
X263556710Y-193071242D01*
X265628139Y-193714100D02*
X265485282Y-193785528D01*
X265485282Y-193785528D02*
X265199568Y-193785528D01*
X265199568Y-193785528D02*
X265056710Y-193714100D01*
X265056710Y-193714100D02*
X264985282Y-193571242D01*
X264985282Y-193571242D02*
X264985282Y-192999814D01*
X264985282Y-192999814D02*
X265056710Y-192856957D01*
X265056710Y-192856957D02*
X265199568Y-192785528D01*
X265199568Y-192785528D02*
X265485282Y-192785528D01*
X265485282Y-192785528D02*
X265628139Y-192856957D01*
X265628139Y-192856957D02*
X265699568Y-192999814D01*
X265699568Y-192999814D02*
X265699568Y-193142671D01*
X265699568Y-193142671D02*
X264985282Y-193285528D01*
X266199567Y-192785528D02*
X266556710Y-193785528D01*
X266556710Y-193785528D02*
X266913853Y-192785528D01*
X267485281Y-193642671D02*
X267556710Y-193714100D01*
X267556710Y-193714100D02*
X267485281Y-193785528D01*
X267485281Y-193785528D02*
X267413853Y-193714100D01*
X267413853Y-193714100D02*
X267485281Y-193642671D01*
X267485281Y-193642671D02*
X267485281Y-193785528D01*
X267485281Y-192856957D02*
X267556710Y-192928385D01*
X267556710Y-192928385D02*
X267485281Y-192999814D01*
X267485281Y-192999814D02*
X267413853Y-192928385D01*
X267413853Y-192928385D02*
X267485281Y-192856957D01*
X267485281Y-192856957D02*
X267485281Y-192999814D01*
D10*
D11*
X178386598Y-193721900D02*
X178600884Y-193793328D01*
X178600884Y-193793328D02*
X178958026Y-193793328D01*
X178958026Y-193793328D02*
X179100884Y-193721900D01*
X179100884Y-193721900D02*
X179172312Y-193650471D01*
X179172312Y-193650471D02*
X179243741Y-193507614D01*
X179243741Y-193507614D02*
X179243741Y-193364757D01*
X179243741Y-193364757D02*
X179172312Y-193221900D01*
X179172312Y-193221900D02*
X179100884Y-193150471D01*
X179100884Y-193150471D02*
X178958026Y-193079042D01*
X178958026Y-193079042D02*
X178672312Y-193007614D01*
X178672312Y-193007614D02*
X178529455Y-192936185D01*
X178529455Y-192936185D02*
X178458026Y-192864757D01*
X178458026Y-192864757D02*
X178386598Y-192721900D01*
X178386598Y-192721900D02*
X178386598Y-192579042D01*
X178386598Y-192579042D02*
X178458026Y-192436185D01*
X178458026Y-192436185D02*
X178529455Y-192364757D01*
X178529455Y-192364757D02*
X178672312Y-192293328D01*
X178672312Y-192293328D02*
X179029455Y-192293328D01*
X179029455Y-192293328D02*
X179243741Y-192364757D01*
X179886597Y-193793328D02*
X179886597Y-192793328D01*
X179886597Y-192293328D02*
X179815169Y-192364757D01*
X179815169Y-192364757D02*
X179886597Y-192436185D01*
X179886597Y-192436185D02*
X179958026Y-192364757D01*
X179958026Y-192364757D02*
X179886597Y-192293328D01*
X179886597Y-192293328D02*
X179886597Y-192436185D01*
X180458026Y-192793328D02*
X181243741Y-192793328D01*
X181243741Y-192793328D02*
X180458026Y-193793328D01*
X180458026Y-193793328D02*
X181243741Y-193793328D01*
X182386598Y-193721900D02*
X182243741Y-193793328D01*
X182243741Y-193793328D02*
X181958027Y-193793328D01*
X181958027Y-193793328D02*
X181815169Y-193721900D01*
X181815169Y-193721900D02*
X181743741Y-193579042D01*
X181743741Y-193579042D02*
X181743741Y-193007614D01*
X181743741Y-193007614D02*
X181815169Y-192864757D01*
X181815169Y-192864757D02*
X181958027Y-192793328D01*
X181958027Y-192793328D02*
X182243741Y-192793328D01*
X182243741Y-192793328D02*
X182386598Y-192864757D01*
X182386598Y-192864757D02*
X182458027Y-193007614D01*
X182458027Y-193007614D02*
X182458027Y-193150471D01*
X182458027Y-193150471D02*
X181743741Y-193293328D01*
X183100883Y-193650471D02*
X183172312Y-193721900D01*
X183172312Y-193721900D02*
X183100883Y-193793328D01*
X183100883Y-193793328D02*
X183029455Y-193721900D01*
X183029455Y-193721900D02*
X183100883Y-193650471D01*
X183100883Y-193650471D02*
X183100883Y-193793328D01*
X183100883Y-192864757D02*
X183172312Y-192936185D01*
X183172312Y-192936185D02*
X183100883Y-193007614D01*
X183100883Y-193007614D02*
X183029455Y-192936185D01*
X183029455Y-192936185D02*
X183100883Y-192864757D01*
X183100883Y-192864757D02*
X183100883Y-193007614D01*
X184886598Y-193364757D02*
X185600884Y-193364757D01*
X184743741Y-193793328D02*
X185243741Y-192293328D01*
X185243741Y-192293328D02*
X185743741Y-193793328D01*
X186886598Y-192793328D02*
X186886598Y-193793328D01*
X186529455Y-192221900D02*
X186172312Y-193293328D01*
X186172312Y-193293328D02*
X187100883Y-193293328D01*
D10*
D11*
X263458026Y-196593328D02*
X263458026Y-195093328D01*
X264815170Y-196593328D02*
X264815170Y-195093328D01*
X264815170Y-196521900D02*
X264672312Y-196593328D01*
X264672312Y-196593328D02*
X264386598Y-196593328D01*
X264386598Y-196593328D02*
X264243741Y-196521900D01*
X264243741Y-196521900D02*
X264172312Y-196450471D01*
X264172312Y-196450471D02*
X264100884Y-196307614D01*
X264100884Y-196307614D02*
X264100884Y-195879042D01*
X264100884Y-195879042D02*
X264172312Y-195736185D01*
X264172312Y-195736185D02*
X264243741Y-195664757D01*
X264243741Y-195664757D02*
X264386598Y-195593328D01*
X264386598Y-195593328D02*
X264672312Y-195593328D01*
X264672312Y-195593328D02*
X264815170Y-195664757D01*
X265529455Y-196450471D02*
X265600884Y-196521900D01*
X265600884Y-196521900D02*
X265529455Y-196593328D01*
X265529455Y-196593328D02*
X265458027Y-196521900D01*
X265458027Y-196521900D02*
X265529455Y-196450471D01*
X265529455Y-196450471D02*
X265529455Y-196593328D01*
X265529455Y-195664757D02*
X265600884Y-195736185D01*
X265600884Y-195736185D02*
X265529455Y-195807614D01*
X265529455Y-195807614D02*
X265458027Y-195736185D01*
X265458027Y-195736185D02*
X265529455Y-195664757D01*
X265529455Y-195664757D02*
X265529455Y-195807614D01*
X267315170Y-195236185D02*
X267386598Y-195164757D01*
X267386598Y-195164757D02*
X267529456Y-195093328D01*
X267529456Y-195093328D02*
X267886598Y-195093328D01*
X267886598Y-195093328D02*
X268029456Y-195164757D01*
X268029456Y-195164757D02*
X268100884Y-195236185D01*
X268100884Y-195236185D02*
X268172313Y-195379042D01*
X268172313Y-195379042D02*
X268172313Y-195521900D01*
X268172313Y-195521900D02*
X268100884Y-195736185D01*
X268100884Y-195736185D02*
X267243741Y-196593328D01*
X267243741Y-196593328D02*
X268172313Y-196593328D01*
X269886598Y-195021900D02*
X268600884Y-196950471D01*
X271172313Y-196593328D02*
X270315170Y-196593328D01*
X270743741Y-196593328D02*
X270743741Y-195093328D01*
X270743741Y-195093328D02*
X270600884Y-195307614D01*
X270600884Y-195307614D02*
X270458027Y-195450471D01*
X270458027Y-195450471D02*
X270315170Y-195521900D01*
X272100884Y-195093328D02*
X272243741Y-195093328D01*
X272243741Y-195093328D02*
X272386598Y-195164757D01*
X272386598Y-195164757D02*
X272458027Y-195236185D01*
X272458027Y-195236185D02*
X272529455Y-195379042D01*
X272529455Y-195379042D02*
X272600884Y-195664757D01*
X272600884Y-195664757D02*
X272600884Y-196021900D01*
X272600884Y-196021900D02*
X272529455Y-196307614D01*
X272529455Y-196307614D02*
X272458027Y-196450471D01*
X272458027Y-196450471D02*
X272386598Y-196521900D01*
X272386598Y-196521900D02*
X272243741Y-196593328D01*
X272243741Y-196593328D02*
X272100884Y-196593328D01*
X272100884Y-196593328D02*
X271958027Y-196521900D01*
X271958027Y-196521900D02*
X271886598Y-196450471D01*
X271886598Y-196450471D02*
X271815169Y-196307614D01*
X271815169Y-196307614D02*
X271743741Y-196021900D01*
X271743741Y-196021900D02*
X271743741Y-195664757D01*
X271743741Y-195664757D02*
X271815169Y-195379042D01*
X271815169Y-195379042D02*
X271886598Y-195236185D01*
X271886598Y-195236185D02*
X271958027Y-195164757D01*
X271958027Y-195164757D02*
X272100884Y-195093328D01*
D10*
D11*
X177002200Y-187507200D02*
X285002200Y-187507200D01*
D10*
D13*
X178693928Y-188211638D02*
X179836785Y-188211638D01*
X179015357Y-190211638D02*
X179265357Y-188211638D01*
X180253452Y-190211638D02*
X180420119Y-188878304D01*
X180503452Y-188211638D02*
X180396309Y-188306876D01*
X180396309Y-188306876D02*
X180479643Y-188402114D01*
X180479643Y-188402114D02*
X180586786Y-188306876D01*
X180586786Y-188306876D02*
X180503452Y-188211638D01*
X180503452Y-188211638D02*
X180479643Y-188402114D01*
X181086786Y-188878304D02*
X181848690Y-188878304D01*
X181455833Y-188211638D02*
X181241548Y-189925923D01*
X181241548Y-189925923D02*
X181312976Y-190116400D01*
X181312976Y-190116400D02*
X181491548Y-190211638D01*
X181491548Y-190211638D02*
X181682024Y-190211638D01*
X182634405Y-190211638D02*
X182455833Y-190116400D01*
X182455833Y-190116400D02*
X182384405Y-189925923D01*
X182384405Y-189925923D02*
X182598690Y-188211638D01*
X184170119Y-190116400D02*
X183967738Y-190211638D01*
X183967738Y-190211638D02*
X183586785Y-190211638D01*
X183586785Y-190211638D02*
X183408214Y-190116400D01*
X183408214Y-190116400D02*
X183336785Y-189925923D01*
X183336785Y-189925923D02*
X183432024Y-189164019D01*
X183432024Y-189164019D02*
X183551071Y-188973542D01*
X183551071Y-188973542D02*
X183753452Y-188878304D01*
X183753452Y-188878304D02*
X184134404Y-188878304D01*
X184134404Y-188878304D02*
X184312976Y-188973542D01*
X184312976Y-188973542D02*
X184384404Y-189164019D01*
X184384404Y-189164019D02*
X184360595Y-189354495D01*
X184360595Y-189354495D02*
X183384404Y-189544971D01*
X185134405Y-190021161D02*
X185217738Y-190116400D01*
X185217738Y-190116400D02*
X185110595Y-190211638D01*
X185110595Y-190211638D02*
X185027262Y-190116400D01*
X185027262Y-190116400D02*
X185134405Y-190021161D01*
X185134405Y-190021161D02*
X185110595Y-190211638D01*
X185265357Y-188973542D02*
X185348690Y-189068780D01*
X185348690Y-189068780D02*
X185241548Y-189164019D01*
X185241548Y-189164019D02*
X185158214Y-189068780D01*
X185158214Y-189068780D02*
X185265357Y-188973542D01*
X185265357Y-188973542D02*
X185241548Y-189164019D01*
D10*
D11*
X178958026Y-185607614D02*
X178458026Y-185607614D01*
X178458026Y-186393328D02*
X178458026Y-184893328D01*
X178458026Y-184893328D02*
X179172312Y-184893328D01*
X179743740Y-186393328D02*
X179743740Y-185393328D01*
X179743740Y-184893328D02*
X179672312Y-184964757D01*
X179672312Y-184964757D02*
X179743740Y-185036185D01*
X179743740Y-185036185D02*
X179815169Y-184964757D01*
X179815169Y-184964757D02*
X179743740Y-184893328D01*
X179743740Y-184893328D02*
X179743740Y-185036185D01*
X180672312Y-186393328D02*
X180529455Y-186321900D01*
X180529455Y-186321900D02*
X180458026Y-186179042D01*
X180458026Y-186179042D02*
X180458026Y-184893328D01*
X181815169Y-186321900D02*
X181672312Y-186393328D01*
X181672312Y-186393328D02*
X181386598Y-186393328D01*
X181386598Y-186393328D02*
X181243740Y-186321900D01*
X181243740Y-186321900D02*
X181172312Y-186179042D01*
X181172312Y-186179042D02*
X181172312Y-185607614D01*
X181172312Y-185607614D02*
X181243740Y-185464757D01*
X181243740Y-185464757D02*
X181386598Y-185393328D01*
X181386598Y-185393328D02*
X181672312Y-185393328D01*
X181672312Y-185393328D02*
X181815169Y-185464757D01*
X181815169Y-185464757D02*
X181886598Y-185607614D01*
X181886598Y-185607614D02*
X181886598Y-185750471D01*
X181886598Y-185750471D02*
X181172312Y-185893328D01*
X182529454Y-186250471D02*
X182600883Y-186321900D01*
X182600883Y-186321900D02*
X182529454Y-186393328D01*
X182529454Y-186393328D02*
X182458026Y-186321900D01*
X182458026Y-186321900D02*
X182529454Y-186250471D01*
X182529454Y-186250471D02*
X182529454Y-186393328D01*
X182529454Y-185464757D02*
X182600883Y-185536185D01*
X182600883Y-185536185D02*
X182529454Y-185607614D01*
X182529454Y-185607614D02*
X182458026Y-185536185D01*
X182458026Y-185536185D02*
X182529454Y-185464757D01*
X182529454Y-185464757D02*
X182529454Y-185607614D01*
X184386597Y-186393328D02*
X184386597Y-184893328D01*
X184386597Y-184893328D02*
X184886597Y-185964757D01*
X184886597Y-185964757D02*
X185386597Y-184893328D01*
X185386597Y-184893328D02*
X185386597Y-186393328D01*
X186100883Y-186393328D02*
X186100883Y-184893328D01*
X186100883Y-185607614D02*
X186958026Y-185607614D01*
X186958026Y-186393328D02*
X186958026Y-184893328D01*
X187958027Y-184893328D02*
X188100884Y-184893328D01*
X188100884Y-184893328D02*
X188243741Y-184964757D01*
X188243741Y-184964757D02*
X188315170Y-185036185D01*
X188315170Y-185036185D02*
X188386598Y-185179042D01*
X188386598Y-185179042D02*
X188458027Y-185464757D01*
X188458027Y-185464757D02*
X188458027Y-185821900D01*
X188458027Y-185821900D02*
X188386598Y-186107614D01*
X188386598Y-186107614D02*
X188315170Y-186250471D01*
X188315170Y-186250471D02*
X188243741Y-186321900D01*
X188243741Y-186321900D02*
X188100884Y-186393328D01*
X188100884Y-186393328D02*
X187958027Y-186393328D01*
X187958027Y-186393328D02*
X187815170Y-186321900D01*
X187815170Y-186321900D02*
X187743741Y-186250471D01*
X187743741Y-186250471D02*
X187672312Y-186107614D01*
X187672312Y-186107614D02*
X187600884Y-185821900D01*
X187600884Y-185821900D02*
X187600884Y-185464757D01*
X187600884Y-185464757D02*
X187672312Y-185179042D01*
X187672312Y-185179042D02*
X187743741Y-185036185D01*
X187743741Y-185036185D02*
X187815170Y-184964757D01*
X187815170Y-184964757D02*
X187958027Y-184893328D01*
X189029455Y-185036185D02*
X189100883Y-184964757D01*
X189100883Y-184964757D02*
X189243741Y-184893328D01*
X189243741Y-184893328D02*
X189600883Y-184893328D01*
X189600883Y-184893328D02*
X189743741Y-184964757D01*
X189743741Y-184964757D02*
X189815169Y-185036185D01*
X189815169Y-185036185D02*
X189886598Y-185179042D01*
X189886598Y-185179042D02*
X189886598Y-185321900D01*
X189886598Y-185321900D02*
X189815169Y-185536185D01*
X189815169Y-185536185D02*
X188958026Y-186393328D01*
X188958026Y-186393328D02*
X189886598Y-186393328D01*
X190815169Y-184893328D02*
X190958026Y-184893328D01*
X190958026Y-184893328D02*
X191100883Y-184964757D01*
X191100883Y-184964757D02*
X191172312Y-185036185D01*
X191172312Y-185036185D02*
X191243740Y-185179042D01*
X191243740Y-185179042D02*
X191315169Y-185464757D01*
X191315169Y-185464757D02*
X191315169Y-185821900D01*
X191315169Y-185821900D02*
X191243740Y-186107614D01*
X191243740Y-186107614D02*
X191172312Y-186250471D01*
X191172312Y-186250471D02*
X191100883Y-186321900D01*
X191100883Y-186321900D02*
X190958026Y-186393328D01*
X190958026Y-186393328D02*
X190815169Y-186393328D01*
X190815169Y-186393328D02*
X190672312Y-186321900D01*
X190672312Y-186321900D02*
X190600883Y-186250471D01*
X190600883Y-186250471D02*
X190529454Y-186107614D01*
X190529454Y-186107614D02*
X190458026Y-185821900D01*
X190458026Y-185821900D02*
X190458026Y-185464757D01*
X190458026Y-185464757D02*
X190529454Y-185179042D01*
X190529454Y-185179042D02*
X190600883Y-185036185D01*
X190600883Y-185036185D02*
X190672312Y-184964757D01*
X190672312Y-184964757D02*
X190815169Y-184893328D01*
X192672311Y-184893328D02*
X191958025Y-184893328D01*
X191958025Y-184893328D02*
X191886597Y-185607614D01*
X191886597Y-185607614D02*
X191958025Y-185536185D01*
X191958025Y-185536185D02*
X192100883Y-185464757D01*
X192100883Y-185464757D02*
X192458025Y-185464757D01*
X192458025Y-185464757D02*
X192600883Y-185536185D01*
X192600883Y-185536185D02*
X192672311Y-185607614D01*
X192672311Y-185607614D02*
X192743740Y-185750471D01*
X192743740Y-185750471D02*
X192743740Y-186107614D01*
X192743740Y-186107614D02*
X192672311Y-186250471D01*
X192672311Y-186250471D02*
X192600883Y-186321900D01*
X192600883Y-186321900D02*
X192458025Y-186393328D01*
X192458025Y-186393328D02*
X192100883Y-186393328D01*
X192100883Y-186393328D02*
X191958025Y-186321900D01*
X191958025Y-186321900D02*
X191886597Y-186250471D01*
X193315168Y-185036185D02*
X193386596Y-184964757D01*
X193386596Y-184964757D02*
X193529454Y-184893328D01*
X193529454Y-184893328D02*
X193886596Y-184893328D01*
X193886596Y-184893328D02*
X194029454Y-184964757D01*
X194029454Y-184964757D02*
X194100882Y-185036185D01*
X194100882Y-185036185D02*
X194172311Y-185179042D01*
X194172311Y-185179042D02*
X194172311Y-185321900D01*
X194172311Y-185321900D02*
X194100882Y-185536185D01*
X194100882Y-185536185D02*
X193243739Y-186393328D01*
X193243739Y-186393328D02*
X194172311Y-186393328D01*
X195100882Y-184893328D02*
X195243739Y-184893328D01*
X195243739Y-184893328D02*
X195386596Y-184964757D01*
X195386596Y-184964757D02*
X195458025Y-185036185D01*
X195458025Y-185036185D02*
X195529453Y-185179042D01*
X195529453Y-185179042D02*
X195600882Y-185464757D01*
X195600882Y-185464757D02*
X195600882Y-185821900D01*
X195600882Y-185821900D02*
X195529453Y-186107614D01*
X195529453Y-186107614D02*
X195458025Y-186250471D01*
X195458025Y-186250471D02*
X195386596Y-186321900D01*
X195386596Y-186321900D02*
X195243739Y-186393328D01*
X195243739Y-186393328D02*
X195100882Y-186393328D01*
X195100882Y-186393328D02*
X194958025Y-186321900D01*
X194958025Y-186321900D02*
X194886596Y-186250471D01*
X194886596Y-186250471D02*
X194815167Y-186107614D01*
X194815167Y-186107614D02*
X194743739Y-185821900D01*
X194743739Y-185821900D02*
X194743739Y-185464757D01*
X194743739Y-185464757D02*
X194815167Y-185179042D01*
X194815167Y-185179042D02*
X194886596Y-185036185D01*
X194886596Y-185036185D02*
X194958025Y-184964757D01*
X194958025Y-184964757D02*
X195100882Y-184893328D01*
X196172310Y-185036185D02*
X196243738Y-184964757D01*
X196243738Y-184964757D02*
X196386596Y-184893328D01*
X196386596Y-184893328D02*
X196743738Y-184893328D01*
X196743738Y-184893328D02*
X196886596Y-184964757D01*
X196886596Y-184964757D02*
X196958024Y-185036185D01*
X196958024Y-185036185D02*
X197029453Y-185179042D01*
X197029453Y-185179042D02*
X197029453Y-185321900D01*
X197029453Y-185321900D02*
X196958024Y-185536185D01*
X196958024Y-185536185D02*
X196100881Y-186393328D01*
X196100881Y-186393328D02*
X197029453Y-186393328D01*
X198458024Y-186393328D02*
X197600881Y-186393328D01*
X198029452Y-186393328D02*
X198029452Y-184893328D01*
X198029452Y-184893328D02*
X197886595Y-185107614D01*
X197886595Y-185107614D02*
X197743738Y-185250471D01*
X197743738Y-185250471D02*
X197600881Y-185321900D01*
X198958023Y-184893328D02*
X199886595Y-184893328D01*
X199886595Y-184893328D02*
X199386595Y-185464757D01*
X199386595Y-185464757D02*
X199600880Y-185464757D01*
X199600880Y-185464757D02*
X199743738Y-185536185D01*
X199743738Y-185536185D02*
X199815166Y-185607614D01*
X199815166Y-185607614D02*
X199886595Y-185750471D01*
X199886595Y-185750471D02*
X199886595Y-186107614D01*
X199886595Y-186107614D02*
X199815166Y-186250471D01*
X199815166Y-186250471D02*
X199743738Y-186321900D01*
X199743738Y-186321900D02*
X199600880Y-186393328D01*
X199600880Y-186393328D02*
X199172309Y-186393328D01*
X199172309Y-186393328D02*
X199029452Y-186321900D01*
X199029452Y-186321900D02*
X198958023Y-186250471D01*
X200458023Y-185036185D02*
X200529451Y-184964757D01*
X200529451Y-184964757D02*
X200672309Y-184893328D01*
X200672309Y-184893328D02*
X201029451Y-184893328D01*
X201029451Y-184893328D02*
X201172309Y-184964757D01*
X201172309Y-184964757D02*
X201243737Y-185036185D01*
X201243737Y-185036185D02*
X201315166Y-185179042D01*
X201315166Y-185179042D02*
X201315166Y-185321900D01*
X201315166Y-185321900D02*
X201243737Y-185536185D01*
X201243737Y-185536185D02*
X200386594Y-186393328D01*
X200386594Y-186393328D02*
X201315166Y-186393328D01*
X202743737Y-186393328D02*
X201886594Y-186393328D01*
X202315165Y-186393328D02*
X202315165Y-184893328D01*
X202315165Y-184893328D02*
X202172308Y-185107614D01*
X202172308Y-185107614D02*
X202029451Y-185250471D01*
X202029451Y-185250471D02*
X201886594Y-185321900D01*
X203243736Y-184893328D02*
X204243736Y-184893328D01*
X204243736Y-184893328D02*
X203243736Y-186393328D01*
X203243736Y-186393328D02*
X204243736Y-186393328D01*
X204743736Y-185036185D02*
X204815164Y-184964757D01*
X204815164Y-184964757D02*
X204958022Y-184893328D01*
X204958022Y-184893328D02*
X205315164Y-184893328D01*
X205315164Y-184893328D02*
X205458022Y-184964757D01*
X205458022Y-184964757D02*
X205529450Y-185036185D01*
X205529450Y-185036185D02*
X205600879Y-185179042D01*
X205600879Y-185179042D02*
X205600879Y-185321900D01*
X205600879Y-185321900D02*
X205529450Y-185536185D01*
X205529450Y-185536185D02*
X204672307Y-186393328D01*
X204672307Y-186393328D02*
X205600879Y-186393328D01*
X205886593Y-186536185D02*
X207029450Y-186536185D01*
X208172307Y-186393328D02*
X207315164Y-186393328D01*
X207743735Y-186393328D02*
X207743735Y-184893328D01*
X207743735Y-184893328D02*
X207600878Y-185107614D01*
X207600878Y-185107614D02*
X207458021Y-185250471D01*
X207458021Y-185250471D02*
X207315164Y-185321900D01*
X208815163Y-186393328D02*
X208815163Y-184893328D01*
X208815163Y-184893328D02*
X209315163Y-185964757D01*
X209315163Y-185964757D02*
X209815163Y-184893328D01*
X209815163Y-184893328D02*
X209815163Y-186393328D01*
X210529449Y-186393328D02*
X210529449Y-184893328D01*
X210529449Y-185464757D02*
X210672307Y-185393328D01*
X210672307Y-185393328D02*
X210958021Y-185393328D01*
X210958021Y-185393328D02*
X211100878Y-185464757D01*
X211100878Y-185464757D02*
X211172307Y-185536185D01*
X211172307Y-185536185D02*
X211243735Y-185679042D01*
X211243735Y-185679042D02*
X211243735Y-186107614D01*
X211243735Y-186107614D02*
X211172307Y-186250471D01*
X211172307Y-186250471D02*
X211100878Y-186321900D01*
X211100878Y-186321900D02*
X210958021Y-186393328D01*
X210958021Y-186393328D02*
X210672307Y-186393328D01*
X210672307Y-186393328D02*
X210529449Y-186321900D01*
X211886592Y-186393328D02*
X211886592Y-185393328D01*
X211886592Y-184893328D02*
X211815164Y-184964757D01*
X211815164Y-184964757D02*
X211886592Y-185036185D01*
X211886592Y-185036185D02*
X211958021Y-184964757D01*
X211958021Y-184964757D02*
X211886592Y-184893328D01*
X211886592Y-184893328D02*
X211886592Y-185036185D01*
X212386593Y-185393328D02*
X212958021Y-185393328D01*
X212600878Y-184893328D02*
X212600878Y-186179042D01*
X212600878Y-186179042D02*
X212672307Y-186321900D01*
X212672307Y-186321900D02*
X212815164Y-186393328D01*
X212815164Y-186393328D02*
X212958021Y-186393328D01*
X213100879Y-186536185D02*
X214243736Y-186536185D01*
X215172307Y-186321900D02*
X215029450Y-186393328D01*
X215029450Y-186393328D02*
X214743736Y-186393328D01*
X214743736Y-186393328D02*
X214600878Y-186321900D01*
X214600878Y-186321900D02*
X214529450Y-186179042D01*
X214529450Y-186179042D02*
X214529450Y-185607614D01*
X214529450Y-185607614D02*
X214600878Y-185464757D01*
X214600878Y-185464757D02*
X214743736Y-185393328D01*
X214743736Y-185393328D02*
X215029450Y-185393328D01*
X215029450Y-185393328D02*
X215172307Y-185464757D01*
X215172307Y-185464757D02*
X215243736Y-185607614D01*
X215243736Y-185607614D02*
X215243736Y-185750471D01*
X215243736Y-185750471D02*
X214529450Y-185893328D01*
X215886592Y-185393328D02*
X215886592Y-186893328D01*
X215886592Y-185464757D02*
X216029450Y-185393328D01*
X216029450Y-185393328D02*
X216315164Y-185393328D01*
X216315164Y-185393328D02*
X216458021Y-185464757D01*
X216458021Y-185464757D02*
X216529450Y-185536185D01*
X216529450Y-185536185D02*
X216600878Y-185679042D01*
X216600878Y-185679042D02*
X216600878Y-186107614D01*
X216600878Y-186107614D02*
X216529450Y-186250471D01*
X216529450Y-186250471D02*
X216458021Y-186321900D01*
X216458021Y-186321900D02*
X216315164Y-186393328D01*
X216315164Y-186393328D02*
X216029450Y-186393328D01*
X216029450Y-186393328D02*
X215886592Y-186321900D01*
X217243735Y-186393328D02*
X217243735Y-185393328D01*
X217243735Y-185679042D02*
X217315164Y-185536185D01*
X217315164Y-185536185D02*
X217386593Y-185464757D01*
X217386593Y-185464757D02*
X217529450Y-185393328D01*
X217529450Y-185393328D02*
X217672307Y-185393328D01*
X218386592Y-186393328D02*
X218243735Y-186321900D01*
X218243735Y-186321900D02*
X218172306Y-186250471D01*
X218172306Y-186250471D02*
X218100878Y-186107614D01*
X218100878Y-186107614D02*
X218100878Y-185679042D01*
X218100878Y-185679042D02*
X218172306Y-185536185D01*
X218172306Y-185536185D02*
X218243735Y-185464757D01*
X218243735Y-185464757D02*
X218386592Y-185393328D01*
X218386592Y-185393328D02*
X218600878Y-185393328D01*
X218600878Y-185393328D02*
X218743735Y-185464757D01*
X218743735Y-185464757D02*
X218815164Y-185536185D01*
X218815164Y-185536185D02*
X218886592Y-185679042D01*
X218886592Y-185679042D02*
X218886592Y-186107614D01*
X218886592Y-186107614D02*
X218815164Y-186250471D01*
X218815164Y-186250471D02*
X218743735Y-186321900D01*
X218743735Y-186321900D02*
X218600878Y-186393328D01*
X218600878Y-186393328D02*
X218386592Y-186393328D01*
X219529449Y-186393328D02*
X219529449Y-185393328D01*
X219529449Y-185536185D02*
X219600878Y-185464757D01*
X219600878Y-185464757D02*
X219743735Y-185393328D01*
X219743735Y-185393328D02*
X219958021Y-185393328D01*
X219958021Y-185393328D02*
X220100878Y-185464757D01*
X220100878Y-185464757D02*
X220172307Y-185607614D01*
X220172307Y-185607614D02*
X220172307Y-186393328D01*
X220172307Y-185607614D02*
X220243735Y-185464757D01*
X220243735Y-185464757D02*
X220386592Y-185393328D01*
X220386592Y-185393328D02*
X220600878Y-185393328D01*
X220600878Y-185393328D02*
X220743735Y-185464757D01*
X220743735Y-185464757D02*
X220815164Y-185607614D01*
X220815164Y-185607614D02*
X220815164Y-186393328D01*
X221172307Y-186536185D02*
X222315164Y-186536185D01*
X223315164Y-186393328D02*
X223315164Y-185607614D01*
X223315164Y-185607614D02*
X223243735Y-185464757D01*
X223243735Y-185464757D02*
X223100878Y-185393328D01*
X223100878Y-185393328D02*
X222815164Y-185393328D01*
X222815164Y-185393328D02*
X222672306Y-185464757D01*
X223315164Y-186321900D02*
X223172306Y-186393328D01*
X223172306Y-186393328D02*
X222815164Y-186393328D01*
X222815164Y-186393328D02*
X222672306Y-186321900D01*
X222672306Y-186321900D02*
X222600878Y-186179042D01*
X222600878Y-186179042D02*
X222600878Y-186036185D01*
X222600878Y-186036185D02*
X222672306Y-185893328D01*
X222672306Y-185893328D02*
X222815164Y-185821900D01*
X222815164Y-185821900D02*
X223172306Y-185821900D01*
X223172306Y-185821900D02*
X223315164Y-185750471D01*
X224672307Y-186393328D02*
X224672307Y-184893328D01*
X224672307Y-186321900D02*
X224529449Y-186393328D01*
X224529449Y-186393328D02*
X224243735Y-186393328D01*
X224243735Y-186393328D02*
X224100878Y-186321900D01*
X224100878Y-186321900D02*
X224029449Y-186250471D01*
X224029449Y-186250471D02*
X223958021Y-186107614D01*
X223958021Y-186107614D02*
X223958021Y-185679042D01*
X223958021Y-185679042D02*
X224029449Y-185536185D01*
X224029449Y-185536185D02*
X224100878Y-185464757D01*
X224100878Y-185464757D02*
X224243735Y-185393328D01*
X224243735Y-185393328D02*
X224529449Y-185393328D01*
X224529449Y-185393328D02*
X224672307Y-185464757D01*
X226029450Y-186393328D02*
X226029450Y-185607614D01*
X226029450Y-185607614D02*
X225958021Y-185464757D01*
X225958021Y-185464757D02*
X225815164Y-185393328D01*
X225815164Y-185393328D02*
X225529450Y-185393328D01*
X225529450Y-185393328D02*
X225386592Y-185464757D01*
X226029450Y-186321900D02*
X225886592Y-186393328D01*
X225886592Y-186393328D02*
X225529450Y-186393328D01*
X225529450Y-186393328D02*
X225386592Y-186321900D01*
X225386592Y-186321900D02*
X225315164Y-186179042D01*
X225315164Y-186179042D02*
X225315164Y-186036185D01*
X225315164Y-186036185D02*
X225386592Y-185893328D01*
X225386592Y-185893328D02*
X225529450Y-185821900D01*
X225529450Y-185821900D02*
X225886592Y-185821900D01*
X225886592Y-185821900D02*
X226029450Y-185750471D01*
X226743735Y-185393328D02*
X226743735Y-186893328D01*
X226743735Y-185464757D02*
X226886593Y-185393328D01*
X226886593Y-185393328D02*
X227172307Y-185393328D01*
X227172307Y-185393328D02*
X227315164Y-185464757D01*
X227315164Y-185464757D02*
X227386593Y-185536185D01*
X227386593Y-185536185D02*
X227458021Y-185679042D01*
X227458021Y-185679042D02*
X227458021Y-186107614D01*
X227458021Y-186107614D02*
X227386593Y-186250471D01*
X227386593Y-186250471D02*
X227315164Y-186321900D01*
X227315164Y-186321900D02*
X227172307Y-186393328D01*
X227172307Y-186393328D02*
X226886593Y-186393328D01*
X226886593Y-186393328D02*
X226743735Y-186321900D01*
X227886593Y-185393328D02*
X228458021Y-185393328D01*
X228100878Y-184893328D02*
X228100878Y-186179042D01*
X228100878Y-186179042D02*
X228172307Y-186321900D01*
X228172307Y-186321900D02*
X228315164Y-186393328D01*
X228315164Y-186393328D02*
X228458021Y-186393328D01*
X229172307Y-186393328D02*
X229029450Y-186321900D01*
X229029450Y-186321900D02*
X228958021Y-186250471D01*
X228958021Y-186250471D02*
X228886593Y-186107614D01*
X228886593Y-186107614D02*
X228886593Y-185679042D01*
X228886593Y-185679042D02*
X228958021Y-185536185D01*
X228958021Y-185536185D02*
X229029450Y-185464757D01*
X229029450Y-185464757D02*
X229172307Y-185393328D01*
X229172307Y-185393328D02*
X229386593Y-185393328D01*
X229386593Y-185393328D02*
X229529450Y-185464757D01*
X229529450Y-185464757D02*
X229600879Y-185536185D01*
X229600879Y-185536185D02*
X229672307Y-185679042D01*
X229672307Y-185679042D02*
X229672307Y-186107614D01*
X229672307Y-186107614D02*
X229600879Y-186250471D01*
X229600879Y-186250471D02*
X229529450Y-186321900D01*
X229529450Y-186321900D02*
X229386593Y-186393328D01*
X229386593Y-186393328D02*
X229172307Y-186393328D01*
X230315164Y-186393328D02*
X230315164Y-185393328D01*
X230315164Y-185679042D02*
X230386593Y-185536185D01*
X230386593Y-185536185D02*
X230458022Y-185464757D01*
X230458022Y-185464757D02*
X230600879Y-185393328D01*
X230600879Y-185393328D02*
X230743736Y-185393328D01*
X231243735Y-186250471D02*
X231315164Y-186321900D01*
X231315164Y-186321900D02*
X231243735Y-186393328D01*
X231243735Y-186393328D02*
X231172307Y-186321900D01*
X231172307Y-186321900D02*
X231243735Y-186250471D01*
X231243735Y-186250471D02*
X231243735Y-186393328D01*
X231958021Y-186393328D02*
X231958021Y-184893328D01*
X232100879Y-185821900D02*
X232529450Y-186393328D01*
X232529450Y-185393328D02*
X231958021Y-185964757D01*
X233172307Y-186393328D02*
X233172307Y-185393328D01*
X233172307Y-184893328D02*
X233100879Y-184964757D01*
X233100879Y-184964757D02*
X233172307Y-185036185D01*
X233172307Y-185036185D02*
X233243736Y-184964757D01*
X233243736Y-184964757D02*
X233172307Y-184893328D01*
X233172307Y-184893328D02*
X233172307Y-185036185D01*
X234529451Y-186321900D02*
X234386593Y-186393328D01*
X234386593Y-186393328D02*
X234100879Y-186393328D01*
X234100879Y-186393328D02*
X233958022Y-186321900D01*
X233958022Y-186321900D02*
X233886593Y-186250471D01*
X233886593Y-186250471D02*
X233815165Y-186107614D01*
X233815165Y-186107614D02*
X233815165Y-185679042D01*
X233815165Y-185679042D02*
X233886593Y-185536185D01*
X233886593Y-185536185D02*
X233958022Y-185464757D01*
X233958022Y-185464757D02*
X234100879Y-185393328D01*
X234100879Y-185393328D02*
X234386593Y-185393328D01*
X234386593Y-185393328D02*
X234529451Y-185464757D01*
X235815165Y-186393328D02*
X235815165Y-185607614D01*
X235815165Y-185607614D02*
X235743736Y-185464757D01*
X235743736Y-185464757D02*
X235600879Y-185393328D01*
X235600879Y-185393328D02*
X235315165Y-185393328D01*
X235315165Y-185393328D02*
X235172307Y-185464757D01*
X235815165Y-186321900D02*
X235672307Y-186393328D01*
X235672307Y-186393328D02*
X235315165Y-186393328D01*
X235315165Y-186393328D02*
X235172307Y-186321900D01*
X235172307Y-186321900D02*
X235100879Y-186179042D01*
X235100879Y-186179042D02*
X235100879Y-186036185D01*
X235100879Y-186036185D02*
X235172307Y-185893328D01*
X235172307Y-185893328D02*
X235315165Y-185821900D01*
X235315165Y-185821900D02*
X235672307Y-185821900D01*
X235672307Y-185821900D02*
X235815165Y-185750471D01*
X237172308Y-186393328D02*
X237172308Y-184893328D01*
X237172308Y-186321900D02*
X237029450Y-186393328D01*
X237029450Y-186393328D02*
X236743736Y-186393328D01*
X236743736Y-186393328D02*
X236600879Y-186321900D01*
X236600879Y-186321900D02*
X236529450Y-186250471D01*
X236529450Y-186250471D02*
X236458022Y-186107614D01*
X236458022Y-186107614D02*
X236458022Y-185679042D01*
X236458022Y-185679042D02*
X236529450Y-185536185D01*
X236529450Y-185536185D02*
X236600879Y-185464757D01*
X236600879Y-185464757D02*
X236743736Y-185393328D01*
X236743736Y-185393328D02*
X237029450Y-185393328D01*
X237029450Y-185393328D02*
X237172308Y-185464757D01*
X237529451Y-186536185D02*
X238672308Y-186536185D01*
X239029450Y-185393328D02*
X239029450Y-186893328D01*
X239029450Y-185464757D02*
X239172308Y-185393328D01*
X239172308Y-185393328D02*
X239458022Y-185393328D01*
X239458022Y-185393328D02*
X239600879Y-185464757D01*
X239600879Y-185464757D02*
X239672308Y-185536185D01*
X239672308Y-185536185D02*
X239743736Y-185679042D01*
X239743736Y-185679042D02*
X239743736Y-186107614D01*
X239743736Y-186107614D02*
X239672308Y-186250471D01*
X239672308Y-186250471D02*
X239600879Y-186321900D01*
X239600879Y-186321900D02*
X239458022Y-186393328D01*
X239458022Y-186393328D02*
X239172308Y-186393328D01*
X239172308Y-186393328D02*
X239029450Y-186321900D01*
X241029451Y-186321900D02*
X240886593Y-186393328D01*
X240886593Y-186393328D02*
X240600879Y-186393328D01*
X240600879Y-186393328D02*
X240458022Y-186321900D01*
X240458022Y-186321900D02*
X240386593Y-186250471D01*
X240386593Y-186250471D02*
X240315165Y-186107614D01*
X240315165Y-186107614D02*
X240315165Y-185679042D01*
X240315165Y-185679042D02*
X240386593Y-185536185D01*
X240386593Y-185536185D02*
X240458022Y-185464757D01*
X240458022Y-185464757D02*
X240600879Y-185393328D01*
X240600879Y-185393328D02*
X240886593Y-185393328D01*
X240886593Y-185393328D02*
X241029451Y-185464757D01*
X241672307Y-186393328D02*
X241672307Y-184893328D01*
X241672307Y-185464757D02*
X241815165Y-185393328D01*
X241815165Y-185393328D02*
X242100879Y-185393328D01*
X242100879Y-185393328D02*
X242243736Y-185464757D01*
X242243736Y-185464757D02*
X242315165Y-185536185D01*
X242315165Y-185536185D02*
X242386593Y-185679042D01*
X242386593Y-185679042D02*
X242386593Y-186107614D01*
X242386593Y-186107614D02*
X242315165Y-186250471D01*
X242315165Y-186250471D02*
X242243736Y-186321900D01*
X242243736Y-186321900D02*
X242100879Y-186393328D01*
X242100879Y-186393328D02*
X241815165Y-186393328D01*
X241815165Y-186393328D02*
X241672307Y-186321900D01*
D10*
D11*
X177002200Y-181507200D02*
X285002200Y-181507200D01*
D10*
D11*
X178386598Y-183621900D02*
X178600884Y-183693328D01*
X178600884Y-183693328D02*
X178958026Y-183693328D01*
X178958026Y-183693328D02*
X179100884Y-183621900D01*
X179100884Y-183621900D02*
X179172312Y-183550471D01*
X179172312Y-183550471D02*
X179243741Y-183407614D01*
X179243741Y-183407614D02*
X179243741Y-183264757D01*
X179243741Y-183264757D02*
X179172312Y-183121900D01*
X179172312Y-183121900D02*
X179100884Y-183050471D01*
X179100884Y-183050471D02*
X178958026Y-182979042D01*
X178958026Y-182979042D02*
X178672312Y-182907614D01*
X178672312Y-182907614D02*
X178529455Y-182836185D01*
X178529455Y-182836185D02*
X178458026Y-182764757D01*
X178458026Y-182764757D02*
X178386598Y-182621900D01*
X178386598Y-182621900D02*
X178386598Y-182479042D01*
X178386598Y-182479042D02*
X178458026Y-182336185D01*
X178458026Y-182336185D02*
X178529455Y-182264757D01*
X178529455Y-182264757D02*
X178672312Y-182193328D01*
X178672312Y-182193328D02*
X179029455Y-182193328D01*
X179029455Y-182193328D02*
X179243741Y-182264757D01*
X179886597Y-183693328D02*
X179886597Y-182193328D01*
X180529455Y-183693328D02*
X180529455Y-182907614D01*
X180529455Y-182907614D02*
X180458026Y-182764757D01*
X180458026Y-182764757D02*
X180315169Y-182693328D01*
X180315169Y-182693328D02*
X180100883Y-182693328D01*
X180100883Y-182693328D02*
X179958026Y-182764757D01*
X179958026Y-182764757D02*
X179886597Y-182836185D01*
X181815169Y-183621900D02*
X181672312Y-183693328D01*
X181672312Y-183693328D02*
X181386598Y-183693328D01*
X181386598Y-183693328D02*
X181243740Y-183621900D01*
X181243740Y-183621900D02*
X181172312Y-183479042D01*
X181172312Y-183479042D02*
X181172312Y-182907614D01*
X181172312Y-182907614D02*
X181243740Y-182764757D01*
X181243740Y-182764757D02*
X181386598Y-182693328D01*
X181386598Y-182693328D02*
X181672312Y-182693328D01*
X181672312Y-182693328D02*
X181815169Y-182764757D01*
X181815169Y-182764757D02*
X181886598Y-182907614D01*
X181886598Y-182907614D02*
X181886598Y-183050471D01*
X181886598Y-183050471D02*
X181172312Y-183193328D01*
X183100883Y-183621900D02*
X182958026Y-183693328D01*
X182958026Y-183693328D02*
X182672312Y-183693328D01*
X182672312Y-183693328D02*
X182529454Y-183621900D01*
X182529454Y-183621900D02*
X182458026Y-183479042D01*
X182458026Y-183479042D02*
X182458026Y-182907614D01*
X182458026Y-182907614D02*
X182529454Y-182764757D01*
X182529454Y-182764757D02*
X182672312Y-182693328D01*
X182672312Y-182693328D02*
X182958026Y-182693328D01*
X182958026Y-182693328D02*
X183100883Y-182764757D01*
X183100883Y-182764757D02*
X183172312Y-182907614D01*
X183172312Y-182907614D02*
X183172312Y-183050471D01*
X183172312Y-183050471D02*
X182458026Y-183193328D01*
X183600883Y-182693328D02*
X184172311Y-182693328D01*
X183815168Y-182193328D02*
X183815168Y-183479042D01*
X183815168Y-183479042D02*
X183886597Y-183621900D01*
X183886597Y-183621900D02*
X184029454Y-183693328D01*
X184029454Y-183693328D02*
X184172311Y-183693328D01*
X184672311Y-183550471D02*
X184743740Y-183621900D01*
X184743740Y-183621900D02*
X184672311Y-183693328D01*
X184672311Y-183693328D02*
X184600883Y-183621900D01*
X184600883Y-183621900D02*
X184672311Y-183550471D01*
X184672311Y-183550471D02*
X184672311Y-183693328D01*
X184672311Y-182764757D02*
X184743740Y-182836185D01*
X184743740Y-182836185D02*
X184672311Y-182907614D01*
X184672311Y-182907614D02*
X184600883Y-182836185D01*
X184600883Y-182836185D02*
X184672311Y-182764757D01*
X184672311Y-182764757D02*
X184672311Y-182907614D01*
D10*
D11*
X197002200Y-191507200D02*
X197002200Y-194507200D01*
D10*
D11*
X261002200Y-191507200D02*
X261002200Y-198007200D01*
D14*
G36*
X132801662Y-45343348D02*
G01*
X132739197Y-45535781D01*
X132718680Y-45609511D01*
X132714559Y-45609511D01*
X132679754Y-45503083D01*
X132634691Y-45367986D01*
X132284264Y-44345371D01*
X132011689Y-44345371D01*
X132011689Y-45846000D01*
X132200183Y-45846000D01*
X132200183Y-44590011D01*
X132204305Y-44590011D01*
X132636706Y-45846000D01*
X132814942Y-45846000D01*
X133245329Y-44569586D01*
X133251465Y-44569586D01*
X133251465Y-45846000D01*
X133440051Y-45846000D01*
X133440051Y-44345371D01*
X133135694Y-44345371D01*
X132801662Y-45343348D01*
G37*
G36*
X131483117Y-44960863D02*
G01*
X130745351Y-44960863D01*
X130745351Y-44345371D01*
X130545591Y-44345371D01*
X130545591Y-45846000D01*
X130745351Y-45846000D01*
X130745351Y-45139191D01*
X131483117Y-45139191D01*
X131483117Y-45846000D01*
X131682968Y-45846000D01*
X131682968Y-44345371D01*
X131483117Y-44345371D01*
X131483117Y-44960863D01*
G37*
G36*
X129893991Y-44352706D02*
G01*
X129974436Y-44373268D01*
X130041603Y-44405680D01*
X130097710Y-44449694D01*
X130160637Y-44524207D01*
X130209801Y-44611598D01*
X130245263Y-44713934D01*
X130266852Y-44821317D01*
X130281056Y-44952091D01*
X130286205Y-45109974D01*
X130277808Y-45296622D01*
X130254734Y-45448899D01*
X130219668Y-45572162D01*
X130174555Y-45671152D01*
X130124273Y-45741911D01*
X130063268Y-45796190D01*
X129990235Y-45835697D01*
X129902728Y-45860587D01*
X129797383Y-45869447D01*
X129697373Y-45861033D01*
X129612641Y-45837195D01*
X129540378Y-45799038D01*
X129478531Y-45746281D01*
X129425981Y-45677289D01*
X129378566Y-45581094D01*
X129341369Y-45457977D01*
X129316638Y-45302115D01*
X129307652Y-45108966D01*
X129497148Y-45108966D01*
X129506304Y-45322237D01*
X129529479Y-45466996D01*
X129557055Y-45553398D01*
X129589998Y-45615678D01*
X129627299Y-45659062D01*
X129674069Y-45691039D01*
X129729944Y-45710792D01*
X129797383Y-45717772D01*
X129865491Y-45710759D01*
X129921510Y-45690978D01*
X129968017Y-45659062D01*
X130004961Y-45615717D01*
X130037574Y-45553449D01*
X130064829Y-45466996D01*
X130087609Y-45322244D01*
X130096611Y-45108966D01*
X130087329Y-44894624D01*
X130063822Y-44748922D01*
X130035957Y-44661652D01*
X130003163Y-44599102D01*
X129966460Y-44555848D01*
X129920366Y-44523717D01*
X129865817Y-44503986D01*
X129800497Y-44497046D01*
X129732994Y-44504028D01*
X129676924Y-44523805D01*
X129629863Y-44555848D01*
X129592218Y-44599233D01*
X129558761Y-44661808D01*
X129530487Y-44748922D01*
X129506584Y-44894633D01*
X129497148Y-45108966D01*
X129307652Y-45108966D01*
X129307554Y-45106860D01*
X129317277Y-44900346D01*
X129343385Y-44740514D01*
X129382036Y-44618690D01*
X129430561Y-44527363D01*
X129484413Y-44461998D01*
X129546608Y-44411942D01*
X129618190Y-44375783D01*
X129700971Y-44353277D01*
X129797383Y-44345371D01*
X129893991Y-44352706D01*
G37*
G36*
X128894204Y-45667672D02*
G01*
X128155430Y-45667672D01*
X128155430Y-45846000D01*
X129150384Y-45846000D01*
X129141192Y-45761884D01*
X129113031Y-45677652D01*
X129063830Y-45591651D01*
X129001580Y-45512652D01*
X128914606Y-45422240D01*
X128797850Y-45318801D01*
X128677957Y-45219517D01*
X128566138Y-45120590D01*
X128484473Y-45036678D01*
X128427456Y-44965718D01*
X128381465Y-44888485D01*
X128356069Y-44817826D01*
X128348046Y-44751853D01*
X128357390Y-44682381D01*
X128384957Y-44620877D01*
X128428466Y-44569095D01*
X128486440Y-44529286D01*
X128553924Y-44504551D01*
X128630879Y-44496039D01*
X128715818Y-44505306D01*
X128784262Y-44531309D01*
X128839890Y-44573250D01*
X128881674Y-44629378D01*
X128910580Y-44703259D01*
X128924978Y-44799846D01*
X129116587Y-44770171D01*
X129101675Y-44684042D01*
X129076084Y-44608636D01*
X129040291Y-44542384D01*
X128993602Y-44483627D01*
X128937756Y-44435063D01*
X128871764Y-44396021D01*
X128799728Y-44368467D01*
X128718931Y-44351337D01*
X128627857Y-44345371D01*
X128534181Y-44351797D01*
X128451941Y-44370183D01*
X128379370Y-44399685D01*
X128313140Y-44440963D01*
X128259278Y-44490115D01*
X128216430Y-44547605D01*
X128184954Y-44612024D01*
X128166002Y-44681040D01*
X128159552Y-44755883D01*
X128169669Y-44847250D01*
X128200779Y-44939444D01*
X128255356Y-45034319D01*
X128323991Y-45121459D01*
X128417565Y-45218929D01*
X128540754Y-45328052D01*
X128680064Y-45443640D01*
X128810215Y-45560785D01*
X128856613Y-45612717D01*
X128894204Y-45667672D01*
G37*
G36*
X127560983Y-44352706D02*
G01*
X127641429Y-44373268D01*
X127708595Y-44405680D01*
X127764703Y-44449694D01*
X127827630Y-44524207D01*
X127876793Y-44611598D01*
X127912256Y-44713934D01*
X127933845Y-44821317D01*
X127948049Y-44952091D01*
X127953197Y-45109974D01*
X127944801Y-45296622D01*
X127921727Y-45448899D01*
X127886660Y-45572162D01*
X127841547Y-45671152D01*
X127791266Y-45741911D01*
X127730261Y-45796190D01*
X127657227Y-45835697D01*
X127569721Y-45860587D01*
X127464375Y-45869447D01*
X127364366Y-45861033D01*
X127279634Y-45837195D01*
X127207370Y-45799038D01*
X127145523Y-45746281D01*
X127092974Y-45677289D01*
X127045559Y-45581094D01*
X127008361Y-45457977D01*
X126983631Y-45302115D01*
X126974644Y-45108966D01*
X127164140Y-45108966D01*
X127173297Y-45322237D01*
X127196472Y-45466996D01*
X127224048Y-45553398D01*
X127256990Y-45615678D01*
X127294291Y-45659062D01*
X127341061Y-45691039D01*
X127396937Y-45710792D01*
X127464375Y-45717772D01*
X127532483Y-45710759D01*
X127588503Y-45690978D01*
X127635010Y-45659062D01*
X127671954Y-45615717D01*
X127704567Y-45553449D01*
X127731821Y-45466996D01*
X127754602Y-45322244D01*
X127763603Y-45108966D01*
X127754321Y-44894624D01*
X127730814Y-44748922D01*
X127702949Y-44661652D01*
X127670155Y-44599102D01*
X127633453Y-44555848D01*
X127587358Y-44523717D01*
X127532809Y-44503986D01*
X127467490Y-44497046D01*
X127399986Y-44504028D01*
X127343917Y-44523805D01*
X127296855Y-44555848D01*
X127259210Y-44599233D01*
X127225753Y-44661808D01*
X127197479Y-44748922D01*
X127173577Y-44894633D01*
X127164140Y-45108966D01*
X126974644Y-45108966D01*
X126974546Y-45106860D01*
X126984269Y-44900346D01*
X127010377Y-44740514D01*
X127049028Y-44618690D01*
X127097553Y-44527363D01*
X127151406Y-44461998D01*
X127213600Y-44411942D01*
X127285182Y-44375783D01*
X127367963Y-44353277D01*
X127464375Y-44345371D01*
X127560983Y-44352706D01*
G37*
G36*
X125870599Y-44547147D02*
G01*
X126468964Y-44547147D01*
X126529414Y-44949231D01*
X126469783Y-44909618D01*
X126402377Y-44879897D01*
X126329830Y-44861605D01*
X126250702Y-44855351D01*
X126168308Y-44862145D01*
X126092412Y-44882075D01*
X126021725Y-44915068D01*
X125958228Y-44960132D01*
X125904158Y-45016330D01*
X125858876Y-45084878D01*
X125826126Y-45160439D01*
X125805903Y-45244891D01*
X125798883Y-45339959D01*
X125806183Y-45441793D01*
X125827260Y-45532877D01*
X125861440Y-45614915D01*
X125909244Y-45689304D01*
X125968332Y-45751331D01*
X126039676Y-45802127D01*
X126119358Y-45838849D01*
X126209163Y-45861547D01*
X126311152Y-45869447D01*
X126409017Y-45862330D01*
X126493552Y-45842081D01*
X126566937Y-45809724D01*
X126630897Y-45765399D01*
X126685041Y-45709673D01*
X126728929Y-45642407D01*
X126762681Y-45561802D01*
X126785594Y-45465439D01*
X126601130Y-45436862D01*
X126577458Y-45525917D01*
X126543528Y-45594483D01*
X126500288Y-45646514D01*
X126445762Y-45685807D01*
X126383164Y-45709538D01*
X126310145Y-45717772D01*
X126251492Y-45712395D01*
X126197911Y-45696626D01*
X126148303Y-45670419D01*
X126084942Y-45614884D01*
X126036654Y-45541093D01*
X126006907Y-45455410D01*
X125996629Y-45357361D01*
X126006696Y-45259049D01*
X126035097Y-45178117D01*
X126081485Y-45110050D01*
X126142167Y-45060515D01*
X126214988Y-45029912D01*
X126300986Y-45019299D01*
X126376534Y-45029398D01*
X126454218Y-45060972D01*
X126522657Y-45109030D01*
X126571454Y-45166485D01*
X126735402Y-45141847D01*
X126619631Y-44368819D01*
X125870599Y-44368819D01*
X125870599Y-44547147D01*
G37*
G36*
X125394692Y-45667672D02*
G01*
X124655919Y-45667672D01*
X124655919Y-45846000D01*
X125650872Y-45846000D01*
X125641680Y-45761884D01*
X125613520Y-45677652D01*
X125564319Y-45591651D01*
X125502069Y-45512652D01*
X125415095Y-45422240D01*
X125298338Y-45318801D01*
X125178446Y-45219517D01*
X125066627Y-45120590D01*
X124984962Y-45036678D01*
X124927944Y-44965718D01*
X124881954Y-44888485D01*
X124856558Y-44817826D01*
X124848535Y-44751853D01*
X124857879Y-44682381D01*
X124885446Y-44620877D01*
X124928955Y-44569095D01*
X124986929Y-44529286D01*
X125054413Y-44504551D01*
X125131368Y-44496039D01*
X125216306Y-44505306D01*
X125284751Y-44531309D01*
X125340379Y-44573250D01*
X125382162Y-44629378D01*
X125411068Y-44703259D01*
X125425467Y-44799846D01*
X125617075Y-44770171D01*
X125602163Y-44684042D01*
X125576573Y-44608636D01*
X125540780Y-44542384D01*
X125494091Y-44483627D01*
X125438244Y-44435063D01*
X125372252Y-44396021D01*
X125300217Y-44368467D01*
X125219420Y-44351337D01*
X125128345Y-44345371D01*
X125034670Y-44351797D01*
X124952430Y-44370183D01*
X124879859Y-44399685D01*
X124813628Y-44440963D01*
X124759767Y-44490115D01*
X124716918Y-44547605D01*
X124685442Y-44612024D01*
X124666490Y-44681040D01*
X124660040Y-44755883D01*
X124670158Y-44847250D01*
X124701267Y-44939444D01*
X124755844Y-45034319D01*
X124824479Y-45121459D01*
X124918053Y-45218929D01*
X125041242Y-45328052D01*
X125180552Y-45443640D01*
X125310703Y-45560785D01*
X125357101Y-45612717D01*
X125394692Y-45667672D01*
G37*
G36*
X124061471Y-44352706D02*
G01*
X124141917Y-44373268D01*
X124209084Y-44405680D01*
X124265191Y-44449694D01*
X124328118Y-44524207D01*
X124377282Y-44611598D01*
X124412744Y-44713934D01*
X124434333Y-44821317D01*
X124448537Y-44952091D01*
X124453685Y-45109974D01*
X124445289Y-45296622D01*
X124422215Y-45448899D01*
X124387148Y-45572162D01*
X124342036Y-45671152D01*
X124291754Y-45741911D01*
X124230749Y-45796190D01*
X124157716Y-45835697D01*
X124070209Y-45860587D01*
X123964864Y-45869447D01*
X123864854Y-45861033D01*
X123780122Y-45837195D01*
X123707859Y-45799038D01*
X123646011Y-45746281D01*
X123593462Y-45677289D01*
X123546047Y-45581094D01*
X123508849Y-45457977D01*
X123484119Y-45302115D01*
X123475133Y-45108966D01*
X123664628Y-45108966D01*
X123673785Y-45322237D01*
X123696960Y-45466996D01*
X123724536Y-45553398D01*
X123757478Y-45615678D01*
X123794779Y-45659062D01*
X123841550Y-45691039D01*
X123897425Y-45710792D01*
X123964864Y-45717772D01*
X124032972Y-45710759D01*
X124088991Y-45690978D01*
X124135498Y-45659062D01*
X124172442Y-45615717D01*
X124205055Y-45553449D01*
X124232310Y-45466996D01*
X124255090Y-45322244D01*
X124264092Y-45108966D01*
X124254810Y-44894624D01*
X124231302Y-44748922D01*
X124203437Y-44661652D01*
X124170644Y-44599102D01*
X124133941Y-44555848D01*
X124087847Y-44523717D01*
X124033298Y-44503986D01*
X123967978Y-44497046D01*
X123900475Y-44504028D01*
X123844405Y-44523805D01*
X123797344Y-44555848D01*
X123759699Y-44599233D01*
X123726241Y-44661808D01*
X123697968Y-44748922D01*
X123674065Y-44894633D01*
X123664628Y-45108966D01*
X123475133Y-45108966D01*
X123475035Y-45106860D01*
X123484758Y-44900346D01*
X123510866Y-44740514D01*
X123549517Y-44618690D01*
X123598042Y-44527363D01*
X123651894Y-44461998D01*
X123714089Y-44411942D01*
X123785671Y-44375783D01*
X123868452Y-44353277D01*
X123964864Y-44345371D01*
X124061471Y-44352706D01*
G37*
G36*
X123061684Y-45667672D02*
G01*
X122322911Y-45667672D01*
X122322911Y-45846000D01*
X123317865Y-45846000D01*
X123308673Y-45761884D01*
X123280512Y-45677652D01*
X123231311Y-45591651D01*
X123169061Y-45512652D01*
X123082087Y-45422240D01*
X122965331Y-45318801D01*
X122845438Y-45219517D01*
X122733619Y-45120590D01*
X122651954Y-45036678D01*
X122594936Y-44965718D01*
X122548946Y-44888485D01*
X122523550Y-44817826D01*
X122515527Y-44751853D01*
X122524871Y-44682381D01*
X122552438Y-44620877D01*
X122595947Y-44569095D01*
X122653921Y-44529286D01*
X122721405Y-44504551D01*
X122798360Y-44496039D01*
X122883298Y-44505306D01*
X122951743Y-44531309D01*
X123007371Y-44573250D01*
X123049154Y-44629378D01*
X123078061Y-44703259D01*
X123092459Y-44799846D01*
X123284068Y-44770171D01*
X123269156Y-44684042D01*
X123243565Y-44608636D01*
X123207772Y-44542384D01*
X123161083Y-44483627D01*
X123105237Y-44435063D01*
X123039245Y-44396021D01*
X122967209Y-44368467D01*
X122886412Y-44351337D01*
X122795338Y-44345371D01*
X122701662Y-44351797D01*
X122619422Y-44370183D01*
X122546851Y-44399685D01*
X122480621Y-44440963D01*
X122426759Y-44490115D01*
X122383911Y-44547605D01*
X122352434Y-44612024D01*
X122333482Y-44681040D01*
X122327032Y-44755883D01*
X122337150Y-44847250D01*
X122368259Y-44939444D01*
X122422837Y-45034319D01*
X122491472Y-45121459D01*
X122585045Y-45218929D01*
X122708234Y-45328052D01*
X122847545Y-45443640D01*
X122977695Y-45560785D01*
X123024094Y-45612717D01*
X123061684Y-45667672D01*
G37*
G36*
X121428982Y-45846000D02*
G01*
X121613446Y-45846000D01*
X121613446Y-44678030D01*
X121687570Y-44742630D01*
X121778952Y-44803968D01*
X121878239Y-44856537D01*
X121983291Y-44900139D01*
X121983291Y-44722086D01*
X121838899Y-44641953D01*
X121713830Y-44548062D01*
X121639274Y-44475860D01*
X121585420Y-44408563D01*
X121548875Y-44345371D01*
X121428982Y-44345371D01*
X121428982Y-45846000D01*
G37*
G36*
X119972501Y-45408103D02*
G01*
X119979849Y-45497041D01*
X120001164Y-45576811D01*
X120036065Y-45649079D01*
X120083735Y-45713510D01*
X120142263Y-45767463D01*
X120212836Y-45811653D01*
X120290229Y-45843208D01*
X120376253Y-45862693D01*
X120472497Y-45869447D01*
X120556736Y-45863615D01*
X120633910Y-45846613D01*
X120705138Y-45818797D01*
X120770747Y-45780001D01*
X120827351Y-45731796D01*
X120875772Y-45673534D01*
X120913689Y-45607902D01*
X120940900Y-45534521D01*
X120957196Y-45452066D01*
X120772732Y-45422391D01*
X120745783Y-45518224D01*
X120710081Y-45590624D01*
X120666761Y-45644224D01*
X120611987Y-45684669D01*
X120548108Y-45709209D01*
X120472497Y-45717772D01*
X120389003Y-45707727D01*
X120316242Y-45678479D01*
X120254804Y-45631467D01*
X120208714Y-45569120D01*
X120180063Y-45495651D01*
X120170246Y-45412133D01*
X120179609Y-45329447D01*
X120206150Y-45261465D01*
X120249245Y-45204882D01*
X120307083Y-45162822D01*
X120375793Y-45137031D01*
X120457201Y-45128017D01*
X120617027Y-45128017D01*
X120594496Y-44978449D01*
X120558592Y-44978449D01*
X120444422Y-44969961D01*
X120360952Y-44947515D01*
X120300946Y-44914244D01*
X120254510Y-44865926D01*
X120226378Y-44805645D01*
X120216408Y-44729596D01*
X120224485Y-44659828D01*
X120247196Y-44603784D01*
X120284094Y-44558321D01*
X120332606Y-44524728D01*
X120392968Y-44503620D01*
X120468467Y-44496039D01*
X120541419Y-44504351D01*
X120603623Y-44528269D01*
X120657510Y-44567846D01*
X120700367Y-44619933D01*
X120732491Y-44685358D01*
X120753315Y-44767057D01*
X120940802Y-44738480D01*
X120921145Y-44659542D01*
X120892367Y-44590011D01*
X120854706Y-44528645D01*
X120807735Y-44474267D01*
X120753334Y-44429209D01*
X120690758Y-44392907D01*
X120623058Y-44366812D01*
X120549647Y-44350850D01*
X120469474Y-44345371D01*
X120381627Y-44350947D01*
X120304446Y-44366880D01*
X120236375Y-44392358D01*
X120173879Y-44428669D01*
X120122907Y-44472797D01*
X120082135Y-44525165D01*
X120052337Y-44584411D01*
X120034117Y-44650283D01*
X120027822Y-44724284D01*
X120034614Y-44791753D01*
X120054646Y-44853759D01*
X120088272Y-44911679D01*
X120132968Y-44961801D01*
X120187795Y-45002726D01*
X120254235Y-45034777D01*
X120254235Y-45039907D01*
X120173102Y-45067714D01*
X120104667Y-45110981D01*
X120048584Y-45168710D01*
X120006848Y-45239392D01*
X119981281Y-45318955D01*
X119972501Y-45408103D01*
G37*
G36*
X119562173Y-45667672D02*
G01*
X118823399Y-45667672D01*
X118823399Y-45846000D01*
X119818353Y-45846000D01*
X119809161Y-45761884D01*
X119781000Y-45677652D01*
X119731800Y-45591651D01*
X119669550Y-45512652D01*
X119582576Y-45422240D01*
X119465819Y-45318801D01*
X119345926Y-45219517D01*
X119234107Y-45120590D01*
X119152443Y-45036678D01*
X119095425Y-44965718D01*
X119049435Y-44888485D01*
X119024038Y-44817826D01*
X119016015Y-44751853D01*
X119025360Y-44682381D01*
X119052927Y-44620877D01*
X119096436Y-44569095D01*
X119154409Y-44529286D01*
X119221893Y-44504551D01*
X119298849Y-44496039D01*
X119383787Y-44505306D01*
X119452232Y-44531309D01*
X119507859Y-44573250D01*
X119549643Y-44629378D01*
X119578549Y-44703259D01*
X119592948Y-44799846D01*
X119784556Y-44770171D01*
X119769644Y-44684042D01*
X119744054Y-44608636D01*
X119708261Y-44542384D01*
X119661571Y-44483627D01*
X119605725Y-44435063D01*
X119539733Y-44396021D01*
X119467697Y-44368467D01*
X119386900Y-44351337D01*
X119295826Y-44345371D01*
X119202151Y-44351797D01*
X119119911Y-44370183D01*
X119047340Y-44399685D01*
X118981109Y-44440963D01*
X118927247Y-44490115D01*
X118884399Y-44547605D01*
X118852923Y-44612024D01*
X118833971Y-44681040D01*
X118827521Y-44755883D01*
X118837638Y-44847250D01*
X118868748Y-44939444D01*
X118923325Y-45034319D01*
X118991960Y-45121459D01*
X119085534Y-45218929D01*
X119208723Y-45328052D01*
X119348033Y-45443640D01*
X119478184Y-45560785D01*
X119524582Y-45612717D01*
X119562173Y-45667672D01*
G37*
G36*
X117929471Y-45846000D02*
G01*
X118113935Y-45846000D01*
X118113935Y-44678030D01*
X118188059Y-44742630D01*
X118279440Y-44803968D01*
X118378728Y-44856537D01*
X118483780Y-44900139D01*
X118483780Y-44722086D01*
X118339388Y-44641953D01*
X118214319Y-44548062D01*
X118139763Y-44475860D01*
X118085909Y-44408563D01*
X118049363Y-44345371D01*
X117929471Y-44345371D01*
X117929471Y-45846000D01*
G37*
G36*
X116391015Y-44523699D02*
G01*
X117274320Y-45667672D01*
X116365370Y-45667672D01*
X116365370Y-45846000D01*
X117510991Y-45846000D01*
X117510991Y-45659520D01*
X116631808Y-44523699D01*
X117446419Y-44523699D01*
X117446419Y-44345371D01*
X116391015Y-44345371D01*
X116391015Y-44523699D01*
G37*
G36*
X115989389Y-45667672D02*
G01*
X115250615Y-45667672D01*
X115250615Y-45846000D01*
X116245569Y-45846000D01*
X116236377Y-45761884D01*
X116208216Y-45677652D01*
X116159015Y-45591651D01*
X116096765Y-45512652D01*
X116009791Y-45422240D01*
X115893035Y-45318801D01*
X115773142Y-45219517D01*
X115661323Y-45120590D01*
X115579658Y-45036678D01*
X115522640Y-44965718D01*
X115476650Y-44888485D01*
X115451254Y-44817826D01*
X115443231Y-44751853D01*
X115452575Y-44682381D01*
X115480142Y-44620877D01*
X115523651Y-44569095D01*
X115581625Y-44529286D01*
X115649109Y-44504551D01*
X115726064Y-44496039D01*
X115811003Y-44505306D01*
X115879447Y-44531309D01*
X115935075Y-44573250D01*
X115976859Y-44629378D01*
X116005765Y-44703259D01*
X116020163Y-44799846D01*
X116211772Y-44770171D01*
X116196860Y-44684042D01*
X116171269Y-44608636D01*
X116135476Y-44542384D01*
X116088787Y-44483627D01*
X116032941Y-44435063D01*
X115966949Y-44396021D01*
X115894913Y-44368467D01*
X115814116Y-44351337D01*
X115723042Y-44345371D01*
X115629366Y-44351797D01*
X115547126Y-44370183D01*
X115474555Y-44399685D01*
X115408325Y-44440963D01*
X115354463Y-44490115D01*
X115311615Y-44547605D01*
X115280139Y-44612024D01*
X115261187Y-44681040D01*
X115254737Y-44755883D01*
X115264854Y-44847250D01*
X115295964Y-44939444D01*
X115350541Y-45034319D01*
X115419176Y-45121459D01*
X115512750Y-45218929D01*
X115635939Y-45328052D01*
X115775249Y-45443640D01*
X115905400Y-45560785D01*
X115951798Y-45612717D01*
X115989389Y-45667672D01*
G37*
D15*
%TO.P,J1,1,Pin_1*%
%TO.N,/VPP*%
X93974500Y-53340000D03*
D16*
%TO.P,J1,2,Pin_2*%
%TO.N,/A16*%
X93974500Y-55880000D03*
%TO.P,J1,3,Pin_3*%
%TO.N,/A15*%
X93974500Y-58420000D03*
%TO.P,J1,4,Pin_4*%
%TO.N,/A12*%
X93974500Y-60960000D03*
%TO.P,J1,5,Pin_5*%
%TO.N,/A7*%
X93974500Y-63500000D03*
%TO.P,J1,6,Pin_6*%
%TO.N,/A6*%
X93974500Y-66040000D03*
%TO.P,J1,7,Pin_7*%
%TO.N,/A5*%
X93974500Y-68580000D03*
%TO.P,J1,8,Pin_8*%
%TO.N,/A4*%
X93974500Y-71120000D03*
%TO.P,J1,9,Pin_9*%
%TO.N,/A3*%
X93974500Y-73660000D03*
%TO.P,J1,10,Pin_10*%
%TO.N,/A2*%
X93974500Y-76200000D03*
%TO.P,J1,11,Pin_11*%
%TO.N,/A1*%
X93974500Y-78740000D03*
%TO.P,J1,12,Pin_12*%
%TO.N,/A0*%
X93974500Y-81280000D03*
%TO.P,J1,13,Pin_13*%
%TO.N,/D0*%
X93974500Y-83820000D03*
%TO.P,J1,14,Pin_14*%
%TO.N,/D1*%
X93974500Y-86360000D03*
%TO.P,J1,15,Pin_15*%
%TO.N,/D2*%
X93974500Y-88900000D03*
%TO.P,J1,16,Pin_16*%
%TO.N,/GND*%
X93974500Y-91440000D03*
%TO.P,J1,17,Pin_17*%
%TO.N,/D3*%
X109214500Y-91440000D03*
%TO.P,J1,18,Pin_18*%
%TO.N,/D4*%
X109214500Y-88900000D03*
%TO.P,J1,19,Pin_19*%
%TO.N,/D5*%
X109214500Y-86360000D03*
%TO.P,J1,20,Pin_20*%
%TO.N,/D6*%
X109214500Y-83820000D03*
%TO.P,J1,21,Pin_21*%
%TO.N,/D7*%
X109214500Y-81280000D03*
%TO.P,J1,22,Pin_22*%
%TO.N,/~CE*%
X109214500Y-78740000D03*
%TO.P,J1,23,Pin_23*%
%TO.N,/A10*%
X109214500Y-76200000D03*
%TO.P,J1,24,Pin_24*%
%TO.N,/~OE*%
X109214500Y-73660000D03*
%TO.P,J1,25,Pin_25*%
%TO.N,/A11*%
X109214500Y-71120000D03*
%TO.P,J1,26,Pin_26*%
%TO.N,/A9*%
X109214500Y-68580000D03*
%TO.P,J1,27,Pin_27*%
%TO.N,/A8*%
X109214500Y-66040000D03*
%TO.P,J1,28,Pin_28*%
%TO.N,/A13*%
X109214500Y-63500000D03*
%TO.P,J1,29,Pin_29*%
%TO.N,/A14*%
X109214500Y-60960000D03*
%TO.P,J1,30,Pin_30*%
%TO.N,/Pin30*%
X109214500Y-58420000D03*
%TO.P,J1,31,Pin_31*%
%TO.N,/~PGM*%
X109214500Y-55880000D03*
%TO.P,J1,32,Pin_32*%
%TO.N,/VCC*%
X109214500Y-53340000D03*
%TD*%
D17*
%TO.P,J2,1,Pin_1*%
%TO.N,/VPP*%
X116840000Y-53340000D03*
D18*
%TO.P,J2,2,Pin_2*%
%TO.N,/~OE*%
X116840000Y-55880000D03*
%TO.P,J2,3,Pin_3*%
%TO.N,/A15*%
X116840000Y-58420000D03*
%TO.P,J2,4,Pin_4*%
%TO.N,/A12*%
X116840000Y-60960000D03*
%TO.P,J2,5,Pin_5*%
%TO.N,/A7*%
X116840000Y-63500000D03*
%TO.P,J2,6,Pin_6*%
%TO.N,/A6*%
X116840000Y-66040000D03*
%TO.P,J2,7,Pin_7*%
%TO.N,/A5*%
X116840000Y-68580000D03*
%TO.P,J2,8,Pin_8*%
%TO.N,/A4*%
X116840000Y-71120000D03*
%TO.P,J2,9,Pin_9*%
%TO.N,/A3*%
X116840000Y-73660000D03*
%TO.P,J2,10,Pin_10*%
%TO.N,/A2*%
X116840000Y-76200000D03*
%TO.P,J2,11,Pin_11*%
%TO.N,/A1*%
X116840000Y-78740000D03*
%TO.P,J2,12,Pin_12*%
%TO.N,/A0*%
X116840000Y-81280000D03*
%TO.P,J2,13,Pin_13*%
%TO.N,/D0*%
X116840000Y-83820000D03*
%TO.P,J2,14,Pin_14*%
%TO.N,/D1*%
X116840000Y-86360000D03*
%TO.P,J2,15,Pin_15*%
%TO.N,/D2*%
X116840000Y-88900000D03*
%TO.P,J2,16,Pin_16*%
%TO.N,/GND*%
X116840000Y-91440000D03*
%TO.P,J2,17,Pin_17*%
%TO.N,/D3*%
X132080000Y-91440000D03*
%TO.P,J2,18,Pin_18*%
%TO.N,/D4*%
X132080000Y-88900000D03*
%TO.P,J2,19,Pin_19*%
%TO.N,/D5*%
X132080000Y-86360000D03*
%TO.P,J2,20,Pin_20*%
%TO.N,/D6*%
X132080000Y-83820000D03*
%TO.P,J2,21,Pin_21*%
%TO.N,/D7*%
X132080000Y-81280000D03*
%TO.P,J2,22,Pin_22*%
%TO.N,/~CE*%
X132080000Y-78740000D03*
%TO.P,J2,23,Pin_23*%
%TO.N,/A10*%
X132080000Y-76200000D03*
%TO.P,J2,24,Pin_24*%
%TO.N,/A16*%
X132080000Y-73660000D03*
%TO.P,J2,25,Pin_25*%
%TO.N,/A11*%
X132080000Y-71120000D03*
%TO.P,J2,26,Pin_26*%
%TO.N,/A9*%
X132080000Y-68580000D03*
%TO.P,J2,27,Pin_27*%
%TO.N,/A8*%
X132080000Y-66040000D03*
%TO.P,J2,28,Pin_28*%
%TO.N,/A13*%
X132080000Y-63500000D03*
%TO.P,J2,29,Pin_29*%
%TO.N,/A14*%
X132080000Y-60960000D03*
%TO.P,J2,30,Pin_30*%
%TO.N,/Pin30*%
X132080000Y-58420000D03*
%TO.P,J2,31,Pin_31*%
%TO.N,/~PGM*%
X132080000Y-55880000D03*
%TO.P,J2,32,Pin_32*%
%TO.N,/VCC*%
X132080000Y-53340000D03*
%TD*%
D19*
%TO.N,/~OE*%
X115824000Y-74930000D03*
%TO.N,/A16*%
X117856000Y-74930000D03*
X115062000Y-55880000D03*
%TD*%
D20*
%TO.N,/~OE*%
X115062000Y-74168000D02*
X115062000Y-57658000D01*
X115824000Y-74930000D02*
X115062000Y-74168000D01*
X115062000Y-57658000D02*
X116840000Y-55880000D01*
%TO.N,/A16*%
X115062000Y-55118000D02*
X115570000Y-54610000D01*
X115570000Y-54610000D02*
X118110000Y-54610000D01*
X115062000Y-55880000D02*
X115062000Y-55118000D01*
X118618000Y-74168000D02*
X117856000Y-74930000D01*
X118618000Y-55118000D02*
X118618000Y-74168000D01*
X118110000Y-54610000D02*
X118618000Y-55118000D01*
%TD*%
%TA.AperFunction,Conductor*%
%TO.N,/GND*%
G36*
X134934108Y-42500500D02*
G01*
X134996195Y-42500500D01*
X135003801Y-42500730D01*
X135031109Y-42502381D01*
X135293686Y-42518264D01*
X135308763Y-42520095D01*
X135528896Y-42560436D01*
X135592291Y-42592387D01*
X135595275Y-42595275D01*
X137404723Y-44404723D01*
X137414376Y-44422402D01*
X137428145Y-44437109D01*
X137437313Y-44464406D01*
X137438749Y-44467035D01*
X137439564Y-44471106D01*
X137479902Y-44691222D01*
X137481736Y-44706326D01*
X137499270Y-44996196D01*
X137499500Y-45003804D01*
X137499500Y-98996194D01*
X137499270Y-99003802D01*
X137481736Y-99293673D01*
X137479902Y-99308777D01*
X137428243Y-99590671D01*
X137424602Y-99605445D01*
X137339339Y-99879062D01*
X137333943Y-99893288D01*
X137216325Y-100154624D01*
X137209255Y-100168096D01*
X137060993Y-100413352D01*
X137052349Y-100425875D01*
X136978266Y-100520434D01*
X136968176Y-100531822D01*
X136531822Y-100968176D01*
X136520434Y-100978266D01*
X136425875Y-101052349D01*
X136413352Y-101060993D01*
X136168096Y-101209255D01*
X136154624Y-101216325D01*
X135893288Y-101333943D01*
X135879062Y-101339339D01*
X135605445Y-101424602D01*
X135590671Y-101428243D01*
X135308777Y-101479902D01*
X135293673Y-101481736D01*
X135003802Y-101499270D01*
X134996194Y-101499500D01*
X93003806Y-101499500D01*
X92996198Y-101499270D01*
X92706326Y-101481736D01*
X92691222Y-101479902D01*
X92409328Y-101428243D01*
X92394558Y-101424603D01*
X92120937Y-101339339D01*
X92106711Y-101333943D01*
X91845375Y-101216325D01*
X91831903Y-101209255D01*
X91586635Y-101060985D01*
X91574130Y-101052353D01*
X91479560Y-100978263D01*
X91468179Y-100968179D01*
X91031819Y-100531819D01*
X91021732Y-100520434D01*
X90947643Y-100425866D01*
X90939016Y-100413367D01*
X90790740Y-100168090D01*
X90783674Y-100154624D01*
X90666056Y-99893288D01*
X90660663Y-99879071D01*
X90575393Y-99605429D01*
X90571758Y-99590682D01*
X90520095Y-99308765D01*
X90518264Y-99293684D01*
X90500730Y-99003801D01*
X90500500Y-98996194D01*
X90500500Y-62571040D01*
X90503638Y-62560351D01*
X90502393Y-62549281D01*
X90513464Y-62526887D01*
X90520502Y-62502919D01*
X90529745Y-62493955D01*
X90533858Y-62485638D01*
X90561672Y-62462997D01*
X90573105Y-62456137D01*
X90619249Y-62428450D01*
X90653913Y-62414159D01*
X90745266Y-62391643D01*
X91028113Y-62284373D01*
X91028121Y-62284368D01*
X91028125Y-62284367D01*
X91159078Y-62215637D01*
X91295967Y-62143792D01*
X91544924Y-61971950D01*
X91771352Y-61771352D01*
X91823107Y-61712932D01*
X91852585Y-61688448D01*
X92546316Y-61272210D01*
X92615017Y-61254315D01*
X92682489Y-61276404D01*
X92727309Y-61331465D01*
X92730972Y-61341319D01*
X92759301Y-61428509D01*
X92769280Y-61459219D01*
X92807183Y-61533608D01*
X92862214Y-61641612D01*
X92982534Y-61807220D01*
X93127279Y-61951965D01*
X93198710Y-62003862D01*
X93292890Y-62072287D01*
X93367234Y-62110167D01*
X93382083Y-62117733D01*
X93433698Y-62166482D01*
X93450764Y-62235397D01*
X93427863Y-62302598D01*
X93382083Y-62342267D01*
X93292888Y-62387714D01*
X93127279Y-62508034D01*
X92982534Y-62652779D01*
X92862214Y-62818387D01*
X92769281Y-63000779D01*
X92769278Y-63000785D01*
X92706024Y-63195461D01*
X92706023Y-63195464D01*
X92706023Y-63195466D01*
X92674000Y-63397648D01*
X92674000Y-63602352D01*
X92703056Y-63785801D01*
X92706024Y-63804538D01*
X92759301Y-63968509D01*
X92769280Y-63999219D01*
X92769281Y-63999220D01*
X92862214Y-64181612D01*
X92982534Y-64347220D01*
X93127279Y-64491965D01*
X93198710Y-64543862D01*
X93292890Y-64612287D01*
X93367234Y-64650167D01*
X93382083Y-64657733D01*
X93433698Y-64706482D01*
X93450764Y-64775397D01*
X93427863Y-64842598D01*
X93382083Y-64882267D01*
X93292888Y-64927714D01*
X93127279Y-65048034D01*
X92982534Y-65192779D01*
X92862214Y-65358387D01*
X92769281Y-65540779D01*
X92769278Y-65540785D01*
X92706024Y-65735461D01*
X92706023Y-65735464D01*
X92706023Y-65735466D01*
X92674000Y-65937648D01*
X92674000Y-66142352D01*
X92703056Y-66325801D01*
X92706024Y-66344538D01*
X92759301Y-66508509D01*
X92769280Y-66539219D01*
X92769281Y-66539220D01*
X92862214Y-66721612D01*
X92982534Y-66887220D01*
X93127279Y-67031965D01*
X93198710Y-67083862D01*
X93292890Y-67152287D01*
X93367234Y-67190167D01*
X93382083Y-67197733D01*
X93433698Y-67246482D01*
X93450764Y-67315397D01*
X93427863Y-67382598D01*
X93382083Y-67422267D01*
X93292888Y-67467714D01*
X93127279Y-67588034D01*
X92982534Y-67732779D01*
X92862214Y-67898387D01*
X92769281Y-68080779D01*
X92769278Y-68080785D01*
X92706024Y-68275461D01*
X92706023Y-68275464D01*
X92706023Y-68275466D01*
X92674000Y-68477648D01*
X92674000Y-68682352D01*
X92703056Y-68865801D01*
X92706024Y-68884538D01*
X92759301Y-69048509D01*
X92769280Y-69079219D01*
X92769281Y-69079220D01*
X92862214Y-69261612D01*
X92982534Y-69427220D01*
X93127279Y-69571965D01*
X93198710Y-69623862D01*
X93292890Y-69692287D01*
X93367234Y-69730167D01*
X93382083Y-69737733D01*
X93433698Y-69786482D01*
X93450764Y-69855397D01*
X93427863Y-69922598D01*
X93382083Y-69962267D01*
X93292888Y-70007714D01*
X93127279Y-70128034D01*
X92982534Y-70272779D01*
X92862214Y-70438387D01*
X92769281Y-70620779D01*
X92769278Y-70620785D01*
X92706024Y-70815461D01*
X92706023Y-70815464D01*
X92706023Y-70815466D01*
X92674000Y-71017648D01*
X92674000Y-71222352D01*
X92703056Y-71405801D01*
X92706024Y-71424538D01*
X92759301Y-71588509D01*
X92769280Y-71619219D01*
X92769281Y-71619220D01*
X92862214Y-71801612D01*
X92982534Y-71967220D01*
X93127279Y-72111965D01*
X93198710Y-72163862D01*
X93292890Y-72232287D01*
X93367234Y-72270167D01*
X93382083Y-72277733D01*
X93433698Y-72326482D01*
X93450764Y-72395397D01*
X93427863Y-72462598D01*
X93382083Y-72502267D01*
X93292888Y-72547714D01*
X93127279Y-72668034D01*
X92982534Y-72812779D01*
X92862214Y-72978387D01*
X92769281Y-73160779D01*
X92769278Y-73160785D01*
X92706024Y-73355461D01*
X92706023Y-73355464D01*
X92706023Y-73355466D01*
X92674000Y-73557648D01*
X92674000Y-73762352D01*
X92703056Y-73945801D01*
X92706024Y-73964538D01*
X92759301Y-74128509D01*
X92769280Y-74159219D01*
X92808910Y-74236997D01*
X92862214Y-74341612D01*
X92982534Y-74507220D01*
X93127279Y-74651965D01*
X93198710Y-74703862D01*
X93292890Y-74772287D01*
X93367234Y-74810167D01*
X93382083Y-74817733D01*
X93433698Y-74866482D01*
X93450764Y-74935397D01*
X93427863Y-75002598D01*
X93382083Y-75042267D01*
X93292888Y-75087714D01*
X93127279Y-75208034D01*
X92982534Y-75352779D01*
X92862214Y-75518387D01*
X92769281Y-75700779D01*
X92769278Y-75700785D01*
X92706024Y-75895461D01*
X92706023Y-75895464D01*
X92706023Y-75895466D01*
X92674000Y-76097648D01*
X92674000Y-76302352D01*
X92703056Y-76485801D01*
X92706024Y-76504538D01*
X92759301Y-76668509D01*
X92769280Y-76699219D01*
X92769281Y-76699220D01*
X92862214Y-76881612D01*
X92982534Y-77047220D01*
X93127279Y-77191965D01*
X93198710Y-77243862D01*
X93292890Y-77312287D01*
X93367234Y-77350167D01*
X93382083Y-77357733D01*
X93433698Y-77406482D01*
X93450764Y-77475397D01*
X93427863Y-77542598D01*
X93382083Y-77582267D01*
X93292888Y-77627714D01*
X93127279Y-77748034D01*
X92982534Y-77892779D01*
X92862214Y-78058387D01*
X92769281Y-78240779D01*
X92769278Y-78240785D01*
X92706024Y-78435461D01*
X92706023Y-78435464D01*
X92706023Y-78435466D01*
X92674000Y-78637648D01*
X92674000Y-78842352D01*
X92703056Y-79025801D01*
X92706024Y-79044538D01*
X92759301Y-79208509D01*
X92769280Y-79239219D01*
X92769281Y-79239220D01*
X92862214Y-79421612D01*
X92982534Y-79587220D01*
X93127279Y-79731965D01*
X93198710Y-79783862D01*
X93292890Y-79852287D01*
X93367234Y-79890167D01*
X93382083Y-79897733D01*
X93433698Y-79946482D01*
X93450764Y-80015397D01*
X93427863Y-80082598D01*
X93382083Y-80122267D01*
X93292888Y-80167714D01*
X93127279Y-80288034D01*
X92982534Y-80432779D01*
X92862214Y-80598387D01*
X92769281Y-80780779D01*
X92769278Y-80780785D01*
X92706024Y-80975461D01*
X92706023Y-80975464D01*
X92706023Y-80975466D01*
X92674000Y-81177648D01*
X92674000Y-81382352D01*
X92703056Y-81565801D01*
X92706024Y-81584538D01*
X92759301Y-81748509D01*
X92769280Y-81779219D01*
X92769281Y-81779220D01*
X92862214Y-81961612D01*
X92982534Y-82127220D01*
X93127279Y-82271965D01*
X93198710Y-82323862D01*
X93292890Y-82392287D01*
X93367234Y-82430167D01*
X93382083Y-82437733D01*
X93433698Y-82486482D01*
X93450764Y-82555397D01*
X93427863Y-82622598D01*
X93382083Y-82662267D01*
X93292888Y-82707714D01*
X93127279Y-82828034D01*
X92982534Y-82972779D01*
X92862214Y-83138387D01*
X92769281Y-83320779D01*
X92769278Y-83320785D01*
X92706024Y-83515461D01*
X92706023Y-83515464D01*
X92706023Y-83515466D01*
X92674000Y-83717648D01*
X92674000Y-83922352D01*
X92703056Y-84105801D01*
X92706024Y-84124538D01*
X92759301Y-84288509D01*
X92769280Y-84319219D01*
X92769281Y-84319220D01*
X92862214Y-84501612D01*
X92982534Y-84667220D01*
X93127279Y-84811965D01*
X93198710Y-84863862D01*
X93292890Y-84932287D01*
X93367234Y-84970167D01*
X93382083Y-84977733D01*
X93433698Y-85026482D01*
X93450764Y-85095397D01*
X93427863Y-85162598D01*
X93382083Y-85202267D01*
X93292888Y-85247714D01*
X93127279Y-85368034D01*
X92982534Y-85512779D01*
X92862214Y-85678387D01*
X92769281Y-85860779D01*
X92769278Y-85860785D01*
X92706024Y-86055461D01*
X92706023Y-86055464D01*
X92706023Y-86055466D01*
X92674000Y-86257648D01*
X92674000Y-86462352D01*
X92703056Y-86645801D01*
X92706024Y-86664538D01*
X92759301Y-86828509D01*
X92769280Y-86859219D01*
X92769281Y-86859220D01*
X92862214Y-87041612D01*
X92982534Y-87207220D01*
X93127279Y-87351965D01*
X93198710Y-87403862D01*
X93292890Y-87472287D01*
X93367234Y-87510167D01*
X93382083Y-87517733D01*
X93433698Y-87566482D01*
X93450764Y-87635397D01*
X93427863Y-87702598D01*
X93382083Y-87742267D01*
X93292888Y-87787714D01*
X93127279Y-87908034D01*
X92982534Y-88052779D01*
X92862214Y-88218387D01*
X92769281Y-88400779D01*
X92769278Y-88400785D01*
X92706024Y-88595461D01*
X92706023Y-88595464D01*
X92706023Y-88595466D01*
X92674000Y-88797648D01*
X92674000Y-89002352D01*
X92703056Y-89185801D01*
X92706024Y-89204538D01*
X92759301Y-89368509D01*
X92769280Y-89399219D01*
X92769281Y-89399220D01*
X92862214Y-89581612D01*
X92982534Y-89747220D01*
X93127279Y-89891965D01*
X93198710Y-89943862D01*
X93292890Y-90012287D01*
X93382633Y-90058013D01*
X93434248Y-90106761D01*
X93451314Y-90175676D01*
X93428413Y-90242878D01*
X93382633Y-90282547D01*
X93293147Y-90328142D01*
X93127604Y-90448416D01*
X92982916Y-90593104D01*
X92862640Y-90758650D01*
X92769746Y-90940965D01*
X92769743Y-90940974D01*
X92706511Y-91135579D01*
X92697891Y-91190000D01*
X93658814Y-91190000D01*
X93654420Y-91194394D01*
X93601759Y-91285606D01*
X93574500Y-91387339D01*
X93574500Y-91492661D01*
X93601759Y-91594394D01*
X93654420Y-91685606D01*
X93658814Y-91690000D01*
X92697891Y-91690000D01*
X92706511Y-91744420D01*
X92769743Y-91939025D01*
X92769746Y-91939034D01*
X92862640Y-92121349D01*
X92982916Y-92286895D01*
X93127604Y-92431583D01*
X93293150Y-92551859D01*
X93475465Y-92644753D01*
X93475474Y-92644756D01*
X93670082Y-92707989D01*
X93670089Y-92707991D01*
X93724500Y-92716608D01*
X93724500Y-91755686D01*
X93728894Y-91760080D01*
X93820106Y-91812741D01*
X93921839Y-91840000D01*
X94027161Y-91840000D01*
X94128894Y-91812741D01*
X94220106Y-91760080D01*
X94224500Y-91755686D01*
X94224500Y-92716607D01*
X94278910Y-92707991D01*
X94278917Y-92707989D01*
X94473525Y-92644756D01*
X94473534Y-92644753D01*
X94655849Y-92551859D01*
X94821395Y-92431583D01*
X94966083Y-92286895D01*
X95086359Y-92121349D01*
X95179253Y-91939034D01*
X95179256Y-91939025D01*
X95242488Y-91744420D01*
X95251109Y-91690000D01*
X94290186Y-91690000D01*
X94294580Y-91685606D01*
X94347241Y-91594394D01*
X94374500Y-91492661D01*
X94374500Y-91387339D01*
X94347241Y-91285606D01*
X94294580Y-91194394D01*
X94290186Y-91190000D01*
X95251108Y-91190000D01*
X95242488Y-91135579D01*
X95179256Y-90940974D01*
X95179253Y-90940965D01*
X95086359Y-90758650D01*
X94966083Y-90593104D01*
X94821395Y-90448416D01*
X94655849Y-90328140D01*
X94566367Y-90282547D01*
X94514751Y-90233799D01*
X94497685Y-90164884D01*
X94520585Y-90097683D01*
X94566365Y-90058014D01*
X94656110Y-90012287D01*
X94821719Y-89891966D01*
X94966466Y-89747219D01*
X95086787Y-89581610D01*
X95179720Y-89399219D01*
X95242977Y-89204534D01*
X95275000Y-89002352D01*
X95275000Y-88797648D01*
X95242977Y-88595466D01*
X95179720Y-88400781D01*
X95086787Y-88218390D01*
X94966466Y-88052781D01*
X94966465Y-88052779D01*
X94821720Y-87908034D01*
X94656112Y-87787714D01*
X94653692Y-87786481D01*
X94566914Y-87742265D01*
X94515301Y-87693519D01*
X94498235Y-87624604D01*
X94521136Y-87557402D01*
X94566914Y-87517734D01*
X94656110Y-87472287D01*
X94821719Y-87351966D01*
X94966466Y-87207219D01*
X95086787Y-87041610D01*
X95179720Y-86859219D01*
X95242977Y-86664534D01*
X95275000Y-86462352D01*
X95275000Y-86257648D01*
X95242977Y-86055466D01*
X95179720Y-85860781D01*
X95086787Y-85678390D01*
X94966466Y-85512781D01*
X94966465Y-85512779D01*
X94821720Y-85368034D01*
X94656112Y-85247714D01*
X94653692Y-85246481D01*
X94566914Y-85202265D01*
X94515301Y-85153519D01*
X94498235Y-85084604D01*
X94521136Y-85017402D01*
X94566914Y-84977734D01*
X94656110Y-84932287D01*
X94821719Y-84811966D01*
X94966466Y-84667219D01*
X95086787Y-84501610D01*
X95179720Y-84319219D01*
X95242977Y-84124534D01*
X95275000Y-83922352D01*
X95275000Y-83717648D01*
X95242977Y-83515466D01*
X95179720Y-83320781D01*
X95086787Y-83138390D01*
X94966466Y-82972781D01*
X94966465Y-82972779D01*
X94821720Y-82828034D01*
X94656112Y-82707714D01*
X94653692Y-82706481D01*
X94566914Y-82662265D01*
X94515301Y-82613519D01*
X94498235Y-82544604D01*
X94521136Y-82477402D01*
X94566914Y-82437734D01*
X94656110Y-82392287D01*
X94821719Y-82271966D01*
X94966466Y-82127219D01*
X95086787Y-81961610D01*
X95179720Y-81779219D01*
X95242977Y-81584534D01*
X95275000Y-81382352D01*
X95275000Y-81177648D01*
X95242977Y-80975466D01*
X95179720Y-80780781D01*
X95086787Y-80598390D01*
X94966466Y-80432781D01*
X94966465Y-80432779D01*
X94821720Y-80288034D01*
X94656112Y-80167714D01*
X94653692Y-80166481D01*
X94566914Y-80122265D01*
X94515301Y-80073519D01*
X94498235Y-80004604D01*
X94521136Y-79937402D01*
X94566914Y-79897734D01*
X94656110Y-79852287D01*
X94821719Y-79731966D01*
X94966466Y-79587219D01*
X95086787Y-79421610D01*
X95179720Y-79239219D01*
X95242977Y-79044534D01*
X95275000Y-78842352D01*
X95275000Y-78637648D01*
X95242977Y-78435466D01*
X95179720Y-78240781D01*
X95086787Y-78058390D01*
X94966466Y-77892781D01*
X94966465Y-77892779D01*
X94821720Y-77748034D01*
X94656112Y-77627714D01*
X94653692Y-77626481D01*
X94566914Y-77582265D01*
X94515301Y-77533519D01*
X94498235Y-77464604D01*
X94521136Y-77397402D01*
X94566914Y-77357734D01*
X94656110Y-77312287D01*
X94821719Y-77191966D01*
X94966466Y-77047219D01*
X95086787Y-76881610D01*
X95179720Y-76699219D01*
X95242977Y-76504534D01*
X95275000Y-76302352D01*
X95275000Y-76097648D01*
X95242977Y-75895466D01*
X95179720Y-75700781D01*
X95086787Y-75518390D01*
X95086785Y-75518387D01*
X94966465Y-75352779D01*
X94821720Y-75208034D01*
X94656112Y-75087714D01*
X94653692Y-75086481D01*
X94566914Y-75042265D01*
X94515301Y-74993519D01*
X94498235Y-74924604D01*
X94521136Y-74857402D01*
X94566914Y-74817734D01*
X94656110Y-74772287D01*
X94821719Y-74651966D01*
X94966466Y-74507219D01*
X95086787Y-74341610D01*
X95179720Y-74159219D01*
X95242977Y-73964534D01*
X95275000Y-73762352D01*
X95275000Y-73557648D01*
X95242977Y-73355466D01*
X95179720Y-73160781D01*
X95086787Y-72978390D01*
X94966466Y-72812781D01*
X94966465Y-72812779D01*
X94821720Y-72668034D01*
X94656112Y-72547714D01*
X94653692Y-72546481D01*
X94566914Y-72502265D01*
X94515301Y-72453519D01*
X94498235Y-72384604D01*
X94521136Y-72317402D01*
X94566914Y-72277734D01*
X94656110Y-72232287D01*
X94821719Y-72111966D01*
X94966466Y-71967219D01*
X95086787Y-71801610D01*
X95179720Y-71619219D01*
X95242977Y-71424534D01*
X95275000Y-71222352D01*
X95275000Y-71017648D01*
X95242977Y-70815466D01*
X95179720Y-70620781D01*
X95086787Y-70438390D01*
X94966466Y-70272781D01*
X94966465Y-70272779D01*
X94821720Y-70128034D01*
X94656112Y-70007714D01*
X94653692Y-70006481D01*
X94566914Y-69962265D01*
X94515301Y-69913519D01*
X94498235Y-69844604D01*
X94521136Y-69777402D01*
X94566914Y-69737734D01*
X94656110Y-69692287D01*
X94821719Y-69571966D01*
X94966466Y-69427219D01*
X95086787Y-69261610D01*
X95179720Y-69079219D01*
X95242977Y-68884534D01*
X95275000Y-68682352D01*
X95275000Y-68477648D01*
X95242977Y-68275466D01*
X95179720Y-68080781D01*
X95086787Y-67898390D01*
X94966466Y-67732781D01*
X94966465Y-67732779D01*
X94821720Y-67588034D01*
X94656112Y-67467714D01*
X94653692Y-67466481D01*
X94566914Y-67422265D01*
X94515301Y-67373519D01*
X94498235Y-67304604D01*
X94521136Y-67237402D01*
X94566914Y-67197734D01*
X94656110Y-67152287D01*
X94821719Y-67031966D01*
X94966466Y-66887219D01*
X95086787Y-66721610D01*
X95179720Y-66539219D01*
X95242977Y-66344534D01*
X95275000Y-66142352D01*
X95275000Y-65937648D01*
X95242977Y-65735466D01*
X95179720Y-65540781D01*
X95086787Y-65358390D01*
X94966466Y-65192781D01*
X94966465Y-65192779D01*
X94821720Y-65048034D01*
X94656112Y-64927714D01*
X94653692Y-64926481D01*
X94566914Y-64882265D01*
X94515301Y-64833519D01*
X94498235Y-64764604D01*
X94521136Y-64697402D01*
X94566914Y-64657734D01*
X94656110Y-64612287D01*
X94821719Y-64491966D01*
X94966466Y-64347219D01*
X95086787Y-64181610D01*
X95179720Y-63999219D01*
X95242977Y-63804534D01*
X95275000Y-63602352D01*
X95275000Y-63397648D01*
X95242977Y-63195466D01*
X95179720Y-63000781D01*
X95086787Y-62818390D01*
X94966466Y-62652781D01*
X94966465Y-62652779D01*
X94821720Y-62508034D01*
X94656112Y-62387714D01*
X94653692Y-62386481D01*
X94566914Y-62342265D01*
X94515301Y-62293519D01*
X94498235Y-62224604D01*
X94521136Y-62157402D01*
X94566914Y-62117734D01*
X94656110Y-62072287D01*
X94821719Y-61951966D01*
X94966466Y-61807219D01*
X95086787Y-61641610D01*
X95179720Y-61459219D01*
X95242977Y-61264534D01*
X95275000Y-61062352D01*
X95275000Y-60857648D01*
X95242977Y-60655466D01*
X95179720Y-60460781D01*
X95086787Y-60278390D01*
X94966466Y-60112781D01*
X94966465Y-60112779D01*
X94821720Y-59968034D01*
X94656112Y-59847714D01*
X94653692Y-59846481D01*
X94566914Y-59802265D01*
X94515301Y-59753519D01*
X94498235Y-59684604D01*
X94521136Y-59617402D01*
X94566914Y-59577734D01*
X94656110Y-59532287D01*
X94821719Y-59411966D01*
X94966466Y-59267219D01*
X95086787Y-59101610D01*
X95179720Y-58919219D01*
X95242977Y-58724534D01*
X95275000Y-58522352D01*
X95275000Y-58317648D01*
X95242977Y-58115466D01*
X95179720Y-57920781D01*
X95086787Y-57738390D01*
X94966466Y-57572781D01*
X94966465Y-57572779D01*
X94821720Y-57428034D01*
X94656112Y-57307714D01*
X94653692Y-57306481D01*
X94566914Y-57262265D01*
X94515301Y-57213519D01*
X94498235Y-57144604D01*
X94521136Y-57077402D01*
X94566914Y-57037734D01*
X94656110Y-56992287D01*
X94821719Y-56871966D01*
X94966466Y-56727219D01*
X95086787Y-56561610D01*
X95179720Y-56379219D01*
X95242977Y-56184534D01*
X95275000Y-55982352D01*
X95275000Y-55777648D01*
X95242977Y-55575466D01*
X95179720Y-55380781D01*
X95086787Y-55198390D01*
X94966466Y-55032781D01*
X94966465Y-55032779D01*
X94821720Y-54888034D01*
X94821716Y-54888031D01*
X94789630Y-54864720D01*
X94746276Y-54808498D01*
X94740199Y-54737762D01*
X94773331Y-54674970D01*
X94835150Y-54640058D01*
X94850225Y-54637505D01*
X94858422Y-54636623D01*
X94881983Y-54634091D01*
X95016831Y-54583796D01*
X95132046Y-54497546D01*
X95218296Y-54382331D01*
X95268591Y-54247483D01*
X95275000Y-54187873D01*
X95274999Y-53237648D01*
X107914000Y-53237648D01*
X107914000Y-53442352D01*
X107943056Y-53625801D01*
X107946024Y-53644538D01*
X107999301Y-53808509D01*
X108009280Y-53839219D01*
X108085712Y-53989225D01*
X108102214Y-54021612D01*
X108222534Y-54187220D01*
X108367279Y-54331965D01*
X108436596Y-54382326D01*
X108532890Y-54452287D01*
X108607234Y-54490167D01*
X108622083Y-54497733D01*
X108673698Y-54546482D01*
X108690764Y-54615397D01*
X108667863Y-54682598D01*
X108622083Y-54722267D01*
X108532888Y-54767714D01*
X108367284Y-54888031D01*
X108367280Y-54888034D01*
X108222537Y-55032777D01*
X108222534Y-55032779D01*
X108102214Y-55198387D01*
X108009281Y-55380779D01*
X108009278Y-55380785D01*
X107946024Y-55575461D01*
X107946023Y-55575464D01*
X107946023Y-55575466D01*
X107914000Y-55777648D01*
X107914000Y-55982352D01*
X107943056Y-56165801D01*
X107946024Y-56184538D01*
X107999301Y-56348509D01*
X108009280Y-56379219D01*
X108071731Y-56501786D01*
X108102214Y-56561612D01*
X108222534Y-56727220D01*
X108367279Y-56871965D01*
X108438710Y-56923862D01*
X108532890Y-56992287D01*
X108607234Y-57030167D01*
X108622083Y-57037733D01*
X108673698Y-57086482D01*
X108690764Y-57155397D01*
X108667863Y-57222598D01*
X108622083Y-57262267D01*
X108532888Y-57307714D01*
X108367279Y-57428034D01*
X108367278Y-57428035D01*
X108222537Y-57572777D01*
X108222534Y-57572779D01*
X108102214Y-57738387D01*
X108009281Y-57920779D01*
X108009278Y-57920785D01*
X107946024Y-58115461D01*
X107946023Y-58115464D01*
X107946023Y-58115466D01*
X107914000Y-58317648D01*
X107914000Y-58522352D01*
X107943056Y-58705801D01*
X107946024Y-58724538D01*
X107999301Y-58888509D01*
X108009280Y-58919219D01*
X108009281Y-58919220D01*
X108102214Y-59101612D01*
X108222534Y-59267220D01*
X108367279Y-59411965D01*
X108438710Y-59463862D01*
X108532890Y-59532287D01*
X108607234Y-59570167D01*
X108622083Y-59577733D01*
X108673698Y-59626482D01*
X108690764Y-59695397D01*
X108667863Y-59762598D01*
X108622083Y-59802267D01*
X108532888Y-59847714D01*
X108367279Y-59968034D01*
X108222534Y-60112779D01*
X108102214Y-60278387D01*
X108009281Y-60460779D01*
X108009278Y-60460785D01*
X107946024Y-60655461D01*
X107946023Y-60655464D01*
X107946023Y-60655466D01*
X107914000Y-60857648D01*
X107914000Y-61062352D01*
X107945536Y-61261460D01*
X107946024Y-61264538D01*
X107999301Y-61428509D01*
X108009280Y-61459219D01*
X108047183Y-61533608D01*
X108102214Y-61641612D01*
X108222534Y-61807220D01*
X108367279Y-61951965D01*
X108438710Y-62003862D01*
X108532890Y-62072287D01*
X108607234Y-62110167D01*
X108622083Y-62117733D01*
X108673698Y-62166482D01*
X108690764Y-62235397D01*
X108667863Y-62302598D01*
X108622083Y-62342267D01*
X108532888Y-62387714D01*
X108367279Y-62508034D01*
X108222534Y-62652779D01*
X108102214Y-62818387D01*
X108009281Y-63000779D01*
X108009278Y-63000785D01*
X107946024Y-63195461D01*
X107946023Y-63195464D01*
X107946023Y-63195466D01*
X107914000Y-63397648D01*
X107914000Y-63602352D01*
X107943056Y-63785801D01*
X107946024Y-63804538D01*
X107999301Y-63968509D01*
X108009280Y-63999219D01*
X108009281Y-63999220D01*
X108102214Y-64181612D01*
X108222534Y-64347220D01*
X108367279Y-64491965D01*
X108438710Y-64543862D01*
X108532890Y-64612287D01*
X108607234Y-64650167D01*
X108622083Y-64657733D01*
X108673698Y-64706482D01*
X108690764Y-64775397D01*
X108667863Y-64842598D01*
X108622083Y-64882267D01*
X108532888Y-64927714D01*
X108367279Y-65048034D01*
X108222534Y-65192779D01*
X108102214Y-65358387D01*
X108009281Y-65540779D01*
X108009278Y-65540785D01*
X107946024Y-65735461D01*
X107946023Y-65735464D01*
X107946023Y-65735466D01*
X107914000Y-65937648D01*
X107914000Y-66142352D01*
X107943056Y-66325801D01*
X107946024Y-66344538D01*
X107999301Y-66508509D01*
X108009280Y-66539219D01*
X108009281Y-66539220D01*
X108102214Y-66721612D01*
X108222534Y-66887220D01*
X108367279Y-67031965D01*
X108438710Y-67083862D01*
X108532890Y-67152287D01*
X108607234Y-67190167D01*
X108622083Y-67197733D01*
X108673698Y-67246482D01*
X108690764Y-67315397D01*
X108667863Y-67382598D01*
X108622083Y-67422267D01*
X108532888Y-67467714D01*
X108367279Y-67588034D01*
X108222534Y-67732779D01*
X108102214Y-67898387D01*
X108009281Y-68080779D01*
X108009278Y-68080785D01*
X107946024Y-68275461D01*
X107946023Y-68275464D01*
X107946023Y-68275466D01*
X107914000Y-68477648D01*
X107914000Y-68682352D01*
X107943056Y-68865801D01*
X107946024Y-68884538D01*
X107999301Y-69048509D01*
X108009280Y-69079219D01*
X108009281Y-69079220D01*
X108102214Y-69261612D01*
X108222534Y-69427220D01*
X108367279Y-69571965D01*
X108438710Y-69623862D01*
X108532890Y-69692287D01*
X108607234Y-69730167D01*
X108622083Y-69737733D01*
X108673698Y-69786482D01*
X108690764Y-69855397D01*
X108667863Y-69922598D01*
X108622083Y-69962267D01*
X108532888Y-70007714D01*
X108367279Y-70128034D01*
X108222534Y-70272779D01*
X108102214Y-70438387D01*
X108009281Y-70620779D01*
X108009278Y-70620785D01*
X107946024Y-70815461D01*
X107946023Y-70815464D01*
X107946023Y-70815466D01*
X107914000Y-71017648D01*
X107914000Y-71222352D01*
X107943056Y-71405801D01*
X107946024Y-71424538D01*
X107999301Y-71588509D01*
X108009280Y-71619219D01*
X108009281Y-71619220D01*
X108102214Y-71801612D01*
X108222534Y-71967220D01*
X108367279Y-72111965D01*
X108438710Y-72163862D01*
X108532890Y-72232287D01*
X108607234Y-72270167D01*
X108622083Y-72277733D01*
X108673698Y-72326482D01*
X108690764Y-72395397D01*
X108667863Y-72462598D01*
X108622083Y-72502267D01*
X108532888Y-72547714D01*
X108367279Y-72668034D01*
X108222534Y-72812779D01*
X108102214Y-72978387D01*
X108009281Y-73160779D01*
X108009278Y-73160785D01*
X107946024Y-73355461D01*
X107946023Y-73355464D01*
X107946023Y-73355466D01*
X107914000Y-73557648D01*
X107914000Y-73762352D01*
X107943056Y-73945801D01*
X107946024Y-73964538D01*
X107999301Y-74128509D01*
X108009280Y-74159219D01*
X108048910Y-74236997D01*
X108102214Y-74341612D01*
X108222534Y-74507220D01*
X108367279Y-74651965D01*
X108438710Y-74703862D01*
X108532890Y-74772287D01*
X108607234Y-74810167D01*
X108622083Y-74817733D01*
X108673698Y-74866482D01*
X108690764Y-74935397D01*
X108667863Y-75002598D01*
X108622083Y-75042267D01*
X108532888Y-75087714D01*
X108367279Y-75208034D01*
X108222534Y-75352779D01*
X108102214Y-75518387D01*
X108009281Y-75700779D01*
X108009278Y-75700785D01*
X107946024Y-75895461D01*
X107946023Y-75895464D01*
X107946023Y-75895466D01*
X107914000Y-76097648D01*
X107914000Y-76302352D01*
X107943056Y-76485801D01*
X107946024Y-76504538D01*
X107999301Y-76668509D01*
X108009280Y-76699219D01*
X108009281Y-76699220D01*
X108102214Y-76881612D01*
X108222534Y-77047220D01*
X108367279Y-77191965D01*
X108438710Y-77243862D01*
X108532890Y-77312287D01*
X108607234Y-77350167D01*
X108622083Y-77357733D01*
X108673698Y-77406482D01*
X108690764Y-77475397D01*
X108667863Y-77542598D01*
X108622083Y-77582267D01*
X108532888Y-77627714D01*
X108367279Y-77748034D01*
X108222534Y-77892779D01*
X108102214Y-78058387D01*
X108009281Y-78240779D01*
X108009278Y-78240785D01*
X107946024Y-78435461D01*
X107946023Y-78435464D01*
X107946023Y-78435466D01*
X107914000Y-78637648D01*
X107914000Y-78842352D01*
X107943056Y-79025801D01*
X107946024Y-79044538D01*
X107999301Y-79208509D01*
X108009280Y-79239219D01*
X108009281Y-79239220D01*
X108102214Y-79421612D01*
X108222534Y-79587220D01*
X108367279Y-79731965D01*
X108438710Y-79783862D01*
X108532890Y-79852287D01*
X108607234Y-79890167D01*
X108622083Y-79897733D01*
X108673698Y-79946482D01*
X108690764Y-80015397D01*
X108667863Y-80082598D01*
X108622083Y-80122267D01*
X108532888Y-80167714D01*
X108367279Y-80288034D01*
X108222534Y-80432779D01*
X108102214Y-80598387D01*
X108009281Y-80780779D01*
X108009278Y-80780785D01*
X107946024Y-80975461D01*
X107946023Y-80975464D01*
X107946023Y-80975466D01*
X107914000Y-81177648D01*
X107914000Y-81382352D01*
X107943056Y-81565801D01*
X107946024Y-81584538D01*
X107999301Y-81748509D01*
X108009280Y-81779219D01*
X108009281Y-81779220D01*
X108102214Y-81961612D01*
X108222534Y-82127220D01*
X108367279Y-82271965D01*
X108438710Y-82323862D01*
X108532890Y-82392287D01*
X108607234Y-82430167D01*
X108622083Y-82437733D01*
X108673698Y-82486482D01*
X108690764Y-82555397D01*
X108667863Y-82622598D01*
X108622083Y-82662267D01*
X108532888Y-82707714D01*
X108367279Y-82828034D01*
X108222534Y-82972779D01*
X108102214Y-83138387D01*
X108009281Y-83320779D01*
X108009278Y-83320785D01*
X107946024Y-83515461D01*
X107946023Y-83515464D01*
X107946023Y-83515466D01*
X107914000Y-83717648D01*
X107914000Y-83922352D01*
X107943056Y-84105801D01*
X107946024Y-84124538D01*
X107999301Y-84288509D01*
X108009280Y-84319219D01*
X108009281Y-84319220D01*
X108102214Y-84501612D01*
X108222534Y-84667220D01*
X108367279Y-84811965D01*
X108438710Y-84863862D01*
X108532890Y-84932287D01*
X108607234Y-84970167D01*
X108622083Y-84977733D01*
X108673698Y-85026482D01*
X108690764Y-85095397D01*
X108667863Y-85162598D01*
X108622083Y-85202267D01*
X108532888Y-85247714D01*
X108367279Y-85368034D01*
X108222534Y-85512779D01*
X108102214Y-85678387D01*
X108009281Y-85860779D01*
X108009278Y-85860785D01*
X107946024Y-86055461D01*
X107946023Y-86055464D01*
X107946023Y-86055466D01*
X107914000Y-86257648D01*
X107914000Y-86462352D01*
X107943056Y-86645801D01*
X107946024Y-86664538D01*
X107999301Y-86828509D01*
X108009280Y-86859219D01*
X108009281Y-86859220D01*
X108102214Y-87041612D01*
X108222534Y-87207220D01*
X108367279Y-87351965D01*
X108438710Y-87403862D01*
X108532890Y-87472287D01*
X108607234Y-87510167D01*
X108622083Y-87517733D01*
X108673698Y-87566482D01*
X108690764Y-87635397D01*
X108667863Y-87702598D01*
X108622083Y-87742267D01*
X108532888Y-87787714D01*
X108367279Y-87908034D01*
X108222534Y-88052779D01*
X108102214Y-88218387D01*
X108009281Y-88400779D01*
X108009278Y-88400785D01*
X107946024Y-88595461D01*
X107946023Y-88595464D01*
X107946023Y-88595466D01*
X107914000Y-88797648D01*
X107914000Y-89002352D01*
X107943056Y-89185801D01*
X107946024Y-89204538D01*
X107999301Y-89368509D01*
X108009280Y-89399219D01*
X108009281Y-89399220D01*
X108102214Y-89581612D01*
X108222534Y-89747220D01*
X108367279Y-89891965D01*
X108438710Y-89943862D01*
X108532890Y-90012287D01*
X108607234Y-90050167D01*
X108622083Y-90057733D01*
X108673698Y-90106482D01*
X108690764Y-90175397D01*
X108667863Y-90242598D01*
X108622083Y-90282266D01*
X108568867Y-90309382D01*
X108532888Y-90327714D01*
X108367279Y-90448034D01*
X108222534Y-90592779D01*
X108102214Y-90758387D01*
X108009281Y-90940779D01*
X108009278Y-90940785D01*
X107946024Y-91135461D01*
X107946023Y-91135464D01*
X107946023Y-91135466D01*
X107914000Y-91337648D01*
X107914000Y-91542352D01*
X107943056Y-91725801D01*
X107946024Y-91744538D01*
X107999301Y-91908509D01*
X108009280Y-91939219D01*
X108009281Y-91939220D01*
X108102214Y-92121612D01*
X108222534Y-92287220D01*
X108367279Y-92431965D01*
X108438121Y-92483434D01*
X108532890Y-92552287D01*
X108715281Y-92645220D01*
X108909966Y-92708477D01*
X109112148Y-92740500D01*
X109112151Y-92740500D01*
X109316849Y-92740500D01*
X109316852Y-92740500D01*
X109519034Y-92708477D01*
X109713719Y-92645220D01*
X109896110Y-92552287D01*
X110061719Y-92431966D01*
X110206466Y-92287219D01*
X110326787Y-92121610D01*
X110419720Y-91939219D01*
X110482977Y-91744534D01*
X110515000Y-91542352D01*
X110515000Y-91337648D01*
X110482977Y-91135466D01*
X110419720Y-90940781D01*
X110326787Y-90758390D01*
X110244566Y-90645221D01*
X110206465Y-90592779D01*
X110061720Y-90448034D01*
X109896112Y-90327714D01*
X109860133Y-90309382D01*
X109806914Y-90282265D01*
X109755301Y-90233519D01*
X109738235Y-90164604D01*
X109761136Y-90097402D01*
X109806914Y-90057734D01*
X109896110Y-90012287D01*
X110061719Y-89891966D01*
X110206466Y-89747219D01*
X110326787Y-89581610D01*
X110419720Y-89399219D01*
X110482977Y-89204534D01*
X110515000Y-89002352D01*
X110515000Y-88797648D01*
X110482977Y-88595466D01*
X110419720Y-88400781D01*
X110326787Y-88218390D01*
X110206466Y-88052781D01*
X110206465Y-88052779D01*
X110061720Y-87908034D01*
X109896112Y-87787714D01*
X109893692Y-87786481D01*
X109806914Y-87742265D01*
X109755301Y-87693519D01*
X109738235Y-87624604D01*
X109761136Y-87557402D01*
X109806914Y-87517734D01*
X109896110Y-87472287D01*
X110061719Y-87351966D01*
X110206466Y-87207219D01*
X110326787Y-87041610D01*
X110419720Y-86859219D01*
X110482977Y-86664534D01*
X110515000Y-86462352D01*
X110515000Y-86257648D01*
X110482977Y-86055466D01*
X110419720Y-85860781D01*
X110326787Y-85678390D01*
X110206466Y-85512781D01*
X110206465Y-85512779D01*
X110061720Y-85368034D01*
X109896112Y-85247714D01*
X109893692Y-85246481D01*
X109806914Y-85202265D01*
X109755301Y-85153519D01*
X109738235Y-85084604D01*
X109761136Y-85017402D01*
X109806914Y-84977734D01*
X109896110Y-84932287D01*
X110061719Y-84811966D01*
X110206466Y-84667219D01*
X110326787Y-84501610D01*
X110419720Y-84319219D01*
X110482977Y-84124534D01*
X110515000Y-83922352D01*
X110515000Y-83717648D01*
X110482977Y-83515466D01*
X110419720Y-83320781D01*
X110326787Y-83138390D01*
X110206466Y-82972781D01*
X110206465Y-82972779D01*
X110061720Y-82828034D01*
X109896112Y-82707714D01*
X109893692Y-82706481D01*
X109806914Y-82662265D01*
X109755301Y-82613519D01*
X109738235Y-82544604D01*
X109761136Y-82477402D01*
X109806914Y-82437734D01*
X109896110Y-82392287D01*
X110061719Y-82271966D01*
X110206466Y-82127219D01*
X110326787Y-81961610D01*
X110419720Y-81779219D01*
X110482977Y-81584534D01*
X110515000Y-81382352D01*
X110515000Y-81177648D01*
X110482977Y-80975466D01*
X110419720Y-80780781D01*
X110326787Y-80598390D01*
X110206466Y-80432781D01*
X110206465Y-80432779D01*
X110061720Y-80288034D01*
X109896112Y-80167714D01*
X109893692Y-80166481D01*
X109806914Y-80122265D01*
X109755301Y-80073519D01*
X109738235Y-80004604D01*
X109761136Y-79937402D01*
X109806914Y-79897734D01*
X109896110Y-79852287D01*
X110061719Y-79731966D01*
X110206466Y-79587219D01*
X110326787Y-79421610D01*
X110419720Y-79239219D01*
X110482977Y-79044534D01*
X110515000Y-78842352D01*
X110515000Y-78637648D01*
X110482977Y-78435466D01*
X110419720Y-78240781D01*
X110326787Y-78058390D01*
X110206466Y-77892781D01*
X110206465Y-77892779D01*
X110061720Y-77748034D01*
X109896112Y-77627714D01*
X109893692Y-77626481D01*
X109806914Y-77582265D01*
X109755301Y-77533519D01*
X109738235Y-77464604D01*
X109761136Y-77397402D01*
X109806914Y-77357734D01*
X109896110Y-77312287D01*
X110061719Y-77191966D01*
X110206466Y-77047219D01*
X110326787Y-76881610D01*
X110419720Y-76699219D01*
X110482977Y-76504534D01*
X110515000Y-76302352D01*
X110515000Y-76097648D01*
X110482977Y-75895466D01*
X110419720Y-75700781D01*
X110326787Y-75518390D01*
X110326785Y-75518387D01*
X110206465Y-75352779D01*
X110061720Y-75208034D01*
X109896112Y-75087714D01*
X109893692Y-75086481D01*
X109806914Y-75042265D01*
X109755301Y-74993519D01*
X109738235Y-74924604D01*
X109761136Y-74857402D01*
X109806914Y-74817734D01*
X109896110Y-74772287D01*
X110061719Y-74651966D01*
X110206466Y-74507219D01*
X110326787Y-74341610D01*
X110419720Y-74159219D01*
X110482977Y-73964534D01*
X110515000Y-73762352D01*
X110515000Y-73557648D01*
X110482977Y-73355466D01*
X110419720Y-73160781D01*
X110326787Y-72978390D01*
X110206466Y-72812781D01*
X110206465Y-72812779D01*
X110061720Y-72668034D01*
X109896112Y-72547714D01*
X109893692Y-72546481D01*
X109806914Y-72502265D01*
X109755301Y-72453519D01*
X109738235Y-72384604D01*
X109761136Y-72317402D01*
X109806914Y-72277734D01*
X109896110Y-72232287D01*
X110061719Y-72111966D01*
X110206466Y-71967219D01*
X110326787Y-71801610D01*
X110419720Y-71619219D01*
X110482977Y-71424534D01*
X110515000Y-71222352D01*
X110515000Y-71017648D01*
X110482977Y-70815466D01*
X110419720Y-70620781D01*
X110326787Y-70438390D01*
X110206466Y-70272781D01*
X110206465Y-70272779D01*
X110061720Y-70128034D01*
X109896112Y-70007714D01*
X109893692Y-70006481D01*
X109806914Y-69962265D01*
X109755301Y-69913519D01*
X109738235Y-69844604D01*
X109761136Y-69777402D01*
X109806914Y-69737734D01*
X109896110Y-69692287D01*
X110061719Y-69571966D01*
X110206466Y-69427219D01*
X110326787Y-69261610D01*
X110419720Y-69079219D01*
X110482977Y-68884534D01*
X110515000Y-68682352D01*
X110515000Y-68477648D01*
X110482977Y-68275466D01*
X110419720Y-68080781D01*
X110326787Y-67898390D01*
X110206466Y-67732781D01*
X110206465Y-67732779D01*
X110061720Y-67588034D01*
X109896112Y-67467714D01*
X109893692Y-67466481D01*
X109806914Y-67422265D01*
X109755301Y-67373519D01*
X109738235Y-67304604D01*
X109761136Y-67237402D01*
X109806914Y-67197734D01*
X109896110Y-67152287D01*
X110061719Y-67031966D01*
X110206466Y-66887219D01*
X110326787Y-66721610D01*
X110419720Y-66539219D01*
X110482977Y-66344534D01*
X110515000Y-66142352D01*
X110515000Y-65937648D01*
X110482977Y-65735466D01*
X110419720Y-65540781D01*
X110326787Y-65358390D01*
X110206466Y-65192781D01*
X110206465Y-65192779D01*
X110061720Y-65048034D01*
X109896112Y-64927714D01*
X109893692Y-64926481D01*
X109806914Y-64882265D01*
X109755301Y-64833519D01*
X109738235Y-64764604D01*
X109761136Y-64697402D01*
X109806914Y-64657734D01*
X109896110Y-64612287D01*
X110061719Y-64491966D01*
X110206466Y-64347219D01*
X110326787Y-64181610D01*
X110419720Y-63999219D01*
X110482977Y-63804534D01*
X110515000Y-63602352D01*
X110515000Y-63397648D01*
X110482977Y-63195466D01*
X110419720Y-63000781D01*
X110326787Y-62818390D01*
X110206466Y-62652781D01*
X110206465Y-62652779D01*
X110061720Y-62508034D01*
X109896112Y-62387714D01*
X109893692Y-62386481D01*
X109806914Y-62342265D01*
X109755301Y-62293519D01*
X109738235Y-62224604D01*
X109761136Y-62157402D01*
X109806914Y-62117734D01*
X109896110Y-62072287D01*
X110061719Y-61951966D01*
X110206466Y-61807219D01*
X110326787Y-61641610D01*
X110419720Y-61459219D01*
X110482977Y-61264534D01*
X110515000Y-61062352D01*
X110515000Y-60857648D01*
X110482977Y-60655466D01*
X110419720Y-60460781D01*
X110326787Y-60278390D01*
X110206466Y-60112781D01*
X110206465Y-60112779D01*
X110061720Y-59968034D01*
X109896112Y-59847714D01*
X109893692Y-59846481D01*
X109806914Y-59802265D01*
X109755301Y-59753519D01*
X109738235Y-59684604D01*
X109761136Y-59617402D01*
X109806914Y-59577734D01*
X109896110Y-59532287D01*
X110061719Y-59411966D01*
X110206466Y-59267219D01*
X110326787Y-59101610D01*
X110419720Y-58919219D01*
X110482977Y-58724534D01*
X110515000Y-58522352D01*
X110515000Y-58317648D01*
X110482977Y-58115466D01*
X110419720Y-57920781D01*
X110326787Y-57738390D01*
X110206466Y-57572781D01*
X110206465Y-57572779D01*
X110061720Y-57428034D01*
X109896112Y-57307714D01*
X109893692Y-57306481D01*
X109806914Y-57262265D01*
X109755301Y-57213519D01*
X109738235Y-57144604D01*
X109761136Y-57077402D01*
X109806914Y-57037734D01*
X109896110Y-56992287D01*
X110061719Y-56871966D01*
X110206466Y-56727219D01*
X110326787Y-56561610D01*
X110419720Y-56379219D01*
X110482977Y-56184534D01*
X110515000Y-55982352D01*
X110515000Y-55801155D01*
X114261500Y-55801155D01*
X114261500Y-55958844D01*
X114266176Y-55982352D01*
X114292263Y-56113497D01*
X114352606Y-56259179D01*
X114440211Y-56390289D01*
X114551711Y-56501789D01*
X114682821Y-56589394D01*
X114774568Y-56627396D01*
X114831841Y-56651120D01*
X114887122Y-56695668D01*
X114909543Y-56763032D01*
X114891985Y-56831823D01*
X114872719Y-56856624D01*
X114517885Y-57211458D01*
X114441225Y-57326189D01*
X114388422Y-57453666D01*
X114388420Y-57453673D01*
X114364729Y-57572777D01*
X114364728Y-57572781D01*
X114361500Y-57589004D01*
X114361500Y-74236997D01*
X114373969Y-74299681D01*
X114388420Y-74372328D01*
X114441225Y-74499811D01*
X114517886Y-74614543D01*
X114517890Y-74614547D01*
X115027645Y-75124302D01*
X115054959Y-75165179D01*
X115092469Y-75255737D01*
X115114606Y-75309179D01*
X115202211Y-75440289D01*
X115313711Y-75551789D01*
X115377036Y-75594101D01*
X115422563Y-75648577D01*
X115431412Y-75719020D01*
X115426867Y-75737802D01*
X115369554Y-75914193D01*
X115369553Y-75914198D01*
X115369553Y-75914199D01*
X115339500Y-76103945D01*
X115339500Y-76296055D01*
X115369553Y-76485801D01*
X115369554Y-76485806D01*
X115428916Y-76668504D01*
X115428918Y-76668509D01*
X115516135Y-76839681D01*
X115629055Y-76995102D01*
X115629057Y-76995104D01*
X115629059Y-76995107D01*
X115764892Y-77130940D01*
X115764895Y-77130942D01*
X115764898Y-77130945D01*
X115920319Y-77243865D01*
X116091491Y-77331082D01*
X116149372Y-77349888D01*
X116150229Y-77350167D01*
X116208835Y-77390241D01*
X116236472Y-77455637D01*
X116224365Y-77525594D01*
X116176359Y-77577900D01*
X116150229Y-77589833D01*
X116091495Y-77608916D01*
X116091489Y-77608919D01*
X115920315Y-77696137D01*
X115764895Y-77809057D01*
X115764892Y-77809059D01*
X115629059Y-77944892D01*
X115629057Y-77944895D01*
X115516137Y-78100315D01*
X115428919Y-78271489D01*
X115428916Y-78271495D01*
X115369554Y-78454193D01*
X115369553Y-78454198D01*
X115369553Y-78454199D01*
X115339500Y-78643945D01*
X115339500Y-78836055D01*
X115369553Y-79025801D01*
X115369554Y-79025806D01*
X115428916Y-79208504D01*
X115428918Y-79208509D01*
X115516135Y-79379681D01*
X115629055Y-79535102D01*
X115629057Y-79535104D01*
X115629059Y-79535107D01*
X115764892Y-79670940D01*
X115764895Y-79670942D01*
X115764898Y-79670945D01*
X115920319Y-79783865D01*
X116091491Y-79871082D01*
X116149372Y-79889888D01*
X116150229Y-79890167D01*
X116208835Y-79930241D01*
X116236472Y-79995637D01*
X116224365Y-80065594D01*
X116176359Y-80117900D01*
X116150229Y-80129833D01*
X116091495Y-80148916D01*
X116091489Y-80148919D01*
X115920315Y-80236137D01*
X115764895Y-80349057D01*
X115764892Y-80349059D01*
X115629059Y-80484892D01*
X115629057Y-80484895D01*
X115516137Y-80640315D01*
X115428919Y-80811489D01*
X115428916Y-80811495D01*
X115369554Y-80994193D01*
X115369553Y-80994198D01*
X115369553Y-80994199D01*
X115339500Y-81183945D01*
X115339500Y-81376055D01*
X115369553Y-81565801D01*
X115369554Y-81565806D01*
X115428916Y-81748504D01*
X115428918Y-81748509D01*
X115516135Y-81919681D01*
X115629055Y-82075102D01*
X115629057Y-82075104D01*
X115629059Y-82075107D01*
X115764892Y-82210940D01*
X115764895Y-82210942D01*
X115764898Y-82210945D01*
X115920319Y-82323865D01*
X116091491Y-82411082D01*
X116149372Y-82429888D01*
X116150229Y-82430167D01*
X116208835Y-82470241D01*
X116236472Y-82535637D01*
X116224365Y-82605594D01*
X116176359Y-82657900D01*
X116150229Y-82669833D01*
X116091495Y-82688916D01*
X116091489Y-82688919D01*
X115920315Y-82776137D01*
X115764895Y-82889057D01*
X115764892Y-82889059D01*
X115629059Y-83024892D01*
X115629057Y-83024895D01*
X115516137Y-83180315D01*
X115428919Y-83351489D01*
X115428916Y-83351495D01*
X115369554Y-83534193D01*
X115369553Y-83534198D01*
X115369553Y-83534199D01*
X115339500Y-83723945D01*
X115339500Y-83916055D01*
X115369553Y-84105801D01*
X115369554Y-84105806D01*
X115428916Y-84288504D01*
X115428918Y-84288509D01*
X115516135Y-84459681D01*
X115629055Y-84615102D01*
X115629057Y-84615104D01*
X115629059Y-84615107D01*
X115764892Y-84750940D01*
X115764895Y-84750942D01*
X115764898Y-84750945D01*
X115920319Y-84863865D01*
X116091491Y-84951082D01*
X116149372Y-84969888D01*
X116150229Y-84970167D01*
X116208835Y-85010241D01*
X116236472Y-85075637D01*
X116224365Y-85145594D01*
X116176359Y-85197900D01*
X116150229Y-85209833D01*
X116091495Y-85228916D01*
X116091489Y-85228919D01*
X115920315Y-85316137D01*
X115764895Y-85429057D01*
X115764892Y-85429059D01*
X115629059Y-85564892D01*
X115629057Y-85564895D01*
X115516137Y-85720315D01*
X115428919Y-85891489D01*
X115428916Y-85891495D01*
X115369554Y-86074193D01*
X115369553Y-86074198D01*
X115369553Y-86074199D01*
X115339500Y-86263945D01*
X115339500Y-86456055D01*
X115369553Y-86645801D01*
X115369554Y-86645806D01*
X115428916Y-86828504D01*
X115428918Y-86828509D01*
X115516135Y-86999681D01*
X115629055Y-87155102D01*
X115629057Y-87155104D01*
X115629059Y-87155107D01*
X115764892Y-87290940D01*
X115764895Y-87290942D01*
X115764898Y-87290945D01*
X115920319Y-87403865D01*
X116091491Y-87491082D01*
X116149372Y-87509888D01*
X116150229Y-87510167D01*
X116208835Y-87550241D01*
X116236472Y-87615637D01*
X116224365Y-87685594D01*
X116176359Y-87737900D01*
X116150229Y-87749833D01*
X116091495Y-87768916D01*
X116091489Y-87768919D01*
X115920315Y-87856137D01*
X115764895Y-87969057D01*
X115764892Y-87969059D01*
X115629059Y-88104892D01*
X115629057Y-88104895D01*
X115516137Y-88260315D01*
X115428919Y-88431489D01*
X115428916Y-88431495D01*
X115369554Y-88614193D01*
X115369553Y-88614198D01*
X115369553Y-88614199D01*
X115339500Y-88803945D01*
X115339500Y-88996055D01*
X115369553Y-89185801D01*
X115369554Y-89185806D01*
X115428916Y-89368504D01*
X115428918Y-89368509D01*
X115516135Y-89539681D01*
X115629055Y-89695102D01*
X115629057Y-89695104D01*
X115629059Y-89695107D01*
X115764892Y-89830940D01*
X115764895Y-89830942D01*
X115764898Y-89830945D01*
X115920319Y-89943865D01*
X116091491Y-90031082D01*
X116151039Y-90050430D01*
X116209645Y-90090503D01*
X116237282Y-90155900D01*
X116225175Y-90225857D01*
X116177169Y-90278163D01*
X116151040Y-90290096D01*
X116091684Y-90309382D01*
X116091681Y-90309383D01*
X115920577Y-90396565D01*
X115765221Y-90509438D01*
X115765218Y-90509440D01*
X115629440Y-90645218D01*
X115629438Y-90645221D01*
X115516565Y-90800577D01*
X115429383Y-90971681D01*
X115429380Y-90971687D01*
X115370042Y-91154310D01*
X115364389Y-91190000D01*
X116406988Y-91190000D01*
X116374075Y-91247007D01*
X116340000Y-91374174D01*
X116340000Y-91505826D01*
X116374075Y-91632993D01*
X116406988Y-91690000D01*
X115364389Y-91690000D01*
X115370042Y-91725689D01*
X115429380Y-91908312D01*
X115429383Y-91908318D01*
X115516565Y-92079422D01*
X115629438Y-92234778D01*
X115629440Y-92234781D01*
X115765218Y-92370559D01*
X115765221Y-92370561D01*
X115920577Y-92483434D01*
X116091681Y-92570616D01*
X116091687Y-92570619D01*
X116274311Y-92629957D01*
X116463987Y-92660000D01*
X116590000Y-92660000D01*
X116590000Y-91873012D01*
X116647007Y-91905925D01*
X116774174Y-91940000D01*
X116905826Y-91940000D01*
X117032993Y-91905925D01*
X117090000Y-91873012D01*
X117090000Y-92660000D01*
X117216013Y-92660000D01*
X117405688Y-92629957D01*
X117588312Y-92570619D01*
X117588318Y-92570616D01*
X117759422Y-92483434D01*
X117914778Y-92370561D01*
X117914781Y-92370559D01*
X118050559Y-92234781D01*
X118050561Y-92234778D01*
X118163434Y-92079422D01*
X118250616Y-91908318D01*
X118250619Y-91908312D01*
X118309957Y-91725689D01*
X118315611Y-91690000D01*
X117273012Y-91690000D01*
X117305925Y-91632993D01*
X117340000Y-91505826D01*
X117340000Y-91374174D01*
X117305925Y-91247007D01*
X117273012Y-91190000D01*
X118315610Y-91190000D01*
X118309957Y-91154310D01*
X118250619Y-90971687D01*
X118250616Y-90971681D01*
X118163434Y-90800577D01*
X118050561Y-90645221D01*
X118050559Y-90645218D01*
X117914781Y-90509440D01*
X117914778Y-90509438D01*
X117759422Y-90396565D01*
X117588318Y-90309383D01*
X117588312Y-90309380D01*
X117528960Y-90290096D01*
X117470354Y-90250023D01*
X117442717Y-90184626D01*
X117454824Y-90114669D01*
X117502830Y-90062363D01*
X117528956Y-90050431D01*
X117588509Y-90031082D01*
X117759681Y-89943865D01*
X117915102Y-89830945D01*
X118050945Y-89695102D01*
X118163865Y-89539681D01*
X118251082Y-89368509D01*
X118310447Y-89185801D01*
X118340500Y-88996055D01*
X118340500Y-88803945D01*
X118310447Y-88614199D01*
X118251082Y-88431491D01*
X118163865Y-88260319D01*
X118050945Y-88104898D01*
X118050942Y-88104895D01*
X118050940Y-88104892D01*
X117915107Y-87969059D01*
X117915104Y-87969057D01*
X117915102Y-87969055D01*
X117759681Y-87856135D01*
X117588509Y-87768918D01*
X117588506Y-87768917D01*
X117588504Y-87768916D01*
X117556818Y-87758621D01*
X117529769Y-87749832D01*
X117471164Y-87709760D01*
X117443527Y-87644363D01*
X117455634Y-87574406D01*
X117503640Y-87522100D01*
X117529767Y-87510168D01*
X117588509Y-87491082D01*
X117759681Y-87403865D01*
X117915102Y-87290945D01*
X118050945Y-87155102D01*
X118163865Y-86999681D01*
X118251082Y-86828509D01*
X118310447Y-86645801D01*
X118340500Y-86456055D01*
X118340500Y-86263945D01*
X118310447Y-86074199D01*
X118251082Y-85891491D01*
X118163865Y-85720319D01*
X118050945Y-85564898D01*
X118050942Y-85564895D01*
X118050940Y-85564892D01*
X117915107Y-85429059D01*
X117915104Y-85429057D01*
X117915102Y-85429055D01*
X117759681Y-85316135D01*
X117588509Y-85228918D01*
X117588506Y-85228917D01*
X117588504Y-85228916D01*
X117556818Y-85218621D01*
X117529769Y-85209832D01*
X117471164Y-85169760D01*
X117443527Y-85104363D01*
X117455634Y-85034406D01*
X117503640Y-84982100D01*
X117529767Y-84970168D01*
X117588509Y-84951082D01*
X117759681Y-84863865D01*
X117915102Y-84750945D01*
X118050945Y-84615102D01*
X118163865Y-84459681D01*
X118251082Y-84288509D01*
X118310447Y-84105801D01*
X118340500Y-83916055D01*
X118340500Y-83723945D01*
X118310447Y-83534199D01*
X118251082Y-83351491D01*
X118163865Y-83180319D01*
X118050945Y-83024898D01*
X118050942Y-83024895D01*
X118050940Y-83024892D01*
X117915107Y-82889059D01*
X117915104Y-82889057D01*
X117915102Y-82889055D01*
X117759681Y-82776135D01*
X117588509Y-82688918D01*
X117588506Y-82688917D01*
X117588504Y-82688916D01*
X117556818Y-82678621D01*
X117529769Y-82669832D01*
X117471164Y-82629760D01*
X117443527Y-82564363D01*
X117455634Y-82494406D01*
X117503640Y-82442100D01*
X117529767Y-82430168D01*
X117588509Y-82411082D01*
X117759681Y-82323865D01*
X117915102Y-82210945D01*
X118050945Y-82075102D01*
X118163865Y-81919681D01*
X118251082Y-81748509D01*
X118310447Y-81565801D01*
X118340500Y-81376055D01*
X118340500Y-81183945D01*
X118310447Y-80994199D01*
X118251082Y-80811491D01*
X118163865Y-80640319D01*
X118050945Y-80484898D01*
X118050942Y-80484895D01*
X118050940Y-80484892D01*
X117915107Y-80349059D01*
X117915104Y-80349057D01*
X117915102Y-80349055D01*
X117759681Y-80236135D01*
X117588509Y-80148918D01*
X117588506Y-80148917D01*
X117588504Y-80148916D01*
X117556818Y-80138621D01*
X117529769Y-80129832D01*
X117471164Y-80089760D01*
X117443527Y-80024363D01*
X117455634Y-79954406D01*
X117503640Y-79902100D01*
X117529767Y-79890168D01*
X117588509Y-79871082D01*
X117759681Y-79783865D01*
X117915102Y-79670945D01*
X118050945Y-79535102D01*
X118163865Y-79379681D01*
X118251082Y-79208509D01*
X118310447Y-79025801D01*
X118340500Y-78836055D01*
X118340500Y-78643945D01*
X118310447Y-78454199D01*
X118251082Y-78271491D01*
X118163865Y-78100319D01*
X118050945Y-77944898D01*
X118050942Y-77944895D01*
X118050940Y-77944892D01*
X117915107Y-77809059D01*
X117915104Y-77809057D01*
X117915102Y-77809055D01*
X117759681Y-77696135D01*
X117588509Y-77608918D01*
X117588506Y-77608917D01*
X117588504Y-77608916D01*
X117556818Y-77598621D01*
X117529769Y-77589832D01*
X117471164Y-77549760D01*
X117443527Y-77484363D01*
X117455634Y-77414406D01*
X117503640Y-77362100D01*
X117529767Y-77350168D01*
X117588509Y-77331082D01*
X117759681Y-77243865D01*
X117915102Y-77130945D01*
X118050945Y-76995102D01*
X118163865Y-76839681D01*
X118251082Y-76668509D01*
X118310447Y-76485801D01*
X118340500Y-76296055D01*
X118340500Y-76103945D01*
X118310447Y-75914199D01*
X118253131Y-75737800D01*
X118251104Y-75666835D01*
X118287767Y-75606037D01*
X118302951Y-75594109D01*
X118366289Y-75551789D01*
X118477789Y-75440289D01*
X118565394Y-75309179D01*
X118625040Y-75165177D01*
X118652349Y-75124306D01*
X119162114Y-74614543D01*
X119238775Y-74499811D01*
X119291580Y-74372328D01*
X119318500Y-74236994D01*
X119318500Y-74099006D01*
X119318500Y-55049007D01*
X119291580Y-54913672D01*
X119280960Y-54888034D01*
X119250431Y-54814329D01*
X119238775Y-54786189D01*
X119162114Y-54671458D01*
X119064542Y-54573886D01*
X119064540Y-54573884D01*
X119064539Y-54573882D01*
X118556547Y-54065890D01*
X118556546Y-54065889D01*
X118556543Y-54065886D01*
X118441811Y-53989225D01*
X118441812Y-53989225D01*
X118441810Y-53989224D01*
X118441808Y-53989223D01*
X118418279Y-53979477D01*
X118362999Y-53934928D01*
X118340579Y-53867564D01*
X118340499Y-53863069D01*
X118340499Y-53243945D01*
X130579500Y-53243945D01*
X130579500Y-53436055D01*
X130609553Y-53625801D01*
X130609554Y-53625806D01*
X130668916Y-53808504D01*
X130668918Y-53808509D01*
X130756135Y-53979681D01*
X130869055Y-54135102D01*
X130869057Y-54135104D01*
X130869059Y-54135107D01*
X131004892Y-54270940D01*
X131004895Y-54270942D01*
X131004898Y-54270945D01*
X131160319Y-54383865D01*
X131331491Y-54471082D01*
X131389372Y-54489888D01*
X131390229Y-54490167D01*
X131448835Y-54530241D01*
X131476472Y-54595637D01*
X131464365Y-54665594D01*
X131416359Y-54717900D01*
X131390229Y-54729833D01*
X131331495Y-54748916D01*
X131331489Y-54748919D01*
X131160315Y-54836137D01*
X131004895Y-54949057D01*
X131004892Y-54949059D01*
X130869059Y-55084892D01*
X130869057Y-55084895D01*
X130756137Y-55240315D01*
X130668919Y-55411489D01*
X130668916Y-55411495D01*
X130609554Y-55594193D01*
X130609553Y-55594198D01*
X130609553Y-55594199D01*
X130579500Y-55783945D01*
X130579500Y-55976055D01*
X130601269Y-56113497D01*
X130609554Y-56165806D01*
X130639893Y-56259179D01*
X130668918Y-56348509D01*
X130756135Y-56519681D01*
X130869055Y-56675102D01*
X130869057Y-56675104D01*
X130869059Y-56675107D01*
X131004892Y-56810940D01*
X131004895Y-56810942D01*
X131004898Y-56810945D01*
X131160319Y-56923865D01*
X131331491Y-57011082D01*
X131389372Y-57029888D01*
X131390229Y-57030167D01*
X131448835Y-57070241D01*
X131476472Y-57135637D01*
X131464365Y-57205594D01*
X131416359Y-57257900D01*
X131390229Y-57269833D01*
X131331495Y-57288916D01*
X131331489Y-57288919D01*
X131160315Y-57376137D01*
X131004895Y-57489057D01*
X131004892Y-57489059D01*
X130869059Y-57624892D01*
X130869057Y-57624895D01*
X130756137Y-57780315D01*
X130668919Y-57951489D01*
X130668916Y-57951495D01*
X130609554Y-58134193D01*
X130609553Y-58134198D01*
X130609553Y-58134199D01*
X130579500Y-58323945D01*
X130579500Y-58516055D01*
X130609553Y-58705801D01*
X130609554Y-58705806D01*
X130668916Y-58888504D01*
X130668918Y-58888509D01*
X130756135Y-59059681D01*
X130869055Y-59215102D01*
X130869057Y-59215104D01*
X130869059Y-59215107D01*
X131004892Y-59350940D01*
X131004895Y-59350942D01*
X131004898Y-59350945D01*
X131160319Y-59463865D01*
X131331491Y-59551082D01*
X131389372Y-59569888D01*
X131390229Y-59570167D01*
X131448835Y-59610241D01*
X131476472Y-59675637D01*
X131464365Y-59745594D01*
X131416359Y-59797900D01*
X131390229Y-59809833D01*
X131331495Y-59828916D01*
X131331489Y-59828919D01*
X131160315Y-59916137D01*
X131004895Y-60029057D01*
X131004892Y-60029059D01*
X130869059Y-60164892D01*
X130869057Y-60164895D01*
X130756137Y-60320315D01*
X130668919Y-60491489D01*
X130668916Y-60491495D01*
X130609554Y-60674193D01*
X130609553Y-60674198D01*
X130609553Y-60674199D01*
X130579500Y-60863945D01*
X130579500Y-61056055D01*
X130591726Y-61133246D01*
X130609554Y-61245806D01*
X130668916Y-61428504D01*
X130668918Y-61428509D01*
X130756135Y-61599681D01*
X130869055Y-61755102D01*
X130869057Y-61755104D01*
X130869059Y-61755107D01*
X131004892Y-61890940D01*
X131004895Y-61890942D01*
X131004898Y-61890945D01*
X131160319Y-62003865D01*
X131331491Y-62091082D01*
X131389372Y-62109888D01*
X131390229Y-62110167D01*
X131448835Y-62150241D01*
X131476472Y-62215637D01*
X131464365Y-62285594D01*
X131416359Y-62337900D01*
X131390229Y-62349833D01*
X131331495Y-62368916D01*
X131331489Y-62368919D01*
X131160315Y-62456137D01*
X131004895Y-62569057D01*
X131004892Y-62569059D01*
X130869059Y-62704892D01*
X130869057Y-62704895D01*
X130756137Y-62860315D01*
X130668919Y-63031489D01*
X130668916Y-63031495D01*
X130609554Y-63214193D01*
X130609553Y-63214198D01*
X130609553Y-63214199D01*
X130579500Y-63403945D01*
X130579500Y-63596055D01*
X130609553Y-63785801D01*
X130609554Y-63785806D01*
X130668916Y-63968504D01*
X130668918Y-63968509D01*
X130756135Y-64139681D01*
X130869055Y-64295102D01*
X130869057Y-64295104D01*
X130869059Y-64295107D01*
X131004892Y-64430940D01*
X131004895Y-64430942D01*
X131004898Y-64430945D01*
X131160319Y-64543865D01*
X131331491Y-64631082D01*
X131389372Y-64649888D01*
X131390229Y-64650167D01*
X131448835Y-64690241D01*
X131476472Y-64755637D01*
X131464365Y-64825594D01*
X131416359Y-64877900D01*
X131390229Y-64889833D01*
X131331495Y-64908916D01*
X131331489Y-64908919D01*
X131160315Y-64996137D01*
X131004895Y-65109057D01*
X131004892Y-65109059D01*
X130869059Y-65244892D01*
X130869057Y-65244895D01*
X130756137Y-65400315D01*
X130668919Y-65571489D01*
X130668916Y-65571495D01*
X130609554Y-65754193D01*
X130609553Y-65754198D01*
X130609553Y-65754199D01*
X130579500Y-65943945D01*
X130579500Y-66136055D01*
X130609553Y-66325801D01*
X130609554Y-66325806D01*
X130668916Y-66508504D01*
X130668918Y-66508509D01*
X130756135Y-66679681D01*
X130869055Y-66835102D01*
X130869057Y-66835104D01*
X130869059Y-66835107D01*
X131004892Y-66970940D01*
X131004895Y-66970942D01*
X131004898Y-66970945D01*
X131160319Y-67083865D01*
X131331491Y-67171082D01*
X131389372Y-67189888D01*
X131390229Y-67190167D01*
X131448835Y-67230241D01*
X131476472Y-67295637D01*
X131464365Y-67365594D01*
X131416359Y-67417900D01*
X131390229Y-67429833D01*
X131331495Y-67448916D01*
X131331489Y-67448919D01*
X131160315Y-67536137D01*
X131004895Y-67649057D01*
X131004892Y-67649059D01*
X130869059Y-67784892D01*
X130869057Y-67784895D01*
X130756137Y-67940315D01*
X130668919Y-68111489D01*
X130668916Y-68111495D01*
X130609554Y-68294193D01*
X130609553Y-68294198D01*
X130609553Y-68294199D01*
X130579500Y-68483945D01*
X130579500Y-68676055D01*
X130609553Y-68865801D01*
X130609554Y-68865806D01*
X130668916Y-69048504D01*
X130668918Y-69048509D01*
X130756135Y-69219681D01*
X130869055Y-69375102D01*
X130869057Y-69375104D01*
X130869059Y-69375107D01*
X131004892Y-69510940D01*
X131004895Y-69510942D01*
X131004898Y-69510945D01*
X131160319Y-69623865D01*
X131331491Y-69711082D01*
X131389372Y-69729888D01*
X131390229Y-69730167D01*
X131448835Y-69770241D01*
X131476472Y-69835637D01*
X131464365Y-69905594D01*
X131416359Y-69957900D01*
X131390229Y-69969833D01*
X131331495Y-69988916D01*
X131331489Y-69988919D01*
X131160315Y-70076137D01*
X131004895Y-70189057D01*
X131004892Y-70189059D01*
X130869059Y-70324892D01*
X130869057Y-70324895D01*
X130756137Y-70480315D01*
X130668919Y-70651489D01*
X130668916Y-70651495D01*
X130609554Y-70834193D01*
X130609553Y-70834198D01*
X130609553Y-70834199D01*
X130579500Y-71023945D01*
X130579500Y-71216055D01*
X130609553Y-71405801D01*
X130609554Y-71405806D01*
X130668916Y-71588504D01*
X130668918Y-71588509D01*
X130756135Y-71759681D01*
X130869055Y-71915102D01*
X130869057Y-71915104D01*
X130869059Y-71915107D01*
X131004892Y-72050940D01*
X131004895Y-72050942D01*
X131004898Y-72050945D01*
X131160319Y-72163865D01*
X131331491Y-72251082D01*
X131389372Y-72269888D01*
X131390229Y-72270167D01*
X131448835Y-72310241D01*
X131476472Y-72375637D01*
X131464365Y-72445594D01*
X131416359Y-72497900D01*
X131390229Y-72509833D01*
X131331495Y-72528916D01*
X131331489Y-72528919D01*
X131160315Y-72616137D01*
X131004895Y-72729057D01*
X131004892Y-72729059D01*
X130869059Y-72864892D01*
X130869057Y-72864895D01*
X130756137Y-73020315D01*
X130668919Y-73191489D01*
X130668916Y-73191495D01*
X130609554Y-73374193D01*
X130609553Y-73374198D01*
X130609553Y-73374199D01*
X130579500Y-73563945D01*
X130579500Y-73756055D01*
X130609553Y-73945801D01*
X130609554Y-73945806D01*
X130659332Y-74099006D01*
X130668918Y-74128509D01*
X130756135Y-74299681D01*
X130869055Y-74455102D01*
X130869057Y-74455104D01*
X130869059Y-74455107D01*
X131004892Y-74590940D01*
X131004895Y-74590942D01*
X131004898Y-74590945D01*
X131160319Y-74703865D01*
X131331491Y-74791082D01*
X131389372Y-74809888D01*
X131390229Y-74810167D01*
X131448835Y-74850241D01*
X131476472Y-74915637D01*
X131464365Y-74985594D01*
X131416359Y-75037900D01*
X131390229Y-75049833D01*
X131331495Y-75068916D01*
X131331489Y-75068919D01*
X131160315Y-75156137D01*
X131004895Y-75269057D01*
X131004892Y-75269059D01*
X130869059Y-75404892D01*
X130869057Y-75404895D01*
X130756137Y-75560315D01*
X130668919Y-75731489D01*
X130668916Y-75731495D01*
X130609554Y-75914193D01*
X130609553Y-75914198D01*
X130609553Y-75914199D01*
X130579500Y-76103945D01*
X130579500Y-76296055D01*
X130609553Y-76485801D01*
X130609554Y-76485806D01*
X130668916Y-76668504D01*
X130668918Y-76668509D01*
X130756135Y-76839681D01*
X130869055Y-76995102D01*
X130869057Y-76995104D01*
X130869059Y-76995107D01*
X131004892Y-77130940D01*
X131004895Y-77130942D01*
X131004898Y-77130945D01*
X131160319Y-77243865D01*
X131331491Y-77331082D01*
X131389372Y-77349888D01*
X131390229Y-77350167D01*
X131448835Y-77390241D01*
X131476472Y-77455637D01*
X131464365Y-77525594D01*
X131416359Y-77577900D01*
X131390229Y-77589833D01*
X131331495Y-77608916D01*
X131331489Y-77608919D01*
X131160315Y-77696137D01*
X131004895Y-77809057D01*
X131004892Y-77809059D01*
X130869059Y-77944892D01*
X130869057Y-77944895D01*
X130756137Y-78100315D01*
X130668919Y-78271489D01*
X130668916Y-78271495D01*
X130609554Y-78454193D01*
X130609553Y-78454198D01*
X130609553Y-78454199D01*
X130579500Y-78643945D01*
X130579500Y-78836055D01*
X130609553Y-79025801D01*
X130609554Y-79025806D01*
X130668916Y-79208504D01*
X130668918Y-79208509D01*
X130756135Y-79379681D01*
X130869055Y-79535102D01*
X130869057Y-79535104D01*
X130869059Y-79535107D01*
X131004892Y-79670940D01*
X131004895Y-79670942D01*
X131004898Y-79670945D01*
X131160319Y-79783865D01*
X131331491Y-79871082D01*
X131389372Y-79889888D01*
X131390229Y-79890167D01*
X131448835Y-79930241D01*
X131476472Y-79995637D01*
X131464365Y-80065594D01*
X131416359Y-80117900D01*
X131390229Y-80129833D01*
X131331495Y-80148916D01*
X131331489Y-80148919D01*
X131160315Y-80236137D01*
X131004895Y-80349057D01*
X131004892Y-80349059D01*
X130869059Y-80484892D01*
X130869057Y-80484895D01*
X130756137Y-80640315D01*
X130668919Y-80811489D01*
X130668916Y-80811495D01*
X130609554Y-80994193D01*
X130609553Y-80994198D01*
X130609553Y-80994199D01*
X130579500Y-81183945D01*
X130579500Y-81376055D01*
X130609553Y-81565801D01*
X130609554Y-81565806D01*
X130668916Y-81748504D01*
X130668918Y-81748509D01*
X130756135Y-81919681D01*
X130869055Y-82075102D01*
X130869057Y-82075104D01*
X130869059Y-82075107D01*
X131004892Y-82210940D01*
X131004895Y-82210942D01*
X131004898Y-82210945D01*
X131160319Y-82323865D01*
X131331491Y-82411082D01*
X131389372Y-82429888D01*
X131390229Y-82430167D01*
X131448835Y-82470241D01*
X131476472Y-82535637D01*
X131464365Y-82605594D01*
X131416359Y-82657900D01*
X131390229Y-82669833D01*
X131331495Y-82688916D01*
X131331489Y-82688919D01*
X131160315Y-82776137D01*
X131004895Y-82889057D01*
X131004892Y-82889059D01*
X130869059Y-83024892D01*
X130869057Y-83024895D01*
X130756137Y-83180315D01*
X130668919Y-83351489D01*
X130668916Y-83351495D01*
X130609554Y-83534193D01*
X130609553Y-83534198D01*
X130609553Y-83534199D01*
X130579500Y-83723945D01*
X130579500Y-83916055D01*
X130609553Y-84105801D01*
X130609554Y-84105806D01*
X130668916Y-84288504D01*
X130668918Y-84288509D01*
X130756135Y-84459681D01*
X130869055Y-84615102D01*
X130869057Y-84615104D01*
X130869059Y-84615107D01*
X131004892Y-84750940D01*
X131004895Y-84750942D01*
X131004898Y-84750945D01*
X131160319Y-84863865D01*
X131331491Y-84951082D01*
X131389372Y-84969888D01*
X131390229Y-84970167D01*
X131448835Y-85010241D01*
X131476472Y-85075637D01*
X131464365Y-85145594D01*
X131416359Y-85197900D01*
X131390229Y-85209833D01*
X131331495Y-85228916D01*
X131331489Y-85228919D01*
X131160315Y-85316137D01*
X131004895Y-85429057D01*
X131004892Y-85429059D01*
X130869059Y-85564892D01*
X130869057Y-85564895D01*
X130756137Y-85720315D01*
X130668919Y-85891489D01*
X130668916Y-85891495D01*
X130609554Y-86074193D01*
X130609553Y-86074198D01*
X130609553Y-86074199D01*
X130579500Y-86263945D01*
X130579500Y-86456055D01*
X130609553Y-86645801D01*
X130609554Y-86645806D01*
X130668916Y-86828504D01*
X130668918Y-86828509D01*
X130756135Y-86999681D01*
X130869055Y-87155102D01*
X130869057Y-87155104D01*
X130869059Y-87155107D01*
X131004892Y-87290940D01*
X131004895Y-87290942D01*
X131004898Y-87290945D01*
X131160319Y-87403865D01*
X131331491Y-87491082D01*
X131389372Y-87509888D01*
X131390229Y-87510167D01*
X131448835Y-87550241D01*
X131476472Y-87615637D01*
X131464365Y-87685594D01*
X131416359Y-87737900D01*
X131390229Y-87749833D01*
X131331495Y-87768916D01*
X131331489Y-87768919D01*
X131160315Y-87856137D01*
X131004895Y-87969057D01*
X131004892Y-87969059D01*
X130869059Y-88104892D01*
X130869057Y-88104895D01*
X130756137Y-88260315D01*
X130668919Y-88431489D01*
X130668916Y-88431495D01*
X130609554Y-88614193D01*
X130609553Y-88614198D01*
X130609553Y-88614199D01*
X130579500Y-88803945D01*
X130579500Y-88996055D01*
X130609553Y-89185801D01*
X130609554Y-89185806D01*
X130668916Y-89368504D01*
X130668918Y-89368509D01*
X130756135Y-89539681D01*
X130869055Y-89695102D01*
X130869057Y-89695104D01*
X130869059Y-89695107D01*
X131004892Y-89830940D01*
X131004895Y-89830942D01*
X131004898Y-89830945D01*
X131160319Y-89943865D01*
X131331491Y-90031082D01*
X131389372Y-90049888D01*
X131390229Y-90050167D01*
X131448835Y-90090241D01*
X131476472Y-90155637D01*
X131464365Y-90225594D01*
X131416359Y-90277900D01*
X131390229Y-90289833D01*
X131331495Y-90308916D01*
X131331489Y-90308919D01*
X131160315Y-90396137D01*
X131004895Y-90509057D01*
X131004892Y-90509059D01*
X130869059Y-90644892D01*
X130869057Y-90644895D01*
X130756137Y-90800315D01*
X130668919Y-90971489D01*
X130668916Y-90971495D01*
X130609554Y-91154193D01*
X130609553Y-91154198D01*
X130609553Y-91154199D01*
X130579500Y-91343945D01*
X130579500Y-91536055D01*
X130594796Y-91632628D01*
X130609554Y-91725806D01*
X130637801Y-91812741D01*
X130668918Y-91908509D01*
X130756135Y-92079681D01*
X130869055Y-92235102D01*
X130869057Y-92235104D01*
X130869059Y-92235107D01*
X131004892Y-92370940D01*
X131004895Y-92370942D01*
X131004898Y-92370945D01*
X131160319Y-92483865D01*
X131331491Y-92571082D01*
X131514193Y-92630445D01*
X131514194Y-92630445D01*
X131514199Y-92630447D01*
X131703945Y-92660500D01*
X131703948Y-92660500D01*
X132456052Y-92660500D01*
X132456055Y-92660500D01*
X132645801Y-92630447D01*
X132828509Y-92571082D01*
X132999681Y-92483865D01*
X133155102Y-92370945D01*
X133290945Y-92235102D01*
X133403865Y-92079681D01*
X133491082Y-91908509D01*
X133550447Y-91725801D01*
X133580500Y-91536055D01*
X133580500Y-91343945D01*
X133550447Y-91154199D01*
X133491082Y-90971491D01*
X133403865Y-90800319D01*
X133290945Y-90644898D01*
X133290942Y-90644895D01*
X133290940Y-90644892D01*
X133155107Y-90509059D01*
X133155104Y-90509057D01*
X133155102Y-90509055D01*
X132999681Y-90396135D01*
X132828509Y-90308918D01*
X132828506Y-90308917D01*
X132828504Y-90308916D01*
X132796818Y-90298621D01*
X132769769Y-90289832D01*
X132711164Y-90249760D01*
X132683527Y-90184363D01*
X132695634Y-90114406D01*
X132743640Y-90062100D01*
X132769767Y-90050168D01*
X132828509Y-90031082D01*
X132999681Y-89943865D01*
X133155102Y-89830945D01*
X133290945Y-89695102D01*
X133403865Y-89539681D01*
X133491082Y-89368509D01*
X133550447Y-89185801D01*
X133580500Y-88996055D01*
X133580500Y-88803945D01*
X133550447Y-88614199D01*
X133491082Y-88431491D01*
X133403865Y-88260319D01*
X133290945Y-88104898D01*
X133290942Y-88104895D01*
X133290940Y-88104892D01*
X133155107Y-87969059D01*
X133155104Y-87969057D01*
X133155102Y-87969055D01*
X132999681Y-87856135D01*
X132828509Y-87768918D01*
X132828506Y-87768917D01*
X132828504Y-87768916D01*
X132796818Y-87758621D01*
X132769769Y-87749832D01*
X132711164Y-87709760D01*
X132683527Y-87644363D01*
X132695634Y-87574406D01*
X132743640Y-87522100D01*
X132769767Y-87510168D01*
X132828509Y-87491082D01*
X132999681Y-87403865D01*
X133155102Y-87290945D01*
X133290945Y-87155102D01*
X133403865Y-86999681D01*
X133491082Y-86828509D01*
X133550447Y-86645801D01*
X133580500Y-86456055D01*
X133580500Y-86263945D01*
X133550447Y-86074199D01*
X133491082Y-85891491D01*
X133403865Y-85720319D01*
X133290945Y-85564898D01*
X133290942Y-85564895D01*
X133290940Y-85564892D01*
X133155107Y-85429059D01*
X133155104Y-85429057D01*
X133155102Y-85429055D01*
X132999681Y-85316135D01*
X132828509Y-85228918D01*
X132828506Y-85228917D01*
X132828504Y-85228916D01*
X132796818Y-85218621D01*
X132769769Y-85209832D01*
X132711164Y-85169760D01*
X132683527Y-85104363D01*
X132695634Y-85034406D01*
X132743640Y-84982100D01*
X132769767Y-84970168D01*
X132828509Y-84951082D01*
X132999681Y-84863865D01*
X133155102Y-84750945D01*
X133290945Y-84615102D01*
X133403865Y-84459681D01*
X133491082Y-84288509D01*
X133550447Y-84105801D01*
X133580500Y-83916055D01*
X133580500Y-83723945D01*
X133550447Y-83534199D01*
X133491082Y-83351491D01*
X133403865Y-83180319D01*
X133290945Y-83024898D01*
X133290942Y-83024895D01*
X133290940Y-83024892D01*
X133155107Y-82889059D01*
X133155104Y-82889057D01*
X133155102Y-82889055D01*
X132999681Y-82776135D01*
X132828509Y-82688918D01*
X132828506Y-82688917D01*
X132828504Y-82688916D01*
X132796818Y-82678621D01*
X132769769Y-82669832D01*
X132711164Y-82629760D01*
X132683527Y-82564363D01*
X132695634Y-82494406D01*
X132743640Y-82442100D01*
X132769767Y-82430168D01*
X132828509Y-82411082D01*
X132999681Y-82323865D01*
X133155102Y-82210945D01*
X133290945Y-82075102D01*
X133403865Y-81919681D01*
X133491082Y-81748509D01*
X133550447Y-81565801D01*
X133580500Y-81376055D01*
X133580500Y-81183945D01*
X133550447Y-80994199D01*
X133491082Y-80811491D01*
X133403865Y-80640319D01*
X133290945Y-80484898D01*
X133290942Y-80484895D01*
X133290940Y-80484892D01*
X133155107Y-80349059D01*
X133155104Y-80349057D01*
X133155102Y-80349055D01*
X132999681Y-80236135D01*
X132828509Y-80148918D01*
X132828506Y-80148917D01*
X132828504Y-80148916D01*
X132796818Y-80138621D01*
X132769769Y-80129832D01*
X132711164Y-80089760D01*
X132683527Y-80024363D01*
X132695634Y-79954406D01*
X132743640Y-79902100D01*
X132769767Y-79890168D01*
X132828509Y-79871082D01*
X132999681Y-79783865D01*
X133155102Y-79670945D01*
X133290945Y-79535102D01*
X133403865Y-79379681D01*
X133491082Y-79208509D01*
X133550447Y-79025801D01*
X133580500Y-78836055D01*
X133580500Y-78643945D01*
X133550447Y-78454199D01*
X133491082Y-78271491D01*
X133403865Y-78100319D01*
X133290945Y-77944898D01*
X133290942Y-77944895D01*
X133290940Y-77944892D01*
X133155107Y-77809059D01*
X133155104Y-77809057D01*
X133155102Y-77809055D01*
X132999681Y-77696135D01*
X132828509Y-77608918D01*
X132828506Y-77608917D01*
X132828504Y-77608916D01*
X132796818Y-77598621D01*
X132769769Y-77589832D01*
X132711164Y-77549760D01*
X132683527Y-77484363D01*
X132695634Y-77414406D01*
X132743640Y-77362100D01*
X132769767Y-77350168D01*
X132828509Y-77331082D01*
X132999681Y-77243865D01*
X133155102Y-77130945D01*
X133290945Y-76995102D01*
X133403865Y-76839681D01*
X133491082Y-76668509D01*
X133550447Y-76485801D01*
X133580500Y-76296055D01*
X133580500Y-76103945D01*
X133550447Y-75914199D01*
X133491082Y-75731491D01*
X133403865Y-75560319D01*
X133290945Y-75404898D01*
X133290942Y-75404895D01*
X133290940Y-75404892D01*
X133155107Y-75269059D01*
X133155104Y-75269057D01*
X133155102Y-75269055D01*
X132999681Y-75156135D01*
X132828509Y-75068918D01*
X132828506Y-75068917D01*
X132828504Y-75068916D01*
X132796818Y-75058621D01*
X132769769Y-75049832D01*
X132711164Y-75009760D01*
X132683527Y-74944363D01*
X132695634Y-74874406D01*
X132743640Y-74822100D01*
X132769767Y-74810168D01*
X132828509Y-74791082D01*
X132999681Y-74703865D01*
X133155102Y-74590945D01*
X133290945Y-74455102D01*
X133403865Y-74299681D01*
X133491082Y-74128509D01*
X133550447Y-73945801D01*
X133580500Y-73756055D01*
X133580500Y-73563945D01*
X133550447Y-73374199D01*
X133491082Y-73191491D01*
X133403865Y-73020319D01*
X133290945Y-72864898D01*
X133290942Y-72864895D01*
X133290940Y-72864892D01*
X133155107Y-72729059D01*
X133155104Y-72729057D01*
X133155102Y-72729055D01*
X132999681Y-72616135D01*
X132828509Y-72528918D01*
X132828506Y-72528917D01*
X132828504Y-72528916D01*
X132796818Y-72518621D01*
X132769769Y-72509832D01*
X132711164Y-72469760D01*
X132683527Y-72404363D01*
X132695634Y-72334406D01*
X132743640Y-72282100D01*
X132769767Y-72270168D01*
X132828509Y-72251082D01*
X132999681Y-72163865D01*
X133155102Y-72050945D01*
X133290945Y-71915102D01*
X133403865Y-71759681D01*
X133491082Y-71588509D01*
X133550447Y-71405801D01*
X133580500Y-71216055D01*
X133580500Y-71023945D01*
X133550447Y-70834199D01*
X133491082Y-70651491D01*
X133403865Y-70480319D01*
X133290945Y-70324898D01*
X133290942Y-70324895D01*
X133290940Y-70324892D01*
X133155107Y-70189059D01*
X133155104Y-70189057D01*
X133155102Y-70189055D01*
X132999681Y-70076135D01*
X132828509Y-69988918D01*
X132828506Y-69988917D01*
X132828504Y-69988916D01*
X132796818Y-69978621D01*
X132769769Y-69969832D01*
X132711164Y-69929760D01*
X132683527Y-69864363D01*
X132695634Y-69794406D01*
X132743640Y-69742100D01*
X132769767Y-69730168D01*
X132828509Y-69711082D01*
X132999681Y-69623865D01*
X133155102Y-69510945D01*
X133290945Y-69375102D01*
X133403865Y-69219681D01*
X133491082Y-69048509D01*
X133550447Y-68865801D01*
X133580500Y-68676055D01*
X133580500Y-68483945D01*
X133550447Y-68294199D01*
X133491082Y-68111491D01*
X133403865Y-67940319D01*
X133290945Y-67784898D01*
X133290942Y-67784895D01*
X133290940Y-67784892D01*
X133155107Y-67649059D01*
X133155104Y-67649057D01*
X133155102Y-67649055D01*
X132999681Y-67536135D01*
X132828509Y-67448918D01*
X132828506Y-67448917D01*
X132828504Y-67448916D01*
X132796818Y-67438621D01*
X132769769Y-67429832D01*
X132711164Y-67389760D01*
X132683527Y-67324363D01*
X132695634Y-67254406D01*
X132743640Y-67202100D01*
X132769767Y-67190168D01*
X132828509Y-67171082D01*
X132999681Y-67083865D01*
X133155102Y-66970945D01*
X133290945Y-66835102D01*
X133403865Y-66679681D01*
X133491082Y-66508509D01*
X133550447Y-66325801D01*
X133580500Y-66136055D01*
X133580500Y-65943945D01*
X133550447Y-65754199D01*
X133491082Y-65571491D01*
X133403865Y-65400319D01*
X133290945Y-65244898D01*
X133290942Y-65244895D01*
X133290940Y-65244892D01*
X133155107Y-65109059D01*
X133155104Y-65109057D01*
X133155102Y-65109055D01*
X132999681Y-64996135D01*
X132828509Y-64908918D01*
X132828506Y-64908917D01*
X132828504Y-64908916D01*
X132796818Y-64898621D01*
X132769769Y-64889832D01*
X132711164Y-64849760D01*
X132683527Y-64784363D01*
X132695634Y-64714406D01*
X132743640Y-64662100D01*
X132769767Y-64650168D01*
X132828509Y-64631082D01*
X132999681Y-64543865D01*
X133155102Y-64430945D01*
X133290945Y-64295102D01*
X133403865Y-64139681D01*
X133491082Y-63968509D01*
X133550447Y-63785801D01*
X133580500Y-63596055D01*
X133580500Y-63403945D01*
X133550447Y-63214199D01*
X133491082Y-63031491D01*
X133403865Y-62860319D01*
X133290945Y-62704898D01*
X133290942Y-62704895D01*
X133290940Y-62704892D01*
X133155107Y-62569059D01*
X133155104Y-62569057D01*
X133155102Y-62569055D01*
X132999681Y-62456135D01*
X132828509Y-62368918D01*
X132828506Y-62368917D01*
X132828504Y-62368916D01*
X132796818Y-62358621D01*
X132769769Y-62349832D01*
X132711164Y-62309760D01*
X132683527Y-62244363D01*
X132695634Y-62174406D01*
X132743640Y-62122100D01*
X132769767Y-62110168D01*
X132828509Y-62091082D01*
X132999681Y-62003865D01*
X133155102Y-61890945D01*
X133290945Y-61755102D01*
X133403865Y-61599681D01*
X133491082Y-61428509D01*
X133550447Y-61245801D01*
X133580500Y-61056055D01*
X133580500Y-60863945D01*
X133550447Y-60674199D01*
X133491082Y-60491491D01*
X133403865Y-60320319D01*
X133290945Y-60164898D01*
X133290942Y-60164895D01*
X133290940Y-60164892D01*
X133155107Y-60029059D01*
X133155104Y-60029057D01*
X133155102Y-60029055D01*
X132999681Y-59916135D01*
X132828509Y-59828918D01*
X132828506Y-59828917D01*
X132828504Y-59828916D01*
X132796818Y-59818621D01*
X132769769Y-59809832D01*
X132711164Y-59769760D01*
X132683527Y-59704363D01*
X132695634Y-59634406D01*
X132743640Y-59582100D01*
X132769767Y-59570168D01*
X132828509Y-59551082D01*
X132999681Y-59463865D01*
X133155102Y-59350945D01*
X133290945Y-59215102D01*
X133403865Y-59059681D01*
X133491082Y-58888509D01*
X133550447Y-58705801D01*
X133580500Y-58516055D01*
X133580500Y-58323945D01*
X133550447Y-58134199D01*
X133491082Y-57951491D01*
X133403865Y-57780319D01*
X133290945Y-57624898D01*
X133290942Y-57624895D01*
X133290940Y-57624892D01*
X133155107Y-57489059D01*
X133155104Y-57489057D01*
X133155102Y-57489055D01*
X132999681Y-57376135D01*
X132828509Y-57288918D01*
X132828506Y-57288917D01*
X132828504Y-57288916D01*
X132796818Y-57278621D01*
X132769769Y-57269832D01*
X132711164Y-57229760D01*
X132683527Y-57164363D01*
X132695634Y-57094406D01*
X132743640Y-57042100D01*
X132769767Y-57030168D01*
X132828509Y-57011082D01*
X132999681Y-56923865D01*
X133155102Y-56810945D01*
X133290945Y-56675102D01*
X133403865Y-56519681D01*
X133491082Y-56348509D01*
X133550447Y-56165801D01*
X133580500Y-55976055D01*
X133580500Y-55783945D01*
X133550447Y-55594199D01*
X133491082Y-55411491D01*
X133403865Y-55240319D01*
X133290945Y-55084898D01*
X133290942Y-55084895D01*
X133290940Y-55084892D01*
X133155107Y-54949059D01*
X133155104Y-54949057D01*
X133155102Y-54949055D01*
X132999681Y-54836135D01*
X132828509Y-54748918D01*
X132828506Y-54748917D01*
X132828504Y-54748916D01*
X132794174Y-54737762D01*
X132769769Y-54729832D01*
X132711164Y-54689760D01*
X132683527Y-54624363D01*
X132695634Y-54554406D01*
X132743640Y-54502100D01*
X132769767Y-54490168D01*
X132828509Y-54471082D01*
X132999681Y-54383865D01*
X133155102Y-54270945D01*
X133290945Y-54135102D01*
X133403865Y-53979681D01*
X133491082Y-53808509D01*
X133550447Y-53625801D01*
X133580500Y-53436055D01*
X133580500Y-53243945D01*
X133550447Y-53054199D01*
X133491082Y-52871491D01*
X133403865Y-52700319D01*
X133290945Y-52544898D01*
X133290942Y-52544895D01*
X133290940Y-52544892D01*
X133155107Y-52409059D01*
X133155104Y-52409057D01*
X133155102Y-52409055D01*
X133001794Y-52297670D01*
X132999684Y-52296137D01*
X132999683Y-52296136D01*
X132999681Y-52296135D01*
X132828509Y-52208918D01*
X132828506Y-52208917D01*
X132828504Y-52208916D01*
X132645804Y-52149554D01*
X132645808Y-52149554D01*
X132610480Y-52143958D01*
X132456055Y-52119500D01*
X131703945Y-52119500D01*
X131514199Y-52149553D01*
X131514193Y-52149554D01*
X131331495Y-52208916D01*
X131331489Y-52208919D01*
X131160315Y-52296137D01*
X131004895Y-52409057D01*
X131004892Y-52409059D01*
X130869059Y-52544892D01*
X130869057Y-52544895D01*
X130756137Y-52700315D01*
X130668919Y-52871489D01*
X130668916Y-52871495D01*
X130609554Y-53054193D01*
X130609553Y-53054198D01*
X130609553Y-53054199D01*
X130579500Y-53243945D01*
X118340499Y-53243945D01*
X118340499Y-52572135D01*
X118340499Y-52572128D01*
X118334091Y-52512517D01*
X118295503Y-52409057D01*
X118283798Y-52377673D01*
X118283796Y-52377670D01*
X118283796Y-52377669D01*
X118222760Y-52296135D01*
X118197546Y-52262453D01*
X118120591Y-52204845D01*
X118082331Y-52176204D01*
X118082329Y-52176203D01*
X118082326Y-52176201D01*
X117947483Y-52125909D01*
X117947486Y-52125909D01*
X117887873Y-52119500D01*
X115792135Y-52119500D01*
X115792114Y-52119502D01*
X115732519Y-52125908D01*
X115732518Y-52125908D01*
X115597673Y-52176201D01*
X115597670Y-52176203D01*
X115482453Y-52262453D01*
X115396203Y-52377670D01*
X115396201Y-52377673D01*
X115345909Y-52512515D01*
X115339500Y-52572121D01*
X115339500Y-53863069D01*
X115319498Y-53931190D01*
X115277883Y-53971378D01*
X115270087Y-53976011D01*
X115238189Y-53989225D01*
X115163002Y-54039464D01*
X115160247Y-54041305D01*
X115123451Y-54065891D01*
X114517890Y-54671452D01*
X114517885Y-54671458D01*
X114441225Y-54786189D01*
X114388422Y-54913666D01*
X114388420Y-54913673D01*
X114364729Y-55032777D01*
X114364728Y-55032781D01*
X114361500Y-55049004D01*
X114361500Y-55454286D01*
X114351909Y-55502504D01*
X114292265Y-55646497D01*
X114292263Y-55646502D01*
X114261500Y-55801155D01*
X110515000Y-55801155D01*
X110515000Y-55777648D01*
X110482977Y-55575466D01*
X110419720Y-55380781D01*
X110326787Y-55198390D01*
X110206466Y-55032781D01*
X110206465Y-55032779D01*
X110061720Y-54888034D01*
X110061716Y-54888031D01*
X109896112Y-54767714D01*
X109893692Y-54766481D01*
X109806914Y-54722265D01*
X109755301Y-54673519D01*
X109738235Y-54604604D01*
X109761136Y-54537402D01*
X109806914Y-54497734D01*
X109896110Y-54452287D01*
X110061719Y-54331966D01*
X110206466Y-54187219D01*
X110326787Y-54021610D01*
X110419720Y-53839219D01*
X110482977Y-53644534D01*
X110515000Y-53442352D01*
X110515000Y-53237648D01*
X110482977Y-53035466D01*
X110419720Y-52840781D01*
X110326787Y-52658390D01*
X110264120Y-52572135D01*
X110206465Y-52492779D01*
X110061720Y-52348034D01*
X109896112Y-52227714D01*
X109795012Y-52176201D01*
X109713719Y-52134780D01*
X109713716Y-52134779D01*
X109713714Y-52134778D01*
X109519038Y-52071524D01*
X109519036Y-52071523D01*
X109519034Y-52071523D01*
X109316852Y-52039500D01*
X109112148Y-52039500D01*
X108909966Y-52071523D01*
X108909964Y-52071523D01*
X108909961Y-52071524D01*
X108715285Y-52134778D01*
X108715279Y-52134781D01*
X108532887Y-52227714D01*
X108367279Y-52348034D01*
X108222534Y-52492779D01*
X108102214Y-52658387D01*
X108009281Y-52840779D01*
X108009278Y-52840785D01*
X107946024Y-53035461D01*
X107946023Y-53035464D01*
X107946023Y-53035466D01*
X107914000Y-53237648D01*
X95274999Y-53237648D01*
X95274999Y-52492128D01*
X95268591Y-52432517D01*
X95237081Y-52348034D01*
X95218298Y-52297673D01*
X95218296Y-52297670D01*
X95218296Y-52297669D01*
X95151857Y-52208918D01*
X95132046Y-52182453D01*
X95047950Y-52119500D01*
X95016831Y-52096204D01*
X95016829Y-52096203D01*
X95016826Y-52096201D01*
X94881983Y-52045909D01*
X94881986Y-52045909D01*
X94822378Y-52039500D01*
X93126000Y-52039500D01*
X93057879Y-52019498D01*
X93011386Y-51965842D01*
X93000000Y-51913500D01*
X93000000Y-51552189D01*
X93020002Y-51484068D01*
X93036900Y-51463099D01*
X93962596Y-50537403D01*
X94024906Y-50503379D01*
X94051689Y-50500500D01*
X94065892Y-50500500D01*
X107426375Y-50500500D01*
X107426391Y-50500501D01*
X107434109Y-50500501D01*
X107671959Y-50500501D01*
X107671970Y-50500501D01*
X107671980Y-50500499D01*
X107675048Y-50500349D01*
X107675050Y-50500402D01*
X107683242Y-50500000D01*
X109000000Y-50500000D01*
X111000000Y-48500000D01*
X111000000Y-47183243D01*
X111000402Y-47175053D01*
X111000349Y-47175051D01*
X111000501Y-47171961D01*
X111000501Y-46909049D01*
X111000500Y-46909043D01*
X111000500Y-46374935D01*
X114745115Y-46374935D01*
X133945551Y-46374935D01*
X133945551Y-43839871D01*
X114745115Y-43839871D01*
X114745115Y-46374935D01*
X111000500Y-46374935D01*
X111000500Y-45003786D01*
X111000730Y-44996179D01*
X111001199Y-44988423D01*
X111018263Y-44706312D01*
X111020094Y-44691235D01*
X111060435Y-44471102D01*
X111092386Y-44407708D01*
X111095213Y-44404786D01*
X112904728Y-42595271D01*
X112967036Y-42561248D01*
X112971020Y-42560450D01*
X113191237Y-42520093D01*
X113206310Y-42518263D01*
X113470801Y-42502265D01*
X113496197Y-42500729D01*
X113503804Y-42500499D01*
X134909044Y-42500499D01*
X134934107Y-42500499D01*
X134934108Y-42500500D01*
G37*
%TD.AperFunction*%
%TD*%
M02*
