%TF.GenerationSoftware,KiCad,Pcbnew,9.0.6*%
%TF.CreationDate,2026-01-11T12:01:31+09:00*%
%TF.ProjectId,EEPtoMASK_ROM1Mbit,45455074-6f4d-4415-934b-5f524f4d314d,rev?*%
%TF.SameCoordinates,Original*%
%TF.FileFunction,Soldermask,Top*%
%TF.FilePolarity,Negative*%
%FSLAX46Y46*%
G04 Gerber Fmt 4.6, Leading zero omitted, Abs format (unit mm)*
G04 Created by KiCad (PCBNEW 9.0.6) date 2026-01-11 12:01:31*
%MOMM*%
%LPD*%
G01*
G04 APERTURE LIST*
G04 Aperture macros list*
%AMRoundRect*
0 Rectangle with rounded corners*
0 $1 Rounding radius*
0 $2 $3 $4 $5 $6 $7 $8 $9 X,Y pos of 4 corners*
0 Add a 4 corners polygon primitive as box body*
4,1,4,$2,$3,$4,$5,$6,$7,$8,$9,$2,$3,0*
0 Add four circle primitives for the rounded corners*
1,1,$1+$1,$2,$3*
1,1,$1+$1,$4,$5*
1,1,$1+$1,$6,$7*
1,1,$1+$1,$8,$9*
0 Add four rect primitives between the rounded corners*
20,1,$1+$1,$2,$3,$4,$5,0*
20,1,$1+$1,$4,$5,$6,$7,0*
20,1,$1+$1,$6,$7,$8,$9,0*
20,1,$1+$1,$8,$9,$2,$3,0*%
G04 Aperture macros list end*
%ADD10R,1.600000X1.600000*%
%ADD11O,1.600000X1.600000*%
%ADD12RoundRect,0.075000X-0.712500X-0.075000X0.712500X-0.075000X0.712500X0.075000X-0.712500X0.075000X0*%
G04 APERTURE END LIST*
D10*
%TO.C,J1*%
X41910000Y-36830000D03*
D11*
X44450000Y-36830000D03*
X46990000Y-36830000D03*
X49530000Y-36830000D03*
X52070000Y-36830000D03*
X54610000Y-36830000D03*
X57150000Y-36830000D03*
X59690000Y-36830000D03*
X62230000Y-36830000D03*
X64770000Y-36830000D03*
X67310000Y-36830000D03*
X69850000Y-36830000D03*
X72390000Y-36830000D03*
X74930000Y-36830000D03*
X74930000Y-21590000D03*
X72390000Y-21590000D03*
X69850000Y-21590000D03*
X67310000Y-21590000D03*
X64770000Y-21590000D03*
X62230000Y-21590000D03*
X59690000Y-21590000D03*
X57150000Y-21590000D03*
X54610000Y-21590000D03*
X52070000Y-21590000D03*
X49530000Y-21590000D03*
X46990000Y-21590000D03*
X44450000Y-21590000D03*
X41910000Y-21590000D03*
%TD*%
D12*
%TO.C,U1*%
X49225000Y-25490000D03*
X49225000Y-25990000D03*
X49225000Y-26490000D03*
X49225000Y-26990000D03*
X49225000Y-27490000D03*
X49225000Y-27990000D03*
X49225000Y-28490000D03*
X49225000Y-28990000D03*
X49225000Y-29490000D03*
X49225000Y-29990000D03*
X49225000Y-30490000D03*
X49225000Y-30990000D03*
X49225000Y-31490000D03*
X49225000Y-31990000D03*
X49225000Y-32490000D03*
X49225000Y-32990000D03*
X68600000Y-32990000D03*
X68600000Y-32490000D03*
X68600000Y-31990000D03*
X68600000Y-31490000D03*
X68600000Y-30990000D03*
X68600000Y-30490000D03*
X68600000Y-29990000D03*
X68600000Y-29490000D03*
X68600000Y-28990000D03*
X68600000Y-28490000D03*
X68600000Y-27990000D03*
X68600000Y-27490000D03*
X68600000Y-26990000D03*
X68600000Y-26490000D03*
X68600000Y-25990000D03*
X68600000Y-25490000D03*
%TD*%
M02*
