%TF.GenerationSoftware,KiCad,Pcbnew,9.0.6*%
%TF.CreationDate,2026-01-11T12:01:31+09:00*%
%TF.ProjectId,EEPtoMASK_ROM1Mbit,45455074-6f4d-4415-934b-5f524f4d314d,rev?*%
%TF.SameCoordinates,Original*%
%TF.FileFunction,Legend,Bot*%
%TF.FilePolarity,Positive*%
%FSLAX46Y46*%
G04 Gerber Fmt 4.6, Leading zero omitted, Abs format (unit mm)*
G04 Created by KiCad (PCBNEW 9.0.6) date 2026-01-11 12:01:31*
%MOMM*%
%LPD*%
G01*
G04 APERTURE LIST*
%ADD10C,0.100000*%
%ADD11C,0.200000*%
G04 APERTURE END LIST*
D10*
X45338761Y-25510895D02*
X45605428Y-25129942D01*
X45795904Y-25510895D02*
X45795904Y-24710895D01*
X45795904Y-24710895D02*
X45491142Y-24710895D01*
X45491142Y-24710895D02*
X45414952Y-24748990D01*
X45414952Y-24748990D02*
X45376857Y-24787085D01*
X45376857Y-24787085D02*
X45338761Y-24863276D01*
X45338761Y-24863276D02*
X45338761Y-24977561D01*
X45338761Y-24977561D02*
X45376857Y-25053752D01*
X45376857Y-25053752D02*
X45414952Y-25091847D01*
X45414952Y-25091847D02*
X45491142Y-25129942D01*
X45491142Y-25129942D02*
X45795904Y-25129942D01*
X44691142Y-25472800D02*
X44767333Y-25510895D01*
X44767333Y-25510895D02*
X44919714Y-25510895D01*
X44919714Y-25510895D02*
X44995904Y-25472800D01*
X44995904Y-25472800D02*
X45034000Y-25396609D01*
X45034000Y-25396609D02*
X45034000Y-25091847D01*
X45034000Y-25091847D02*
X44995904Y-25015657D01*
X44995904Y-25015657D02*
X44919714Y-24977561D01*
X44919714Y-24977561D02*
X44767333Y-24977561D01*
X44767333Y-24977561D02*
X44691142Y-25015657D01*
X44691142Y-25015657D02*
X44653047Y-25091847D01*
X44653047Y-25091847D02*
X44653047Y-25168038D01*
X44653047Y-25168038D02*
X45034000Y-25244228D01*
X44386381Y-24977561D02*
X44195905Y-25510895D01*
X44195905Y-25510895D02*
X44005428Y-24977561D01*
X43700666Y-25434704D02*
X43662571Y-25472800D01*
X43662571Y-25472800D02*
X43700666Y-25510895D01*
X43700666Y-25510895D02*
X43738762Y-25472800D01*
X43738762Y-25472800D02*
X43700666Y-25434704D01*
X43700666Y-25434704D02*
X43700666Y-25510895D01*
X42900667Y-25510895D02*
X43357810Y-25510895D01*
X43129238Y-25510895D02*
X43129238Y-24710895D01*
X43129238Y-24710895D02*
X43205429Y-24825180D01*
X43205429Y-24825180D02*
X43281619Y-24901371D01*
X43281619Y-24901371D02*
X43357810Y-24939466D01*
X42557809Y-25434704D02*
X42519714Y-25472800D01*
X42519714Y-25472800D02*
X42557809Y-25510895D01*
X42557809Y-25510895D02*
X42595905Y-25472800D01*
X42595905Y-25472800D02*
X42557809Y-25434704D01*
X42557809Y-25434704D02*
X42557809Y-25510895D01*
X42024476Y-24710895D02*
X41948286Y-24710895D01*
X41948286Y-24710895D02*
X41872095Y-24748990D01*
X41872095Y-24748990D02*
X41834000Y-24787085D01*
X41834000Y-24787085D02*
X41795905Y-24863276D01*
X41795905Y-24863276D02*
X41757810Y-25015657D01*
X41757810Y-25015657D02*
X41757810Y-25206133D01*
X41757810Y-25206133D02*
X41795905Y-25358514D01*
X41795905Y-25358514D02*
X41834000Y-25434704D01*
X41834000Y-25434704D02*
X41872095Y-25472800D01*
X41872095Y-25472800D02*
X41948286Y-25510895D01*
X41948286Y-25510895D02*
X42024476Y-25510895D01*
X42024476Y-25510895D02*
X42100667Y-25472800D01*
X42100667Y-25472800D02*
X42138762Y-25434704D01*
X42138762Y-25434704D02*
X42176857Y-25358514D01*
X42176857Y-25358514D02*
X42214953Y-25206133D01*
X42214953Y-25206133D02*
X42214953Y-25015657D01*
X42214953Y-25015657D02*
X42176857Y-24863276D01*
X42176857Y-24863276D02*
X42138762Y-24787085D01*
X42138762Y-24787085D02*
X42100667Y-24748990D01*
X42100667Y-24748990D02*
X42024476Y-24710895D01*
X41414952Y-25510895D02*
X41414952Y-24710895D01*
X41414952Y-25015657D02*
X41338762Y-24977561D01*
X41338762Y-24977561D02*
X41186381Y-24977561D01*
X41186381Y-24977561D02*
X41110190Y-25015657D01*
X41110190Y-25015657D02*
X41072095Y-25053752D01*
X41072095Y-25053752D02*
X41034000Y-25129942D01*
X41034000Y-25129942D02*
X41034000Y-25358514D01*
X41034000Y-25358514D02*
X41072095Y-25434704D01*
X41072095Y-25434704D02*
X41110190Y-25472800D01*
X41110190Y-25472800D02*
X41186381Y-25510895D01*
X41186381Y-25510895D02*
X41338762Y-25510895D01*
X41338762Y-25510895D02*
X41414952Y-25472800D01*
D11*
X55758048Y-24201219D02*
X55633048Y-23201219D01*
X55633048Y-23201219D02*
X55252095Y-23201219D01*
X55252095Y-23201219D02*
X55162810Y-23248838D01*
X55162810Y-23248838D02*
X55121143Y-23296457D01*
X55121143Y-23296457D02*
X55085429Y-23391695D01*
X55085429Y-23391695D02*
X55103286Y-23534552D01*
X55103286Y-23534552D02*
X55162810Y-23629790D01*
X55162810Y-23629790D02*
X55216381Y-23677409D01*
X55216381Y-23677409D02*
X55317571Y-23725028D01*
X55317571Y-23725028D02*
X55698524Y-23725028D01*
X54186619Y-24201219D02*
X54460429Y-23725028D01*
X54758048Y-24201219D02*
X54633048Y-23201219D01*
X54633048Y-23201219D02*
X54252095Y-23201219D01*
X54252095Y-23201219D02*
X54162810Y-23248838D01*
X54162810Y-23248838D02*
X54121143Y-23296457D01*
X54121143Y-23296457D02*
X54085429Y-23391695D01*
X54085429Y-23391695D02*
X54103286Y-23534552D01*
X54103286Y-23534552D02*
X54162810Y-23629790D01*
X54162810Y-23629790D02*
X54216381Y-23677409D01*
X54216381Y-23677409D02*
X54317571Y-23725028D01*
X54317571Y-23725028D02*
X54698524Y-23725028D01*
X53442571Y-23201219D02*
X53252095Y-23201219D01*
X53252095Y-23201219D02*
X53162810Y-23248838D01*
X53162810Y-23248838D02*
X53079476Y-23344076D01*
X53079476Y-23344076D02*
X53055667Y-23534552D01*
X53055667Y-23534552D02*
X53097333Y-23867885D01*
X53097333Y-23867885D02*
X53168762Y-24058361D01*
X53168762Y-24058361D02*
X53275905Y-24153600D01*
X53275905Y-24153600D02*
X53377095Y-24201219D01*
X53377095Y-24201219D02*
X53567571Y-24201219D01*
X53567571Y-24201219D02*
X53656857Y-24153600D01*
X53656857Y-24153600D02*
X53740191Y-24058361D01*
X53740191Y-24058361D02*
X53764000Y-23867885D01*
X53764000Y-23867885D02*
X53722333Y-23534552D01*
X53722333Y-23534552D02*
X53650905Y-23344076D01*
X53650905Y-23344076D02*
X53543762Y-23248838D01*
X53543762Y-23248838D02*
X53442571Y-23201219D01*
X52710429Y-24201219D02*
X52585429Y-23201219D01*
X52585429Y-23201219D02*
X52341381Y-23915504D01*
X52341381Y-23915504D02*
X51918762Y-23201219D01*
X51918762Y-23201219D02*
X52043762Y-24201219D01*
X51537810Y-23201219D02*
X50918762Y-23201219D01*
X50918762Y-23201219D02*
X51299715Y-23582171D01*
X51299715Y-23582171D02*
X51156857Y-23582171D01*
X51156857Y-23582171D02*
X51067572Y-23629790D01*
X51067572Y-23629790D02*
X51025905Y-23677409D01*
X51025905Y-23677409D02*
X50990191Y-23772647D01*
X50990191Y-23772647D02*
X51019953Y-24010742D01*
X51019953Y-24010742D02*
X51079476Y-24105980D01*
X51079476Y-24105980D02*
X51133048Y-24153600D01*
X51133048Y-24153600D02*
X51234238Y-24201219D01*
X51234238Y-24201219D02*
X51519953Y-24201219D01*
X51519953Y-24201219D02*
X51609238Y-24153600D01*
X51609238Y-24153600D02*
X51650905Y-24105980D01*
X50549714Y-23296457D02*
X50496143Y-23248838D01*
X50496143Y-23248838D02*
X50394953Y-23201219D01*
X50394953Y-23201219D02*
X50156857Y-23201219D01*
X50156857Y-23201219D02*
X50067572Y-23248838D01*
X50067572Y-23248838D02*
X50025905Y-23296457D01*
X50025905Y-23296457D02*
X49990191Y-23391695D01*
X49990191Y-23391695D02*
X50002095Y-23486933D01*
X50002095Y-23486933D02*
X50067572Y-23629790D01*
X50067572Y-23629790D02*
X50710429Y-24201219D01*
X50710429Y-24201219D02*
X50091381Y-24201219D01*
X48960428Y-23534552D02*
X48579476Y-23534552D01*
X48775905Y-23201219D02*
X48883048Y-24058361D01*
X48883048Y-24058361D02*
X48847333Y-24153600D01*
X48847333Y-24153600D02*
X48758048Y-24201219D01*
X48758048Y-24201219D02*
X48662809Y-24201219D01*
X48186619Y-24201219D02*
X48275904Y-24153600D01*
X48275904Y-24153600D02*
X48317571Y-24105980D01*
X48317571Y-24105980D02*
X48353285Y-24010742D01*
X48353285Y-24010742D02*
X48317571Y-23725028D01*
X48317571Y-23725028D02*
X48258047Y-23629790D01*
X48258047Y-23629790D02*
X48204476Y-23582171D01*
X48204476Y-23582171D02*
X48103285Y-23534552D01*
X48103285Y-23534552D02*
X47960428Y-23534552D01*
X47960428Y-23534552D02*
X47871142Y-23582171D01*
X47871142Y-23582171D02*
X47829476Y-23629790D01*
X47829476Y-23629790D02*
X47793761Y-23725028D01*
X47793761Y-23725028D02*
X47829476Y-24010742D01*
X47829476Y-24010742D02*
X47888999Y-24105980D01*
X47888999Y-24105980D02*
X47942571Y-24153600D01*
X47942571Y-24153600D02*
X48043761Y-24201219D01*
X48043761Y-24201219D02*
X48186619Y-24201219D01*
X46662809Y-24201219D02*
X46537809Y-23201219D01*
X46537809Y-23201219D02*
X46293761Y-23915504D01*
X46293761Y-23915504D02*
X45871142Y-23201219D01*
X45871142Y-23201219D02*
X45996142Y-24201219D01*
X45531856Y-23915504D02*
X45055666Y-23915504D01*
X45662809Y-24201219D02*
X45204475Y-23201219D01*
X45204475Y-23201219D02*
X44996142Y-24201219D01*
X44704475Y-24153600D02*
X44567571Y-24201219D01*
X44567571Y-24201219D02*
X44329475Y-24201219D01*
X44329475Y-24201219D02*
X44228285Y-24153600D01*
X44228285Y-24153600D02*
X44174713Y-24105980D01*
X44174713Y-24105980D02*
X44115190Y-24010742D01*
X44115190Y-24010742D02*
X44103285Y-23915504D01*
X44103285Y-23915504D02*
X44138999Y-23820266D01*
X44138999Y-23820266D02*
X44180666Y-23772647D01*
X44180666Y-23772647D02*
X44269952Y-23725028D01*
X44269952Y-23725028D02*
X44454475Y-23677409D01*
X44454475Y-23677409D02*
X44543761Y-23629790D01*
X44543761Y-23629790D02*
X44585428Y-23582171D01*
X44585428Y-23582171D02*
X44621142Y-23486933D01*
X44621142Y-23486933D02*
X44609237Y-23391695D01*
X44609237Y-23391695D02*
X44549713Y-23296457D01*
X44549713Y-23296457D02*
X44496142Y-23248838D01*
X44496142Y-23248838D02*
X44394952Y-23201219D01*
X44394952Y-23201219D02*
X44156856Y-23201219D01*
X44156856Y-23201219D02*
X44019952Y-23248838D01*
X43710428Y-24201219D02*
X43585428Y-23201219D01*
X43138999Y-24201219D02*
X43496142Y-23629790D01*
X43013999Y-23201219D02*
X43656856Y-23772647D01*
X42644951Y-23296457D02*
X42591380Y-23248838D01*
X42591380Y-23248838D02*
X42490190Y-23201219D01*
X42490190Y-23201219D02*
X42252094Y-23201219D01*
X42252094Y-23201219D02*
X42162809Y-23248838D01*
X42162809Y-23248838D02*
X42121142Y-23296457D01*
X42121142Y-23296457D02*
X42085428Y-23391695D01*
X42085428Y-23391695D02*
X42097332Y-23486933D01*
X42097332Y-23486933D02*
X42162809Y-23629790D01*
X42162809Y-23629790D02*
X42805666Y-24201219D01*
X42805666Y-24201219D02*
X42186618Y-24201219D01*
X41543761Y-23629790D02*
X41633047Y-23582171D01*
X41633047Y-23582171D02*
X41674713Y-23534552D01*
X41674713Y-23534552D02*
X41710428Y-23439314D01*
X41710428Y-23439314D02*
X41704475Y-23391695D01*
X41704475Y-23391695D02*
X41644951Y-23296457D01*
X41644951Y-23296457D02*
X41591380Y-23248838D01*
X41591380Y-23248838D02*
X41490190Y-23201219D01*
X41490190Y-23201219D02*
X41299713Y-23201219D01*
X41299713Y-23201219D02*
X41210428Y-23248838D01*
X41210428Y-23248838D02*
X41168761Y-23296457D01*
X41168761Y-23296457D02*
X41133047Y-23391695D01*
X41133047Y-23391695D02*
X41138999Y-23439314D01*
X41138999Y-23439314D02*
X41198523Y-23534552D01*
X41198523Y-23534552D02*
X41252094Y-23582171D01*
X41252094Y-23582171D02*
X41353285Y-23629790D01*
X41353285Y-23629790D02*
X41543761Y-23629790D01*
X41543761Y-23629790D02*
X41644951Y-23677409D01*
X41644951Y-23677409D02*
X41698523Y-23725028D01*
X41698523Y-23725028D02*
X41758047Y-23820266D01*
X41758047Y-23820266D02*
X41781856Y-24010742D01*
X41781856Y-24010742D02*
X41746142Y-24105980D01*
X41746142Y-24105980D02*
X41704475Y-24153600D01*
X41704475Y-24153600D02*
X41615190Y-24201219D01*
X41615190Y-24201219D02*
X41424713Y-24201219D01*
X41424713Y-24201219D02*
X41323523Y-24153600D01*
X41323523Y-24153600D02*
X41269951Y-24105980D01*
X41269951Y-24105980D02*
X41210428Y-24010742D01*
X41210428Y-24010742D02*
X41186618Y-23820266D01*
X41186618Y-23820266D02*
X41222332Y-23725028D01*
X41222332Y-23725028D02*
X41263999Y-23677409D01*
X41263999Y-23677409D02*
X41353285Y-23629790D01*
M02*
