%TF.GenerationSoftware,KiCad,Pcbnew,9.0.6*%
%TF.CreationDate,2026-01-11T12:01:31+09:00*%
%TF.ProjectId,EEPtoMASK_ROM1Mbit,45455074-6f4d-4415-934b-5f524f4d314d,rev?*%
%TF.SameCoordinates,Original*%
%TF.FileFunction,Copper,L2,Bot*%
%TF.FilePolarity,Positive*%
%FSLAX46Y46*%
G04 Gerber Fmt 4.6, Leading zero omitted, Abs format (unit mm)*
G04 Created by KiCad (PCBNEW 9.0.6) date 2026-01-11 12:01:31*
%MOMM*%
%LPD*%
G01*
G04 APERTURE LIST*
%TA.AperFunction,ComponentPad*%
%ADD10R,1.600000X1.600000*%
%TD*%
%TA.AperFunction,ComponentPad*%
%ADD11O,1.600000X1.600000*%
%TD*%
%TA.AperFunction,ViaPad*%
%ADD12C,0.800000*%
%TD*%
G04 APERTURE END LIST*
D10*
%TO.P,J1,1,Pin_1*%
%TO.N,MASK_A15*%
X41910000Y-36830000D03*
D11*
%TO.P,J1,2,Pin_2*%
%TO.N,MASK_A12*%
X44450000Y-36830000D03*
%TO.P,J1,3,Pin_3*%
%TO.N,MASK_A7*%
X46990000Y-36830000D03*
%TO.P,J1,4,Pin_4*%
%TO.N,MASK_A6*%
X49530000Y-36830000D03*
%TO.P,J1,5,Pin_5*%
%TO.N,MASK_A5*%
X52070000Y-36830000D03*
%TO.P,J1,6,Pin_6*%
%TO.N,MASK_A4*%
X54610000Y-36830000D03*
%TO.P,J1,7,Pin_7*%
%TO.N,MASK_A3*%
X57150000Y-36830000D03*
%TO.P,J1,8,Pin_8*%
%TO.N,MASK_A2*%
X59690000Y-36830000D03*
%TO.P,J1,9,Pin_9*%
%TO.N,MASK_A1*%
X62230000Y-36830000D03*
%TO.P,J1,10,Pin_10*%
%TO.N,MASK_A0*%
X64770000Y-36830000D03*
%TO.P,J1,11,Pin_11*%
%TO.N,MASK_D0*%
X67310000Y-36830000D03*
%TO.P,J1,12,Pin_12*%
%TO.N,MASK_D1*%
X69850000Y-36830000D03*
%TO.P,J1,13,Pin_13*%
%TO.N,MASK_D2*%
X72390000Y-36830000D03*
%TO.P,J1,14,Pin_14*%
%TO.N,GND*%
X74930000Y-36830000D03*
%TO.P,J1,15,Pin_15*%
%TO.N,MASK_D3*%
X74930000Y-21590000D03*
%TO.P,J1,16,Pin_16*%
%TO.N,MASK_D4*%
X72390000Y-21590000D03*
%TO.P,J1,17,Pin_17*%
%TO.N,MASK_D5*%
X69850000Y-21590000D03*
%TO.P,J1,18,Pin_18*%
%TO.N,MASK_D6*%
X67310000Y-21590000D03*
%TO.P,J1,19,Pin_19*%
%TO.N,MASK_D7*%
X64770000Y-21590000D03*
%TO.P,J1,20,Pin_20*%
%TO.N,MASK_CE*%
X62230000Y-21590000D03*
%TO.P,J1,21,Pin_21*%
%TO.N,MASK_A10*%
X59690000Y-21590000D03*
%TO.P,J1,22,Pin_22*%
%TO.N,MASK_A16*%
X57150000Y-21590000D03*
%TO.P,J1,23,Pin_23*%
%TO.N,MASK_A11*%
X54610000Y-21590000D03*
%TO.P,J1,24,Pin_24*%
%TO.N,MASK_A9*%
X52070000Y-21590000D03*
%TO.P,J1,25,Pin_25*%
%TO.N,MASK_A8*%
X49530000Y-21590000D03*
%TO.P,J1,26,Pin_26*%
%TO.N,MASK_A13*%
X46990000Y-21590000D03*
%TO.P,J1,27,Pin_27*%
%TO.N,MASK_A14*%
X44450000Y-21590000D03*
%TO.P,J1,28,Pin_28*%
%TO.N,+5V*%
X41910000Y-21590000D03*
%TD*%
D12*
%TO.N,GND*%
X52070000Y-31750000D03*
X52070000Y-26670000D03*
X59690000Y-34290000D03*
X54610000Y-24130000D03*
X54610000Y-34290000D03*
X58420000Y-29210000D03*
X45720000Y-35560000D03*
X54610000Y-29210000D03*
X62230000Y-24130000D03*
X41910000Y-29210000D03*
X41910000Y-24130000D03*
X73660000Y-24130000D03*
X58420000Y-31750000D03*
X41910000Y-34290000D03*
X45720000Y-29210000D03*
X45720000Y-22860000D03*
X58420000Y-26670000D03*
X49530000Y-34290000D03*
X66880000Y-29200000D03*
X74930000Y-29210000D03*
X49530000Y-24130000D03*
X62230000Y-29210000D03*
%TD*%
%TA.AperFunction,Conductor*%
%TO.N,GND*%
G36*
X41297998Y-22746732D02*
G01*
X41407710Y-22802634D01*
X41603592Y-22866280D01*
X41807019Y-22898500D01*
X41807022Y-22898500D01*
X42012978Y-22898500D01*
X42012981Y-22898500D01*
X42216408Y-22866280D01*
X42412290Y-22802634D01*
X42522001Y-22746732D01*
X42579204Y-22733000D01*
X43780796Y-22733000D01*
X43837998Y-22746732D01*
X43947710Y-22802634D01*
X44143592Y-22866280D01*
X44347019Y-22898500D01*
X44347022Y-22898500D01*
X44552978Y-22898500D01*
X44552981Y-22898500D01*
X44756408Y-22866280D01*
X44952290Y-22802634D01*
X45062001Y-22746732D01*
X45119204Y-22733000D01*
X46320796Y-22733000D01*
X46377998Y-22746732D01*
X46487710Y-22802634D01*
X46683592Y-22866280D01*
X46887019Y-22898500D01*
X46887022Y-22898500D01*
X47092978Y-22898500D01*
X47092981Y-22898500D01*
X47296408Y-22866280D01*
X47492290Y-22802634D01*
X47602001Y-22746732D01*
X47659204Y-22733000D01*
X48860796Y-22733000D01*
X48917998Y-22746732D01*
X49027710Y-22802634D01*
X49223592Y-22866280D01*
X49427019Y-22898500D01*
X49427022Y-22898500D01*
X49632978Y-22898500D01*
X49632981Y-22898500D01*
X49836408Y-22866280D01*
X50032290Y-22802634D01*
X50142001Y-22746732D01*
X50199204Y-22733000D01*
X51400796Y-22733000D01*
X51457998Y-22746732D01*
X51567710Y-22802634D01*
X51763592Y-22866280D01*
X51967019Y-22898500D01*
X51967022Y-22898500D01*
X52172978Y-22898500D01*
X52172981Y-22898500D01*
X52376408Y-22866280D01*
X52572290Y-22802634D01*
X52682001Y-22746732D01*
X52739204Y-22733000D01*
X53940796Y-22733000D01*
X53997998Y-22746732D01*
X54107710Y-22802634D01*
X54303592Y-22866280D01*
X54507019Y-22898500D01*
X54507022Y-22898500D01*
X54712978Y-22898500D01*
X54712981Y-22898500D01*
X54916408Y-22866280D01*
X55112290Y-22802634D01*
X55222001Y-22746732D01*
X55279204Y-22733000D01*
X56480796Y-22733000D01*
X56537998Y-22746732D01*
X56647710Y-22802634D01*
X56843592Y-22866280D01*
X57047019Y-22898500D01*
X57047022Y-22898500D01*
X57252978Y-22898500D01*
X57252981Y-22898500D01*
X57456408Y-22866280D01*
X57652290Y-22802634D01*
X57762001Y-22746732D01*
X57819204Y-22733000D01*
X59020796Y-22733000D01*
X59077998Y-22746732D01*
X59187710Y-22802634D01*
X59383592Y-22866280D01*
X59587019Y-22898500D01*
X59587022Y-22898500D01*
X59792978Y-22898500D01*
X59792981Y-22898500D01*
X59996408Y-22866280D01*
X60192290Y-22802634D01*
X60302001Y-22746732D01*
X60359204Y-22733000D01*
X61560796Y-22733000D01*
X61617998Y-22746732D01*
X61727710Y-22802634D01*
X61923592Y-22866280D01*
X62127019Y-22898500D01*
X62127022Y-22898500D01*
X62332978Y-22898500D01*
X62332981Y-22898500D01*
X62536408Y-22866280D01*
X62732290Y-22802634D01*
X62842001Y-22746732D01*
X62899204Y-22733000D01*
X64100796Y-22733000D01*
X64157998Y-22746732D01*
X64267710Y-22802634D01*
X64463592Y-22866280D01*
X64667019Y-22898500D01*
X64667022Y-22898500D01*
X64872978Y-22898500D01*
X64872981Y-22898500D01*
X65076408Y-22866280D01*
X65272290Y-22802634D01*
X65382001Y-22746732D01*
X65439204Y-22733000D01*
X66640796Y-22733000D01*
X66697998Y-22746732D01*
X66807710Y-22802634D01*
X67003592Y-22866280D01*
X67207019Y-22898500D01*
X67207022Y-22898500D01*
X67412978Y-22898500D01*
X67412981Y-22898500D01*
X67616408Y-22866280D01*
X67812290Y-22802634D01*
X67922001Y-22746732D01*
X67979204Y-22733000D01*
X69180796Y-22733000D01*
X69237998Y-22746732D01*
X69347710Y-22802634D01*
X69543592Y-22866280D01*
X69747019Y-22898500D01*
X69747022Y-22898500D01*
X69952978Y-22898500D01*
X69952981Y-22898500D01*
X70156408Y-22866280D01*
X70352290Y-22802634D01*
X70462001Y-22746732D01*
X70519204Y-22733000D01*
X71720796Y-22733000D01*
X71777998Y-22746732D01*
X71887710Y-22802634D01*
X72083592Y-22866280D01*
X72287019Y-22898500D01*
X72287022Y-22898500D01*
X72492978Y-22898500D01*
X72492981Y-22898500D01*
X72696408Y-22866280D01*
X72892290Y-22802634D01*
X73002001Y-22746732D01*
X73059204Y-22733000D01*
X74260796Y-22733000D01*
X74317998Y-22746732D01*
X74427710Y-22802634D01*
X74623592Y-22866280D01*
X74827019Y-22898500D01*
X74827022Y-22898500D01*
X75032978Y-22898500D01*
X75032981Y-22898500D01*
X75236408Y-22866280D01*
X75432290Y-22802634D01*
X75542001Y-22746732D01*
X75599204Y-22733000D01*
X76074000Y-22733000D01*
X76142121Y-22753002D01*
X76188614Y-22806658D01*
X76200000Y-22859000D01*
X76200000Y-35561000D01*
X76179998Y-35629121D01*
X76126342Y-35675614D01*
X76074000Y-35687000D01*
X73059204Y-35687000D01*
X73002001Y-35673267D01*
X72892290Y-35617366D01*
X72892287Y-35617365D01*
X72892285Y-35617364D01*
X72696412Y-35553721D01*
X72696410Y-35553720D01*
X72696408Y-35553720D01*
X72492981Y-35521500D01*
X72287019Y-35521500D01*
X72083592Y-35553720D01*
X72083590Y-35553720D01*
X72083587Y-35553721D01*
X71887714Y-35617364D01*
X71887710Y-35617366D01*
X71790303Y-35666998D01*
X71777999Y-35673267D01*
X71720796Y-35687000D01*
X70519204Y-35687000D01*
X70462001Y-35673267D01*
X70352290Y-35617366D01*
X70352287Y-35617365D01*
X70352285Y-35617364D01*
X70156412Y-35553721D01*
X70156410Y-35553720D01*
X70156408Y-35553720D01*
X69952981Y-35521500D01*
X69747019Y-35521500D01*
X69543592Y-35553720D01*
X69543590Y-35553720D01*
X69543587Y-35553721D01*
X69347714Y-35617364D01*
X69347710Y-35617366D01*
X69250303Y-35666998D01*
X69237999Y-35673267D01*
X69180796Y-35687000D01*
X67979204Y-35687000D01*
X67922001Y-35673267D01*
X67812290Y-35617366D01*
X67812287Y-35617365D01*
X67812285Y-35617364D01*
X67616412Y-35553721D01*
X67616410Y-35553720D01*
X67616408Y-35553720D01*
X67412981Y-35521500D01*
X67207019Y-35521500D01*
X67003592Y-35553720D01*
X67003590Y-35553720D01*
X67003587Y-35553721D01*
X66807714Y-35617364D01*
X66807710Y-35617366D01*
X66710303Y-35666998D01*
X66697999Y-35673267D01*
X66640796Y-35687000D01*
X65439204Y-35687000D01*
X65382001Y-35673267D01*
X65272290Y-35617366D01*
X65272287Y-35617365D01*
X65272285Y-35617364D01*
X65076412Y-35553721D01*
X65076410Y-35553720D01*
X65076408Y-35553720D01*
X64872981Y-35521500D01*
X64667019Y-35521500D01*
X64463592Y-35553720D01*
X64463590Y-35553720D01*
X64463587Y-35553721D01*
X64267714Y-35617364D01*
X64267710Y-35617366D01*
X64170303Y-35666998D01*
X64157999Y-35673267D01*
X64100796Y-35687000D01*
X62899204Y-35687000D01*
X62842001Y-35673267D01*
X62732290Y-35617366D01*
X62732287Y-35617365D01*
X62732285Y-35617364D01*
X62536412Y-35553721D01*
X62536410Y-35553720D01*
X62536408Y-35553720D01*
X62332981Y-35521500D01*
X62127019Y-35521500D01*
X61923592Y-35553720D01*
X61923590Y-35553720D01*
X61923587Y-35553721D01*
X61727714Y-35617364D01*
X61727710Y-35617366D01*
X61630303Y-35666998D01*
X61617999Y-35673267D01*
X61560796Y-35687000D01*
X60359204Y-35687000D01*
X60302001Y-35673267D01*
X60192290Y-35617366D01*
X60192287Y-35617365D01*
X60192285Y-35617364D01*
X59996412Y-35553721D01*
X59996410Y-35553720D01*
X59996408Y-35553720D01*
X59792981Y-35521500D01*
X59587019Y-35521500D01*
X59383592Y-35553720D01*
X59383590Y-35553720D01*
X59383587Y-35553721D01*
X59187714Y-35617364D01*
X59187710Y-35617366D01*
X59090303Y-35666998D01*
X59077999Y-35673267D01*
X59020796Y-35687000D01*
X57819204Y-35687000D01*
X57762001Y-35673267D01*
X57652290Y-35617366D01*
X57652287Y-35617365D01*
X57652285Y-35617364D01*
X57456412Y-35553721D01*
X57456410Y-35553720D01*
X57456408Y-35553720D01*
X57252981Y-35521500D01*
X57047019Y-35521500D01*
X56843592Y-35553720D01*
X56843590Y-35553720D01*
X56843587Y-35553721D01*
X56647714Y-35617364D01*
X56647710Y-35617366D01*
X56550303Y-35666998D01*
X56537999Y-35673267D01*
X56480796Y-35687000D01*
X55279204Y-35687000D01*
X55222001Y-35673267D01*
X55112290Y-35617366D01*
X55112287Y-35617365D01*
X55112285Y-35617364D01*
X54916412Y-35553721D01*
X54916410Y-35553720D01*
X54916408Y-35553720D01*
X54712981Y-35521500D01*
X54507019Y-35521500D01*
X54303592Y-35553720D01*
X54303590Y-35553720D01*
X54303587Y-35553721D01*
X54107714Y-35617364D01*
X54107710Y-35617366D01*
X54010303Y-35666998D01*
X53997999Y-35673267D01*
X53940796Y-35687000D01*
X52739204Y-35687000D01*
X52682001Y-35673267D01*
X52572290Y-35617366D01*
X52572287Y-35617365D01*
X52572285Y-35617364D01*
X52376412Y-35553721D01*
X52376410Y-35553720D01*
X52376408Y-35553720D01*
X52172981Y-35521500D01*
X51967019Y-35521500D01*
X51763592Y-35553720D01*
X51763590Y-35553720D01*
X51763587Y-35553721D01*
X51567714Y-35617364D01*
X51567710Y-35617366D01*
X51470303Y-35666998D01*
X51457999Y-35673267D01*
X51400796Y-35687000D01*
X50199204Y-35687000D01*
X50142001Y-35673267D01*
X50032290Y-35617366D01*
X50032287Y-35617365D01*
X50032285Y-35617364D01*
X49836412Y-35553721D01*
X49836410Y-35553720D01*
X49836408Y-35553720D01*
X49632981Y-35521500D01*
X49427019Y-35521500D01*
X49223592Y-35553720D01*
X49223590Y-35553720D01*
X49223587Y-35553721D01*
X49027714Y-35617364D01*
X49027710Y-35617366D01*
X48930303Y-35666998D01*
X48917999Y-35673267D01*
X48860796Y-35687000D01*
X47659204Y-35687000D01*
X47602001Y-35673267D01*
X47492290Y-35617366D01*
X47492287Y-35617365D01*
X47492285Y-35617364D01*
X47296412Y-35553721D01*
X47296410Y-35553720D01*
X47296408Y-35553720D01*
X47092981Y-35521500D01*
X46887019Y-35521500D01*
X46683592Y-35553720D01*
X46683590Y-35553720D01*
X46683587Y-35553721D01*
X46487714Y-35617364D01*
X46487710Y-35617366D01*
X46390303Y-35666998D01*
X46377999Y-35673267D01*
X46320796Y-35687000D01*
X45119204Y-35687000D01*
X45062001Y-35673267D01*
X44952290Y-35617366D01*
X44952287Y-35617365D01*
X44952285Y-35617364D01*
X44756412Y-35553721D01*
X44756410Y-35553720D01*
X44756408Y-35553720D01*
X44552981Y-35521500D01*
X44347019Y-35521500D01*
X44143592Y-35553720D01*
X44143590Y-35553720D01*
X44143587Y-35553721D01*
X43947714Y-35617364D01*
X43947710Y-35617366D01*
X43850303Y-35666998D01*
X43837999Y-35673267D01*
X43780796Y-35687000D01*
X43142262Y-35687000D01*
X43074141Y-35666998D01*
X43066762Y-35661874D01*
X43023009Y-35629121D01*
X42956208Y-35579113D01*
X42956202Y-35579110D01*
X42819204Y-35528011D01*
X42819196Y-35528009D01*
X42758649Y-35521500D01*
X42758638Y-35521500D01*
X41061362Y-35521500D01*
X41061350Y-35521500D01*
X41000803Y-35528009D01*
X41000795Y-35528011D01*
X40863797Y-35579110D01*
X40863792Y-35579113D01*
X40841509Y-35595794D01*
X40774988Y-35620605D01*
X40705614Y-35605513D01*
X40655412Y-35555311D01*
X40640000Y-35494926D01*
X40640000Y-22859000D01*
X40660002Y-22790879D01*
X40713658Y-22744386D01*
X40766000Y-22733000D01*
X41240796Y-22733000D01*
X41297998Y-22746732D01*
G37*
%TD.AperFunction*%
%TD*%
M02*
