%TF.GenerationSoftware,KiCad,Pcbnew,9.0.6*%
%TF.CreationDate,2026-01-11T12:01:36+09:00*%
%TF.ProjectId,EEPtoMASK_ROM1Mbit,45455074-6f4d-4415-934b-5f524f4d314d,rev?*%
%TF.SameCoordinates,Original*%
%TF.FileFunction,Plated,1,2,PTH,Drill*%
%TF.FilePolarity,Positive*%
%FSLAX46Y46*%
G04 Gerber Fmt 4.6, Leading zero omitted, Abs format (unit mm)*
G04 Created by KiCad (PCBNEW 9.0.6) date 2026-01-11 12:01:36*
%MOMM*%
%LPD*%
G01*
G04 APERTURE LIST*
%TA.AperFunction,ViaDrill*%
%ADD10C,0.400000*%
%TD*%
%TA.AperFunction,ComponentDrill*%
%ADD11C,0.800000*%
%TD*%
G04 APERTURE END LIST*
D10*
X41910000Y-24130000D03*
X41910000Y-29210000D03*
X41910000Y-34290000D03*
X45720000Y-22860000D03*
X45720000Y-29210000D03*
X45720000Y-35560000D03*
X49530000Y-24130000D03*
X49530000Y-34290000D03*
X52070000Y-26670000D03*
X52070000Y-31750000D03*
X54610000Y-24130000D03*
X54610000Y-29210000D03*
X54610000Y-34290000D03*
X58420000Y-26670000D03*
X58420000Y-29210000D03*
X58420000Y-31750000D03*
X59690000Y-34290000D03*
X62230000Y-24130000D03*
X62230000Y-29210000D03*
X66880000Y-29200000D03*
X73660000Y-24130000D03*
X74930000Y-29210000D03*
D11*
%TO.C,J1*%
X41910000Y-21590000D03*
X41910000Y-36830000D03*
X44450000Y-21590000D03*
X44450000Y-36830000D03*
X46990000Y-21590000D03*
X46990000Y-36830000D03*
X49530000Y-21590000D03*
X49530000Y-36830000D03*
X52070000Y-21590000D03*
X52070000Y-36830000D03*
X54610000Y-21590000D03*
X54610000Y-36830000D03*
X57150000Y-21590000D03*
X57150000Y-36830000D03*
X59690000Y-21590000D03*
X59690000Y-36830000D03*
X62230000Y-21590000D03*
X62230000Y-36830000D03*
X64770000Y-21590000D03*
X64770000Y-36830000D03*
X67310000Y-21590000D03*
X67310000Y-36830000D03*
X69850000Y-21590000D03*
X69850000Y-36830000D03*
X72390000Y-21590000D03*
X72390000Y-36830000D03*
X74930000Y-21590000D03*
X74930000Y-36830000D03*
M02*
