%TF.GenerationSoftware,KiCad,Pcbnew,9.0.6*%
%TF.CreationDate,2026-01-11T11:52:46+09:00*%
%TF.ProjectId,MH01852029121Z2_MJ-HF_control,4d483031-3835-4323-9032-393132315a32,rev?*%
%TF.SameCoordinates,Original*%
%TF.FileFunction,Plated,1,2,PTH,Drill*%
%TF.FilePolarity,Positive*%
%FSLAX46Y46*%
G04 Gerber Fmt 4.6, Leading zero omitted, Abs format (unit mm)*
G04 Created by KiCad (PCBNEW 9.0.6) date 2026-01-11 11:52:46*
%MOMM*%
%LPD*%
G01*
G04 APERTURE LIST*
%TA.AperFunction,ViaDrill*%
%ADD10C,0.300000*%
%TD*%
%TA.AperFunction,ComponentDrill*%
%ADD11C,1.000000*%
%TD*%
%TA.AperFunction,ComponentDrill*%
%ADD12C,1.300000*%
%TD*%
G04 APERTURE END LIST*
D10*
X52500000Y-49250000D03*
X52750000Y-71750000D03*
X57250000Y-69469000D03*
X57500000Y-48500000D03*
X63750000Y-66750000D03*
X66250000Y-49250000D03*
X68750000Y-48500000D03*
X71250000Y-47750000D03*
X75250000Y-70231000D03*
X78250000Y-47750000D03*
X80000000Y-49250000D03*
X85000000Y-47000000D03*
X93750000Y-49250000D03*
X93750000Y-72450000D03*
X98750000Y-45500000D03*
X100250000Y-70993000D03*
X104750000Y-69469000D03*
X107500000Y-49250000D03*
X109000000Y-77500000D03*
X112500000Y-46250000D03*
X112500000Y-48500000D03*
X113500000Y-69469000D03*
X117750000Y-71755000D03*
X120777000Y-70993000D03*
X121250000Y-49250000D03*
X122250000Y-69469000D03*
X126250000Y-48500000D03*
X126500000Y-70231000D03*
X126500000Y-76300000D03*
X131000000Y-69469000D03*
X135000000Y-49250000D03*
X135953500Y-69151500D03*
X136000000Y-54750000D03*
X140000000Y-47000000D03*
X142000000Y-48500000D03*
X142750000Y-46250000D03*
X142750000Y-58500000D03*
X143500000Y-45500000D03*
X143500000Y-59750000D03*
D11*
%TO.C,SW15*%
X52750000Y-66750000D03*
X52750000Y-73250000D03*
X57250000Y-66750000D03*
X57250000Y-73250000D03*
%TO.C,SW17*%
X75250000Y-66750000D03*
X75250000Y-73250000D03*
X79750000Y-66750000D03*
X79750000Y-73250000D03*
%TO.C,SW18*%
X100250000Y-66750000D03*
X100250000Y-73250000D03*
X104750000Y-66750000D03*
X104750000Y-73250000D03*
%TO.C,SW19*%
X109000000Y-66750000D03*
X109000000Y-73250000D03*
X113500000Y-66750000D03*
X113500000Y-73250000D03*
%TO.C,SW20*%
X117750000Y-66750000D03*
X117750000Y-73250000D03*
X122250000Y-66750000D03*
X122250000Y-73250000D03*
%TO.C,SW21*%
X126500000Y-66750000D03*
X126500000Y-73250000D03*
X131000000Y-66750000D03*
X131000000Y-73250000D03*
%TO.C,J2*%
X137500000Y-56070000D03*
X137500000Y-58610000D03*
X137500000Y-61150000D03*
X137500000Y-63690000D03*
X137500000Y-66230000D03*
X137500000Y-68770000D03*
X137500000Y-71310000D03*
X137500000Y-73850000D03*
X137500000Y-76390000D03*
X137500000Y-78930000D03*
X140040000Y-56070000D03*
X140040000Y-58610000D03*
X140040000Y-61150000D03*
X140040000Y-63690000D03*
X140040000Y-66230000D03*
X140040000Y-68770000D03*
X140040000Y-71310000D03*
X140040000Y-73850000D03*
X140040000Y-76390000D03*
X140040000Y-78930000D03*
D12*
%TO.C,SW1*%
X52500000Y-38750000D03*
X52500000Y-51250000D03*
X57500000Y-38750000D03*
X57500000Y-51250000D03*
%TO.C,SW16*%
X63750000Y-63750000D03*
X63750000Y-76250000D03*
%TO.C,SW2*%
X66250000Y-38750000D03*
X66250000Y-51250000D03*
%TO.C,SW16*%
X68750000Y-63750000D03*
X68750000Y-76250000D03*
%TO.C,SW2*%
X71250000Y-38750000D03*
X71250000Y-51250000D03*
%TO.C,SW3*%
X80000000Y-38750000D03*
X80000000Y-51250000D03*
X85000000Y-38750000D03*
X85000000Y-51250000D03*
%TO.C,SW28*%
X86750000Y-63750000D03*
X86750000Y-76250000D03*
X91750000Y-63750000D03*
X91750000Y-76250000D03*
%TO.C,SW4*%
X93750000Y-38750000D03*
X93750000Y-51250000D03*
X98750000Y-38750000D03*
X98750000Y-51250000D03*
%TO.C,SW5*%
X107500000Y-38750000D03*
X107500000Y-51250000D03*
X112500000Y-38750000D03*
X112500000Y-51250000D03*
%TO.C,SW6*%
X121250000Y-38750000D03*
X121250000Y-51250000D03*
X126250000Y-38750000D03*
X126250000Y-51250000D03*
%TO.C,SW7*%
X135000000Y-38750000D03*
X135000000Y-51250000D03*
X140000000Y-38750000D03*
X140000000Y-51250000D03*
M02*
