%TF.GenerationSoftware,KiCad,Pcbnew,9.0.6*%
%TF.CreationDate,2026-01-11T11:52:41+09:00*%
%TF.ProjectId,MH01852029121Z2_MJ-HF_control,4d483031-3835-4323-9032-393132315a32,rev?*%
%TF.SameCoordinates,Original*%
%TF.FileFunction,Soldermask,Bot*%
%TF.FilePolarity,Negative*%
%FSLAX46Y46*%
G04 Gerber Fmt 4.6, Leading zero omitted, Abs format (unit mm)*
G04 Created by KiCad (PCBNEW 9.0.6) date 2026-01-11 11:52:41*
%MOMM*%
%LPD*%
G01*
G04 APERTURE LIST*
%ADD10C,2.600000*%
%ADD11C,1.800000*%
%ADD12C,3.200000*%
%ADD13R,1.700000X1.700000*%
%ADD14C,1.700000*%
G04 APERTURE END LIST*
D10*
%TO.C,SW5*%
X107500000Y-38750000D03*
X107500000Y-51250000D03*
X112500000Y-38750000D03*
X112500000Y-51250000D03*
%TD*%
%TO.C,SW7*%
X135000000Y-38750000D03*
X135000000Y-51250000D03*
X140000000Y-38750000D03*
X140000000Y-51250000D03*
%TD*%
D11*
%TO.C,SW19*%
X109000000Y-66750000D03*
X109000000Y-73250000D03*
X113500000Y-66750000D03*
X113500000Y-73250000D03*
%TD*%
D10*
%TO.C,SW16*%
X63750000Y-63750000D03*
X63750000Y-76250000D03*
X68750000Y-63750000D03*
X68750000Y-76250000D03*
%TD*%
%TO.C,SW1*%
X52500000Y-38750000D03*
X52500000Y-51250000D03*
X57500000Y-38750000D03*
X57500000Y-51250000D03*
%TD*%
D11*
%TO.C,SW17*%
X75250000Y-66750000D03*
X75250000Y-73250000D03*
X79750000Y-66750000D03*
X79750000Y-73250000D03*
%TD*%
D12*
%TO.C,REF\u002A\u002A*%
X51250000Y-29000000D03*
%TD*%
D10*
%TO.C,SW2*%
X66250000Y-38750000D03*
X66250000Y-51250000D03*
X71250000Y-38750000D03*
X71250000Y-51250000D03*
%TD*%
%TO.C,SW4*%
X93750000Y-38750000D03*
X93750000Y-51250000D03*
X98750000Y-38750000D03*
X98750000Y-51250000D03*
%TD*%
%TO.C,SW28*%
X86750000Y-63750000D03*
X86750000Y-76250000D03*
X91750000Y-63750000D03*
X91750000Y-76250000D03*
%TD*%
D12*
%TO.C,REF\u002A\u002A*%
X51250000Y-86000000D03*
%TD*%
D11*
%TO.C,SW20*%
X117750000Y-66750000D03*
X117750000Y-73250000D03*
X122250000Y-66750000D03*
X122250000Y-73250000D03*
%TD*%
D12*
%TO.C,REF\u002A\u002A*%
X140250000Y-86000000D03*
%TD*%
D10*
%TO.C,SW6*%
X121250000Y-38750000D03*
X121250000Y-51250000D03*
X126250000Y-38750000D03*
X126250000Y-51250000D03*
%TD*%
%TO.C,SW3*%
X80000000Y-38750000D03*
X80000000Y-51250000D03*
X85000000Y-38750000D03*
X85000000Y-51250000D03*
%TD*%
D12*
%TO.C,REF\u002A\u002A*%
X140250000Y-29000000D03*
%TD*%
D11*
%TO.C,SW15*%
X52750000Y-66750000D03*
X52750000Y-73250000D03*
X57250000Y-66750000D03*
X57250000Y-73250000D03*
%TD*%
%TO.C,SW21*%
X126500000Y-66750000D03*
X126500000Y-73250000D03*
X131000000Y-66750000D03*
X131000000Y-73250000D03*
%TD*%
%TO.C,SW18*%
X100250000Y-66750000D03*
X100250000Y-73250000D03*
X104750000Y-66750000D03*
X104750000Y-73250000D03*
%TD*%
D13*
%TO.C,J2*%
X137500000Y-78930000D03*
D14*
X140040000Y-78930000D03*
X137500000Y-76390000D03*
X140040000Y-76390000D03*
X137500000Y-73850000D03*
X140040000Y-73850000D03*
X137500000Y-71310000D03*
X140040000Y-71310000D03*
X137500000Y-68770000D03*
X140040000Y-68770000D03*
X137500000Y-66230000D03*
X140040000Y-66230000D03*
X137500000Y-63690000D03*
X140040000Y-63690000D03*
X137500000Y-61150000D03*
X140040000Y-61150000D03*
X137500000Y-58610000D03*
X140040000Y-58610000D03*
X137500000Y-56070000D03*
X140040000Y-56070000D03*
%TD*%
M02*
