%TF.GenerationSoftware,KiCad,Pcbnew,9.0.6*%
%TF.CreationDate,2026-01-11T11:52:41+09:00*%
%TF.ProjectId,MH01852029121Z2_MJ-HF_control,4d483031-3835-4323-9032-393132315a32,rev?*%
%TF.SameCoordinates,Original*%
%TF.FileFunction,Legend,Top*%
%TF.FilePolarity,Positive*%
%FSLAX46Y46*%
G04 Gerber Fmt 4.6, Leading zero omitted, Abs format (unit mm)*
G04 Created by KiCad (PCBNEW 9.0.6) date 2026-01-11 11:52:41*
%MOMM*%
%LPD*%
G01*
G04 APERTURE LIST*
%ADD10C,0.150000*%
%ADD11C,0.120000*%
G04 APERTURE END LIST*
D10*
G36*
X52925418Y-35460301D02*
G01*
X52937875Y-35496022D01*
X52950514Y-35523316D01*
X52960956Y-35552625D01*
X52971580Y-35577904D01*
X52984036Y-35603183D01*
X52996676Y-35628279D01*
X53007117Y-35651360D01*
X53017742Y-35670228D01*
X53091015Y-35779588D01*
X53172897Y-35850846D01*
X53223136Y-35875451D01*
X53288485Y-35892978D01*
X53458295Y-35905617D01*
X53458295Y-36250000D01*
X51905460Y-36250000D01*
X51905460Y-35897374D01*
X52052372Y-35897374D01*
X52065012Y-35901587D01*
X52077468Y-35901587D01*
X52087909Y-35901587D01*
X52098534Y-35901587D01*
X52178218Y-35895359D01*
X52237020Y-35880704D01*
X52280983Y-35847182D01*
X52295821Y-35796807D01*
X52291608Y-35752660D01*
X52278968Y-35700270D01*
X52260101Y-35647697D01*
X52241233Y-35591093D01*
X52232807Y-35574241D01*
X52224380Y-35557571D01*
X52215954Y-35540718D01*
X52207711Y-35519652D01*
X52190858Y-35479902D01*
X52174005Y-35444181D01*
X52159351Y-35408461D01*
X52144696Y-35376953D01*
X52144696Y-35368527D01*
X51099642Y-35368527D01*
X51091215Y-35389593D01*
X51087002Y-35406446D01*
X51078576Y-35427329D01*
X51070333Y-35444181D01*
X51059708Y-35477887D01*
X51045054Y-35511226D01*
X51034429Y-35536505D01*
X51024171Y-35561601D01*
X51017759Y-35572226D01*
X51015744Y-35582667D01*
X51009333Y-35595307D01*
X51007318Y-35607763D01*
X50988267Y-35658321D01*
X50973796Y-35708513D01*
X50965369Y-35759071D01*
X50961156Y-35805050D01*
X50971598Y-35857623D01*
X51007318Y-35889131D01*
X51076378Y-35901587D01*
X51196179Y-35905800D01*
X51317812Y-35897374D01*
X51317812Y-36250000D01*
X50071441Y-36250000D01*
X50071441Y-35897191D01*
X50081699Y-35901404D01*
X50092323Y-35901404D01*
X50102765Y-35901404D01*
X50113389Y-35901404D01*
X50237037Y-35892978D01*
X50335772Y-35867698D01*
X50379436Y-35840468D01*
X50423883Y-35796257D01*
X50503567Y-35666015D01*
X50520420Y-35626264D01*
X50537273Y-35590544D01*
X50545516Y-35573691D01*
X50553942Y-35552625D01*
X50562369Y-35535956D01*
X50570795Y-35519103D01*
X50570795Y-35512875D01*
X50575008Y-35506463D01*
X50577023Y-35504448D01*
X50579221Y-35498037D01*
X50581236Y-35489610D01*
X50587648Y-35481184D01*
X50600104Y-35458286D01*
X50612744Y-35435022D01*
X50623185Y-35414139D01*
X50633810Y-35388860D01*
X50656707Y-35342698D01*
X50675758Y-35292140D01*
X50790945Y-35004544D01*
X51233914Y-35004544D01*
X51985144Y-35004544D01*
X51590753Y-34081123D01*
X51233914Y-35004544D01*
X50790945Y-35004544D01*
X51414349Y-33448046D01*
X52052372Y-33448046D01*
X52925418Y-35460301D01*
G37*
G36*
X55105652Y-33448046D02*
G01*
X54144495Y-37086775D01*
X53615648Y-37086775D01*
X54576805Y-33448046D01*
X55105652Y-33448046D01*
G37*
G36*
X93548464Y-33477494D02*
G01*
X93793483Y-33544766D01*
X93943657Y-33613849D01*
X94077364Y-33701794D01*
X94196301Y-33809281D01*
X94300531Y-33933765D01*
X94385776Y-34074519D01*
X94452390Y-34233531D01*
X94497862Y-34400782D01*
X94526352Y-34587564D01*
X94536287Y-34796449D01*
X94525168Y-35016223D01*
X94493150Y-35214235D01*
X94441765Y-35393073D01*
X94368187Y-35563315D01*
X94275344Y-35716752D01*
X94162779Y-35855059D01*
X94029144Y-35978608D01*
X93883364Y-36077600D01*
X93724057Y-36153463D01*
X93555038Y-36206089D01*
X93369125Y-36238711D01*
X93163886Y-36250000D01*
X91405338Y-36250000D01*
X91405338Y-35905617D01*
X91623508Y-35905617D01*
X91640361Y-35909647D01*
X91653000Y-35909647D01*
X91740928Y-35899206D01*
X91765542Y-35886017D01*
X92542716Y-35886017D01*
X92899371Y-35886017D01*
X92914026Y-35890047D01*
X92928864Y-35890047D01*
X92941320Y-35890047D01*
X92953960Y-35890047D01*
X93149049Y-35877590D01*
X93298159Y-35843885D01*
X93430416Y-35774825D01*
X93541608Y-35667663D01*
X93599607Y-35588375D01*
X93648586Y-35499869D01*
X93722042Y-35302581D01*
X93766189Y-35067559D01*
X93780844Y-34782161D01*
X93768661Y-34566296D01*
X93734682Y-34385572D01*
X93674997Y-34220380D01*
X93591983Y-34081123D01*
X93523169Y-34000158D01*
X93437931Y-33933928D01*
X93333879Y-33881821D01*
X93157964Y-33834237D01*
X92933077Y-33816791D01*
X92542716Y-33808365D01*
X92542716Y-35886017D01*
X91765542Y-35886017D01*
X91799729Y-35867698D01*
X91837465Y-35808897D01*
X91850104Y-35716573D01*
X91850104Y-33994112D01*
X91837465Y-33910214D01*
X91799729Y-33851413D01*
X91730486Y-33817707D01*
X91623508Y-33805068D01*
X91405338Y-33796641D01*
X91405338Y-33448046D01*
X93260423Y-33448046D01*
X93548464Y-33477494D01*
G37*
G36*
X96279448Y-33448046D02*
G01*
X95318292Y-37086775D01*
X94789445Y-37086775D01*
X95750601Y-33448046D01*
X96279448Y-33448046D01*
G37*
G36*
X80412779Y-33424598D02*
G01*
X80412779Y-34576264D01*
X80005565Y-34576264D01*
X79981309Y-34401946D01*
X79936322Y-34253131D01*
X79868177Y-34119026D01*
X79778968Y-34005286D01*
X79670016Y-33913063D01*
X79545961Y-33847566D01*
X79408039Y-33808690D01*
X79245908Y-33794993D01*
X79063929Y-33813441D01*
X78905922Y-33866617D01*
X78766618Y-33954979D01*
X78645804Y-34081123D01*
X78548105Y-34234440D01*
X78477826Y-34416896D01*
X78437708Y-34617178D01*
X78423421Y-34853602D01*
X78437288Y-35105738D01*
X78475811Y-35315221D01*
X78543128Y-35504847D01*
X78633164Y-35655390D01*
X78753771Y-35777317D01*
X78893466Y-35863119D01*
X79052382Y-35914306D01*
X79241695Y-35932362D01*
X79396680Y-35919942D01*
X79533504Y-35884185D01*
X79658436Y-35823014D01*
X79770542Y-35735075D01*
X79862171Y-35625126D01*
X79940535Y-35489610D01*
X79999723Y-35337498D01*
X80043483Y-35155853D01*
X80471580Y-35147426D01*
X80439686Y-35341039D01*
X80392380Y-35511538D01*
X80330896Y-35661618D01*
X80251174Y-35802389D01*
X80156935Y-35927174D01*
X80047697Y-36037325D01*
X79924477Y-36131566D01*
X79788499Y-36208390D01*
X79638285Y-36268135D01*
X79397286Y-36324142D01*
X79120062Y-36343789D01*
X78912159Y-36332120D01*
X78721211Y-36298181D01*
X78545054Y-36243039D01*
X78378530Y-36164581D01*
X78223651Y-36062838D01*
X78079221Y-35936392D01*
X77952606Y-35791916D01*
X77850169Y-35636904D01*
X77770560Y-35470193D01*
X77714296Y-35293824D01*
X77679689Y-35102705D01*
X77667794Y-34894635D01*
X77679753Y-34672505D01*
X77714431Y-34469593D01*
X77770560Y-34283539D01*
X77850745Y-34107110D01*
X77953310Y-33945923D01*
X78079221Y-33798473D01*
X78223921Y-33669222D01*
X78380845Y-33563939D01*
X78551282Y-33481385D01*
X78731875Y-33422820D01*
X78929065Y-33386683D01*
X79145341Y-33374223D01*
X79304710Y-33382650D01*
X79447409Y-33403532D01*
X79579666Y-33437238D01*
X79711924Y-33491826D01*
X79778968Y-33529745D01*
X79846196Y-33571510D01*
X79913241Y-33617855D01*
X79984682Y-33668047D01*
X80077006Y-33424598D01*
X80412779Y-33424598D01*
G37*
G36*
X82242219Y-33448046D02*
G01*
X81281062Y-37086775D01*
X80752215Y-37086775D01*
X81713372Y-33448046D01*
X82242219Y-33448046D01*
G37*
G36*
X125378105Y-79349825D02*
G01*
X125628210Y-79327843D01*
X125646344Y-79428241D01*
X125674227Y-79511132D01*
X125710764Y-79579291D01*
X125759826Y-79638441D01*
X125825940Y-79691410D01*
X125912265Y-79738171D01*
X126005152Y-79771270D01*
X126107155Y-79791691D01*
X126219766Y-79798743D01*
X126365860Y-79786876D01*
X126487456Y-79753558D01*
X126561199Y-79717975D01*
X126617874Y-79676604D01*
X126660258Y-79629605D01*
X126702998Y-79546687D01*
X126717045Y-79457536D01*
X126703167Y-79368428D01*
X126662334Y-79292550D01*
X126594791Y-79230829D01*
X126482083Y-79173970D01*
X126376906Y-79140492D01*
X126125489Y-79076029D01*
X125871436Y-79005044D01*
X125738852Y-78950610D01*
X125648372Y-78894171D01*
X125578026Y-78831896D01*
X125525018Y-78763642D01*
X125486095Y-78686658D01*
X125462660Y-78603855D01*
X125454676Y-78513660D01*
X125464174Y-78414717D01*
X125492548Y-78320497D01*
X125540649Y-78229361D01*
X125605526Y-78149586D01*
X125688416Y-78082813D01*
X125792097Y-78028593D01*
X125904223Y-77991103D01*
X126026238Y-77968026D01*
X126159683Y-77960083D01*
X126306753Y-77968595D01*
X126436904Y-77992956D01*
X126552425Y-78031891D01*
X126659032Y-78088471D01*
X126745372Y-78158616D01*
X126814009Y-78242916D01*
X126865372Y-78339168D01*
X126898181Y-78443676D01*
X126912439Y-78558356D01*
X126658304Y-78577529D01*
X126632173Y-78456245D01*
X126585624Y-78362270D01*
X126519574Y-78289933D01*
X126435273Y-78238836D01*
X126321818Y-78205147D01*
X126170551Y-78192602D01*
X126011815Y-78204446D01*
X125898776Y-78235412D01*
X125820063Y-78280774D01*
X125757572Y-78345560D01*
X125722020Y-78415525D01*
X125710154Y-78493387D01*
X125719023Y-78561883D01*
X125744744Y-78620279D01*
X125788067Y-78671074D01*
X125846717Y-78708674D01*
X125968520Y-78755954D01*
X126187648Y-78813956D01*
X126484386Y-78889608D01*
X126630949Y-78941695D01*
X126741802Y-79003238D01*
X126826483Y-79071405D01*
X126889114Y-79146127D01*
X126935089Y-79231892D01*
X126962953Y-79326184D01*
X126972523Y-79431158D01*
X126962461Y-79535180D01*
X126932289Y-79635119D01*
X126880932Y-79732676D01*
X126812314Y-79818701D01*
X126725521Y-79891884D01*
X126618004Y-79952739D01*
X126501331Y-79995677D01*
X126373298Y-80022132D01*
X126231978Y-80031263D01*
X126051751Y-80021425D01*
X125901414Y-79994042D01*
X125776343Y-79951639D01*
X125661557Y-79888793D01*
X125566215Y-79809240D01*
X125488137Y-79711915D01*
X125429754Y-79601263D01*
X125393080Y-79481316D01*
X125378105Y-79349825D01*
G37*
G36*
X127302861Y-80000000D02*
G01*
X127302861Y-78546266D01*
X127522924Y-78546266D01*
X127522924Y-78749232D01*
X127602065Y-78654312D01*
X127704519Y-78579361D01*
X127782413Y-78544033D01*
X127867970Y-78522439D01*
X127962805Y-78515003D01*
X128068518Y-78523140D01*
X128155451Y-78545831D01*
X128227076Y-78581437D01*
X128289048Y-78631454D01*
X128337255Y-78692737D01*
X128372645Y-78766939D01*
X128448833Y-78672966D01*
X128530630Y-78603160D01*
X128618771Y-78554405D01*
X128714776Y-78525043D01*
X128820830Y-78515003D01*
X128928273Y-78523420D01*
X129017300Y-78546984D01*
X129091278Y-78584134D01*
X129152757Y-78634682D01*
X129200500Y-78697296D01*
X129236680Y-78776838D01*
X129260282Y-78877167D01*
X129268894Y-79003122D01*
X129268894Y-80000000D01*
X129024407Y-80000000D01*
X129024407Y-79083600D01*
X129017185Y-78946056D01*
X129000471Y-78870621D01*
X128967177Y-78812342D01*
X128913643Y-78765840D01*
X128846587Y-78736311D01*
X128766120Y-78726029D01*
X128668372Y-78737753D01*
X128584771Y-78771630D01*
X128511985Y-78828122D01*
X128459179Y-78902802D01*
X128424111Y-79008240D01*
X128410869Y-79154797D01*
X128410869Y-80000000D01*
X128165038Y-80000000D01*
X128165038Y-79054780D01*
X128157112Y-78946316D01*
X128136082Y-78866317D01*
X128104833Y-78808217D01*
X128058781Y-78764193D01*
X127995212Y-78736318D01*
X127908095Y-78726029D01*
X127808203Y-78739736D01*
X127716120Y-78780861D01*
X127663280Y-78822497D01*
X127620886Y-78875325D01*
X127588381Y-78941085D01*
X127560244Y-79058595D01*
X127548814Y-79245167D01*
X127548814Y-80000000D01*
X127302861Y-80000000D01*
G37*
G36*
X130423801Y-78527164D02*
G01*
X130549337Y-78558845D01*
X130654157Y-78610871D01*
X130720063Y-78668876D01*
X130765666Y-78741947D01*
X130796633Y-78836304D01*
X130805136Y-78911817D01*
X130808967Y-79063328D01*
X130808967Y-79391468D01*
X130814189Y-79704006D01*
X130824599Y-79825732D01*
X130847886Y-79914366D01*
X130886759Y-80000000D01*
X130629937Y-80000000D01*
X130599112Y-79918403D01*
X130580722Y-79819382D01*
X130441899Y-79921442D01*
X130317795Y-79983391D01*
X130187930Y-80019092D01*
X130046563Y-80031263D01*
X129926407Y-80022878D01*
X129827447Y-79999542D01*
X129745960Y-79963151D01*
X129678978Y-79914392D01*
X129622732Y-79851768D01*
X129583105Y-79782184D01*
X129558973Y-79704193D01*
X129550628Y-79615683D01*
X129551374Y-79609455D01*
X129812945Y-79609455D01*
X129821301Y-79671915D01*
X129845740Y-79726018D01*
X129887317Y-79773953D01*
X129940824Y-79808763D01*
X130011768Y-79831412D01*
X130105304Y-79839776D01*
X130198411Y-79832548D01*
X130282138Y-79811591D01*
X130358095Y-79777372D01*
X130426100Y-79730008D01*
X130479792Y-79673392D01*
X130520639Y-79606646D01*
X130548763Y-79512302D01*
X130560206Y-79359717D01*
X130560206Y-79269225D01*
X130408790Y-79316364D01*
X130158549Y-79362770D01*
X130018522Y-79388646D01*
X129944103Y-79412229D01*
X129887859Y-79446370D01*
X129847017Y-79492341D01*
X129821515Y-79547820D01*
X129812945Y-79609455D01*
X129551374Y-79609455D01*
X129562922Y-79512989D01*
X129599110Y-79420900D01*
X129655561Y-79340950D01*
X129726117Y-79279483D01*
X129808915Y-79232968D01*
X129903071Y-79198761D01*
X130121668Y-79161880D01*
X130399239Y-79119466D01*
X130560206Y-79077739D01*
X130561671Y-79013869D01*
X130552415Y-78916596D01*
X130528190Y-78849001D01*
X130491940Y-78803087D01*
X130424185Y-78759407D01*
X130333180Y-78730793D01*
X130211916Y-78720167D01*
X130097196Y-78728390D01*
X130014344Y-78749992D01*
X129955705Y-78781716D01*
X129908789Y-78828720D01*
X129867669Y-78899023D01*
X129833461Y-78999581D01*
X129593004Y-78966852D01*
X129621046Y-78865062D01*
X129657274Y-78781961D01*
X129700837Y-78714672D01*
X129756252Y-78657404D01*
X129827710Y-78608082D01*
X129918091Y-78566905D01*
X130067052Y-78528691D01*
X130247453Y-78515003D01*
X130423801Y-78527164D01*
G37*
G36*
X131183880Y-80000000D02*
G01*
X131183880Y-77991346D01*
X131429710Y-77991346D01*
X131429710Y-80000000D01*
X131183880Y-80000000D01*
G37*
G36*
X131805234Y-80000000D02*
G01*
X131805234Y-77991346D01*
X132051064Y-77991346D01*
X132051064Y-80000000D01*
X131805234Y-80000000D01*
G37*
G36*
X76509685Y-77999172D02*
G01*
X76630508Y-78020402D01*
X76725017Y-78052285D01*
X76811300Y-78100468D01*
X76883202Y-78162542D01*
X76942271Y-78239619D01*
X76986422Y-78326500D01*
X77012236Y-78414207D01*
X77020796Y-78504134D01*
X77013096Y-78587936D01*
X76990071Y-78668234D01*
X76951064Y-78746301D01*
X76898295Y-78815443D01*
X76829041Y-78876414D01*
X76740771Y-78929483D01*
X76855673Y-78975137D01*
X76947617Y-79035977D01*
X77020185Y-79112055D01*
X77074026Y-79202262D01*
X77106639Y-79302899D01*
X77117882Y-79416748D01*
X77102855Y-79553794D01*
X77058409Y-79679553D01*
X76989985Y-79789563D01*
X76911497Y-79866887D01*
X76815975Y-79923296D01*
X76692167Y-79966416D01*
X76552797Y-79990828D01*
X76369156Y-80000000D01*
X75605408Y-80000000D01*
X75605408Y-79767480D01*
X75870534Y-79767480D01*
X76369156Y-79767480D01*
X76549529Y-79757711D01*
X76635893Y-79734665D01*
X76702425Y-79702267D01*
X76757562Y-79655600D01*
X76803542Y-79589183D01*
X76832950Y-79510727D01*
X76843231Y-79417725D01*
X76836568Y-79343637D01*
X76817323Y-79278293D01*
X76785834Y-79220010D01*
X76742876Y-79169790D01*
X76690292Y-79130672D01*
X76626588Y-79102041D01*
X76513494Y-79077832D01*
X76333618Y-79067969D01*
X75870534Y-79067969D01*
X75870534Y-79767480D01*
X75605408Y-79767480D01*
X75605408Y-78835450D01*
X75870534Y-78835450D01*
X76303576Y-78835450D01*
X76467347Y-78828349D01*
X76556368Y-78812002D01*
X76646873Y-78770359D01*
X76708653Y-78711252D01*
X76746466Y-78634065D01*
X76759944Y-78534542D01*
X76747644Y-78438522D01*
X76712073Y-78357100D01*
X76675632Y-78311378D01*
X76630544Y-78276677D01*
X76575419Y-78252198D01*
X76470766Y-78232543D01*
X76270726Y-78223866D01*
X75870534Y-78223866D01*
X75870534Y-78835450D01*
X75605408Y-78835450D01*
X75605408Y-77991346D01*
X76356821Y-77991346D01*
X76509685Y-77999172D01*
G37*
G36*
X78188723Y-78528003D02*
G01*
X78313222Y-78565464D01*
X78423530Y-78626678D01*
X78522034Y-78713084D01*
X78599557Y-78816673D01*
X78656953Y-78941069D01*
X78693498Y-79090436D01*
X78706560Y-79270080D01*
X78705094Y-79335659D01*
X77623098Y-79335659D01*
X77638085Y-79454665D01*
X77666480Y-79552821D01*
X77706722Y-79633616D01*
X77758287Y-79699825D01*
X77846040Y-79769970D01*
X77945854Y-79811724D01*
X78061636Y-79826099D01*
X78149524Y-79817876D01*
X78225735Y-79794262D01*
X78292568Y-79755757D01*
X78349025Y-79702886D01*
X78399730Y-79629522D01*
X78444243Y-79531053D01*
X78698378Y-79562438D01*
X78645289Y-79703075D01*
X78571164Y-79816967D01*
X78475628Y-79908286D01*
X78391897Y-79960491D01*
X78296226Y-79998801D01*
X78186538Y-80022824D01*
X78060293Y-80031263D01*
X77903360Y-80017960D01*
X77769546Y-79980157D01*
X77654604Y-79919447D01*
X77555443Y-79835258D01*
X77476883Y-79732431D01*
X77418912Y-79609403D01*
X77382099Y-79462143D01*
X77368964Y-79285467D01*
X77380250Y-79130495D01*
X77636776Y-79130495D01*
X78446930Y-79130495D01*
X78427384Y-79012548D01*
X78395647Y-78924583D01*
X78353995Y-78860118D01*
X78290401Y-78798505D01*
X78219568Y-78755378D01*
X78139978Y-78729211D01*
X78049302Y-78720167D01*
X77940909Y-78732947D01*
X77847132Y-78770007D01*
X77764515Y-78831908D01*
X77700190Y-78912750D01*
X77657443Y-79010831D01*
X77636776Y-79130495D01*
X77380250Y-79130495D01*
X77382302Y-79102313D01*
X77419632Y-78949960D01*
X77478280Y-78823012D01*
X77557519Y-78717236D01*
X77658198Y-78629178D01*
X77771420Y-78566665D01*
X77899698Y-78528329D01*
X78046616Y-78515003D01*
X78188723Y-78528003D01*
G37*
G36*
X79543214Y-79775296D02*
G01*
X79578751Y-80000000D01*
X79392882Y-80015631D01*
X79267878Y-80003761D01*
X79185276Y-79973377D01*
X79121634Y-79923503D01*
X79081472Y-79862124D01*
X79061133Y-79774196D01*
X79051431Y-79571964D01*
X79051431Y-78737752D01*
X78871057Y-78737752D01*
X78871057Y-78546266D01*
X79051431Y-78546266D01*
X79051431Y-78186130D01*
X79295918Y-78038241D01*
X79295918Y-78546266D01*
X79543214Y-78546266D01*
X79543214Y-78737752D01*
X79295918Y-78737752D01*
X79295918Y-79589305D01*
X79300172Y-79685618D01*
X79308863Y-79725104D01*
X79325877Y-79752056D01*
X79351239Y-79773098D01*
X79384416Y-79785909D01*
X79435258Y-79790928D01*
X79543214Y-79775296D01*
G37*
G36*
X119087843Y-77999172D02*
G01*
X119208666Y-78020402D01*
X119303175Y-78052285D01*
X119389458Y-78100468D01*
X119461360Y-78162542D01*
X119520429Y-78239619D01*
X119564580Y-78326500D01*
X119590394Y-78414207D01*
X119598954Y-78504134D01*
X119591254Y-78587936D01*
X119568229Y-78668234D01*
X119529222Y-78746301D01*
X119476453Y-78815443D01*
X119407199Y-78876414D01*
X119318929Y-78929483D01*
X119433831Y-78975137D01*
X119525775Y-79035977D01*
X119598343Y-79112055D01*
X119652184Y-79202262D01*
X119684797Y-79302899D01*
X119696040Y-79416748D01*
X119681013Y-79553794D01*
X119636567Y-79679553D01*
X119568143Y-79789563D01*
X119489655Y-79866887D01*
X119394133Y-79923296D01*
X119270325Y-79966416D01*
X119130955Y-79990828D01*
X118947314Y-80000000D01*
X118183566Y-80000000D01*
X118183566Y-79767480D01*
X118448692Y-79767480D01*
X118947314Y-79767480D01*
X119127687Y-79757711D01*
X119214051Y-79734665D01*
X119280583Y-79702267D01*
X119335720Y-79655600D01*
X119381700Y-79589183D01*
X119411108Y-79510727D01*
X119421389Y-79417725D01*
X119414726Y-79343637D01*
X119395481Y-79278293D01*
X119363992Y-79220010D01*
X119321034Y-79169790D01*
X119268450Y-79130672D01*
X119204746Y-79102041D01*
X119091652Y-79077832D01*
X118911776Y-79067969D01*
X118448692Y-79067969D01*
X118448692Y-79767480D01*
X118183566Y-79767480D01*
X118183566Y-78835450D01*
X118448692Y-78835450D01*
X118881734Y-78835450D01*
X119045505Y-78828349D01*
X119134526Y-78812002D01*
X119225031Y-78770359D01*
X119286811Y-78711252D01*
X119324624Y-78634065D01*
X119338102Y-78534542D01*
X119325802Y-78438522D01*
X119290231Y-78357100D01*
X119253790Y-78311378D01*
X119208702Y-78276677D01*
X119153577Y-78252198D01*
X119048924Y-78232543D01*
X118848884Y-78223866D01*
X118448692Y-78223866D01*
X118448692Y-78835450D01*
X118183566Y-78835450D01*
X118183566Y-77991346D01*
X118934979Y-77991346D01*
X119087843Y-77999172D01*
G37*
G36*
X120030531Y-78272714D02*
G01*
X120030531Y-77991346D01*
X120276361Y-77991346D01*
X120276361Y-78272714D01*
X120030531Y-78272714D01*
G37*
G36*
X120030531Y-80000000D02*
G01*
X120030531Y-78546266D01*
X120276361Y-78546266D01*
X120276361Y-80000000D01*
X120030531Y-80000000D01*
G37*
G36*
X121308040Y-78528211D02*
G01*
X121417839Y-78566765D01*
X121517252Y-78631105D01*
X121608217Y-78724319D01*
X121608217Y-78546266D01*
X121834997Y-78546266D01*
X121834997Y-79800575D01*
X121825093Y-80028936D01*
X121800125Y-80182500D01*
X121765998Y-80280757D01*
X121711680Y-80367617D01*
X121639560Y-80441730D01*
X121547401Y-80504117D01*
X121444551Y-80548249D01*
X121323057Y-80576234D01*
X121179205Y-80586182D01*
X121048775Y-80577997D01*
X120937226Y-80554889D01*
X120841675Y-80518426D01*
X120759718Y-80469312D01*
X120691283Y-80404906D01*
X120643018Y-80326940D01*
X120613857Y-80232524D01*
X120605356Y-80117236D01*
X120844470Y-80152529D01*
X120861586Y-80222514D01*
X120889560Y-80274724D01*
X120927757Y-80312997D01*
X120992251Y-80349163D01*
X121074117Y-80372511D01*
X121177861Y-80381018D01*
X121290014Y-80372320D01*
X121376027Y-80348793D01*
X121441522Y-80312997D01*
X121496209Y-80262360D01*
X121537955Y-80199672D01*
X121567185Y-80122732D01*
X121579903Y-80027626D01*
X121585014Y-79808635D01*
X121497606Y-79893778D01*
X121402849Y-79952661D01*
X121298980Y-79987939D01*
X121183235Y-80000000D01*
X121037707Y-79985590D01*
X120914811Y-79944569D01*
X120809909Y-79878011D01*
X120720028Y-79783967D01*
X120649185Y-79672213D01*
X120598244Y-79549927D01*
X120566945Y-79415207D01*
X120556141Y-79265683D01*
X120557253Y-79247976D01*
X120808933Y-79247976D01*
X120817626Y-79394037D01*
X120841166Y-79508163D01*
X120876596Y-79596442D01*
X120922261Y-79663921D01*
X121005097Y-79737193D01*
X121098584Y-79780158D01*
X121206560Y-79794836D01*
X121313666Y-79780295D01*
X121407118Y-79737608D01*
X121490614Y-79664654D01*
X121537127Y-79597299D01*
X121572988Y-79510072D01*
X121596689Y-79398264D01*
X121605409Y-79256158D01*
X121596692Y-79121371D01*
X121572698Y-79012589D01*
X121535817Y-78925145D01*
X121487195Y-78855233D01*
X121401306Y-78779023D01*
X121307541Y-78734996D01*
X121202408Y-78720167D01*
X121099112Y-78734792D01*
X121007380Y-78778152D01*
X120923727Y-78853157D01*
X120876563Y-78921942D01*
X120840739Y-79008033D01*
X120817410Y-79115183D01*
X120808933Y-79247976D01*
X120557253Y-79247976D01*
X120564743Y-79128694D01*
X120589933Y-79001350D01*
X120631246Y-78882222D01*
X120690253Y-78771902D01*
X120762737Y-78682271D01*
X120849233Y-78610746D01*
X120948273Y-78558233D01*
X121059167Y-78526120D01*
X121184700Y-78515003D01*
X121308040Y-78528211D01*
G37*
G36*
X57341151Y-83657986D02*
G01*
X52840933Y-83657986D01*
X52840933Y-81688450D01*
X53063155Y-81688450D01*
X53063155Y-83326343D01*
X53067437Y-83359857D01*
X53079519Y-83386549D01*
X53121725Y-83422886D01*
X53184788Y-83435764D01*
X53238185Y-83426962D01*
X53280531Y-83401570D01*
X53303885Y-83368854D01*
X53311916Y-83326343D01*
X53311916Y-83219731D01*
X54784212Y-83219731D01*
X54792042Y-83279554D01*
X54814971Y-83331765D01*
X54853943Y-83378367D01*
X54921766Y-83421615D01*
X54997436Y-83435764D01*
X55072857Y-83423998D01*
X55133619Y-83390065D01*
X55183427Y-83331838D01*
X55207067Y-83276764D01*
X55214812Y-83219731D01*
X55202679Y-83144780D01*
X55167572Y-83084514D01*
X55106857Y-83035205D01*
X55054601Y-83012491D01*
X55000245Y-83005041D01*
X54929087Y-83016681D01*
X54866155Y-83051570D01*
X54820209Y-83100005D01*
X54793382Y-83155238D01*
X54784212Y-83219731D01*
X53311916Y-83219731D01*
X53311916Y-82497871D01*
X54252617Y-82497871D01*
X54304387Y-82486246D01*
X54334133Y-82454033D01*
X54345552Y-82393946D01*
X54333267Y-82336938D01*
X54299146Y-82302355D01*
X54252617Y-82290020D01*
X53311916Y-82290020D01*
X53311916Y-81725331D01*
X53318170Y-81695116D01*
X53324847Y-81688450D01*
X55710747Y-81688450D01*
X55710747Y-83326343D01*
X55715029Y-83359857D01*
X55727111Y-83386549D01*
X55769317Y-83422886D01*
X55832380Y-83435764D01*
X55885778Y-83426962D01*
X55928123Y-83401570D01*
X55951477Y-83368854D01*
X55959508Y-83326343D01*
X55959508Y-82497871D01*
X56900210Y-82497871D01*
X56951980Y-82486246D01*
X56981726Y-82454033D01*
X56993144Y-82393946D01*
X56980860Y-82336938D01*
X56946738Y-82302355D01*
X56900210Y-82290020D01*
X55959508Y-82290020D01*
X55959508Y-81725331D01*
X55965763Y-81695116D01*
X55982568Y-81678338D01*
X56012875Y-81672086D01*
X57023186Y-81672086D01*
X57076434Y-81660045D01*
X57107121Y-81626591D01*
X57118929Y-81564009D01*
X57109904Y-81513279D01*
X57084735Y-81477913D01*
X57056602Y-81461589D01*
X57023186Y-81456053D01*
X55945953Y-81456053D01*
X55856703Y-81466523D01*
X55793480Y-81494534D01*
X55749333Y-81538318D01*
X55721223Y-81600708D01*
X55710747Y-81688450D01*
X53324847Y-81688450D01*
X53334975Y-81678338D01*
X53365283Y-81672086D01*
X54375594Y-81672086D01*
X54428842Y-81660045D01*
X54459528Y-81626591D01*
X54471337Y-81564009D01*
X54462312Y-81513279D01*
X54437143Y-81477913D01*
X54409010Y-81461589D01*
X54375594Y-81456053D01*
X53298360Y-81456053D01*
X53209111Y-81466523D01*
X53145888Y-81494534D01*
X53101741Y-81538318D01*
X53073631Y-81600708D01*
X53063155Y-81688450D01*
X52840933Y-81688450D01*
X52840933Y-81233831D01*
X57341151Y-81233831D01*
X57341151Y-83657986D01*
G37*
G36*
X100197956Y-34014627D02*
G01*
X100222692Y-34039186D01*
X100232292Y-34088224D01*
X100230094Y-34118998D01*
X100117437Y-35763790D01*
X97611322Y-35862159D01*
X97490422Y-34180547D01*
X98285982Y-34129256D01*
X98246519Y-34154557D01*
X98213854Y-34206266D01*
X98189628Y-34297418D01*
X98128312Y-34586820D01*
X98036984Y-34832425D01*
X97917854Y-35040574D01*
X97771240Y-35216259D01*
X97676266Y-35324844D01*
X97656385Y-35374162D01*
X97663912Y-35407513D01*
X97689174Y-35443771D01*
X97725213Y-35470262D01*
X97765195Y-35478759D01*
X97817487Y-35466240D01*
X97897783Y-35417702D01*
X98019452Y-35310598D01*
X98186854Y-35118281D01*
X98319534Y-34909112D01*
X98419338Y-34681001D01*
X98492296Y-34432374D01*
X98511662Y-34274886D01*
X98495395Y-34198595D01*
X98449640Y-34149822D01*
X98366032Y-34123211D01*
X99018161Y-34082178D01*
X99018161Y-34840919D01*
X99027214Y-34945629D01*
X99050834Y-35018747D01*
X99085755Y-35068614D01*
X99148510Y-35106413D01*
X99270961Y-35135957D01*
X99485825Y-35148482D01*
X99835387Y-35136942D01*
X100004596Y-35111662D01*
X100067986Y-35081923D01*
X100104336Y-35034571D01*
X100117437Y-34964017D01*
X100101005Y-34887926D01*
X100056150Y-34844922D01*
X99973822Y-34828646D01*
X99904030Y-34836889D01*
X99683520Y-34863716D01*
X99510371Y-34871693D01*
X99360711Y-34861435D01*
X99323934Y-34839142D01*
X99311435Y-34795856D01*
X99311435Y-34061662D01*
X100137953Y-34010371D01*
X100154256Y-34008356D01*
X100197956Y-34014627D01*
G37*
G36*
X100873188Y-36632382D02*
G01*
X96835054Y-36632382D01*
X96835054Y-33897531D01*
X97168387Y-33897531D01*
X97172418Y-33942594D01*
X97190820Y-34180547D01*
X97342594Y-36143161D01*
X97365977Y-36234362D01*
X97411314Y-36282389D01*
X97482178Y-36299049D01*
X97573471Y-36282053D01*
X97619898Y-36238642D01*
X97633853Y-36163677D01*
X97631838Y-36147191D01*
X100096920Y-36050837D01*
X100092707Y-36122644D01*
X100090692Y-36151404D01*
X100102146Y-36235656D01*
X100144619Y-36281743D01*
X100226064Y-36299049D01*
X100316493Y-36280500D01*
X100369861Y-36229945D01*
X100394225Y-36139131D01*
X100537840Y-34051404D01*
X100539855Y-34008356D01*
X100520161Y-33876677D01*
X100467913Y-33791242D01*
X100383102Y-33738818D01*
X100252808Y-33719112D01*
X100209577Y-33719112D01*
X97469905Y-33903759D01*
X97442988Y-33827902D01*
X97394980Y-33785601D01*
X97320062Y-33770403D01*
X97231459Y-33786437D01*
X97184884Y-33827505D01*
X97168387Y-33897531D01*
X96835054Y-33897531D01*
X96835054Y-33385779D01*
X100873188Y-33385779D01*
X100873188Y-36632382D01*
G37*
G36*
X66600764Y-82265405D02*
G01*
X66669731Y-82281838D01*
X66763334Y-82323229D01*
X66841971Y-82382448D01*
X66907623Y-82460990D01*
X66946105Y-82532584D01*
X66968563Y-82605071D01*
X66976011Y-82679710D01*
X66976011Y-82775331D01*
X66962719Y-82880443D01*
X66921990Y-82983952D01*
X66850226Y-83088450D01*
X66775930Y-83161534D01*
X66699003Y-83211035D01*
X66618211Y-83240042D01*
X66531612Y-83249773D01*
X66435170Y-83239213D01*
X66351148Y-83208623D01*
X66276741Y-83157853D01*
X66210310Y-83084420D01*
X66155796Y-82988847D01*
X66122250Y-82879213D01*
X66110537Y-82752128D01*
X66124662Y-82612501D01*
X66164696Y-82496111D01*
X66229483Y-82398098D01*
X66293042Y-82337228D01*
X66363478Y-82294663D01*
X66442256Y-82268876D01*
X66531612Y-82259979D01*
X66600764Y-82265405D01*
G37*
G36*
X69945843Y-83685341D02*
G01*
X62658936Y-83685341D01*
X62658936Y-83076116D01*
X62881158Y-83076116D01*
X62891438Y-83121115D01*
X62928036Y-83177730D01*
X63004134Y-83251116D01*
X63138470Y-83342453D01*
X63287939Y-83408318D01*
X63455296Y-83448993D01*
X63644050Y-83463119D01*
X63802611Y-83454081D01*
X63938847Y-83428559D01*
X64055967Y-83388373D01*
X64156716Y-83334525D01*
X64244723Y-83265504D01*
X64311079Y-83187859D01*
X64358265Y-83100619D01*
X64387227Y-83001867D01*
X64397295Y-82888904D01*
X64387102Y-82781626D01*
X64357714Y-82687856D01*
X64309573Y-82604881D01*
X64241310Y-82530864D01*
X64149877Y-82465020D01*
X63983520Y-82386405D01*
X63687770Y-82288677D01*
X63416579Y-82198429D01*
X64604780Y-82198429D01*
X64618037Y-82257709D01*
X64655338Y-82294173D01*
X64700401Y-82305041D01*
X65013520Y-82305041D01*
X65013520Y-83327686D01*
X65023168Y-83374214D01*
X65047430Y-83407966D01*
X65082177Y-83428342D01*
X65131123Y-83435764D01*
X65180113Y-83427249D01*
X65217219Y-83402913D01*
X65240773Y-83369267D01*
X65248726Y-83327686D01*
X65248726Y-82750785D01*
X65872644Y-82750785D01*
X65872741Y-82752128D01*
X65883252Y-82897386D01*
X65913633Y-83026009D01*
X65962507Y-83139533D01*
X66029815Y-83240247D01*
X66126450Y-83336361D01*
X66236999Y-83404204D01*
X66364244Y-83445794D01*
X66512438Y-83460310D01*
X66606221Y-83451073D01*
X66695743Y-83423429D01*
X66787147Y-83375754D01*
X66865822Y-83313752D01*
X66933121Y-83236423D01*
X66989567Y-83141817D01*
X67007397Y-83342829D01*
X67021867Y-83395864D01*
X67052393Y-83425135D01*
X67103140Y-83435764D01*
X67159908Y-83424151D01*
X67191275Y-83393086D01*
X67202913Y-83337334D01*
X67202913Y-82175226D01*
X67667463Y-82175226D01*
X67667463Y-83329152D01*
X67672465Y-83363608D01*
X67686636Y-83390579D01*
X67727331Y-83424151D01*
X67783723Y-83435764D01*
X67837141Y-83425837D01*
X67876657Y-83397418D01*
X67896130Y-83366095D01*
X67902669Y-83329152D01*
X67902669Y-82623656D01*
X67969356Y-82476435D01*
X68038615Y-82375799D01*
X68109793Y-82311092D01*
X68183882Y-82274667D01*
X68263538Y-82262665D01*
X68337031Y-82271070D01*
X68385293Y-82292829D01*
X68432993Y-82318840D01*
X68478227Y-82326901D01*
X68527048Y-82316714D01*
X68567131Y-82285990D01*
X68588931Y-82250053D01*
X68595830Y-82213450D01*
X68591889Y-82198429D01*
X68670935Y-82198429D01*
X68684192Y-82257709D01*
X68721493Y-82294173D01*
X68766556Y-82305041D01*
X69079675Y-82305041D01*
X69079675Y-83327686D01*
X69089323Y-83374214D01*
X69113585Y-83407966D01*
X69148332Y-83428342D01*
X69197278Y-83435764D01*
X69246268Y-83427249D01*
X69283374Y-83402913D01*
X69306928Y-83369267D01*
X69314881Y-83327686D01*
X69314881Y-82305041D01*
X69627878Y-82305041D01*
X69677093Y-82292829D01*
X69711519Y-82255088D01*
X69723621Y-82198429D01*
X69715877Y-82154414D01*
X69693579Y-82120516D01*
X69665397Y-82101238D01*
X69627878Y-82094504D01*
X69314881Y-82094504D01*
X69314881Y-81766364D01*
X69305233Y-81719958D01*
X69281020Y-81686118D01*
X69246666Y-81665784D01*
X69198621Y-81658408D01*
X69148469Y-81666978D01*
X69111182Y-81691259D01*
X69087728Y-81723968D01*
X69079675Y-81766364D01*
X69079675Y-82094504D01*
X68766556Y-82094504D01*
X68734843Y-82099176D01*
X68710502Y-82112334D01*
X68681148Y-82148187D01*
X68670935Y-82198429D01*
X68591889Y-82198429D01*
X68581939Y-82160507D01*
X68535624Y-82108182D01*
X68477455Y-82072408D01*
X68404072Y-82049547D01*
X68311409Y-82041259D01*
X68228284Y-82050236D01*
X68146788Y-82077489D01*
X68065335Y-82124668D01*
X67994983Y-82185352D01*
X67937282Y-82259475D01*
X67891678Y-82348883D01*
X67891678Y-82175226D01*
X67887118Y-82144369D01*
X67873970Y-82119173D01*
X67835582Y-82086746D01*
X67779570Y-82075331D01*
X67718610Y-82088595D01*
X67679797Y-82126011D01*
X67667463Y-82175226D01*
X67202913Y-82175226D01*
X67202913Y-82150558D01*
X67193388Y-82104152D01*
X67169520Y-82072624D01*
X67136006Y-82053556D01*
X67089462Y-82046632D01*
X67039517Y-82055804D01*
X67001901Y-82082170D01*
X66982627Y-82112568D01*
X66976011Y-82150558D01*
X66976011Y-82279152D01*
X66869999Y-82175818D01*
X66758367Y-82105246D01*
X66639259Y-82063534D01*
X66509752Y-82049441D01*
X66383073Y-82060648D01*
X66270974Y-82093042D01*
X66170674Y-82146050D01*
X66080175Y-82220808D01*
X65998429Y-82320062D01*
X65929267Y-82448236D01*
X65887167Y-82590650D01*
X65872644Y-82750785D01*
X65248726Y-82750785D01*
X65248726Y-82305041D01*
X65561723Y-82305041D01*
X65610938Y-82292829D01*
X65645364Y-82255088D01*
X65657466Y-82198429D01*
X65649722Y-82154414D01*
X65627425Y-82120516D01*
X65599242Y-82101238D01*
X65561723Y-82094504D01*
X65248726Y-82094504D01*
X65248726Y-81766364D01*
X65239078Y-81719958D01*
X65214865Y-81686118D01*
X65180511Y-81665784D01*
X65132466Y-81658408D01*
X65082314Y-81666978D01*
X65045027Y-81691259D01*
X65021573Y-81723968D01*
X65013520Y-81766364D01*
X65013520Y-82094504D01*
X64700401Y-82094504D01*
X64668688Y-82099176D01*
X64644347Y-82112334D01*
X64614993Y-82148187D01*
X64604780Y-82198429D01*
X63416579Y-82198429D01*
X63409370Y-82196030D01*
X63284403Y-82134193D01*
X63213009Y-82071264D01*
X63173242Y-82002971D01*
X63160083Y-81926343D01*
X63171585Y-81845473D01*
X63204904Y-81778011D01*
X63261590Y-81720535D01*
X63347295Y-81672086D01*
X63464808Y-81636951D01*
X63612543Y-81624214D01*
X63739058Y-81636320D01*
X63855151Y-81671935D01*
X63963267Y-81731432D01*
X64065125Y-81817044D01*
X64104008Y-81843808D01*
X64148534Y-81852581D01*
X64199891Y-81842281D01*
X64241469Y-81811549D01*
X64265157Y-81774462D01*
X64272976Y-81732170D01*
X64264452Y-81692177D01*
X64235417Y-81646237D01*
X64177233Y-81591364D01*
X64058944Y-81513942D01*
X63926705Y-81457853D01*
X63778042Y-81423090D01*
X63609856Y-81410990D01*
X63450775Y-81422245D01*
X63313418Y-81454237D01*
X63194277Y-81505268D01*
X63093454Y-81572200D01*
X63019062Y-81647017D01*
X62967160Y-81730306D01*
X62935732Y-81823861D01*
X62924877Y-81930495D01*
X62937677Y-82044527D01*
X62974335Y-82140809D01*
X63034679Y-82223299D01*
X63121737Y-82294173D01*
X63230779Y-82354933D01*
X63373918Y-82417075D01*
X63557833Y-82480041D01*
X63863206Y-82582956D01*
X64010415Y-82648203D01*
X64077242Y-82695700D01*
X64122700Y-82750975D01*
X64149944Y-82815325D01*
X64159403Y-82891591D01*
X64148585Y-82976521D01*
X64117173Y-83049373D01*
X64064267Y-83113149D01*
X63985868Y-83169173D01*
X63893526Y-83209400D01*
X63782694Y-83235087D01*
X63649546Y-83244277D01*
X63496143Y-83229752D01*
X63354134Y-83186880D01*
X63226194Y-83120450D01*
X63129919Y-83043387D01*
X63049093Y-82979013D01*
X62994609Y-82962665D01*
X62944210Y-82973667D01*
X62905704Y-83006385D01*
X62887131Y-83040709D01*
X62881158Y-83076116D01*
X62658936Y-83076116D01*
X62658936Y-81188768D01*
X69945843Y-81188768D01*
X69945843Y-83685341D01*
G37*
G36*
X87256544Y-36632382D02*
G01*
X82974229Y-36632382D01*
X82974229Y-36151404D01*
X83307562Y-36151404D01*
X83325434Y-36234461D01*
X83374156Y-36281332D01*
X83463450Y-36299049D01*
X83475724Y-36299049D01*
X86765308Y-36134918D01*
X86855212Y-36112061D01*
X86904983Y-36060631D01*
X86923211Y-35972984D01*
X86904759Y-35894605D01*
X86851404Y-35843658D01*
X86806616Y-35827378D01*
X86757065Y-35823325D01*
X86746807Y-35823325D01*
X83463450Y-35995516D01*
X83374303Y-36017873D01*
X83325353Y-36067556D01*
X83307562Y-36151404D01*
X82974229Y-36151404D01*
X82974229Y-34955774D01*
X83941372Y-34955774D01*
X83960186Y-35040937D01*
X84010950Y-35085667D01*
X84105321Y-35097191D01*
X86024886Y-34962002D01*
X86114602Y-34938903D01*
X86163313Y-34890214D01*
X86180774Y-34810144D01*
X86162855Y-34733456D01*
X86110982Y-34683016D01*
X86065167Y-34667366D01*
X86008583Y-34664515D01*
X84093047Y-34803916D01*
X84006140Y-34826798D01*
X83958555Y-34875335D01*
X83941372Y-34955774D01*
X82974229Y-34955774D01*
X82974229Y-33895516D01*
X83857292Y-33895516D01*
X83869041Y-33971056D01*
X83899959Y-34018223D01*
X83950464Y-34045280D01*
X84029483Y-34051404D01*
X86108967Y-33891486D01*
X86195605Y-33868334D01*
X86243428Y-33818671D01*
X86260825Y-33735598D01*
X86247867Y-33667409D01*
X86211549Y-33620743D01*
X86161206Y-33594026D01*
X86104937Y-33587953D01*
X86088450Y-33589968D01*
X84008967Y-33753916D01*
X83921021Y-33776119D01*
X83873939Y-33821780D01*
X83857292Y-33895516D01*
X82974229Y-33895516D01*
X82974229Y-33254620D01*
X87256544Y-33254620D01*
X87256544Y-36632382D01*
G37*
G36*
X100271162Y-80000000D02*
G01*
X100271162Y-78223866D01*
X99611218Y-78223866D01*
X99611218Y-77991346D01*
X101198796Y-77991346D01*
X101198796Y-78223866D01*
X100536165Y-78223866D01*
X100536165Y-80000000D01*
X100271162Y-80000000D01*
G37*
G36*
X101918951Y-78527164D02*
G01*
X102044487Y-78558845D01*
X102149307Y-78610871D01*
X102215213Y-78668876D01*
X102260816Y-78741947D01*
X102291783Y-78836304D01*
X102300286Y-78911817D01*
X102304117Y-79063328D01*
X102304117Y-79391468D01*
X102309339Y-79704006D01*
X102319749Y-79825732D01*
X102343036Y-79914366D01*
X102381909Y-80000000D01*
X102125087Y-80000000D01*
X102094262Y-79918403D01*
X102075872Y-79819382D01*
X101937049Y-79921442D01*
X101812945Y-79983391D01*
X101683080Y-80019092D01*
X101541713Y-80031263D01*
X101421557Y-80022878D01*
X101322597Y-79999542D01*
X101241110Y-79963151D01*
X101174128Y-79914392D01*
X101117882Y-79851768D01*
X101078255Y-79782184D01*
X101054123Y-79704193D01*
X101045778Y-79615683D01*
X101046524Y-79609455D01*
X101308095Y-79609455D01*
X101316451Y-79671915D01*
X101340890Y-79726018D01*
X101382467Y-79773953D01*
X101435974Y-79808763D01*
X101506918Y-79831412D01*
X101600454Y-79839776D01*
X101693561Y-79832548D01*
X101777288Y-79811591D01*
X101853245Y-79777372D01*
X101921250Y-79730008D01*
X101974942Y-79673392D01*
X102015789Y-79606646D01*
X102043913Y-79512302D01*
X102055356Y-79359717D01*
X102055356Y-79269225D01*
X101903940Y-79316364D01*
X101653699Y-79362770D01*
X101513672Y-79388646D01*
X101439253Y-79412229D01*
X101383009Y-79446370D01*
X101342167Y-79492341D01*
X101316665Y-79547820D01*
X101308095Y-79609455D01*
X101046524Y-79609455D01*
X101058072Y-79512989D01*
X101094260Y-79420900D01*
X101150711Y-79340950D01*
X101221267Y-79279483D01*
X101304065Y-79232968D01*
X101398220Y-79198761D01*
X101616818Y-79161880D01*
X101894389Y-79119466D01*
X102055356Y-79077739D01*
X102056821Y-79013869D01*
X102047565Y-78916596D01*
X102023340Y-78849001D01*
X101987090Y-78803087D01*
X101919335Y-78759407D01*
X101828330Y-78730793D01*
X101707066Y-78720167D01*
X101592346Y-78728390D01*
X101509494Y-78749992D01*
X101450855Y-78781716D01*
X101403939Y-78828720D01*
X101362819Y-78899023D01*
X101328611Y-78999581D01*
X101088154Y-78966852D01*
X101116196Y-78865062D01*
X101152424Y-78781961D01*
X101195987Y-78714672D01*
X101251402Y-78657404D01*
X101322860Y-78608082D01*
X101413241Y-78566905D01*
X101562202Y-78528691D01*
X101742603Y-78515003D01*
X101918951Y-78527164D01*
G37*
G36*
X102685869Y-80000000D02*
G01*
X102685869Y-77991346D01*
X102931699Y-77991346D01*
X102931699Y-79137578D01*
X103513730Y-78546266D01*
X103832100Y-78546266D01*
X103277425Y-79085554D01*
X103888154Y-80000000D01*
X103584805Y-80000000D01*
X103105234Y-79256646D01*
X102931699Y-79423709D01*
X102931699Y-80000000D01*
X102685869Y-80000000D01*
G37*
G36*
X104821242Y-78528003D02*
G01*
X104945741Y-78565464D01*
X105056050Y-78626678D01*
X105154553Y-78713084D01*
X105232076Y-78816673D01*
X105289473Y-78941069D01*
X105326017Y-79090436D01*
X105339079Y-79270080D01*
X105337613Y-79335659D01*
X104255618Y-79335659D01*
X104270604Y-79454665D01*
X104298999Y-79552821D01*
X104339241Y-79633616D01*
X104390806Y-79699825D01*
X104478559Y-79769970D01*
X104578373Y-79811724D01*
X104694156Y-79826099D01*
X104782043Y-79817876D01*
X104858255Y-79794262D01*
X104925087Y-79755757D01*
X104981544Y-79702886D01*
X105032249Y-79629522D01*
X105076762Y-79531053D01*
X105330897Y-79562438D01*
X105277809Y-79703075D01*
X105203683Y-79816967D01*
X105108147Y-79908286D01*
X105024416Y-79960491D01*
X104928745Y-79998801D01*
X104819057Y-80022824D01*
X104692812Y-80031263D01*
X104535880Y-80017960D01*
X104402065Y-79980157D01*
X104287123Y-79919447D01*
X104187962Y-79835258D01*
X104109402Y-79732431D01*
X104051431Y-79609403D01*
X104014618Y-79462143D01*
X104001483Y-79285467D01*
X104012770Y-79130495D01*
X104269295Y-79130495D01*
X105079449Y-79130495D01*
X105059903Y-79012548D01*
X105028166Y-78924583D01*
X104986514Y-78860118D01*
X104922920Y-78798505D01*
X104852087Y-78755378D01*
X104772497Y-78729211D01*
X104681821Y-78720167D01*
X104573428Y-78732947D01*
X104479651Y-78770007D01*
X104397034Y-78831908D01*
X104332709Y-78912750D01*
X104289962Y-79010831D01*
X104269295Y-79130495D01*
X104012770Y-79130495D01*
X104014822Y-79102313D01*
X104052151Y-78949960D01*
X104110799Y-78823012D01*
X104190038Y-78717236D01*
X104290717Y-78629178D01*
X104403939Y-78566665D01*
X104532217Y-78528329D01*
X104679135Y-78515003D01*
X104821242Y-78528003D01*
G37*
G36*
X98971790Y-82709825D02*
G01*
X99221895Y-82687843D01*
X99240029Y-82788241D01*
X99267912Y-82871132D01*
X99304449Y-82939291D01*
X99353511Y-82998441D01*
X99419625Y-83051410D01*
X99505950Y-83098171D01*
X99598837Y-83131270D01*
X99700840Y-83151691D01*
X99813451Y-83158743D01*
X99959545Y-83146876D01*
X100081141Y-83113558D01*
X100154884Y-83077975D01*
X100211559Y-83036604D01*
X100253943Y-82989605D01*
X100296683Y-82906687D01*
X100310730Y-82817536D01*
X100296852Y-82728428D01*
X100256019Y-82652550D01*
X100188476Y-82590829D01*
X100075768Y-82533970D01*
X99970591Y-82500492D01*
X99719174Y-82436029D01*
X99465121Y-82365044D01*
X99332537Y-82310610D01*
X99242057Y-82254171D01*
X99171711Y-82191896D01*
X99118703Y-82123642D01*
X99079780Y-82046658D01*
X99056345Y-81963855D01*
X99048361Y-81873660D01*
X99057859Y-81774717D01*
X99086233Y-81680497D01*
X99134334Y-81589361D01*
X99199211Y-81509586D01*
X99282101Y-81442813D01*
X99385782Y-81388593D01*
X99497908Y-81351103D01*
X99619923Y-81328026D01*
X99753368Y-81320083D01*
X99900438Y-81328595D01*
X100030589Y-81352956D01*
X100146110Y-81391891D01*
X100252717Y-81448471D01*
X100339057Y-81518616D01*
X100407694Y-81602916D01*
X100459057Y-81699168D01*
X100491866Y-81803676D01*
X100506124Y-81918356D01*
X100251989Y-81937529D01*
X100225858Y-81816245D01*
X100179309Y-81722270D01*
X100113259Y-81649933D01*
X100028958Y-81598836D01*
X99915503Y-81565147D01*
X99764236Y-81552602D01*
X99605500Y-81564446D01*
X99492461Y-81595412D01*
X99413748Y-81640774D01*
X99351257Y-81705560D01*
X99315705Y-81775525D01*
X99303839Y-81853387D01*
X99312708Y-81921883D01*
X99338429Y-81980279D01*
X99381752Y-82031074D01*
X99440402Y-82068674D01*
X99562205Y-82115954D01*
X99781333Y-82173956D01*
X100078071Y-82249608D01*
X100224634Y-82301695D01*
X100335487Y-82363238D01*
X100420168Y-82431405D01*
X100482799Y-82506127D01*
X100528774Y-82591892D01*
X100556638Y-82686184D01*
X100566208Y-82791158D01*
X100556146Y-82895180D01*
X100525974Y-82995119D01*
X100474617Y-83092676D01*
X100405999Y-83178701D01*
X100319206Y-83251884D01*
X100211689Y-83312739D01*
X100095016Y-83355677D01*
X99966983Y-83382132D01*
X99825663Y-83391263D01*
X99645436Y-83381425D01*
X99495099Y-83354042D01*
X99370028Y-83311639D01*
X99255242Y-83248793D01*
X99159900Y-83169240D01*
X99081822Y-83071915D01*
X99023439Y-82961263D01*
X98986765Y-82841316D01*
X98971790Y-82709825D01*
G37*
G36*
X101843354Y-82828527D02*
G01*
X102085154Y-82859912D01*
X102056298Y-82982012D01*
X102012607Y-83086118D01*
X101954740Y-83174908D01*
X101882310Y-83250334D01*
X101796981Y-83311433D01*
X101702917Y-83355154D01*
X101598445Y-83381984D01*
X101481386Y-83391263D01*
X101335366Y-83378287D01*
X101209179Y-83341145D01*
X101099082Y-83280935D01*
X101002425Y-83196601D01*
X100926805Y-83094859D01*
X100870476Y-82971152D01*
X100834398Y-82820973D01*
X100821442Y-82638628D01*
X100830701Y-82483492D01*
X100857121Y-82347320D01*
X100899233Y-82227445D01*
X100961147Y-82118439D01*
X101039723Y-82031217D01*
X101136271Y-81963175D01*
X101245284Y-81914280D01*
X101360210Y-81884935D01*
X101482729Y-81875003D01*
X101600464Y-81883259D01*
X101702553Y-81906767D01*
X101791481Y-81944318D01*
X101869243Y-81995659D01*
X101936267Y-82060678D01*
X101990611Y-82138173D01*
X102032679Y-82229906D01*
X102061951Y-82338332D01*
X101822837Y-82375212D01*
X101792470Y-82281235D01*
X101751928Y-82208932D01*
X101701937Y-82154295D01*
X101640636Y-82113380D01*
X101571489Y-82088691D01*
X101492255Y-82080167D01*
X101401902Y-82088813D01*
X101322868Y-82113752D01*
X101252869Y-82154640D01*
X101190370Y-82212669D01*
X101143466Y-82281026D01*
X101107173Y-82370153D01*
X101083108Y-82485055D01*
X101074233Y-82631789D01*
X101082888Y-82781171D01*
X101106259Y-82897312D01*
X101141292Y-82986593D01*
X101186218Y-83054330D01*
X101246723Y-83112160D01*
X101314491Y-83152790D01*
X101391021Y-83177528D01*
X101478577Y-83186099D01*
X101571744Y-83175913D01*
X101651350Y-83146642D01*
X101720377Y-83098415D01*
X101774489Y-83033777D01*
X101816028Y-82945897D01*
X101843354Y-82828527D01*
G37*
G36*
X103030992Y-81887946D02*
G01*
X103159225Y-81925180D01*
X103272584Y-81985818D01*
X103373535Y-82071008D01*
X103454008Y-82174124D01*
X103512988Y-82296104D01*
X103550214Y-82440655D01*
X103563434Y-82612616D01*
X103552567Y-82798580D01*
X103523271Y-82942736D01*
X103479414Y-83053230D01*
X103414825Y-83152330D01*
X103333828Y-83234934D01*
X103234805Y-83302480D01*
X103124943Y-83351669D01*
X103008729Y-83381239D01*
X102884439Y-83391263D01*
X102734863Y-83378240D01*
X102605212Y-83340943D01*
X102491785Y-83280506D01*
X102391923Y-83195990D01*
X102313307Y-83093482D01*
X102254888Y-82968770D01*
X102217518Y-82817272D01*
X102204100Y-82633133D01*
X102204147Y-82632400D01*
X102456770Y-82632400D01*
X102465798Y-82773303D01*
X102490580Y-82886332D01*
X102528536Y-82976552D01*
X102578402Y-83048101D01*
X102643891Y-83109039D01*
X102715679Y-83151577D01*
X102795160Y-83177268D01*
X102884439Y-83186099D01*
X102972962Y-83177255D01*
X103051986Y-83151487D01*
X103123586Y-83108737D01*
X103189132Y-83047369D01*
X103238790Y-82975592D01*
X103276764Y-82884273D01*
X103301663Y-82768988D01*
X103310765Y-82624340D01*
X103301808Y-82488815D01*
X103277080Y-82378861D01*
X103238925Y-82289918D01*
X103188399Y-82218286D01*
X103122584Y-82157124D01*
X103050991Y-82114562D01*
X102972283Y-82088946D01*
X102884439Y-82080167D01*
X102795124Y-82088966D01*
X102715629Y-82114558D01*
X102643854Y-82156914D01*
X102578402Y-82217554D01*
X102528558Y-82288755D01*
X102490603Y-82378692D01*
X102465808Y-82491537D01*
X102456770Y-82632400D01*
X102204147Y-82632400D01*
X102214558Y-82468776D01*
X102243855Y-82330741D01*
X102289719Y-82214809D01*
X102351090Y-82117492D01*
X102428193Y-82036203D01*
X102525988Y-81966191D01*
X102633301Y-81916192D01*
X102751979Y-81885572D01*
X102884439Y-81875003D01*
X103030992Y-81887946D01*
G37*
G36*
X103848221Y-83360000D02*
G01*
X103848221Y-81906266D01*
X104069505Y-81906266D01*
X104069505Y-82125718D01*
X104158255Y-81989497D01*
X104225943Y-81923852D01*
X104301391Y-81887184D01*
X104383723Y-81875003D01*
X104464671Y-81883251D01*
X104548427Y-81908800D01*
X104636515Y-81953771D01*
X104551885Y-82180429D01*
X104459960Y-82139903D01*
X104371511Y-82127062D01*
X104294997Y-82139215D01*
X104226675Y-82175666D01*
X104172337Y-82232712D01*
X104135084Y-82310610D01*
X104104722Y-82446063D01*
X104094174Y-82598328D01*
X104094174Y-83360000D01*
X103848221Y-83360000D01*
G37*
G36*
X105520754Y-81888003D02*
G01*
X105645253Y-81925464D01*
X105755562Y-81986678D01*
X105854065Y-82073084D01*
X105931588Y-82176673D01*
X105988985Y-82301069D01*
X106025529Y-82450436D01*
X106038591Y-82630080D01*
X106037125Y-82695659D01*
X104955130Y-82695659D01*
X104970116Y-82814665D01*
X104998511Y-82912821D01*
X105038753Y-82993616D01*
X105090318Y-83059825D01*
X105178071Y-83129970D01*
X105277885Y-83171724D01*
X105393668Y-83186099D01*
X105481555Y-83177876D01*
X105557767Y-83154262D01*
X105624599Y-83115757D01*
X105681056Y-83062886D01*
X105731761Y-82989522D01*
X105776274Y-82891053D01*
X106030409Y-82922438D01*
X105977321Y-83063075D01*
X105903195Y-83176967D01*
X105807659Y-83268286D01*
X105723928Y-83320491D01*
X105628257Y-83358801D01*
X105518569Y-83382824D01*
X105392324Y-83391263D01*
X105235392Y-83377960D01*
X105101577Y-83340157D01*
X104986635Y-83279447D01*
X104887474Y-83195258D01*
X104808914Y-83092431D01*
X104750943Y-82969403D01*
X104714130Y-82822143D01*
X104700995Y-82645467D01*
X104712282Y-82490495D01*
X104968807Y-82490495D01*
X105778961Y-82490495D01*
X105759415Y-82372548D01*
X105727678Y-82284583D01*
X105686026Y-82220118D01*
X105622432Y-82158505D01*
X105551599Y-82115378D01*
X105472009Y-82089211D01*
X105381333Y-82080167D01*
X105272940Y-82092947D01*
X105179163Y-82130007D01*
X105096546Y-82191908D01*
X105032221Y-82272750D01*
X104989474Y-82370831D01*
X104968807Y-82490495D01*
X104712282Y-82490495D01*
X104714334Y-82462313D01*
X104751663Y-82309960D01*
X104810311Y-82183012D01*
X104889550Y-82077236D01*
X104990229Y-81989178D01*
X105103451Y-81926665D01*
X105231729Y-81888329D01*
X105378647Y-81875003D01*
X105520754Y-81888003D01*
G37*
G36*
X135416992Y-33424598D02*
G01*
X135416992Y-34551352D01*
X135039270Y-34551352D01*
X135009749Y-34385230D01*
X134957388Y-34240675D01*
X134881206Y-34110454D01*
X134783182Y-33997409D01*
X134666659Y-33909195D01*
X134535519Y-33845001D01*
X134391547Y-33806202D01*
X134225026Y-33792611D01*
X134043889Y-33811083D01*
X133891268Y-33863686D01*
X133757398Y-33951910D01*
X133637377Y-34081123D01*
X133546642Y-34234970D01*
X133477826Y-34425139D01*
X133437750Y-34634078D01*
X133423421Y-34882362D01*
X133437276Y-35126265D01*
X133475811Y-35329143D01*
X133543023Y-35512522D01*
X133633164Y-35658504D01*
X133750138Y-35776385D01*
X133889253Y-35860005D01*
X134048067Y-35909538D01*
X134237665Y-35927049D01*
X134356554Y-35920553D01*
X134462063Y-35901953D01*
X134560515Y-35869852D01*
X134644696Y-35826299D01*
X134719556Y-35770426D01*
X134768527Y-35710894D01*
X134798505Y-35643158D01*
X134808461Y-35570394D01*
X134808461Y-35335554D01*
X134795821Y-35251657D01*
X134758086Y-35192855D01*
X134688660Y-35159333D01*
X134581681Y-35146693D01*
X134350872Y-35138267D01*
X134350872Y-34790038D01*
X135891250Y-34790038D01*
X135891250Y-35138267D01*
X135679309Y-35153105D01*
X135559691Y-35171789D01*
X135527336Y-35191604D01*
X135502904Y-35228576D01*
X135489263Y-35276352D01*
X135484036Y-35343797D01*
X135484036Y-36250000D01*
X135085432Y-36250000D01*
X134997322Y-36002337D01*
X134946763Y-36050697D01*
X134900785Y-36090448D01*
X134852424Y-36124153D01*
X134808461Y-36157676D01*
X134646711Y-36239558D01*
X134480931Y-36291948D01*
X134306725Y-36325471D01*
X134103210Y-36338110D01*
X133889448Y-36326831D01*
X133695784Y-36294250D01*
X133519774Y-36241756D01*
X133353464Y-36165843D01*
X133201488Y-36067020D01*
X133062369Y-35944085D01*
X132941621Y-35802679D01*
X132843254Y-35648067D01*
X132766346Y-35478803D01*
X132712724Y-35300140D01*
X132679367Y-35102573D01*
X132667794Y-34883461D01*
X132679578Y-34658776D01*
X132713636Y-34454875D01*
X132768545Y-34269251D01*
X132847619Y-34093431D01*
X132949452Y-33934008D01*
X133075008Y-33789314D01*
X133219983Y-33660912D01*
X133378245Y-33557210D01*
X133551282Y-33476988D01*
X133734467Y-33420966D01*
X133935784Y-33386238D01*
X134157798Y-33374223D01*
X134334019Y-33386863D01*
X134501997Y-33420385D01*
X134663564Y-33474973D01*
X134820917Y-33554658D01*
X134843998Y-33567297D01*
X134867079Y-33579937D01*
X134885947Y-33594591D01*
X134909028Y-33609246D01*
X134953175Y-33636723D01*
X134997322Y-33668047D01*
X135085432Y-33424598D01*
X135416992Y-33424598D01*
G37*
G36*
X137561688Y-33448046D02*
G01*
X136600532Y-37086775D01*
X136071685Y-37086775D01*
X137032841Y-33448046D01*
X137561688Y-33448046D01*
G37*
G36*
X128414220Y-36732766D02*
G01*
X124285779Y-36732766D01*
X124285779Y-36288790D01*
X124656114Y-36288790D01*
X124664682Y-36330485D01*
X124690919Y-36366643D01*
X124728311Y-36391455D01*
X124768771Y-36399433D01*
X124826137Y-36386686D01*
X124912386Y-36338066D01*
X125155763Y-36143499D01*
X125377534Y-35920059D01*
X125578642Y-35665814D01*
X125759420Y-35378192D01*
X125825602Y-35237923D01*
X125841486Y-35162953D01*
X125824734Y-35093511D01*
X125795135Y-35062386D01*
X126837997Y-35062386D01*
X126850876Y-35115685D01*
X126895516Y-35177241D01*
X127167903Y-35487453D01*
X127418671Y-35819325D01*
X127648211Y-36173935D01*
X127734307Y-36299049D01*
X127788956Y-36335918D01*
X127855207Y-36348325D01*
X127919783Y-36337226D01*
X127980321Y-36303079D01*
X128021665Y-36252438D01*
X128035825Y-36184193D01*
X128024101Y-36114144D01*
X127986549Y-36040579D01*
X127815547Y-35810369D01*
X127580434Y-35527852D01*
X127283170Y-35201158D01*
X127103541Y-35031944D01*
X127002997Y-34961650D01*
X126950837Y-34945516D01*
X126909301Y-34954505D01*
X126872984Y-34982336D01*
X126846368Y-35021720D01*
X126837997Y-35062386D01*
X125795135Y-35062386D01*
X125773709Y-35039855D01*
X125728820Y-35018197D01*
X125681385Y-35011095D01*
X125617777Y-35024109D01*
X125562610Y-35063976D01*
X125513224Y-35138224D01*
X125377852Y-35388450D01*
X125189961Y-35664858D01*
X124987719Y-35910196D01*
X124770969Y-36126674D01*
X124688904Y-36202695D01*
X124664311Y-36242632D01*
X124656114Y-36288790D01*
X124285779Y-36288790D01*
X124285779Y-34317934D01*
X124619112Y-34317934D01*
X124627874Y-34369853D01*
X124653916Y-34414288D01*
X124702153Y-34454035D01*
X124766756Y-34467594D01*
X124783243Y-34467594D01*
X127943501Y-34256385D01*
X128021166Y-34235627D01*
X128064755Y-34188960D01*
X128080887Y-34108740D01*
X128062820Y-34030468D01*
X128012219Y-33984963D01*
X127916756Y-33967323D01*
X126501674Y-34061662D01*
X126501674Y-33354030D01*
X126494286Y-33301985D01*
X126473098Y-33259691D01*
X126416121Y-33210988D01*
X126335711Y-33194112D01*
X126271083Y-33205577D01*
X126218841Y-33239174D01*
X126185308Y-33288496D01*
X126173595Y-33354030D01*
X126173595Y-34084193D01*
X124758513Y-34176517D01*
X124678748Y-34198083D01*
X124634945Y-34243259D01*
X124619112Y-34317934D01*
X124285779Y-34317934D01*
X124285779Y-32860779D01*
X128414220Y-32860779D01*
X128414220Y-36732766D01*
G37*
G36*
X88018772Y-79296580D02*
G01*
X88283776Y-79363503D01*
X88231199Y-79523026D01*
X88163356Y-79656773D01*
X88081000Y-79768306D01*
X87983845Y-79860293D01*
X87871588Y-79934009D01*
X87747454Y-79987145D01*
X87609306Y-80019909D01*
X87454449Y-80031263D01*
X87291131Y-80021983D01*
X87151061Y-79995802D01*
X87030887Y-79954619D01*
X86927739Y-79899494D01*
X86833817Y-79827465D01*
X86751369Y-79740829D01*
X86679779Y-79638204D01*
X86619016Y-79517620D01*
X86560545Y-79348098D01*
X86525145Y-79169697D01*
X86513137Y-78980652D01*
X86527282Y-78774880D01*
X86567753Y-78594257D01*
X86632694Y-78434891D01*
X86699726Y-78324075D01*
X86778378Y-78229030D01*
X86869104Y-78148291D01*
X86972924Y-78080983D01*
X87123990Y-78014151D01*
X87285064Y-77973807D01*
X87458601Y-77960083D01*
X87608061Y-77970310D01*
X87740474Y-77999688D01*
X87858437Y-78047015D01*
X87964062Y-78112124D01*
X88057389Y-78194372D01*
X88135773Y-78291741D01*
X88199901Y-78405946D01*
X88249582Y-78539427D01*
X87988730Y-78600976D01*
X87931654Y-78462036D01*
X87863973Y-78358639D01*
X87786497Y-78284071D01*
X87693550Y-78230198D01*
X87583777Y-78196642D01*
X87453106Y-78184787D01*
X87302657Y-78198024D01*
X87175455Y-78235551D01*
X87067080Y-78295795D01*
X86974178Y-78377973D01*
X86901957Y-78476453D01*
X86849215Y-78593649D01*
X86814347Y-78719563D01*
X86793447Y-78847834D01*
X86786445Y-78979187D01*
X86795368Y-79148871D01*
X86820715Y-79297032D01*
X86860817Y-79426517D01*
X86921209Y-79545541D01*
X86998117Y-79639554D01*
X87092359Y-79712037D01*
X87200342Y-79764673D01*
X87313154Y-79796008D01*
X87432589Y-79806559D01*
X87542480Y-79798087D01*
X87640722Y-79773590D01*
X87729285Y-79733708D01*
X87809700Y-79678087D01*
X87877949Y-79609329D01*
X87935712Y-79524603D01*
X87982950Y-79421426D01*
X88018772Y-79296580D01*
G37*
G36*
X89313999Y-78527946D02*
G01*
X89442232Y-78565180D01*
X89555591Y-78625818D01*
X89656542Y-78711008D01*
X89737015Y-78814124D01*
X89795996Y-78936104D01*
X89833221Y-79080655D01*
X89846441Y-79252616D01*
X89835575Y-79438580D01*
X89806278Y-79582736D01*
X89762422Y-79693230D01*
X89697832Y-79792330D01*
X89616835Y-79874934D01*
X89517813Y-79942480D01*
X89407951Y-79991669D01*
X89291737Y-80021239D01*
X89167446Y-80031263D01*
X89017871Y-80018240D01*
X88888219Y-79980943D01*
X88774793Y-79920506D01*
X88674930Y-79835990D01*
X88596315Y-79733482D01*
X88537896Y-79608770D01*
X88500526Y-79457272D01*
X88487108Y-79273133D01*
X88487155Y-79272400D01*
X88739777Y-79272400D01*
X88748806Y-79413303D01*
X88773587Y-79526332D01*
X88811543Y-79616552D01*
X88861410Y-79688101D01*
X88926899Y-79749039D01*
X88998686Y-79791577D01*
X89078167Y-79817268D01*
X89167446Y-79826099D01*
X89255970Y-79817255D01*
X89334993Y-79791487D01*
X89406593Y-79748737D01*
X89472139Y-79687369D01*
X89521798Y-79615592D01*
X89559771Y-79524273D01*
X89584670Y-79408988D01*
X89593772Y-79264340D01*
X89584815Y-79128815D01*
X89560088Y-79018861D01*
X89521933Y-78929918D01*
X89471406Y-78858286D01*
X89405591Y-78797124D01*
X89333998Y-78754562D01*
X89255290Y-78728946D01*
X89167446Y-78720167D01*
X89078132Y-78728966D01*
X88998636Y-78754558D01*
X88926861Y-78796914D01*
X88861410Y-78857554D01*
X88811566Y-78928755D01*
X88773611Y-79018692D01*
X88748816Y-79131537D01*
X88739777Y-79272400D01*
X88487155Y-79272400D01*
X88497565Y-79108776D01*
X88526863Y-78970741D01*
X88572727Y-78854809D01*
X88634098Y-78757492D01*
X88711201Y-78676203D01*
X88808996Y-78606191D01*
X88916308Y-78556192D01*
X89034987Y-78525572D01*
X89167446Y-78515003D01*
X89313999Y-78527946D01*
G37*
G36*
X90135381Y-78272714D02*
G01*
X90135381Y-77991346D01*
X90381211Y-77991346D01*
X90381211Y-78272714D01*
X90135381Y-78272714D01*
G37*
G36*
X90135381Y-80000000D02*
G01*
X90135381Y-78546266D01*
X90381211Y-78546266D01*
X90381211Y-80000000D01*
X90135381Y-80000000D01*
G37*
G36*
X90755269Y-80000000D02*
G01*
X90755269Y-78546266D01*
X90976675Y-78546266D01*
X90976675Y-78751919D01*
X91046907Y-78666017D01*
X91126612Y-78600735D01*
X91216927Y-78553965D01*
X91319919Y-78525083D01*
X91438416Y-78515003D01*
X91565619Y-78527086D01*
X91679484Y-78562264D01*
X91778174Y-78618671D01*
X91844104Y-78685973D01*
X91889968Y-78768221D01*
X91920674Y-78867812D01*
X91930140Y-78948989D01*
X91934351Y-79107048D01*
X91934351Y-80000000D01*
X91688399Y-80000000D01*
X91688399Y-79115108D01*
X91679975Y-78974152D01*
X91659700Y-78889794D01*
X91620412Y-78823134D01*
X91557973Y-78770603D01*
X91480007Y-78737559D01*
X91386515Y-78726029D01*
X91285499Y-78737383D01*
X91196010Y-78770535D01*
X91115283Y-78826046D01*
X91070255Y-78879305D01*
X91034691Y-78955405D01*
X91010421Y-79061239D01*
X91001221Y-79205478D01*
X91001221Y-80000000D01*
X90755269Y-80000000D01*
G37*
G36*
X73426494Y-36435461D02*
G01*
X69265262Y-36435461D01*
X69265262Y-35948255D01*
X69598595Y-35948255D01*
X69614199Y-36024737D01*
X69658129Y-36075566D01*
X69707642Y-36097458D01*
X69762726Y-36102128D01*
X69775000Y-36100113D01*
X72929030Y-35958513D01*
X73022263Y-35934888D01*
X73074092Y-35880954D01*
X73093161Y-35788337D01*
X73081219Y-35714393D01*
X73049303Y-35666899D01*
X72996311Y-35638492D01*
X72912726Y-35630434D01*
X69758513Y-35782292D01*
X69667671Y-35805423D01*
X69617170Y-35858030D01*
X69598595Y-35948255D01*
X69265262Y-35948255D01*
X69265262Y-34213337D01*
X70084577Y-34213337D01*
X70103025Y-34306166D01*
X70151858Y-34356850D01*
X70238450Y-34375453D01*
X70262997Y-34375453D01*
X72336435Y-34240081D01*
X72426151Y-34216983D01*
X72474862Y-34168293D01*
X72492323Y-34088224D01*
X72481054Y-34011240D01*
X72451306Y-33961599D01*
X72403379Y-33931368D01*
X72330207Y-33920062D01*
X72311889Y-33922077D01*
X70236435Y-34063677D01*
X70149189Y-34086425D01*
X70101660Y-34134355D01*
X70084577Y-34213337D01*
X69265262Y-34213337D01*
X69265262Y-33586729D01*
X73426494Y-33586729D01*
X73426494Y-36435461D01*
G37*
G36*
X113226163Y-34878522D02*
G01*
X113241870Y-34927015D01*
X113241870Y-34937273D01*
X113188564Y-36028306D01*
X112003192Y-36071353D01*
X112196680Y-35506072D01*
X112366259Y-34914741D01*
X113170062Y-34865465D01*
X113180321Y-34865465D01*
X113226163Y-34878522D01*
G37*
G36*
X114772848Y-36720492D02*
G01*
X110468184Y-36720492D01*
X110468184Y-36253986D01*
X110801517Y-36253986D01*
X110818095Y-36328281D01*
X110863916Y-36370855D01*
X110949162Y-36387159D01*
X110961435Y-36387159D01*
X114291870Y-36272304D01*
X114376193Y-36253138D01*
X114422536Y-36206890D01*
X114439515Y-36126674D01*
X114421450Y-36046019D01*
X114371952Y-36001600D01*
X114279596Y-35987273D01*
X113508583Y-36016032D01*
X113555661Y-34861435D01*
X113557676Y-34855207D01*
X113550052Y-34786378D01*
X113500340Y-34701517D01*
X113431034Y-34638500D01*
X113351546Y-34601413D01*
X113258356Y-34588677D01*
X113246083Y-34588677D01*
X112440081Y-34637953D01*
X112573255Y-34145743D01*
X112661549Y-33803192D01*
X113643771Y-33749886D01*
X113725188Y-33728446D01*
X113770638Y-33680407D01*
X113787386Y-33598211D01*
X113770823Y-33522300D01*
X113725430Y-33479210D01*
X113641756Y-33462840D01*
X113623255Y-33462840D01*
X111447418Y-33593998D01*
X111366695Y-33614804D01*
X111322204Y-33660535D01*
X111306001Y-33737613D01*
X111323857Y-33815432D01*
X111373083Y-33858094D01*
X111465919Y-33870969D01*
X112333469Y-33821693D01*
X112252082Y-34208949D01*
X112132336Y-34658469D01*
X111402355Y-34701517D01*
X111319582Y-34723170D01*
X111274750Y-34767934D01*
X111258740Y-34840919D01*
X111276097Y-34911359D01*
X111326517Y-34955774D01*
X111404370Y-34972077D01*
X111414628Y-34972077D01*
X112052468Y-34933243D01*
X112037997Y-34978306D01*
X111882135Y-35479466D01*
X111726404Y-35919678D01*
X111669463Y-36071353D01*
X111664855Y-36083627D01*
X110949162Y-36110371D01*
X110864642Y-36129401D01*
X110818394Y-36175096D01*
X110801517Y-36253986D01*
X110468184Y-36253986D01*
X110468184Y-33129507D01*
X114772848Y-33129507D01*
X114772848Y-36720492D01*
G37*
G36*
X89173720Y-82274316D02*
G01*
X89274366Y-82315633D01*
X89361253Y-82384420D01*
X89419347Y-82457948D01*
X89461352Y-82542447D01*
X89487503Y-82640019D01*
X89496685Y-82753471D01*
X89483101Y-82889683D01*
X89444458Y-83004426D01*
X89381769Y-83102128D01*
X89314512Y-83167022D01*
X89239334Y-83212532D01*
X89154593Y-83240197D01*
X89057781Y-83249773D01*
X88937261Y-83235510D01*
X88837685Y-83194894D01*
X88754247Y-83128057D01*
X88684578Y-83031053D01*
X88647834Y-82947642D01*
X88625306Y-82855691D01*
X88617533Y-82753471D01*
X88626753Y-82639190D01*
X88652948Y-82541415D01*
X88694919Y-82457224D01*
X88752844Y-82384420D01*
X88839717Y-82315419D01*
X88939143Y-82274207D01*
X89055094Y-82259979D01*
X89173720Y-82274316D01*
G37*
G36*
X92292372Y-83685341D02*
G01*
X86143881Y-83685341D01*
X86143881Y-82434979D01*
X86366103Y-82434979D01*
X86377451Y-82623100D01*
X86409856Y-82788389D01*
X86461558Y-82934043D01*
X86531783Y-83062765D01*
X86620774Y-83176659D01*
X86729780Y-83277128D01*
X86853108Y-83357555D01*
X86988370Y-83415345D01*
X87137750Y-83450853D01*
X87303995Y-83463119D01*
X87488494Y-83450088D01*
X87646817Y-83413146D01*
X87783201Y-83354389D01*
X87901033Y-83274329D01*
X88002652Y-83171859D01*
X88061261Y-83081523D01*
X88076413Y-83021528D01*
X88066364Y-82975012D01*
X88035503Y-82935310D01*
X87991860Y-82908436D01*
X87945255Y-82899773D01*
X87892062Y-82912180D01*
X87853664Y-82948988D01*
X87767821Y-83057081D01*
X87671655Y-83138560D01*
X87563989Y-83196457D01*
X87442515Y-83231953D01*
X87303995Y-83244277D01*
X87164962Y-83231265D01*
X87042427Y-83193645D01*
X86933088Y-83131897D01*
X86834673Y-83044310D01*
X86746145Y-82927128D01*
X86689694Y-82819571D01*
X86666105Y-82752128D01*
X88374145Y-82752128D01*
X88374247Y-82753471D01*
X88384769Y-82892020D01*
X88415397Y-83016316D01*
X88465081Y-83127605D01*
X88534124Y-83227913D01*
X88616505Y-83311392D01*
X88708309Y-83375547D01*
X88810825Y-83421797D01*
X88926024Y-83450374D01*
X89056438Y-83460310D01*
X89171457Y-83452276D01*
X89276652Y-83428867D01*
X89373587Y-83390579D01*
X89491421Y-83316201D01*
X89587865Y-83219138D01*
X89664847Y-83096632D01*
X89706157Y-82990473D01*
X89731336Y-82876162D01*
X89739951Y-82752128D01*
X89727064Y-82601162D01*
X89689921Y-82468135D01*
X89629414Y-82349757D01*
X89544557Y-82243614D01*
X89472610Y-82183408D01*
X90141487Y-82183408D01*
X90141487Y-83326343D01*
X90145687Y-83358892D01*
X90157851Y-83386549D01*
X90199870Y-83422952D01*
X90261776Y-83435764D01*
X90323425Y-83422906D01*
X90364358Y-83386549D01*
X90377546Y-83358804D01*
X90382066Y-83326343D01*
X90382066Y-82183408D01*
X90379330Y-82169731D01*
X90883374Y-82169731D01*
X90883374Y-83329152D01*
X90887682Y-83361177D01*
X90899861Y-83386549D01*
X90942764Y-83423069D01*
X91003664Y-83435764D01*
X91056014Y-83426468D01*
X91093911Y-83400226D01*
X91114310Y-83368412D01*
X91121267Y-83329152D01*
X91121267Y-82693387D01*
X91134267Y-82604171D01*
X91174877Y-82513963D01*
X91248395Y-82419958D01*
X91331717Y-82345900D01*
X91411875Y-82296912D01*
X91490181Y-82269047D01*
X91568353Y-82259979D01*
X91647952Y-82269721D01*
X91710216Y-82296924D01*
X91759345Y-82341184D01*
X91797129Y-82405560D01*
X91822610Y-82496046D01*
X91832258Y-82620847D01*
X91832258Y-83329152D01*
X91837231Y-83363618D01*
X91851309Y-83390579D01*
X91892208Y-83424080D01*
X91949861Y-83435764D01*
X91995954Y-83429230D01*
X92030522Y-83411057D01*
X92056473Y-83381053D01*
X92070150Y-83329152D01*
X92070150Y-82589462D01*
X92059952Y-82454926D01*
X92031472Y-82343790D01*
X91986741Y-82251796D01*
X91914906Y-82163370D01*
X91828441Y-82101265D01*
X91724551Y-82062979D01*
X91598395Y-82049441D01*
X91496564Y-82058206D01*
X91398591Y-82084415D01*
X91303105Y-82128698D01*
X91223632Y-82182934D01*
X91152740Y-82250409D01*
X91089881Y-82332397D01*
X91073395Y-82167044D01*
X91057328Y-82113066D01*
X91025824Y-82083341D01*
X90974965Y-82072644D01*
X90923476Y-82083756D01*
X90894383Y-82114083D01*
X90883374Y-82169731D01*
X90379330Y-82169731D01*
X90373512Y-82140653D01*
X90347872Y-82105495D01*
X90309964Y-82083124D01*
X90261776Y-82075331D01*
X90219313Y-82081643D01*
X90183863Y-82100000D01*
X90152157Y-82135722D01*
X90141487Y-82183408D01*
X89472610Y-82183408D01*
X89443567Y-82159104D01*
X89330734Y-82099034D01*
X89203688Y-82062216D01*
X89059124Y-82049441D01*
X88959596Y-82055338D01*
X88866417Y-82072644D01*
X88745002Y-82116671D01*
X88640780Y-82179666D01*
X88551336Y-82262261D01*
X88475384Y-82366591D01*
X88419603Y-82484094D01*
X88385744Y-82611813D01*
X88374145Y-82752128D01*
X86666105Y-82752128D01*
X86648824Y-82702719D01*
X86623658Y-82575101D01*
X86614986Y-82434979D01*
X86626257Y-82272644D01*
X86658680Y-82128472D01*
X86711006Y-81999668D01*
X86783147Y-81883967D01*
X86867138Y-81789230D01*
X86957874Y-81718047D01*
X87056290Y-81667826D01*
X87164061Y-81637359D01*
X87283479Y-81626901D01*
X87414166Y-81637194D01*
X87528935Y-81666749D01*
X87630511Y-81714559D01*
X87720978Y-81780960D01*
X87801640Y-81867602D01*
X87837177Y-81912665D01*
X87869214Y-81935254D01*
X87908252Y-81942829D01*
X87952998Y-81934072D01*
X87993004Y-81907170D01*
X88022292Y-81866427D01*
X88031350Y-81825226D01*
X88023088Y-81784855D01*
X87993004Y-81729483D01*
X87921142Y-81647733D01*
X87845333Y-81590020D01*
X90079937Y-81590020D01*
X90090949Y-81657197D01*
X90122547Y-81709754D01*
X90177024Y-81751343D01*
X90216780Y-81766679D01*
X90260433Y-81771859D01*
X90312498Y-81765071D01*
X90357445Y-81745279D01*
X90397087Y-81711775D01*
X90431986Y-81655318D01*
X90443615Y-81590020D01*
X90433747Y-81527472D01*
X90405237Y-81476999D01*
X90356176Y-81435537D01*
X90309570Y-81414901D01*
X90261776Y-81408182D01*
X90194141Y-81420478D01*
X90135991Y-81457397D01*
X90094037Y-81517032D01*
X90079937Y-81590020D01*
X87845333Y-81590020D01*
X87811166Y-81564009D01*
X87688985Y-81497186D01*
X87560528Y-81449611D01*
X87424494Y-81420787D01*
X87279327Y-81410990D01*
X87115518Y-81424295D01*
X86968115Y-81462926D01*
X86834166Y-81526197D01*
X86711425Y-81615086D01*
X86598500Y-81732170D01*
X86516011Y-81849760D01*
X86451627Y-81977301D01*
X86404885Y-82116154D01*
X86376049Y-82268042D01*
X86366103Y-82434979D01*
X86143881Y-82434979D01*
X86143881Y-81185960D01*
X92292372Y-81185960D01*
X92292372Y-83685341D01*
G37*
G36*
X108017742Y-33448046D02*
G01*
X108017742Y-34547322D01*
X107644234Y-34547322D01*
X107626818Y-34383666D01*
X107602102Y-34244705D01*
X107567327Y-34115542D01*
X107526631Y-34012979D01*
X107463058Y-33930351D01*
X107354439Y-33867533D01*
X107218319Y-33832449D01*
X107027093Y-33818989D01*
X106288503Y-33810563D01*
X106288503Y-34627006D01*
X106573900Y-34627006D01*
X106582327Y-34631219D01*
X106590753Y-34631219D01*
X106594783Y-34631219D01*
X106603210Y-34631219D01*
X106739680Y-34614549D01*
X106791027Y-34592580D01*
X106825776Y-34563991D01*
X106853838Y-34524545D01*
X106875968Y-34463424D01*
X106892821Y-34303872D01*
X106892821Y-34148534D01*
X107270542Y-34148534D01*
X107270542Y-35482466D01*
X106892821Y-35482466D01*
X106892821Y-35314672D01*
X106878166Y-35157318D01*
X106857502Y-35098739D01*
X106829989Y-35062979D01*
X106794079Y-35035457D01*
X106735467Y-35014802D01*
X106573900Y-34999965D01*
X106288503Y-34991721D01*
X106288503Y-35889314D01*
X107081681Y-35889314D01*
X107087909Y-35893527D01*
X107094321Y-35893527D01*
X107096336Y-35893527D01*
X107102747Y-35893527D01*
X107235322Y-35880871D01*
X107343998Y-35845350D01*
X107436788Y-35785059D01*
X107509778Y-35700453D01*
X107566332Y-35593516D01*
X107610528Y-35442716D01*
X107635129Y-35273502D01*
X107644234Y-35058766D01*
X108038625Y-35050340D01*
X108017742Y-36250000D01*
X105151125Y-36250000D01*
X105151125Y-35905617D01*
X105369295Y-35905617D01*
X105386147Y-35909647D01*
X105398787Y-35909647D01*
X105486898Y-35899206D01*
X105545699Y-35867698D01*
X105583435Y-35808897D01*
X105596074Y-35716573D01*
X105596074Y-33994112D01*
X105583435Y-33910214D01*
X105545699Y-33851413D01*
X105476273Y-33817707D01*
X105369295Y-33805068D01*
X105151125Y-33796641D01*
X105151125Y-33448046D01*
X108017742Y-33448046D01*
G37*
G36*
X109853593Y-33448046D02*
G01*
X108892437Y-37086775D01*
X108363590Y-37086775D01*
X109324747Y-33448046D01*
X109853593Y-33448046D01*
G37*
G36*
X121696301Y-33448046D02*
G01*
X121696301Y-34550619D01*
X121297697Y-34550619D01*
X121292205Y-34398483D01*
X121276631Y-34264855D01*
X121249720Y-34138427D01*
X121213616Y-34029282D01*
X121154436Y-33938285D01*
X121056263Y-33871379D01*
X120930417Y-33833231D01*
X120751997Y-33818623D01*
X120042716Y-33810197D01*
X120042716Y-34617663D01*
X120315474Y-34617663D01*
X120334342Y-34621877D01*
X120348996Y-34621877D01*
X120475026Y-34609420D01*
X120520504Y-34591762D01*
X120550497Y-34567288D01*
X120574987Y-34532243D01*
X120594644Y-34475148D01*
X120609298Y-34315596D01*
X120609298Y-34164471D01*
X120982807Y-34164471D01*
X120982807Y-35486313D01*
X120609298Y-35486313D01*
X120609298Y-35322548D01*
X120594644Y-35156952D01*
X120574706Y-35094218D01*
X120550497Y-35058217D01*
X120515609Y-35029944D01*
X120462386Y-35008025D01*
X120311261Y-34991172D01*
X120042716Y-34982745D01*
X120042716Y-35708696D01*
X120055172Y-35807431D01*
X120093091Y-35868065D01*
X120162151Y-35899572D01*
X120273525Y-35910013D01*
X120567349Y-35901770D01*
X120567349Y-36250000D01*
X118905338Y-36250000D01*
X118905338Y-35905617D01*
X119123508Y-35905617D01*
X119140361Y-35909647D01*
X119153000Y-35909647D01*
X119240928Y-35899206D01*
X119299729Y-35867698D01*
X119337465Y-35808897D01*
X119350104Y-35716573D01*
X119350104Y-33994112D01*
X119337465Y-33910214D01*
X119299729Y-33851413D01*
X119230486Y-33817707D01*
X119123508Y-33805068D01*
X118905338Y-33796641D01*
X118905338Y-33448046D01*
X121696301Y-33448046D01*
G37*
G36*
X123366189Y-33448046D02*
G01*
X122405033Y-37086775D01*
X121876186Y-37086775D01*
X122837342Y-33448046D01*
X123366189Y-33448046D01*
G37*
G36*
X142219542Y-36716462D02*
G01*
X137992731Y-36716462D01*
X137992731Y-34730094D01*
X138326064Y-34730094D01*
X138343071Y-34815957D01*
X138388038Y-34862774D01*
X138467663Y-34879937D01*
X138494225Y-34877922D01*
X139427355Y-34773325D01*
X139427355Y-35907405D01*
X139434193Y-36028441D01*
X139451901Y-36114401D01*
X139499729Y-36209947D01*
X139574466Y-36281524D01*
X139681612Y-36331838D01*
X139897507Y-36366178D01*
X140432292Y-36383129D01*
X141033014Y-36366793D01*
X141387953Y-36327808D01*
X141467809Y-36296083D01*
X141513029Y-36241582D01*
X141529370Y-36157449D01*
X141523078Y-36112925D01*
X141504823Y-36075566D01*
X141446022Y-36024058D01*
X141357178Y-36005774D01*
X141277128Y-36014017D01*
X140889189Y-36052497D01*
X140350226Y-36067323D01*
X139994188Y-36056496D01*
X139878532Y-36036549D01*
X139814305Y-35995191D01*
X139774593Y-35928776D01*
X139759647Y-35827355D01*
X139759647Y-34734307D01*
X141742594Y-34508627D01*
X141825276Y-34483521D01*
X141870256Y-34436648D01*
X141886209Y-34362997D01*
X141868790Y-34277844D01*
X141822192Y-34230793D01*
X141738564Y-34213337D01*
X141712002Y-34215352D01*
X139759647Y-34443047D01*
X139759647Y-33409534D01*
X139746718Y-33348217D01*
X139708356Y-33300724D01*
X139657600Y-33272140D01*
X139589288Y-33261889D01*
X139531325Y-33270280D01*
X139482676Y-33294678D01*
X139441442Y-33343378D01*
X139427355Y-33409534D01*
X139427355Y-34482065D01*
X138469678Y-34592707D01*
X138386133Y-34617385D01*
X138341572Y-34661911D01*
X138326064Y-34730094D01*
X137992731Y-34730094D01*
X137992731Y-32928556D01*
X142219542Y-32928556D01*
X142219542Y-36716462D01*
G37*
G36*
X51804718Y-77996884D02*
G01*
X51921685Y-78010397D01*
X52060543Y-78047273D01*
X52168981Y-78103820D01*
X52230043Y-78154756D01*
X52283461Y-78218500D01*
X52329449Y-78296772D01*
X52362961Y-78381254D01*
X52383318Y-78471705D01*
X52390265Y-78569347D01*
X52379692Y-78694317D01*
X52348997Y-78806408D01*
X52298657Y-78908016D01*
X52227722Y-79000924D01*
X52161383Y-79058267D01*
X52074507Y-79106065D01*
X51962586Y-79143432D01*
X51820021Y-79168260D01*
X51640317Y-79177390D01*
X51126553Y-79177390D01*
X51126553Y-80000000D01*
X50861549Y-80000000D01*
X50861549Y-78944870D01*
X51126553Y-78944870D01*
X51644348Y-78944870D01*
X51776934Y-78937271D01*
X51877829Y-78916949D01*
X51953451Y-78886837D01*
X52009124Y-78848639D01*
X52067831Y-78777830D01*
X52104112Y-78689246D01*
X52117080Y-78577529D01*
X52109641Y-78495123D01*
X52088296Y-78423559D01*
X52053576Y-78360764D01*
X52006340Y-78307108D01*
X51950980Y-78267810D01*
X51886148Y-78241695D01*
X51805128Y-78229443D01*
X51638852Y-78223866D01*
X51126553Y-78223866D01*
X51126553Y-78944870D01*
X50861549Y-78944870D01*
X50861549Y-77991346D01*
X51616992Y-77991346D01*
X51804718Y-77996884D01*
G37*
G36*
X53485943Y-78527164D02*
G01*
X53611479Y-78558845D01*
X53716299Y-78610871D01*
X53782205Y-78668876D01*
X53827808Y-78741947D01*
X53858775Y-78836304D01*
X53867278Y-78911817D01*
X53871110Y-79063328D01*
X53871110Y-79391468D01*
X53876331Y-79704006D01*
X53886741Y-79825732D01*
X53910029Y-79914366D01*
X53948901Y-80000000D01*
X53692080Y-80000000D01*
X53661254Y-79918403D01*
X53642865Y-79819382D01*
X53504041Y-79921442D01*
X53379937Y-79983391D01*
X53250072Y-80019092D01*
X53108705Y-80031263D01*
X52988550Y-80022878D01*
X52889590Y-79999542D01*
X52808103Y-79963151D01*
X52741120Y-79914392D01*
X52684874Y-79851768D01*
X52645248Y-79782184D01*
X52621116Y-79704193D01*
X52612770Y-79615683D01*
X52613516Y-79609455D01*
X52875087Y-79609455D01*
X52883444Y-79671915D01*
X52907882Y-79726018D01*
X52949459Y-79773953D01*
X53002966Y-79808763D01*
X53073910Y-79831412D01*
X53167446Y-79839776D01*
X53260553Y-79832548D01*
X53344280Y-79811591D01*
X53420237Y-79777372D01*
X53488242Y-79730008D01*
X53541934Y-79673392D01*
X53582781Y-79606646D01*
X53610905Y-79512302D01*
X53622348Y-79359717D01*
X53622348Y-79269225D01*
X53470932Y-79316364D01*
X53220691Y-79362770D01*
X53080664Y-79388646D01*
X53006246Y-79412229D01*
X52950001Y-79446370D01*
X52909159Y-79492341D01*
X52883657Y-79547820D01*
X52875087Y-79609455D01*
X52613516Y-79609455D01*
X52625064Y-79512989D01*
X52661253Y-79420900D01*
X52717704Y-79340950D01*
X52788259Y-79279483D01*
X52871057Y-79232968D01*
X52965213Y-79198761D01*
X53183810Y-79161880D01*
X53461382Y-79119466D01*
X53622348Y-79077739D01*
X53623814Y-79013869D01*
X53614557Y-78916596D01*
X53590333Y-78849001D01*
X53554082Y-78803087D01*
X53486327Y-78759407D01*
X53395323Y-78730793D01*
X53274058Y-78720167D01*
X53159338Y-78728390D01*
X53076486Y-78749992D01*
X53017847Y-78781716D01*
X52970932Y-78828720D01*
X52929811Y-78899023D01*
X52895604Y-78999581D01*
X52655147Y-78966852D01*
X52683188Y-78865062D01*
X52719417Y-78781961D01*
X52762980Y-78714672D01*
X52818394Y-78657404D01*
X52889852Y-78608082D01*
X52980234Y-78566905D01*
X53129194Y-78528691D01*
X53309595Y-78515003D01*
X53485943Y-78527164D01*
G37*
G36*
X54240527Y-80556995D02*
G01*
X54213172Y-80331803D01*
X54291699Y-80348664D01*
X54353856Y-80353663D01*
X54430870Y-80346004D01*
X54485014Y-80325819D01*
X54529544Y-80292608D01*
X54565614Y-80247784D01*
X54590512Y-80195993D01*
X54640841Y-80061304D01*
X54662701Y-80000000D01*
X54112055Y-78546266D01*
X54377181Y-78546266D01*
X54679065Y-79386584D01*
X54734268Y-79549084D01*
X54784211Y-79722662D01*
X54830780Y-79554961D01*
X54885328Y-79391957D01*
X55195516Y-78546266D01*
X55441469Y-78546266D01*
X54889480Y-80021859D01*
X54803123Y-80241413D01*
X54751483Y-80351221D01*
X54678158Y-80459986D01*
X54601151Y-80529396D01*
X54542389Y-80560423D01*
X54475627Y-80579527D01*
X54399040Y-80586182D01*
X54326545Y-80579370D01*
X54240527Y-80556995D01*
G37*
G36*
X56385841Y-78527946D02*
G01*
X56514074Y-78565180D01*
X56627433Y-78625818D01*
X56728384Y-78711008D01*
X56808857Y-78814124D01*
X56867838Y-78936104D01*
X56905063Y-79080655D01*
X56918283Y-79252616D01*
X56907417Y-79438580D01*
X56878120Y-79582736D01*
X56834264Y-79693230D01*
X56769674Y-79792330D01*
X56688677Y-79874934D01*
X56589655Y-79942480D01*
X56479793Y-79991669D01*
X56363579Y-80021239D01*
X56239288Y-80031263D01*
X56089713Y-80018240D01*
X55960061Y-79980943D01*
X55846635Y-79920506D01*
X55746772Y-79835990D01*
X55668157Y-79733482D01*
X55609738Y-79608770D01*
X55572368Y-79457272D01*
X55558950Y-79273133D01*
X55558997Y-79272400D01*
X55811619Y-79272400D01*
X55820648Y-79413303D01*
X55845429Y-79526332D01*
X55883385Y-79616552D01*
X55933252Y-79688101D01*
X55998741Y-79749039D01*
X56070528Y-79791577D01*
X56150009Y-79817268D01*
X56239288Y-79826099D01*
X56327812Y-79817255D01*
X56406835Y-79791487D01*
X56478435Y-79748737D01*
X56543981Y-79687369D01*
X56593640Y-79615592D01*
X56631613Y-79524273D01*
X56656512Y-79408988D01*
X56665614Y-79264340D01*
X56656657Y-79128815D01*
X56631930Y-79018861D01*
X56593775Y-78929918D01*
X56543248Y-78858286D01*
X56477433Y-78797124D01*
X56405840Y-78754562D01*
X56327132Y-78728946D01*
X56239288Y-78720167D01*
X56149974Y-78728966D01*
X56070478Y-78754558D01*
X55998703Y-78796914D01*
X55933252Y-78857554D01*
X55883408Y-78928755D01*
X55845453Y-79018692D01*
X55820658Y-79131537D01*
X55811619Y-79272400D01*
X55558997Y-79272400D01*
X55569407Y-79108776D01*
X55598705Y-78970741D01*
X55644569Y-78854809D01*
X55705940Y-78757492D01*
X55783043Y-78676203D01*
X55880838Y-78606191D01*
X55988150Y-78556192D01*
X56106829Y-78525572D01*
X56239288Y-78515003D01*
X56385841Y-78527946D01*
G37*
G36*
X58156717Y-80000000D02*
G01*
X58156717Y-79786165D01*
X58082220Y-79876293D01*
X58000242Y-79944040D01*
X57909875Y-79991964D01*
X57809378Y-80021177D01*
X57696319Y-80031263D01*
X57571338Y-80018798D01*
X57456472Y-79982048D01*
X57356488Y-79924277D01*
X57291120Y-79858339D01*
X57246121Y-79777441D01*
X57215405Y-79675767D01*
X57204875Y-79592642D01*
X57200384Y-79446057D01*
X57200384Y-78546266D01*
X57446214Y-78546266D01*
X57446214Y-79352267D01*
X57450974Y-79529603D01*
X57461235Y-79612264D01*
X57482969Y-79673241D01*
X57515613Y-79723521D01*
X57559665Y-79764794D01*
X57612241Y-79794977D01*
X57673464Y-79813670D01*
X57745412Y-79820237D01*
X57852542Y-79806090D01*
X57953140Y-79763450D01*
X58012213Y-79720376D01*
X58057487Y-79669149D01*
X58090405Y-79608845D01*
X58119063Y-79499469D01*
X58130705Y-79324912D01*
X58130705Y-78546266D01*
X58376657Y-78546266D01*
X58376657Y-80000000D01*
X58156717Y-80000000D01*
G37*
G36*
X59298063Y-79775296D02*
G01*
X59333601Y-80000000D01*
X59147732Y-80015631D01*
X59022728Y-80003761D01*
X58940126Y-79973377D01*
X58876484Y-79923503D01*
X58836322Y-79862124D01*
X58815983Y-79774196D01*
X58806281Y-79571964D01*
X58806281Y-78737752D01*
X58625907Y-78737752D01*
X58625907Y-78546266D01*
X58806281Y-78546266D01*
X58806281Y-78186130D01*
X59050768Y-78038241D01*
X59050768Y-78546266D01*
X59298063Y-78546266D01*
X59298063Y-78737752D01*
X59050768Y-78737752D01*
X59050768Y-79589305D01*
X59055022Y-79685618D01*
X59063712Y-79725104D01*
X59080727Y-79752056D01*
X59106089Y-79773098D01*
X59139266Y-79785909D01*
X59190108Y-79790928D01*
X59298063Y-79775296D01*
G37*
G36*
X59662205Y-35655977D02*
G01*
X55548052Y-35655977D01*
X55548052Y-35175000D01*
X55881385Y-35175000D01*
X55899532Y-35257681D01*
X55949379Y-35304732D01*
X56041486Y-35322644D01*
X56053759Y-35322644D01*
X59175000Y-35170969D01*
X59262035Y-35148187D01*
X59310815Y-35096316D01*
X59328872Y-35006838D01*
X59314116Y-34937418D01*
X59271353Y-34887953D01*
X59219199Y-34863307D01*
X59160711Y-34859193D01*
X59152468Y-34859193D01*
X56033243Y-35019112D01*
X55946770Y-35041259D01*
X55898904Y-35090786D01*
X55881385Y-35175000D01*
X55548052Y-35175000D01*
X55548052Y-34525860D01*
X59662205Y-34525860D01*
X59662205Y-35655977D01*
G37*
G36*
X63421301Y-79349825D02*
G01*
X63671406Y-79327843D01*
X63689540Y-79428241D01*
X63717423Y-79511132D01*
X63753960Y-79579291D01*
X63803022Y-79638441D01*
X63869136Y-79691410D01*
X63955461Y-79738171D01*
X64048348Y-79771270D01*
X64150351Y-79791691D01*
X64262962Y-79798743D01*
X64409056Y-79786876D01*
X64530652Y-79753558D01*
X64604395Y-79717975D01*
X64661070Y-79676604D01*
X64703454Y-79629605D01*
X64746194Y-79546687D01*
X64760241Y-79457536D01*
X64746363Y-79368428D01*
X64705530Y-79292550D01*
X64637987Y-79230829D01*
X64525279Y-79173970D01*
X64420102Y-79140492D01*
X64168685Y-79076029D01*
X63914632Y-79005044D01*
X63782048Y-78950610D01*
X63691568Y-78894171D01*
X63621222Y-78831896D01*
X63568214Y-78763642D01*
X63529291Y-78686658D01*
X63505856Y-78603855D01*
X63497872Y-78513660D01*
X63507370Y-78414717D01*
X63535744Y-78320497D01*
X63583845Y-78229361D01*
X63648722Y-78149586D01*
X63731612Y-78082813D01*
X63835293Y-78028593D01*
X63947419Y-77991103D01*
X64069434Y-77968026D01*
X64202879Y-77960083D01*
X64349949Y-77968595D01*
X64480100Y-77992956D01*
X64595621Y-78031891D01*
X64702228Y-78088471D01*
X64788568Y-78158616D01*
X64857205Y-78242916D01*
X64908568Y-78339168D01*
X64941377Y-78443676D01*
X64955635Y-78558356D01*
X64701500Y-78577529D01*
X64675369Y-78456245D01*
X64628820Y-78362270D01*
X64562770Y-78289933D01*
X64478469Y-78238836D01*
X64365014Y-78205147D01*
X64213747Y-78192602D01*
X64055011Y-78204446D01*
X63941972Y-78235412D01*
X63863259Y-78280774D01*
X63800768Y-78345560D01*
X63765216Y-78415525D01*
X63753350Y-78493387D01*
X63762219Y-78561883D01*
X63787940Y-78620279D01*
X63831263Y-78671074D01*
X63889913Y-78708674D01*
X64011716Y-78755954D01*
X64230844Y-78813956D01*
X64527582Y-78889608D01*
X64674145Y-78941695D01*
X64784998Y-79003238D01*
X64869679Y-79071405D01*
X64932310Y-79146127D01*
X64978285Y-79231892D01*
X65006149Y-79326184D01*
X65015719Y-79431158D01*
X65005657Y-79535180D01*
X64975485Y-79635119D01*
X64924128Y-79732676D01*
X64855510Y-79818701D01*
X64768717Y-79891884D01*
X64661200Y-79952739D01*
X64544527Y-79995677D01*
X64416494Y-80022132D01*
X64275174Y-80031263D01*
X64094947Y-80021425D01*
X63944610Y-79994042D01*
X63819539Y-79951639D01*
X63704753Y-79888793D01*
X63609411Y-79809240D01*
X63531333Y-79711915D01*
X63472950Y-79601263D01*
X63436276Y-79481316D01*
X63421301Y-79349825D01*
G37*
G36*
X65883025Y-79775296D02*
G01*
X65918562Y-80000000D01*
X65732694Y-80015631D01*
X65607690Y-80003761D01*
X65525087Y-79973377D01*
X65461446Y-79923503D01*
X65421284Y-79862124D01*
X65400945Y-79774196D01*
X65391242Y-79571964D01*
X65391242Y-78737752D01*
X65210869Y-78737752D01*
X65210869Y-78546266D01*
X65391242Y-78546266D01*
X65391242Y-78186130D01*
X65635729Y-78038241D01*
X65635729Y-78546266D01*
X65883025Y-78546266D01*
X65883025Y-78737752D01*
X65635729Y-78737752D01*
X65635729Y-79589305D01*
X65639984Y-79685618D01*
X65648674Y-79725104D01*
X65665689Y-79752056D01*
X65691050Y-79773098D01*
X65724228Y-79785909D01*
X65775070Y-79790928D01*
X65883025Y-79775296D01*
G37*
G36*
X66913612Y-78527164D02*
G01*
X67039149Y-78558845D01*
X67143968Y-78610871D01*
X67209874Y-78668876D01*
X67255477Y-78741947D01*
X67286445Y-78836304D01*
X67294947Y-78911817D01*
X67298779Y-79063328D01*
X67298779Y-79391468D01*
X67304001Y-79704006D01*
X67314410Y-79825732D01*
X67337698Y-79914366D01*
X67376570Y-80000000D01*
X67119749Y-80000000D01*
X67088923Y-79918403D01*
X67070534Y-79819382D01*
X66931710Y-79921442D01*
X66807606Y-79983391D01*
X66677741Y-80019092D01*
X66536375Y-80031263D01*
X66416219Y-80022878D01*
X66317259Y-79999542D01*
X66235772Y-79963151D01*
X66168789Y-79914392D01*
X66112544Y-79851768D01*
X66072917Y-79782184D01*
X66048785Y-79704193D01*
X66040440Y-79615683D01*
X66041186Y-79609455D01*
X66302756Y-79609455D01*
X66311113Y-79671915D01*
X66335551Y-79726018D01*
X66377128Y-79773953D01*
X66430636Y-79808763D01*
X66501579Y-79831412D01*
X66595115Y-79839776D01*
X66688222Y-79832548D01*
X66771949Y-79811591D01*
X66847906Y-79777372D01*
X66915911Y-79730008D01*
X66969604Y-79673392D01*
X67010450Y-79606646D01*
X67038574Y-79512302D01*
X67050017Y-79359717D01*
X67050017Y-79269225D01*
X66898601Y-79316364D01*
X66648360Y-79362770D01*
X66508333Y-79388646D01*
X66433915Y-79412229D01*
X66377671Y-79446370D01*
X66336828Y-79492341D01*
X66311326Y-79547820D01*
X66302756Y-79609455D01*
X66041186Y-79609455D01*
X66052733Y-79512989D01*
X66088922Y-79420900D01*
X66145373Y-79340950D01*
X66215928Y-79279483D01*
X66298726Y-79232968D01*
X66392882Y-79198761D01*
X66611479Y-79161880D01*
X66889051Y-79119466D01*
X67050017Y-79077739D01*
X67051483Y-79013869D01*
X67042227Y-78916596D01*
X67018002Y-78849001D01*
X66981752Y-78803087D01*
X66913997Y-78759407D01*
X66822992Y-78730793D01*
X66701727Y-78720167D01*
X66587008Y-78728390D01*
X66504155Y-78749992D01*
X66445516Y-78781716D01*
X66398601Y-78828720D01*
X66357480Y-78899023D01*
X66323273Y-78999581D01*
X66082816Y-78966852D01*
X66110857Y-78865062D01*
X66147086Y-78781961D01*
X66190649Y-78714672D01*
X66246063Y-78657404D01*
X66317521Y-78608082D01*
X66407903Y-78566905D01*
X66556864Y-78528691D01*
X66737264Y-78515003D01*
X66913612Y-78527164D01*
G37*
G36*
X67676378Y-80000000D02*
G01*
X67676378Y-78546266D01*
X67897662Y-78546266D01*
X67897662Y-78765718D01*
X67986412Y-78629497D01*
X68054100Y-78563852D01*
X68129548Y-78527184D01*
X68211881Y-78515003D01*
X68292828Y-78523251D01*
X68376584Y-78548800D01*
X68464672Y-78593771D01*
X68380042Y-78820429D01*
X68288117Y-78779903D01*
X68199669Y-78767062D01*
X68123154Y-78779215D01*
X68054832Y-78815666D01*
X68000494Y-78872712D01*
X67963241Y-78950610D01*
X67932880Y-79086063D01*
X67922331Y-79238328D01*
X67922331Y-80000000D01*
X67676378Y-80000000D01*
G37*
G36*
X69148063Y-79775296D02*
G01*
X69183601Y-80000000D01*
X68997732Y-80015631D01*
X68872728Y-80003761D01*
X68790126Y-79973377D01*
X68726484Y-79923503D01*
X68686322Y-79862124D01*
X68665983Y-79774196D01*
X68656281Y-79571964D01*
X68656281Y-78737752D01*
X68475907Y-78737752D01*
X68475907Y-78546266D01*
X68656281Y-78546266D01*
X68656281Y-78186130D01*
X68900768Y-78038241D01*
X68900768Y-78546266D01*
X69148063Y-78546266D01*
X69148063Y-78737752D01*
X68900768Y-78737752D01*
X68900768Y-79589305D01*
X68905022Y-79685618D01*
X68913712Y-79725104D01*
X68930727Y-79752056D01*
X68956089Y-79773098D01*
X68989266Y-79785909D01*
X69040108Y-79790928D01*
X69148063Y-79775296D01*
G37*
G36*
X107944042Y-77999729D02*
G01*
X108080827Y-78020167D01*
X108191896Y-78054540D01*
X108289242Y-78102521D01*
X108374651Y-78164026D01*
X108470530Y-78260791D01*
X108549342Y-78374445D01*
X108611566Y-78507187D01*
X108654211Y-78648576D01*
X108680901Y-78806933D01*
X108690213Y-78984682D01*
X108683829Y-79136765D01*
X108665636Y-79271336D01*
X108636845Y-79390369D01*
X108573775Y-79556699D01*
X108500192Y-79682850D01*
X108410913Y-79788331D01*
X108317864Y-79865055D01*
X108211430Y-79922246D01*
X108078751Y-79965806D01*
X107933235Y-79990924D01*
X107757083Y-80000000D01*
X107034368Y-80000000D01*
X107034368Y-79767480D01*
X107299372Y-79767480D01*
X107727041Y-79767480D01*
X107914209Y-79756899D01*
X108037840Y-79730355D01*
X108141628Y-79684056D01*
X108217481Y-79625575D01*
X108273691Y-79557773D01*
X108322780Y-79473457D01*
X108364270Y-79369853D01*
X108392283Y-79261541D01*
X108410409Y-79132835D01*
X108416905Y-78980530D01*
X108409140Y-78817655D01*
X108387825Y-78685342D01*
X108355439Y-78578687D01*
X108313712Y-78493387D01*
X108236679Y-78388605D01*
X108153441Y-78314140D01*
X108063119Y-78265265D01*
X107989904Y-78244639D01*
X107879515Y-78229714D01*
X107720202Y-78223866D01*
X107299372Y-78223866D01*
X107299372Y-79767480D01*
X107034368Y-79767480D01*
X107034368Y-77991346D01*
X107724232Y-77991346D01*
X107944042Y-77999729D01*
G37*
G36*
X109758660Y-78527946D02*
G01*
X109886893Y-78565180D01*
X110000252Y-78625818D01*
X110101203Y-78711008D01*
X110181676Y-78814124D01*
X110240657Y-78936104D01*
X110277882Y-79080655D01*
X110291102Y-79252616D01*
X110280236Y-79438580D01*
X110250939Y-79582736D01*
X110207083Y-79693230D01*
X110142493Y-79792330D01*
X110061496Y-79874934D01*
X109962474Y-79942480D01*
X109852612Y-79991669D01*
X109736398Y-80021239D01*
X109612107Y-80031263D01*
X109462532Y-80018240D01*
X109332880Y-79980943D01*
X109219454Y-79920506D01*
X109119591Y-79835990D01*
X109040976Y-79733482D01*
X108982557Y-79608770D01*
X108945187Y-79457272D01*
X108931769Y-79273133D01*
X108931816Y-79272400D01*
X109184438Y-79272400D01*
X109193467Y-79413303D01*
X109218248Y-79526332D01*
X109256204Y-79616552D01*
X109306071Y-79688101D01*
X109371560Y-79749039D01*
X109443347Y-79791577D01*
X109522828Y-79817268D01*
X109612107Y-79826099D01*
X109700631Y-79817255D01*
X109779654Y-79791487D01*
X109851254Y-79748737D01*
X109916800Y-79687369D01*
X109966459Y-79615592D01*
X110004432Y-79524273D01*
X110029331Y-79408988D01*
X110038433Y-79264340D01*
X110029476Y-79128815D01*
X110004749Y-79018861D01*
X109966594Y-78929918D01*
X109916067Y-78858286D01*
X109850252Y-78797124D01*
X109778659Y-78754562D01*
X109699951Y-78728946D01*
X109612107Y-78720167D01*
X109522793Y-78728966D01*
X109443297Y-78754558D01*
X109371522Y-78796914D01*
X109306071Y-78857554D01*
X109256227Y-78928755D01*
X109218272Y-79018692D01*
X109193477Y-79131537D01*
X109184438Y-79272400D01*
X108931816Y-79272400D01*
X108942226Y-79108776D01*
X108971524Y-78970741D01*
X109017388Y-78854809D01*
X109078759Y-78757492D01*
X109155862Y-78676203D01*
X109253657Y-78606191D01*
X109360969Y-78556192D01*
X109479648Y-78525572D01*
X109612107Y-78515003D01*
X109758660Y-78527946D01*
G37*
G36*
X111529536Y-80000000D02*
G01*
X111529536Y-79786165D01*
X111455039Y-79876293D01*
X111373061Y-79944040D01*
X111282694Y-79991964D01*
X111182197Y-80021177D01*
X111069138Y-80031263D01*
X110944157Y-80018798D01*
X110829291Y-79982048D01*
X110729307Y-79924277D01*
X110663939Y-79858339D01*
X110618940Y-79777441D01*
X110588224Y-79675767D01*
X110577694Y-79592642D01*
X110573203Y-79446057D01*
X110573203Y-78546266D01*
X110819033Y-78546266D01*
X110819033Y-79352267D01*
X110823793Y-79529603D01*
X110834054Y-79612264D01*
X110855788Y-79673241D01*
X110888432Y-79723521D01*
X110932484Y-79764794D01*
X110985060Y-79794977D01*
X111046283Y-79813670D01*
X111118231Y-79820237D01*
X111225361Y-79806090D01*
X111325959Y-79763450D01*
X111385032Y-79720376D01*
X111430306Y-79669149D01*
X111463224Y-79608845D01*
X111491882Y-79499469D01*
X111503524Y-79324912D01*
X111503524Y-78546266D01*
X111749476Y-78546266D01*
X111749476Y-80000000D01*
X111529536Y-80000000D01*
G37*
G36*
X112378524Y-78713206D02*
G01*
X112463643Y-78624918D01*
X112556847Y-78564010D01*
X112659970Y-78527512D01*
X112776029Y-78515003D01*
X112906718Y-78528567D01*
X113029553Y-78568981D01*
X113139145Y-78634374D01*
X113226291Y-78720655D01*
X113293963Y-78826117D01*
X113347191Y-78956228D01*
X113379762Y-79097523D01*
X113390910Y-79251273D01*
X113377745Y-79438431D01*
X113341013Y-79593353D01*
X113283568Y-79721656D01*
X113206385Y-79827808D01*
X113107239Y-79918567D01*
X113001759Y-79981214D01*
X112888173Y-80018571D01*
X112763817Y-80031263D01*
X112641009Y-80017357D01*
X112535182Y-79977188D01*
X112442458Y-79910512D01*
X112360694Y-79813764D01*
X112360694Y-80000000D01*
X112132571Y-80000000D01*
X112132571Y-79262264D01*
X112358007Y-79262264D01*
X112367886Y-79435749D01*
X112393247Y-79556335D01*
X112429082Y-79637299D01*
X112494996Y-79722695D01*
X112568126Y-79780339D01*
X112649899Y-79814436D01*
X112743300Y-79826099D01*
X112820274Y-79817603D01*
X112891322Y-79792407D01*
X112958191Y-79749659D01*
X113021982Y-79686880D01*
X113070100Y-79615016D01*
X113106785Y-79524707D01*
X113130741Y-79411925D01*
X113139462Y-79271789D01*
X113130894Y-79127226D01*
X113107590Y-79013141D01*
X113072349Y-78923882D01*
X113026744Y-78854745D01*
X112944337Y-78778575D01*
X112854622Y-78734847D01*
X112754169Y-78720167D01*
X112677203Y-78728668D01*
X112606158Y-78753883D01*
X112539287Y-78796668D01*
X112475488Y-78859508D01*
X112426956Y-78931439D01*
X112390301Y-79020095D01*
X112366580Y-79128954D01*
X112358007Y-79262264D01*
X112132571Y-79262264D01*
X112132571Y-77991346D01*
X112378524Y-77991346D01*
X112378524Y-78713206D01*
G37*
G36*
X113683880Y-80000000D02*
G01*
X113683880Y-77991346D01*
X113929710Y-77991346D01*
X113929710Y-80000000D01*
X113683880Y-80000000D01*
G37*
G36*
X115048423Y-78528003D02*
G01*
X115172922Y-78565464D01*
X115283230Y-78626678D01*
X115381734Y-78713084D01*
X115459256Y-78816673D01*
X115516653Y-78941069D01*
X115553198Y-79090436D01*
X115566259Y-79270080D01*
X115564794Y-79335659D01*
X114482798Y-79335659D01*
X114497784Y-79454665D01*
X114526179Y-79552821D01*
X114566421Y-79633616D01*
X114617986Y-79699825D01*
X114705739Y-79769970D01*
X114805553Y-79811724D01*
X114921336Y-79826099D01*
X115009223Y-79817876D01*
X115085435Y-79794262D01*
X115152268Y-79755757D01*
X115208725Y-79702886D01*
X115259430Y-79629522D01*
X115303942Y-79531053D01*
X115558077Y-79562438D01*
X115504989Y-79703075D01*
X115430863Y-79816967D01*
X115335328Y-79908286D01*
X115251597Y-79960491D01*
X115155926Y-79998801D01*
X115046238Y-80022824D01*
X114919993Y-80031263D01*
X114763060Y-80017960D01*
X114629246Y-79980157D01*
X114514304Y-79919447D01*
X114415143Y-79835258D01*
X114336582Y-79732431D01*
X114278612Y-79609403D01*
X114241798Y-79462143D01*
X114228663Y-79285467D01*
X114239950Y-79130495D01*
X114496476Y-79130495D01*
X115306629Y-79130495D01*
X115287084Y-79012548D01*
X115255346Y-78924583D01*
X115213695Y-78860118D01*
X115150100Y-78798505D01*
X115079267Y-78755378D01*
X114999678Y-78729211D01*
X114909002Y-78720167D01*
X114800609Y-78732947D01*
X114706832Y-78770007D01*
X114624215Y-78831908D01*
X114559889Y-78912750D01*
X114517143Y-79010831D01*
X114496476Y-79130495D01*
X114239950Y-79130495D01*
X114242002Y-79102313D01*
X114279332Y-78949960D01*
X114337980Y-78823012D01*
X114417219Y-78717236D01*
X114517898Y-78629178D01*
X114631119Y-78566665D01*
X114759398Y-78528329D01*
X114906315Y-78515003D01*
X115048423Y-78528003D01*
G37*
G36*
X110992324Y-81351346D02*
G01*
X111257327Y-81351346D01*
X111257327Y-82510157D01*
X111248431Y-82712253D01*
X111224503Y-82869664D01*
X111189062Y-82990460D01*
X111132217Y-83100304D01*
X111051063Y-83196242D01*
X110942498Y-83279766D01*
X110818717Y-83339090D01*
X110665041Y-83377388D01*
X110474529Y-83391263D01*
X110288674Y-83379180D01*
X110137185Y-83345777D01*
X110014009Y-83294176D01*
X109905356Y-83219066D01*
X109820997Y-83126042D01*
X109758531Y-83012930D01*
X109718885Y-82887608D01*
X109692076Y-82723026D01*
X109682083Y-82510157D01*
X109682083Y-81351346D01*
X109947209Y-81351346D01*
X109947209Y-82513210D01*
X109953961Y-82689780D01*
X109971351Y-82814707D01*
X109995691Y-82899846D01*
X110035802Y-82976471D01*
X110090807Y-83039835D01*
X110162265Y-83091454D01*
X110243672Y-83127751D01*
X110339085Y-83150640D01*
X110451326Y-83158743D01*
X110600145Y-83148559D01*
X110714776Y-83121056D01*
X110802220Y-83079565D01*
X110868004Y-83025509D01*
X110915787Y-82956717D01*
X110954765Y-82855648D01*
X110981919Y-82711963D01*
X110992324Y-82513210D01*
X110992324Y-81351346D01*
G37*
G36*
X112432729Y-81885986D02*
G01*
X112541155Y-81917941D01*
X112639620Y-81970624D01*
X112725618Y-82042054D01*
X112796939Y-82131137D01*
X112854187Y-82240390D01*
X112893956Y-82358445D01*
X112918280Y-82485258D01*
X112926605Y-82622264D01*
X112917302Y-82768959D01*
X112890345Y-82901950D01*
X112846616Y-83023189D01*
X112784122Y-83134444D01*
X112706971Y-83224667D01*
X112614341Y-83296374D01*
X112509632Y-83349664D01*
X112403423Y-83380888D01*
X112294016Y-83391263D01*
X112176066Y-83377771D01*
X112073465Y-83338628D01*
X111983640Y-83278283D01*
X111912875Y-83205516D01*
X111912875Y-83914919D01*
X111666923Y-83914919D01*
X111666923Y-82639239D01*
X111889672Y-82639239D01*
X111898257Y-82782065D01*
X111921635Y-82895022D01*
X111957056Y-82983637D01*
X112003001Y-83052498D01*
X112085816Y-83128003D01*
X112176219Y-83171476D01*
X112277652Y-83186099D01*
X112356147Y-83177577D01*
X112428017Y-83152402D01*
X112495060Y-83109890D01*
X112558409Y-83047735D01*
X112605743Y-82976465D01*
X112642275Y-82884591D01*
X112666411Y-82767311D01*
X112675279Y-82618845D01*
X112666733Y-82477777D01*
X112643333Y-82364887D01*
X112607654Y-82275110D01*
X112561096Y-82204242D01*
X112477664Y-82125971D01*
X112387973Y-82081371D01*
X112288643Y-82066489D01*
X112214178Y-82075203D01*
X112144054Y-82101330D01*
X112076544Y-82146263D01*
X112010572Y-82213157D01*
X111960797Y-82288667D01*
X111923051Y-82382197D01*
X111898547Y-82497528D01*
X111889672Y-82639239D01*
X111666923Y-82639239D01*
X111666923Y-81906266D01*
X111891015Y-81906266D01*
X111891015Y-82095188D01*
X111977331Y-81997095D01*
X112069923Y-81930080D01*
X112138505Y-81900343D01*
X112218405Y-81881619D01*
X112311846Y-81875003D01*
X112432729Y-81885986D01*
G37*
G36*
X66025898Y-33466753D02*
G01*
X66213616Y-33502634D01*
X66384280Y-33560931D01*
X66520080Y-33636906D01*
X66627553Y-33739218D01*
X66704727Y-33860205D01*
X66751350Y-33998635D01*
X66767742Y-34163005D01*
X66758970Y-34272876D01*
X66734036Y-34367070D01*
X66692234Y-34452683D01*
X66633469Y-34529187D01*
X66558939Y-34596488D01*
X66459080Y-34663825D01*
X66345470Y-34722872D01*
X66212910Y-34776828D01*
X66327986Y-34812514D01*
X66444426Y-34861662D01*
X66552652Y-34923831D01*
X66650139Y-35000514D01*
X66734731Y-35089140D01*
X66794853Y-35194138D01*
X66830582Y-35313255D01*
X66843213Y-35454989D01*
X66825146Y-35640753D01*
X66773970Y-35796074D01*
X66689052Y-35932096D01*
X66570455Y-36048499D01*
X66425221Y-36138032D01*
X66247322Y-36201823D01*
X66051061Y-36237248D01*
X65815012Y-36250000D01*
X63901125Y-36250000D01*
X63901125Y-35905617D01*
X64119295Y-35905617D01*
X64136147Y-35909647D01*
X64148787Y-35909647D01*
X64181252Y-35905800D01*
X65038503Y-35905800D01*
X65550497Y-35905800D01*
X65558923Y-35910013D01*
X65567349Y-35910013D01*
X65575776Y-35910013D01*
X65584202Y-35910013D01*
X65705588Y-35903279D01*
X65802372Y-35884918D01*
X65888698Y-35851624D01*
X65957711Y-35805050D01*
X66012665Y-35739894D01*
X66054064Y-35658321D01*
X66078871Y-35565583D01*
X66087770Y-35452608D01*
X66078985Y-35347198D01*
X66054064Y-35257519D01*
X66012592Y-35178394D01*
X65957711Y-35116835D01*
X65884620Y-35066423D01*
X65795961Y-35030739D01*
X65697771Y-35010650D01*
X65579989Y-35003445D01*
X65038503Y-34995019D01*
X65038503Y-35905800D01*
X64181252Y-35905800D01*
X64236898Y-35899206D01*
X64295699Y-35867698D01*
X64333435Y-35808897D01*
X64346074Y-35716573D01*
X64346074Y-34629021D01*
X65038503Y-34629021D01*
X65504335Y-34629021D01*
X65523203Y-34633234D01*
X65542070Y-34633234D01*
X65663710Y-34627028D01*
X65760423Y-34610153D01*
X65846686Y-34580230D01*
X65911549Y-34540910D01*
X65966188Y-34483705D01*
X66005887Y-34410851D01*
X66029026Y-34326558D01*
X66037395Y-34221807D01*
X66029025Y-34117241D01*
X66005887Y-34033129D01*
X65966811Y-33960587D01*
X65915762Y-33907100D01*
X65849816Y-33868177D01*
X65756210Y-33837857D01*
X65650154Y-33821050D01*
X65512761Y-33814776D01*
X65038503Y-33806350D01*
X65038503Y-34629021D01*
X64346074Y-34629021D01*
X64346074Y-33994112D01*
X64333435Y-33910214D01*
X64295699Y-33851413D01*
X64226273Y-33817707D01*
X64119295Y-33805068D01*
X63901125Y-33796641D01*
X63901125Y-33448046D01*
X65798159Y-33448046D01*
X66025898Y-33466753D01*
G37*
G36*
X68586008Y-33448046D02*
G01*
X67624851Y-37086775D01*
X67096004Y-37086775D01*
X68057161Y-33448046D01*
X68586008Y-33448046D01*
G37*
X108666667Y-43407200D02*
X108809524Y-43454819D01*
X108809524Y-43454819D02*
X109047619Y-43454819D01*
X109047619Y-43454819D02*
X109142857Y-43407200D01*
X109142857Y-43407200D02*
X109190476Y-43359580D01*
X109190476Y-43359580D02*
X109238095Y-43264342D01*
X109238095Y-43264342D02*
X109238095Y-43169104D01*
X109238095Y-43169104D02*
X109190476Y-43073866D01*
X109190476Y-43073866D02*
X109142857Y-43026247D01*
X109142857Y-43026247D02*
X109047619Y-42978628D01*
X109047619Y-42978628D02*
X108857143Y-42931009D01*
X108857143Y-42931009D02*
X108761905Y-42883390D01*
X108761905Y-42883390D02*
X108714286Y-42835771D01*
X108714286Y-42835771D02*
X108666667Y-42740533D01*
X108666667Y-42740533D02*
X108666667Y-42645295D01*
X108666667Y-42645295D02*
X108714286Y-42550057D01*
X108714286Y-42550057D02*
X108761905Y-42502438D01*
X108761905Y-42502438D02*
X108857143Y-42454819D01*
X108857143Y-42454819D02*
X109095238Y-42454819D01*
X109095238Y-42454819D02*
X109238095Y-42502438D01*
X109571429Y-42454819D02*
X109809524Y-43454819D01*
X109809524Y-43454819D02*
X110000000Y-42740533D01*
X110000000Y-42740533D02*
X110190476Y-43454819D01*
X110190476Y-43454819D02*
X110428572Y-42454819D01*
X111285714Y-42454819D02*
X110809524Y-42454819D01*
X110809524Y-42454819D02*
X110761905Y-42931009D01*
X110761905Y-42931009D02*
X110809524Y-42883390D01*
X110809524Y-42883390D02*
X110904762Y-42835771D01*
X110904762Y-42835771D02*
X111142857Y-42835771D01*
X111142857Y-42835771D02*
X111238095Y-42883390D01*
X111238095Y-42883390D02*
X111285714Y-42931009D01*
X111285714Y-42931009D02*
X111333333Y-43026247D01*
X111333333Y-43026247D02*
X111333333Y-43264342D01*
X111333333Y-43264342D02*
X111285714Y-43359580D01*
X111285714Y-43359580D02*
X111238095Y-43407200D01*
X111238095Y-43407200D02*
X111142857Y-43454819D01*
X111142857Y-43454819D02*
X110904762Y-43454819D01*
X110904762Y-43454819D02*
X110809524Y-43407200D01*
X110809524Y-43407200D02*
X110761905Y-43359580D01*
X136166667Y-43407200D02*
X136309524Y-43454819D01*
X136309524Y-43454819D02*
X136547619Y-43454819D01*
X136547619Y-43454819D02*
X136642857Y-43407200D01*
X136642857Y-43407200D02*
X136690476Y-43359580D01*
X136690476Y-43359580D02*
X136738095Y-43264342D01*
X136738095Y-43264342D02*
X136738095Y-43169104D01*
X136738095Y-43169104D02*
X136690476Y-43073866D01*
X136690476Y-43073866D02*
X136642857Y-43026247D01*
X136642857Y-43026247D02*
X136547619Y-42978628D01*
X136547619Y-42978628D02*
X136357143Y-42931009D01*
X136357143Y-42931009D02*
X136261905Y-42883390D01*
X136261905Y-42883390D02*
X136214286Y-42835771D01*
X136214286Y-42835771D02*
X136166667Y-42740533D01*
X136166667Y-42740533D02*
X136166667Y-42645295D01*
X136166667Y-42645295D02*
X136214286Y-42550057D01*
X136214286Y-42550057D02*
X136261905Y-42502438D01*
X136261905Y-42502438D02*
X136357143Y-42454819D01*
X136357143Y-42454819D02*
X136595238Y-42454819D01*
X136595238Y-42454819D02*
X136738095Y-42502438D01*
X137071429Y-42454819D02*
X137309524Y-43454819D01*
X137309524Y-43454819D02*
X137500000Y-42740533D01*
X137500000Y-42740533D02*
X137690476Y-43454819D01*
X137690476Y-43454819D02*
X137928572Y-42454819D01*
X138214286Y-42454819D02*
X138880952Y-42454819D01*
X138880952Y-42454819D02*
X138452381Y-43454819D01*
X109440476Y-69657200D02*
X109583333Y-69704819D01*
X109583333Y-69704819D02*
X109821428Y-69704819D01*
X109821428Y-69704819D02*
X109916666Y-69657200D01*
X109916666Y-69657200D02*
X109964285Y-69609580D01*
X109964285Y-69609580D02*
X110011904Y-69514342D01*
X110011904Y-69514342D02*
X110011904Y-69419104D01*
X110011904Y-69419104D02*
X109964285Y-69323866D01*
X109964285Y-69323866D02*
X109916666Y-69276247D01*
X109916666Y-69276247D02*
X109821428Y-69228628D01*
X109821428Y-69228628D02*
X109630952Y-69181009D01*
X109630952Y-69181009D02*
X109535714Y-69133390D01*
X109535714Y-69133390D02*
X109488095Y-69085771D01*
X109488095Y-69085771D02*
X109440476Y-68990533D01*
X109440476Y-68990533D02*
X109440476Y-68895295D01*
X109440476Y-68895295D02*
X109488095Y-68800057D01*
X109488095Y-68800057D02*
X109535714Y-68752438D01*
X109535714Y-68752438D02*
X109630952Y-68704819D01*
X109630952Y-68704819D02*
X109869047Y-68704819D01*
X109869047Y-68704819D02*
X110011904Y-68752438D01*
X110345238Y-68704819D02*
X110583333Y-69704819D01*
X110583333Y-69704819D02*
X110773809Y-68990533D01*
X110773809Y-68990533D02*
X110964285Y-69704819D01*
X110964285Y-69704819D02*
X111202381Y-68704819D01*
X112107142Y-69704819D02*
X111535714Y-69704819D01*
X111821428Y-69704819D02*
X111821428Y-68704819D01*
X111821428Y-68704819D02*
X111726190Y-68847676D01*
X111726190Y-68847676D02*
X111630952Y-68942914D01*
X111630952Y-68942914D02*
X111535714Y-68990533D01*
X112583333Y-69704819D02*
X112773809Y-69704819D01*
X112773809Y-69704819D02*
X112869047Y-69657200D01*
X112869047Y-69657200D02*
X112916666Y-69609580D01*
X112916666Y-69609580D02*
X113011904Y-69466723D01*
X113011904Y-69466723D02*
X113059523Y-69276247D01*
X113059523Y-69276247D02*
X113059523Y-68895295D01*
X113059523Y-68895295D02*
X113011904Y-68800057D01*
X113011904Y-68800057D02*
X112964285Y-68752438D01*
X112964285Y-68752438D02*
X112869047Y-68704819D01*
X112869047Y-68704819D02*
X112678571Y-68704819D01*
X112678571Y-68704819D02*
X112583333Y-68752438D01*
X112583333Y-68752438D02*
X112535714Y-68800057D01*
X112535714Y-68800057D02*
X112488095Y-68895295D01*
X112488095Y-68895295D02*
X112488095Y-69133390D01*
X112488095Y-69133390D02*
X112535714Y-69228628D01*
X112535714Y-69228628D02*
X112583333Y-69276247D01*
X112583333Y-69276247D02*
X112678571Y-69323866D01*
X112678571Y-69323866D02*
X112869047Y-69323866D01*
X112869047Y-69323866D02*
X112964285Y-69276247D01*
X112964285Y-69276247D02*
X113011904Y-69228628D01*
X113011904Y-69228628D02*
X113059523Y-69133390D01*
X64440476Y-68407200D02*
X64583333Y-68454819D01*
X64583333Y-68454819D02*
X64821428Y-68454819D01*
X64821428Y-68454819D02*
X64916666Y-68407200D01*
X64916666Y-68407200D02*
X64964285Y-68359580D01*
X64964285Y-68359580D02*
X65011904Y-68264342D01*
X65011904Y-68264342D02*
X65011904Y-68169104D01*
X65011904Y-68169104D02*
X64964285Y-68073866D01*
X64964285Y-68073866D02*
X64916666Y-68026247D01*
X64916666Y-68026247D02*
X64821428Y-67978628D01*
X64821428Y-67978628D02*
X64630952Y-67931009D01*
X64630952Y-67931009D02*
X64535714Y-67883390D01*
X64535714Y-67883390D02*
X64488095Y-67835771D01*
X64488095Y-67835771D02*
X64440476Y-67740533D01*
X64440476Y-67740533D02*
X64440476Y-67645295D01*
X64440476Y-67645295D02*
X64488095Y-67550057D01*
X64488095Y-67550057D02*
X64535714Y-67502438D01*
X64535714Y-67502438D02*
X64630952Y-67454819D01*
X64630952Y-67454819D02*
X64869047Y-67454819D01*
X64869047Y-67454819D02*
X65011904Y-67502438D01*
X65345238Y-67454819D02*
X65583333Y-68454819D01*
X65583333Y-68454819D02*
X65773809Y-67740533D01*
X65773809Y-67740533D02*
X65964285Y-68454819D01*
X65964285Y-68454819D02*
X66202381Y-67454819D01*
X67107142Y-68454819D02*
X66535714Y-68454819D01*
X66821428Y-68454819D02*
X66821428Y-67454819D01*
X66821428Y-67454819D02*
X66726190Y-67597676D01*
X66726190Y-67597676D02*
X66630952Y-67692914D01*
X66630952Y-67692914D02*
X66535714Y-67740533D01*
X67964285Y-67454819D02*
X67773809Y-67454819D01*
X67773809Y-67454819D02*
X67678571Y-67502438D01*
X67678571Y-67502438D02*
X67630952Y-67550057D01*
X67630952Y-67550057D02*
X67535714Y-67692914D01*
X67535714Y-67692914D02*
X67488095Y-67883390D01*
X67488095Y-67883390D02*
X67488095Y-68264342D01*
X67488095Y-68264342D02*
X67535714Y-68359580D01*
X67535714Y-68359580D02*
X67583333Y-68407200D01*
X67583333Y-68407200D02*
X67678571Y-68454819D01*
X67678571Y-68454819D02*
X67869047Y-68454819D01*
X67869047Y-68454819D02*
X67964285Y-68407200D01*
X67964285Y-68407200D02*
X68011904Y-68359580D01*
X68011904Y-68359580D02*
X68059523Y-68264342D01*
X68059523Y-68264342D02*
X68059523Y-68026247D01*
X68059523Y-68026247D02*
X68011904Y-67931009D01*
X68011904Y-67931009D02*
X67964285Y-67883390D01*
X67964285Y-67883390D02*
X67869047Y-67835771D01*
X67869047Y-67835771D02*
X67678571Y-67835771D01*
X67678571Y-67835771D02*
X67583333Y-67883390D01*
X67583333Y-67883390D02*
X67535714Y-67931009D01*
X67535714Y-67931009D02*
X67488095Y-68026247D01*
X53666667Y-43407200D02*
X53809524Y-43454819D01*
X53809524Y-43454819D02*
X54047619Y-43454819D01*
X54047619Y-43454819D02*
X54142857Y-43407200D01*
X54142857Y-43407200D02*
X54190476Y-43359580D01*
X54190476Y-43359580D02*
X54238095Y-43264342D01*
X54238095Y-43264342D02*
X54238095Y-43169104D01*
X54238095Y-43169104D02*
X54190476Y-43073866D01*
X54190476Y-43073866D02*
X54142857Y-43026247D01*
X54142857Y-43026247D02*
X54047619Y-42978628D01*
X54047619Y-42978628D02*
X53857143Y-42931009D01*
X53857143Y-42931009D02*
X53761905Y-42883390D01*
X53761905Y-42883390D02*
X53714286Y-42835771D01*
X53714286Y-42835771D02*
X53666667Y-42740533D01*
X53666667Y-42740533D02*
X53666667Y-42645295D01*
X53666667Y-42645295D02*
X53714286Y-42550057D01*
X53714286Y-42550057D02*
X53761905Y-42502438D01*
X53761905Y-42502438D02*
X53857143Y-42454819D01*
X53857143Y-42454819D02*
X54095238Y-42454819D01*
X54095238Y-42454819D02*
X54238095Y-42502438D01*
X54571429Y-42454819D02*
X54809524Y-43454819D01*
X54809524Y-43454819D02*
X55000000Y-42740533D01*
X55000000Y-42740533D02*
X55190476Y-43454819D01*
X55190476Y-43454819D02*
X55428572Y-42454819D01*
X56333333Y-43454819D02*
X55761905Y-43454819D01*
X56047619Y-43454819D02*
X56047619Y-42454819D01*
X56047619Y-42454819D02*
X55952381Y-42597676D01*
X55952381Y-42597676D02*
X55857143Y-42692914D01*
X55857143Y-42692914D02*
X55761905Y-42740533D01*
X75690476Y-69657200D02*
X75833333Y-69704819D01*
X75833333Y-69704819D02*
X76071428Y-69704819D01*
X76071428Y-69704819D02*
X76166666Y-69657200D01*
X76166666Y-69657200D02*
X76214285Y-69609580D01*
X76214285Y-69609580D02*
X76261904Y-69514342D01*
X76261904Y-69514342D02*
X76261904Y-69419104D01*
X76261904Y-69419104D02*
X76214285Y-69323866D01*
X76214285Y-69323866D02*
X76166666Y-69276247D01*
X76166666Y-69276247D02*
X76071428Y-69228628D01*
X76071428Y-69228628D02*
X75880952Y-69181009D01*
X75880952Y-69181009D02*
X75785714Y-69133390D01*
X75785714Y-69133390D02*
X75738095Y-69085771D01*
X75738095Y-69085771D02*
X75690476Y-68990533D01*
X75690476Y-68990533D02*
X75690476Y-68895295D01*
X75690476Y-68895295D02*
X75738095Y-68800057D01*
X75738095Y-68800057D02*
X75785714Y-68752438D01*
X75785714Y-68752438D02*
X75880952Y-68704819D01*
X75880952Y-68704819D02*
X76119047Y-68704819D01*
X76119047Y-68704819D02*
X76261904Y-68752438D01*
X76595238Y-68704819D02*
X76833333Y-69704819D01*
X76833333Y-69704819D02*
X77023809Y-68990533D01*
X77023809Y-68990533D02*
X77214285Y-69704819D01*
X77214285Y-69704819D02*
X77452381Y-68704819D01*
X78357142Y-69704819D02*
X77785714Y-69704819D01*
X78071428Y-69704819D02*
X78071428Y-68704819D01*
X78071428Y-68704819D02*
X77976190Y-68847676D01*
X77976190Y-68847676D02*
X77880952Y-68942914D01*
X77880952Y-68942914D02*
X77785714Y-68990533D01*
X78690476Y-68704819D02*
X79357142Y-68704819D01*
X79357142Y-68704819D02*
X78928571Y-69704819D01*
X67416667Y-43407200D02*
X67559524Y-43454819D01*
X67559524Y-43454819D02*
X67797619Y-43454819D01*
X67797619Y-43454819D02*
X67892857Y-43407200D01*
X67892857Y-43407200D02*
X67940476Y-43359580D01*
X67940476Y-43359580D02*
X67988095Y-43264342D01*
X67988095Y-43264342D02*
X67988095Y-43169104D01*
X67988095Y-43169104D02*
X67940476Y-43073866D01*
X67940476Y-43073866D02*
X67892857Y-43026247D01*
X67892857Y-43026247D02*
X67797619Y-42978628D01*
X67797619Y-42978628D02*
X67607143Y-42931009D01*
X67607143Y-42931009D02*
X67511905Y-42883390D01*
X67511905Y-42883390D02*
X67464286Y-42835771D01*
X67464286Y-42835771D02*
X67416667Y-42740533D01*
X67416667Y-42740533D02*
X67416667Y-42645295D01*
X67416667Y-42645295D02*
X67464286Y-42550057D01*
X67464286Y-42550057D02*
X67511905Y-42502438D01*
X67511905Y-42502438D02*
X67607143Y-42454819D01*
X67607143Y-42454819D02*
X67845238Y-42454819D01*
X67845238Y-42454819D02*
X67988095Y-42502438D01*
X68321429Y-42454819D02*
X68559524Y-43454819D01*
X68559524Y-43454819D02*
X68750000Y-42740533D01*
X68750000Y-42740533D02*
X68940476Y-43454819D01*
X68940476Y-43454819D02*
X69178572Y-42454819D01*
X69511905Y-42550057D02*
X69559524Y-42502438D01*
X69559524Y-42502438D02*
X69654762Y-42454819D01*
X69654762Y-42454819D02*
X69892857Y-42454819D01*
X69892857Y-42454819D02*
X69988095Y-42502438D01*
X69988095Y-42502438D02*
X70035714Y-42550057D01*
X70035714Y-42550057D02*
X70083333Y-42645295D01*
X70083333Y-42645295D02*
X70083333Y-42740533D01*
X70083333Y-42740533D02*
X70035714Y-42883390D01*
X70035714Y-42883390D02*
X69464286Y-43454819D01*
X69464286Y-43454819D02*
X70083333Y-43454819D01*
X94916667Y-43407200D02*
X95059524Y-43454819D01*
X95059524Y-43454819D02*
X95297619Y-43454819D01*
X95297619Y-43454819D02*
X95392857Y-43407200D01*
X95392857Y-43407200D02*
X95440476Y-43359580D01*
X95440476Y-43359580D02*
X95488095Y-43264342D01*
X95488095Y-43264342D02*
X95488095Y-43169104D01*
X95488095Y-43169104D02*
X95440476Y-43073866D01*
X95440476Y-43073866D02*
X95392857Y-43026247D01*
X95392857Y-43026247D02*
X95297619Y-42978628D01*
X95297619Y-42978628D02*
X95107143Y-42931009D01*
X95107143Y-42931009D02*
X95011905Y-42883390D01*
X95011905Y-42883390D02*
X94964286Y-42835771D01*
X94964286Y-42835771D02*
X94916667Y-42740533D01*
X94916667Y-42740533D02*
X94916667Y-42645295D01*
X94916667Y-42645295D02*
X94964286Y-42550057D01*
X94964286Y-42550057D02*
X95011905Y-42502438D01*
X95011905Y-42502438D02*
X95107143Y-42454819D01*
X95107143Y-42454819D02*
X95345238Y-42454819D01*
X95345238Y-42454819D02*
X95488095Y-42502438D01*
X95821429Y-42454819D02*
X96059524Y-43454819D01*
X96059524Y-43454819D02*
X96250000Y-42740533D01*
X96250000Y-42740533D02*
X96440476Y-43454819D01*
X96440476Y-43454819D02*
X96678572Y-42454819D01*
X97488095Y-42788152D02*
X97488095Y-43454819D01*
X97250000Y-42407200D02*
X97011905Y-43121485D01*
X97011905Y-43121485D02*
X97630952Y-43121485D01*
X87440476Y-68407200D02*
X87583333Y-68454819D01*
X87583333Y-68454819D02*
X87821428Y-68454819D01*
X87821428Y-68454819D02*
X87916666Y-68407200D01*
X87916666Y-68407200D02*
X87964285Y-68359580D01*
X87964285Y-68359580D02*
X88011904Y-68264342D01*
X88011904Y-68264342D02*
X88011904Y-68169104D01*
X88011904Y-68169104D02*
X87964285Y-68073866D01*
X87964285Y-68073866D02*
X87916666Y-68026247D01*
X87916666Y-68026247D02*
X87821428Y-67978628D01*
X87821428Y-67978628D02*
X87630952Y-67931009D01*
X87630952Y-67931009D02*
X87535714Y-67883390D01*
X87535714Y-67883390D02*
X87488095Y-67835771D01*
X87488095Y-67835771D02*
X87440476Y-67740533D01*
X87440476Y-67740533D02*
X87440476Y-67645295D01*
X87440476Y-67645295D02*
X87488095Y-67550057D01*
X87488095Y-67550057D02*
X87535714Y-67502438D01*
X87535714Y-67502438D02*
X87630952Y-67454819D01*
X87630952Y-67454819D02*
X87869047Y-67454819D01*
X87869047Y-67454819D02*
X88011904Y-67502438D01*
X88345238Y-67454819D02*
X88583333Y-68454819D01*
X88583333Y-68454819D02*
X88773809Y-67740533D01*
X88773809Y-67740533D02*
X88964285Y-68454819D01*
X88964285Y-68454819D02*
X89202381Y-67454819D01*
X89535714Y-67550057D02*
X89583333Y-67502438D01*
X89583333Y-67502438D02*
X89678571Y-67454819D01*
X89678571Y-67454819D02*
X89916666Y-67454819D01*
X89916666Y-67454819D02*
X90011904Y-67502438D01*
X90011904Y-67502438D02*
X90059523Y-67550057D01*
X90059523Y-67550057D02*
X90107142Y-67645295D01*
X90107142Y-67645295D02*
X90107142Y-67740533D01*
X90107142Y-67740533D02*
X90059523Y-67883390D01*
X90059523Y-67883390D02*
X89488095Y-68454819D01*
X89488095Y-68454819D02*
X90107142Y-68454819D01*
X90678571Y-67883390D02*
X90583333Y-67835771D01*
X90583333Y-67835771D02*
X90535714Y-67788152D01*
X90535714Y-67788152D02*
X90488095Y-67692914D01*
X90488095Y-67692914D02*
X90488095Y-67645295D01*
X90488095Y-67645295D02*
X90535714Y-67550057D01*
X90535714Y-67550057D02*
X90583333Y-67502438D01*
X90583333Y-67502438D02*
X90678571Y-67454819D01*
X90678571Y-67454819D02*
X90869047Y-67454819D01*
X90869047Y-67454819D02*
X90964285Y-67502438D01*
X90964285Y-67502438D02*
X91011904Y-67550057D01*
X91011904Y-67550057D02*
X91059523Y-67645295D01*
X91059523Y-67645295D02*
X91059523Y-67692914D01*
X91059523Y-67692914D02*
X91011904Y-67788152D01*
X91011904Y-67788152D02*
X90964285Y-67835771D01*
X90964285Y-67835771D02*
X90869047Y-67883390D01*
X90869047Y-67883390D02*
X90678571Y-67883390D01*
X90678571Y-67883390D02*
X90583333Y-67931009D01*
X90583333Y-67931009D02*
X90535714Y-67978628D01*
X90535714Y-67978628D02*
X90488095Y-68073866D01*
X90488095Y-68073866D02*
X90488095Y-68264342D01*
X90488095Y-68264342D02*
X90535714Y-68359580D01*
X90535714Y-68359580D02*
X90583333Y-68407200D01*
X90583333Y-68407200D02*
X90678571Y-68454819D01*
X90678571Y-68454819D02*
X90869047Y-68454819D01*
X90869047Y-68454819D02*
X90964285Y-68407200D01*
X90964285Y-68407200D02*
X91011904Y-68359580D01*
X91011904Y-68359580D02*
X91059523Y-68264342D01*
X91059523Y-68264342D02*
X91059523Y-68073866D01*
X91059523Y-68073866D02*
X91011904Y-67978628D01*
X91011904Y-67978628D02*
X90964285Y-67931009D01*
X90964285Y-67931009D02*
X90869047Y-67883390D01*
X118190476Y-69657200D02*
X118333333Y-69704819D01*
X118333333Y-69704819D02*
X118571428Y-69704819D01*
X118571428Y-69704819D02*
X118666666Y-69657200D01*
X118666666Y-69657200D02*
X118714285Y-69609580D01*
X118714285Y-69609580D02*
X118761904Y-69514342D01*
X118761904Y-69514342D02*
X118761904Y-69419104D01*
X118761904Y-69419104D02*
X118714285Y-69323866D01*
X118714285Y-69323866D02*
X118666666Y-69276247D01*
X118666666Y-69276247D02*
X118571428Y-69228628D01*
X118571428Y-69228628D02*
X118380952Y-69181009D01*
X118380952Y-69181009D02*
X118285714Y-69133390D01*
X118285714Y-69133390D02*
X118238095Y-69085771D01*
X118238095Y-69085771D02*
X118190476Y-68990533D01*
X118190476Y-68990533D02*
X118190476Y-68895295D01*
X118190476Y-68895295D02*
X118238095Y-68800057D01*
X118238095Y-68800057D02*
X118285714Y-68752438D01*
X118285714Y-68752438D02*
X118380952Y-68704819D01*
X118380952Y-68704819D02*
X118619047Y-68704819D01*
X118619047Y-68704819D02*
X118761904Y-68752438D01*
X119095238Y-68704819D02*
X119333333Y-69704819D01*
X119333333Y-69704819D02*
X119523809Y-68990533D01*
X119523809Y-68990533D02*
X119714285Y-69704819D01*
X119714285Y-69704819D02*
X119952381Y-68704819D01*
X120285714Y-68800057D02*
X120333333Y-68752438D01*
X120333333Y-68752438D02*
X120428571Y-68704819D01*
X120428571Y-68704819D02*
X120666666Y-68704819D01*
X120666666Y-68704819D02*
X120761904Y-68752438D01*
X120761904Y-68752438D02*
X120809523Y-68800057D01*
X120809523Y-68800057D02*
X120857142Y-68895295D01*
X120857142Y-68895295D02*
X120857142Y-68990533D01*
X120857142Y-68990533D02*
X120809523Y-69133390D01*
X120809523Y-69133390D02*
X120238095Y-69704819D01*
X120238095Y-69704819D02*
X120857142Y-69704819D01*
X121476190Y-68704819D02*
X121571428Y-68704819D01*
X121571428Y-68704819D02*
X121666666Y-68752438D01*
X121666666Y-68752438D02*
X121714285Y-68800057D01*
X121714285Y-68800057D02*
X121761904Y-68895295D01*
X121761904Y-68895295D02*
X121809523Y-69085771D01*
X121809523Y-69085771D02*
X121809523Y-69323866D01*
X121809523Y-69323866D02*
X121761904Y-69514342D01*
X121761904Y-69514342D02*
X121714285Y-69609580D01*
X121714285Y-69609580D02*
X121666666Y-69657200D01*
X121666666Y-69657200D02*
X121571428Y-69704819D01*
X121571428Y-69704819D02*
X121476190Y-69704819D01*
X121476190Y-69704819D02*
X121380952Y-69657200D01*
X121380952Y-69657200D02*
X121333333Y-69609580D01*
X121333333Y-69609580D02*
X121285714Y-69514342D01*
X121285714Y-69514342D02*
X121238095Y-69323866D01*
X121238095Y-69323866D02*
X121238095Y-69085771D01*
X121238095Y-69085771D02*
X121285714Y-68895295D01*
X121285714Y-68895295D02*
X121333333Y-68800057D01*
X121333333Y-68800057D02*
X121380952Y-68752438D01*
X121380952Y-68752438D02*
X121476190Y-68704819D01*
X122416667Y-43407200D02*
X122559524Y-43454819D01*
X122559524Y-43454819D02*
X122797619Y-43454819D01*
X122797619Y-43454819D02*
X122892857Y-43407200D01*
X122892857Y-43407200D02*
X122940476Y-43359580D01*
X122940476Y-43359580D02*
X122988095Y-43264342D01*
X122988095Y-43264342D02*
X122988095Y-43169104D01*
X122988095Y-43169104D02*
X122940476Y-43073866D01*
X122940476Y-43073866D02*
X122892857Y-43026247D01*
X122892857Y-43026247D02*
X122797619Y-42978628D01*
X122797619Y-42978628D02*
X122607143Y-42931009D01*
X122607143Y-42931009D02*
X122511905Y-42883390D01*
X122511905Y-42883390D02*
X122464286Y-42835771D01*
X122464286Y-42835771D02*
X122416667Y-42740533D01*
X122416667Y-42740533D02*
X122416667Y-42645295D01*
X122416667Y-42645295D02*
X122464286Y-42550057D01*
X122464286Y-42550057D02*
X122511905Y-42502438D01*
X122511905Y-42502438D02*
X122607143Y-42454819D01*
X122607143Y-42454819D02*
X122845238Y-42454819D01*
X122845238Y-42454819D02*
X122988095Y-42502438D01*
X123321429Y-42454819D02*
X123559524Y-43454819D01*
X123559524Y-43454819D02*
X123750000Y-42740533D01*
X123750000Y-42740533D02*
X123940476Y-43454819D01*
X123940476Y-43454819D02*
X124178572Y-42454819D01*
X124988095Y-42454819D02*
X124797619Y-42454819D01*
X124797619Y-42454819D02*
X124702381Y-42502438D01*
X124702381Y-42502438D02*
X124654762Y-42550057D01*
X124654762Y-42550057D02*
X124559524Y-42692914D01*
X124559524Y-42692914D02*
X124511905Y-42883390D01*
X124511905Y-42883390D02*
X124511905Y-43264342D01*
X124511905Y-43264342D02*
X124559524Y-43359580D01*
X124559524Y-43359580D02*
X124607143Y-43407200D01*
X124607143Y-43407200D02*
X124702381Y-43454819D01*
X124702381Y-43454819D02*
X124892857Y-43454819D01*
X124892857Y-43454819D02*
X124988095Y-43407200D01*
X124988095Y-43407200D02*
X125035714Y-43359580D01*
X125035714Y-43359580D02*
X125083333Y-43264342D01*
X125083333Y-43264342D02*
X125083333Y-43026247D01*
X125083333Y-43026247D02*
X125035714Y-42931009D01*
X125035714Y-42931009D02*
X124988095Y-42883390D01*
X124988095Y-42883390D02*
X124892857Y-42835771D01*
X124892857Y-42835771D02*
X124702381Y-42835771D01*
X124702381Y-42835771D02*
X124607143Y-42883390D01*
X124607143Y-42883390D02*
X124559524Y-42931009D01*
X124559524Y-42931009D02*
X124511905Y-43026247D01*
X81166667Y-43407200D02*
X81309524Y-43454819D01*
X81309524Y-43454819D02*
X81547619Y-43454819D01*
X81547619Y-43454819D02*
X81642857Y-43407200D01*
X81642857Y-43407200D02*
X81690476Y-43359580D01*
X81690476Y-43359580D02*
X81738095Y-43264342D01*
X81738095Y-43264342D02*
X81738095Y-43169104D01*
X81738095Y-43169104D02*
X81690476Y-43073866D01*
X81690476Y-43073866D02*
X81642857Y-43026247D01*
X81642857Y-43026247D02*
X81547619Y-42978628D01*
X81547619Y-42978628D02*
X81357143Y-42931009D01*
X81357143Y-42931009D02*
X81261905Y-42883390D01*
X81261905Y-42883390D02*
X81214286Y-42835771D01*
X81214286Y-42835771D02*
X81166667Y-42740533D01*
X81166667Y-42740533D02*
X81166667Y-42645295D01*
X81166667Y-42645295D02*
X81214286Y-42550057D01*
X81214286Y-42550057D02*
X81261905Y-42502438D01*
X81261905Y-42502438D02*
X81357143Y-42454819D01*
X81357143Y-42454819D02*
X81595238Y-42454819D01*
X81595238Y-42454819D02*
X81738095Y-42502438D01*
X82071429Y-42454819D02*
X82309524Y-43454819D01*
X82309524Y-43454819D02*
X82500000Y-42740533D01*
X82500000Y-42740533D02*
X82690476Y-43454819D01*
X82690476Y-43454819D02*
X82928572Y-42454819D01*
X83214286Y-42454819D02*
X83833333Y-42454819D01*
X83833333Y-42454819D02*
X83500000Y-42835771D01*
X83500000Y-42835771D02*
X83642857Y-42835771D01*
X83642857Y-42835771D02*
X83738095Y-42883390D01*
X83738095Y-42883390D02*
X83785714Y-42931009D01*
X83785714Y-42931009D02*
X83833333Y-43026247D01*
X83833333Y-43026247D02*
X83833333Y-43264342D01*
X83833333Y-43264342D02*
X83785714Y-43359580D01*
X83785714Y-43359580D02*
X83738095Y-43407200D01*
X83738095Y-43407200D02*
X83642857Y-43454819D01*
X83642857Y-43454819D02*
X83357143Y-43454819D01*
X83357143Y-43454819D02*
X83261905Y-43407200D01*
X83261905Y-43407200D02*
X83214286Y-43359580D01*
X53190476Y-69657200D02*
X53333333Y-69704819D01*
X53333333Y-69704819D02*
X53571428Y-69704819D01*
X53571428Y-69704819D02*
X53666666Y-69657200D01*
X53666666Y-69657200D02*
X53714285Y-69609580D01*
X53714285Y-69609580D02*
X53761904Y-69514342D01*
X53761904Y-69514342D02*
X53761904Y-69419104D01*
X53761904Y-69419104D02*
X53714285Y-69323866D01*
X53714285Y-69323866D02*
X53666666Y-69276247D01*
X53666666Y-69276247D02*
X53571428Y-69228628D01*
X53571428Y-69228628D02*
X53380952Y-69181009D01*
X53380952Y-69181009D02*
X53285714Y-69133390D01*
X53285714Y-69133390D02*
X53238095Y-69085771D01*
X53238095Y-69085771D02*
X53190476Y-68990533D01*
X53190476Y-68990533D02*
X53190476Y-68895295D01*
X53190476Y-68895295D02*
X53238095Y-68800057D01*
X53238095Y-68800057D02*
X53285714Y-68752438D01*
X53285714Y-68752438D02*
X53380952Y-68704819D01*
X53380952Y-68704819D02*
X53619047Y-68704819D01*
X53619047Y-68704819D02*
X53761904Y-68752438D01*
X54095238Y-68704819D02*
X54333333Y-69704819D01*
X54333333Y-69704819D02*
X54523809Y-68990533D01*
X54523809Y-68990533D02*
X54714285Y-69704819D01*
X54714285Y-69704819D02*
X54952381Y-68704819D01*
X55857142Y-69704819D02*
X55285714Y-69704819D01*
X55571428Y-69704819D02*
X55571428Y-68704819D01*
X55571428Y-68704819D02*
X55476190Y-68847676D01*
X55476190Y-68847676D02*
X55380952Y-68942914D01*
X55380952Y-68942914D02*
X55285714Y-68990533D01*
X56761904Y-68704819D02*
X56285714Y-68704819D01*
X56285714Y-68704819D02*
X56238095Y-69181009D01*
X56238095Y-69181009D02*
X56285714Y-69133390D01*
X56285714Y-69133390D02*
X56380952Y-69085771D01*
X56380952Y-69085771D02*
X56619047Y-69085771D01*
X56619047Y-69085771D02*
X56714285Y-69133390D01*
X56714285Y-69133390D02*
X56761904Y-69181009D01*
X56761904Y-69181009D02*
X56809523Y-69276247D01*
X56809523Y-69276247D02*
X56809523Y-69514342D01*
X56809523Y-69514342D02*
X56761904Y-69609580D01*
X56761904Y-69609580D02*
X56714285Y-69657200D01*
X56714285Y-69657200D02*
X56619047Y-69704819D01*
X56619047Y-69704819D02*
X56380952Y-69704819D01*
X56380952Y-69704819D02*
X56285714Y-69657200D01*
X56285714Y-69657200D02*
X56238095Y-69609580D01*
X126940476Y-69657200D02*
X127083333Y-69704819D01*
X127083333Y-69704819D02*
X127321428Y-69704819D01*
X127321428Y-69704819D02*
X127416666Y-69657200D01*
X127416666Y-69657200D02*
X127464285Y-69609580D01*
X127464285Y-69609580D02*
X127511904Y-69514342D01*
X127511904Y-69514342D02*
X127511904Y-69419104D01*
X127511904Y-69419104D02*
X127464285Y-69323866D01*
X127464285Y-69323866D02*
X127416666Y-69276247D01*
X127416666Y-69276247D02*
X127321428Y-69228628D01*
X127321428Y-69228628D02*
X127130952Y-69181009D01*
X127130952Y-69181009D02*
X127035714Y-69133390D01*
X127035714Y-69133390D02*
X126988095Y-69085771D01*
X126988095Y-69085771D02*
X126940476Y-68990533D01*
X126940476Y-68990533D02*
X126940476Y-68895295D01*
X126940476Y-68895295D02*
X126988095Y-68800057D01*
X126988095Y-68800057D02*
X127035714Y-68752438D01*
X127035714Y-68752438D02*
X127130952Y-68704819D01*
X127130952Y-68704819D02*
X127369047Y-68704819D01*
X127369047Y-68704819D02*
X127511904Y-68752438D01*
X127845238Y-68704819D02*
X128083333Y-69704819D01*
X128083333Y-69704819D02*
X128273809Y-68990533D01*
X128273809Y-68990533D02*
X128464285Y-69704819D01*
X128464285Y-69704819D02*
X128702381Y-68704819D01*
X129035714Y-68800057D02*
X129083333Y-68752438D01*
X129083333Y-68752438D02*
X129178571Y-68704819D01*
X129178571Y-68704819D02*
X129416666Y-68704819D01*
X129416666Y-68704819D02*
X129511904Y-68752438D01*
X129511904Y-68752438D02*
X129559523Y-68800057D01*
X129559523Y-68800057D02*
X129607142Y-68895295D01*
X129607142Y-68895295D02*
X129607142Y-68990533D01*
X129607142Y-68990533D02*
X129559523Y-69133390D01*
X129559523Y-69133390D02*
X128988095Y-69704819D01*
X128988095Y-69704819D02*
X129607142Y-69704819D01*
X130559523Y-69704819D02*
X129988095Y-69704819D01*
X130273809Y-69704819D02*
X130273809Y-68704819D01*
X130273809Y-68704819D02*
X130178571Y-68847676D01*
X130178571Y-68847676D02*
X130083333Y-68942914D01*
X130083333Y-68942914D02*
X129988095Y-68990533D01*
X100690476Y-69657200D02*
X100833333Y-69704819D01*
X100833333Y-69704819D02*
X101071428Y-69704819D01*
X101071428Y-69704819D02*
X101166666Y-69657200D01*
X101166666Y-69657200D02*
X101214285Y-69609580D01*
X101214285Y-69609580D02*
X101261904Y-69514342D01*
X101261904Y-69514342D02*
X101261904Y-69419104D01*
X101261904Y-69419104D02*
X101214285Y-69323866D01*
X101214285Y-69323866D02*
X101166666Y-69276247D01*
X101166666Y-69276247D02*
X101071428Y-69228628D01*
X101071428Y-69228628D02*
X100880952Y-69181009D01*
X100880952Y-69181009D02*
X100785714Y-69133390D01*
X100785714Y-69133390D02*
X100738095Y-69085771D01*
X100738095Y-69085771D02*
X100690476Y-68990533D01*
X100690476Y-68990533D02*
X100690476Y-68895295D01*
X100690476Y-68895295D02*
X100738095Y-68800057D01*
X100738095Y-68800057D02*
X100785714Y-68752438D01*
X100785714Y-68752438D02*
X100880952Y-68704819D01*
X100880952Y-68704819D02*
X101119047Y-68704819D01*
X101119047Y-68704819D02*
X101261904Y-68752438D01*
X101595238Y-68704819D02*
X101833333Y-69704819D01*
X101833333Y-69704819D02*
X102023809Y-68990533D01*
X102023809Y-68990533D02*
X102214285Y-69704819D01*
X102214285Y-69704819D02*
X102452381Y-68704819D01*
X103357142Y-69704819D02*
X102785714Y-69704819D01*
X103071428Y-69704819D02*
X103071428Y-68704819D01*
X103071428Y-68704819D02*
X102976190Y-68847676D01*
X102976190Y-68847676D02*
X102880952Y-68942914D01*
X102880952Y-68942914D02*
X102785714Y-68990533D01*
X103928571Y-69133390D02*
X103833333Y-69085771D01*
X103833333Y-69085771D02*
X103785714Y-69038152D01*
X103785714Y-69038152D02*
X103738095Y-68942914D01*
X103738095Y-68942914D02*
X103738095Y-68895295D01*
X103738095Y-68895295D02*
X103785714Y-68800057D01*
X103785714Y-68800057D02*
X103833333Y-68752438D01*
X103833333Y-68752438D02*
X103928571Y-68704819D01*
X103928571Y-68704819D02*
X104119047Y-68704819D01*
X104119047Y-68704819D02*
X104214285Y-68752438D01*
X104214285Y-68752438D02*
X104261904Y-68800057D01*
X104261904Y-68800057D02*
X104309523Y-68895295D01*
X104309523Y-68895295D02*
X104309523Y-68942914D01*
X104309523Y-68942914D02*
X104261904Y-69038152D01*
X104261904Y-69038152D02*
X104214285Y-69085771D01*
X104214285Y-69085771D02*
X104119047Y-69133390D01*
X104119047Y-69133390D02*
X103928571Y-69133390D01*
X103928571Y-69133390D02*
X103833333Y-69181009D01*
X103833333Y-69181009D02*
X103785714Y-69228628D01*
X103785714Y-69228628D02*
X103738095Y-69323866D01*
X103738095Y-69323866D02*
X103738095Y-69514342D01*
X103738095Y-69514342D02*
X103785714Y-69609580D01*
X103785714Y-69609580D02*
X103833333Y-69657200D01*
X103833333Y-69657200D02*
X103928571Y-69704819D01*
X103928571Y-69704819D02*
X104119047Y-69704819D01*
X104119047Y-69704819D02*
X104214285Y-69657200D01*
X104214285Y-69657200D02*
X104261904Y-69609580D01*
X104261904Y-69609580D02*
X104309523Y-69514342D01*
X104309523Y-69514342D02*
X104309523Y-69323866D01*
X104309523Y-69323866D02*
X104261904Y-69228628D01*
X104261904Y-69228628D02*
X104214285Y-69181009D01*
X104214285Y-69181009D02*
X104119047Y-69133390D01*
D11*
%TO.C,SW5*%
X104000000Y-40000000D02*
X104000000Y-50000000D01*
X104000000Y-50000000D02*
X105000000Y-51000000D01*
X105000000Y-39000000D02*
X104000000Y-40000000D01*
X105000000Y-51000000D02*
X105750000Y-51000000D01*
X105750000Y-39000000D02*
X105000000Y-39000000D01*
X109250000Y-39000000D02*
X110750000Y-39000000D01*
X109250000Y-51000000D02*
X110750000Y-51000000D01*
X114250000Y-51000000D02*
X115000000Y-51000000D01*
X115000000Y-39000000D02*
X114250000Y-39000000D01*
X115000000Y-51000000D02*
X116000000Y-50000000D01*
X116000000Y-40000000D02*
X115000000Y-39000000D01*
X116000000Y-50000000D02*
X116000000Y-40000000D01*
%TO.C,SW7*%
X131500000Y-40000000D02*
X131500000Y-50000000D01*
X131500000Y-50000000D02*
X132500000Y-51000000D01*
X132500000Y-39000000D02*
X131500000Y-40000000D01*
X132500000Y-51000000D02*
X133250000Y-51000000D01*
X133250000Y-39000000D02*
X132500000Y-39000000D01*
X136750000Y-39000000D02*
X138250000Y-39000000D01*
X136750000Y-51000000D02*
X138250000Y-51000000D01*
X141750000Y-51000000D02*
X142500000Y-51000000D01*
X142500000Y-39000000D02*
X141750000Y-39000000D01*
X142500000Y-51000000D02*
X143500000Y-50000000D01*
X143500000Y-40000000D02*
X142500000Y-39000000D01*
X143500000Y-50000000D02*
X143500000Y-40000000D01*
%TO.C,SW19*%
X108150000Y-68000000D02*
X108150000Y-72000000D01*
X110250000Y-66900000D02*
X112250000Y-66900000D01*
X110250000Y-73100000D02*
X112250000Y-73100000D01*
X114350000Y-68000000D02*
X114350000Y-72000000D01*
%TO.C,SW16*%
X60250000Y-64800000D02*
X60250000Y-75200000D01*
X60250000Y-64800000D02*
X61050000Y-64000000D01*
X61050000Y-76000000D02*
X60250000Y-75200000D01*
X61050000Y-76000000D02*
X62050000Y-76000000D01*
X62050000Y-64000000D02*
X61050000Y-64000000D01*
X65450000Y-64000000D02*
X67050000Y-64000000D01*
X65450000Y-76000000D02*
X67050000Y-76000000D01*
X70450000Y-64000000D02*
X71450000Y-64000000D01*
X70450000Y-76000000D02*
X71450000Y-76000000D01*
X71450000Y-64000000D02*
X72250000Y-64800000D01*
X71450000Y-76000000D02*
X72250000Y-75200000D01*
X72250000Y-75200000D02*
X72250000Y-64800000D01*
%TO.C,SW1*%
X49000000Y-40000000D02*
X49000000Y-50000000D01*
X49000000Y-50000000D02*
X50000000Y-51000000D01*
X50000000Y-39000000D02*
X49000000Y-40000000D01*
X50000000Y-51000000D02*
X50750000Y-51000000D01*
X50750000Y-39000000D02*
X50000000Y-39000000D01*
X54250000Y-39000000D02*
X55750000Y-39000000D01*
X54250000Y-51000000D02*
X55750000Y-51000000D01*
X59250000Y-51000000D02*
X60000000Y-51000000D01*
X60000000Y-39000000D02*
X59250000Y-39000000D01*
X60000000Y-51000000D02*
X61000000Y-50000000D01*
X61000000Y-40000000D02*
X60000000Y-39000000D01*
X61000000Y-50000000D02*
X61000000Y-40000000D01*
%TO.C,SW17*%
X74400000Y-68000000D02*
X74400000Y-72000000D01*
X76500000Y-66900000D02*
X78500000Y-66900000D01*
X76500000Y-73100000D02*
X78500000Y-73100000D01*
X80600000Y-68000000D02*
X80600000Y-72000000D01*
%TO.C,SW2*%
X62750000Y-40000000D02*
X62750000Y-50000000D01*
X62750000Y-50000000D02*
X63750000Y-51000000D01*
X63750000Y-39000000D02*
X62750000Y-40000000D01*
X63750000Y-51000000D02*
X64500000Y-51000000D01*
X64500000Y-39000000D02*
X63750000Y-39000000D01*
X68000000Y-39000000D02*
X69500000Y-39000000D01*
X68000000Y-51000000D02*
X69500000Y-51000000D01*
X73000000Y-51000000D02*
X73750000Y-51000000D01*
X73750000Y-39000000D02*
X73000000Y-39000000D01*
X73750000Y-51000000D02*
X74750000Y-50000000D01*
X74750000Y-40000000D02*
X73750000Y-39000000D01*
X74750000Y-50000000D02*
X74750000Y-40000000D01*
%TO.C,SW4*%
X90250000Y-40000000D02*
X90250000Y-50000000D01*
X90250000Y-50000000D02*
X91250000Y-51000000D01*
X91250000Y-39000000D02*
X90250000Y-40000000D01*
X91250000Y-51000000D02*
X92000000Y-51000000D01*
X92000000Y-39000000D02*
X91250000Y-39000000D01*
X95500000Y-39000000D02*
X97000000Y-39000000D01*
X95500000Y-51000000D02*
X97000000Y-51000000D01*
X100500000Y-51000000D02*
X101250000Y-51000000D01*
X101250000Y-39000000D02*
X100500000Y-39000000D01*
X101250000Y-51000000D02*
X102250000Y-50000000D01*
X102250000Y-40000000D02*
X101250000Y-39000000D01*
X102250000Y-50000000D02*
X102250000Y-40000000D01*
%TO.C,SW28*%
X83250000Y-64800000D02*
X83250000Y-75200000D01*
X83250000Y-64800000D02*
X84050000Y-64000000D01*
X84050000Y-76000000D02*
X83250000Y-75200000D01*
X84050000Y-76000000D02*
X85050000Y-76000000D01*
X85050000Y-64000000D02*
X84050000Y-64000000D01*
X88450000Y-64000000D02*
X90050000Y-64000000D01*
X88450000Y-76000000D02*
X90050000Y-76000000D01*
X93450000Y-64000000D02*
X94450000Y-64000000D01*
X93450000Y-76000000D02*
X94450000Y-76000000D01*
X94450000Y-64000000D02*
X95250000Y-64800000D01*
X94450000Y-76000000D02*
X95250000Y-75200000D01*
X95250000Y-75200000D02*
X95250000Y-64800000D01*
%TO.C,SW20*%
X116900000Y-68000000D02*
X116900000Y-72000000D01*
X119000000Y-66900000D02*
X121000000Y-66900000D01*
X119000000Y-73100000D02*
X121000000Y-73100000D01*
X123100000Y-68000000D02*
X123100000Y-72000000D01*
%TO.C,SW6*%
X117750000Y-40000000D02*
X117750000Y-50000000D01*
X117750000Y-50000000D02*
X118750000Y-51000000D01*
X118750000Y-39000000D02*
X117750000Y-40000000D01*
X118750000Y-51000000D02*
X119500000Y-51000000D01*
X119500000Y-39000000D02*
X118750000Y-39000000D01*
X123000000Y-39000000D02*
X124500000Y-39000000D01*
X123000000Y-51000000D02*
X124500000Y-51000000D01*
X128000000Y-51000000D02*
X128750000Y-51000000D01*
X128750000Y-39000000D02*
X128000000Y-39000000D01*
X128750000Y-51000000D02*
X129750000Y-50000000D01*
X129750000Y-40000000D02*
X128750000Y-39000000D01*
X129750000Y-50000000D02*
X129750000Y-40000000D01*
%TO.C,SW3*%
X76500000Y-40000000D02*
X76500000Y-50000000D01*
X76500000Y-50000000D02*
X77500000Y-51000000D01*
X77500000Y-39000000D02*
X76500000Y-40000000D01*
X77500000Y-51000000D02*
X78250000Y-51000000D01*
X78250000Y-39000000D02*
X77500000Y-39000000D01*
X81750000Y-39000000D02*
X83250000Y-39000000D01*
X81750000Y-51000000D02*
X83250000Y-51000000D01*
X86750000Y-51000000D02*
X87500000Y-51000000D01*
X87500000Y-39000000D02*
X86750000Y-39000000D01*
X87500000Y-51000000D02*
X88500000Y-50000000D01*
X88500000Y-40000000D02*
X87500000Y-39000000D01*
X88500000Y-50000000D02*
X88500000Y-40000000D01*
%TO.C,SW15*%
X51900000Y-68000000D02*
X51900000Y-72000000D01*
X54000000Y-66900000D02*
X56000000Y-66900000D01*
X54000000Y-73100000D02*
X56000000Y-73100000D01*
X58100000Y-68000000D02*
X58100000Y-72000000D01*
%TO.C,SW21*%
X125650000Y-68000000D02*
X125650000Y-72000000D01*
X127750000Y-66900000D02*
X129750000Y-66900000D01*
X127750000Y-73100000D02*
X129750000Y-73100000D01*
X131850000Y-68000000D02*
X131850000Y-72000000D01*
%TO.C,SW18*%
X99400000Y-68000000D02*
X99400000Y-72000000D01*
X101500000Y-66900000D02*
X103500000Y-66900000D01*
X101500000Y-73100000D02*
X103500000Y-73100000D01*
X105600000Y-68000000D02*
X105600000Y-72000000D01*
%TD*%
M02*
