%TF.GenerationSoftware,KiCad,Pcbnew,9.0.6*%
%TF.CreationDate,2026-01-11T11:52:41+09:00*%
%TF.ProjectId,MH01852029121Z2_MJ-HF_control,4d483031-3835-4323-9032-393132315a32,rev?*%
%TF.SameCoordinates,Original*%
%TF.FileFunction,Legend,Bot*%
%TF.FilePolarity,Positive*%
%FSLAX46Y46*%
G04 Gerber Fmt 4.6, Leading zero omitted, Abs format (unit mm)*
G04 Created by KiCad (PCBNEW 9.0.6) date 2026-01-11 11:52:41*
%MOMM*%
%LPD*%
G01*
G04 APERTURE LIST*
%ADD10C,0.100000*%
%ADD11C,0.500000*%
%ADD12C,0.150000*%
%ADD13C,0.120000*%
G04 APERTURE END LIST*
D10*
G36*
X134047582Y-32901706D02*
G01*
X133435144Y-32901706D01*
X133120070Y-31650266D01*
X131938851Y-31650266D01*
X131632631Y-32901706D01*
X130993631Y-32901706D01*
X131461525Y-31064084D01*
X132070131Y-31064084D01*
X132953680Y-31064084D01*
X132498778Y-29121437D01*
X132070131Y-31064084D01*
X131461525Y-31064084D01*
X132087534Y-28605474D01*
X132927424Y-28605474D01*
X134047582Y-32901706D01*
G37*
D11*
X128750000Y-27500000D02*
X136250000Y-27500000D01*
X136250000Y-35000000D01*
X128750000Y-35000000D01*
X128750000Y-27500000D01*
D12*
X137743333Y-81454819D02*
X137743333Y-82169104D01*
X137743333Y-82169104D02*
X137790952Y-82311961D01*
X137790952Y-82311961D02*
X137886190Y-82407200D01*
X137886190Y-82407200D02*
X138029047Y-82454819D01*
X138029047Y-82454819D02*
X138124285Y-82454819D01*
X137314761Y-81550057D02*
X137267142Y-81502438D01*
X137267142Y-81502438D02*
X137171904Y-81454819D01*
X137171904Y-81454819D02*
X136933809Y-81454819D01*
X136933809Y-81454819D02*
X136838571Y-81502438D01*
X136838571Y-81502438D02*
X136790952Y-81550057D01*
X136790952Y-81550057D02*
X136743333Y-81645295D01*
X136743333Y-81645295D02*
X136743333Y-81740533D01*
X136743333Y-81740533D02*
X136790952Y-81883390D01*
X136790952Y-81883390D02*
X137362380Y-82454819D01*
X137362380Y-82454819D02*
X136743333Y-82454819D01*
D13*
%TO.C,J2*%
X136230000Y-78930000D02*
X136230000Y-80200000D01*
X136230000Y-80200000D02*
X137500000Y-80200000D01*
X138577358Y-55640000D02*
X138962642Y-55640000D01*
X138577358Y-56500000D02*
X138962642Y-56500000D01*
X138577358Y-58180000D02*
X138962642Y-58180000D01*
X138577358Y-59040000D02*
X138962642Y-59040000D01*
X138577358Y-60720000D02*
X138962642Y-60720000D01*
X138577358Y-61580000D02*
X138962642Y-61580000D01*
X138577358Y-63260000D02*
X138962642Y-63260000D01*
X138577358Y-64120000D02*
X138962642Y-64120000D01*
X138577358Y-65800000D02*
X138962642Y-65800000D01*
X138577358Y-66660000D02*
X138962642Y-66660000D01*
X138577358Y-68340000D02*
X138962642Y-68340000D01*
X138577358Y-69200000D02*
X138962642Y-69200000D01*
X138577358Y-70880000D02*
X138962642Y-70880000D01*
X138577358Y-71740000D02*
X138962642Y-71740000D01*
X138577358Y-73420000D02*
X138962642Y-73420000D01*
X138577358Y-74280000D02*
X138962642Y-74280000D01*
X138577358Y-75960000D02*
X138962642Y-75960000D01*
X138577358Y-76820000D02*
X138962642Y-76820000D01*
X138660000Y-78500000D02*
X138962642Y-78500000D01*
X138660000Y-79360000D02*
X138962642Y-79360000D01*
X141117358Y-55640000D02*
X141430000Y-55640000D01*
X141117358Y-56500000D02*
X141430000Y-56500000D01*
X141117358Y-58180000D02*
X141430000Y-58180000D01*
X141117358Y-59040000D02*
X141430000Y-59040000D01*
X141117358Y-60720000D02*
X141430000Y-60720000D01*
X141117358Y-61580000D02*
X141430000Y-61580000D01*
X141117358Y-63260000D02*
X141430000Y-63260000D01*
X141117358Y-64120000D02*
X141430000Y-64120000D01*
X141117358Y-65800000D02*
X141430000Y-65800000D01*
X141117358Y-66660000D02*
X141430000Y-66660000D01*
X141117358Y-68340000D02*
X141430000Y-68340000D01*
X141117358Y-69200000D02*
X141430000Y-69200000D01*
X141117358Y-70880000D02*
X141430000Y-70880000D01*
X141117358Y-71740000D02*
X141430000Y-71740000D01*
X141117358Y-73420000D02*
X141430000Y-73420000D01*
X141117358Y-74280000D02*
X141430000Y-74280000D01*
X141117358Y-75960000D02*
X141430000Y-75960000D01*
X141117358Y-76820000D02*
X141430000Y-76820000D01*
X141117358Y-78500000D02*
X141430000Y-78500000D01*
X141117358Y-79360000D02*
X141430000Y-79360000D01*
X141430000Y-54690000D02*
X144190000Y-54690000D01*
X141430000Y-57340000D02*
X144190000Y-57340000D01*
X141430000Y-59880000D02*
X144190000Y-59880000D01*
X141430000Y-62420000D02*
X144190000Y-62420000D01*
X141430000Y-64960000D02*
X144190000Y-64960000D01*
X141430000Y-67500000D02*
X144190000Y-67500000D01*
X141430000Y-70040000D02*
X144190000Y-70040000D01*
X141430000Y-72580000D02*
X144190000Y-72580000D01*
X141430000Y-75120000D02*
X144190000Y-75120000D01*
X141430000Y-77660000D02*
X144190000Y-77660000D01*
X141430000Y-80310000D02*
X141430000Y-54690000D01*
X144190000Y-54690000D02*
X144190000Y-80310000D01*
X144190000Y-80310000D02*
X141430000Y-80310000D01*
X142045000Y-79645000D02*
X143500000Y-79645000D01*
X143500000Y-78215000D01*
X142045000Y-78215000D01*
X142045000Y-79645000D01*
G36*
X142045000Y-79645000D02*
G01*
X143500000Y-79645000D01*
X143500000Y-78215000D01*
X142045000Y-78215000D01*
X142045000Y-79645000D01*
G37*
%TD*%
M02*
