%TF.GenerationSoftware,KiCad,Pcbnew,9.0.6*%
%TF.CreationDate,2026-01-11T11:52:41+09:00*%
%TF.ProjectId,MH01852029121Z2_MJ-HF_control,4d483031-3835-4323-9032-393132315a32,rev?*%
%TF.SameCoordinates,Original*%
%TF.FileFunction,Copper,L2,Bot*%
%TF.FilePolarity,Positive*%
%FSLAX46Y46*%
G04 Gerber Fmt 4.6, Leading zero omitted, Abs format (unit mm)*
G04 Created by KiCad (PCBNEW 9.0.6) date 2026-01-11 11:52:41*
%MOMM*%
%LPD*%
G01*
G04 APERTURE LIST*
%ADD10C,0.250000*%
%TA.AperFunction,ComponentPad*%
%ADD11C,2.600000*%
%TD*%
%TA.AperFunction,ComponentPad*%
%ADD12C,1.800000*%
%TD*%
%TA.AperFunction,ComponentPad*%
%ADD13R,1.700000X1.700000*%
%TD*%
%TA.AperFunction,ComponentPad*%
%ADD14C,1.700000*%
%TD*%
%TA.AperFunction,ViaPad*%
%ADD15C,0.600000*%
%TD*%
%TA.AperFunction,Conductor*%
%ADD16C,0.400000*%
%TD*%
G04 APERTURE END LIST*
D10*
G36*
X119088746Y-85113203D02*
G01*
X119182877Y-85156554D01*
X119270760Y-85231929D01*
X119337039Y-85327106D01*
X119377868Y-85440525D01*
X119392271Y-85577166D01*
X119378686Y-85699330D01*
X119340044Y-85800881D01*
X119276866Y-85886378D01*
X119193731Y-85952570D01*
X119099943Y-85991846D01*
X118991957Y-86005324D01*
X118883343Y-85991695D01*
X118791114Y-85952314D01*
X118711322Y-85886378D01*
X118652178Y-85800878D01*
X118614791Y-85693097D01*
X118601290Y-85556772D01*
X118614964Y-85420577D01*
X118653131Y-85311035D01*
X118714009Y-85222404D01*
X118795598Y-85152798D01*
X118884889Y-85112356D01*
X118985118Y-85098695D01*
X119088746Y-85113203D01*
G37*
G36*
X122186464Y-85107788D02*
G01*
X122257130Y-85134175D01*
X122319837Y-85178115D01*
X122375942Y-85241943D01*
X122424053Y-85333304D01*
X122464089Y-85467198D01*
X122492181Y-85656792D01*
X122502948Y-85917397D01*
X122492814Y-86180419D01*
X122466746Y-86365838D01*
X122430312Y-86491609D01*
X122387543Y-86573066D01*
X122323383Y-86647281D01*
X122255455Y-86697124D01*
X122182595Y-86726274D01*
X122102634Y-86736099D01*
X122022779Y-86726244D01*
X121949976Y-86696990D01*
X121882053Y-86646932D01*
X121817847Y-86572334D01*
X121774978Y-86490529D01*
X121738507Y-86364635D01*
X121712443Y-86179501D01*
X121702320Y-85917397D01*
X121712483Y-85653545D01*
X121738606Y-85467884D01*
X121775079Y-85342243D01*
X121817847Y-85261116D01*
X121881947Y-85187405D01*
X121950278Y-85137720D01*
X122024039Y-85108554D01*
X122105443Y-85098695D01*
X122186464Y-85107788D01*
G37*
G36*
X126880967Y-85940338D02*
G01*
X126975568Y-85978343D01*
X127057711Y-86041594D01*
X127120835Y-86123749D01*
X127158683Y-86217858D01*
X127171772Y-86327602D01*
X127159463Y-86430100D01*
X127121946Y-86530446D01*
X127083266Y-86590921D01*
X127034201Y-86641261D01*
X126973691Y-86682365D01*
X126871657Y-86722627D01*
X126761810Y-86736099D01*
X126648972Y-86723010D01*
X126553314Y-86685396D01*
X126470917Y-86623136D01*
X126407537Y-86541621D01*
X126369379Y-86447106D01*
X126356123Y-86335662D01*
X126369721Y-86222670D01*
X126408959Y-86126405D01*
X126474337Y-86042937D01*
X126559070Y-85978965D01*
X126656396Y-85940495D01*
X126770115Y-85927166D01*
X126880967Y-85940338D01*
G37*
G36*
X126856130Y-85109048D02*
G01*
X126932995Y-85138851D01*
X126999581Y-85188210D01*
X127051706Y-85252523D01*
X127082187Y-85323025D01*
X127092515Y-85402166D01*
X127081889Y-85492263D01*
X127051428Y-85567978D01*
X127001046Y-85632609D01*
X126935180Y-85681584D01*
X126857086Y-85711496D01*
X126763276Y-85722002D01*
X126672136Y-85711640D01*
X126595554Y-85682001D01*
X126530268Y-85633220D01*
X126479644Y-85569345D01*
X126449671Y-85497725D01*
X126439410Y-85415722D01*
X126450027Y-85330262D01*
X126480964Y-85256006D01*
X126533077Y-85190163D01*
X126600151Y-85139559D01*
X126676804Y-85109193D01*
X126765963Y-85098695D01*
X126856130Y-85109048D01*
G37*
G36*
X129963156Y-85107788D02*
G01*
X130033823Y-85134175D01*
X130096529Y-85178115D01*
X130152634Y-85241943D01*
X130200745Y-85333304D01*
X130240781Y-85467198D01*
X130268874Y-85656792D01*
X130279640Y-85917397D01*
X130269506Y-86180419D01*
X130243438Y-86365838D01*
X130207004Y-86491609D01*
X130164235Y-86573066D01*
X130100075Y-86647281D01*
X130032148Y-86697124D01*
X129959287Y-86726274D01*
X129879326Y-86736099D01*
X129799471Y-86726244D01*
X129726669Y-86696990D01*
X129658745Y-86646932D01*
X129594539Y-86572334D01*
X129551670Y-86490529D01*
X129515199Y-86364635D01*
X129489135Y-86179501D01*
X129479012Y-85917397D01*
X129489175Y-85653545D01*
X129515298Y-85467884D01*
X129551771Y-85342243D01*
X129594539Y-85261116D01*
X129658639Y-85187405D01*
X129726970Y-85137720D01*
X129800731Y-85108554D01*
X129882135Y-85098695D01*
X129963156Y-85107788D01*
G37*
G36*
X98539417Y-85302990D02*
G01*
X98601465Y-85494246D01*
X98821406Y-86081528D01*
X98142411Y-86081528D01*
X98351482Y-85526974D01*
X98438840Y-85284980D01*
X98493510Y-85111762D01*
X98539417Y-85302990D01*
G37*
G36*
X135014493Y-87684943D02*
G01*
X97302620Y-87684943D01*
X97302620Y-87462721D01*
X108687229Y-87462721D01*
X110317184Y-87462721D01*
X110317184Y-87285157D01*
X108687229Y-87285157D01*
X108687229Y-87462721D01*
X97302620Y-87462721D01*
X97302620Y-86910000D01*
X97524842Y-86910000D01*
X97826849Y-86910000D01*
X98060467Y-86300369D01*
X98897976Y-86300369D01*
X99117916Y-86910000D01*
X99399406Y-86910000D01*
X99168932Y-86308185D01*
X99482937Y-86308185D01*
X100238503Y-86308185D01*
X100238503Y-86058080D01*
X99482937Y-86058080D01*
X99482937Y-86308185D01*
X99168932Y-86308185D01*
X98719210Y-85133866D01*
X100456245Y-85133866D01*
X101542393Y-85133866D01*
X101542393Y-85761081D01*
X100602424Y-85761081D01*
X100602424Y-85993600D01*
X101542393Y-85993600D01*
X101542393Y-86910000D01*
X101807397Y-86910000D01*
X102262177Y-86910000D01*
X102527180Y-86910000D01*
X102527180Y-85962337D01*
X103568265Y-85962337D01*
X103568265Y-86910000D01*
X103833269Y-86910000D01*
X103833269Y-86308185D01*
X104145045Y-86308185D01*
X104900610Y-86308185D01*
X104900610Y-86268129D01*
X105206646Y-86268129D01*
X105214707Y-86436353D01*
X105236126Y-86563606D01*
X105267463Y-86658063D01*
X105316078Y-86743188D01*
X105379777Y-86812854D01*
X105460048Y-86868722D01*
X105550584Y-86908205D01*
X105652971Y-86932713D01*
X105769504Y-86941263D01*
X105900487Y-86930668D01*
X105975942Y-86910000D01*
X106600418Y-86910000D01*
X106855896Y-86910000D01*
X106855896Y-85227899D01*
X107437927Y-86910000D01*
X107677041Y-86910000D01*
X108256263Y-85199200D01*
X108256263Y-86910000D01*
X108511741Y-86910000D01*
X108511741Y-86677480D01*
X110421598Y-86677480D01*
X110421598Y-86910000D01*
X111745394Y-86910000D01*
X111739603Y-86822929D01*
X111716695Y-86739518D01*
X111686409Y-86677480D01*
X111900366Y-86677480D01*
X111900366Y-86910000D01*
X113483792Y-86910000D01*
X114052756Y-86910000D01*
X114298709Y-86910000D01*
X114298709Y-86677480D01*
X115241974Y-86677480D01*
X115241974Y-86910000D01*
X116565771Y-86910000D01*
X117163433Y-86910000D01*
X117409385Y-86910000D01*
X117409385Y-85863419D01*
X118327983Y-85863419D01*
X118338846Y-86120415D01*
X118368083Y-86321102D01*
X118411392Y-86475491D01*
X118478398Y-86619464D01*
X118561023Y-86733595D01*
X118659298Y-86822316D01*
X118774030Y-86887823D01*
X118901600Y-86927566D01*
X119045324Y-86941263D01*
X119161730Y-86932365D01*
X119262914Y-86906951D01*
X119351435Y-86866100D01*
X119429274Y-86809738D01*
X119494594Y-86739471D01*
X119532903Y-86677480D01*
X119907990Y-86677480D01*
X119907990Y-86910000D01*
X121231786Y-86910000D01*
X121225995Y-86822929D01*
X121203087Y-86739518D01*
X121139137Y-86608521D01*
X121041277Y-86473660D01*
X120914537Y-86341403D01*
X120719487Y-86170921D01*
X120503378Y-85983967D01*
X120436542Y-85918129D01*
X121449651Y-85918129D01*
X121458996Y-86154074D01*
X121484315Y-86341259D01*
X121522069Y-86487826D01*
X121580716Y-86625955D01*
X121653005Y-86736247D01*
X121738590Y-86822927D01*
X121840420Y-86887418D01*
X121960227Y-86927246D01*
X122102634Y-86941263D01*
X122243564Y-86927474D01*
X122363827Y-86888072D01*
X122467614Y-86823958D01*
X122557658Y-86733290D01*
X122593868Y-86677480D01*
X123018667Y-86677480D01*
X123018667Y-86910000D01*
X124342463Y-86910000D01*
X124336672Y-86822929D01*
X124313764Y-86739518D01*
X124249814Y-86608521D01*
X124151953Y-86473660D01*
X124025214Y-86341403D01*
X123892199Y-86225143D01*
X124538468Y-86225143D01*
X124548785Y-86359637D01*
X124578814Y-86481769D01*
X124628014Y-86593671D01*
X124696981Y-86697020D01*
X124779835Y-86785113D01*
X124872218Y-86852532D01*
X124975406Y-86900985D01*
X125091433Y-86930874D01*
X125222958Y-86941263D01*
X125358238Y-86930844D01*
X125475800Y-86901081D01*
X125578640Y-86853222D01*
X125669068Y-86787145D01*
X125745507Y-86704730D01*
X125803544Y-86610528D01*
X125844016Y-86502676D01*
X125866416Y-86378527D01*
X125608251Y-86356667D01*
X125578627Y-86478201D01*
X125533741Y-86571042D01*
X125475017Y-86640966D01*
X125400726Y-86693723D01*
X125317624Y-86725266D01*
X125222958Y-86736099D01*
X125137036Y-86727599D01*
X125059454Y-86702727D01*
X124988335Y-86661318D01*
X124922418Y-86601765D01*
X124869980Y-86531414D01*
X124831781Y-86450061D01*
X124807866Y-86355626D01*
X124806153Y-86333220D01*
X126104675Y-86333220D01*
X126104903Y-86335662D01*
X126116349Y-86458446D01*
X126150330Y-86570673D01*
X126206453Y-86672576D01*
X126286392Y-86766018D01*
X126382144Y-86841256D01*
X126491840Y-86895608D01*
X126618147Y-86929408D01*
X126764619Y-86941263D01*
X126911047Y-86929366D01*
X126983137Y-86910000D01*
X128050802Y-86910000D01*
X128296755Y-86910000D01*
X128296755Y-85918129D01*
X129226343Y-85918129D01*
X129235689Y-86154074D01*
X129261008Y-86341259D01*
X129298761Y-86487826D01*
X129357409Y-86625955D01*
X129429697Y-86736247D01*
X129515282Y-86822927D01*
X129617112Y-86887418D01*
X129736919Y-86927246D01*
X129879326Y-86941263D01*
X130020257Y-86927474D01*
X130073591Y-86910000D01*
X130873761Y-86910000D01*
X131138764Y-86910000D01*
X131138764Y-85962337D01*
X132179849Y-85962337D01*
X132179849Y-86910000D01*
X132444853Y-86910000D01*
X132880949Y-86910000D01*
X133136427Y-86910000D01*
X133136427Y-85227899D01*
X133718457Y-86910000D01*
X133957571Y-86910000D01*
X134536793Y-85199200D01*
X134536793Y-86910000D01*
X134792271Y-86910000D01*
X134792271Y-84901346D01*
X134393422Y-84901346D01*
X133919347Y-86324183D01*
X133823726Y-86621671D01*
X133717114Y-86299515D01*
X133237543Y-84901346D01*
X132880949Y-84901346D01*
X132880949Y-86910000D01*
X132444853Y-86910000D01*
X132444853Y-84901346D01*
X132179849Y-84901346D01*
X132179849Y-85729818D01*
X131138764Y-85729818D01*
X131138764Y-84901346D01*
X130873761Y-84901346D01*
X130873761Y-86910000D01*
X130073591Y-86910000D01*
X130140519Y-86888072D01*
X130244307Y-86823958D01*
X130334351Y-86733290D01*
X130398475Y-86634456D01*
X130452371Y-86509247D01*
X130494486Y-86352367D01*
X130522293Y-86157638D01*
X130532431Y-85918129D01*
X130522982Y-85680184D01*
X130497428Y-85492165D01*
X130459403Y-85345624D01*
X130400296Y-85207507D01*
X130327760Y-85097478D01*
X130242149Y-85011256D01*
X130140309Y-84947057D01*
X130020874Y-84907452D01*
X129879326Y-84893531D01*
X129773477Y-84901164D01*
X129679892Y-84923098D01*
X129596615Y-84958499D01*
X129520732Y-85007814D01*
X129453992Y-85069893D01*
X129395725Y-85145956D01*
X129326770Y-85277515D01*
X129271406Y-85444176D01*
X129239122Y-85635242D01*
X129226376Y-85917397D01*
X129226343Y-85918129D01*
X128296755Y-85918129D01*
X128296755Y-85338785D01*
X128394624Y-85420214D01*
X128529640Y-85508656D01*
X128671730Y-85585539D01*
X128788538Y-85636029D01*
X128788538Y-85401556D01*
X128654772Y-85330394D01*
X128534927Y-85251243D01*
X128427913Y-85164152D01*
X128329735Y-85066309D01*
X128258330Y-84976486D01*
X128209316Y-84893531D01*
X128050802Y-84893531D01*
X128050802Y-86910000D01*
X126983137Y-86910000D01*
X127037337Y-86895440D01*
X127147049Y-86840867D01*
X127242847Y-86765286D01*
X127322469Y-86671609D01*
X127378583Y-86568678D01*
X127412688Y-86454532D01*
X127424441Y-86326381D01*
X127412707Y-86199155D01*
X127379320Y-86091104D01*
X127325401Y-85998485D01*
X127251620Y-85920992D01*
X127158800Y-85861027D01*
X127043300Y-85818356D01*
X127140327Y-85773488D01*
X127214662Y-85720128D01*
X127270080Y-85658499D01*
X127310464Y-85586150D01*
X127335229Y-85504050D01*
X127343841Y-85409860D01*
X127333784Y-85303744D01*
X127304481Y-85208559D01*
X127256003Y-85122011D01*
X127186793Y-85042519D01*
X127104176Y-84978844D01*
X127008709Y-84932600D01*
X126897942Y-84903702D01*
X126768649Y-84893531D01*
X126638889Y-84903882D01*
X126527281Y-84933352D01*
X126430651Y-84980640D01*
X126346598Y-85045938D01*
X126275922Y-85127260D01*
X126226596Y-85215024D01*
X126196898Y-85310762D01*
X126186835Y-85415722D01*
X126186741Y-85416699D01*
X126195191Y-85507242D01*
X126219665Y-85587393D01*
X126259891Y-85659232D01*
X126314668Y-85720629D01*
X126387482Y-85773721D01*
X126481786Y-85818356D01*
X126365460Y-85868466D01*
X126273098Y-85933231D01*
X126201029Y-86012773D01*
X126148208Y-86106364D01*
X126115893Y-86212185D01*
X126104675Y-86333220D01*
X124806153Y-86333220D01*
X124799441Y-86245415D01*
X124807611Y-86140616D01*
X124830688Y-86051961D01*
X124867390Y-85976607D01*
X124917655Y-85912390D01*
X125003134Y-85845402D01*
X125104671Y-85804676D01*
X125226988Y-85790390D01*
X125341105Y-85804387D01*
X125441556Y-85845345D01*
X125527528Y-85908938D01*
X125591765Y-85987739D01*
X125822697Y-85957697D01*
X125628646Y-84924794D01*
X124632745Y-84924794D01*
X124632745Y-85157313D01*
X125431908Y-85157313D01*
X125539863Y-85702219D01*
X125414876Y-85629441D01*
X125289544Y-85587372D01*
X125161409Y-85573503D01*
X125033668Y-85585231D01*
X124918965Y-85619381D01*
X124814647Y-85675755D01*
X124718841Y-85755952D01*
X124640730Y-85852461D01*
X124584867Y-85961107D01*
X124550451Y-86084256D01*
X124538468Y-86225143D01*
X123892199Y-86225143D01*
X123830163Y-86170921D01*
X123614055Y-85983967D01*
X123473263Y-85845278D01*
X123388939Y-85744717D01*
X123322104Y-85635622D01*
X123285579Y-85537484D01*
X123274145Y-85447351D01*
X123285942Y-85353908D01*
X123320409Y-85272367D01*
X123378681Y-85199689D01*
X123453730Y-85144460D01*
X123543190Y-85110613D01*
X123651133Y-85098695D01*
X123765139Y-85111438D01*
X123858360Y-85147455D01*
X123935432Y-85206039D01*
X123993114Y-85283671D01*
X124029563Y-85380860D01*
X124043265Y-85503161D01*
X124296057Y-85477027D01*
X124272356Y-85336153D01*
X124231154Y-85219371D01*
X124173925Y-85122624D01*
X124100662Y-85042885D01*
X124012367Y-84979624D01*
X123909129Y-84933172D01*
X123788121Y-84903894D01*
X123645760Y-84893531D01*
X123502550Y-84904625D01*
X123381144Y-84935988D01*
X123277730Y-84985893D01*
X123189392Y-85054242D01*
X123115492Y-85139893D01*
X123063599Y-85233507D01*
X123032162Y-85336827D01*
X123021353Y-85452358D01*
X123033514Y-85571438D01*
X123070568Y-85689884D01*
X123132732Y-85804769D01*
X123233845Y-85935715D01*
X123369581Y-86073644D01*
X123612909Y-86289867D01*
X123813464Y-86463614D01*
X123897208Y-86543513D01*
X123955495Y-86611554D01*
X124000889Y-86677480D01*
X123018667Y-86677480D01*
X122593868Y-86677480D01*
X122621783Y-86634456D01*
X122675678Y-86509247D01*
X122717793Y-86352367D01*
X122745601Y-86157638D01*
X122755739Y-85918129D01*
X122746290Y-85680184D01*
X122720735Y-85492165D01*
X122682711Y-85345624D01*
X122623603Y-85207507D01*
X122551068Y-85097478D01*
X122465457Y-85011256D01*
X122363617Y-84947057D01*
X122244182Y-84907452D01*
X122102634Y-84893531D01*
X121996784Y-84901164D01*
X121903200Y-84923098D01*
X121819923Y-84958499D01*
X121744039Y-85007814D01*
X121677299Y-85069893D01*
X121619033Y-85145956D01*
X121550078Y-85277515D01*
X121494713Y-85444176D01*
X121462430Y-85635242D01*
X121449684Y-85917397D01*
X121449651Y-85918129D01*
X120436542Y-85918129D01*
X120362586Y-85845278D01*
X120278262Y-85744717D01*
X120211427Y-85635622D01*
X120174903Y-85537484D01*
X120163468Y-85447351D01*
X120175265Y-85353908D01*
X120209732Y-85272367D01*
X120268004Y-85199689D01*
X120343053Y-85144460D01*
X120432513Y-85110613D01*
X120540457Y-85098695D01*
X120654462Y-85111438D01*
X120747684Y-85147455D01*
X120824755Y-85206039D01*
X120882437Y-85283671D01*
X120918886Y-85380860D01*
X120932588Y-85503161D01*
X121185380Y-85477027D01*
X121161679Y-85336153D01*
X121120477Y-85219371D01*
X121063248Y-85122624D01*
X120989986Y-85042885D01*
X120901690Y-84979624D01*
X120798452Y-84933172D01*
X120677444Y-84903894D01*
X120535083Y-84893531D01*
X120391873Y-84904625D01*
X120270467Y-84935988D01*
X120167053Y-84985893D01*
X120078715Y-85054242D01*
X120004815Y-85139893D01*
X119952922Y-85233507D01*
X119921485Y-85336827D01*
X119910676Y-85452358D01*
X119922837Y-85571438D01*
X119959891Y-85689884D01*
X120022055Y-85804769D01*
X120123168Y-85935715D01*
X120258904Y-86073644D01*
X120502233Y-86289867D01*
X120702787Y-86463614D01*
X120786531Y-86543513D01*
X120844819Y-86611554D01*
X120890212Y-86677480D01*
X119907990Y-86677480D01*
X119532903Y-86677480D01*
X119546229Y-86655915D01*
X119584384Y-86556949D01*
X119608182Y-86439710D01*
X119371877Y-86417606D01*
X119343254Y-86525836D01*
X119304469Y-86604703D01*
X119257083Y-86660628D01*
X119196717Y-86701830D01*
X119125294Y-86727178D01*
X119039829Y-86736099D01*
X118931832Y-86722679D01*
X118841015Y-86684075D01*
X118763568Y-86623449D01*
X118701064Y-86544979D01*
X118653216Y-86448773D01*
X118609473Y-86309895D01*
X118581824Y-86160518D01*
X118572592Y-86008255D01*
X118573935Y-85958918D01*
X118628643Y-86031711D01*
X118695401Y-86094994D01*
X118775436Y-86149305D01*
X118862984Y-86189819D01*
X118954769Y-86214037D01*
X119052163Y-86222212D01*
X119172846Y-86210744D01*
X119281649Y-86177258D01*
X119381111Y-86121736D01*
X119472993Y-86042327D01*
X119546779Y-85947634D01*
X119600160Y-85838961D01*
X119633396Y-85713639D01*
X119645062Y-85568129D01*
X119632895Y-85417958D01*
X119598227Y-85288670D01*
X119542513Y-85176576D01*
X119465422Y-85078911D01*
X119369814Y-84997732D01*
X119264428Y-84940439D01*
X119147218Y-84905564D01*
X119015282Y-84893531D01*
X118888138Y-84905355D01*
X118769762Y-84940317D01*
X118657955Y-84998921D01*
X118559793Y-85077933D01*
X118478057Y-85177049D01*
X118412002Y-85299096D01*
X118369012Y-85432335D01*
X118348866Y-85556772D01*
X118339273Y-85616027D01*
X118327983Y-85863419D01*
X117409385Y-85863419D01*
X117409385Y-85338785D01*
X117507255Y-85420214D01*
X117642271Y-85508656D01*
X117784360Y-85585539D01*
X117901168Y-85636029D01*
X117901168Y-85401556D01*
X117767403Y-85330394D01*
X117647558Y-85251243D01*
X117540544Y-85164152D01*
X117442365Y-85066309D01*
X117370961Y-84976486D01*
X117321946Y-84893531D01*
X117163433Y-84893531D01*
X117163433Y-86910000D01*
X116565771Y-86910000D01*
X116559980Y-86822929D01*
X116537072Y-86739518D01*
X116473122Y-86608521D01*
X116375261Y-86473660D01*
X116248522Y-86341403D01*
X116053471Y-86170921D01*
X115837363Y-85983967D01*
X115696571Y-85845278D01*
X115612247Y-85744717D01*
X115545412Y-85635622D01*
X115508887Y-85537484D01*
X115497452Y-85447351D01*
X115509250Y-85353908D01*
X115543717Y-85272367D01*
X115601988Y-85199689D01*
X115677037Y-85144460D01*
X115766498Y-85110613D01*
X115874441Y-85098695D01*
X115988447Y-85111438D01*
X116081668Y-85147455D01*
X116158740Y-85206039D01*
X116216422Y-85283671D01*
X116252871Y-85380860D01*
X116266573Y-85503161D01*
X116519364Y-85477027D01*
X116495664Y-85336153D01*
X116454461Y-85219371D01*
X116397233Y-85122624D01*
X116323970Y-85042885D01*
X116235675Y-84979624D01*
X116132436Y-84933172D01*
X116011429Y-84903894D01*
X115869068Y-84893531D01*
X115725858Y-84904625D01*
X115604452Y-84935988D01*
X115501038Y-84985893D01*
X115412700Y-85054242D01*
X115338800Y-85139893D01*
X115286907Y-85233507D01*
X115255469Y-85336827D01*
X115244661Y-85452358D01*
X115256822Y-85571438D01*
X115293876Y-85689884D01*
X115356040Y-85804769D01*
X115457152Y-85935715D01*
X115592888Y-86073644D01*
X115836217Y-86289867D01*
X116036771Y-86463614D01*
X116120516Y-86543513D01*
X116178803Y-86611554D01*
X116224197Y-86677480D01*
X115241974Y-86677480D01*
X114298709Y-86677480D01*
X114298709Y-85338785D01*
X114396578Y-85420214D01*
X114531594Y-85508656D01*
X114673683Y-85585539D01*
X114790491Y-85636029D01*
X114790491Y-85401556D01*
X114656726Y-85330394D01*
X114536881Y-85251243D01*
X114429867Y-85164152D01*
X114331689Y-85066309D01*
X114260284Y-84976486D01*
X114211270Y-84893531D01*
X114052756Y-84893531D01*
X114052756Y-86910000D01*
X113483792Y-86910000D01*
X113483792Y-86667833D01*
X112457728Y-85373712D01*
X112348250Y-85241435D01*
X112250122Y-85133866D01*
X113367655Y-85133866D01*
X113367655Y-84901346D01*
X111933094Y-84901346D01*
X111933094Y-85133866D01*
X113057588Y-86535575D01*
X113179099Y-86677480D01*
X111900366Y-86677480D01*
X111686409Y-86677480D01*
X111652745Y-86608521D01*
X111554884Y-86473660D01*
X111428145Y-86341403D01*
X111233094Y-86170921D01*
X111016986Y-85983967D01*
X110876194Y-85845278D01*
X110791870Y-85744717D01*
X110725035Y-85635622D01*
X110688510Y-85537484D01*
X110677076Y-85447351D01*
X110688873Y-85353908D01*
X110723340Y-85272367D01*
X110781612Y-85199689D01*
X110856661Y-85144460D01*
X110946121Y-85110613D01*
X111054064Y-85098695D01*
X111168070Y-85111438D01*
X111261291Y-85147455D01*
X111338363Y-85206039D01*
X111396045Y-85283671D01*
X111432494Y-85380860D01*
X111446196Y-85503161D01*
X111698988Y-85477027D01*
X111675287Y-85336153D01*
X111634085Y-85219371D01*
X111576856Y-85122624D01*
X111503593Y-85042885D01*
X111415298Y-84979624D01*
X111312060Y-84933172D01*
X111191052Y-84903894D01*
X111048691Y-84893531D01*
X110905481Y-84904625D01*
X110784075Y-84935988D01*
X110680661Y-84985893D01*
X110592323Y-85054242D01*
X110518423Y-85139893D01*
X110466530Y-85233507D01*
X110435092Y-85336827D01*
X110424284Y-85452358D01*
X110436445Y-85571438D01*
X110473499Y-85689884D01*
X110535663Y-85804769D01*
X110636775Y-85935715D01*
X110772512Y-86073644D01*
X111015840Y-86289867D01*
X111216395Y-86463614D01*
X111300139Y-86543513D01*
X111358426Y-86611554D01*
X111403820Y-86677480D01*
X110421598Y-86677480D01*
X108511741Y-86677480D01*
X108511741Y-84901346D01*
X108112892Y-84901346D01*
X107638817Y-86324183D01*
X107543196Y-86621671D01*
X107436584Y-86299515D01*
X106957013Y-84901346D01*
X106600418Y-84901346D01*
X106600418Y-86910000D01*
X105975942Y-86910000D01*
X106008800Y-86901000D01*
X106098670Y-86854152D01*
X106173237Y-86790198D01*
X106230858Y-86711384D01*
X106273536Y-86613285D01*
X106300127Y-86491623D01*
X106307815Y-86341036D01*
X106068702Y-86308185D01*
X106052021Y-86461215D01*
X106021780Y-86561394D01*
X105982728Y-86623747D01*
X105926602Y-86670107D01*
X105857292Y-86698608D01*
X105770847Y-86708743D01*
X105676385Y-86696827D01*
X105598778Y-86662826D01*
X105537459Y-86608455D01*
X105499005Y-86538018D01*
X105479840Y-86447310D01*
X105471650Y-86286325D01*
X105471650Y-84901346D01*
X105206646Y-84901346D01*
X105206646Y-86268129D01*
X104900610Y-86268129D01*
X104900610Y-86058080D01*
X104145045Y-86058080D01*
X104145045Y-86308185D01*
X103833269Y-86308185D01*
X103833269Y-84901346D01*
X103568265Y-84901346D01*
X103568265Y-85729818D01*
X102527180Y-85729818D01*
X102527180Y-84901346D01*
X102262177Y-84901346D01*
X102262177Y-86910000D01*
X101807397Y-86910000D01*
X101807397Y-84901346D01*
X100456245Y-84901346D01*
X100456245Y-85133866D01*
X98719210Y-85133866D01*
X98630163Y-84901346D01*
X98344644Y-84901346D01*
X97862970Y-86081528D01*
X97524842Y-86910000D01*
X97302620Y-86910000D01*
X97302620Y-84671309D01*
X135014493Y-84671309D01*
X135014493Y-87684943D01*
G37*
D11*
%TO.P,SW5,1,1*%
%TO.N,/Pin4(B11)_A*%
X107500000Y-38750000D03*
X107500000Y-51250000D03*
%TO.P,SW5,2,2*%
%TO.N,/Pin3(B1)_A*%
X112500000Y-38750000D03*
X112500000Y-51250000D03*
%TD*%
%TO.P,SW7,1,1*%
%TO.N,/Pin5(B12)_A*%
X135000000Y-38750000D03*
X135000000Y-51250000D03*
%TO.P,SW7,2,2*%
%TO.N,/Pin6(B2)_A*%
X140000000Y-38750000D03*
X140000000Y-51250000D03*
%TD*%
D12*
%TO.P,SW19,1,1*%
%TO.N,/Pin8(B13)_A*%
X109000000Y-66750000D03*
X109000000Y-73250000D03*
%TO.P,SW19,2,2*%
%TO.N,/Pin7(B3)_A*%
X113500000Y-66750000D03*
X113500000Y-73250000D03*
%TD*%
D11*
%TO.P,SW16,1,1*%
%TO.N,/Pin1(B16)_A*%
X63750000Y-63750000D03*
X63750000Y-76250000D03*
%TO.P,SW16,2,2*%
%TO.N,/Pin3(B1)_A*%
X68750000Y-63750000D03*
X68750000Y-76250000D03*
%TD*%
%TO.P,SW1,1,1*%
%TO.N,/Pin4(B11)_A*%
X52500000Y-38750000D03*
X52500000Y-51250000D03*
%TO.P,SW1,2,2*%
%TO.N,/Pin3(B1)_A*%
X57500000Y-38750000D03*
X57500000Y-51250000D03*
%TD*%
D12*
%TO.P,SW17,1,1*%
%TO.N,/Pin1(B16)_A*%
X75250000Y-66750000D03*
X75250000Y-73250000D03*
%TO.P,SW17,2,2*%
%TO.N,/Pin2(A1)_A*%
X79750000Y-66750000D03*
X79750000Y-73250000D03*
%TD*%
D11*
%TO.P,SW2,1,1*%
%TO.N,/Pin4(B11)_A*%
X66250000Y-38750000D03*
X66250000Y-51250000D03*
%TO.P,SW2,2,2*%
%TO.N,/Pin2(A1)_A*%
X71250000Y-38750000D03*
X71250000Y-51250000D03*
%TD*%
%TO.P,SW4,1,1*%
%TO.N,/Pin4(B11)_A*%
X93750000Y-38750000D03*
X93750000Y-51250000D03*
%TO.P,SW4,2,2*%
%TO.N,/Pin10(A2)_A*%
X98750000Y-38750000D03*
X98750000Y-51250000D03*
%TD*%
%TO.P,SW28,1,1*%
%TO.N,/Pin12(A5)_A*%
X86750000Y-63750000D03*
X86750000Y-76250000D03*
%TO.P,SW28,2,2*%
%TO.N,/Pin13(A17)_A*%
X91750000Y-63750000D03*
X91750000Y-76250000D03*
%TD*%
D12*
%TO.P,SW20,1,1*%
%TO.N,/Pin11(B15)_A*%
X117750000Y-66750000D03*
X117750000Y-73250000D03*
%TO.P,SW20,2,2*%
%TO.N,/Pin7(B3)_A*%
X122250000Y-66750000D03*
X122250000Y-73250000D03*
%TD*%
D11*
%TO.P,SW6,1,1*%
%TO.N,/Pin5(B12)_A*%
X121250000Y-38750000D03*
X121250000Y-51250000D03*
%TO.P,SW6,2,2*%
%TO.N,/Pin2(A1)_A*%
X126250000Y-38750000D03*
X126250000Y-51250000D03*
%TD*%
%TO.P,SW3,1,1*%
%TO.N,/Pin4(B11)_A*%
X80000000Y-38750000D03*
X80000000Y-51250000D03*
%TO.P,SW3,2,2*%
%TO.N,/Pin6(B2)_A*%
X85000000Y-38750000D03*
X85000000Y-51250000D03*
%TD*%
D12*
%TO.P,SW15,1,1*%
%TO.N,/Pin9(B14)_A*%
X52750000Y-66750000D03*
X52750000Y-73250000D03*
%TO.P,SW15,2,2*%
%TO.N,/Pin7(B3)_A*%
X57250000Y-66750000D03*
X57250000Y-73250000D03*
%TD*%
%TO.P,SW21,1,1*%
%TO.N,/Pin1(B16)_A*%
X126500000Y-66750000D03*
X126500000Y-73250000D03*
%TO.P,SW21,2,2*%
%TO.N,/Pin7(B3)_A*%
X131000000Y-66750000D03*
X131000000Y-73250000D03*
%TD*%
%TO.P,SW18,1,1*%
%TO.N,/Pin5(B12)_A*%
X100250000Y-66750000D03*
X100250000Y-73250000D03*
%TO.P,SW18,2,2*%
%TO.N,/Pin7(B3)_A*%
X104750000Y-66750000D03*
X104750000Y-73250000D03*
%TD*%
D13*
%TO.P,J2,1,Pin_1*%
%TO.N,/Pin5(B12)_A*%
X137500000Y-78930000D03*
D14*
%TO.P,J2,2,Pin_2*%
%TO.N,/Pin8(B13)_A*%
X140040000Y-78930000D03*
%TO.P,J2,3,Pin_3*%
%TO.N,/Pin1(B16)_A*%
X137500000Y-76390000D03*
%TO.P,J2,4,Pin_4*%
%TO.N,/Pin4(B11)_A*%
X140040000Y-76390000D03*
%TO.P,J2,5,Pin_5*%
%TO.N,/Pin9(B14)_A*%
X137500000Y-73850000D03*
%TO.P,J2,6,Pin_6*%
%TO.N,/Pin11(B15)_A*%
X140040000Y-73850000D03*
%TO.P,J2,7,Pin_7*%
%TO.N,unconnected-(J2-Pin_7-Pad7)*%
X137500000Y-71310000D03*
%TO.P,J2,8,Pin_8*%
%TO.N,unconnected-(J2-Pin_8-Pad8)*%
X140040000Y-71310000D03*
%TO.P,J2,9,Pin_9*%
%TO.N,unconnected-(J2-Pin_9-Pad9)*%
X137500000Y-68770000D03*
%TO.P,J2,10,Pin_10*%
%TO.N,unconnected-(J2-Pin_10-Pad10)*%
X140040000Y-68770000D03*
%TO.P,J2,11,Pin_11*%
%TO.N,/Pin12(A5)_A*%
X137500000Y-66230000D03*
%TO.P,J2,12,Pin_12*%
%TO.N,/Pin13(A17)_A*%
X140040000Y-66230000D03*
%TO.P,J2,13,Pin_13*%
%TO.N,unconnected-(J2-Pin_13-Pad13)*%
X137500000Y-63690000D03*
%TO.P,J2,14,Pin_14*%
%TO.N,unconnected-(J2-Pin_14-Pad14)*%
X140040000Y-63690000D03*
%TO.P,J2,15,Pin_15*%
%TO.N,unconnected-(J2-Pin_15-Pad15)*%
X137500000Y-61150000D03*
%TO.P,J2,16,Pin_16*%
%TO.N,/Pin2(A1)_A*%
X140040000Y-61150000D03*
%TO.P,J2,17,Pin_17*%
%TO.N,/Pin10(A2)_A*%
X137500000Y-58610000D03*
%TO.P,J2,18,Pin_18*%
%TO.N,/Pin3(B1)_A*%
X140040000Y-58610000D03*
%TO.P,J2,19,Pin_19*%
%TO.N,/Pin6(B2)_A*%
X137500000Y-56070000D03*
%TO.P,J2,20,Pin_20*%
%TO.N,/Pin7(B3)_A*%
X140040000Y-56070000D03*
%TD*%
D15*
%TO.N,/Pin10(A2)_A*%
X143500000Y-59750000D03*
X98750000Y-45500000D03*
X143500000Y-45500000D03*
%TO.N,/Pin2(A1)_A*%
X126250000Y-48500000D03*
X71250000Y-47750000D03*
X142000000Y-48500000D03*
X78250000Y-47750000D03*
%TO.N,/Pin6(B2)_A*%
X140000000Y-47000000D03*
X85000000Y-47000000D03*
%TO.N,/Pin3(B1)_A*%
X142750000Y-58500000D03*
X68750000Y-48500000D03*
X112500000Y-48500000D03*
X112500000Y-46250000D03*
X57500000Y-48500000D03*
X142750000Y-46250000D03*
%TO.N,/Pin1(B16)_A*%
X126500000Y-70231000D03*
X126500000Y-76300000D03*
X75250000Y-70231000D03*
X63750000Y-66750000D03*
%TO.N,/Pin4(B11)_A*%
X93750000Y-72450000D03*
X52500000Y-49250000D03*
X107500000Y-49250000D03*
X66250000Y-49250000D03*
X93750000Y-49250000D03*
X80000000Y-49250000D03*
%TO.N,/Pin8(B13)_A*%
X109000000Y-77500000D03*
%TO.N,/Pin5(B12)_A*%
X120777000Y-70993000D03*
X135000000Y-49250000D03*
X100250000Y-70993000D03*
X121250000Y-49250000D03*
%TO.N,/Pin9(B14)_A*%
X52750000Y-71750000D03*
%TO.N,/Pin11(B15)_A*%
X117750000Y-71755000D03*
%TO.N,/Pin7(B3)_A*%
X122250000Y-69469000D03*
X136000000Y-54750000D03*
X113500000Y-69469000D03*
X104750000Y-69469000D03*
X57250000Y-69469000D03*
X135953500Y-69151500D03*
X131000000Y-69469000D03*
%TD*%
D16*
%TO.N,/Pin12(A5)_A*%
X86750000Y-63750000D02*
X86750000Y-76250000D01*
%TO.N,/Pin10(A2)_A*%
X98750000Y-45500000D02*
X98750000Y-38750000D01*
X98750000Y-51250000D02*
X98750000Y-45500000D01*
X143500000Y-45500000D02*
X143500000Y-59750000D01*
%TO.N,/Pin2(A1)_A*%
X126250000Y-51250000D02*
X126250000Y-48500000D01*
X79750000Y-66750000D02*
X79750000Y-54000000D01*
X140100000Y-61150000D02*
X140040000Y-61150000D01*
X79750000Y-73250000D02*
X79750000Y-66750000D01*
X71250000Y-47750000D02*
X71250000Y-38750000D01*
X71250000Y-51250000D02*
X71250000Y-47750000D01*
X126250000Y-48500000D02*
X126250000Y-38750000D01*
X78250000Y-52500000D02*
X78250000Y-47750000D01*
X79750000Y-54000000D02*
X78250000Y-52500000D01*
X142000000Y-48500000D02*
X142000000Y-59250000D01*
X142000000Y-59250000D02*
X140100000Y-61150000D01*
%TO.N,/Pin6(B2)_A*%
X85000000Y-47000000D02*
X85000000Y-38750000D01*
X137500000Y-53750000D02*
X137500000Y-56070000D01*
X140000000Y-38750000D02*
X140000000Y-40750000D01*
X85000000Y-51250000D02*
X85000000Y-47000000D01*
X140000000Y-51250000D02*
X137500000Y-53750000D01*
X140000000Y-40750000D02*
X140000000Y-51250000D01*
%TO.N,/Pin3(B1)_A*%
X112500000Y-51250000D02*
X112500000Y-48500000D01*
X112500000Y-48500000D02*
X112500000Y-46250000D01*
X68750000Y-76250000D02*
X68750000Y-63750000D01*
X68750000Y-63750000D02*
X68750000Y-48500000D01*
X57500000Y-51250000D02*
X57500000Y-48500000D01*
X142750000Y-46250000D02*
X142750000Y-58500000D01*
X112500000Y-46250000D02*
X112500000Y-38750000D01*
X57500000Y-48500000D02*
X57500000Y-38750000D01*
%TO.N,/Pin1(B16)_A*%
X63750000Y-63750000D02*
X63750000Y-66750000D01*
X75250000Y-70231000D02*
X75250000Y-66750000D01*
X63750000Y-66750000D02*
X63750000Y-76250000D01*
X126500000Y-73250000D02*
X126500000Y-76300000D01*
X126500000Y-73250000D02*
X126500000Y-66750000D01*
X75250000Y-73250000D02*
X75250000Y-70231000D01*
%TO.N,/Pin4(B11)_A*%
X107500000Y-49250000D02*
X107500000Y-40750000D01*
X93750000Y-72450000D02*
X93750000Y-51250000D01*
X107500000Y-40750000D02*
X107500000Y-38750000D01*
X52500000Y-49250000D02*
X52500000Y-38750000D01*
X52500000Y-51250000D02*
X52500000Y-49250000D01*
X93750000Y-51250000D02*
X93750000Y-49250000D01*
X80000000Y-51250000D02*
X80000000Y-49250000D01*
X66250000Y-49250000D02*
X66250000Y-38750000D01*
X80000000Y-49250000D02*
X80000000Y-38750000D01*
X93750000Y-49250000D02*
X93750000Y-38750000D01*
X66250000Y-51250000D02*
X66250000Y-49250000D01*
X107500000Y-51250000D02*
X107500000Y-49250000D01*
%TO.N,/Pin8(B13)_A*%
X109000000Y-73250000D02*
X109000000Y-66750000D01*
X109000000Y-73250000D02*
X109000000Y-77500000D01*
%TO.N,/Pin5(B12)_A*%
X135000000Y-51250000D02*
X135000000Y-76430000D01*
X100250000Y-70993000D02*
X100250000Y-66750000D01*
X120777000Y-65723000D02*
X121250000Y-65250000D01*
X121250000Y-49250000D02*
X121250000Y-38750000D01*
X135000000Y-49250000D02*
X135000000Y-51250000D01*
X135000000Y-38750000D02*
X135000000Y-40750000D01*
X135000000Y-40750000D02*
X135000000Y-49250000D01*
X100250000Y-73250000D02*
X100250000Y-70993000D01*
X121250000Y-51250000D02*
X121250000Y-49250000D01*
X120777000Y-70993000D02*
X120777000Y-65723000D01*
X135000000Y-76430000D02*
X137500000Y-78930000D01*
X121250000Y-65250000D02*
X121250000Y-51250000D01*
%TO.N,/Pin13(A17)_A*%
X91750000Y-76250000D02*
X91750000Y-63750000D01*
%TO.N,/Pin9(B14)_A*%
X52750000Y-73250000D02*
X52750000Y-71750000D01*
X52750000Y-71750000D02*
X52750000Y-66750000D01*
%TO.N,/Pin11(B15)_A*%
X117750000Y-73250000D02*
X117750000Y-66750000D01*
%TO.N,/Pin7(B3)_A*%
X57250000Y-73250000D02*
X57250000Y-69469000D01*
X135953500Y-69151500D02*
X135953500Y-69117500D01*
X122250000Y-69469000D02*
X122250000Y-66750000D01*
X104750000Y-66750000D02*
X104750000Y-73250000D01*
X135953500Y-69117500D02*
X136000000Y-69071000D01*
X136000000Y-69071000D02*
X136000000Y-54750000D01*
X122250000Y-73250000D02*
X122250000Y-69469000D01*
X57250000Y-69469000D02*
X57250000Y-66750000D01*
X131000000Y-73250000D02*
X131000000Y-66750000D01*
X113500000Y-66750000D02*
X113500000Y-73250000D01*
%TD*%
M02*
