%TF.GenerationSoftware,KiCad,Pcbnew,9.0.6*%
%TF.CreationDate,2026-01-11T11:48:49+09:00*%
%TF.ProjectId,MH01952024221Z2_1Mbit_mask-rom_adaptor,4d483031-3935-4323-9032-343232315a32,rev?*%
%TF.SameCoordinates,Original*%
%TF.FileFunction,Copper,L1,Top*%
%TF.FilePolarity,Positive*%
%FSLAX46Y46*%
G04 Gerber Fmt 4.6, Leading zero omitted, Abs format (unit mm)*
G04 Created by KiCad (PCBNEW 9.0.6) date 2026-01-11 11:48:49*
%MOMM*%
%LPD*%
G01*
G04 APERTURE LIST*
%TA.AperFunction,ComponentPad*%
%ADD10C,1.600000*%
%TD*%
%TA.AperFunction,ComponentPad*%
%ADD11R,1.600000X1.600000*%
%TD*%
%TA.AperFunction,ComponentPad*%
%ADD12O,1.600000X1.600000*%
%TD*%
%TA.AperFunction,ComponentPad*%
%ADD13R,2.000000X1.440000*%
%TD*%
%TA.AperFunction,ComponentPad*%
%ADD14O,2.000000X1.440000*%
%TD*%
%TA.AperFunction,ViaPad*%
%ADD15C,0.600000*%
%TD*%
%TA.AperFunction,Conductor*%
%ADD16C,0.400000*%
%TD*%
G04 APERTURE END LIST*
D10*
%TO.P,R2,1*%
%TO.N,Net-(J1-Pin_24)*%
X106680000Y-100330000D03*
%TO.P,R2,2*%
%TO.N,/VCC*%
X96520000Y-100330000D03*
%TD*%
D11*
%TO.P,J1,1,Pin_1*%
%TO.N,Net-(J1-Pin_1)*%
X93974500Y-53340000D03*
D12*
%TO.P,J1,2,Pin_2*%
%TO.N,/A16*%
X93974500Y-55880000D03*
%TO.P,J1,3,Pin_3*%
%TO.N,/A15*%
X93974500Y-58420000D03*
%TO.P,J1,4,Pin_4*%
%TO.N,/A12*%
X93974500Y-60960000D03*
%TO.P,J1,5,Pin_5*%
%TO.N,/A7*%
X93974500Y-63500000D03*
%TO.P,J1,6,Pin_6*%
%TO.N,/A6*%
X93974500Y-66040000D03*
%TO.P,J1,7,Pin_7*%
%TO.N,/A5*%
X93974500Y-68580000D03*
%TO.P,J1,8,Pin_8*%
%TO.N,/A4*%
X93974500Y-71120000D03*
%TO.P,J1,9,Pin_9*%
%TO.N,/A3*%
X93974500Y-73660000D03*
%TO.P,J1,10,Pin_10*%
%TO.N,/A2*%
X93974500Y-76200000D03*
%TO.P,J1,11,Pin_11*%
%TO.N,/A1*%
X93974500Y-78740000D03*
%TO.P,J1,12,Pin_12*%
%TO.N,/A0*%
X93974500Y-81280000D03*
%TO.P,J1,13,Pin_13*%
%TO.N,/D0*%
X93974500Y-83820000D03*
%TO.P,J1,14,Pin_14*%
%TO.N,/D1*%
X93974500Y-86360000D03*
%TO.P,J1,15,Pin_15*%
%TO.N,/D2*%
X93974500Y-88900000D03*
%TO.P,J1,16,Pin_16*%
%TO.N,/GND*%
X93974500Y-91440000D03*
%TO.P,J1,17,Pin_17*%
%TO.N,/D3*%
X109214500Y-91440000D03*
%TO.P,J1,18,Pin_18*%
%TO.N,/D4*%
X109214500Y-88900000D03*
%TO.P,J1,19,Pin_19*%
%TO.N,/D5*%
X109214500Y-86360000D03*
%TO.P,J1,20,Pin_20*%
%TO.N,/D6*%
X109214500Y-83820000D03*
%TO.P,J1,21,Pin_21*%
%TO.N,/D7*%
X109214500Y-81280000D03*
%TO.P,J1,22,Pin_22*%
%TO.N,/~CE*%
X109214500Y-78740000D03*
%TO.P,J1,23,Pin_23*%
%TO.N,/A10*%
X109214500Y-76200000D03*
%TO.P,J1,24,Pin_24*%
%TO.N,Net-(J1-Pin_24)*%
X109214500Y-73660000D03*
%TO.P,J1,25,Pin_25*%
%TO.N,/A11*%
X109214500Y-71120000D03*
%TO.P,J1,26,Pin_26*%
%TO.N,/A9*%
X109214500Y-68580000D03*
%TO.P,J1,27,Pin_27*%
%TO.N,/A8*%
X109214500Y-66040000D03*
%TO.P,J1,28,Pin_28*%
%TO.N,/A13*%
X109214500Y-63500000D03*
%TO.P,J1,29,Pin_29*%
%TO.N,/A14*%
X109214500Y-60960000D03*
%TO.P,J1,30,Pin_30*%
%TO.N,unconnected-(J1-Pin_30-Pad30)*%
X109214500Y-58420000D03*
%TO.P,J1,31,Pin_31*%
%TO.N,Net-(J1-Pin_31)*%
X109214500Y-55880000D03*
%TO.P,J1,32,Pin_32*%
%TO.N,/VCC*%
X109214500Y-53340000D03*
%TD*%
D10*
%TO.P,R1,1*%
%TO.N,Net-(J1-Pin_31)*%
X106680000Y-96520000D03*
%TO.P,R1,2*%
%TO.N,/VCC*%
X96520000Y-96520000D03*
%TD*%
%TO.P,R3,1*%
%TO.N,Net-(J1-Pin_1)*%
X106680000Y-104140000D03*
%TO.P,R3,2*%
%TO.N,/GND*%
X96520000Y-104140000D03*
%TD*%
D13*
%TO.P,U2,1,A15*%
%TO.N,/A15*%
X118110000Y-61087000D03*
D14*
%TO.P,U2,2,A12*%
%TO.N,/A12*%
X118110000Y-63627000D03*
%TO.P,U2,3,A7*%
%TO.N,/A7*%
X118110000Y-66167000D03*
%TO.P,U2,4,A6*%
%TO.N,/A6*%
X118110000Y-68707000D03*
%TO.P,U2,5,A5*%
%TO.N,/A5*%
X118110000Y-71247000D03*
%TO.P,U2,6,A4*%
%TO.N,/A4*%
X118110000Y-73787000D03*
%TO.P,U2,7,A3*%
%TO.N,/A3*%
X118110000Y-76327000D03*
%TO.P,U2,8,A2*%
%TO.N,/A2*%
X118110000Y-78867000D03*
%TO.P,U2,9,A1*%
%TO.N,/A1*%
X118110000Y-81407000D03*
%TO.P,U2,10,A0*%
%TO.N,/A0*%
X118110000Y-83947000D03*
%TO.P,U2,11,D0*%
%TO.N,/D0*%
X118110000Y-86487000D03*
%TO.P,U2,12,D1*%
%TO.N,/D1*%
X118110000Y-89027000D03*
%TO.P,U2,13,D2*%
%TO.N,/D2*%
X118110000Y-91567000D03*
%TO.P,U2,14,GND*%
%TO.N,/GND*%
X118110000Y-94107000D03*
%TO.P,U2,15,D3*%
%TO.N,/D3*%
X133350000Y-94107000D03*
%TO.P,U2,16,D4*%
%TO.N,/D4*%
X133350000Y-91567000D03*
%TO.P,U2,17,D5*%
%TO.N,/D5*%
X133350000Y-89027000D03*
%TO.P,U2,18,D6*%
%TO.N,/D6*%
X133350000Y-86487000D03*
%TO.P,U2,19,D7*%
%TO.N,/D7*%
X133350000Y-83947000D03*
%TO.P,U2,20,~{CE}*%
%TO.N,/~CE*%
X133350000Y-81407000D03*
%TO.P,U2,21,A10*%
%TO.N,/A10*%
X133350000Y-78867000D03*
%TO.P,U2,22,A16*%
%TO.N,/A16*%
X133350000Y-76327000D03*
%TO.P,U2,23,A11*%
%TO.N,/A11*%
X133350000Y-73787000D03*
%TO.P,U2,24,A9*%
%TO.N,/A9*%
X133350000Y-71247000D03*
%TO.P,U2,25,A8*%
%TO.N,/A8*%
X133350000Y-68707000D03*
%TO.P,U2,26,A13*%
%TO.N,/A13*%
X133350000Y-66167000D03*
%TO.P,U2,27,A14*%
%TO.N,/A14*%
X133350000Y-63627000D03*
%TO.P,U2,28,VCC*%
%TO.N,/VCC*%
X133350000Y-61087000D03*
%TD*%
D15*
%TO.N,Net-(J1-Pin_1)*%
X105410000Y-54610000D03*
%TO.N,Net-(J1-Pin_31)*%
X106680000Y-55880000D03*
%TO.N,/VCC*%
X96520000Y-53340000D03*
%TO.N,Net-(J1-Pin_24)*%
X107950000Y-73660000D03*
%TO.N,/A16*%
X110490000Y-73660000D03*
X110490000Y-57150000D03*
%TD*%
D16*
%TO.N,Net-(J1-Pin_1)*%
X95244500Y-54610000D02*
X93974500Y-53340000D01*
X105410000Y-54610000D02*
X95244500Y-54610000D01*
%TO.N,/D4*%
X123190000Y-91440000D02*
X133223000Y-91440000D01*
X110490000Y-88900000D02*
X111760000Y-90170000D01*
X111760000Y-90170000D02*
X121920000Y-90170000D01*
X109214500Y-88900000D02*
X110490000Y-88900000D01*
X133223000Y-91440000D02*
X133350000Y-91567000D01*
X121920000Y-90170000D02*
X123190000Y-91440000D01*
%TO.N,Net-(J1-Pin_31)*%
X109214500Y-55880000D02*
X106680000Y-55880000D01*
%TO.N,/A4*%
X111760000Y-73660000D02*
X117983000Y-73660000D01*
X117983000Y-73660000D02*
X118110000Y-73787000D01*
X93974500Y-71120000D02*
X95244500Y-72390000D01*
X110490000Y-72390000D02*
X111760000Y-73660000D01*
X95244500Y-72390000D02*
X110490000Y-72390000D01*
%TO.N,/A7*%
X111760000Y-66040000D02*
X117983000Y-66040000D01*
X95244500Y-64770000D02*
X110490000Y-64770000D01*
X110490000Y-64770000D02*
X111760000Y-66040000D01*
X117983000Y-66040000D02*
X118110000Y-66167000D01*
X93974500Y-63500000D02*
X95244500Y-64770000D01*
%TO.N,/~CE*%
X109214500Y-78740000D02*
X110490000Y-78740000D01*
X110490000Y-78740000D02*
X111760000Y-80010000D01*
X111760000Y-80010000D02*
X121920000Y-80010000D01*
X133223000Y-81280000D02*
X133350000Y-81407000D01*
X121920000Y-80010000D02*
X123190000Y-81280000D01*
X123190000Y-81280000D02*
X133223000Y-81280000D01*
%TO.N,/A8*%
X133223000Y-68580000D02*
X133350000Y-68707000D01*
X123190000Y-68580000D02*
X133223000Y-68580000D01*
X109214500Y-66040000D02*
X110490000Y-66040000D01*
X111760000Y-67310000D02*
X121920000Y-67310000D01*
X121920000Y-67310000D02*
X123190000Y-68580000D01*
X110490000Y-66040000D02*
X111760000Y-67310000D01*
%TO.N,/A0*%
X110490000Y-82550000D02*
X111760000Y-83820000D01*
X93974500Y-81280000D02*
X95244500Y-82550000D01*
X117983000Y-83820000D02*
X118110000Y-83947000D01*
X111760000Y-83820000D02*
X117983000Y-83820000D01*
X95244500Y-82550000D02*
X110490000Y-82550000D01*
%TO.N,/A1*%
X111760000Y-81280000D02*
X117983000Y-81280000D01*
X93974500Y-78740000D02*
X95244500Y-80010000D01*
X110490000Y-80010000D02*
X111760000Y-81280000D01*
X117983000Y-81280000D02*
X118110000Y-81407000D01*
X95244500Y-80010000D02*
X110490000Y-80010000D01*
%TO.N,/A2*%
X95244500Y-77470000D02*
X110521750Y-77470000D01*
X110521750Y-77470000D02*
X111791750Y-78740000D01*
X93974500Y-76200000D02*
X95244500Y-77470000D01*
X111791750Y-78740000D02*
X117983000Y-78740000D01*
X117983000Y-78740000D02*
X118110000Y-78867000D01*
%TO.N,/D1*%
X111760000Y-88900000D02*
X117983000Y-88900000D01*
X93974500Y-86360000D02*
X95244500Y-87630000D01*
X95244500Y-87630000D02*
X110490000Y-87630000D01*
X117983000Y-88900000D02*
X118110000Y-89027000D01*
X110490000Y-87630000D02*
X111760000Y-88900000D01*
%TO.N,/A13*%
X111760000Y-64770000D02*
X121920000Y-64770000D01*
X123190000Y-66040000D02*
X133223000Y-66040000D01*
X133223000Y-66040000D02*
X133350000Y-66167000D01*
X110490000Y-63500000D02*
X111760000Y-64770000D01*
X121920000Y-64770000D02*
X123190000Y-66040000D01*
X109214500Y-63500000D02*
X110490000Y-63500000D01*
%TO.N,/A3*%
X111823500Y-76200000D02*
X117983000Y-76200000D01*
X93974500Y-73660000D02*
X95244500Y-74930000D01*
X95244500Y-74930000D02*
X110553500Y-74930000D01*
X117983000Y-76200000D02*
X118110000Y-76327000D01*
X110553500Y-74930000D02*
X111823500Y-76200000D01*
%TO.N,/A10*%
X121920000Y-77470000D02*
X123190000Y-78740000D01*
X123190000Y-78740000D02*
X133223000Y-78740000D01*
X110490000Y-76200000D02*
X111760000Y-77470000D01*
X133223000Y-78740000D02*
X133350000Y-78867000D01*
X109214500Y-76200000D02*
X110490000Y-76200000D01*
X111760000Y-77470000D02*
X121920000Y-77470000D01*
%TO.N,/D3*%
X133223000Y-93980000D02*
X133350000Y-94107000D01*
X109214500Y-91440000D02*
X110490000Y-91440000D01*
X121920000Y-92710000D02*
X123190000Y-93980000D01*
X123190000Y-93980000D02*
X133223000Y-93980000D01*
X110490000Y-91440000D02*
X111760000Y-92710000D01*
X111760000Y-92710000D02*
X121920000Y-92710000D01*
%TO.N,/A11*%
X111760000Y-72390000D02*
X121920000Y-72390000D01*
X109214500Y-71120000D02*
X110490000Y-71120000D01*
X123190000Y-73660000D02*
X133223000Y-73660000D01*
X110490000Y-71120000D02*
X111760000Y-72390000D01*
X133223000Y-73660000D02*
X133350000Y-73787000D01*
X121920000Y-72390000D02*
X123190000Y-73660000D01*
%TO.N,/A12*%
X93974500Y-60960000D02*
X95244500Y-62230000D01*
X117983000Y-63500000D02*
X118110000Y-63627000D01*
X95244500Y-62230000D02*
X110490000Y-62230000D01*
X110490000Y-62230000D02*
X111760000Y-63500000D01*
X111760000Y-63500000D02*
X117983000Y-63500000D01*
%TO.N,/A15*%
X110490000Y-59690000D02*
X111760000Y-60960000D01*
X111760000Y-60960000D02*
X117983000Y-60960000D01*
X93974500Y-58420000D02*
X95244500Y-59690000D01*
X117983000Y-60960000D02*
X118110000Y-61087000D01*
X95244500Y-59690000D02*
X110490000Y-59690000D01*
%TO.N,/VCC*%
X133223000Y-60960000D02*
X133350000Y-61087000D01*
X109214500Y-53340000D02*
X115570000Y-53340000D01*
X109214500Y-53340000D02*
X96520000Y-53340000D01*
X123190000Y-60960000D02*
X133223000Y-60960000D01*
X115570000Y-53340000D02*
X123190000Y-60960000D01*
%TO.N,Net-(J1-Pin_24)*%
X109214500Y-73660000D02*
X107950000Y-73660000D01*
%TO.N,/D0*%
X93974500Y-83820000D02*
X95244500Y-85090000D01*
X117983000Y-86360000D02*
X118110000Y-86487000D01*
X95244500Y-85090000D02*
X110490000Y-85090000D01*
X110490000Y-85090000D02*
X111760000Y-86360000D01*
X111760000Y-86360000D02*
X117983000Y-86360000D01*
%TO.N,/A14*%
X121920000Y-62230000D02*
X123190000Y-63500000D01*
X111760000Y-62230000D02*
X121920000Y-62230000D01*
X123190000Y-63500000D02*
X133223000Y-63500000D01*
X109214500Y-60960000D02*
X110490000Y-60960000D01*
X133223000Y-63500000D02*
X133350000Y-63627000D01*
X110490000Y-60960000D02*
X111760000Y-62230000D01*
%TO.N,/A5*%
X117983000Y-71120000D02*
X118110000Y-71247000D01*
X110553500Y-69850000D02*
X111823500Y-71120000D01*
X93974500Y-68580000D02*
X95244500Y-69850000D01*
X95244500Y-69850000D02*
X110553500Y-69850000D01*
X111823500Y-71120000D02*
X117983000Y-71120000D01*
%TO.N,/D2*%
X110490000Y-90170000D02*
X111760000Y-91440000D01*
X111760000Y-91440000D02*
X117983000Y-91440000D01*
X95244500Y-90170000D02*
X110490000Y-90170000D01*
X117983000Y-91440000D02*
X118110000Y-91567000D01*
X93974500Y-88900000D02*
X95244500Y-90170000D01*
%TO.N,/D6*%
X110490000Y-83820000D02*
X111760000Y-85090000D01*
X133223000Y-86360000D02*
X133350000Y-86487000D01*
X109214500Y-83820000D02*
X110490000Y-83820000D01*
X121920000Y-85090000D02*
X123190000Y-86360000D01*
X123190000Y-86360000D02*
X133223000Y-86360000D01*
X111760000Y-85090000D02*
X121920000Y-85090000D01*
%TO.N,/A16*%
X111760000Y-74930000D02*
X121920000Y-74930000D01*
X133223000Y-76200000D02*
X133350000Y-76327000D01*
X110490000Y-57150000D02*
X95244500Y-57150000D01*
X121920000Y-74930000D02*
X123190000Y-76200000D01*
X110490000Y-73660000D02*
X111760000Y-74930000D01*
X123190000Y-76200000D02*
X133223000Y-76200000D01*
X95244500Y-57150000D02*
X93974500Y-55880000D01*
%TO.N,/A9*%
X121920000Y-69850000D02*
X123190000Y-71120000D01*
X133223000Y-71120000D02*
X133350000Y-71247000D01*
X111760000Y-69850000D02*
X121920000Y-69850000D01*
X110490000Y-68580000D02*
X111760000Y-69850000D01*
X109214500Y-68580000D02*
X110490000Y-68580000D01*
X123190000Y-71120000D02*
X133223000Y-71120000D01*
%TO.N,/A6*%
X93974500Y-66040000D02*
X95244500Y-67310000D01*
X117983000Y-68580000D02*
X118110000Y-68707000D01*
X110490000Y-67310000D02*
X111760000Y-68580000D01*
X95244500Y-67310000D02*
X110490000Y-67310000D01*
X111760000Y-68580000D02*
X117983000Y-68580000D01*
%TO.N,/D5*%
X109214500Y-86360000D02*
X110363000Y-86360000D01*
X133223000Y-88900000D02*
X133350000Y-89027000D01*
X110363000Y-86360000D02*
X111633000Y-87630000D01*
X123190000Y-88900000D02*
X133223000Y-88900000D01*
X111633000Y-87630000D02*
X121920000Y-87630000D01*
X121920000Y-87630000D02*
X123190000Y-88900000D01*
%TO.N,/D7*%
X109214500Y-81280000D02*
X110490000Y-81280000D01*
X123190000Y-83820000D02*
X133223000Y-83820000D01*
X133223000Y-83820000D02*
X133350000Y-83947000D01*
X111760000Y-82550000D02*
X121920000Y-82550000D01*
X121920000Y-82550000D02*
X123190000Y-83820000D01*
X110490000Y-81280000D02*
X111760000Y-82550000D01*
%TD*%
M02*
