%TF.GenerationSoftware,KiCad,Pcbnew,9.0.6*%
%TF.CreationDate,2026-01-11T11:48:49+09:00*%
%TF.ProjectId,MH01952024221Z2_1Mbit_mask-rom_adaptor,4d483031-3935-4323-9032-343232315a32,rev?*%
%TF.SameCoordinates,Original*%
%TF.FileFunction,Legend,Top*%
%TF.FilePolarity,Positive*%
%FSLAX46Y46*%
G04 Gerber Fmt 4.6, Leading zero omitted, Abs format (unit mm)*
G04 Created by KiCad (PCBNEW 9.0.6) date 2026-01-11 11:48:49*
%MOMM*%
%LPD*%
G01*
G04 APERTURE LIST*
%ADD10C,0.300000*%
%ADD11C,0.380000*%
%ADD12C,0.100000*%
%ADD13C,0.225000*%
%ADD14C,0.150000*%
%ADD15C,0.090000*%
%ADD16C,0.120000*%
G04 APERTURE END LIST*
D10*
X91904000Y-108458000D02*
X137414000Y-108458000D01*
D11*
G36*
X92863575Y-108400000D02*
G01*
X93154285Y-107244603D01*
X92800658Y-107244603D01*
X92837032Y-107100163D01*
X93471538Y-107010716D01*
X93121843Y-108400000D01*
X92863575Y-108400000D01*
G37*
G36*
X95093475Y-107268270D02*
G01*
X95086032Y-107353309D01*
X95059629Y-107470484D01*
X94825657Y-108400000D01*
X94585926Y-108400000D01*
X94933514Y-107018953D01*
X95161308Y-107018953D01*
X95724892Y-107910299D01*
X96683814Y-107018953D01*
X96940256Y-107018953D01*
X96592668Y-108400000D01*
X96334540Y-108400000D01*
X96568934Y-107468976D01*
X96597162Y-107377208D01*
X96625953Y-107287064D01*
X96562474Y-107360270D01*
X96505315Y-107418858D01*
X95690203Y-108184327D01*
X95616192Y-108184327D01*
X95156533Y-107439276D01*
X95150775Y-107429763D01*
X95110695Y-107346598D01*
X95093475Y-107268270D01*
G37*
G36*
X98897751Y-107271356D02*
G01*
X98965619Y-107290216D01*
X99009073Y-107317576D01*
X99036126Y-107356111D01*
X99047136Y-107410553D01*
X99037301Y-107487655D01*
X99004579Y-107617592D01*
X98969118Y-107699104D01*
X98913714Y-107754722D01*
X98835704Y-107790396D01*
X98719486Y-107809365D01*
X98794700Y-107820804D01*
X98848455Y-107842888D01*
X98886048Y-107874682D01*
X98909285Y-107915295D01*
X98918103Y-107965948D01*
X98909922Y-108030143D01*
X98872987Y-108176902D01*
X98844135Y-108246984D01*
X98798177Y-108302098D01*
X98734092Y-108344892D01*
X98657543Y-108373734D01*
X98557278Y-108392896D01*
X98427231Y-108400000D01*
X97378990Y-108400000D01*
X97421953Y-108229225D01*
X97683323Y-108229225D01*
X98451527Y-108229225D01*
X98528624Y-108221402D01*
X98574833Y-108201729D01*
X98606509Y-108166672D01*
X98631852Y-108102536D01*
X98654463Y-108012740D01*
X98660826Y-107948922D01*
X98646739Y-107915403D01*
X98612193Y-107895960D01*
X98539302Y-107887676D01*
X97769272Y-107887676D01*
X97683323Y-108229225D01*
X97421953Y-108229225D01*
X97550841Y-107716901D01*
X97812246Y-107716901D01*
X98580451Y-107716901D01*
X98659096Y-107711169D01*
X98697859Y-107698223D01*
X98723116Y-107673689D01*
X98741957Y-107628961D01*
X98768640Y-107522459D01*
X98771514Y-107477400D01*
X98757124Y-107453662D01*
X98725036Y-107440662D01*
X98653339Y-107434752D01*
X97883309Y-107434752D01*
X97812246Y-107716901D01*
X97550841Y-107716901D01*
X97664785Y-107263977D01*
X98795605Y-107263977D01*
X98897751Y-107271356D01*
G37*
G36*
X99666190Y-108400000D02*
G01*
X99406377Y-108400000D01*
X99690345Y-107271402D01*
X99950159Y-107271402D01*
X99666190Y-108400000D01*
G37*
G36*
X101178163Y-107442177D02*
G01*
X100937169Y-108400000D01*
X100677355Y-108400000D01*
X100918350Y-107442177D01*
X100287776Y-107442177D01*
X100332576Y-107263977D01*
X101856486Y-107263977D01*
X101811686Y-107442177D01*
X101178163Y-107442177D01*
G37*
G36*
X103800733Y-107268270D02*
G01*
X103793289Y-107353309D01*
X103766887Y-107470484D01*
X103532914Y-108400000D01*
X103293184Y-108400000D01*
X103640772Y-107018953D01*
X103868565Y-107018953D01*
X104432149Y-107910299D01*
X105391071Y-107018953D01*
X105647514Y-107018953D01*
X105299926Y-108400000D01*
X105041798Y-108400000D01*
X105276192Y-107468976D01*
X105304420Y-107377208D01*
X105333210Y-107287064D01*
X105269731Y-107360270D01*
X105212572Y-107418858D01*
X104397461Y-108184327D01*
X104323449Y-108184327D01*
X103863790Y-107439276D01*
X103858032Y-107429763D01*
X103817953Y-107346598D01*
X103800733Y-107268270D01*
G37*
G36*
X107672934Y-108400000D02*
G01*
X107389527Y-108400000D01*
X107281108Y-108140125D01*
X106363897Y-108140125D01*
X106127818Y-108400000D01*
X105864353Y-108400000D01*
X106267262Y-107969351D01*
X106517818Y-107969351D01*
X107211450Y-107969351D01*
X106996858Y-107441481D01*
X106517818Y-107969351D01*
X106267262Y-107969351D01*
X106927200Y-107263977D01*
X107163139Y-107263977D01*
X107672934Y-108400000D01*
G37*
G36*
X109523086Y-107442177D02*
G01*
X108595623Y-107442177D01*
X108524701Y-107724326D01*
X109375905Y-107724326D01*
X109501521Y-107732532D01*
X109578046Y-107752652D01*
X109621534Y-107780362D01*
X109645900Y-107820871D01*
X109654385Y-107887274D01*
X109638247Y-107992322D01*
X109603979Y-108128408D01*
X109568668Y-108231942D01*
X109527389Y-108300571D01*
X109482078Y-108343500D01*
X109422964Y-108372304D01*
X109334927Y-108392264D01*
X109207659Y-108400000D01*
X108395637Y-108400000D01*
X108268093Y-108391624D01*
X108190743Y-108371124D01*
X108147059Y-108342920D01*
X108122908Y-108301679D01*
X108114658Y-108233961D01*
X108131189Y-108126783D01*
X108139756Y-108092675D01*
X108390441Y-108049981D01*
X108347185Y-108221800D01*
X109345290Y-108221800D01*
X109423795Y-107909951D01*
X108569642Y-107909951D01*
X108442879Y-107901754D01*
X108366185Y-107881723D01*
X108323030Y-107854263D01*
X108299061Y-107813902D01*
X108290791Y-107747803D01*
X108306879Y-107643347D01*
X108333422Y-107538005D01*
X108368628Y-107435024D01*
X108410179Y-107365971D01*
X108456166Y-107322101D01*
X108516199Y-107292323D01*
X108604317Y-107271860D01*
X108730304Y-107263977D01*
X109473090Y-107263977D01*
X109597505Y-107272193D01*
X109674637Y-107292494D01*
X109719561Y-107320709D01*
X109745803Y-107361576D01*
X109755715Y-107424260D01*
X109742172Y-107518747D01*
X109734729Y-107548447D01*
X109485448Y-107591721D01*
X109523086Y-107442177D01*
G37*
G36*
X110155626Y-108400000D02*
G01*
X110441421Y-107263977D01*
X110702779Y-107263977D01*
X110582142Y-107743701D01*
X111538816Y-107263977D01*
X111907330Y-107263977D01*
X110776089Y-107812846D01*
X111729393Y-108400000D01*
X111302176Y-108400000D01*
X110543521Y-107897189D01*
X110416984Y-108400000D01*
X110155626Y-108400000D01*
G37*
G36*
X115198649Y-107027847D02*
G01*
X115278406Y-107050508D01*
X115328861Y-107083341D01*
X115359731Y-107129554D01*
X115371929Y-107195657D01*
X115359336Y-107290081D01*
X115281954Y-107597173D01*
X115249126Y-107687056D01*
X115204327Y-107753585D01*
X115148677Y-107801592D01*
X115079181Y-107835190D01*
X114987177Y-107857238D01*
X114866253Y-107865401D01*
X114638319Y-107865401D01*
X115246563Y-108400000D01*
X114831143Y-108400000D01*
X114304354Y-107865401D01*
X113831915Y-107865401D01*
X113697374Y-108400000D01*
X113416073Y-108400000D01*
X113597342Y-107679776D01*
X113878541Y-107679776D01*
X114804881Y-107679776D01*
X114895984Y-107671020D01*
X114948269Y-107649496D01*
X114983698Y-107611067D01*
X115011327Y-107542182D01*
X115061745Y-107341823D01*
X115068486Y-107271903D01*
X115052476Y-107235089D01*
X115013039Y-107213848D01*
X114926361Y-107204577D01*
X113998195Y-107204577D01*
X113878541Y-107679776D01*
X113597342Y-107679776D01*
X113763661Y-107018953D01*
X115077474Y-107018953D01*
X115198649Y-107027847D01*
G37*
G36*
X117851617Y-107029072D02*
G01*
X117940380Y-107053895D01*
X117990473Y-107088330D01*
X118017698Y-107137992D01*
X118026408Y-107219118D01*
X118006202Y-107346812D01*
X117824192Y-108070284D01*
X117781525Y-108195930D01*
X117732162Y-108279172D01*
X117678416Y-108331202D01*
X117608103Y-108366524D01*
X117505469Y-108390706D01*
X117359337Y-108400000D01*
X116235118Y-108400000D01*
X116086615Y-108389678D01*
X115997039Y-108364396D01*
X115946795Y-108329346D01*
X115919699Y-108278777D01*
X115911493Y-108199525D01*
X116178380Y-108199525D01*
X117514944Y-108199525D01*
X117763522Y-107212002D01*
X116426958Y-107212002D01*
X116178380Y-108199525D01*
X115911493Y-108199525D01*
X115911213Y-108196825D01*
X115931628Y-108068660D01*
X116113637Y-107345188D01*
X116155416Y-107222783D01*
X116204431Y-107140659D01*
X116258431Y-107088446D01*
X116329040Y-107052813D01*
X116432674Y-107028366D01*
X116580880Y-107018953D01*
X117705099Y-107018953D01*
X117851617Y-107029072D01*
G37*
G36*
X119123259Y-107268270D02*
G01*
X119115816Y-107353309D01*
X119089413Y-107470484D01*
X118855441Y-108400000D01*
X118615710Y-108400000D01*
X118963298Y-107018953D01*
X119191091Y-107018953D01*
X119754676Y-107910299D01*
X120713597Y-107018953D01*
X120970040Y-107018953D01*
X120622452Y-108400000D01*
X120364324Y-108400000D01*
X120598718Y-107468976D01*
X120626946Y-107377208D01*
X120655736Y-107287064D01*
X120592258Y-107360270D01*
X120535099Y-107418858D01*
X119719987Y-108184327D01*
X119645975Y-108184327D01*
X119186316Y-107439276D01*
X119180558Y-107429763D01*
X119140479Y-107346598D01*
X119123259Y-107268270D01*
G37*
G36*
X124501114Y-108400000D02*
G01*
X124193270Y-108400000D01*
X124069683Y-108065875D01*
X122975799Y-108065875D01*
X122683965Y-108400000D01*
X122405052Y-108400000D01*
X122871697Y-107880251D01*
X123140816Y-107880251D01*
X124001008Y-107880251D01*
X123744285Y-107188335D01*
X123140816Y-107880251D01*
X122871697Y-107880251D01*
X123644994Y-107018953D01*
X123941181Y-107018953D01*
X124501114Y-108400000D01*
G37*
G36*
X126296731Y-107269954D02*
G01*
X126430193Y-107285556D01*
X126547006Y-107314348D01*
X126629758Y-107351801D01*
X126700898Y-107406328D01*
X126755814Y-107472440D01*
X126795195Y-107552043D01*
X126816091Y-107636960D01*
X126819104Y-107729121D01*
X126802779Y-107830248D01*
X126753757Y-107969639D01*
X126684888Y-108085169D01*
X126597052Y-108180514D01*
X126489458Y-108258229D01*
X126366347Y-108316986D01*
X126218584Y-108361297D01*
X126041555Y-108389789D01*
X125829813Y-108400000D01*
X125055289Y-108400000D01*
X125100120Y-108221800D01*
X125361447Y-108221800D01*
X125844981Y-108221800D01*
X126060032Y-108209581D01*
X126216975Y-108177378D01*
X126329357Y-108130032D01*
X126399342Y-108079546D01*
X126458275Y-108014172D01*
X126506243Y-107931291D01*
X126542123Y-107827348D01*
X126557936Y-107721992D01*
X126549842Y-107641445D01*
X126522910Y-107579706D01*
X126478925Y-107532205D01*
X126419516Y-107497420D01*
X126333029Y-107469214D01*
X126210953Y-107449651D01*
X126043001Y-107442177D01*
X125557641Y-107442177D01*
X125361447Y-108221800D01*
X125100120Y-108221800D01*
X125341083Y-107263977D01*
X126113782Y-107263977D01*
X126296731Y-107269954D01*
G37*
G36*
X128884937Y-108400000D02*
G01*
X128601530Y-108400000D01*
X128493111Y-108140125D01*
X127575899Y-108140125D01*
X127339820Y-108400000D01*
X127076356Y-108400000D01*
X127479265Y-107969351D01*
X127729821Y-107969351D01*
X128423453Y-107969351D01*
X128208861Y-107441481D01*
X127729821Y-107969351D01*
X127479265Y-107969351D01*
X128139203Y-107263977D01*
X128375141Y-107263977D01*
X128884937Y-108400000D01*
G37*
G36*
X130836195Y-107271157D02*
G01*
X130904344Y-107289399D01*
X130947434Y-107315604D01*
X130974166Y-107352940D01*
X130985074Y-107407024D01*
X130974960Y-107485218D01*
X130911481Y-107737552D01*
X130884420Y-107810733D01*
X130847062Y-107864699D01*
X130800253Y-107903454D01*
X130741966Y-107930200D01*
X130664020Y-107947908D01*
X130560803Y-107954501D01*
X129689516Y-107954501D01*
X129577445Y-108400000D01*
X129316087Y-108400000D01*
X129471126Y-107783726D01*
X129732490Y-107783726D01*
X130488196Y-107783726D01*
X130564533Y-107777008D01*
X130609115Y-107760523D01*
X130639646Y-107730871D01*
X130661358Y-107680008D01*
X130697451Y-107536961D01*
X130701258Y-107485284D01*
X130686778Y-107457491D01*
X130653237Y-107441794D01*
X130577937Y-107434752D01*
X129820406Y-107434752D01*
X129732490Y-107783726D01*
X129471126Y-107783726D01*
X129601882Y-107263977D01*
X130732702Y-107263977D01*
X130836195Y-107271157D01*
G37*
G36*
X132158023Y-107442177D02*
G01*
X131917029Y-108400000D01*
X131657216Y-108400000D01*
X131898210Y-107442177D01*
X131267636Y-107442177D01*
X131312436Y-107263977D01*
X132836347Y-107263977D01*
X132791547Y-107442177D01*
X132158023Y-107442177D01*
G37*
G36*
X134631530Y-107272496D02*
G01*
X134708659Y-107293434D01*
X134752646Y-107322449D01*
X134777172Y-107364556D01*
X134785569Y-107432578D01*
X134769218Y-107538934D01*
X134620352Y-108130496D01*
X134585250Y-108232173D01*
X134543564Y-108300194D01*
X134497186Y-108343268D01*
X134437023Y-108372259D01*
X134348350Y-108392272D01*
X134221222Y-108400000D01*
X133257104Y-108400000D01*
X133128196Y-108391637D01*
X133050725Y-108371258D01*
X133007543Y-108343384D01*
X132983729Y-108302429D01*
X132975688Y-108235211D01*
X132977775Y-108221800D01*
X133230140Y-108221800D01*
X134335961Y-108221800D01*
X134532155Y-107442177D01*
X133426334Y-107442177D01*
X133230140Y-108221800D01*
X132977775Y-108221800D01*
X132992235Y-108128872D01*
X133141101Y-107537309D01*
X133176451Y-107434641D01*
X133218518Y-107365719D01*
X133265390Y-107321869D01*
X133326340Y-107292167D01*
X133415070Y-107271802D01*
X133541073Y-107263977D01*
X134505191Y-107263977D01*
X134631530Y-107272496D01*
G37*
G36*
X136638375Y-107271216D02*
G01*
X136703446Y-107289642D01*
X136744501Y-107316300D01*
X136769500Y-107353792D01*
X136779343Y-107407721D01*
X136768938Y-107485102D01*
X136705599Y-107737204D01*
X136678704Y-107810793D01*
X136642290Y-107864793D01*
X136597320Y-107903338D01*
X136541112Y-107930222D01*
X136466262Y-107947928D01*
X136367421Y-107954501D01*
X136200438Y-107954501D01*
X136677371Y-108400000D01*
X136328378Y-108400000D01*
X135908323Y-107954501D01*
X135549781Y-107954501D01*
X135437710Y-108400000D01*
X135176352Y-108400000D01*
X135329523Y-107791151D01*
X135590930Y-107791151D01*
X136296077Y-107791151D01*
X136371785Y-107784501D01*
X136412923Y-107768644D01*
X136440298Y-107738803D01*
X136463481Y-107679660D01*
X136497468Y-107544618D01*
X136502740Y-107489011D01*
X136489744Y-107459347D01*
X136457886Y-107442234D01*
X136387644Y-107434752D01*
X135680671Y-107434752D01*
X135590930Y-107791151D01*
X135329523Y-107791151D01*
X135462147Y-107263977D01*
X136539319Y-107263977D01*
X136638375Y-107271216D01*
G37*
D12*
X96839693Y-53720419D02*
X96268265Y-53720419D01*
X96553979Y-53720419D02*
X96553979Y-52720419D01*
X96553979Y-52720419D02*
X96458741Y-52863276D01*
X96458741Y-52863276D02*
X96363503Y-52958514D01*
X96363503Y-52958514D02*
X96268265Y-53006133D01*
D13*
X111685740Y-102553442D02*
X112600026Y-102896300D01*
X112600026Y-102896300D02*
X111685740Y-103239157D01*
X113171454Y-102553442D02*
X114085740Y-102896300D01*
X114085740Y-102896300D02*
X113171454Y-103239157D01*
X114657168Y-102553442D02*
X115571454Y-102896300D01*
X115571454Y-102896300D02*
X114657168Y-103239157D01*
X116142882Y-103353442D02*
X116142882Y-102153442D01*
X116142882Y-102153442D02*
X116828596Y-103353442D01*
X116828596Y-103353442D02*
X116828596Y-102153442D01*
X117628596Y-102153442D02*
X117857168Y-102153442D01*
X117857168Y-102153442D02*
X117971453Y-102210585D01*
X117971453Y-102210585D02*
X118085739Y-102324871D01*
X118085739Y-102324871D02*
X118142882Y-102553442D01*
X118142882Y-102553442D02*
X118142882Y-102953442D01*
X118142882Y-102953442D02*
X118085739Y-103182014D01*
X118085739Y-103182014D02*
X117971453Y-103296300D01*
X117971453Y-103296300D02*
X117857168Y-103353442D01*
X117857168Y-103353442D02*
X117628596Y-103353442D01*
X117628596Y-103353442D02*
X117514311Y-103296300D01*
X117514311Y-103296300D02*
X117400025Y-103182014D01*
X117400025Y-103182014D02*
X117342882Y-102953442D01*
X117342882Y-102953442D02*
X117342882Y-102553442D01*
X117342882Y-102553442D02*
X117400025Y-102324871D01*
X117400025Y-102324871D02*
X117514311Y-102210585D01*
X117514311Y-102210585D02*
X117628596Y-102153442D01*
X118485739Y-102153442D02*
X119171454Y-102153442D01*
X118828596Y-103353442D02*
X118828596Y-102153442D01*
X119571454Y-103353442D02*
X119571454Y-102153442D01*
X120828597Y-103239157D02*
X120771454Y-103296300D01*
X120771454Y-103296300D02*
X120600026Y-103353442D01*
X120600026Y-103353442D02*
X120485740Y-103353442D01*
X120485740Y-103353442D02*
X120314311Y-103296300D01*
X120314311Y-103296300D02*
X120200026Y-103182014D01*
X120200026Y-103182014D02*
X120142883Y-103067728D01*
X120142883Y-103067728D02*
X120085740Y-102839157D01*
X120085740Y-102839157D02*
X120085740Y-102667728D01*
X120085740Y-102667728D02*
X120142883Y-102439157D01*
X120142883Y-102439157D02*
X120200026Y-102324871D01*
X120200026Y-102324871D02*
X120314311Y-102210585D01*
X120314311Y-102210585D02*
X120485740Y-102153442D01*
X120485740Y-102153442D02*
X120600026Y-102153442D01*
X120600026Y-102153442D02*
X120771454Y-102210585D01*
X120771454Y-102210585D02*
X120828597Y-102267728D01*
X121342883Y-102724871D02*
X121742883Y-102724871D01*
X121914311Y-103353442D02*
X121342883Y-103353442D01*
X121342883Y-103353442D02*
X121342883Y-102153442D01*
X121342883Y-102153442D02*
X121914311Y-102153442D01*
X123342883Y-102553442D02*
X122428597Y-102896300D01*
X122428597Y-102896300D02*
X123342883Y-103239157D01*
X124828597Y-102553442D02*
X123914311Y-102896300D01*
X123914311Y-102896300D02*
X124828597Y-103239157D01*
X126314311Y-102553442D02*
X125400025Y-102896300D01*
X125400025Y-102896300D02*
X126314311Y-103239157D01*
X111628597Y-105228233D02*
X111800026Y-105285375D01*
X111800026Y-105285375D02*
X112085740Y-105285375D01*
X112085740Y-105285375D02*
X112200026Y-105228233D01*
X112200026Y-105228233D02*
X112257168Y-105171090D01*
X112257168Y-105171090D02*
X112314311Y-105056804D01*
X112314311Y-105056804D02*
X112314311Y-104942518D01*
X112314311Y-104942518D02*
X112257168Y-104828233D01*
X112257168Y-104828233D02*
X112200026Y-104771090D01*
X112200026Y-104771090D02*
X112085740Y-104713947D01*
X112085740Y-104713947D02*
X111857168Y-104656804D01*
X111857168Y-104656804D02*
X111742883Y-104599661D01*
X111742883Y-104599661D02*
X111685740Y-104542518D01*
X111685740Y-104542518D02*
X111628597Y-104428233D01*
X111628597Y-104428233D02*
X111628597Y-104313947D01*
X111628597Y-104313947D02*
X111685740Y-104199661D01*
X111685740Y-104199661D02*
X111742883Y-104142518D01*
X111742883Y-104142518D02*
X111857168Y-104085375D01*
X111857168Y-104085375D02*
X112142883Y-104085375D01*
X112142883Y-104085375D02*
X112314311Y-104142518D01*
X112828597Y-105285375D02*
X112828597Y-104085375D01*
X112828597Y-104656804D02*
X113514311Y-104656804D01*
X113514311Y-105285375D02*
X113514311Y-104085375D01*
X114314311Y-104085375D02*
X114542883Y-104085375D01*
X114542883Y-104085375D02*
X114657168Y-104142518D01*
X114657168Y-104142518D02*
X114771454Y-104256804D01*
X114771454Y-104256804D02*
X114828597Y-104485375D01*
X114828597Y-104485375D02*
X114828597Y-104885375D01*
X114828597Y-104885375D02*
X114771454Y-105113947D01*
X114771454Y-105113947D02*
X114657168Y-105228233D01*
X114657168Y-105228233D02*
X114542883Y-105285375D01*
X114542883Y-105285375D02*
X114314311Y-105285375D01*
X114314311Y-105285375D02*
X114200026Y-105228233D01*
X114200026Y-105228233D02*
X114085740Y-105113947D01*
X114085740Y-105113947D02*
X114028597Y-104885375D01*
X114028597Y-104885375D02*
X114028597Y-104485375D01*
X114028597Y-104485375D02*
X114085740Y-104256804D01*
X114085740Y-104256804D02*
X114200026Y-104142518D01*
X114200026Y-104142518D02*
X114314311Y-104085375D01*
X115342883Y-104085375D02*
X115342883Y-105056804D01*
X115342883Y-105056804D02*
X115400026Y-105171090D01*
X115400026Y-105171090D02*
X115457169Y-105228233D01*
X115457169Y-105228233D02*
X115571454Y-105285375D01*
X115571454Y-105285375D02*
X115800026Y-105285375D01*
X115800026Y-105285375D02*
X115914311Y-105228233D01*
X115914311Y-105228233D02*
X115971454Y-105171090D01*
X115971454Y-105171090D02*
X116028597Y-105056804D01*
X116028597Y-105056804D02*
X116028597Y-104085375D01*
X117171454Y-105285375D02*
X116600026Y-105285375D01*
X116600026Y-105285375D02*
X116600026Y-104085375D01*
X117571455Y-105285375D02*
X117571455Y-104085375D01*
X117571455Y-104085375D02*
X117857169Y-104085375D01*
X117857169Y-104085375D02*
X118028598Y-104142518D01*
X118028598Y-104142518D02*
X118142883Y-104256804D01*
X118142883Y-104256804D02*
X118200026Y-104371090D01*
X118200026Y-104371090D02*
X118257169Y-104599661D01*
X118257169Y-104599661D02*
X118257169Y-104771090D01*
X118257169Y-104771090D02*
X118200026Y-104999661D01*
X118200026Y-104999661D02*
X118142883Y-105113947D01*
X118142883Y-105113947D02*
X118028598Y-105228233D01*
X118028598Y-105228233D02*
X117857169Y-105285375D01*
X117857169Y-105285375D02*
X117571455Y-105285375D01*
X119685741Y-105285375D02*
X119685741Y-104085375D01*
X119685741Y-104085375D02*
X120371455Y-105285375D01*
X120371455Y-105285375D02*
X120371455Y-104085375D01*
X121171455Y-104085375D02*
X121400027Y-104085375D01*
X121400027Y-104085375D02*
X121514312Y-104142518D01*
X121514312Y-104142518D02*
X121628598Y-104256804D01*
X121628598Y-104256804D02*
X121685741Y-104485375D01*
X121685741Y-104485375D02*
X121685741Y-104885375D01*
X121685741Y-104885375D02*
X121628598Y-105113947D01*
X121628598Y-105113947D02*
X121514312Y-105228233D01*
X121514312Y-105228233D02*
X121400027Y-105285375D01*
X121400027Y-105285375D02*
X121171455Y-105285375D01*
X121171455Y-105285375D02*
X121057170Y-105228233D01*
X121057170Y-105228233D02*
X120942884Y-105113947D01*
X120942884Y-105113947D02*
X120885741Y-104885375D01*
X120885741Y-104885375D02*
X120885741Y-104485375D01*
X120885741Y-104485375D02*
X120942884Y-104256804D01*
X120942884Y-104256804D02*
X121057170Y-104142518D01*
X121057170Y-104142518D02*
X121171455Y-104085375D01*
X122028598Y-104085375D02*
X122714313Y-104085375D01*
X122371455Y-105285375D02*
X122371455Y-104085375D01*
X123971456Y-105228233D02*
X124142885Y-105285375D01*
X124142885Y-105285375D02*
X124428599Y-105285375D01*
X124428599Y-105285375D02*
X124542885Y-105228233D01*
X124542885Y-105228233D02*
X124600027Y-105171090D01*
X124600027Y-105171090D02*
X124657170Y-105056804D01*
X124657170Y-105056804D02*
X124657170Y-104942518D01*
X124657170Y-104942518D02*
X124600027Y-104828233D01*
X124600027Y-104828233D02*
X124542885Y-104771090D01*
X124542885Y-104771090D02*
X124428599Y-104713947D01*
X124428599Y-104713947D02*
X124200027Y-104656804D01*
X124200027Y-104656804D02*
X124085742Y-104599661D01*
X124085742Y-104599661D02*
X124028599Y-104542518D01*
X124028599Y-104542518D02*
X123971456Y-104428233D01*
X123971456Y-104428233D02*
X123971456Y-104313947D01*
X123971456Y-104313947D02*
X124028599Y-104199661D01*
X124028599Y-104199661D02*
X124085742Y-104142518D01*
X124085742Y-104142518D02*
X124200027Y-104085375D01*
X124200027Y-104085375D02*
X124485742Y-104085375D01*
X124485742Y-104085375D02*
X124657170Y-104142518D01*
X125171456Y-104656804D02*
X125571456Y-104656804D01*
X125742884Y-105285375D02*
X125171456Y-105285375D01*
X125171456Y-105285375D02*
X125171456Y-104085375D01*
X125171456Y-104085375D02*
X125742884Y-104085375D01*
X126085741Y-104085375D02*
X126771456Y-104085375D01*
X126428598Y-105285375D02*
X126428598Y-104085375D01*
X128028599Y-104085375D02*
X128028599Y-104313947D01*
X128485742Y-104085375D02*
X128485742Y-104313947D01*
X129685742Y-105171090D02*
X129628599Y-105228233D01*
X129628599Y-105228233D02*
X129457171Y-105285375D01*
X129457171Y-105285375D02*
X129342885Y-105285375D01*
X129342885Y-105285375D02*
X129171456Y-105228233D01*
X129171456Y-105228233D02*
X129057171Y-105113947D01*
X129057171Y-105113947D02*
X129000028Y-104999661D01*
X129000028Y-104999661D02*
X128942885Y-104771090D01*
X128942885Y-104771090D02*
X128942885Y-104599661D01*
X128942885Y-104599661D02*
X129000028Y-104371090D01*
X129000028Y-104371090D02*
X129057171Y-104256804D01*
X129057171Y-104256804D02*
X129171456Y-104142518D01*
X129171456Y-104142518D02*
X129342885Y-104085375D01*
X129342885Y-104085375D02*
X129457171Y-104085375D01*
X129457171Y-104085375D02*
X129628599Y-104142518D01*
X129628599Y-104142518D02*
X129685742Y-104199661D01*
X130200028Y-105285375D02*
X130200028Y-104085375D01*
X130200028Y-104656804D02*
X130885742Y-104656804D01*
X130885742Y-105285375D02*
X130885742Y-104085375D01*
X131457171Y-104656804D02*
X131857171Y-104656804D01*
X132028599Y-105285375D02*
X131457171Y-105285375D01*
X131457171Y-105285375D02*
X131457171Y-104085375D01*
X131457171Y-104085375D02*
X132028599Y-104085375D01*
X133228599Y-105171090D02*
X133171456Y-105228233D01*
X133171456Y-105228233D02*
X133000028Y-105285375D01*
X133000028Y-105285375D02*
X132885742Y-105285375D01*
X132885742Y-105285375D02*
X132714313Y-105228233D01*
X132714313Y-105228233D02*
X132600028Y-105113947D01*
X132600028Y-105113947D02*
X132542885Y-104999661D01*
X132542885Y-104999661D02*
X132485742Y-104771090D01*
X132485742Y-104771090D02*
X132485742Y-104599661D01*
X132485742Y-104599661D02*
X132542885Y-104371090D01*
X132542885Y-104371090D02*
X132600028Y-104256804D01*
X132600028Y-104256804D02*
X132714313Y-104142518D01*
X132714313Y-104142518D02*
X132885742Y-104085375D01*
X132885742Y-104085375D02*
X133000028Y-104085375D01*
X133000028Y-104085375D02*
X133171456Y-104142518D01*
X133171456Y-104142518D02*
X133228599Y-104199661D01*
X133742885Y-105285375D02*
X133742885Y-104085375D01*
X134428599Y-105285375D02*
X133914313Y-104599661D01*
X134428599Y-104085375D02*
X133742885Y-104771090D01*
X135857171Y-105285375D02*
X135857171Y-104085375D01*
X136428600Y-105285375D02*
X136428600Y-104085375D01*
X136428600Y-104085375D02*
X136714314Y-104085375D01*
X136714314Y-104085375D02*
X136885743Y-104142518D01*
X136885743Y-104142518D02*
X137000028Y-104256804D01*
X137000028Y-104256804D02*
X137057171Y-104371090D01*
X137057171Y-104371090D02*
X137114314Y-104599661D01*
X137114314Y-104599661D02*
X137114314Y-104771090D01*
X137114314Y-104771090D02*
X137057171Y-104999661D01*
X137057171Y-104999661D02*
X137000028Y-105113947D01*
X137000028Y-105113947D02*
X136885743Y-105228233D01*
X136885743Y-105228233D02*
X136714314Y-105285375D01*
X136714314Y-105285375D02*
X136428600Y-105285375D01*
X137571457Y-104085375D02*
X137571457Y-104313947D01*
X138028600Y-104085375D02*
X138028600Y-104313947D01*
X138542886Y-105171090D02*
X138600029Y-105228233D01*
X138600029Y-105228233D02*
X138542886Y-105285375D01*
X138542886Y-105285375D02*
X138485743Y-105228233D01*
X138485743Y-105228233D02*
X138542886Y-105171090D01*
X138542886Y-105171090D02*
X138542886Y-105285375D01*
D12*
X105872646Y-52720419D02*
X106491693Y-52720419D01*
X106491693Y-52720419D02*
X106158360Y-53101371D01*
X106158360Y-53101371D02*
X106301217Y-53101371D01*
X106301217Y-53101371D02*
X106396455Y-53148990D01*
X106396455Y-53148990D02*
X106444074Y-53196609D01*
X106444074Y-53196609D02*
X106491693Y-53291847D01*
X106491693Y-53291847D02*
X106491693Y-53529942D01*
X106491693Y-53529942D02*
X106444074Y-53625180D01*
X106444074Y-53625180D02*
X106396455Y-53672800D01*
X106396455Y-53672800D02*
X106301217Y-53720419D01*
X106301217Y-53720419D02*
X106015503Y-53720419D01*
X106015503Y-53720419D02*
X105920265Y-53672800D01*
X105920265Y-53672800D02*
X105872646Y-53625180D01*
X106872646Y-52815657D02*
X106920265Y-52768038D01*
X106920265Y-52768038D02*
X107015503Y-52720419D01*
X107015503Y-52720419D02*
X107253598Y-52720419D01*
X107253598Y-52720419D02*
X107348836Y-52768038D01*
X107348836Y-52768038D02*
X107396455Y-52815657D01*
X107396455Y-52815657D02*
X107444074Y-52910895D01*
X107444074Y-52910895D02*
X107444074Y-53006133D01*
X107444074Y-53006133D02*
X107396455Y-53148990D01*
X107396455Y-53148990D02*
X106825027Y-53720419D01*
X106825027Y-53720419D02*
X107444074Y-53720419D01*
X96331693Y-91820419D02*
X95760265Y-91820419D01*
X96045979Y-91820419D02*
X96045979Y-90820419D01*
X96045979Y-90820419D02*
X95950741Y-90963276D01*
X95950741Y-90963276D02*
X95855503Y-91058514D01*
X95855503Y-91058514D02*
X95760265Y-91106133D01*
X97188836Y-90820419D02*
X96998360Y-90820419D01*
X96998360Y-90820419D02*
X96903122Y-90868038D01*
X96903122Y-90868038D02*
X96855503Y-90915657D01*
X96855503Y-90915657D02*
X96760265Y-91058514D01*
X96760265Y-91058514D02*
X96712646Y-91248990D01*
X96712646Y-91248990D02*
X96712646Y-91629942D01*
X96712646Y-91629942D02*
X96760265Y-91725180D01*
X96760265Y-91725180D02*
X96807884Y-91772800D01*
X96807884Y-91772800D02*
X96903122Y-91820419D01*
X96903122Y-91820419D02*
X97093598Y-91820419D01*
X97093598Y-91820419D02*
X97188836Y-91772800D01*
X97188836Y-91772800D02*
X97236455Y-91725180D01*
X97236455Y-91725180D02*
X97284074Y-91629942D01*
X97284074Y-91629942D02*
X97284074Y-91391847D01*
X97284074Y-91391847D02*
X97236455Y-91296609D01*
X97236455Y-91296609D02*
X97188836Y-91248990D01*
X97188836Y-91248990D02*
X97093598Y-91201371D01*
X97093598Y-91201371D02*
X96903122Y-91201371D01*
X96903122Y-91201371D02*
X96807884Y-91248990D01*
X96807884Y-91248990D02*
X96760265Y-91296609D01*
X96760265Y-91296609D02*
X96712646Y-91391847D01*
X106491693Y-91820419D02*
X105920265Y-91820419D01*
X106205979Y-91820419D02*
X106205979Y-90820419D01*
X106205979Y-90820419D02*
X106110741Y-90963276D01*
X106110741Y-90963276D02*
X106015503Y-91058514D01*
X106015503Y-91058514D02*
X105920265Y-91106133D01*
X106825027Y-90820419D02*
X107491693Y-90820419D01*
X107491693Y-90820419D02*
X107063122Y-91820419D01*
D14*
G36*
X101937570Y-78229150D02*
G01*
X102028560Y-78320140D01*
X102072342Y-78407703D01*
X102072342Y-78600867D01*
X102028560Y-78688429D01*
X101937570Y-78779419D01*
X101738108Y-78829285D01*
X101356577Y-78829285D01*
X101157114Y-78779419D01*
X101066123Y-78688429D01*
X101022342Y-78600866D01*
X101022342Y-78407704D01*
X101066123Y-78320141D01*
X101157114Y-78229150D01*
X101356577Y-78179285D01*
X101738108Y-78179285D01*
X101937570Y-78229150D01*
G37*
G36*
X101417201Y-71937352D02*
G01*
X101457132Y-71977283D01*
X101500914Y-72064846D01*
X101500914Y-72429284D01*
X101022342Y-72429284D01*
X101022342Y-72064846D01*
X101066123Y-71977283D01*
X101106055Y-71937352D01*
X101193619Y-71893570D01*
X101329637Y-71893570D01*
X101417201Y-71937352D01*
G37*
G36*
X101417201Y-70737352D02*
G01*
X101457132Y-70777283D01*
X101500914Y-70864846D01*
X101500914Y-71229284D01*
X101022342Y-71229284D01*
X101022342Y-70864846D01*
X101066123Y-70777283D01*
X101106055Y-70737352D01*
X101193619Y-70693570D01*
X101329637Y-70693570D01*
X101417201Y-70737352D01*
G37*
G36*
X101937570Y-69486292D02*
G01*
X102028560Y-69577282D01*
X102072342Y-69664845D01*
X102072342Y-69858009D01*
X102028560Y-69945571D01*
X101937570Y-70036561D01*
X101738108Y-70086427D01*
X101356577Y-70086427D01*
X101157114Y-70036561D01*
X101066123Y-69945571D01*
X101022342Y-69858008D01*
X101022342Y-69664846D01*
X101066123Y-69577283D01*
X101157114Y-69486292D01*
X101356577Y-69436427D01*
X101738108Y-69436427D01*
X101937570Y-69486292D01*
G37*
G36*
X101417201Y-67080209D02*
G01*
X101457132Y-67120140D01*
X101500914Y-67207703D01*
X101500914Y-67572141D01*
X101022342Y-67572141D01*
X101022342Y-67207703D01*
X101066123Y-67120140D01*
X101106055Y-67080209D01*
X101193619Y-67036427D01*
X101329637Y-67036427D01*
X101417201Y-67080209D01*
G37*
G36*
X101729485Y-66400227D02*
G01*
X101184512Y-66218570D01*
X101729485Y-66036912D01*
X101729485Y-66400227D01*
G37*
G36*
X101417201Y-61023066D02*
G01*
X101457132Y-61062997D01*
X101500914Y-61150560D01*
X101500914Y-61514998D01*
X101022342Y-61514998D01*
X101022342Y-61150560D01*
X101066123Y-61062997D01*
X101106055Y-61023066D01*
X101193619Y-60979284D01*
X101329637Y-60979284D01*
X101417201Y-61023066D01*
G37*
G36*
X102355675Y-84084047D02*
G01*
X100739009Y-84084047D01*
X100739009Y-83361428D01*
X100872342Y-83361428D01*
X100872342Y-83647143D01*
X100873783Y-83661775D01*
X100874813Y-83664263D01*
X100875005Y-83666953D01*
X100880260Y-83680684D01*
X100937403Y-83794969D01*
X100941366Y-83801265D01*
X100942125Y-83803096D01*
X100943816Y-83805157D01*
X100945236Y-83807412D01*
X100946731Y-83808709D01*
X100951452Y-83814461D01*
X101008595Y-83871604D01*
X101014344Y-83876322D01*
X101015644Y-83877821D01*
X101017903Y-83879242D01*
X101019960Y-83880931D01*
X101021787Y-83881688D01*
X101028087Y-83885653D01*
X101142373Y-83942796D01*
X101156105Y-83948051D01*
X101158792Y-83948241D01*
X101161282Y-83949273D01*
X101175914Y-83950714D01*
X101290200Y-83950714D01*
X101304832Y-83949273D01*
X101307320Y-83948242D01*
X101310010Y-83948051D01*
X101323741Y-83942796D01*
X101438026Y-83885653D01*
X101444322Y-83881689D01*
X101446153Y-83880931D01*
X101448214Y-83879239D01*
X101450469Y-83877820D01*
X101451766Y-83876324D01*
X101457518Y-83871604D01*
X101514661Y-83814461D01*
X101519381Y-83808708D01*
X101520877Y-83807412D01*
X101522296Y-83805157D01*
X101523988Y-83803096D01*
X101524746Y-83801265D01*
X101528710Y-83794969D01*
X101585853Y-83680684D01*
X101586262Y-83679614D01*
X101586585Y-83679179D01*
X101588780Y-83673033D01*
X101591108Y-83666952D01*
X101591146Y-83666412D01*
X101591532Y-83665333D01*
X101646678Y-83444747D01*
X101694695Y-83348713D01*
X101734627Y-83308781D01*
X101822190Y-83265000D01*
X101901066Y-83265000D01*
X101988630Y-83308782D01*
X102028560Y-83348712D01*
X102072342Y-83436275D01*
X102072342Y-83692116D01*
X102019049Y-83851997D01*
X102015789Y-83866334D01*
X102017864Y-83895524D01*
X102030950Y-83921698D01*
X102053058Y-83940871D01*
X102080820Y-83950125D01*
X102110010Y-83948050D01*
X102136184Y-83934964D01*
X102155357Y-83912856D01*
X102161351Y-83899431D01*
X102218493Y-83728003D01*
X102220142Y-83720749D01*
X102220901Y-83718918D01*
X102221162Y-83716263D01*
X102221753Y-83713666D01*
X102221612Y-83711691D01*
X102222342Y-83704286D01*
X102222342Y-83418571D01*
X102220901Y-83403939D01*
X102219869Y-83401449D01*
X102219679Y-83398762D01*
X102214424Y-83385030D01*
X102157282Y-83270745D01*
X102153317Y-83264445D01*
X102152560Y-83262618D01*
X102150871Y-83260561D01*
X102149450Y-83258302D01*
X102147951Y-83257002D01*
X102143233Y-83251253D01*
X102086090Y-83194110D01*
X102080338Y-83189389D01*
X102079041Y-83187894D01*
X102076786Y-83186474D01*
X102074725Y-83184783D01*
X102072894Y-83184024D01*
X102066598Y-83180061D01*
X101952312Y-83122918D01*
X101938580Y-83117663D01*
X101935892Y-83117472D01*
X101933403Y-83116441D01*
X101918771Y-83115000D01*
X101804485Y-83115000D01*
X101789853Y-83116441D01*
X101787363Y-83117472D01*
X101784676Y-83117663D01*
X101770944Y-83122918D01*
X101656659Y-83180061D01*
X101650362Y-83184024D01*
X101648532Y-83184783D01*
X101646470Y-83186474D01*
X101644216Y-83187894D01*
X101642919Y-83189389D01*
X101637167Y-83194110D01*
X101580024Y-83251253D01*
X101575303Y-83257004D01*
X101573808Y-83258302D01*
X101572388Y-83260556D01*
X101570697Y-83262618D01*
X101569938Y-83264448D01*
X101565975Y-83270745D01*
X101508832Y-83385030D01*
X101508422Y-83386099D01*
X101508100Y-83386535D01*
X101505904Y-83392678D01*
X101503577Y-83398761D01*
X101503538Y-83399300D01*
X101503153Y-83400380D01*
X101448006Y-83620966D01*
X101399989Y-83717000D01*
X101360057Y-83756932D01*
X101272495Y-83800714D01*
X101193619Y-83800714D01*
X101106055Y-83756932D01*
X101066123Y-83717000D01*
X101022342Y-83629437D01*
X101022342Y-83373598D01*
X101075636Y-83213717D01*
X101078896Y-83199380D01*
X101076821Y-83170190D01*
X101063735Y-83144017D01*
X101041628Y-83124843D01*
X101013865Y-83115589D01*
X100984675Y-83117664D01*
X100958502Y-83130750D01*
X100939328Y-83152857D01*
X100933334Y-83166283D01*
X100876191Y-83337711D01*
X100874541Y-83344964D01*
X100873783Y-83346796D01*
X100873521Y-83349450D01*
X100872931Y-83352048D01*
X100873071Y-83354022D01*
X100872342Y-83361428D01*
X100739009Y-83361428D01*
X100739009Y-82104286D01*
X100872342Y-82104286D01*
X100872342Y-82675714D01*
X100873783Y-82690346D01*
X100884982Y-82717382D01*
X100905674Y-82738074D01*
X100932710Y-82749273D01*
X100947342Y-82750714D01*
X102147342Y-82750714D01*
X102161974Y-82749273D01*
X102189010Y-82738074D01*
X102209702Y-82717382D01*
X102220901Y-82690346D01*
X102222342Y-82675714D01*
X102222342Y-82104286D01*
X102220901Y-82089654D01*
X102209702Y-82062618D01*
X102189010Y-82041926D01*
X102161974Y-82030727D01*
X102132710Y-82030727D01*
X102105674Y-82041926D01*
X102084982Y-82062618D01*
X102073783Y-82089654D01*
X102072342Y-82104286D01*
X102072342Y-82600714D01*
X101593771Y-82600714D01*
X101593771Y-82275714D01*
X101592330Y-82261082D01*
X101581131Y-82234046D01*
X101560439Y-82213354D01*
X101533403Y-82202155D01*
X101504139Y-82202155D01*
X101477103Y-82213354D01*
X101456411Y-82234046D01*
X101445212Y-82261082D01*
X101443771Y-82275714D01*
X101443771Y-82600714D01*
X101022342Y-82600714D01*
X101022342Y-82104286D01*
X101020901Y-82089654D01*
X101009702Y-82062618D01*
X100989010Y-82041926D01*
X100961974Y-82030727D01*
X100932710Y-82030727D01*
X100905674Y-82041926D01*
X100884982Y-82062618D01*
X100873783Y-82089654D01*
X100872342Y-82104286D01*
X100739009Y-82104286D01*
X100739009Y-81075715D01*
X100872342Y-81075715D01*
X100872342Y-81761429D01*
X100873783Y-81776061D01*
X100884982Y-81803097D01*
X100905674Y-81823789D01*
X100932710Y-81834988D01*
X100961974Y-81834988D01*
X100989010Y-81823789D01*
X101009702Y-81803097D01*
X101020901Y-81776061D01*
X101022342Y-81761429D01*
X101022342Y-81493572D01*
X102147342Y-81493572D01*
X102161974Y-81492131D01*
X102189010Y-81480932D01*
X102209702Y-81460240D01*
X102220901Y-81433204D01*
X102220901Y-81403940D01*
X102209702Y-81376904D01*
X102189010Y-81356212D01*
X102161974Y-81345013D01*
X102147342Y-81343572D01*
X101022342Y-81343572D01*
X101022342Y-81075715D01*
X101020901Y-81061083D01*
X101009702Y-81034047D01*
X100989010Y-81013355D01*
X100961974Y-81002156D01*
X100932710Y-81002156D01*
X100905674Y-81013355D01*
X100884982Y-81034047D01*
X100873783Y-81061083D01*
X100872342Y-81075715D01*
X100739009Y-81075715D01*
X100739009Y-79247143D01*
X100872342Y-79247143D01*
X100872342Y-79932857D01*
X100873783Y-79947489D01*
X100884982Y-79974525D01*
X100905674Y-79995217D01*
X100932710Y-80006416D01*
X100961974Y-80006416D01*
X100989010Y-79995217D01*
X101009702Y-79974525D01*
X101020901Y-79947489D01*
X101022342Y-79932857D01*
X101022342Y-79665000D01*
X102147342Y-79665000D01*
X102161974Y-79663559D01*
X102189010Y-79652360D01*
X102209702Y-79631668D01*
X102220901Y-79604632D01*
X102220901Y-79575368D01*
X102209702Y-79548332D01*
X102189010Y-79527640D01*
X102161974Y-79516441D01*
X102147342Y-79515000D01*
X101022342Y-79515000D01*
X101022342Y-79247143D01*
X101020901Y-79232511D01*
X101009702Y-79205475D01*
X100989010Y-79184783D01*
X100961974Y-79173584D01*
X100932710Y-79173584D01*
X100905674Y-79184783D01*
X100884982Y-79205475D01*
X100873783Y-79232511D01*
X100872342Y-79247143D01*
X100739009Y-79247143D01*
X100739009Y-78389999D01*
X100872342Y-78389999D01*
X100872342Y-78618571D01*
X100873783Y-78633203D01*
X100874814Y-78635692D01*
X100875005Y-78638380D01*
X100880260Y-78652112D01*
X100937403Y-78766398D01*
X100941366Y-78772694D01*
X100942125Y-78774525D01*
X100943816Y-78776586D01*
X100945236Y-78778841D01*
X100946731Y-78780138D01*
X100951452Y-78785890D01*
X101065738Y-78900175D01*
X101077104Y-78909503D01*
X101082255Y-78911636D01*
X101086735Y-78914956D01*
X101100581Y-78919903D01*
X101329152Y-78977046D01*
X101331689Y-78977421D01*
X101332710Y-78977844D01*
X101338212Y-78978385D01*
X101343697Y-78979197D01*
X101344792Y-78979033D01*
X101347342Y-78979285D01*
X101747342Y-78979285D01*
X101749895Y-78979033D01*
X101750988Y-78979196D01*
X101756461Y-78978386D01*
X101761974Y-78977844D01*
X101762995Y-78977421D01*
X101765532Y-78977046D01*
X101994105Y-78919903D01*
X102007950Y-78914956D01*
X102012430Y-78911636D01*
X102017581Y-78909503D01*
X102028947Y-78900175D01*
X102143233Y-78785890D01*
X102147953Y-78780137D01*
X102149450Y-78778840D01*
X102150869Y-78776584D01*
X102152560Y-78774525D01*
X102153317Y-78772695D01*
X102157282Y-78766398D01*
X102214424Y-78652112D01*
X102219679Y-78638380D01*
X102219869Y-78635692D01*
X102220901Y-78633203D01*
X102222342Y-78618571D01*
X102222342Y-78389999D01*
X102220901Y-78375367D01*
X102219869Y-78372877D01*
X102219679Y-78370190D01*
X102214424Y-78356458D01*
X102157282Y-78242173D01*
X102153319Y-78235878D01*
X102152561Y-78234046D01*
X102150869Y-78231984D01*
X102149450Y-78229730D01*
X102147953Y-78228431D01*
X102143233Y-78222681D01*
X102028947Y-78108395D01*
X102017582Y-78099068D01*
X102012431Y-78096934D01*
X102007950Y-78093614D01*
X101994105Y-78088667D01*
X101765532Y-78031524D01*
X101762995Y-78031148D01*
X101761974Y-78030726D01*
X101756461Y-78030183D01*
X101750988Y-78029374D01*
X101749895Y-78029536D01*
X101747342Y-78029285D01*
X101347342Y-78029285D01*
X101344792Y-78029536D01*
X101343697Y-78029373D01*
X101338212Y-78030184D01*
X101332710Y-78030726D01*
X101331689Y-78031148D01*
X101329152Y-78031524D01*
X101100581Y-78088667D01*
X101086735Y-78093614D01*
X101082256Y-78096932D01*
X101077103Y-78099067D01*
X101065738Y-78108395D01*
X100951452Y-78222681D01*
X100946731Y-78228432D01*
X100945236Y-78229730D01*
X100943816Y-78231984D01*
X100942125Y-78234046D01*
X100941366Y-78235876D01*
X100937403Y-78242173D01*
X100880260Y-78356458D01*
X100875005Y-78370189D01*
X100874813Y-78372878D01*
X100873783Y-78375367D01*
X100872342Y-78389999D01*
X100739009Y-78389999D01*
X100739009Y-76161428D01*
X100872342Y-76161428D01*
X100872342Y-76847142D01*
X100873783Y-76861774D01*
X100884982Y-76888810D01*
X100905674Y-76909502D01*
X100932710Y-76920701D01*
X100961974Y-76920701D01*
X100989010Y-76909502D01*
X101009702Y-76888810D01*
X101020901Y-76861774D01*
X101022342Y-76847142D01*
X101022342Y-76579285D01*
X102147342Y-76579285D01*
X102161974Y-76577844D01*
X102189010Y-76566645D01*
X102209702Y-76545953D01*
X102220901Y-76518917D01*
X102220901Y-76489653D01*
X102209702Y-76462617D01*
X102189010Y-76441925D01*
X102161974Y-76430726D01*
X102147342Y-76429285D01*
X101022342Y-76429285D01*
X101022342Y-76161428D01*
X101020901Y-76146796D01*
X101009702Y-76119760D01*
X100989010Y-76099068D01*
X100961974Y-76087869D01*
X100932710Y-76087869D01*
X100905674Y-76099068D01*
X100884982Y-76119760D01*
X100873783Y-76146796D01*
X100872342Y-76161428D01*
X100739009Y-76161428D01*
X100739009Y-75061081D01*
X100873783Y-75061081D01*
X100873783Y-75090345D01*
X100884982Y-75117381D01*
X100905674Y-75138073D01*
X100932710Y-75149272D01*
X100947342Y-75150713D01*
X101443771Y-75150713D01*
X101443771Y-75686427D01*
X100947342Y-75686427D01*
X100932710Y-75687868D01*
X100905674Y-75699067D01*
X100884982Y-75719759D01*
X100873783Y-75746795D01*
X100873783Y-75776059D01*
X100884982Y-75803095D01*
X100905674Y-75823787D01*
X100932710Y-75834986D01*
X100947342Y-75836427D01*
X102147342Y-75836427D01*
X102161974Y-75834986D01*
X102189010Y-75823787D01*
X102209702Y-75803095D01*
X102220901Y-75776059D01*
X102220901Y-75746795D01*
X102209702Y-75719759D01*
X102189010Y-75699067D01*
X102161974Y-75687868D01*
X102147342Y-75686427D01*
X101593771Y-75686427D01*
X101593771Y-75150713D01*
X102147342Y-75150713D01*
X102161974Y-75149272D01*
X102189010Y-75138073D01*
X102209702Y-75117381D01*
X102220901Y-75090345D01*
X102220901Y-75061081D01*
X102209702Y-75034045D01*
X102189010Y-75013353D01*
X102161974Y-75002154D01*
X102147342Y-75000713D01*
X100947342Y-75000713D01*
X100932710Y-75002154D01*
X100905674Y-75013353D01*
X100884982Y-75034045D01*
X100873783Y-75061081D01*
X100739009Y-75061081D01*
X100739009Y-73932856D01*
X100872342Y-73932856D01*
X100872342Y-74504284D01*
X100873783Y-74518916D01*
X100884982Y-74545952D01*
X100905674Y-74566644D01*
X100932710Y-74577843D01*
X100947342Y-74579284D01*
X102147342Y-74579284D01*
X102161974Y-74577843D01*
X102189010Y-74566644D01*
X102209702Y-74545952D01*
X102220901Y-74518916D01*
X102222342Y-74504284D01*
X102222342Y-73932856D01*
X102220901Y-73918224D01*
X102209702Y-73891188D01*
X102189010Y-73870496D01*
X102161974Y-73859297D01*
X102132710Y-73859297D01*
X102105674Y-73870496D01*
X102084982Y-73891188D01*
X102073783Y-73918224D01*
X102072342Y-73932856D01*
X102072342Y-74429284D01*
X101593771Y-74429284D01*
X101593771Y-74104284D01*
X101592330Y-74089652D01*
X101581131Y-74062616D01*
X101560439Y-74041924D01*
X101533403Y-74030725D01*
X101504139Y-74030725D01*
X101477103Y-74041924D01*
X101456411Y-74062616D01*
X101445212Y-74089652D01*
X101443771Y-74104284D01*
X101443771Y-74429284D01*
X101022342Y-74429284D01*
X101022342Y-73932856D01*
X101020901Y-73918224D01*
X101009702Y-73891188D01*
X100989010Y-73870496D01*
X100961974Y-73859297D01*
X100932710Y-73859297D01*
X100905674Y-73870496D01*
X100884982Y-73891188D01*
X100873783Y-73918224D01*
X100872342Y-73932856D01*
X100739009Y-73932856D01*
X100739009Y-72047141D01*
X100872342Y-72047141D01*
X100872342Y-72504284D01*
X100873783Y-72518916D01*
X100884982Y-72545952D01*
X100905674Y-72566644D01*
X100932710Y-72577843D01*
X100947342Y-72579284D01*
X102147342Y-72579284D01*
X102161974Y-72577843D01*
X102189010Y-72566644D01*
X102209702Y-72545952D01*
X102220901Y-72518916D01*
X102220901Y-72489652D01*
X102209702Y-72462616D01*
X102189010Y-72441924D01*
X102161974Y-72430725D01*
X102147342Y-72429284D01*
X101650914Y-72429284D01*
X101650914Y-72047141D01*
X101649473Y-72032509D01*
X101648441Y-72030019D01*
X101648251Y-72027332D01*
X101642996Y-72013600D01*
X101585853Y-71899315D01*
X101581889Y-71893018D01*
X101581131Y-71891188D01*
X101579439Y-71889126D01*
X101578020Y-71886872D01*
X101576524Y-71885575D01*
X101571804Y-71879823D01*
X101514661Y-71822680D01*
X101508909Y-71817959D01*
X101507612Y-71816464D01*
X101505357Y-71815044D01*
X101503296Y-71813353D01*
X101501465Y-71812594D01*
X101495169Y-71808631D01*
X101380883Y-71751488D01*
X101367151Y-71746233D01*
X101364463Y-71746042D01*
X101361974Y-71745011D01*
X101347342Y-71743570D01*
X101175914Y-71743570D01*
X101161282Y-71745011D01*
X101158792Y-71746042D01*
X101156105Y-71746233D01*
X101142373Y-71751488D01*
X101028087Y-71808631D01*
X101021787Y-71812595D01*
X101019960Y-71813353D01*
X101017903Y-71815041D01*
X101015644Y-71816463D01*
X101014344Y-71817961D01*
X101008595Y-71822680D01*
X100951452Y-71879823D01*
X100946731Y-71885574D01*
X100945236Y-71886872D01*
X100943816Y-71889126D01*
X100942125Y-71891188D01*
X100941366Y-71893018D01*
X100937403Y-71899315D01*
X100880260Y-72013600D01*
X100875005Y-72027331D01*
X100874813Y-72030020D01*
X100873783Y-72032509D01*
X100872342Y-72047141D01*
X100739009Y-72047141D01*
X100739009Y-70847141D01*
X100872342Y-70847141D01*
X100872342Y-71304284D01*
X100873783Y-71318916D01*
X100884982Y-71345952D01*
X100905674Y-71366644D01*
X100932710Y-71377843D01*
X100947342Y-71379284D01*
X102147342Y-71379284D01*
X102161974Y-71377843D01*
X102189010Y-71366644D01*
X102209702Y-71345952D01*
X102220901Y-71318916D01*
X102220901Y-71289652D01*
X102209702Y-71262616D01*
X102189010Y-71241924D01*
X102161974Y-71230725D01*
X102147342Y-71229284D01*
X101650914Y-71229284D01*
X101650914Y-71057618D01*
X102190352Y-70680012D01*
X102201512Y-70670441D01*
X102217239Y-70645762D01*
X102222324Y-70616945D01*
X102215995Y-70588374D01*
X102199213Y-70564400D01*
X102174534Y-70548673D01*
X102145717Y-70543588D01*
X102117146Y-70549917D01*
X102104332Y-70557128D01*
X101650914Y-70874520D01*
X101650914Y-70847141D01*
X101649473Y-70832509D01*
X101648441Y-70830019D01*
X101648251Y-70827332D01*
X101642996Y-70813600D01*
X101585853Y-70699315D01*
X101581889Y-70693018D01*
X101581131Y-70691188D01*
X101579439Y-70689126D01*
X101578020Y-70686872D01*
X101576524Y-70685575D01*
X101571804Y-70679823D01*
X101514661Y-70622680D01*
X101508909Y-70617959D01*
X101507612Y-70616464D01*
X101505357Y-70615044D01*
X101503296Y-70613353D01*
X101501465Y-70612594D01*
X101495169Y-70608631D01*
X101380883Y-70551488D01*
X101367151Y-70546233D01*
X101364463Y-70546042D01*
X101361974Y-70545011D01*
X101347342Y-70543570D01*
X101175914Y-70543570D01*
X101161282Y-70545011D01*
X101158792Y-70546042D01*
X101156105Y-70546233D01*
X101142373Y-70551488D01*
X101028087Y-70608631D01*
X101021787Y-70612595D01*
X101019960Y-70613353D01*
X101017903Y-70615041D01*
X101015644Y-70616463D01*
X101014344Y-70617961D01*
X101008595Y-70622680D01*
X100951452Y-70679823D01*
X100946731Y-70685574D01*
X100945236Y-70686872D01*
X100943816Y-70689126D01*
X100942125Y-70691188D01*
X100941366Y-70693018D01*
X100937403Y-70699315D01*
X100880260Y-70813600D01*
X100875005Y-70827331D01*
X100874813Y-70830020D01*
X100873783Y-70832509D01*
X100872342Y-70847141D01*
X100739009Y-70847141D01*
X100739009Y-69647141D01*
X100872342Y-69647141D01*
X100872342Y-69875713D01*
X100873783Y-69890345D01*
X100874814Y-69892834D01*
X100875005Y-69895522D01*
X100880260Y-69909254D01*
X100937403Y-70023540D01*
X100941366Y-70029836D01*
X100942125Y-70031667D01*
X100943816Y-70033728D01*
X100945236Y-70035983D01*
X100946731Y-70037280D01*
X100951452Y-70043032D01*
X101065738Y-70157317D01*
X101077104Y-70166645D01*
X101082255Y-70168778D01*
X101086735Y-70172098D01*
X101100581Y-70177045D01*
X101329152Y-70234188D01*
X101331689Y-70234563D01*
X101332710Y-70234986D01*
X101338212Y-70235527D01*
X101343697Y-70236339D01*
X101344792Y-70236175D01*
X101347342Y-70236427D01*
X101747342Y-70236427D01*
X101749895Y-70236175D01*
X101750988Y-70236338D01*
X101756461Y-70235528D01*
X101761974Y-70234986D01*
X101762995Y-70234563D01*
X101765532Y-70234188D01*
X101994105Y-70177045D01*
X102007950Y-70172098D01*
X102012430Y-70168778D01*
X102017581Y-70166645D01*
X102028947Y-70157317D01*
X102143233Y-70043032D01*
X102147953Y-70037279D01*
X102149450Y-70035982D01*
X102150869Y-70033726D01*
X102152560Y-70031667D01*
X102153317Y-70029837D01*
X102157282Y-70023540D01*
X102214424Y-69909254D01*
X102219679Y-69895522D01*
X102219869Y-69892834D01*
X102220901Y-69890345D01*
X102222342Y-69875713D01*
X102222342Y-69647141D01*
X102220901Y-69632509D01*
X102219869Y-69630019D01*
X102219679Y-69627332D01*
X102214424Y-69613600D01*
X102157282Y-69499315D01*
X102153319Y-69493020D01*
X102152561Y-69491188D01*
X102150869Y-69489126D01*
X102149450Y-69486872D01*
X102147953Y-69485573D01*
X102143233Y-69479823D01*
X102028947Y-69365537D01*
X102017582Y-69356210D01*
X102012431Y-69354076D01*
X102007950Y-69350756D01*
X101994105Y-69345809D01*
X101765532Y-69288666D01*
X101762995Y-69288290D01*
X101761974Y-69287868D01*
X101756461Y-69287325D01*
X101750988Y-69286516D01*
X101749895Y-69286678D01*
X101747342Y-69286427D01*
X101347342Y-69286427D01*
X101344792Y-69286678D01*
X101343697Y-69286515D01*
X101338212Y-69287326D01*
X101332710Y-69287868D01*
X101331689Y-69288290D01*
X101329152Y-69288666D01*
X101100581Y-69345809D01*
X101086735Y-69350756D01*
X101082256Y-69354074D01*
X101077103Y-69356209D01*
X101065738Y-69365537D01*
X100951452Y-69479823D01*
X100946731Y-69485574D01*
X100945236Y-69486872D01*
X100943816Y-69489126D01*
X100942125Y-69491188D01*
X100941366Y-69493018D01*
X100937403Y-69499315D01*
X100880260Y-69613600D01*
X100875005Y-69627331D01*
X100874813Y-69630020D01*
X100873783Y-69632509D01*
X100872342Y-69647141D01*
X100739009Y-69647141D01*
X100739009Y-68332856D01*
X100872342Y-68332856D01*
X100872342Y-68504284D01*
X100873071Y-68511689D01*
X100872931Y-68513664D01*
X100873521Y-68516261D01*
X100873783Y-68518916D01*
X100874541Y-68520747D01*
X100876191Y-68528001D01*
X100933334Y-68699430D01*
X100939328Y-68712856D01*
X100941094Y-68714892D01*
X100942125Y-68717381D01*
X100951452Y-68728746D01*
X101065738Y-68843031D01*
X101071487Y-68847749D01*
X101072787Y-68849248D01*
X101075045Y-68850669D01*
X101077104Y-68852359D01*
X101078933Y-68853116D01*
X101085230Y-68857080D01*
X101199516Y-68914223D01*
X101200585Y-68914632D01*
X101201021Y-68914955D01*
X101207166Y-68917150D01*
X101213248Y-68919478D01*
X101213787Y-68919516D01*
X101214867Y-68919902D01*
X101443438Y-68977045D01*
X101445975Y-68977420D01*
X101446996Y-68977843D01*
X101452498Y-68978384D01*
X101457983Y-68979196D01*
X101459078Y-68979032D01*
X101461628Y-68979284D01*
X101633057Y-68979284D01*
X101635610Y-68979032D01*
X101636703Y-68979195D01*
X101642176Y-68978385D01*
X101647689Y-68977843D01*
X101648710Y-68977420D01*
X101651247Y-68977045D01*
X101879819Y-68919902D01*
X101880898Y-68919516D01*
X101881437Y-68919478D01*
X101887512Y-68917153D01*
X101893664Y-68914955D01*
X101894099Y-68914632D01*
X101895169Y-68914223D01*
X102009455Y-68857080D01*
X102015749Y-68853117D01*
X102017581Y-68852359D01*
X102019643Y-68850665D01*
X102021898Y-68849247D01*
X102023194Y-68847751D01*
X102028947Y-68843031D01*
X102143233Y-68728746D01*
X102152560Y-68717381D01*
X102153591Y-68714890D01*
X102155357Y-68712855D01*
X102161351Y-68699430D01*
X102218493Y-68528000D01*
X102220142Y-68520748D01*
X102220901Y-68518916D01*
X102221162Y-68516260D01*
X102221753Y-68513664D01*
X102221612Y-68511689D01*
X102222342Y-68504284D01*
X102222342Y-68389998D01*
X102221612Y-68382592D01*
X102221753Y-68380618D01*
X102221162Y-68378020D01*
X102220901Y-68375366D01*
X102220142Y-68373534D01*
X102218493Y-68366281D01*
X102161351Y-68194853D01*
X102155357Y-68181428D01*
X102153591Y-68179392D01*
X102152560Y-68176902D01*
X102143233Y-68165537D01*
X102086090Y-68108394D01*
X102074725Y-68099067D01*
X102047689Y-68087868D01*
X102033057Y-68086427D01*
X101633057Y-68086427D01*
X101618425Y-68087868D01*
X101591389Y-68099067D01*
X101570697Y-68119759D01*
X101559498Y-68146795D01*
X101558057Y-68161427D01*
X101558057Y-68389998D01*
X101559498Y-68404630D01*
X101570697Y-68431666D01*
X101591389Y-68452358D01*
X101618425Y-68463557D01*
X101647689Y-68463557D01*
X101674725Y-68452358D01*
X101695417Y-68431666D01*
X101706616Y-68404630D01*
X101708057Y-68389998D01*
X101708057Y-68236427D01*
X102001991Y-68236427D01*
X102024647Y-68259083D01*
X102072342Y-68402167D01*
X102072342Y-68492114D01*
X102024647Y-68635198D01*
X101931487Y-68728358D01*
X101835451Y-68776376D01*
X101623823Y-68829284D01*
X101470863Y-68829284D01*
X101259233Y-68776376D01*
X101163197Y-68728358D01*
X101070036Y-68635198D01*
X101022342Y-68492114D01*
X101022342Y-68350561D01*
X101071567Y-68252111D01*
X101076822Y-68238379D01*
X101078896Y-68209189D01*
X101069642Y-68181428D01*
X101050469Y-68159320D01*
X101024294Y-68146233D01*
X100995104Y-68144159D01*
X100967343Y-68153412D01*
X100945236Y-68172586D01*
X100937403Y-68185029D01*
X100880260Y-68299315D01*
X100875005Y-68313047D01*
X100874814Y-68315734D01*
X100873783Y-68318224D01*
X100872342Y-68332856D01*
X100739009Y-68332856D01*
X100739009Y-67189998D01*
X100872342Y-67189998D01*
X100872342Y-67647141D01*
X100873783Y-67661773D01*
X100884982Y-67688809D01*
X100905674Y-67709501D01*
X100932710Y-67720700D01*
X100947342Y-67722141D01*
X102147342Y-67722141D01*
X102161974Y-67720700D01*
X102189010Y-67709501D01*
X102209702Y-67688809D01*
X102220901Y-67661773D01*
X102220901Y-67632509D01*
X102209702Y-67605473D01*
X102189010Y-67584781D01*
X102161974Y-67573582D01*
X102147342Y-67572141D01*
X101650914Y-67572141D01*
X101650914Y-67400475D01*
X102190352Y-67022869D01*
X102201512Y-67013298D01*
X102217239Y-66988619D01*
X102222324Y-66959802D01*
X102215995Y-66931231D01*
X102199213Y-66907257D01*
X102174534Y-66891530D01*
X102145717Y-66886445D01*
X102117146Y-66892774D01*
X102104332Y-66899985D01*
X101650914Y-67217377D01*
X101650914Y-67189998D01*
X101649473Y-67175366D01*
X101648441Y-67172876D01*
X101648251Y-67170189D01*
X101642996Y-67156457D01*
X101585853Y-67042172D01*
X101581889Y-67035875D01*
X101581131Y-67034045D01*
X101579439Y-67031983D01*
X101578020Y-67029729D01*
X101576524Y-67028432D01*
X101571804Y-67022680D01*
X101514661Y-66965537D01*
X101508909Y-66960816D01*
X101507612Y-66959321D01*
X101505357Y-66957901D01*
X101503296Y-66956210D01*
X101501465Y-66955451D01*
X101495169Y-66951488D01*
X101380883Y-66894345D01*
X101367151Y-66889090D01*
X101364463Y-66888899D01*
X101361974Y-66887868D01*
X101347342Y-66886427D01*
X101175914Y-66886427D01*
X101161282Y-66887868D01*
X101158792Y-66888899D01*
X101156105Y-66889090D01*
X101142373Y-66894345D01*
X101028087Y-66951488D01*
X101021787Y-66955452D01*
X101019960Y-66956210D01*
X101017903Y-66957898D01*
X101015644Y-66959320D01*
X101014344Y-66960818D01*
X101008595Y-66965537D01*
X100951452Y-67022680D01*
X100946731Y-67028431D01*
X100945236Y-67029729D01*
X100943816Y-67031983D01*
X100942125Y-67034045D01*
X100941366Y-67035875D01*
X100937403Y-67042172D01*
X100880260Y-67156457D01*
X100875005Y-67170188D01*
X100874813Y-67172877D01*
X100873783Y-67175366D01*
X100872342Y-67189998D01*
X100739009Y-67189998D01*
X100739009Y-66209190D01*
X100872931Y-66209190D01*
X100873597Y-66218570D01*
X100872931Y-66227950D01*
X100874626Y-66233035D01*
X100875006Y-66238380D01*
X100879210Y-66246789D01*
X100882185Y-66255713D01*
X100885696Y-66259761D01*
X100888092Y-66264553D01*
X100895196Y-66270715D01*
X100901359Y-66277820D01*
X100906150Y-66280215D01*
X100910199Y-66283727D01*
X100923625Y-66289721D01*
X102123625Y-66689721D01*
X102137962Y-66692981D01*
X102167152Y-66690906D01*
X102193325Y-66677820D01*
X102212499Y-66655713D01*
X102221753Y-66627950D01*
X102219678Y-66598760D01*
X102206592Y-66572587D01*
X102184484Y-66553413D01*
X102171059Y-66547419D01*
X101879485Y-66450227D01*
X101879485Y-65986912D01*
X102171059Y-65889721D01*
X102184484Y-65883727D01*
X102206592Y-65864553D01*
X102219678Y-65838380D01*
X102221753Y-65809190D01*
X102212499Y-65781427D01*
X102193325Y-65759320D01*
X102167152Y-65746234D01*
X102137962Y-65744159D01*
X102123625Y-65747419D01*
X100923625Y-66147419D01*
X100910199Y-66153413D01*
X100906150Y-66156924D01*
X100901359Y-66159320D01*
X100895196Y-66166424D01*
X100888092Y-66172587D01*
X100885696Y-66177378D01*
X100882185Y-66181427D01*
X100879210Y-66190350D01*
X100875006Y-66198760D01*
X100874626Y-66204104D01*
X100872931Y-66209190D01*
X100739009Y-66209190D01*
X100739009Y-64629958D01*
X100873212Y-64629958D01*
X100873783Y-64631528D01*
X100873783Y-64633202D01*
X100878764Y-64645228D01*
X100883212Y-64657459D01*
X100884341Y-64658692D01*
X100884982Y-64660238D01*
X100894187Y-64669443D01*
X100902976Y-64679040D01*
X100904958Y-64680214D01*
X100905674Y-64680930D01*
X100907310Y-64681608D01*
X100915626Y-64686534D01*
X101627131Y-65018570D01*
X100915626Y-65350606D01*
X100907310Y-65355531D01*
X100905674Y-65356210D01*
X100904958Y-65356925D01*
X100902976Y-65358100D01*
X100894187Y-65367696D01*
X100884982Y-65376902D01*
X100884341Y-65378447D01*
X100883212Y-65379681D01*
X100878764Y-65391911D01*
X100873783Y-65403938D01*
X100873783Y-65405611D01*
X100873212Y-65407182D01*
X100873783Y-65420183D01*
X100873783Y-65433202D01*
X100874422Y-65434746D01*
X100874496Y-65436418D01*
X100880002Y-65448216D01*
X100884982Y-65460238D01*
X100886164Y-65461420D01*
X100886872Y-65462936D01*
X100896468Y-65471724D01*
X100905674Y-65480930D01*
X100907219Y-65481570D01*
X100908453Y-65482700D01*
X100920683Y-65487147D01*
X100932710Y-65492129D01*
X100935005Y-65492355D01*
X100935954Y-65492700D01*
X100937720Y-65492622D01*
X100947342Y-65493570D01*
X102147342Y-65493570D01*
X102161974Y-65492129D01*
X102189010Y-65480930D01*
X102209702Y-65460238D01*
X102220901Y-65433202D01*
X102220901Y-65403938D01*
X102209702Y-65376902D01*
X102189010Y-65356210D01*
X102161974Y-65345011D01*
X102147342Y-65343570D01*
X101285410Y-65343570D01*
X101836202Y-65086534D01*
X101841561Y-65083359D01*
X101843374Y-65082700D01*
X101844656Y-65081525D01*
X101848852Y-65079040D01*
X101856549Y-65070634D01*
X101864956Y-65062936D01*
X101866365Y-65059915D01*
X101868615Y-65057459D01*
X101872509Y-65046749D01*
X101877331Y-65036418D01*
X101877477Y-65033089D01*
X101878616Y-65029958D01*
X101878115Y-65018570D01*
X101878616Y-65007182D01*
X101877477Y-65004050D01*
X101877331Y-65000722D01*
X101872509Y-64990390D01*
X101868615Y-64979681D01*
X101866365Y-64977224D01*
X101864956Y-64974204D01*
X101856549Y-64966505D01*
X101848852Y-64958100D01*
X101844656Y-64955614D01*
X101843374Y-64954440D01*
X101841561Y-64953780D01*
X101836202Y-64950606D01*
X101285410Y-64693570D01*
X102147342Y-64693570D01*
X102161974Y-64692129D01*
X102189010Y-64680930D01*
X102209702Y-64660238D01*
X102220901Y-64633202D01*
X102220901Y-64603938D01*
X102209702Y-64576902D01*
X102189010Y-64556210D01*
X102161974Y-64545011D01*
X102147342Y-64543570D01*
X100947342Y-64543570D01*
X100937720Y-64544517D01*
X100935954Y-64544440D01*
X100935005Y-64544784D01*
X100932710Y-64545011D01*
X100920683Y-64549992D01*
X100908453Y-64554440D01*
X100907219Y-64555569D01*
X100905674Y-64556210D01*
X100896468Y-64565415D01*
X100886872Y-64574204D01*
X100886164Y-64575719D01*
X100884982Y-64576902D01*
X100880002Y-64588923D01*
X100874496Y-64600722D01*
X100874422Y-64602393D01*
X100873783Y-64603938D01*
X100873783Y-64616956D01*
X100873212Y-64629958D01*
X100739009Y-64629958D01*
X100739009Y-63258529D01*
X100873212Y-63258529D01*
X100873783Y-63260099D01*
X100873783Y-63261773D01*
X100878764Y-63273799D01*
X100883212Y-63286030D01*
X100884341Y-63287263D01*
X100884982Y-63288809D01*
X100894187Y-63298014D01*
X100902976Y-63307611D01*
X100904958Y-63308785D01*
X100905674Y-63309501D01*
X100907310Y-63310179D01*
X100915626Y-63315105D01*
X101627131Y-63647141D01*
X100915626Y-63979177D01*
X100907310Y-63984102D01*
X100905674Y-63984781D01*
X100904958Y-63985496D01*
X100902976Y-63986671D01*
X100894187Y-63996267D01*
X100884982Y-64005473D01*
X100884341Y-64007018D01*
X100883212Y-64008252D01*
X100878764Y-64020482D01*
X100873783Y-64032509D01*
X100873783Y-64034182D01*
X100873212Y-64035753D01*
X100873783Y-64048754D01*
X100873783Y-64061773D01*
X100874422Y-64063317D01*
X100874496Y-64064989D01*
X100880002Y-64076787D01*
X100884982Y-64088809D01*
X100886164Y-64089991D01*
X100886872Y-64091507D01*
X100896468Y-64100295D01*
X100905674Y-64109501D01*
X100907219Y-64110141D01*
X100908453Y-64111271D01*
X100920683Y-64115718D01*
X100932710Y-64120700D01*
X100935005Y-64120926D01*
X100935954Y-64121271D01*
X100937720Y-64121193D01*
X100947342Y-64122141D01*
X102147342Y-64122141D01*
X102161974Y-64120700D01*
X102189010Y-64109501D01*
X102209702Y-64088809D01*
X102220901Y-64061773D01*
X102220901Y-64032509D01*
X102209702Y-64005473D01*
X102189010Y-63984781D01*
X102161974Y-63973582D01*
X102147342Y-63972141D01*
X101285410Y-63972141D01*
X101836202Y-63715105D01*
X101841561Y-63711930D01*
X101843374Y-63711271D01*
X101844656Y-63710096D01*
X101848852Y-63707611D01*
X101856549Y-63699205D01*
X101864956Y-63691507D01*
X101866365Y-63688486D01*
X101868615Y-63686030D01*
X101872509Y-63675320D01*
X101877331Y-63664989D01*
X101877477Y-63661660D01*
X101878616Y-63658529D01*
X101878115Y-63647141D01*
X101878616Y-63635753D01*
X101877477Y-63632621D01*
X101877331Y-63629293D01*
X101872509Y-63618961D01*
X101868615Y-63608252D01*
X101866365Y-63605795D01*
X101864956Y-63602775D01*
X101856549Y-63595076D01*
X101848852Y-63586671D01*
X101844656Y-63584185D01*
X101843374Y-63583011D01*
X101841561Y-63582351D01*
X101836202Y-63579177D01*
X101285410Y-63322141D01*
X102147342Y-63322141D01*
X102161974Y-63320700D01*
X102189010Y-63309501D01*
X102209702Y-63288809D01*
X102220901Y-63261773D01*
X102220901Y-63232509D01*
X102209702Y-63205473D01*
X102189010Y-63184781D01*
X102161974Y-63173582D01*
X102147342Y-63172141D01*
X100947342Y-63172141D01*
X100937720Y-63173088D01*
X100935954Y-63173011D01*
X100935005Y-63173355D01*
X100932710Y-63173582D01*
X100920683Y-63178563D01*
X100908453Y-63183011D01*
X100907219Y-63184140D01*
X100905674Y-63184781D01*
X100896468Y-63193986D01*
X100886872Y-63202775D01*
X100886164Y-63204290D01*
X100884982Y-63205473D01*
X100880002Y-63217494D01*
X100874496Y-63229293D01*
X100874422Y-63230964D01*
X100873783Y-63232509D01*
X100873783Y-63245527D01*
X100873212Y-63258529D01*
X100739009Y-63258529D01*
X100739009Y-62104284D01*
X100872342Y-62104284D01*
X100872342Y-62675712D01*
X100873783Y-62690344D01*
X100884982Y-62717380D01*
X100905674Y-62738072D01*
X100932710Y-62749271D01*
X100947342Y-62750712D01*
X102147342Y-62750712D01*
X102161974Y-62749271D01*
X102189010Y-62738072D01*
X102209702Y-62717380D01*
X102220901Y-62690344D01*
X102222342Y-62675712D01*
X102222342Y-62104284D01*
X102220901Y-62089652D01*
X102209702Y-62062616D01*
X102189010Y-62041924D01*
X102161974Y-62030725D01*
X102132710Y-62030725D01*
X102105674Y-62041924D01*
X102084982Y-62062616D01*
X102073783Y-62089652D01*
X102072342Y-62104284D01*
X102072342Y-62600712D01*
X101593771Y-62600712D01*
X101593771Y-62275712D01*
X101592330Y-62261080D01*
X101581131Y-62234044D01*
X101560439Y-62213352D01*
X101533403Y-62202153D01*
X101504139Y-62202153D01*
X101477103Y-62213352D01*
X101456411Y-62234044D01*
X101445212Y-62261080D01*
X101443771Y-62275712D01*
X101443771Y-62600712D01*
X101022342Y-62600712D01*
X101022342Y-62104284D01*
X101020901Y-62089652D01*
X101009702Y-62062616D01*
X100989010Y-62041924D01*
X100961974Y-62030725D01*
X100932710Y-62030725D01*
X100905674Y-62041924D01*
X100884982Y-62062616D01*
X100873783Y-62089652D01*
X100872342Y-62104284D01*
X100739009Y-62104284D01*
X100739009Y-61132855D01*
X100872342Y-61132855D01*
X100872342Y-61589998D01*
X100873783Y-61604630D01*
X100884982Y-61631666D01*
X100905674Y-61652358D01*
X100932710Y-61663557D01*
X100947342Y-61664998D01*
X102147342Y-61664998D01*
X102161974Y-61663557D01*
X102189010Y-61652358D01*
X102209702Y-61631666D01*
X102220901Y-61604630D01*
X102220901Y-61575366D01*
X102209702Y-61548330D01*
X102189010Y-61527638D01*
X102161974Y-61516439D01*
X102147342Y-61514998D01*
X101650914Y-61514998D01*
X101650914Y-61343332D01*
X102190352Y-60965726D01*
X102201512Y-60956155D01*
X102217239Y-60931476D01*
X102222324Y-60902659D01*
X102215995Y-60874088D01*
X102199213Y-60850114D01*
X102174534Y-60834387D01*
X102145717Y-60829302D01*
X102117146Y-60835631D01*
X102104332Y-60842842D01*
X101650914Y-61160234D01*
X101650914Y-61132855D01*
X101649473Y-61118223D01*
X101648441Y-61115733D01*
X101648251Y-61113046D01*
X101642996Y-61099314D01*
X101585853Y-60985029D01*
X101581889Y-60978732D01*
X101581131Y-60976902D01*
X101579439Y-60974840D01*
X101578020Y-60972586D01*
X101576524Y-60971289D01*
X101571804Y-60965537D01*
X101514661Y-60908394D01*
X101508909Y-60903673D01*
X101507612Y-60902178D01*
X101505357Y-60900758D01*
X101503296Y-60899067D01*
X101501465Y-60898308D01*
X101495169Y-60894345D01*
X101380883Y-60837202D01*
X101367151Y-60831947D01*
X101364463Y-60831756D01*
X101361974Y-60830725D01*
X101347342Y-60829284D01*
X101175914Y-60829284D01*
X101161282Y-60830725D01*
X101158792Y-60831756D01*
X101156105Y-60831947D01*
X101142373Y-60837202D01*
X101028087Y-60894345D01*
X101021787Y-60898309D01*
X101019960Y-60899067D01*
X101017903Y-60900755D01*
X101015644Y-60902177D01*
X101014344Y-60903675D01*
X101008595Y-60908394D01*
X100951452Y-60965537D01*
X100946731Y-60971288D01*
X100945236Y-60972586D01*
X100943816Y-60974840D01*
X100942125Y-60976902D01*
X100941366Y-60978732D01*
X100937403Y-60985029D01*
X100880260Y-61099314D01*
X100875005Y-61113045D01*
X100874813Y-61115734D01*
X100873783Y-61118223D01*
X100872342Y-61132855D01*
X100739009Y-61132855D01*
X100739009Y-60695951D01*
X102355675Y-60695951D01*
X102355675Y-84084047D01*
G37*
X93813333Y-100784819D02*
X93480000Y-100308628D01*
X93241905Y-100784819D02*
X93241905Y-99784819D01*
X93241905Y-99784819D02*
X93622857Y-99784819D01*
X93622857Y-99784819D02*
X93718095Y-99832438D01*
X93718095Y-99832438D02*
X93765714Y-99880057D01*
X93765714Y-99880057D02*
X93813333Y-99975295D01*
X93813333Y-99975295D02*
X93813333Y-100118152D01*
X93813333Y-100118152D02*
X93765714Y-100213390D01*
X93765714Y-100213390D02*
X93718095Y-100261009D01*
X93718095Y-100261009D02*
X93622857Y-100308628D01*
X93622857Y-100308628D02*
X93241905Y-100308628D01*
X94194286Y-99880057D02*
X94241905Y-99832438D01*
X94241905Y-99832438D02*
X94337143Y-99784819D01*
X94337143Y-99784819D02*
X94575238Y-99784819D01*
X94575238Y-99784819D02*
X94670476Y-99832438D01*
X94670476Y-99832438D02*
X94718095Y-99880057D01*
X94718095Y-99880057D02*
X94765714Y-99975295D01*
X94765714Y-99975295D02*
X94765714Y-100070533D01*
X94765714Y-100070533D02*
X94718095Y-100213390D01*
X94718095Y-100213390D02*
X94146667Y-100784819D01*
X94146667Y-100784819D02*
X94765714Y-100784819D01*
X101004761Y-100784819D02*
X100433333Y-100784819D01*
X100719047Y-100784819D02*
X100719047Y-99784819D01*
X100719047Y-99784819D02*
X100623809Y-99927676D01*
X100623809Y-99927676D02*
X100528571Y-100022914D01*
X100528571Y-100022914D02*
X100433333Y-100070533D01*
X101623809Y-99784819D02*
X101719047Y-99784819D01*
X101719047Y-99784819D02*
X101814285Y-99832438D01*
X101814285Y-99832438D02*
X101861904Y-99880057D01*
X101861904Y-99880057D02*
X101909523Y-99975295D01*
X101909523Y-99975295D02*
X101957142Y-100165771D01*
X101957142Y-100165771D02*
X101957142Y-100403866D01*
X101957142Y-100403866D02*
X101909523Y-100594342D01*
X101909523Y-100594342D02*
X101861904Y-100689580D01*
X101861904Y-100689580D02*
X101814285Y-100737200D01*
X101814285Y-100737200D02*
X101719047Y-100784819D01*
X101719047Y-100784819D02*
X101623809Y-100784819D01*
X101623809Y-100784819D02*
X101528571Y-100737200D01*
X101528571Y-100737200D02*
X101480952Y-100689580D01*
X101480952Y-100689580D02*
X101433333Y-100594342D01*
X101433333Y-100594342D02*
X101385714Y-100403866D01*
X101385714Y-100403866D02*
X101385714Y-100165771D01*
X101385714Y-100165771D02*
X101433333Y-99975295D01*
X101433333Y-99975295D02*
X101480952Y-99880057D01*
X101480952Y-99880057D02*
X101528571Y-99832438D01*
X101528571Y-99832438D02*
X101623809Y-99784819D01*
X102385714Y-100784819D02*
X102385714Y-99784819D01*
X102480952Y-100403866D02*
X102766666Y-100784819D01*
X102766666Y-100118152D02*
X102385714Y-100499104D01*
X93813333Y-96974819D02*
X93480000Y-96498628D01*
X93241905Y-96974819D02*
X93241905Y-95974819D01*
X93241905Y-95974819D02*
X93622857Y-95974819D01*
X93622857Y-95974819D02*
X93718095Y-96022438D01*
X93718095Y-96022438D02*
X93765714Y-96070057D01*
X93765714Y-96070057D02*
X93813333Y-96165295D01*
X93813333Y-96165295D02*
X93813333Y-96308152D01*
X93813333Y-96308152D02*
X93765714Y-96403390D01*
X93765714Y-96403390D02*
X93718095Y-96451009D01*
X93718095Y-96451009D02*
X93622857Y-96498628D01*
X93622857Y-96498628D02*
X93241905Y-96498628D01*
X94765714Y-96974819D02*
X94194286Y-96974819D01*
X94480000Y-96974819D02*
X94480000Y-95974819D01*
X94480000Y-95974819D02*
X94384762Y-96117676D01*
X94384762Y-96117676D02*
X94289524Y-96212914D01*
X94289524Y-96212914D02*
X94194286Y-96260533D01*
X101004761Y-96974819D02*
X100433333Y-96974819D01*
X100719047Y-96974819D02*
X100719047Y-95974819D01*
X100719047Y-95974819D02*
X100623809Y-96117676D01*
X100623809Y-96117676D02*
X100528571Y-96212914D01*
X100528571Y-96212914D02*
X100433333Y-96260533D01*
X101623809Y-95974819D02*
X101719047Y-95974819D01*
X101719047Y-95974819D02*
X101814285Y-96022438D01*
X101814285Y-96022438D02*
X101861904Y-96070057D01*
X101861904Y-96070057D02*
X101909523Y-96165295D01*
X101909523Y-96165295D02*
X101957142Y-96355771D01*
X101957142Y-96355771D02*
X101957142Y-96593866D01*
X101957142Y-96593866D02*
X101909523Y-96784342D01*
X101909523Y-96784342D02*
X101861904Y-96879580D01*
X101861904Y-96879580D02*
X101814285Y-96927200D01*
X101814285Y-96927200D02*
X101719047Y-96974819D01*
X101719047Y-96974819D02*
X101623809Y-96974819D01*
X101623809Y-96974819D02*
X101528571Y-96927200D01*
X101528571Y-96927200D02*
X101480952Y-96879580D01*
X101480952Y-96879580D02*
X101433333Y-96784342D01*
X101433333Y-96784342D02*
X101385714Y-96593866D01*
X101385714Y-96593866D02*
X101385714Y-96355771D01*
X101385714Y-96355771D02*
X101433333Y-96165295D01*
X101433333Y-96165295D02*
X101480952Y-96070057D01*
X101480952Y-96070057D02*
X101528571Y-96022438D01*
X101528571Y-96022438D02*
X101623809Y-95974819D01*
X102385714Y-96974819D02*
X102385714Y-95974819D01*
X102480952Y-96593866D02*
X102766666Y-96974819D01*
X102766666Y-96308152D02*
X102385714Y-96689104D01*
X93813333Y-104594819D02*
X93480000Y-104118628D01*
X93241905Y-104594819D02*
X93241905Y-103594819D01*
X93241905Y-103594819D02*
X93622857Y-103594819D01*
X93622857Y-103594819D02*
X93718095Y-103642438D01*
X93718095Y-103642438D02*
X93765714Y-103690057D01*
X93765714Y-103690057D02*
X93813333Y-103785295D01*
X93813333Y-103785295D02*
X93813333Y-103928152D01*
X93813333Y-103928152D02*
X93765714Y-104023390D01*
X93765714Y-104023390D02*
X93718095Y-104071009D01*
X93718095Y-104071009D02*
X93622857Y-104118628D01*
X93622857Y-104118628D02*
X93241905Y-104118628D01*
X94146667Y-103594819D02*
X94765714Y-103594819D01*
X94765714Y-103594819D02*
X94432381Y-103975771D01*
X94432381Y-103975771D02*
X94575238Y-103975771D01*
X94575238Y-103975771D02*
X94670476Y-104023390D01*
X94670476Y-104023390D02*
X94718095Y-104071009D01*
X94718095Y-104071009D02*
X94765714Y-104166247D01*
X94765714Y-104166247D02*
X94765714Y-104404342D01*
X94765714Y-104404342D02*
X94718095Y-104499580D01*
X94718095Y-104499580D02*
X94670476Y-104547200D01*
X94670476Y-104547200D02*
X94575238Y-104594819D01*
X94575238Y-104594819D02*
X94289524Y-104594819D01*
X94289524Y-104594819D02*
X94194286Y-104547200D01*
X94194286Y-104547200D02*
X94146667Y-104499580D01*
X101004761Y-104594819D02*
X100433333Y-104594819D01*
X100719047Y-104594819D02*
X100719047Y-103594819D01*
X100719047Y-103594819D02*
X100623809Y-103737676D01*
X100623809Y-103737676D02*
X100528571Y-103832914D01*
X100528571Y-103832914D02*
X100433333Y-103880533D01*
X101623809Y-103594819D02*
X101719047Y-103594819D01*
X101719047Y-103594819D02*
X101814285Y-103642438D01*
X101814285Y-103642438D02*
X101861904Y-103690057D01*
X101861904Y-103690057D02*
X101909523Y-103785295D01*
X101909523Y-103785295D02*
X101957142Y-103975771D01*
X101957142Y-103975771D02*
X101957142Y-104213866D01*
X101957142Y-104213866D02*
X101909523Y-104404342D01*
X101909523Y-104404342D02*
X101861904Y-104499580D01*
X101861904Y-104499580D02*
X101814285Y-104547200D01*
X101814285Y-104547200D02*
X101719047Y-104594819D01*
X101719047Y-104594819D02*
X101623809Y-104594819D01*
X101623809Y-104594819D02*
X101528571Y-104547200D01*
X101528571Y-104547200D02*
X101480952Y-104499580D01*
X101480952Y-104499580D02*
X101433333Y-104404342D01*
X101433333Y-104404342D02*
X101385714Y-104213866D01*
X101385714Y-104213866D02*
X101385714Y-103975771D01*
X101385714Y-103975771D02*
X101433333Y-103785295D01*
X101433333Y-103785295D02*
X101480952Y-103690057D01*
X101480952Y-103690057D02*
X101528571Y-103642438D01*
X101528571Y-103642438D02*
X101623809Y-103594819D01*
X102385714Y-104594819D02*
X102385714Y-103594819D01*
X102480952Y-104213866D02*
X102766666Y-104594819D01*
X102766666Y-103928152D02*
X102385714Y-104309104D01*
D15*
X123201428Y-96192891D02*
X123601428Y-96192891D01*
X123601428Y-96192891D02*
X123201428Y-96792891D01*
X123201428Y-96792891D02*
X123601428Y-96792891D01*
X123830000Y-96792891D02*
X123830000Y-96192891D01*
X124315714Y-96478605D02*
X124115714Y-96478605D01*
X124115714Y-96792891D02*
X124115714Y-96192891D01*
X124115714Y-96192891D02*
X124401428Y-96192891D01*
X125058571Y-96764320D02*
X125144286Y-96792891D01*
X125144286Y-96792891D02*
X125287143Y-96792891D01*
X125287143Y-96792891D02*
X125344286Y-96764320D01*
X125344286Y-96764320D02*
X125372857Y-96735748D01*
X125372857Y-96735748D02*
X125401428Y-96678605D01*
X125401428Y-96678605D02*
X125401428Y-96621462D01*
X125401428Y-96621462D02*
X125372857Y-96564320D01*
X125372857Y-96564320D02*
X125344286Y-96535748D01*
X125344286Y-96535748D02*
X125287143Y-96507177D01*
X125287143Y-96507177D02*
X125172857Y-96478605D01*
X125172857Y-96478605D02*
X125115714Y-96450034D01*
X125115714Y-96450034D02*
X125087143Y-96421462D01*
X125087143Y-96421462D02*
X125058571Y-96364320D01*
X125058571Y-96364320D02*
X125058571Y-96307177D01*
X125058571Y-96307177D02*
X125087143Y-96250034D01*
X125087143Y-96250034D02*
X125115714Y-96221462D01*
X125115714Y-96221462D02*
X125172857Y-96192891D01*
X125172857Y-96192891D02*
X125315714Y-96192891D01*
X125315714Y-96192891D02*
X125401428Y-96221462D01*
X125772857Y-96192891D02*
X125887143Y-96192891D01*
X125887143Y-96192891D02*
X125944286Y-96221462D01*
X125944286Y-96221462D02*
X126001429Y-96278605D01*
X126001429Y-96278605D02*
X126030000Y-96392891D01*
X126030000Y-96392891D02*
X126030000Y-96592891D01*
X126030000Y-96592891D02*
X126001429Y-96707177D01*
X126001429Y-96707177D02*
X125944286Y-96764320D01*
X125944286Y-96764320D02*
X125887143Y-96792891D01*
X125887143Y-96792891D02*
X125772857Y-96792891D01*
X125772857Y-96792891D02*
X125715715Y-96764320D01*
X125715715Y-96764320D02*
X125658572Y-96707177D01*
X125658572Y-96707177D02*
X125630000Y-96592891D01*
X125630000Y-96592891D02*
X125630000Y-96392891D01*
X125630000Y-96392891D02*
X125658572Y-96278605D01*
X125658572Y-96278605D02*
X125715715Y-96221462D01*
X125715715Y-96221462D02*
X125772857Y-96192891D01*
X126630000Y-96735748D02*
X126601428Y-96764320D01*
X126601428Y-96764320D02*
X126515714Y-96792891D01*
X126515714Y-96792891D02*
X126458571Y-96792891D01*
X126458571Y-96792891D02*
X126372857Y-96764320D01*
X126372857Y-96764320D02*
X126315714Y-96707177D01*
X126315714Y-96707177D02*
X126287143Y-96650034D01*
X126287143Y-96650034D02*
X126258571Y-96535748D01*
X126258571Y-96535748D02*
X126258571Y-96450034D01*
X126258571Y-96450034D02*
X126287143Y-96335748D01*
X126287143Y-96335748D02*
X126315714Y-96278605D01*
X126315714Y-96278605D02*
X126372857Y-96221462D01*
X126372857Y-96221462D02*
X126458571Y-96192891D01*
X126458571Y-96192891D02*
X126515714Y-96192891D01*
X126515714Y-96192891D02*
X126601428Y-96221462D01*
X126601428Y-96221462D02*
X126630000Y-96250034D01*
X126887143Y-96792891D02*
X126887143Y-96192891D01*
X127230000Y-96792891D02*
X126972857Y-96450034D01*
X127230000Y-96192891D02*
X126887143Y-96535748D01*
X127487143Y-96478605D02*
X127687143Y-96478605D01*
X127772857Y-96792891D02*
X127487143Y-96792891D01*
X127487143Y-96792891D02*
X127487143Y-96192891D01*
X127487143Y-96192891D02*
X127772857Y-96192891D01*
X127944285Y-96192891D02*
X128287143Y-96192891D01*
X128115714Y-96792891D02*
X128115714Y-96192891D01*
D16*
%TO.C,R2*%
X97560000Y-100330000D02*
X98330000Y-100330000D01*
X105640000Y-100330000D02*
X104870000Y-100330000D01*
X104870000Y-101700000D02*
X98330000Y-101700000D01*
X98330000Y-98960000D01*
X104870000Y-98960000D01*
X104870000Y-101700000D01*
%TO.C,J1*%
X92644500Y-93465000D02*
X110544500Y-93465000D01*
X92645500Y-51315000D02*
X92644500Y-93465000D01*
X95134500Y-93405000D02*
X108054500Y-93405000D01*
X95135500Y-51375000D02*
X95134500Y-93405000D01*
X100595500Y-51375000D02*
X95135500Y-51375000D01*
X108054500Y-93405000D02*
X108055500Y-51375000D01*
X108055500Y-51375000D02*
X102595500Y-51375000D01*
X110544500Y-93465000D02*
X110545500Y-51315000D01*
X110545500Y-51315000D02*
X92645500Y-51315000D01*
X102595500Y-51375000D02*
G75*
G02*
X100595500Y-51375000I-1000000J0D01*
G01*
X95803500Y-51943000D02*
G75*
G02*
X95703500Y-51943000I-50000J0D01*
G01*
X95703500Y-51943000D02*
G75*
G02*
X95803500Y-51943000I50000J0D01*
G01*
X95878500Y-51943000D02*
G75*
G02*
X95628500Y-51943000I-125000J0D01*
G01*
X95628500Y-51943000D02*
G75*
G02*
X95878500Y-51943000I125000J0D01*
G01*
X95953500Y-51943000D02*
G75*
G02*
X95553500Y-51943000I-200000J0D01*
G01*
X95553500Y-51943000D02*
G75*
G02*
X95953500Y-51943000I200000J0D01*
G01*
%TO.C,R1*%
X97560000Y-96520000D02*
X98330000Y-96520000D01*
X105640000Y-96520000D02*
X104870000Y-96520000D01*
X104870000Y-97890000D02*
X98330000Y-97890000D01*
X98330000Y-95150000D01*
X104870000Y-95150000D01*
X104870000Y-97890000D01*
%TO.C,R3*%
X97560000Y-104140000D02*
X98330000Y-104140000D01*
X105640000Y-104140000D02*
X104870000Y-104140000D01*
X104870000Y-105510000D02*
X98330000Y-105510000D01*
X98330000Y-102770000D01*
X104870000Y-102770000D01*
X104870000Y-105510000D01*
%TO.C,U2*%
X113160000Y-62357000D02*
X113160000Y-59817000D01*
X114180000Y-50427000D02*
X114180000Y-52287000D01*
X114180000Y-57187000D02*
X114180000Y-101027000D01*
X114180000Y-101027000D02*
X137280000Y-101027000D01*
X116460000Y-50427000D02*
X116460000Y-52687000D01*
X137280000Y-50427000D02*
X114180000Y-50427000D01*
X137280000Y-101027000D02*
X137280000Y-50427000D01*
X115810000Y-54737000D02*
G75*
G02*
X114010000Y-54737000I-900000J0D01*
G01*
X114010000Y-54737000D02*
G75*
G02*
X115810000Y-54737000I900000J0D01*
G01*
X117460000Y-54737000D02*
G75*
G02*
X112360000Y-54737000I-2550000J0D01*
G01*
X112360000Y-54737000D02*
G75*
G02*
X117460000Y-54737000I2550000J0D01*
G01*
%TD*%
M02*
