%TF.GenerationSoftware,KiCad,Pcbnew,9.0.6*%
%TF.CreationDate,2026-01-11T11:48:49+09:00*%
%TF.ProjectId,MH01952024221Z2_1Mbit_mask-rom_adaptor,4d483031-3935-4323-9032-343232315a32,rev?*%
%TF.SameCoordinates,Original*%
%TF.FileFunction,Soldermask,Bot*%
%TF.FilePolarity,Negative*%
%FSLAX46Y46*%
G04 Gerber Fmt 4.6, Leading zero omitted, Abs format (unit mm)*
G04 Created by KiCad (PCBNEW 9.0.6) date 2026-01-11 11:48:49*
%MOMM*%
%LPD*%
G01*
G04 APERTURE LIST*
%ADD10C,1.600000*%
%ADD11R,1.600000X1.600000*%
%ADD12O,1.600000X1.600000*%
%ADD13R,2.000000X1.440000*%
%ADD14O,2.000000X1.440000*%
G04 APERTURE END LIST*
D10*
%TO.C,R2*%
X106680000Y-100330000D03*
X96520000Y-100330000D03*
%TD*%
D11*
%TO.C,J1*%
X93974500Y-53340000D03*
D12*
X93974500Y-55880000D03*
X93974500Y-58420000D03*
X93974500Y-60960000D03*
X93974500Y-63500000D03*
X93974500Y-66040000D03*
X93974500Y-68580000D03*
X93974500Y-71120000D03*
X93974500Y-73660000D03*
X93974500Y-76200000D03*
X93974500Y-78740000D03*
X93974500Y-81280000D03*
X93974500Y-83820000D03*
X93974500Y-86360000D03*
X93974500Y-88900000D03*
X93974500Y-91440000D03*
X109214500Y-91440000D03*
X109214500Y-88900000D03*
X109214500Y-86360000D03*
X109214500Y-83820000D03*
X109214500Y-81280000D03*
X109214500Y-78740000D03*
X109214500Y-76200000D03*
X109214500Y-73660000D03*
X109214500Y-71120000D03*
X109214500Y-68580000D03*
X109214500Y-66040000D03*
X109214500Y-63500000D03*
X109214500Y-60960000D03*
X109214500Y-58420000D03*
X109214500Y-55880000D03*
X109214500Y-53340000D03*
%TD*%
D10*
%TO.C,R1*%
X106680000Y-96520000D03*
X96520000Y-96520000D03*
%TD*%
%TO.C,R3*%
X106680000Y-104140000D03*
X96520000Y-104140000D03*
%TD*%
D13*
%TO.C,U2*%
X118110000Y-61087000D03*
D14*
X118110000Y-63627000D03*
X118110000Y-66167000D03*
X118110000Y-68707000D03*
X118110000Y-71247000D03*
X118110000Y-73787000D03*
X118110000Y-76327000D03*
X118110000Y-78867000D03*
X118110000Y-81407000D03*
X118110000Y-83947000D03*
X118110000Y-86487000D03*
X118110000Y-89027000D03*
X118110000Y-91567000D03*
X118110000Y-94107000D03*
X133350000Y-94107000D03*
X133350000Y-91567000D03*
X133350000Y-89027000D03*
X133350000Y-86487000D03*
X133350000Y-83947000D03*
X133350000Y-81407000D03*
X133350000Y-78867000D03*
X133350000Y-76327000D03*
X133350000Y-73787000D03*
X133350000Y-71247000D03*
X133350000Y-68707000D03*
X133350000Y-66167000D03*
X133350000Y-63627000D03*
X133350000Y-61087000D03*
%TD*%
M02*
