%TF.GenerationSoftware,KiCad,Pcbnew,9.0.6*%
%TF.CreationDate,2026-01-11T11:57:00+09:00*%
%TF.ProjectId,Hi-Lo_converter,48692d4c-6f5f-4636-9f6e-766572746572,rev?*%
%TF.SameCoordinates,Original*%
%TF.FileFunction,Copper,L2,Bot*%
%TF.FilePolarity,Positive*%
%FSLAX46Y46*%
G04 Gerber Fmt 4.6, Leading zero omitted, Abs format (unit mm)*
G04 Created by KiCad (PCBNEW 9.0.6) date 2026-01-11 11:57:00*
%MOMM*%
%LPD*%
G01*
G04 APERTURE LIST*
G04 Aperture macros list*
%AMRoundRect*
0 Rectangle with rounded corners*
0 $1 Rounding radius*
0 $2 $3 $4 $5 $6 $7 $8 $9 X,Y pos of 4 corners*
0 Add a 4 corners polygon primitive as box body*
4,1,4,$2,$3,$4,$5,$6,$7,$8,$9,$2,$3,0*
0 Add four circle primitives for the rounded corners*
1,1,$1+$1,$2,$3*
1,1,$1+$1,$4,$5*
1,1,$1+$1,$6,$7*
1,1,$1+$1,$8,$9*
0 Add four rect primitives between the rounded corners*
20,1,$1+$1,$2,$3,$4,$5,0*
20,1,$1+$1,$4,$5,$6,$7,0*
20,1,$1+$1,$6,$7,$8,$9,0*
20,1,$1+$1,$8,$9,$2,$3,0*%
G04 Aperture macros list end*
%TA.AperFunction,ComponentPad*%
%ADD10R,2.000000X2.000000*%
%TD*%
%TA.AperFunction,ComponentPad*%
%ADD11O,3.556000X2.032000*%
%TD*%
%TA.AperFunction,ComponentPad*%
%ADD12C,2.032000*%
%TD*%
%TA.AperFunction,ComponentPad*%
%ADD13O,5.000000X3.500000*%
%TD*%
%TA.AperFunction,ComponentPad*%
%ADD14C,2.000000*%
%TD*%
%TA.AperFunction,ComponentPad*%
%ADD15C,2.400000*%
%TD*%
%TA.AperFunction,ComponentPad*%
%ADD16RoundRect,0.250000X-0.750000X0.600000X-0.750000X-0.600000X0.750000X-0.600000X0.750000X0.600000X0*%
%TD*%
%TA.AperFunction,ComponentPad*%
%ADD17O,2.000000X1.700000*%
%TD*%
%TA.AperFunction,ComponentPad*%
%ADD18R,1.600000X1.600000*%
%TD*%
%TA.AperFunction,ComponentPad*%
%ADD19C,1.600000*%
%TD*%
%TA.AperFunction,ViaPad*%
%ADD20C,0.800000*%
%TD*%
%TA.AperFunction,Conductor*%
%ADD21C,0.800000*%
%TD*%
%TA.AperFunction,Conductor*%
%ADD22C,0.600000*%
%TD*%
G04 APERTURE END LIST*
D10*
%TO.P,REF\u002A\u002A,1*%
%TO.N,Net-(J2-Pin_1)*%
X209296000Y-53086000D03*
%TD*%
D11*
%TO.P,TR1,*%
%TO.N,*%
X181610000Y-30673000D03*
X181610000Y-50673000D03*
D12*
%TO.P,TR1,1,AA*%
%TO.N,Net-(TR1-AA)*%
X169610000Y-44673000D03*
X174610000Y-44673000D03*
%TO.P,TR1,2,AB*%
%TO.N,Net-(J1-Pin_1)*%
X169610000Y-36673000D03*
X174610000Y-36673000D03*
%TO.P,TR1,3,SA*%
%TO.N,Net-(J2-Pin_1)*%
X188610000Y-36673000D03*
X193610000Y-36673000D03*
%TO.P,TR1,4,SC*%
%TO.N,Net-(TR1-SC)*%
X188610000Y-40673000D03*
X193610000Y-40673000D03*
%TO.P,TR1,5,SB*%
%TO.N,unconnected-(TR1-SB-Pad5)*%
X188610000Y-44673000D03*
X193610000Y-44673000D03*
%TD*%
D13*
%TO.P,RV1,*%
%TO.N,*%
X201676000Y-46140000D03*
X201676000Y-35140000D03*
D14*
%TO.P,RV1,1,1*%
%TO.N,Net-(J2-Pin_1)*%
X208676000Y-43140000D03*
%TO.P,RV1,2,2*%
%TO.N,Net-(C1-Pad2)*%
X208676000Y-40640000D03*
%TO.P,RV1,3,3*%
%TO.N,Net-(TR1-SC)*%
X208676000Y-38140000D03*
%TD*%
D15*
%TO.P,R2,1*%
%TO.N,Net-(J1-Pin_1)*%
X169000000Y-50800000D03*
%TO.P,R2,2*%
%TO.N,Net-(TR1-AA)*%
X176620000Y-50800000D03*
%TD*%
D16*
%TO.P,J2,1,Pin_1*%
%TO.N,Net-(J2-Pin_1)*%
X214139000Y-46121000D03*
D17*
%TO.P,J2,2,Pin_2*%
%TO.N,Net-(J2-Pin_2)*%
X214139000Y-48621000D03*
%TD*%
D10*
%TO.P,REF\u002A\u002A,1*%
%TO.N,Net-(J2-Pin_1)*%
X206375000Y-33401000D03*
%TD*%
D15*
%TO.P,R1,1*%
%TO.N,Net-(TR1-AA)*%
X169000000Y-30480000D03*
%TO.P,R1,2*%
%TO.N,Net-(J1-Pin_2)*%
X176620000Y-30480000D03*
%TD*%
D16*
%TO.P,J1,1,Pin_1*%
%TO.N,Net-(J1-Pin_1)*%
X214139000Y-32405000D03*
D17*
%TO.P,J1,2,Pin_2*%
%TO.N,Net-(J1-Pin_2)*%
X214139000Y-34905000D03*
%TD*%
D18*
%TO.P,C1,1*%
%TO.N,Net-(J2-Pin_2)*%
X197397380Y-51562000D03*
D19*
%TO.P,C1,2*%
%TO.N,Net-(C1-Pad2)*%
X194897380Y-51562000D03*
%TD*%
D20*
%TO.N,Net-(J2-Pin_1)*%
X185420000Y-48260000D03*
X215900000Y-43180000D03*
X195580000Y-33020000D03*
X185420000Y-33020000D03*
X185420000Y-53340000D03*
X195580000Y-53340000D03*
X185420000Y-43180000D03*
X190500000Y-53340000D03*
X215900000Y-48260000D03*
X210820000Y-38100000D03*
X205740000Y-53340000D03*
X200660000Y-53340000D03*
X210820000Y-33020000D03*
X210820000Y-43180000D03*
X185420000Y-38100000D03*
X190500000Y-33020000D03*
%TD*%
D21*
%TO.N,Net-(J1-Pin_1)*%
X169610000Y-36673000D02*
X174610000Y-36673000D01*
D22*
%TO.N,Net-(J2-Pin_1)*%
X188610000Y-36673000D02*
X193610000Y-36673000D01*
X200077000Y-43140000D02*
X193610000Y-36673000D01*
X208676000Y-43140000D02*
X200077000Y-43140000D01*
%TO.N,Net-(TR1-SC)*%
X188610000Y-40673000D02*
X193610000Y-40673000D01*
%TO.N,unconnected-(TR1-SB-Pad5)*%
X188610000Y-44673000D02*
X193610000Y-44673000D01*
D21*
%TO.N,Net-(TR1-AA)*%
X169610000Y-44673000D02*
X174610000Y-44673000D01*
%TD*%
%TA.AperFunction,Conductor*%
%TO.N,Net-(J2-Pin_1)*%
G36*
X211522743Y-31516478D02*
G01*
X211570343Y-31571411D01*
X211582000Y-31625000D01*
X211582000Y-40640000D01*
X218311000Y-40640000D01*
X218380743Y-40660478D01*
X218428343Y-40715411D01*
X218440000Y-40769000D01*
X218440000Y-53092000D01*
X218419522Y-53161743D01*
X218364589Y-53209343D01*
X218311000Y-53221000D01*
X213614000Y-53221000D01*
X212136843Y-54586000D01*
X211873072Y-54829743D01*
X211807952Y-54862035D01*
X211785523Y-54864000D01*
X210566000Y-54864000D01*
X184787000Y-54864000D01*
X184717257Y-54843522D01*
X184669657Y-54788589D01*
X184658000Y-54735000D01*
X184658000Y-51457547D01*
X193836880Y-51457547D01*
X193836880Y-51666452D01*
X193849284Y-51728812D01*
X193877635Y-51871336D01*
X193957577Y-52064335D01*
X194073636Y-52238029D01*
X194221351Y-52385744D01*
X194395045Y-52501803D01*
X194588044Y-52581745D01*
X194669998Y-52598047D01*
X194792927Y-52622500D01*
X194792930Y-52622500D01*
X195001833Y-52622500D01*
X195104273Y-52602122D01*
X195206716Y-52581745D01*
X195399715Y-52501803D01*
X195573409Y-52385744D01*
X195721124Y-52238029D01*
X195837183Y-52064335D01*
X195917125Y-51871336D01*
X195957880Y-51666450D01*
X195957880Y-51457550D01*
X195957880Y-51457547D01*
X195917125Y-51252666D01*
X195917125Y-51252664D01*
X195837183Y-51059665D01*
X195721124Y-50885971D01*
X195573409Y-50738256D01*
X195570550Y-50736346D01*
X195570546Y-50736343D01*
X196336880Y-50736343D01*
X196336880Y-52387656D01*
X196351993Y-52463639D01*
X196351994Y-52463640D01*
X196351994Y-52463641D01*
X196351995Y-52463642D01*
X196409570Y-52549810D01*
X196495738Y-52607385D01*
X196495739Y-52607385D01*
X196495740Y-52607386D01*
X196571723Y-52622500D01*
X196571726Y-52622500D01*
X198223037Y-52622500D01*
X198299019Y-52607386D01*
X198299019Y-52607385D01*
X198299022Y-52607385D01*
X198385190Y-52549810D01*
X198442765Y-52463642D01*
X198457880Y-52387654D01*
X198457880Y-52038174D01*
X207796000Y-52038174D01*
X207796000Y-52836000D01*
X208862988Y-52836000D01*
X208830075Y-52893007D01*
X208796000Y-53020174D01*
X208796000Y-53151826D01*
X208830075Y-53278993D01*
X208862988Y-53336000D01*
X207796000Y-53336000D01*
X207796000Y-54133825D01*
X207802402Y-54193377D01*
X207802404Y-54193383D01*
X207852646Y-54328086D01*
X207852648Y-54328090D01*
X207938810Y-54443187D01*
X207938812Y-54443189D01*
X208053909Y-54529351D01*
X208053913Y-54529353D01*
X208188616Y-54579595D01*
X208188622Y-54579597D01*
X208248174Y-54585999D01*
X208248175Y-54586000D01*
X209046000Y-54586000D01*
X209046000Y-53519012D01*
X209103007Y-53551925D01*
X209230174Y-53586000D01*
X209361826Y-53586000D01*
X209488993Y-53551925D01*
X209546000Y-53519012D01*
X209546000Y-54586000D01*
X210343825Y-54586000D01*
X210343825Y-54585999D01*
X210403377Y-54579597D01*
X210403383Y-54579595D01*
X210538086Y-54529353D01*
X210538090Y-54529351D01*
X210653187Y-54443189D01*
X210653189Y-54443187D01*
X210739351Y-54328090D01*
X210739353Y-54328086D01*
X210789595Y-54193383D01*
X210789597Y-54193377D01*
X210795999Y-54133825D01*
X210796000Y-54133824D01*
X210796000Y-53336000D01*
X209729012Y-53336000D01*
X209761925Y-53278993D01*
X209796000Y-53151826D01*
X209796000Y-53020174D01*
X209761925Y-52893007D01*
X209729012Y-52836000D01*
X210796000Y-52836000D01*
X210796000Y-52038175D01*
X210795999Y-52038174D01*
X210789597Y-51978622D01*
X210789595Y-51978616D01*
X210739353Y-51843913D01*
X210739351Y-51843909D01*
X210653189Y-51728812D01*
X210653187Y-51728810D01*
X210538090Y-51642648D01*
X210538086Y-51642646D01*
X210403383Y-51592404D01*
X210403377Y-51592402D01*
X210343825Y-51586000D01*
X209546000Y-51586000D01*
X209546000Y-52652988D01*
X209488993Y-52620075D01*
X209361826Y-52586000D01*
X209230174Y-52586000D01*
X209103007Y-52620075D01*
X209046000Y-52652988D01*
X209046000Y-51586000D01*
X208248174Y-51586000D01*
X208188622Y-51592402D01*
X208188616Y-51592404D01*
X208053913Y-51642646D01*
X208053909Y-51642648D01*
X207938812Y-51728810D01*
X207938810Y-51728812D01*
X207852648Y-51843909D01*
X207852646Y-51843913D01*
X207802404Y-51978616D01*
X207802402Y-51978622D01*
X207796000Y-52038174D01*
X198457880Y-52038174D01*
X198457880Y-50736346D01*
X198457880Y-50736343D01*
X198442766Y-50660360D01*
X198442765Y-50660359D01*
X198442765Y-50660358D01*
X198385190Y-50574190D01*
X198299022Y-50516615D01*
X198299021Y-50516614D01*
X198299020Y-50516614D01*
X198299019Y-50516613D01*
X198223037Y-50501500D01*
X198223034Y-50501500D01*
X196571726Y-50501500D01*
X196571723Y-50501500D01*
X196495740Y-50516613D01*
X196495739Y-50516614D01*
X196409570Y-50574190D01*
X196351994Y-50660359D01*
X196351993Y-50660360D01*
X196336880Y-50736343D01*
X195570546Y-50736343D01*
X195530132Y-50709339D01*
X195399715Y-50622197D01*
X195206716Y-50542255D01*
X195206714Y-50542254D01*
X195206713Y-50542254D01*
X195001833Y-50501500D01*
X195001830Y-50501500D01*
X194792930Y-50501500D01*
X194792927Y-50501500D01*
X194588046Y-50542254D01*
X194588044Y-50542255D01*
X194395045Y-50622197D01*
X194395044Y-50622198D01*
X194221351Y-50738255D01*
X194073635Y-50885971D01*
X193986493Y-51016388D01*
X193957577Y-51059665D01*
X193895745Y-51208941D01*
X193877634Y-51252666D01*
X193836880Y-51457547D01*
X184658000Y-51457547D01*
X184658000Y-46008219D01*
X198915500Y-46008219D01*
X198915500Y-46271780D01*
X198949898Y-46533058D01*
X198949902Y-46533080D01*
X199018113Y-46787646D01*
X199118969Y-47031133D01*
X199118970Y-47031134D01*
X199210312Y-47189343D01*
X199250743Y-47259371D01*
X199292138Y-47313317D01*
X199410419Y-47467464D01*
X199411183Y-47468459D01*
X199597541Y-47654817D01*
X199806629Y-47815257D01*
X199806638Y-47815262D01*
X200034865Y-47947029D01*
X200034866Y-47947030D01*
X200278354Y-48047886D01*
X200278352Y-48047886D01*
X200278358Y-48047887D01*
X200278359Y-48047888D01*
X200532929Y-48116100D01*
X200643542Y-48130662D01*
X200794219Y-48150500D01*
X200794225Y-48150500D01*
X202557780Y-48150500D01*
X202683343Y-48133968D01*
X202819071Y-48116100D01*
X203073641Y-48047888D01*
X203317129Y-47947032D01*
X203317131Y-47947030D01*
X203317133Y-47947030D01*
X203317134Y-47947029D01*
X203402817Y-47897560D01*
X203545371Y-47815257D01*
X203754459Y-47654817D01*
X203940817Y-47468459D01*
X204101257Y-47259371D01*
X204233032Y-47031129D01*
X204333888Y-46787641D01*
X204402100Y-46533071D01*
X204423437Y-46371000D01*
X204432689Y-46300728D01*
X204436500Y-46271780D01*
X204436500Y-46008219D01*
X204410929Y-45813993D01*
X204402100Y-45746929D01*
X204333888Y-45492359D01*
X204325048Y-45471018D01*
X212639000Y-45471018D01*
X212639000Y-45871000D01*
X213705988Y-45871000D01*
X213673075Y-45928007D01*
X213639000Y-46055174D01*
X213639000Y-46186826D01*
X213673075Y-46313993D01*
X213705988Y-46371000D01*
X212639001Y-46371000D01*
X212639001Y-46770980D01*
X212649494Y-46873694D01*
X212649495Y-46873703D01*
X212704640Y-47040117D01*
X212704642Y-47040120D01*
X212796682Y-47189343D01*
X212920656Y-47313317D01*
X213069879Y-47405357D01*
X213069882Y-47405359D01*
X213236302Y-47460505D01*
X213236299Y-47460505D01*
X213304417Y-47467464D01*
X213371717Y-47494924D01*
X213413488Y-47554410D01*
X213416467Y-47627036D01*
X213379709Y-47689744D01*
X213367132Y-47700159D01*
X213265557Y-47773958D01*
X213141955Y-47897560D01*
X213039215Y-48038970D01*
X212959858Y-48194717D01*
X212959857Y-48194719D01*
X212905845Y-48360950D01*
X212905844Y-48360951D01*
X212878500Y-48533598D01*
X212878500Y-48708401D01*
X212905844Y-48881048D01*
X212905845Y-48881049D01*
X212959857Y-49047280D01*
X212959858Y-49047282D01*
X213039215Y-49203029D01*
X213141955Y-49344439D01*
X213265560Y-49468044D01*
X213406970Y-49570784D01*
X213406969Y-49570784D01*
X213406971Y-49570785D01*
X213562716Y-49650141D01*
X213562718Y-49650141D01*
X213562719Y-49650142D01*
X213728950Y-49704154D01*
X213728951Y-49704155D01*
X213728956Y-49704155D01*
X213728957Y-49704156D01*
X213901602Y-49731500D01*
X213901604Y-49731500D01*
X214376396Y-49731500D01*
X214376398Y-49731500D01*
X214549043Y-49704156D01*
X214549044Y-49704155D01*
X214549048Y-49704155D01*
X214549049Y-49704154D01*
X214715284Y-49650141D01*
X214871029Y-49570785D01*
X215012442Y-49468042D01*
X215136042Y-49344442D01*
X215238785Y-49203029D01*
X215318141Y-49047284D01*
X215372154Y-48881048D01*
X215372155Y-48881048D01*
X215372156Y-48881043D01*
X215399500Y-48708398D01*
X215399500Y-48533602D01*
X215372156Y-48360957D01*
X215372155Y-48360956D01*
X215372155Y-48360951D01*
X215372154Y-48360950D01*
X215318142Y-48194719D01*
X215318141Y-48194717D01*
X215318141Y-48194716D01*
X215238785Y-48038971D01*
X215171985Y-47947029D01*
X215136044Y-47897560D01*
X215012439Y-47773955D01*
X214910867Y-47700159D01*
X214866481Y-47642598D01*
X214860260Y-47570178D01*
X214894181Y-47505891D01*
X214957473Y-47470148D01*
X214973581Y-47467464D01*
X215041695Y-47460505D01*
X215041703Y-47460504D01*
X215208117Y-47405359D01*
X215208120Y-47405357D01*
X215357343Y-47313317D01*
X215481317Y-47189343D01*
X215573357Y-47040120D01*
X215573359Y-47040117D01*
X215628505Y-46873698D01*
X215639000Y-46770981D01*
X215639000Y-46371000D01*
X214572012Y-46371000D01*
X214604925Y-46313993D01*
X214639000Y-46186826D01*
X214639000Y-46055174D01*
X214604925Y-45928007D01*
X214572012Y-45871000D01*
X215638999Y-45871000D01*
X215638999Y-45471019D01*
X215628505Y-45368305D01*
X215628504Y-45368296D01*
X215573359Y-45201882D01*
X215573357Y-45201879D01*
X215481317Y-45052656D01*
X215357343Y-44928682D01*
X215208120Y-44836642D01*
X215208117Y-44836640D01*
X215041697Y-44781494D01*
X215041700Y-44781494D01*
X214938981Y-44771000D01*
X214389000Y-44771000D01*
X214389000Y-45687988D01*
X214331993Y-45655075D01*
X214204826Y-45621000D01*
X214073174Y-45621000D01*
X213946007Y-45655075D01*
X213889000Y-45687988D01*
X213889000Y-44771000D01*
X213339019Y-44771000D01*
X213236305Y-44781494D01*
X213236296Y-44781495D01*
X213069882Y-44836640D01*
X213069879Y-44836642D01*
X212920656Y-44928682D01*
X212796682Y-45052656D01*
X212704642Y-45201879D01*
X212704640Y-45201882D01*
X212649494Y-45368301D01*
X212639000Y-45471018D01*
X204325048Y-45471018D01*
X204233032Y-45248871D01*
X204233030Y-45248866D01*
X204233029Y-45248865D01*
X204101262Y-45020638D01*
X204101257Y-45020629D01*
X203940817Y-44811541D01*
X203754459Y-44625183D01*
X203754457Y-44625181D01*
X203675526Y-44564615D01*
X203545371Y-44464743D01*
X203545361Y-44464737D01*
X203476900Y-44425211D01*
X203317134Y-44332970D01*
X203317133Y-44332969D01*
X203073645Y-44232113D01*
X203073647Y-44232113D01*
X202819080Y-44163902D01*
X202819075Y-44163901D01*
X202819071Y-44163900D01*
X202819063Y-44163899D01*
X202819058Y-44163898D01*
X202557781Y-44129500D01*
X202557775Y-44129500D01*
X200794225Y-44129500D01*
X200794219Y-44129500D01*
X200532941Y-44163898D01*
X200532932Y-44163899D01*
X200532929Y-44163900D01*
X200532926Y-44163900D01*
X200532919Y-44163902D01*
X200278353Y-44232113D01*
X200034866Y-44332969D01*
X200034865Y-44332970D01*
X199806638Y-44464737D01*
X199806629Y-44464743D01*
X199597542Y-44625181D01*
X199411181Y-44811542D01*
X199250743Y-45020629D01*
X199250737Y-45020638D01*
X199118970Y-45248865D01*
X199118969Y-45248866D01*
X199018113Y-45492353D01*
X198949902Y-45746919D01*
X198949898Y-45746941D01*
X198915500Y-46008219D01*
X184658000Y-46008219D01*
X184658000Y-44572533D01*
X187333500Y-44572533D01*
X187333500Y-44773466D01*
X187364932Y-44971919D01*
X187364933Y-44971920D01*
X187427020Y-45163004D01*
X187427021Y-45163006D01*
X187518239Y-45342032D01*
X187636337Y-45504581D01*
X187778418Y-45646662D01*
X187789998Y-45655075D01*
X187916424Y-45746929D01*
X187940967Y-45764760D01*
X187940966Y-45764760D01*
X187940968Y-45764761D01*
X188119994Y-45855979D01*
X188197974Y-45881316D01*
X188311079Y-45918066D01*
X188311080Y-45918067D01*
X188311085Y-45918067D01*
X188311086Y-45918068D01*
X188509537Y-45949500D01*
X188509539Y-45949500D01*
X188710461Y-45949500D01*
X188710463Y-45949500D01*
X188908914Y-45918068D01*
X188908915Y-45918067D01*
X188908919Y-45918067D01*
X188908920Y-45918066D01*
X189100006Y-45855979D01*
X189279032Y-45764761D01*
X189441584Y-45646660D01*
X189583660Y-45504584D01*
X189701761Y-45342032D01*
X189721172Y-45303936D01*
X189771080Y-45251092D01*
X189836112Y-45233500D01*
X192383888Y-45233500D01*
X192453631Y-45253978D01*
X192498828Y-45303936D01*
X192518236Y-45342028D01*
X192518239Y-45342032D01*
X192636337Y-45504581D01*
X192778418Y-45646662D01*
X192789998Y-45655075D01*
X192916424Y-45746929D01*
X192940967Y-45764760D01*
X192940966Y-45764760D01*
X192940968Y-45764761D01*
X193119994Y-45855979D01*
X193197974Y-45881316D01*
X193311079Y-45918066D01*
X193311080Y-45918067D01*
X193311085Y-45918067D01*
X193311086Y-45918068D01*
X193509537Y-45949500D01*
X193509539Y-45949500D01*
X193710461Y-45949500D01*
X193710463Y-45949500D01*
X193908914Y-45918068D01*
X193908915Y-45918067D01*
X193908919Y-45918067D01*
X193908920Y-45918066D01*
X194022027Y-45881316D01*
X194047393Y-45873073D01*
X194100006Y-45855979D01*
X194279032Y-45764761D01*
X194441584Y-45646660D01*
X194583660Y-45504584D01*
X194701761Y-45342032D01*
X194792979Y-45163006D01*
X194855066Y-44971919D01*
X194855067Y-44971919D01*
X194876493Y-44836642D01*
X194886500Y-44773463D01*
X194886500Y-44572537D01*
X194855068Y-44374086D01*
X194855067Y-44374085D01*
X194855067Y-44374080D01*
X194855066Y-44374079D01*
X194826638Y-44286587D01*
X194792979Y-44182994D01*
X194701761Y-44003968D01*
X194645238Y-43926171D01*
X194583662Y-43841418D01*
X194441581Y-43699337D01*
X194279032Y-43581239D01*
X194279033Y-43581239D01*
X194100006Y-43490021D01*
X194100004Y-43490020D01*
X193908920Y-43427933D01*
X193908919Y-43427932D01*
X193710466Y-43396500D01*
X193710463Y-43396500D01*
X193509537Y-43396500D01*
X193509533Y-43396500D01*
X193311080Y-43427932D01*
X193311079Y-43427933D01*
X193119995Y-43490020D01*
X193119993Y-43490021D01*
X192940967Y-43581239D01*
X192778418Y-43699337D01*
X192636337Y-43841418D01*
X192518239Y-44003967D01*
X192518236Y-44003971D01*
X192498828Y-44042064D01*
X192448920Y-44094908D01*
X192383888Y-44112500D01*
X189836112Y-44112500D01*
X189766369Y-44092022D01*
X189721172Y-44042064D01*
X189701763Y-44003971D01*
X189701760Y-44003967D01*
X189583662Y-43841418D01*
X189441581Y-43699337D01*
X189279032Y-43581239D01*
X189279033Y-43581239D01*
X189100006Y-43490021D01*
X189100004Y-43490020D01*
X188908920Y-43427933D01*
X188908919Y-43427932D01*
X188710466Y-43396500D01*
X188710463Y-43396500D01*
X188509537Y-43396500D01*
X188509533Y-43396500D01*
X188311080Y-43427932D01*
X188311079Y-43427933D01*
X188119995Y-43490020D01*
X188119993Y-43490021D01*
X187940967Y-43581239D01*
X187778418Y-43699337D01*
X187636337Y-43841418D01*
X187518239Y-44003967D01*
X187427021Y-44182993D01*
X187427020Y-44182995D01*
X187364933Y-44374079D01*
X187364932Y-44374080D01*
X187333500Y-44572533D01*
X184658000Y-44572533D01*
X184658000Y-43021943D01*
X207176000Y-43021943D01*
X207176000Y-43258056D01*
X207212935Y-43491251D01*
X207285894Y-43715796D01*
X207285895Y-43715798D01*
X207393087Y-43926175D01*
X207453339Y-44009105D01*
X208193037Y-43269407D01*
X208210075Y-43332993D01*
X208275901Y-43447007D01*
X208368993Y-43540099D01*
X208483007Y-43605925D01*
X208546590Y-43622962D01*
X207806893Y-44362659D01*
X207889822Y-44422911D01*
X207889831Y-44422916D01*
X208100201Y-44530104D01*
X208100203Y-44530105D01*
X208324748Y-44603064D01*
X208557943Y-44639999D01*
X208557949Y-44640000D01*
X208794051Y-44640000D01*
X208794056Y-44639999D01*
X209027251Y-44603064D01*
X209251796Y-44530105D01*
X209251798Y-44530104D01*
X209462171Y-44422914D01*
X209545105Y-44362659D01*
X208805409Y-43622962D01*
X208868993Y-43605925D01*
X208983007Y-43540099D01*
X209076099Y-43447007D01*
X209141925Y-43332993D01*
X209158962Y-43269409D01*
X209898659Y-44009105D01*
X209958914Y-43926171D01*
X210066104Y-43715798D01*
X210066105Y-43715796D01*
X210139064Y-43491251D01*
X210175999Y-43258056D01*
X210176000Y-43258050D01*
X210176000Y-43021949D01*
X210175999Y-43021943D01*
X210139064Y-42788748D01*
X210066105Y-42564203D01*
X210066104Y-42564201D01*
X209958916Y-42353831D01*
X209958911Y-42353822D01*
X209898659Y-42270893D01*
X209158962Y-43010590D01*
X209141925Y-42947007D01*
X209076099Y-42832993D01*
X208983007Y-42739901D01*
X208868993Y-42674075D01*
X208805407Y-42657037D01*
X209545105Y-41917339D01*
X209545106Y-41917339D01*
X209462177Y-41857088D01*
X209457848Y-41854436D01*
X209458627Y-41853163D01*
X209410649Y-41807848D01*
X209393177Y-41737292D01*
X209416625Y-41668490D01*
X209446231Y-41638458D01*
X209497161Y-41601456D01*
X209637456Y-41461161D01*
X209754077Y-41300646D01*
X209844151Y-41123864D01*
X209905463Y-40935168D01*
X209936500Y-40739204D01*
X209936500Y-40540796D01*
X209905463Y-40344832D01*
X209844151Y-40156136D01*
X209754077Y-39979354D01*
X209653861Y-39841418D01*
X209637458Y-39818841D01*
X209497158Y-39678541D01*
X209336652Y-39561927D01*
X209336646Y-39561923D01*
X209224809Y-39504940D01*
X209171965Y-39455031D01*
X209154492Y-39384476D01*
X209177939Y-39315674D01*
X209224809Y-39275060D01*
X209336646Y-39218077D01*
X209497161Y-39101456D01*
X209637456Y-38961161D01*
X209754077Y-38800646D01*
X209844151Y-38623864D01*
X209905463Y-38435168D01*
X209936500Y-38239204D01*
X209936500Y-38040796D01*
X209905463Y-37844832D01*
X209844151Y-37656136D01*
X209754077Y-37479354D01*
X209745504Y-37467554D01*
X209637458Y-37318841D01*
X209497158Y-37178541D01*
X209336652Y-37061927D01*
X209336646Y-37061923D01*
X209159862Y-36971848D01*
X209159860Y-36971847D01*
X208971168Y-36910537D01*
X208775208Y-36879500D01*
X208775204Y-36879500D01*
X208576796Y-36879500D01*
X208576791Y-36879500D01*
X208380831Y-36910537D01*
X208192139Y-36971847D01*
X208192137Y-36971848D01*
X208015353Y-37061923D01*
X208015347Y-37061927D01*
X207854841Y-37178541D01*
X207714541Y-37318841D01*
X207597927Y-37479347D01*
X207597923Y-37479353D01*
X207507848Y-37656137D01*
X207507847Y-37656139D01*
X207446537Y-37844831D01*
X207415500Y-38040791D01*
X207415500Y-38239208D01*
X207446537Y-38435168D01*
X207507847Y-38623860D01*
X207507848Y-38623862D01*
X207597923Y-38800646D01*
X207597927Y-38800652D01*
X207714541Y-38961158D01*
X207854841Y-39101458D01*
X208015347Y-39218072D01*
X208015354Y-39218077D01*
X208101453Y-39261946D01*
X208127190Y-39275060D01*
X208180034Y-39324969D01*
X208197507Y-39395525D01*
X208174060Y-39464326D01*
X208127190Y-39504940D01*
X208015354Y-39561923D01*
X208015347Y-39561927D01*
X207854841Y-39678541D01*
X207714541Y-39818841D01*
X207597927Y-39979347D01*
X207597923Y-39979353D01*
X207507848Y-40156137D01*
X207507847Y-40156139D01*
X207446537Y-40344831D01*
X207415500Y-40540791D01*
X207415500Y-40739208D01*
X207446537Y-40935168D01*
X207507847Y-41123860D01*
X207507848Y-41123862D01*
X207597923Y-41300646D01*
X207597927Y-41300652D01*
X207714541Y-41461158D01*
X207854838Y-41601455D01*
X207905765Y-41638456D01*
X207950151Y-41696017D01*
X207956371Y-41768438D01*
X207922450Y-41832724D01*
X207893797Y-41853858D01*
X207894152Y-41854436D01*
X207889824Y-41857087D01*
X207806892Y-41917339D01*
X208546591Y-42657037D01*
X208483007Y-42674075D01*
X208368993Y-42739901D01*
X208275901Y-42832993D01*
X208210075Y-42947007D01*
X208193037Y-43010591D01*
X207453339Y-42270892D01*
X207393087Y-42353825D01*
X207285895Y-42564201D01*
X207285894Y-42564203D01*
X207212935Y-42788748D01*
X207176000Y-43021943D01*
X184658000Y-43021943D01*
X184658000Y-40572533D01*
X187333500Y-40572533D01*
X187333500Y-40773466D01*
X187364932Y-40971919D01*
X187364933Y-40971920D01*
X187427020Y-41163004D01*
X187427021Y-41163006D01*
X187518239Y-41342032D01*
X187636337Y-41504581D01*
X187778418Y-41646662D01*
X187940967Y-41764760D01*
X187940966Y-41764760D01*
X187940968Y-41764761D01*
X188119994Y-41855979D01*
X188161494Y-41869463D01*
X188311079Y-41918066D01*
X188311080Y-41918067D01*
X188311085Y-41918067D01*
X188311086Y-41918068D01*
X188509537Y-41949500D01*
X188509539Y-41949500D01*
X188710461Y-41949500D01*
X188710463Y-41949500D01*
X188908914Y-41918068D01*
X188908915Y-41918067D01*
X188908919Y-41918067D01*
X188908920Y-41918066D01*
X189100006Y-41855979D01*
X189279032Y-41764761D01*
X189441584Y-41646660D01*
X189583660Y-41504584D01*
X189701761Y-41342032D01*
X189721172Y-41303936D01*
X189771080Y-41251092D01*
X189836112Y-41233500D01*
X192383888Y-41233500D01*
X192453631Y-41253978D01*
X192498828Y-41303936D01*
X192518236Y-41342028D01*
X192518239Y-41342032D01*
X192636337Y-41504581D01*
X192778418Y-41646662D01*
X192940967Y-41764760D01*
X192940966Y-41764760D01*
X192940968Y-41764761D01*
X193119994Y-41855979D01*
X193161494Y-41869463D01*
X193311079Y-41918066D01*
X193311080Y-41918067D01*
X193311085Y-41918067D01*
X193311086Y-41918068D01*
X193509537Y-41949500D01*
X193509539Y-41949500D01*
X193710461Y-41949500D01*
X193710463Y-41949500D01*
X193908914Y-41918068D01*
X193908915Y-41918067D01*
X193908919Y-41918067D01*
X193908920Y-41918066D01*
X194100006Y-41855979D01*
X194279032Y-41764761D01*
X194441584Y-41646660D01*
X194583660Y-41504584D01*
X194701761Y-41342032D01*
X194792979Y-41163006D01*
X194855066Y-40971919D01*
X194855067Y-40971919D01*
X194860888Y-40935168D01*
X194886500Y-40773463D01*
X194886500Y-40572537D01*
X194855068Y-40374086D01*
X194855067Y-40374085D01*
X194855067Y-40374080D01*
X194855066Y-40374079D01*
X194792979Y-40182995D01*
X194792978Y-40182993D01*
X194779296Y-40156139D01*
X194701761Y-40003968D01*
X194662394Y-39949784D01*
X194583662Y-39841418D01*
X194441581Y-39699337D01*
X194279032Y-39581239D01*
X194279033Y-39581239D01*
X194100006Y-39490021D01*
X194100004Y-39490020D01*
X193908920Y-39427933D01*
X193908919Y-39427932D01*
X193710466Y-39396500D01*
X193710463Y-39396500D01*
X193509537Y-39396500D01*
X193509533Y-39396500D01*
X193311080Y-39427932D01*
X193311079Y-39427933D01*
X193119995Y-39490020D01*
X193119993Y-39490021D01*
X192940967Y-39581239D01*
X192778418Y-39699337D01*
X192636337Y-39841418D01*
X192518239Y-40003967D01*
X192518236Y-40003971D01*
X192498828Y-40042064D01*
X192448920Y-40094908D01*
X192383888Y-40112500D01*
X189836112Y-40112500D01*
X189766369Y-40092022D01*
X189721172Y-40042064D01*
X189701763Y-40003971D01*
X189701760Y-40003967D01*
X189583662Y-39841418D01*
X189441581Y-39699337D01*
X189279032Y-39581239D01*
X189279033Y-39581239D01*
X189100006Y-39490021D01*
X189100004Y-39490020D01*
X188908920Y-39427933D01*
X188908919Y-39427932D01*
X188710466Y-39396500D01*
X188710463Y-39396500D01*
X188509537Y-39396500D01*
X188509533Y-39396500D01*
X188311080Y-39427932D01*
X188311079Y-39427933D01*
X188119995Y-39490020D01*
X188119993Y-39490021D01*
X187940967Y-39581239D01*
X187778418Y-39699337D01*
X187636337Y-39841418D01*
X187518239Y-40003967D01*
X187427021Y-40182993D01*
X187427020Y-40182995D01*
X187364933Y-40374079D01*
X187364932Y-40374080D01*
X187333500Y-40572533D01*
X184658000Y-40572533D01*
X184658000Y-36553684D01*
X187094000Y-36553684D01*
X187094000Y-36792315D01*
X187131329Y-37028003D01*
X187131330Y-37028004D01*
X187205066Y-37254940D01*
X187205066Y-37254941D01*
X187313402Y-37467562D01*
X187375884Y-37553560D01*
X188210000Y-36719444D01*
X188210000Y-36725661D01*
X188237259Y-36827394D01*
X188289920Y-36918606D01*
X188364394Y-36993080D01*
X188455606Y-37045741D01*
X188557339Y-37073000D01*
X188563553Y-37073000D01*
X187729438Y-37907114D01*
X187815442Y-37969599D01*
X187815441Y-37969599D01*
X188028058Y-38077933D01*
X188254995Y-38151669D01*
X188254996Y-38151670D01*
X188490684Y-38188999D01*
X188490690Y-38189000D01*
X188729310Y-38189000D01*
X188729315Y-38188999D01*
X188965003Y-38151670D01*
X188965004Y-38151669D01*
X189191940Y-38077933D01*
X189191941Y-38077933D01*
X189404554Y-37969601D01*
X189490560Y-37907114D01*
X188656447Y-37073000D01*
X188662661Y-37073000D01*
X188764394Y-37045741D01*
X188855606Y-36993080D01*
X188930080Y-36918606D01*
X188982741Y-36827394D01*
X189010000Y-36725661D01*
X189010000Y-36719446D01*
X189844114Y-37553560D01*
X189906601Y-37467554D01*
X190014933Y-37254941D01*
X190014933Y-37254940D01*
X190088669Y-37028004D01*
X190088670Y-37028003D01*
X190125999Y-36792315D01*
X190126000Y-36792309D01*
X190126000Y-36553690D01*
X190125999Y-36553684D01*
X192094000Y-36553684D01*
X192094000Y-36792315D01*
X192131329Y-37028003D01*
X192131330Y-37028004D01*
X192205066Y-37254940D01*
X192205066Y-37254941D01*
X192313402Y-37467562D01*
X192375884Y-37553560D01*
X193229000Y-36700444D01*
X193229000Y-36723160D01*
X193254964Y-36820061D01*
X193305124Y-36906940D01*
X193376060Y-36977876D01*
X193462939Y-37028036D01*
X193559840Y-37054000D01*
X193582553Y-37054000D01*
X192729438Y-37907114D01*
X192815442Y-37969599D01*
X192815441Y-37969599D01*
X193028058Y-38077933D01*
X193254995Y-38151669D01*
X193254996Y-38151670D01*
X193490684Y-38188999D01*
X193490690Y-38189000D01*
X193729310Y-38189000D01*
X193729315Y-38188999D01*
X193965003Y-38151670D01*
X193965004Y-38151669D01*
X194191940Y-38077933D01*
X194191941Y-38077933D01*
X194404557Y-37969599D01*
X194457178Y-37931368D01*
X194457182Y-37931365D01*
X194490560Y-37907114D01*
X193637447Y-37054000D01*
X193660160Y-37054000D01*
X193757061Y-37028036D01*
X193843940Y-36977876D01*
X193914876Y-36906940D01*
X193965036Y-36820061D01*
X193991000Y-36723160D01*
X193991000Y-36700446D01*
X194844114Y-37553560D01*
X194906601Y-37467554D01*
X195014933Y-37254941D01*
X195014933Y-37254940D01*
X195088669Y-37028004D01*
X195088670Y-37028003D01*
X195125999Y-36792315D01*
X195126000Y-36792309D01*
X195126000Y-36553690D01*
X195125999Y-36553684D01*
X195088670Y-36317996D01*
X195088669Y-36317995D01*
X195014933Y-36091059D01*
X195014933Y-36091058D01*
X194906599Y-35878442D01*
X194844114Y-35792438D01*
X193991000Y-36645552D01*
X193991000Y-36622840D01*
X193965036Y-36525939D01*
X193914876Y-36439060D01*
X193843940Y-36368124D01*
X193757061Y-36317964D01*
X193660160Y-36292000D01*
X193637445Y-36292000D01*
X194490560Y-35438884D01*
X194490561Y-35438884D01*
X194404562Y-35376402D01*
X194191941Y-35268066D01*
X193965004Y-35194330D01*
X193965003Y-35194329D01*
X193729315Y-35157000D01*
X193490684Y-35157000D01*
X193254996Y-35194329D01*
X193254995Y-35194330D01*
X193028059Y-35268066D01*
X193028058Y-35268066D01*
X192815445Y-35376398D01*
X192815438Y-35376402D01*
X192729437Y-35438884D01*
X193582555Y-36292000D01*
X193559840Y-36292000D01*
X193462939Y-36317964D01*
X193376060Y-36368124D01*
X193305124Y-36439060D01*
X193254964Y-36525939D01*
X193229000Y-36622840D01*
X193229000Y-36645554D01*
X192375884Y-35792437D01*
X192313402Y-35878438D01*
X192313398Y-35878445D01*
X192205066Y-36091058D01*
X192205066Y-36091059D01*
X192131330Y-36317995D01*
X192131329Y-36317996D01*
X192094000Y-36553684D01*
X190125999Y-36553684D01*
X190088670Y-36317996D01*
X190088669Y-36317995D01*
X190014933Y-36091059D01*
X190014933Y-36091058D01*
X189906599Y-35878442D01*
X189844114Y-35792438D01*
X189010000Y-36626552D01*
X189010000Y-36620339D01*
X188982741Y-36518606D01*
X188930080Y-36427394D01*
X188855606Y-36352920D01*
X188764394Y-36300259D01*
X188662661Y-36273000D01*
X188656445Y-36273000D01*
X189490560Y-35438884D01*
X189490561Y-35438884D01*
X189404562Y-35376402D01*
X189191941Y-35268066D01*
X188965004Y-35194330D01*
X188965003Y-35194329D01*
X188729315Y-35157000D01*
X188490684Y-35157000D01*
X188254996Y-35194329D01*
X188254995Y-35194330D01*
X188028059Y-35268066D01*
X188028058Y-35268066D01*
X187815445Y-35376398D01*
X187815438Y-35376402D01*
X187729437Y-35438884D01*
X188563555Y-36273000D01*
X188557339Y-36273000D01*
X188455606Y-36300259D01*
X188364394Y-36352920D01*
X188289920Y-36427394D01*
X188237259Y-36518606D01*
X188210000Y-36620339D01*
X188210000Y-36626554D01*
X187375884Y-35792437D01*
X187313402Y-35878438D01*
X187313398Y-35878445D01*
X187205066Y-36091058D01*
X187205066Y-36091059D01*
X187131330Y-36317995D01*
X187131329Y-36317996D01*
X187094000Y-36553684D01*
X184658000Y-36553684D01*
X184658000Y-35008219D01*
X198915500Y-35008219D01*
X198915500Y-35271780D01*
X198949898Y-35533058D01*
X198949902Y-35533080D01*
X199018113Y-35787646D01*
X199118969Y-36031133D01*
X199118970Y-36031134D01*
X199153568Y-36091059D01*
X199250743Y-36259371D01*
X199411183Y-36468459D01*
X199597541Y-36654817D01*
X199806629Y-36815257D01*
X199806638Y-36815262D01*
X200034865Y-36947029D01*
X200034866Y-36947030D01*
X200278354Y-37047886D01*
X200278352Y-37047886D01*
X200278358Y-37047887D01*
X200278359Y-37047888D01*
X200532929Y-37116100D01*
X200643542Y-37130662D01*
X200794219Y-37150500D01*
X200794225Y-37150500D01*
X202557780Y-37150500D01*
X202683343Y-37133968D01*
X202819071Y-37116100D01*
X203073641Y-37047888D01*
X203317129Y-36947032D01*
X203317131Y-36947030D01*
X203317133Y-36947030D01*
X203317134Y-36947029D01*
X203380340Y-36910537D01*
X203545371Y-36815257D01*
X203754459Y-36654817D01*
X203940817Y-36468459D01*
X204101257Y-36259371D01*
X204233032Y-36031129D01*
X204333888Y-35787641D01*
X204402100Y-35533071D01*
X204428666Y-35331284D01*
X204436500Y-35271780D01*
X204436500Y-35008219D01*
X204403582Y-34758187D01*
X204402100Y-34746929D01*
X204333888Y-34492359D01*
X204315855Y-34448824D01*
X204233030Y-34248866D01*
X204233029Y-34248865D01*
X204101262Y-34020638D01*
X204101257Y-34020629D01*
X203940817Y-33811541D01*
X203754459Y-33625183D01*
X203754457Y-33625181D01*
X203602999Y-33508963D01*
X203545371Y-33464743D01*
X203533108Y-33457663D01*
X203317134Y-33332970D01*
X203317133Y-33332969D01*
X203073645Y-33232113D01*
X203073647Y-33232113D01*
X202819080Y-33163902D01*
X202819075Y-33163901D01*
X202819071Y-33163900D01*
X202819063Y-33163899D01*
X202819058Y-33163898D01*
X202557781Y-33129500D01*
X202557775Y-33129500D01*
X200794225Y-33129500D01*
X200794219Y-33129500D01*
X200532941Y-33163898D01*
X200532932Y-33163899D01*
X200532929Y-33163900D01*
X200532926Y-33163900D01*
X200532919Y-33163902D01*
X200278353Y-33232113D01*
X200034866Y-33332969D01*
X200034865Y-33332970D01*
X199806638Y-33464737D01*
X199806629Y-33464743D01*
X199597542Y-33625181D01*
X199411181Y-33811542D01*
X199250743Y-34020629D01*
X199250737Y-34020638D01*
X199118970Y-34248865D01*
X199118969Y-34248866D01*
X199018113Y-34492353D01*
X198949902Y-34746919D01*
X198949898Y-34746941D01*
X198915500Y-35008219D01*
X184658000Y-35008219D01*
X184658000Y-32353174D01*
X204875000Y-32353174D01*
X204875000Y-33151000D01*
X205941988Y-33151000D01*
X205909075Y-33208007D01*
X205875000Y-33335174D01*
X205875000Y-33466826D01*
X205909075Y-33593993D01*
X205941988Y-33651000D01*
X204875000Y-33651000D01*
X204875000Y-34448825D01*
X204881402Y-34508377D01*
X204881404Y-34508383D01*
X204931646Y-34643086D01*
X204931648Y-34643090D01*
X205017810Y-34758187D01*
X205017812Y-34758189D01*
X205132909Y-34844351D01*
X205132913Y-34844353D01*
X205267616Y-34894595D01*
X205267622Y-34894597D01*
X205327174Y-34900999D01*
X205327175Y-34901000D01*
X206125000Y-34901000D01*
X206125000Y-33834012D01*
X206182007Y-33866925D01*
X206309174Y-33901000D01*
X206440826Y-33901000D01*
X206567993Y-33866925D01*
X206625000Y-33834012D01*
X206625000Y-34901000D01*
X207422825Y-34901000D01*
X207422825Y-34900999D01*
X207482377Y-34894597D01*
X207482383Y-34894595D01*
X207617086Y-34844353D01*
X207617090Y-34844351D01*
X207732187Y-34758189D01*
X207732189Y-34758187D01*
X207818351Y-34643090D01*
X207818353Y-34643086D01*
X207868595Y-34508383D01*
X207868597Y-34508377D01*
X207874999Y-34448825D01*
X207875000Y-34448824D01*
X207875000Y-33651000D01*
X206808012Y-33651000D01*
X206840925Y-33593993D01*
X206875000Y-33466826D01*
X206875000Y-33335174D01*
X206840925Y-33208007D01*
X206808012Y-33151000D01*
X207875000Y-33151000D01*
X207875000Y-32353175D01*
X207874999Y-32353174D01*
X207868597Y-32293622D01*
X207868595Y-32293616D01*
X207818353Y-32158913D01*
X207818351Y-32158909D01*
X207732189Y-32043812D01*
X207732187Y-32043810D01*
X207617090Y-31957648D01*
X207617086Y-31957646D01*
X207482383Y-31907404D01*
X207482377Y-31907402D01*
X207422825Y-31901000D01*
X206625000Y-31901000D01*
X206625000Y-32967988D01*
X206567993Y-32935075D01*
X206440826Y-32901000D01*
X206309174Y-32901000D01*
X206182007Y-32935075D01*
X206125000Y-32967988D01*
X206125000Y-31901000D01*
X205327174Y-31901000D01*
X205267622Y-31907402D01*
X205267616Y-31907404D01*
X205132913Y-31957646D01*
X205132909Y-31957648D01*
X205017812Y-32043810D01*
X205017810Y-32043812D01*
X204931648Y-32158909D01*
X204931646Y-32158913D01*
X204881404Y-32293616D01*
X204881402Y-32293622D01*
X204875000Y-32353174D01*
X184658000Y-32353174D01*
X184658000Y-31625000D01*
X184678478Y-31555257D01*
X184733411Y-31507657D01*
X184787000Y-31496000D01*
X211453000Y-31496000D01*
X211522743Y-31516478D01*
G37*
%TD.AperFunction*%
%TD*%
M02*
