%TF.GenerationSoftware,KiCad,Pcbnew,9.0.6*%
%TF.CreationDate,2026-01-11T11:57:04+09:00*%
%TF.ProjectId,Hi-Lo_converter,48692d4c-6f5f-4636-9f6e-766572746572,rev?*%
%TF.SameCoordinates,Original*%
%TF.FileFunction,Plated,1,2,PTH,Mixed*%
%TF.FilePolarity,Positive*%
%FSLAX46Y46*%
G04 Gerber Fmt 4.6, Leading zero omitted, Abs format (unit mm)*
G04 Created by KiCad (PCBNEW 9.0.6) date 2026-01-11 11:57:04*
%MOMM*%
%LPD*%
G01*
G04 APERTURE LIST*
%TA.AperFunction,ViaDrill*%
%ADD10C,0.400000*%
%TD*%
G04 aperture for slot hole*
%TA.AperFunction,ComponentDrill*%
%ADD11C,0.600000*%
%TD*%
%TA.AperFunction,ComponentDrill*%
%ADD12C,0.762000*%
%TD*%
%TA.AperFunction,ComponentDrill*%
%ADD13C,0.800000*%
%TD*%
%TA.AperFunction,ComponentDrill*%
%ADD14C,1.000000*%
%TD*%
%TA.AperFunction,ComponentDrill*%
%ADD15C,1.200000*%
%TD*%
G04 aperture for slot hole*
%TA.AperFunction,ComponentDrill*%
%ADD16C,1.500000*%
%TD*%
G04 APERTURE END LIST*
D10*
X185420000Y-33020000D03*
X185420000Y-38100000D03*
X185420000Y-43180000D03*
X185420000Y-48260000D03*
X185420000Y-53340000D03*
X190500000Y-33020000D03*
X190500000Y-53340000D03*
X195580000Y-33020000D03*
X195580000Y-53340000D03*
X200660000Y-53340000D03*
X205740000Y-53340000D03*
X210820000Y-33020000D03*
X210820000Y-38100000D03*
X210820000Y-43180000D03*
X215900000Y-43180000D03*
X215900000Y-48260000D03*
D11*
%TO.C,TR1*%
X182560000Y-30673000D02*
X180660000Y-30673000D01*
X182560000Y-50673000D02*
X180660000Y-50673000D01*
D12*
X169610000Y-36673000D03*
X169610000Y-44673000D03*
X193610000Y-36673000D03*
X193610000Y-40673000D03*
X193610000Y-44673000D03*
D13*
X174610000Y-36673000D03*
X174610000Y-44673000D03*
X188610000Y-36673000D03*
X188610000Y-40673000D03*
X188610000Y-44673000D03*
%TO.C,C1*%
X194897380Y-51562000D03*
X197397380Y-51562000D03*
D14*
%TO.C,REF\u002A\u002A*%
X206375000Y-33401000D03*
%TO.C,RV1*%
X208676000Y-38140000D03*
X208676000Y-40640000D03*
X208676000Y-43140000D03*
%TO.C,REF\u002A\u002A*%
X209296000Y-53086000D03*
%TO.C,J1*%
X214139000Y-32405000D03*
X214139000Y-34905000D03*
%TO.C,J2*%
X214139000Y-46121000D03*
X214139000Y-48621000D03*
D15*
%TO.C,R1*%
X169000000Y-30480000D03*
%TO.C,R2*%
X169000000Y-50800000D03*
%TO.C,R1*%
X176620000Y-30480000D03*
%TO.C,R2*%
X176620000Y-50800000D03*
D16*
%TO.C,RV1*%
X202426000Y-35140000D02*
X200926000Y-35140000D01*
X202426000Y-46140000D02*
X200926000Y-46140000D01*
M02*
