%TF.GenerationSoftware,KiCad,Pcbnew,9.0.6*%
%TF.CreationDate,2026-01-11T11:57:00+09:00*%
%TF.ProjectId,Hi-Lo_converter,48692d4c-6f5f-4636-9f6e-766572746572,rev?*%
%TF.SameCoordinates,Original*%
%TF.FileFunction,Legend,Top*%
%TF.FilePolarity,Positive*%
%FSLAX46Y46*%
G04 Gerber Fmt 4.6, Leading zero omitted, Abs format (unit mm)*
G04 Created by KiCad (PCBNEW 9.0.6) date 2026-01-11 11:57:00*
%MOMM*%
%LPD*%
G01*
G04 APERTURE LIST*
%ADD10C,0.710000*%
%ADD11C,0.150000*%
%ADD12C,0.300000*%
%ADD13C,0.120000*%
%ADD14C,0.560000*%
G04 APERTURE END LIST*
D10*
X177520000Y-46355000D02*
G75*
G02*
X176810000Y-46355000I-355000J0D01*
G01*
X176810000Y-46355000D02*
G75*
G02*
X177520000Y-46355000I355000J0D01*
G01*
D11*
X224500000Y-51500000D02*
X224500000Y-36514000D01*
X211728207Y-52429580D02*
X211680588Y-52477200D01*
X211680588Y-52477200D02*
X211537731Y-52524819D01*
X211537731Y-52524819D02*
X211442493Y-52524819D01*
X211442493Y-52524819D02*
X211299636Y-52477200D01*
X211299636Y-52477200D02*
X211204398Y-52381961D01*
X211204398Y-52381961D02*
X211156779Y-52286723D01*
X211156779Y-52286723D02*
X211109160Y-52096247D01*
X211109160Y-52096247D02*
X211109160Y-51953390D01*
X211109160Y-51953390D02*
X211156779Y-51762914D01*
X211156779Y-51762914D02*
X211204398Y-51667676D01*
X211204398Y-51667676D02*
X211299636Y-51572438D01*
X211299636Y-51572438D02*
X211442493Y-51524819D01*
X211442493Y-51524819D02*
X211537731Y-51524819D01*
X211537731Y-51524819D02*
X211680588Y-51572438D01*
X211680588Y-51572438D02*
X211728207Y-51620057D01*
X212347255Y-51524819D02*
X212537731Y-51524819D01*
X212537731Y-51524819D02*
X212632969Y-51572438D01*
X212632969Y-51572438D02*
X212728207Y-51667676D01*
X212728207Y-51667676D02*
X212775826Y-51858152D01*
X212775826Y-51858152D02*
X212775826Y-52191485D01*
X212775826Y-52191485D02*
X212728207Y-52381961D01*
X212728207Y-52381961D02*
X212632969Y-52477200D01*
X212632969Y-52477200D02*
X212537731Y-52524819D01*
X212537731Y-52524819D02*
X212347255Y-52524819D01*
X212347255Y-52524819D02*
X212252017Y-52477200D01*
X212252017Y-52477200D02*
X212156779Y-52381961D01*
X212156779Y-52381961D02*
X212109160Y-52191485D01*
X212109160Y-52191485D02*
X212109160Y-51858152D01*
X212109160Y-51858152D02*
X212156779Y-51667676D01*
X212156779Y-51667676D02*
X212252017Y-51572438D01*
X212252017Y-51572438D02*
X212347255Y-51524819D01*
X213204398Y-52524819D02*
X213204398Y-51524819D01*
X213204398Y-51524819D02*
X213537731Y-52239104D01*
X213537731Y-52239104D02*
X213871064Y-51524819D01*
X213871064Y-51524819D02*
X213871064Y-52524819D01*
X215109160Y-52524819D02*
X215109160Y-51524819D01*
X215109160Y-51524819D02*
X215490112Y-51524819D01*
X215490112Y-51524819D02*
X215585350Y-51572438D01*
X215585350Y-51572438D02*
X215632969Y-51620057D01*
X215632969Y-51620057D02*
X215680588Y-51715295D01*
X215680588Y-51715295D02*
X215680588Y-51858152D01*
X215680588Y-51858152D02*
X215632969Y-51953390D01*
X215632969Y-51953390D02*
X215585350Y-52001009D01*
X215585350Y-52001009D02*
X215490112Y-52048628D01*
X215490112Y-52048628D02*
X215109160Y-52048628D01*
X216061541Y-52239104D02*
X216537731Y-52239104D01*
X215966303Y-52524819D02*
X216299636Y-51524819D01*
X216299636Y-51524819D02*
X216632969Y-52524819D01*
X216966303Y-52524819D02*
X216966303Y-51524819D01*
X216966303Y-51524819D02*
X217204398Y-51524819D01*
X217204398Y-51524819D02*
X217347255Y-51572438D01*
X217347255Y-51572438D02*
X217442493Y-51667676D01*
X217442493Y-51667676D02*
X217490112Y-51762914D01*
X217490112Y-51762914D02*
X217537731Y-51953390D01*
X217537731Y-51953390D02*
X217537731Y-52096247D01*
X217537731Y-52096247D02*
X217490112Y-52286723D01*
X217490112Y-52286723D02*
X217442493Y-52381961D01*
X217442493Y-52381961D02*
X217347255Y-52477200D01*
X217347255Y-52477200D02*
X217204398Y-52524819D01*
X217204398Y-52524819D02*
X216966303Y-52524819D01*
D12*
G36*
X224391231Y-35222222D02*
G01*
X221403730Y-35222222D01*
X221403730Y-35000000D01*
X224048841Y-35000000D01*
X224169009Y-35000000D01*
X224169009Y-32201953D01*
X224048841Y-32201953D01*
X224048841Y-35000000D01*
X221403730Y-35000000D01*
X221403730Y-31369330D01*
X222266845Y-31369330D01*
X222279537Y-31516312D01*
X222315870Y-31643659D01*
X222374697Y-31754992D01*
X222456866Y-31852930D01*
X222547109Y-31926672D01*
X222651688Y-31985294D01*
X222772760Y-32028848D01*
X222913109Y-32056414D01*
X223076022Y-32066154D01*
X223251730Y-32054816D01*
X223401032Y-32022880D01*
X223528085Y-31972571D01*
X223636315Y-31904832D01*
X223721967Y-31825057D01*
X223788182Y-31733626D01*
X223836316Y-31628951D01*
X223866352Y-31508573D01*
X223876894Y-31369330D01*
X223863893Y-31218744D01*
X223826986Y-31090831D01*
X223767718Y-30981350D01*
X223698827Y-30899871D01*
X223614260Y-30832647D01*
X223511866Y-30779037D01*
X223388531Y-30739549D01*
X223298527Y-31067445D01*
X223425924Y-31099521D01*
X223514188Y-31145452D01*
X223572894Y-31203075D01*
X223607829Y-31273550D01*
X223620073Y-31361147D01*
X223606422Y-31461113D01*
X223567655Y-31540954D01*
X223502870Y-31605695D01*
X223405897Y-31656811D01*
X223266316Y-31691956D01*
X223070526Y-31705408D01*
X222875923Y-31691984D01*
X222737113Y-31656904D01*
X222640601Y-31605848D01*
X222576062Y-31541129D01*
X222537408Y-31461241D01*
X222523789Y-31361147D01*
X222535363Y-31281972D01*
X222568685Y-31217447D01*
X222625389Y-31163835D01*
X222711685Y-31120357D01*
X222837397Y-31089305D01*
X222759239Y-30747732D01*
X222618519Y-30791912D01*
X222504291Y-30855774D01*
X222412170Y-30938974D01*
X222350089Y-31025279D01*
X222304932Y-31124115D01*
X222276742Y-31237804D01*
X222266845Y-31369330D01*
X221403730Y-31369330D01*
X221403730Y-30077041D01*
X221625952Y-30077041D01*
X221625952Y-30429605D01*
X223837815Y-30429605D01*
X223837815Y-30077041D01*
X222833244Y-30077041D01*
X222729840Y-30003242D01*
X222650917Y-29921336D01*
X222603257Y-29848956D01*
X222577025Y-29782189D01*
X222568729Y-29719103D01*
X222579282Y-29641757D01*
X222608262Y-29585121D01*
X222655495Y-29543812D01*
X222725757Y-29516445D01*
X222827749Y-29506001D01*
X223837815Y-29506001D01*
X223837815Y-29145376D01*
X222726999Y-29145376D01*
X222596912Y-29158493D01*
X222490374Y-29195389D01*
X222402400Y-29254675D01*
X222343942Y-29319134D01*
X222302022Y-29393978D01*
X222275998Y-29481263D01*
X222266845Y-29583914D01*
X222277804Y-29692544D01*
X222310395Y-29794421D01*
X222365568Y-29891617D01*
X222446024Y-29985582D01*
X222556029Y-30077041D01*
X221625952Y-30077041D01*
X221403730Y-30077041D01*
X221403730Y-28923154D01*
X224391231Y-28923154D01*
X224391231Y-35222222D01*
G37*
D11*
X203473207Y-31601580D02*
X203425588Y-31649200D01*
X203425588Y-31649200D02*
X203282731Y-31696819D01*
X203282731Y-31696819D02*
X203187493Y-31696819D01*
X203187493Y-31696819D02*
X203044636Y-31649200D01*
X203044636Y-31649200D02*
X202949398Y-31553961D01*
X202949398Y-31553961D02*
X202901779Y-31458723D01*
X202901779Y-31458723D02*
X202854160Y-31268247D01*
X202854160Y-31268247D02*
X202854160Y-31125390D01*
X202854160Y-31125390D02*
X202901779Y-30934914D01*
X202901779Y-30934914D02*
X202949398Y-30839676D01*
X202949398Y-30839676D02*
X203044636Y-30744438D01*
X203044636Y-30744438D02*
X203187493Y-30696819D01*
X203187493Y-30696819D02*
X203282731Y-30696819D01*
X203282731Y-30696819D02*
X203425588Y-30744438D01*
X203425588Y-30744438D02*
X203473207Y-30792057D01*
X204092255Y-30696819D02*
X204282731Y-30696819D01*
X204282731Y-30696819D02*
X204377969Y-30744438D01*
X204377969Y-30744438D02*
X204473207Y-30839676D01*
X204473207Y-30839676D02*
X204520826Y-31030152D01*
X204520826Y-31030152D02*
X204520826Y-31363485D01*
X204520826Y-31363485D02*
X204473207Y-31553961D01*
X204473207Y-31553961D02*
X204377969Y-31649200D01*
X204377969Y-31649200D02*
X204282731Y-31696819D01*
X204282731Y-31696819D02*
X204092255Y-31696819D01*
X204092255Y-31696819D02*
X203997017Y-31649200D01*
X203997017Y-31649200D02*
X203901779Y-31553961D01*
X203901779Y-31553961D02*
X203854160Y-31363485D01*
X203854160Y-31363485D02*
X203854160Y-31030152D01*
X203854160Y-31030152D02*
X203901779Y-30839676D01*
X203901779Y-30839676D02*
X203997017Y-30744438D01*
X203997017Y-30744438D02*
X204092255Y-30696819D01*
X204949398Y-31696819D02*
X204949398Y-30696819D01*
X204949398Y-30696819D02*
X205282731Y-31411104D01*
X205282731Y-31411104D02*
X205616064Y-30696819D01*
X205616064Y-30696819D02*
X205616064Y-31696819D01*
X206854160Y-31696819D02*
X206854160Y-30696819D01*
X206854160Y-30696819D02*
X207235112Y-30696819D01*
X207235112Y-30696819D02*
X207330350Y-30744438D01*
X207330350Y-30744438D02*
X207377969Y-30792057D01*
X207377969Y-30792057D02*
X207425588Y-30887295D01*
X207425588Y-30887295D02*
X207425588Y-31030152D01*
X207425588Y-31030152D02*
X207377969Y-31125390D01*
X207377969Y-31125390D02*
X207330350Y-31173009D01*
X207330350Y-31173009D02*
X207235112Y-31220628D01*
X207235112Y-31220628D02*
X206854160Y-31220628D01*
X207806541Y-31411104D02*
X208282731Y-31411104D01*
X207711303Y-31696819D02*
X208044636Y-30696819D01*
X208044636Y-30696819D02*
X208377969Y-31696819D01*
X208711303Y-31696819D02*
X208711303Y-30696819D01*
X208711303Y-30696819D02*
X208949398Y-30696819D01*
X208949398Y-30696819D02*
X209092255Y-30744438D01*
X209092255Y-30744438D02*
X209187493Y-30839676D01*
X209187493Y-30839676D02*
X209235112Y-30934914D01*
X209235112Y-30934914D02*
X209282731Y-31125390D01*
X209282731Y-31125390D02*
X209282731Y-31268247D01*
X209282731Y-31268247D02*
X209235112Y-31458723D01*
X209235112Y-31458723D02*
X209187493Y-31553961D01*
X209187493Y-31553961D02*
X209092255Y-31649200D01*
X209092255Y-31649200D02*
X208949398Y-31696819D01*
X208949398Y-31696819D02*
X208711303Y-31696819D01*
D12*
G36*
X219696330Y-38070930D02*
G01*
X219733335Y-38107935D01*
X219778042Y-38197348D01*
X219778042Y-38583368D01*
X219292328Y-38583368D01*
X219292328Y-38197349D01*
X219337035Y-38107934D01*
X219374039Y-38070930D01*
X219463452Y-38026225D01*
X219606918Y-38026225D01*
X219696330Y-38070930D01*
G37*
G36*
X220958995Y-40550034D02*
G01*
X218825661Y-40550034D01*
X218825661Y-39590510D01*
X218992328Y-39590510D01*
X218992328Y-39947653D01*
X218995210Y-39976917D01*
X218997273Y-39981897D01*
X218997655Y-39987272D01*
X219008164Y-40014735D01*
X219079593Y-40157592D01*
X219087521Y-40170187D01*
X219089036Y-40173844D01*
X219092415Y-40177961D01*
X219095258Y-40182478D01*
X219098252Y-40185075D01*
X219107690Y-40196575D01*
X219179118Y-40268004D01*
X219190623Y-40277446D01*
X219193218Y-40280438D01*
X219197728Y-40283277D01*
X219201849Y-40286659D01*
X219205508Y-40288174D01*
X219218103Y-40296103D01*
X219360961Y-40367531D01*
X219388424Y-40378041D01*
X219393799Y-40378422D01*
X219398778Y-40380485D01*
X219428042Y-40383367D01*
X219570900Y-40383367D01*
X219600164Y-40380485D01*
X219605142Y-40378422D01*
X219610518Y-40378041D01*
X219637982Y-40367531D01*
X219780839Y-40296103D01*
X219793434Y-40288174D01*
X219797093Y-40286659D01*
X219801210Y-40283279D01*
X219805725Y-40280438D01*
X219808321Y-40277443D01*
X219819824Y-40268004D01*
X219891252Y-40196575D01*
X219900690Y-40185074D01*
X219903684Y-40182478D01*
X219906524Y-40177965D01*
X219909906Y-40173845D01*
X219911421Y-40170185D01*
X219919349Y-40157592D01*
X219990778Y-40014736D01*
X219991597Y-40012593D01*
X219992242Y-40011724D01*
X219996626Y-39999452D01*
X220001287Y-39987272D01*
X220001363Y-39986191D01*
X220002135Y-39984033D01*
X220069568Y-39714295D01*
X220122749Y-39607935D01*
X220159754Y-39570930D01*
X220249167Y-39526224D01*
X220321204Y-39526224D01*
X220410617Y-39570931D01*
X220447621Y-39607935D01*
X220492328Y-39697348D01*
X220492328Y-39994739D01*
X220428597Y-40185933D01*
X220422077Y-40214607D01*
X220426227Y-40272987D01*
X220452401Y-40325334D01*
X220496615Y-40363681D01*
X220552140Y-40382190D01*
X220610520Y-40378040D01*
X220662867Y-40351866D01*
X220701214Y-40307652D01*
X220713203Y-40280801D01*
X220784631Y-40066516D01*
X220787929Y-40052006D01*
X220789446Y-40048346D01*
X220789968Y-40043037D01*
X220791150Y-40037842D01*
X220790869Y-40033893D01*
X220792328Y-40019082D01*
X220792328Y-39661939D01*
X220789446Y-39632675D01*
X220787383Y-39627696D01*
X220787002Y-39622321D01*
X220776492Y-39594858D01*
X220705064Y-39452000D01*
X220697137Y-39439408D01*
X220695621Y-39435747D01*
X220692237Y-39431624D01*
X220689399Y-39427115D01*
X220686407Y-39424520D01*
X220676966Y-39413016D01*
X220605537Y-39341587D01*
X220594035Y-39332147D01*
X220591439Y-39329154D01*
X220586925Y-39326313D01*
X220582806Y-39322932D01*
X220579146Y-39321416D01*
X220566553Y-39313489D01*
X220423696Y-39242060D01*
X220396233Y-39231551D01*
X220390858Y-39231169D01*
X220385878Y-39229106D01*
X220356614Y-39226224D01*
X220213757Y-39226224D01*
X220184493Y-39229106D01*
X220179512Y-39231169D01*
X220174138Y-39231551D01*
X220146674Y-39242060D01*
X220003818Y-39313489D01*
X219991224Y-39321416D01*
X219987565Y-39322932D01*
X219983445Y-39326313D01*
X219978932Y-39329154D01*
X219976335Y-39332148D01*
X219964834Y-39341587D01*
X219893405Y-39413016D01*
X219883965Y-39424517D01*
X219880972Y-39427114D01*
X219878131Y-39431627D01*
X219874750Y-39435747D01*
X219873234Y-39439406D01*
X219865307Y-39452000D01*
X219793878Y-39594857D01*
X219793058Y-39596997D01*
X219792414Y-39597868D01*
X219788027Y-39610145D01*
X219783369Y-39622320D01*
X219783292Y-39623400D01*
X219782521Y-39625559D01*
X219715086Y-39895296D01*
X219661906Y-40001656D01*
X219624901Y-40038661D01*
X219535490Y-40083367D01*
X219463452Y-40083367D01*
X219374039Y-40038661D01*
X219337035Y-40001657D01*
X219292328Y-39912242D01*
X219292328Y-39614850D01*
X219356059Y-39423659D01*
X219362579Y-39394985D01*
X219358430Y-39336605D01*
X219332256Y-39284258D01*
X219288042Y-39245910D01*
X219232518Y-39227402D01*
X219174138Y-39231551D01*
X219121790Y-39257725D01*
X219083443Y-39301939D01*
X219071454Y-39328790D01*
X219000026Y-39543076D01*
X218996727Y-39557583D01*
X218995210Y-39561246D01*
X218994687Y-39566554D01*
X218993506Y-39571749D01*
X218993786Y-39575698D01*
X218992328Y-39590510D01*
X218825661Y-39590510D01*
X218825661Y-38161939D01*
X218992328Y-38161939D01*
X218992328Y-38733368D01*
X218995210Y-38762632D01*
X219017608Y-38816704D01*
X219058992Y-38858088D01*
X219113064Y-38880486D01*
X219142328Y-38883368D01*
X220642328Y-38883368D01*
X220671592Y-38880486D01*
X220725664Y-38858088D01*
X220767048Y-38816704D01*
X220789446Y-38762632D01*
X220789446Y-38704104D01*
X220767048Y-38650032D01*
X220725664Y-38608648D01*
X220671592Y-38586250D01*
X220642328Y-38583368D01*
X220078042Y-38583368D01*
X220078042Y-38161939D01*
X220075160Y-38132675D01*
X220073097Y-38127696D01*
X220072716Y-38122321D01*
X220062206Y-38094858D01*
X219990778Y-37952000D01*
X219982851Y-37939408D01*
X219981335Y-37935747D01*
X219977951Y-37931624D01*
X219975113Y-37927115D01*
X219972121Y-37924520D01*
X219962680Y-37913016D01*
X219891251Y-37841587D01*
X219879749Y-37832147D01*
X219877153Y-37829154D01*
X219872639Y-37826313D01*
X219868520Y-37822932D01*
X219864860Y-37821416D01*
X219852267Y-37813489D01*
X219709410Y-37742061D01*
X219681946Y-37731551D01*
X219676570Y-37731169D01*
X219671592Y-37729107D01*
X219642328Y-37726225D01*
X219428042Y-37726225D01*
X219398778Y-37729107D01*
X219393799Y-37731169D01*
X219388424Y-37731551D01*
X219360961Y-37742061D01*
X219218103Y-37813489D01*
X219205508Y-37821417D01*
X219201849Y-37822933D01*
X219197728Y-37826314D01*
X219193218Y-37829154D01*
X219190623Y-37832145D01*
X219179118Y-37841588D01*
X219107690Y-37913017D01*
X219098252Y-37924516D01*
X219095258Y-37927114D01*
X219092415Y-37931630D01*
X219089036Y-37935748D01*
X219087521Y-37939404D01*
X219079593Y-37952000D01*
X219008164Y-38094857D01*
X218997655Y-38122320D01*
X218997273Y-38127694D01*
X218995210Y-38132675D01*
X218992328Y-38161939D01*
X218825661Y-38161939D01*
X218825661Y-36346962D01*
X218995210Y-36346962D01*
X218995210Y-36405488D01*
X219017607Y-36459560D01*
X219036262Y-36482291D01*
X219637339Y-37083368D01*
X219142328Y-37083368D01*
X219113064Y-37086250D01*
X219058992Y-37108648D01*
X219017608Y-37150032D01*
X218995210Y-37204104D01*
X218995210Y-37262632D01*
X219017608Y-37316704D01*
X219058992Y-37358088D01*
X219113064Y-37380486D01*
X219142328Y-37383368D01*
X220642328Y-37383368D01*
X220671592Y-37380486D01*
X220725664Y-37358088D01*
X220767048Y-37316704D01*
X220789446Y-37262632D01*
X220789446Y-37204104D01*
X220767048Y-37150032D01*
X220725664Y-37108648D01*
X220671592Y-37086250D01*
X220642328Y-37083368D01*
X220061603Y-37083368D01*
X220013546Y-37035311D01*
X220732328Y-36496225D01*
X220754010Y-36476361D01*
X220783829Y-36425999D01*
X220792106Y-36368062D01*
X220777581Y-36311365D01*
X220742464Y-36264543D01*
X220692103Y-36234724D01*
X220634165Y-36226447D01*
X220577469Y-36240972D01*
X220552328Y-36256225D01*
X219799260Y-36821025D01*
X219248394Y-36270159D01*
X219225663Y-36251504D01*
X219171591Y-36229107D01*
X219113065Y-36229107D01*
X219058993Y-36251504D01*
X219017607Y-36292890D01*
X218995210Y-36346962D01*
X218825661Y-36346962D01*
X218825661Y-35132675D01*
X219352353Y-35132675D01*
X219352353Y-35191203D01*
X219374751Y-35245275D01*
X219416135Y-35286659D01*
X219470207Y-35309057D01*
X219499471Y-35311939D01*
X219920900Y-35311939D01*
X219920900Y-35733368D01*
X219923782Y-35762632D01*
X219946180Y-35816704D01*
X219987564Y-35858088D01*
X220041636Y-35880486D01*
X220100164Y-35880486D01*
X220154236Y-35858088D01*
X220195620Y-35816704D01*
X220218018Y-35762632D01*
X220220900Y-35733368D01*
X220220900Y-35311939D01*
X220642328Y-35311939D01*
X220671592Y-35309057D01*
X220725664Y-35286659D01*
X220767048Y-35245275D01*
X220789446Y-35191203D01*
X220789446Y-35132675D01*
X220767048Y-35078603D01*
X220725664Y-35037219D01*
X220671592Y-35014821D01*
X220642328Y-35011939D01*
X220220900Y-35011939D01*
X220220900Y-34590511D01*
X220218018Y-34561247D01*
X220195620Y-34507175D01*
X220154236Y-34465791D01*
X220100164Y-34443393D01*
X220041636Y-34443393D01*
X219987564Y-34465791D01*
X219946180Y-34507175D01*
X219923782Y-34561247D01*
X219920900Y-34590511D01*
X219920900Y-35011939D01*
X219499471Y-35011939D01*
X219470207Y-35014821D01*
X219416135Y-35037219D01*
X219374751Y-35078603D01*
X219352353Y-35132675D01*
X218825661Y-35132675D01*
X218825661Y-34276726D01*
X220958995Y-34276726D01*
X220958995Y-40550034D01*
G37*
G36*
X220958995Y-54626156D02*
G01*
X218825661Y-54626156D01*
X218825661Y-54280225D01*
X218995210Y-54280225D01*
X218995210Y-54338753D01*
X219017608Y-54392825D01*
X219058992Y-54434209D01*
X219113064Y-54456607D01*
X219142328Y-54459489D01*
X220642328Y-54459489D01*
X220671592Y-54456607D01*
X220725664Y-54434209D01*
X220767048Y-54392825D01*
X220789446Y-54338753D01*
X220792328Y-54309489D01*
X220792328Y-53595203D01*
X220789446Y-53565939D01*
X220767048Y-53511867D01*
X220725664Y-53470483D01*
X220671592Y-53448085D01*
X220613064Y-53448085D01*
X220558992Y-53470483D01*
X220517608Y-53511867D01*
X220495210Y-53565939D01*
X220492328Y-53595203D01*
X220492328Y-54159489D01*
X219142328Y-54159489D01*
X219113064Y-54162371D01*
X219058992Y-54184769D01*
X219017608Y-54226153D01*
X218995210Y-54280225D01*
X218825661Y-54280225D01*
X218825661Y-53065939D01*
X218995210Y-53065939D01*
X218995210Y-53124467D01*
X219017608Y-53178539D01*
X219058992Y-53219923D01*
X219113064Y-53242321D01*
X219142328Y-53245203D01*
X220642328Y-53245203D01*
X220671592Y-53242321D01*
X220725664Y-53219923D01*
X220767048Y-53178539D01*
X220789446Y-53124467D01*
X220789446Y-53065939D01*
X220767048Y-53011867D01*
X220725664Y-52970483D01*
X220671592Y-52948085D01*
X220642328Y-52945203D01*
X219142328Y-52945203D01*
X219113064Y-52948085D01*
X219058992Y-52970483D01*
X219017608Y-53011867D01*
X218995210Y-53065939D01*
X218825661Y-53065939D01*
X218825661Y-52370440D01*
X218992694Y-52370440D01*
X218995210Y-52390231D01*
X218995210Y-52410181D01*
X218998869Y-52419014D01*
X219000075Y-52428500D01*
X219009973Y-52445822D01*
X219017608Y-52464253D01*
X219024368Y-52471013D01*
X219029113Y-52479316D01*
X219044884Y-52491529D01*
X219058992Y-52505637D01*
X219067827Y-52509296D01*
X219075387Y-52515151D01*
X219094631Y-52520399D01*
X219113064Y-52528035D01*
X219128030Y-52529508D01*
X219131851Y-52530551D01*
X219134802Y-52530175D01*
X219142328Y-52530917D01*
X220642328Y-52530917D01*
X220671592Y-52528035D01*
X220725664Y-52505637D01*
X220767048Y-52464253D01*
X220789446Y-52410181D01*
X220789446Y-52351653D01*
X220767048Y-52297581D01*
X220725664Y-52256197D01*
X220671592Y-52233799D01*
X220642328Y-52230917D01*
X219707162Y-52230917D01*
X220716749Y-51654010D01*
X220722916Y-51649632D01*
X220725664Y-51648494D01*
X220728463Y-51645694D01*
X220740727Y-51636989D01*
X220752942Y-51621215D01*
X220767048Y-51607110D01*
X220770706Y-51598276D01*
X220776563Y-51590715D01*
X220781812Y-51571466D01*
X220789446Y-51553038D01*
X220789446Y-51543476D01*
X220791962Y-51534251D01*
X220789446Y-51514459D01*
X220789446Y-51494510D01*
X220785786Y-51485676D01*
X220784581Y-51476191D01*
X220774682Y-51458868D01*
X220767048Y-51440438D01*
X220760287Y-51433677D01*
X220755543Y-51425375D01*
X220739771Y-51413161D01*
X220725664Y-51399054D01*
X220716828Y-51395394D01*
X220709269Y-51389540D01*
X220690024Y-51384291D01*
X220671592Y-51376656D01*
X220656627Y-51375182D01*
X220652806Y-51374140D01*
X220649854Y-51374515D01*
X220642328Y-51373774D01*
X219142328Y-51373774D01*
X219113064Y-51376656D01*
X219058992Y-51399054D01*
X219017608Y-51440438D01*
X218995210Y-51494510D01*
X218995210Y-51553038D01*
X219017608Y-51607110D01*
X219058992Y-51648494D01*
X219113064Y-51670892D01*
X219142328Y-51673774D01*
X220077493Y-51673774D01*
X219067907Y-52250681D01*
X219061739Y-52255058D01*
X219058992Y-52256197D01*
X219056192Y-52258996D01*
X219043929Y-52267702D01*
X219031715Y-52283473D01*
X219017608Y-52297581D01*
X219013948Y-52306416D01*
X219008094Y-52313976D01*
X219002845Y-52333220D01*
X218995210Y-52351653D01*
X218995210Y-52361215D01*
X218992694Y-52370440D01*
X218825661Y-52370440D01*
X218825661Y-50095202D01*
X218992328Y-50095202D01*
X218992328Y-50809488D01*
X218995210Y-50838752D01*
X219017608Y-50892824D01*
X219058992Y-50934208D01*
X219113064Y-50956606D01*
X219142328Y-50959488D01*
X220642328Y-50959488D01*
X220671592Y-50956606D01*
X220725664Y-50934208D01*
X220767048Y-50892824D01*
X220789446Y-50838752D01*
X220792328Y-50809488D01*
X220792328Y-50095202D01*
X220789446Y-50065938D01*
X220767048Y-50011866D01*
X220725664Y-49970482D01*
X220671592Y-49948084D01*
X220613064Y-49948084D01*
X220558992Y-49970482D01*
X220517608Y-50011866D01*
X220495210Y-50065938D01*
X220492328Y-50095202D01*
X220492328Y-50659488D01*
X220006614Y-50659488D01*
X220006614Y-50309488D01*
X220003732Y-50280224D01*
X219981334Y-50226152D01*
X219939950Y-50184768D01*
X219885878Y-50162370D01*
X219827350Y-50162370D01*
X219773278Y-50184768D01*
X219731894Y-50226152D01*
X219709496Y-50280224D01*
X219706614Y-50309488D01*
X219706614Y-50659488D01*
X219292328Y-50659488D01*
X219292328Y-50095202D01*
X219289446Y-50065938D01*
X219267048Y-50011866D01*
X219225664Y-49970482D01*
X219171592Y-49948084D01*
X219113064Y-49948084D01*
X219058992Y-49970482D01*
X219017608Y-50011866D01*
X218995210Y-50065938D01*
X218992328Y-50095202D01*
X218825661Y-50095202D01*
X218825661Y-48851652D01*
X219352353Y-48851652D01*
X219352353Y-48910180D01*
X219374751Y-48964252D01*
X219416135Y-49005636D01*
X219470207Y-49028034D01*
X219499471Y-49030916D01*
X219920900Y-49030916D01*
X219920900Y-49452345D01*
X219923782Y-49481609D01*
X219946180Y-49535681D01*
X219987564Y-49577065D01*
X220041636Y-49599463D01*
X220100164Y-49599463D01*
X220154236Y-49577065D01*
X220195620Y-49535681D01*
X220218018Y-49481609D01*
X220220900Y-49452345D01*
X220220900Y-49030916D01*
X220642328Y-49030916D01*
X220671592Y-49028034D01*
X220725664Y-49005636D01*
X220767048Y-48964252D01*
X220789446Y-48910180D01*
X220789446Y-48851652D01*
X220767048Y-48797580D01*
X220725664Y-48756196D01*
X220671592Y-48733798D01*
X220642328Y-48730916D01*
X220220900Y-48730916D01*
X220220900Y-48309488D01*
X220218018Y-48280224D01*
X220195620Y-48226152D01*
X220154236Y-48184768D01*
X220100164Y-48162370D01*
X220041636Y-48162370D01*
X219987564Y-48184768D01*
X219946180Y-48226152D01*
X219923782Y-48280224D01*
X219920900Y-48309488D01*
X219920900Y-48730916D01*
X219499471Y-48730916D01*
X219470207Y-48733798D01*
X219416135Y-48756196D01*
X219374751Y-48797580D01*
X219352353Y-48851652D01*
X218825661Y-48851652D01*
X218825661Y-47995703D01*
X220958995Y-47995703D01*
X220958995Y-54626156D01*
G37*
D11*
G36*
X222929737Y-43578174D02*
G01*
X223469026Y-43690281D01*
X223415512Y-43764730D01*
X223386056Y-43834461D01*
X223376702Y-43901582D01*
X223384094Y-43957073D01*
X223404912Y-44000683D01*
X223438842Y-44033123D01*
X223486428Y-44051791D01*
X223538127Y-44052500D01*
X223574081Y-44032832D01*
X223596412Y-43995256D01*
X223605313Y-43929975D01*
X223600776Y-43870783D01*
X223586720Y-43808434D01*
X223564139Y-43749652D01*
X223536437Y-43704295D01*
X224069863Y-43815211D01*
X224103299Y-43904612D01*
X224123255Y-43996330D01*
X224129947Y-44091267D01*
X224123214Y-44182595D01*
X224104470Y-44257617D01*
X224075166Y-44319282D01*
X224035700Y-44369887D01*
X223968016Y-44425400D01*
X223889810Y-44464671D01*
X223798937Y-44488039D01*
X223703967Y-44496554D01*
X223604188Y-44493153D01*
X223498701Y-44477140D01*
X223378111Y-44445281D01*
X223267982Y-44402405D01*
X223167233Y-44348729D01*
X223074169Y-44283065D01*
X222997716Y-44211331D01*
X222936149Y-44133307D01*
X222888825Y-44046792D01*
X222861223Y-43959112D01*
X222852068Y-43868701D01*
X222856924Y-43796162D01*
X222872035Y-43718583D01*
X222896806Y-43643539D01*
X222929737Y-43578174D01*
G37*
G36*
X223366218Y-42630589D02*
G01*
X223492565Y-42649898D01*
X223614687Y-42681826D01*
X223724766Y-42723655D01*
X223824033Y-42775012D01*
X223915914Y-42837985D01*
X223990421Y-42906170D01*
X224049530Y-42979718D01*
X224094745Y-43061563D01*
X224121165Y-43144954D01*
X224129947Y-43231410D01*
X224120559Y-43315763D01*
X224093692Y-43386934D01*
X224049530Y-43447840D01*
X223991065Y-43496377D01*
X223916724Y-43533711D01*
X223823025Y-43559123D01*
X223725577Y-43569278D01*
X223616090Y-43565812D01*
X223492565Y-43546941D01*
X223370409Y-43515018D01*
X223260302Y-43473068D01*
X223161005Y-43421461D01*
X223069050Y-43358263D01*
X222994020Y-43289802D01*
X222934042Y-43215931D01*
X222887810Y-43133778D01*
X222866138Y-43066912D01*
X223338783Y-43066912D01*
X223347962Y-43105060D01*
X223377801Y-43141742D01*
X223421373Y-43169573D01*
X223480291Y-43188637D01*
X223539553Y-43193833D01*
X223581774Y-43184149D01*
X223611071Y-43160593D01*
X223620700Y-43125531D01*
X223611574Y-43087296D01*
X223581774Y-43049876D01*
X223538172Y-43021218D01*
X223480291Y-43002249D01*
X223420136Y-42997078D01*
X223377801Y-43007470D01*
X223348400Y-43031746D01*
X223338783Y-43066912D01*
X222866138Y-43066912D01*
X222860952Y-43050913D01*
X222852068Y-42965796D01*
X222861408Y-42881472D01*
X222888130Y-42810329D01*
X222932027Y-42749458D01*
X222990112Y-42700803D01*
X223064250Y-42663253D01*
X223157982Y-42637533D01*
X223255445Y-42627133D01*
X223366218Y-42630589D01*
G37*
G36*
X222875516Y-41855346D02*
G01*
X222875516Y-41440347D01*
X224106500Y-42050984D01*
X224106500Y-42363768D01*
X222875516Y-42462686D01*
X222875516Y-42047779D01*
X223231347Y-42025522D01*
X222875516Y-41855346D01*
G37*
G36*
X223398230Y-40643018D02*
G01*
X223538726Y-40665211D01*
X223578935Y-40673546D01*
X223578935Y-41102559D01*
X223639781Y-41096705D01*
X223687680Y-41081288D01*
X223725389Y-41057404D01*
X223754808Y-41024587D01*
X223772226Y-40986573D01*
X223778237Y-40941633D01*
X223769501Y-40874603D01*
X223742333Y-40806353D01*
X223699836Y-40743584D01*
X223641950Y-40686735D01*
X223858837Y-40731798D01*
X223962539Y-40817465D01*
X224038031Y-40904642D01*
X224089537Y-40993994D01*
X224119809Y-41086844D01*
X224129947Y-41185082D01*
X224120454Y-41276259D01*
X224093454Y-41352670D01*
X224049530Y-41417449D01*
X223990604Y-41469646D01*
X223915594Y-41509792D01*
X223821010Y-41537341D01*
X223722090Y-41548735D01*
X223609322Y-41545716D01*
X223480291Y-41526167D01*
X223361469Y-41495144D01*
X223253891Y-41454367D01*
X223156425Y-41404168D01*
X223065898Y-41342818D01*
X222992063Y-41276754D01*
X222933035Y-41205873D01*
X222887366Y-41126861D01*
X222860847Y-41046931D01*
X222852068Y-40964531D01*
X222854133Y-40946945D01*
X223162745Y-40946945D01*
X223174140Y-40983159D01*
X223215502Y-41024523D01*
X223273148Y-41056733D01*
X223348492Y-41079661D01*
X223362047Y-41082500D01*
X223362047Y-40885030D01*
X223274867Y-40876570D01*
X223216509Y-40884938D01*
X223185238Y-40900373D01*
X223168405Y-40920624D01*
X223162745Y-40946945D01*
X222854133Y-40946945D01*
X222861773Y-40881878D01*
X222889596Y-40812354D01*
X222935599Y-40752956D01*
X222995942Y-40706417D01*
X223074117Y-40670443D01*
X223174286Y-40646160D01*
X223277717Y-40637492D01*
X223398230Y-40643018D01*
G37*
G36*
X223462614Y-39857012D02*
G01*
X223455916Y-39901977D01*
X223436235Y-39940505D01*
X223402202Y-39974377D01*
X223350049Y-40004015D01*
X223411138Y-40048947D01*
X223503377Y-40090470D01*
X223636637Y-40126747D01*
X224106500Y-40224475D01*
X224106500Y-40645336D01*
X222875516Y-40389431D01*
X222875516Y-39968570D01*
X223137832Y-40023066D01*
X223137832Y-40019036D01*
X223016162Y-39948836D01*
X222934775Y-39880642D01*
X222893407Y-39828266D01*
X222870896Y-39779454D01*
X222863792Y-39732540D01*
X222873007Y-39681621D01*
X222899811Y-39641701D01*
X222947231Y-39610082D01*
X223004069Y-39592505D01*
X223073982Y-39587855D01*
X223160639Y-39598817D01*
X223248872Y-39623756D01*
X223321063Y-39657377D01*
X223379724Y-39699017D01*
X223427574Y-39751017D01*
X223454045Y-39803074D01*
X223462614Y-39857012D01*
G37*
G36*
X223221363Y-39015931D02*
G01*
X223487252Y-39071160D01*
X223546255Y-39077551D01*
X223584522Y-39070886D01*
X223610564Y-39051573D01*
X223619235Y-39020419D01*
X223611286Y-38984818D01*
X223584418Y-38945407D01*
X223530575Y-38899794D01*
X224019305Y-39001368D01*
X224060734Y-39062632D01*
X224091937Y-39128313D01*
X224111788Y-39196889D01*
X224118223Y-39263502D01*
X224111061Y-39328648D01*
X224090419Y-39384668D01*
X224056308Y-39433586D01*
X224011048Y-39473177D01*
X223953233Y-39504229D01*
X223880178Y-39526276D01*
X223803900Y-39535904D01*
X223717004Y-39534106D01*
X223617586Y-39519224D01*
X223221363Y-39436884D01*
X223221363Y-39609258D01*
X222517944Y-38869660D01*
X222875516Y-38944032D01*
X222875516Y-38767628D01*
X223221363Y-38839527D01*
X223221363Y-39015931D01*
G37*
G36*
X223398230Y-37887958D02*
G01*
X223538726Y-37910152D01*
X223578935Y-37918487D01*
X223578935Y-38347499D01*
X223639781Y-38341646D01*
X223687680Y-38326229D01*
X223725389Y-38302345D01*
X223754808Y-38269528D01*
X223772226Y-38231514D01*
X223778237Y-38186574D01*
X223769501Y-38119544D01*
X223742333Y-38051294D01*
X223699836Y-37988525D01*
X223641950Y-37931676D01*
X223858837Y-37976739D01*
X223962539Y-38062406D01*
X224038031Y-38149582D01*
X224089537Y-38238935D01*
X224119809Y-38331785D01*
X224129947Y-38430023D01*
X224120454Y-38521199D01*
X224093454Y-38597611D01*
X224049530Y-38662389D01*
X223990604Y-38714587D01*
X223915594Y-38754733D01*
X223821010Y-38782282D01*
X223722090Y-38793676D01*
X223609322Y-38790657D01*
X223480291Y-38771108D01*
X223361469Y-38740084D01*
X223253891Y-38699308D01*
X223156425Y-38649109D01*
X223065898Y-38587759D01*
X222992063Y-38521695D01*
X222933035Y-38450814D01*
X222887366Y-38371802D01*
X222860847Y-38291872D01*
X222852068Y-38209472D01*
X222854133Y-38191886D01*
X223162745Y-38191886D01*
X223174140Y-38228100D01*
X223215502Y-38269464D01*
X223273148Y-38301673D01*
X223348492Y-38324602D01*
X223362047Y-38327441D01*
X223362047Y-38129971D01*
X223274867Y-38121511D01*
X223216509Y-38129879D01*
X223185238Y-38145314D01*
X223168405Y-38165565D01*
X223162745Y-38191886D01*
X222854133Y-38191886D01*
X222861773Y-38126819D01*
X222889596Y-38057295D01*
X222935599Y-37997896D01*
X222995942Y-37951357D01*
X223074117Y-37915384D01*
X223174286Y-37891101D01*
X223277717Y-37882432D01*
X223398230Y-37887958D01*
G37*
G36*
X223462614Y-37087298D02*
G01*
X223455916Y-37132263D01*
X223436235Y-37170791D01*
X223402202Y-37204663D01*
X223350049Y-37234302D01*
X223411138Y-37279233D01*
X223503377Y-37320756D01*
X223636637Y-37357034D01*
X224106500Y-37454761D01*
X224106500Y-37875622D01*
X222875516Y-37619717D01*
X222875516Y-37198856D01*
X223137832Y-37253352D01*
X223137832Y-37249322D01*
X223016162Y-37179122D01*
X222934775Y-37110928D01*
X222893407Y-37058552D01*
X222870896Y-37009740D01*
X222863792Y-36962826D01*
X222873007Y-36911907D01*
X222899811Y-36871987D01*
X222947231Y-36840368D01*
X223004069Y-36822791D01*
X223073982Y-36818141D01*
X223160639Y-36829103D01*
X223248872Y-36854042D01*
X223321063Y-36887663D01*
X223379724Y-36929303D01*
X223427574Y-36981303D01*
X223454045Y-37033360D01*
X223462614Y-37087298D01*
G37*
D12*
G36*
X219696330Y-30450930D02*
G01*
X219733335Y-30487935D01*
X219778042Y-30577348D01*
X219778042Y-30963368D01*
X219292328Y-30963368D01*
X219292328Y-30577349D01*
X219337035Y-30487934D01*
X219374039Y-30450930D01*
X219463452Y-30406225D01*
X219606918Y-30406225D01*
X219696330Y-30450930D01*
G37*
G36*
X220958995Y-32930034D02*
G01*
X218825661Y-32930034D01*
X218825661Y-31970510D01*
X218992328Y-31970510D01*
X218992328Y-32327653D01*
X218995210Y-32356917D01*
X218997273Y-32361897D01*
X218997655Y-32367272D01*
X219008164Y-32394735D01*
X219079593Y-32537592D01*
X219087521Y-32550187D01*
X219089036Y-32553844D01*
X219092415Y-32557961D01*
X219095258Y-32562478D01*
X219098252Y-32565075D01*
X219107690Y-32576575D01*
X219179118Y-32648004D01*
X219190623Y-32657446D01*
X219193218Y-32660438D01*
X219197728Y-32663277D01*
X219201849Y-32666659D01*
X219205508Y-32668174D01*
X219218103Y-32676103D01*
X219360961Y-32747531D01*
X219388424Y-32758041D01*
X219393799Y-32758422D01*
X219398778Y-32760485D01*
X219428042Y-32763367D01*
X219570900Y-32763367D01*
X219600164Y-32760485D01*
X219605142Y-32758422D01*
X219610518Y-32758041D01*
X219637982Y-32747531D01*
X219780839Y-32676103D01*
X219793434Y-32668174D01*
X219797093Y-32666659D01*
X219801210Y-32663279D01*
X219805725Y-32660438D01*
X219808321Y-32657443D01*
X219819824Y-32648004D01*
X219891252Y-32576575D01*
X219900690Y-32565074D01*
X219903684Y-32562478D01*
X219906524Y-32557965D01*
X219909906Y-32553845D01*
X219911421Y-32550185D01*
X219919349Y-32537592D01*
X219990778Y-32394736D01*
X219991597Y-32392593D01*
X219992242Y-32391724D01*
X219996626Y-32379452D01*
X220001287Y-32367272D01*
X220001363Y-32366191D01*
X220002135Y-32364033D01*
X220069568Y-32094295D01*
X220122749Y-31987935D01*
X220159754Y-31950930D01*
X220249167Y-31906224D01*
X220321204Y-31906224D01*
X220410617Y-31950931D01*
X220447621Y-31987935D01*
X220492328Y-32077348D01*
X220492328Y-32374739D01*
X220428597Y-32565933D01*
X220422077Y-32594607D01*
X220426227Y-32652987D01*
X220452401Y-32705334D01*
X220496615Y-32743681D01*
X220552140Y-32762190D01*
X220610520Y-32758040D01*
X220662867Y-32731866D01*
X220701214Y-32687652D01*
X220713203Y-32660801D01*
X220784631Y-32446516D01*
X220787929Y-32432006D01*
X220789446Y-32428346D01*
X220789968Y-32423037D01*
X220791150Y-32417842D01*
X220790869Y-32413893D01*
X220792328Y-32399082D01*
X220792328Y-32041939D01*
X220789446Y-32012675D01*
X220787383Y-32007696D01*
X220787002Y-32002321D01*
X220776492Y-31974858D01*
X220705064Y-31832000D01*
X220697137Y-31819408D01*
X220695621Y-31815747D01*
X220692237Y-31811624D01*
X220689399Y-31807115D01*
X220686407Y-31804520D01*
X220676966Y-31793016D01*
X220605537Y-31721587D01*
X220594035Y-31712147D01*
X220591439Y-31709154D01*
X220586925Y-31706313D01*
X220582806Y-31702932D01*
X220579146Y-31701416D01*
X220566553Y-31693489D01*
X220423696Y-31622060D01*
X220396233Y-31611551D01*
X220390858Y-31611169D01*
X220385878Y-31609106D01*
X220356614Y-31606224D01*
X220213757Y-31606224D01*
X220184493Y-31609106D01*
X220179512Y-31611169D01*
X220174138Y-31611551D01*
X220146674Y-31622060D01*
X220003818Y-31693489D01*
X219991224Y-31701416D01*
X219987565Y-31702932D01*
X219983445Y-31706313D01*
X219978932Y-31709154D01*
X219976335Y-31712148D01*
X219964834Y-31721587D01*
X219893405Y-31793016D01*
X219883965Y-31804517D01*
X219880972Y-31807114D01*
X219878131Y-31811627D01*
X219874750Y-31815747D01*
X219873234Y-31819406D01*
X219865307Y-31832000D01*
X219793878Y-31974857D01*
X219793058Y-31976997D01*
X219792414Y-31977868D01*
X219788027Y-31990145D01*
X219783369Y-32002320D01*
X219783292Y-32003400D01*
X219782521Y-32005559D01*
X219715086Y-32275296D01*
X219661906Y-32381656D01*
X219624901Y-32418661D01*
X219535490Y-32463367D01*
X219463452Y-32463367D01*
X219374039Y-32418661D01*
X219337035Y-32381657D01*
X219292328Y-32292242D01*
X219292328Y-31994850D01*
X219356059Y-31803659D01*
X219362579Y-31774985D01*
X219358430Y-31716605D01*
X219332256Y-31664258D01*
X219288042Y-31625910D01*
X219232518Y-31607402D01*
X219174138Y-31611551D01*
X219121790Y-31637725D01*
X219083443Y-31681939D01*
X219071454Y-31708790D01*
X219000026Y-31923076D01*
X218996727Y-31937583D01*
X218995210Y-31941246D01*
X218994687Y-31946554D01*
X218993506Y-31951749D01*
X218993786Y-31955698D01*
X218992328Y-31970510D01*
X218825661Y-31970510D01*
X218825661Y-30541939D01*
X218992328Y-30541939D01*
X218992328Y-31113368D01*
X218995210Y-31142632D01*
X219017608Y-31196704D01*
X219058992Y-31238088D01*
X219113064Y-31260486D01*
X219142328Y-31263368D01*
X220642328Y-31263368D01*
X220671592Y-31260486D01*
X220725664Y-31238088D01*
X220767048Y-31196704D01*
X220789446Y-31142632D01*
X220789446Y-31084104D01*
X220767048Y-31030032D01*
X220725664Y-30988648D01*
X220671592Y-30966250D01*
X220642328Y-30963368D01*
X220078042Y-30963368D01*
X220078042Y-30541939D01*
X220075160Y-30512675D01*
X220073097Y-30507696D01*
X220072716Y-30502321D01*
X220062206Y-30474858D01*
X219990778Y-30332000D01*
X219982851Y-30319408D01*
X219981335Y-30315747D01*
X219977951Y-30311624D01*
X219975113Y-30307115D01*
X219972121Y-30304520D01*
X219962680Y-30293016D01*
X219891251Y-30221587D01*
X219879749Y-30212147D01*
X219877153Y-30209154D01*
X219872639Y-30206313D01*
X219868520Y-30202932D01*
X219864860Y-30201416D01*
X219852267Y-30193489D01*
X219709410Y-30122061D01*
X219681946Y-30111551D01*
X219676570Y-30111169D01*
X219671592Y-30109107D01*
X219642328Y-30106225D01*
X219428042Y-30106225D01*
X219398778Y-30109107D01*
X219393799Y-30111169D01*
X219388424Y-30111551D01*
X219360961Y-30122061D01*
X219218103Y-30193489D01*
X219205508Y-30201417D01*
X219201849Y-30202933D01*
X219197728Y-30206314D01*
X219193218Y-30209154D01*
X219190623Y-30212145D01*
X219179118Y-30221588D01*
X219107690Y-30293017D01*
X219098252Y-30304516D01*
X219095258Y-30307114D01*
X219092415Y-30311630D01*
X219089036Y-30315748D01*
X219087521Y-30319404D01*
X219079593Y-30332000D01*
X219008164Y-30474857D01*
X218997655Y-30502320D01*
X218997273Y-30507694D01*
X218995210Y-30512675D01*
X218992328Y-30541939D01*
X218825661Y-30541939D01*
X218825661Y-28726962D01*
X218995210Y-28726962D01*
X218995210Y-28785488D01*
X219017607Y-28839560D01*
X219036262Y-28862291D01*
X219637339Y-29463368D01*
X219142328Y-29463368D01*
X219113064Y-29466250D01*
X219058992Y-29488648D01*
X219017608Y-29530032D01*
X218995210Y-29584104D01*
X218995210Y-29642632D01*
X219017608Y-29696704D01*
X219058992Y-29738088D01*
X219113064Y-29760486D01*
X219142328Y-29763368D01*
X220642328Y-29763368D01*
X220671592Y-29760486D01*
X220725664Y-29738088D01*
X220767048Y-29696704D01*
X220789446Y-29642632D01*
X220789446Y-29584104D01*
X220767048Y-29530032D01*
X220725664Y-29488648D01*
X220671592Y-29466250D01*
X220642328Y-29463368D01*
X220061603Y-29463368D01*
X220013546Y-29415311D01*
X220732328Y-28876225D01*
X220754010Y-28856361D01*
X220783829Y-28805999D01*
X220792106Y-28748062D01*
X220777581Y-28691365D01*
X220742464Y-28644543D01*
X220692103Y-28614724D01*
X220634165Y-28606447D01*
X220577469Y-28620972D01*
X220552328Y-28636225D01*
X219799260Y-29201025D01*
X219248394Y-28650159D01*
X219225663Y-28631504D01*
X219171591Y-28609107D01*
X219113065Y-28609107D01*
X219058993Y-28631504D01*
X219017607Y-28672890D01*
X218995210Y-28726962D01*
X218825661Y-28726962D01*
X218825661Y-26970511D01*
X219920900Y-26970511D01*
X219920900Y-28113368D01*
X219923782Y-28142632D01*
X219946180Y-28196704D01*
X219987564Y-28238088D01*
X220041636Y-28260486D01*
X220100164Y-28260486D01*
X220154236Y-28238088D01*
X220195620Y-28196704D01*
X220218018Y-28142632D01*
X220220900Y-28113368D01*
X220220900Y-26970511D01*
X220218018Y-26941247D01*
X220195620Y-26887175D01*
X220154236Y-26845791D01*
X220100164Y-26823393D01*
X220041636Y-26823393D01*
X219987564Y-26845791D01*
X219946180Y-26887175D01*
X219923782Y-26941247D01*
X219920900Y-26970511D01*
X218825661Y-26970511D01*
X218825661Y-26656726D01*
X220958995Y-26656726D01*
X220958995Y-32930034D01*
G37*
D11*
G36*
X222739134Y-49932001D02*
G01*
X221973189Y-49772755D01*
X221973189Y-49157996D01*
X224060000Y-49591893D01*
X224060000Y-50206652D01*
X223286238Y-50045819D01*
X223286238Y-50358572D01*
X224060000Y-50519405D01*
X224060000Y-51132821D01*
X221973189Y-50698924D01*
X221973189Y-50085508D01*
X222739134Y-50244754D01*
X222739134Y-49932001D01*
G37*
G36*
X222418688Y-48568882D02*
G01*
X222411093Y-48608138D01*
X222388428Y-48640427D01*
X222347247Y-48667556D01*
X222271809Y-48687261D01*
X222178963Y-48680745D01*
X222087329Y-48649463D01*
X222011413Y-48597825D01*
X221970679Y-48552770D01*
X221948797Y-48510611D01*
X221941926Y-48469719D01*
X221949167Y-48432000D01*
X221970800Y-48400781D01*
X222010069Y-48374343D01*
X222082895Y-48355396D01*
X222178963Y-48362741D01*
X222269950Y-48393110D01*
X222347247Y-48443097D01*
X222389135Y-48486748D01*
X222411610Y-48528132D01*
X222418688Y-48568882D01*
G37*
G36*
X222504661Y-48698941D02*
G01*
X222499464Y-48622873D01*
X222483534Y-48544336D01*
X222456257Y-48469798D01*
X222418688Y-48407193D01*
X224060000Y-48748401D01*
X224060000Y-49312357D01*
X222418688Y-48971150D01*
X222454475Y-48920150D01*
X222482313Y-48854646D01*
X222498865Y-48782053D01*
X222504661Y-48698941D01*
G37*
G36*
X223528527Y-48447982D02*
G01*
X222950160Y-48327814D01*
X222950160Y-47687654D01*
X223528527Y-47807821D01*
X223528527Y-48447982D01*
G37*
G36*
X223536709Y-46432978D02*
G01*
X224060000Y-46541789D01*
X224060000Y-47694981D01*
X221973189Y-47261084D01*
X221973189Y-46647790D01*
X223536709Y-46972877D01*
X223536709Y-46432978D01*
G37*
G36*
X223072958Y-45037152D02*
G01*
X223241420Y-45062898D01*
X223404249Y-45105469D01*
X223551022Y-45161241D01*
X223683377Y-45229716D01*
X223805885Y-45313681D01*
X223905228Y-45404594D01*
X223984040Y-45502657D01*
X224044327Y-45611785D01*
X224079554Y-45722973D01*
X224091263Y-45838247D01*
X224078745Y-45950718D01*
X224042923Y-46045612D01*
X223984040Y-46126820D01*
X223906087Y-46191537D01*
X223806966Y-46241315D01*
X223682034Y-46275197D01*
X223552103Y-46288738D01*
X223406120Y-46284117D01*
X223241420Y-46258955D01*
X223078546Y-46216391D01*
X222931736Y-46160457D01*
X222799340Y-46091649D01*
X222676734Y-46007384D01*
X222576693Y-45916103D01*
X222496723Y-45817608D01*
X222435080Y-45708071D01*
X222406184Y-45618917D01*
X223036378Y-45618917D01*
X223048616Y-45669780D01*
X223088401Y-45718690D01*
X223146498Y-45755798D01*
X223225055Y-45781216D01*
X223304071Y-45788144D01*
X223360366Y-45775232D01*
X223399428Y-45743825D01*
X223412267Y-45697075D01*
X223400098Y-45646095D01*
X223360366Y-45596202D01*
X223302230Y-45557991D01*
X223225055Y-45532699D01*
X223144848Y-45525805D01*
X223088401Y-45539660D01*
X223049201Y-45572028D01*
X223036378Y-45618917D01*
X222406184Y-45618917D01*
X222399270Y-45597585D01*
X222387424Y-45484095D01*
X222399878Y-45371663D01*
X222435507Y-45276805D01*
X222494036Y-45195644D01*
X222571483Y-45130771D01*
X222670334Y-45080704D01*
X222795310Y-45046412D01*
X222925260Y-45032544D01*
X223072958Y-45037152D01*
G37*
D12*
G36*
X220351354Y-44213790D02*
G01*
X220447621Y-44310057D01*
X220492328Y-44399469D01*
X220492328Y-44614364D01*
X220447622Y-44703777D01*
X220351354Y-44800044D01*
X220123864Y-44856917D01*
X219660792Y-44856917D01*
X219433301Y-44800044D01*
X219337035Y-44703778D01*
X219292328Y-44614364D01*
X219292328Y-44399470D01*
X219337035Y-44310056D01*
X219433301Y-44213790D01*
X219660792Y-44156917D01*
X220123863Y-44156917D01*
X220351354Y-44213790D01*
G37*
G36*
X220958995Y-46823584D02*
G01*
X218825661Y-46823584D01*
X218825661Y-45864060D01*
X218992328Y-45864060D01*
X218992328Y-46006917D01*
X218993786Y-46021728D01*
X218993506Y-46025678D01*
X218994687Y-46030872D01*
X218995210Y-46036181D01*
X218996727Y-46039843D01*
X219000026Y-46054351D01*
X219071454Y-46268637D01*
X219083443Y-46295488D01*
X219086973Y-46299558D01*
X219089036Y-46304538D01*
X219107691Y-46327269D01*
X219250548Y-46470126D01*
X219262050Y-46479566D01*
X219264646Y-46482559D01*
X219269155Y-46485397D01*
X219273278Y-46488781D01*
X219276940Y-46490297D01*
X219289532Y-46498224D01*
X219432388Y-46569653D01*
X219434530Y-46570472D01*
X219435400Y-46571117D01*
X219447671Y-46575501D01*
X219459852Y-46580162D01*
X219460932Y-46580238D01*
X219463091Y-46581010D01*
X219748805Y-46652438D01*
X219753876Y-46653187D01*
X219755921Y-46654035D01*
X219766943Y-46655120D01*
X219777894Y-46656740D01*
X219780081Y-46656414D01*
X219785185Y-46656917D01*
X219999471Y-46656917D01*
X220004574Y-46656414D01*
X220006762Y-46656740D01*
X220017712Y-46655120D01*
X220028735Y-46654035D01*
X220030779Y-46653187D01*
X220035851Y-46652438D01*
X220321565Y-46581010D01*
X220323723Y-46580238D01*
X220324804Y-46580162D01*
X220336978Y-46575503D01*
X220349256Y-46571117D01*
X220350126Y-46570472D01*
X220352267Y-46569653D01*
X220495124Y-46498224D01*
X220507717Y-46490296D01*
X220511377Y-46488781D01*
X220515496Y-46485399D01*
X220520010Y-46482559D01*
X220522606Y-46479565D01*
X220534108Y-46470126D01*
X220676966Y-46327269D01*
X220695621Y-46304539D01*
X220697683Y-46299559D01*
X220701215Y-46295488D01*
X220713203Y-46268637D01*
X220784631Y-46054351D01*
X220787930Y-46039838D01*
X220789446Y-46036181D01*
X220789968Y-46030878D01*
X220791151Y-46025677D01*
X220790869Y-46021722D01*
X220792328Y-46006917D01*
X220792328Y-45864060D01*
X220790869Y-45849254D01*
X220791151Y-45845300D01*
X220789968Y-45840098D01*
X220789446Y-45834796D01*
X220787930Y-45831138D01*
X220784631Y-45816626D01*
X220713203Y-45602340D01*
X220701215Y-45575489D01*
X220697681Y-45571414D01*
X220695620Y-45566438D01*
X220676965Y-45543707D01*
X220605536Y-45472279D01*
X220582805Y-45453625D01*
X220528733Y-45431228D01*
X220470207Y-45431228D01*
X220416135Y-45453626D01*
X220374750Y-45495012D01*
X220352353Y-45549084D01*
X220352353Y-45607610D01*
X220374751Y-45661682D01*
X220393406Y-45684413D01*
X220439794Y-45730800D01*
X220492328Y-45888402D01*
X220492328Y-45982574D01*
X220439794Y-46140176D01*
X220339188Y-46240781D01*
X220232828Y-46293962D01*
X219981007Y-46356917D01*
X219803649Y-46356917D01*
X219551827Y-46293961D01*
X219445468Y-46240782D01*
X219344861Y-46140175D01*
X219292328Y-45982576D01*
X219292328Y-45888400D01*
X219344861Y-45730801D01*
X219391251Y-45684412D01*
X219409906Y-45661682D01*
X219432302Y-45607609D01*
X219432302Y-45549083D01*
X219409906Y-45495011D01*
X219368520Y-45453625D01*
X219314448Y-45431229D01*
X219255922Y-45431229D01*
X219201849Y-45453625D01*
X219179119Y-45472280D01*
X219107691Y-45543708D01*
X219089036Y-45566439D01*
X219086973Y-45571418D01*
X219083443Y-45575489D01*
X219071454Y-45602340D01*
X219000026Y-45816626D01*
X218996727Y-45831133D01*
X218995210Y-45834796D01*
X218994687Y-45840104D01*
X218993506Y-45845299D01*
X218993786Y-45849248D01*
X218992328Y-45864060D01*
X218825661Y-45864060D01*
X218825661Y-44364060D01*
X218992328Y-44364060D01*
X218992328Y-44649774D01*
X218995210Y-44679038D01*
X218997271Y-44684015D01*
X218997654Y-44689393D01*
X219008164Y-44716856D01*
X219079593Y-44859714D01*
X219087520Y-44872307D01*
X219089036Y-44875967D01*
X219092417Y-44880086D01*
X219095258Y-44884600D01*
X219098251Y-44887196D01*
X219107691Y-44898698D01*
X219250548Y-45041555D01*
X219273278Y-45060210D01*
X219283583Y-45064478D01*
X219292543Y-45071117D01*
X219320234Y-45081010D01*
X219605948Y-45152438D01*
X219611019Y-45153187D01*
X219613064Y-45154035D01*
X219624086Y-45155120D01*
X219635037Y-45156740D01*
X219637224Y-45156414D01*
X219642328Y-45156917D01*
X220142328Y-45156917D01*
X220147431Y-45156414D01*
X220149619Y-45156740D01*
X220160569Y-45155120D01*
X220171592Y-45154035D01*
X220173636Y-45153187D01*
X220178708Y-45152438D01*
X220464422Y-45081010D01*
X220492113Y-45071117D01*
X220501073Y-45064477D01*
X220511377Y-45060210D01*
X220534108Y-45041555D01*
X220676966Y-44898698D01*
X220686406Y-44887194D01*
X220689400Y-44884599D01*
X220692238Y-44880089D01*
X220695621Y-44875968D01*
X220697138Y-44872305D01*
X220705064Y-44859713D01*
X220776493Y-44716855D01*
X220787002Y-44689392D01*
X220787383Y-44684016D01*
X220789446Y-44679038D01*
X220792328Y-44649774D01*
X220792328Y-44364060D01*
X220789446Y-44334796D01*
X220787383Y-44329817D01*
X220787002Y-44324442D01*
X220776492Y-44296979D01*
X220705064Y-44154121D01*
X220697138Y-44141530D01*
X220695621Y-44137867D01*
X220692235Y-44133741D01*
X220689399Y-44129236D01*
X220686409Y-44126643D01*
X220676966Y-44115137D01*
X220534108Y-43972280D01*
X220511377Y-43953625D01*
X220501073Y-43949357D01*
X220492113Y-43942718D01*
X220464422Y-43932825D01*
X220178709Y-43861396D01*
X220173636Y-43860645D01*
X220171592Y-43859799D01*
X220160570Y-43858713D01*
X220149619Y-43857094D01*
X220147431Y-43857419D01*
X220142328Y-43856917D01*
X219642328Y-43856917D01*
X219637224Y-43857419D01*
X219635036Y-43857094D01*
X219624083Y-43858713D01*
X219613064Y-43859799D01*
X219611019Y-43860645D01*
X219605947Y-43861396D01*
X219320233Y-43932825D01*
X219292542Y-43942718D01*
X219283581Y-43949357D01*
X219273278Y-43953625D01*
X219250548Y-43972280D01*
X219107691Y-44115137D01*
X219098251Y-44126638D01*
X219095258Y-44129235D01*
X219092417Y-44133748D01*
X219089036Y-44137868D01*
X219087520Y-44141527D01*
X219079593Y-44154121D01*
X219008164Y-44296978D01*
X218997655Y-44324441D01*
X218997273Y-44329815D01*
X218995210Y-44334796D01*
X218992328Y-44364060D01*
X218825661Y-44364060D01*
X218825661Y-42386835D01*
X218994067Y-42386835D01*
X218995210Y-42389978D01*
X218995210Y-42393324D01*
X219005171Y-42417372D01*
X219014068Y-42441838D01*
X219016327Y-42444305D01*
X219017608Y-42447396D01*
X219036005Y-42465793D01*
X219053595Y-42485001D01*
X219057563Y-42487351D01*
X219058992Y-42488780D01*
X219062260Y-42490133D01*
X219078895Y-42499987D01*
X219859050Y-42864060D01*
X219078895Y-43228133D01*
X219062260Y-43237986D01*
X219058992Y-43239340D01*
X219057563Y-43240768D01*
X219053595Y-43243119D01*
X219036005Y-43262326D01*
X219017608Y-43280724D01*
X219016327Y-43283814D01*
X219014068Y-43286282D01*
X219005171Y-43310747D01*
X218995210Y-43334796D01*
X218995210Y-43338141D01*
X218994067Y-43341285D01*
X218995210Y-43367289D01*
X218995210Y-43393324D01*
X218996490Y-43396414D01*
X218996637Y-43399755D01*
X219007647Y-43423350D01*
X219017608Y-43447396D01*
X219019971Y-43449759D01*
X219021387Y-43452793D01*
X219040594Y-43470382D01*
X219058992Y-43488780D01*
X219062082Y-43490060D01*
X219064550Y-43492320D01*
X219089015Y-43501216D01*
X219113064Y-43511178D01*
X219117652Y-43511629D01*
X219119553Y-43512321D01*
X219123091Y-43512165D01*
X219142328Y-43514060D01*
X220642328Y-43514060D01*
X220671592Y-43511178D01*
X220725664Y-43488780D01*
X220767048Y-43447396D01*
X220789446Y-43393324D01*
X220789446Y-43334796D01*
X220767048Y-43280724D01*
X220725664Y-43239340D01*
X220671592Y-43216942D01*
X220642328Y-43214060D01*
X219818462Y-43214060D01*
X220277190Y-42999987D01*
X220287903Y-42993640D01*
X220291535Y-42992320D01*
X220294103Y-42989968D01*
X220302490Y-42985000D01*
X220317880Y-42968194D01*
X220334698Y-42952793D01*
X220337518Y-42946749D01*
X220342017Y-42941837D01*
X220349803Y-42920425D01*
X220359449Y-42899756D01*
X220359741Y-42893094D01*
X220362018Y-42886835D01*
X220361017Y-42864060D01*
X220362018Y-42841285D01*
X220359741Y-42835025D01*
X220359449Y-42828364D01*
X220349803Y-42807694D01*
X220342017Y-42786283D01*
X220337518Y-42781370D01*
X220334698Y-42775327D01*
X220317880Y-42759925D01*
X220302490Y-42743120D01*
X220294103Y-42738151D01*
X220291535Y-42735800D01*
X220287903Y-42734479D01*
X220277190Y-42728133D01*
X219818462Y-42514060D01*
X220642328Y-42514060D01*
X220671592Y-42511178D01*
X220725664Y-42488780D01*
X220767048Y-42447396D01*
X220789446Y-42393324D01*
X220789446Y-42334796D01*
X220767048Y-42280724D01*
X220725664Y-42239340D01*
X220671592Y-42216942D01*
X220642328Y-42214060D01*
X219142328Y-42214060D01*
X219123091Y-42215954D01*
X219119553Y-42215799D01*
X219117652Y-42216490D01*
X219113064Y-42216942D01*
X219089015Y-42226903D01*
X219064550Y-42235800D01*
X219062082Y-42238059D01*
X219058992Y-42239340D01*
X219040594Y-42257737D01*
X219021387Y-42275327D01*
X219019971Y-42278360D01*
X219017608Y-42280724D01*
X219007647Y-42304769D01*
X218996637Y-42328365D01*
X218996490Y-42331705D01*
X218995210Y-42334796D01*
X218995210Y-42360830D01*
X218994067Y-42386835D01*
X218825661Y-42386835D01*
X218825661Y-42047393D01*
X220958995Y-42047393D01*
X220958995Y-46823584D01*
G37*
D11*
X186017819Y-32757904D02*
X186017819Y-32186476D01*
X187017819Y-32472190D02*
X186017819Y-32472190D01*
X187017819Y-31281714D02*
X186541628Y-31615047D01*
X187017819Y-31853142D02*
X186017819Y-31853142D01*
X186017819Y-31853142D02*
X186017819Y-31472190D01*
X186017819Y-31472190D02*
X186065438Y-31376952D01*
X186065438Y-31376952D02*
X186113057Y-31329333D01*
X186113057Y-31329333D02*
X186208295Y-31281714D01*
X186208295Y-31281714D02*
X186351152Y-31281714D01*
X186351152Y-31281714D02*
X186446390Y-31329333D01*
X186446390Y-31329333D02*
X186494009Y-31376952D01*
X186494009Y-31376952D02*
X186541628Y-31472190D01*
X186541628Y-31472190D02*
X186541628Y-31853142D01*
X187017819Y-30329333D02*
X187017819Y-30900761D01*
X187017819Y-30615047D02*
X186017819Y-30615047D01*
X186017819Y-30615047D02*
X186160676Y-30710285D01*
X186160676Y-30710285D02*
X186255914Y-30805523D01*
X186255914Y-30805523D02*
X186303533Y-30900761D01*
X182017200Y-49220618D02*
X182064819Y-49077761D01*
X182064819Y-49077761D02*
X182064819Y-48839666D01*
X182064819Y-48839666D02*
X182017200Y-48744428D01*
X182017200Y-48744428D02*
X181969580Y-48696809D01*
X181969580Y-48696809D02*
X181874342Y-48649190D01*
X181874342Y-48649190D02*
X181779104Y-48649190D01*
X181779104Y-48649190D02*
X181683866Y-48696809D01*
X181683866Y-48696809D02*
X181636247Y-48744428D01*
X181636247Y-48744428D02*
X181588628Y-48839666D01*
X181588628Y-48839666D02*
X181541009Y-49030142D01*
X181541009Y-49030142D02*
X181493390Y-49125380D01*
X181493390Y-49125380D02*
X181445771Y-49172999D01*
X181445771Y-49172999D02*
X181350533Y-49220618D01*
X181350533Y-49220618D02*
X181255295Y-49220618D01*
X181255295Y-49220618D02*
X181160057Y-49172999D01*
X181160057Y-49172999D02*
X181112438Y-49125380D01*
X181112438Y-49125380D02*
X181064819Y-49030142D01*
X181064819Y-49030142D02*
X181064819Y-48792047D01*
X181064819Y-48792047D02*
X181112438Y-48649190D01*
X182064819Y-47792047D02*
X181541009Y-47792047D01*
X181541009Y-47792047D02*
X181445771Y-47839666D01*
X181445771Y-47839666D02*
X181398152Y-47934904D01*
X181398152Y-47934904D02*
X181398152Y-48125380D01*
X181398152Y-48125380D02*
X181445771Y-48220618D01*
X182017200Y-47792047D02*
X182064819Y-47887285D01*
X182064819Y-47887285D02*
X182064819Y-48125380D01*
X182064819Y-48125380D02*
X182017200Y-48220618D01*
X182017200Y-48220618D02*
X181921961Y-48268237D01*
X181921961Y-48268237D02*
X181826723Y-48268237D01*
X181826723Y-48268237D02*
X181731485Y-48220618D01*
X181731485Y-48220618D02*
X181683866Y-48125380D01*
X181683866Y-48125380D02*
X181683866Y-47887285D01*
X181683866Y-47887285D02*
X181636247Y-47792047D01*
X181398152Y-47315856D02*
X182064819Y-47315856D01*
X181493390Y-47315856D02*
X181445771Y-47268237D01*
X181445771Y-47268237D02*
X181398152Y-47172999D01*
X181398152Y-47172999D02*
X181398152Y-47030142D01*
X181398152Y-47030142D02*
X181445771Y-46934904D01*
X181445771Y-46934904D02*
X181541009Y-46887285D01*
X181541009Y-46887285D02*
X182064819Y-46887285D01*
X182017200Y-46458713D02*
X182064819Y-46363475D01*
X182064819Y-46363475D02*
X182064819Y-46172999D01*
X182064819Y-46172999D02*
X182017200Y-46077761D01*
X182017200Y-46077761D02*
X181921961Y-46030142D01*
X181921961Y-46030142D02*
X181874342Y-46030142D01*
X181874342Y-46030142D02*
X181779104Y-46077761D01*
X181779104Y-46077761D02*
X181731485Y-46172999D01*
X181731485Y-46172999D02*
X181731485Y-46315856D01*
X181731485Y-46315856D02*
X181683866Y-46411094D01*
X181683866Y-46411094D02*
X181588628Y-46458713D01*
X181588628Y-46458713D02*
X181541009Y-46458713D01*
X181541009Y-46458713D02*
X181445771Y-46411094D01*
X181445771Y-46411094D02*
X181398152Y-46315856D01*
X181398152Y-46315856D02*
X181398152Y-46172999D01*
X181398152Y-46172999D02*
X181445771Y-46077761D01*
X181398152Y-45172999D02*
X182064819Y-45172999D01*
X181398152Y-45601570D02*
X181921961Y-45601570D01*
X181921961Y-45601570D02*
X182017200Y-45553951D01*
X182017200Y-45553951D02*
X182064819Y-45458713D01*
X182064819Y-45458713D02*
X182064819Y-45315856D01*
X182064819Y-45315856D02*
X182017200Y-45220618D01*
X182017200Y-45220618D02*
X181969580Y-45172999D01*
X182064819Y-44696808D02*
X181398152Y-44696808D01*
X181064819Y-44696808D02*
X181112438Y-44744427D01*
X181112438Y-44744427D02*
X181160057Y-44696808D01*
X181160057Y-44696808D02*
X181112438Y-44649189D01*
X181112438Y-44649189D02*
X181064819Y-44696808D01*
X181064819Y-44696808D02*
X181160057Y-44696808D01*
X182017200Y-43506332D02*
X182064819Y-43363475D01*
X182064819Y-43363475D02*
X182064819Y-43125380D01*
X182064819Y-43125380D02*
X182017200Y-43030142D01*
X182017200Y-43030142D02*
X181969580Y-42982523D01*
X181969580Y-42982523D02*
X181874342Y-42934904D01*
X181874342Y-42934904D02*
X181779104Y-42934904D01*
X181779104Y-42934904D02*
X181683866Y-42982523D01*
X181683866Y-42982523D02*
X181636247Y-43030142D01*
X181636247Y-43030142D02*
X181588628Y-43125380D01*
X181588628Y-43125380D02*
X181541009Y-43315856D01*
X181541009Y-43315856D02*
X181493390Y-43411094D01*
X181493390Y-43411094D02*
X181445771Y-43458713D01*
X181445771Y-43458713D02*
X181350533Y-43506332D01*
X181350533Y-43506332D02*
X181255295Y-43506332D01*
X181255295Y-43506332D02*
X181160057Y-43458713D01*
X181160057Y-43458713D02*
X181112438Y-43411094D01*
X181112438Y-43411094D02*
X181064819Y-43315856D01*
X181064819Y-43315856D02*
X181064819Y-43077761D01*
X181064819Y-43077761D02*
X181112438Y-42934904D01*
X181064819Y-42649189D02*
X181064819Y-42077761D01*
X182064819Y-42363475D02*
X181064819Y-42363475D01*
X181683866Y-41744427D02*
X181683866Y-40982523D01*
X181064819Y-40601570D02*
X181064819Y-39934904D01*
X181064819Y-39934904D02*
X182064819Y-40363475D01*
X182064819Y-39030142D02*
X182064819Y-39601570D01*
X182064819Y-39315856D02*
X181064819Y-39315856D01*
X181064819Y-39315856D02*
X181207676Y-39411094D01*
X181207676Y-39411094D02*
X181302914Y-39506332D01*
X181302914Y-39506332D02*
X181350533Y-39601570D01*
X181017200Y-37887285D02*
X182302914Y-38744427D01*
X182017200Y-37601570D02*
X182064819Y-37458713D01*
X182064819Y-37458713D02*
X182064819Y-37220618D01*
X182064819Y-37220618D02*
X182017200Y-37125380D01*
X182017200Y-37125380D02*
X181969580Y-37077761D01*
X181969580Y-37077761D02*
X181874342Y-37030142D01*
X181874342Y-37030142D02*
X181779104Y-37030142D01*
X181779104Y-37030142D02*
X181683866Y-37077761D01*
X181683866Y-37077761D02*
X181636247Y-37125380D01*
X181636247Y-37125380D02*
X181588628Y-37220618D01*
X181588628Y-37220618D02*
X181541009Y-37411094D01*
X181541009Y-37411094D02*
X181493390Y-37506332D01*
X181493390Y-37506332D02*
X181445771Y-37553951D01*
X181445771Y-37553951D02*
X181350533Y-37601570D01*
X181350533Y-37601570D02*
X181255295Y-37601570D01*
X181255295Y-37601570D02*
X181160057Y-37553951D01*
X181160057Y-37553951D02*
X181112438Y-37506332D01*
X181112438Y-37506332D02*
X181064819Y-37411094D01*
X181064819Y-37411094D02*
X181064819Y-37172999D01*
X181064819Y-37172999D02*
X181112438Y-37030142D01*
X181064819Y-36744427D02*
X181064819Y-36172999D01*
X182064819Y-36458713D02*
X181064819Y-36458713D01*
X181683866Y-35839665D02*
X181683866Y-35077761D01*
X181064819Y-34696808D02*
X181064819Y-34030142D01*
X181064819Y-34030142D02*
X182064819Y-34458713D01*
X182064819Y-33125380D02*
X182064819Y-33696808D01*
X182064819Y-33411094D02*
X181064819Y-33411094D01*
X181064819Y-33411094D02*
X181207676Y-33506332D01*
X181207676Y-33506332D02*
X181302914Y-33601570D01*
X181302914Y-33601570D02*
X181350533Y-33696808D01*
X182064819Y-32696808D02*
X181064819Y-32696808D01*
X181064819Y-32696808D02*
X181064819Y-32315856D01*
X181064819Y-32315856D02*
X181112438Y-32220618D01*
X181112438Y-32220618D02*
X181160057Y-32172999D01*
X181160057Y-32172999D02*
X181255295Y-32125380D01*
X181255295Y-32125380D02*
X181398152Y-32125380D01*
X181398152Y-32125380D02*
X181493390Y-32172999D01*
X181493390Y-32172999D02*
X181541009Y-32220618D01*
X181541009Y-32220618D02*
X181588628Y-32315856D01*
X181588628Y-32315856D02*
X181588628Y-32696808D01*
X197812819Y-31710238D02*
X197336628Y-32043571D01*
X197812819Y-32281666D02*
X196812819Y-32281666D01*
X196812819Y-32281666D02*
X196812819Y-31900714D01*
X196812819Y-31900714D02*
X196860438Y-31805476D01*
X196860438Y-31805476D02*
X196908057Y-31757857D01*
X196908057Y-31757857D02*
X197003295Y-31710238D01*
X197003295Y-31710238D02*
X197146152Y-31710238D01*
X197146152Y-31710238D02*
X197241390Y-31757857D01*
X197241390Y-31757857D02*
X197289009Y-31805476D01*
X197289009Y-31805476D02*
X197336628Y-31900714D01*
X197336628Y-31900714D02*
X197336628Y-32281666D01*
X196812819Y-31424523D02*
X197812819Y-31091190D01*
X197812819Y-31091190D02*
X196812819Y-30757857D01*
X197812819Y-29900714D02*
X197812819Y-30472142D01*
X197812819Y-30186428D02*
X196812819Y-30186428D01*
X196812819Y-30186428D02*
X196955676Y-30281666D01*
X196955676Y-30281666D02*
X197050914Y-30376904D01*
X197050914Y-30376904D02*
X197098533Y-30472142D01*
X202130819Y-42497143D02*
X202130819Y-43068571D01*
X202130819Y-42782857D02*
X201130819Y-42782857D01*
X201130819Y-42782857D02*
X201273676Y-42878095D01*
X201273676Y-42878095D02*
X201368914Y-42973333D01*
X201368914Y-42973333D02*
X201416533Y-43068571D01*
X201130819Y-41878095D02*
X201130819Y-41782857D01*
X201130819Y-41782857D02*
X201178438Y-41687619D01*
X201178438Y-41687619D02*
X201226057Y-41640000D01*
X201226057Y-41640000D02*
X201321295Y-41592381D01*
X201321295Y-41592381D02*
X201511771Y-41544762D01*
X201511771Y-41544762D02*
X201749866Y-41544762D01*
X201749866Y-41544762D02*
X201940342Y-41592381D01*
X201940342Y-41592381D02*
X202035580Y-41640000D01*
X202035580Y-41640000D02*
X202083200Y-41687619D01*
X202083200Y-41687619D02*
X202130819Y-41782857D01*
X202130819Y-41782857D02*
X202130819Y-41878095D01*
X202130819Y-41878095D02*
X202083200Y-41973333D01*
X202083200Y-41973333D02*
X202035580Y-42020952D01*
X202035580Y-42020952D02*
X201940342Y-42068571D01*
X201940342Y-42068571D02*
X201749866Y-42116190D01*
X201749866Y-42116190D02*
X201511771Y-42116190D01*
X201511771Y-42116190D02*
X201321295Y-42068571D01*
X201321295Y-42068571D02*
X201226057Y-42020952D01*
X201226057Y-42020952D02*
X201178438Y-41973333D01*
X201178438Y-41973333D02*
X201130819Y-41878095D01*
X202130819Y-41116190D02*
X201130819Y-41116190D01*
X202130819Y-40544762D02*
X201559390Y-40973333D01*
X201130819Y-40544762D02*
X201702247Y-41116190D01*
X202511771Y-39830476D02*
X202464152Y-39878095D01*
X202464152Y-39878095D02*
X202321295Y-39973333D01*
X202321295Y-39973333D02*
X202226057Y-40020952D01*
X202226057Y-40020952D02*
X202083200Y-40068571D01*
X202083200Y-40068571D02*
X201845104Y-40116190D01*
X201845104Y-40116190D02*
X201654628Y-40116190D01*
X201654628Y-40116190D02*
X201416533Y-40068571D01*
X201416533Y-40068571D02*
X201273676Y-40020952D01*
X201273676Y-40020952D02*
X201178438Y-39973333D01*
X201178438Y-39973333D02*
X201035580Y-39878095D01*
X201035580Y-39878095D02*
X200987961Y-39830476D01*
X201607009Y-39116190D02*
X201654628Y-38973333D01*
X201654628Y-38973333D02*
X201702247Y-38925714D01*
X201702247Y-38925714D02*
X201797485Y-38878095D01*
X201797485Y-38878095D02*
X201940342Y-38878095D01*
X201940342Y-38878095D02*
X202035580Y-38925714D01*
X202035580Y-38925714D02*
X202083200Y-38973333D01*
X202083200Y-38973333D02*
X202130819Y-39068571D01*
X202130819Y-39068571D02*
X202130819Y-39449523D01*
X202130819Y-39449523D02*
X201130819Y-39449523D01*
X201130819Y-39449523D02*
X201130819Y-39116190D01*
X201130819Y-39116190D02*
X201178438Y-39020952D01*
X201178438Y-39020952D02*
X201226057Y-38973333D01*
X201226057Y-38973333D02*
X201321295Y-38925714D01*
X201321295Y-38925714D02*
X201416533Y-38925714D01*
X201416533Y-38925714D02*
X201511771Y-38973333D01*
X201511771Y-38973333D02*
X201559390Y-39020952D01*
X201559390Y-39020952D02*
X201607009Y-39116190D01*
X201607009Y-39116190D02*
X201607009Y-39449523D01*
X202511771Y-38544761D02*
X202464152Y-38497142D01*
X202464152Y-38497142D02*
X202321295Y-38401904D01*
X202321295Y-38401904D02*
X202226057Y-38354285D01*
X202226057Y-38354285D02*
X202083200Y-38306666D01*
X202083200Y-38306666D02*
X201845104Y-38259047D01*
X201845104Y-38259047D02*
X201654628Y-38259047D01*
X201654628Y-38259047D02*
X201416533Y-38306666D01*
X201416533Y-38306666D02*
X201273676Y-38354285D01*
X201273676Y-38354285D02*
X201178438Y-38401904D01*
X201178438Y-38401904D02*
X201035580Y-38497142D01*
X201035580Y-38497142D02*
X200987961Y-38544761D01*
X169364819Y-47410666D02*
X168888628Y-47743999D01*
X169364819Y-47982094D02*
X168364819Y-47982094D01*
X168364819Y-47982094D02*
X168364819Y-47601142D01*
X168364819Y-47601142D02*
X168412438Y-47505904D01*
X168412438Y-47505904D02*
X168460057Y-47458285D01*
X168460057Y-47458285D02*
X168555295Y-47410666D01*
X168555295Y-47410666D02*
X168698152Y-47410666D01*
X168698152Y-47410666D02*
X168793390Y-47458285D01*
X168793390Y-47458285D02*
X168841009Y-47505904D01*
X168841009Y-47505904D02*
X168888628Y-47601142D01*
X168888628Y-47601142D02*
X168888628Y-47982094D01*
X168460057Y-47029713D02*
X168412438Y-46982094D01*
X168412438Y-46982094D02*
X168364819Y-46886856D01*
X168364819Y-46886856D02*
X168364819Y-46648761D01*
X168364819Y-46648761D02*
X168412438Y-46553523D01*
X168412438Y-46553523D02*
X168460057Y-46505904D01*
X168460057Y-46505904D02*
X168555295Y-46458285D01*
X168555295Y-46458285D02*
X168650533Y-46458285D01*
X168650533Y-46458285D02*
X168793390Y-46505904D01*
X168793390Y-46505904D02*
X169364819Y-47077332D01*
X169364819Y-47077332D02*
X169364819Y-46458285D01*
X171863047Y-48968819D02*
X171291619Y-48968819D01*
X171577333Y-48968819D02*
X171577333Y-47968819D01*
X171577333Y-47968819D02*
X171482095Y-48111676D01*
X171482095Y-48111676D02*
X171386857Y-48206914D01*
X171386857Y-48206914D02*
X171291619Y-48254533D01*
X172482095Y-47968819D02*
X172577333Y-47968819D01*
X172577333Y-47968819D02*
X172672571Y-48016438D01*
X172672571Y-48016438D02*
X172720190Y-48064057D01*
X172720190Y-48064057D02*
X172767809Y-48159295D01*
X172767809Y-48159295D02*
X172815428Y-48349771D01*
X172815428Y-48349771D02*
X172815428Y-48587866D01*
X172815428Y-48587866D02*
X172767809Y-48778342D01*
X172767809Y-48778342D02*
X172720190Y-48873580D01*
X172720190Y-48873580D02*
X172672571Y-48921200D01*
X172672571Y-48921200D02*
X172577333Y-48968819D01*
X172577333Y-48968819D02*
X172482095Y-48968819D01*
X172482095Y-48968819D02*
X172386857Y-48921200D01*
X172386857Y-48921200D02*
X172339238Y-48873580D01*
X172339238Y-48873580D02*
X172291619Y-48778342D01*
X172291619Y-48778342D02*
X172244000Y-48587866D01*
X172244000Y-48587866D02*
X172244000Y-48349771D01*
X172244000Y-48349771D02*
X172291619Y-48159295D01*
X172291619Y-48159295D02*
X172339238Y-48064057D01*
X172339238Y-48064057D02*
X172386857Y-48016438D01*
X172386857Y-48016438D02*
X172482095Y-47968819D01*
X173434476Y-47968819D02*
X173529714Y-47968819D01*
X173529714Y-47968819D02*
X173624952Y-48016438D01*
X173624952Y-48016438D02*
X173672571Y-48064057D01*
X173672571Y-48064057D02*
X173720190Y-48159295D01*
X173720190Y-48159295D02*
X173767809Y-48349771D01*
X173767809Y-48349771D02*
X173767809Y-48587866D01*
X173767809Y-48587866D02*
X173720190Y-48778342D01*
X173720190Y-48778342D02*
X173672571Y-48873580D01*
X173672571Y-48873580D02*
X173624952Y-48921200D01*
X173624952Y-48921200D02*
X173529714Y-48968819D01*
X173529714Y-48968819D02*
X173434476Y-48968819D01*
X173434476Y-48968819D02*
X173339238Y-48921200D01*
X173339238Y-48921200D02*
X173291619Y-48873580D01*
X173291619Y-48873580D02*
X173244000Y-48778342D01*
X173244000Y-48778342D02*
X173196381Y-48587866D01*
X173196381Y-48587866D02*
X173196381Y-48349771D01*
X173196381Y-48349771D02*
X173244000Y-48159295D01*
X173244000Y-48159295D02*
X173291619Y-48064057D01*
X173291619Y-48064057D02*
X173339238Y-48016438D01*
X173339238Y-48016438D02*
X173434476Y-47968819D01*
X174482095Y-49349771D02*
X174434476Y-49302152D01*
X174434476Y-49302152D02*
X174339238Y-49159295D01*
X174339238Y-49159295D02*
X174291619Y-49064057D01*
X174291619Y-49064057D02*
X174244000Y-48921200D01*
X174244000Y-48921200D02*
X174196381Y-48683104D01*
X174196381Y-48683104D02*
X174196381Y-48492628D01*
X174196381Y-48492628D02*
X174244000Y-48254533D01*
X174244000Y-48254533D02*
X174291619Y-48111676D01*
X174291619Y-48111676D02*
X174339238Y-48016438D01*
X174339238Y-48016438D02*
X174434476Y-47873580D01*
X174434476Y-47873580D02*
X174482095Y-47825961D01*
X175386857Y-48968819D02*
X174815429Y-48968819D01*
X175101143Y-48968819D02*
X175101143Y-47968819D01*
X175101143Y-47968819D02*
X175005905Y-48111676D01*
X175005905Y-48111676D02*
X174910667Y-48206914D01*
X174910667Y-48206914D02*
X174815429Y-48254533D01*
X175720191Y-47968819D02*
X175958286Y-48968819D01*
X175958286Y-48968819D02*
X176148762Y-48254533D01*
X176148762Y-48254533D02*
X176339238Y-48968819D01*
X176339238Y-48968819D02*
X176577334Y-47968819D01*
X176863048Y-49349771D02*
X176910667Y-49302152D01*
X176910667Y-49302152D02*
X177005905Y-49159295D01*
X177005905Y-49159295D02*
X177053524Y-49064057D01*
X177053524Y-49064057D02*
X177101143Y-48921200D01*
X177101143Y-48921200D02*
X177148762Y-48683104D01*
X177148762Y-48683104D02*
X177148762Y-48492628D01*
X177148762Y-48492628D02*
X177101143Y-48254533D01*
X177101143Y-48254533D02*
X177053524Y-48111676D01*
X177053524Y-48111676D02*
X177005905Y-48016438D01*
X177005905Y-48016438D02*
X176910667Y-47873580D01*
X176910667Y-47873580D02*
X176863048Y-47825961D01*
X209004819Y-47831333D02*
X209719104Y-47831333D01*
X209719104Y-47831333D02*
X209861961Y-47878952D01*
X209861961Y-47878952D02*
X209957200Y-47974190D01*
X209957200Y-47974190D02*
X210004819Y-48117047D01*
X210004819Y-48117047D02*
X210004819Y-48212285D01*
X209100057Y-47402761D02*
X209052438Y-47355142D01*
X209052438Y-47355142D02*
X209004819Y-47259904D01*
X209004819Y-47259904D02*
X209004819Y-47021809D01*
X209004819Y-47021809D02*
X209052438Y-46926571D01*
X209052438Y-46926571D02*
X209100057Y-46878952D01*
X209100057Y-46878952D02*
X209195295Y-46831333D01*
X209195295Y-46831333D02*
X209290533Y-46831333D01*
X209290533Y-46831333D02*
X209433390Y-46878952D01*
X209433390Y-46878952D02*
X210004819Y-47450380D01*
X210004819Y-47450380D02*
X210004819Y-46831333D01*
X217149819Y-49374809D02*
X217149819Y-49184333D01*
X217149819Y-49184333D02*
X217197438Y-49089095D01*
X217197438Y-49089095D02*
X217292676Y-48993857D01*
X217292676Y-48993857D02*
X217483152Y-48946238D01*
X217483152Y-48946238D02*
X217816485Y-48946238D01*
X217816485Y-48946238D02*
X218006961Y-48993857D01*
X218006961Y-48993857D02*
X218102200Y-49089095D01*
X218102200Y-49089095D02*
X218149819Y-49184333D01*
X218149819Y-49184333D02*
X218149819Y-49374809D01*
X218149819Y-49374809D02*
X218102200Y-49470047D01*
X218102200Y-49470047D02*
X218006961Y-49565285D01*
X218006961Y-49565285D02*
X217816485Y-49612904D01*
X217816485Y-49612904D02*
X217483152Y-49612904D01*
X217483152Y-49612904D02*
X217292676Y-49565285D01*
X217292676Y-49565285D02*
X217197438Y-49470047D01*
X217197438Y-49470047D02*
X217149819Y-49374809D01*
X217483152Y-48089095D02*
X218149819Y-48089095D01*
X217483152Y-48517666D02*
X218006961Y-48517666D01*
X218006961Y-48517666D02*
X218102200Y-48470047D01*
X218102200Y-48470047D02*
X218149819Y-48374809D01*
X218149819Y-48374809D02*
X218149819Y-48231952D01*
X218149819Y-48231952D02*
X218102200Y-48136714D01*
X218102200Y-48136714D02*
X218054580Y-48089095D01*
X217483152Y-47755761D02*
X217483152Y-47374809D01*
X217149819Y-47612904D02*
X218006961Y-47612904D01*
X218006961Y-47612904D02*
X218102200Y-47565285D01*
X218102200Y-47565285D02*
X218149819Y-47470047D01*
X218149819Y-47470047D02*
X218149819Y-47374809D01*
X217483152Y-47041475D02*
X218483152Y-47041475D01*
X217530771Y-47041475D02*
X217483152Y-46946237D01*
X217483152Y-46946237D02*
X217483152Y-46755761D01*
X217483152Y-46755761D02*
X217530771Y-46660523D01*
X217530771Y-46660523D02*
X217578390Y-46612904D01*
X217578390Y-46612904D02*
X217673628Y-46565285D01*
X217673628Y-46565285D02*
X217959342Y-46565285D01*
X217959342Y-46565285D02*
X218054580Y-46612904D01*
X218054580Y-46612904D02*
X218102200Y-46660523D01*
X218102200Y-46660523D02*
X218149819Y-46755761D01*
X218149819Y-46755761D02*
X218149819Y-46946237D01*
X218149819Y-46946237D02*
X218102200Y-47041475D01*
X217483152Y-45708142D02*
X218149819Y-45708142D01*
X217483152Y-46136713D02*
X218006961Y-46136713D01*
X218006961Y-46136713D02*
X218102200Y-46089094D01*
X218102200Y-46089094D02*
X218149819Y-45993856D01*
X218149819Y-45993856D02*
X218149819Y-45850999D01*
X218149819Y-45850999D02*
X218102200Y-45755761D01*
X218102200Y-45755761D02*
X218054580Y-45708142D01*
X217483152Y-45374808D02*
X217483152Y-44993856D01*
X217149819Y-45231951D02*
X218006961Y-45231951D01*
X218006961Y-45231951D02*
X218102200Y-45184332D01*
X218102200Y-45184332D02*
X218149819Y-45089094D01*
X218149819Y-45089094D02*
X218149819Y-44993856D01*
X169364819Y-34202666D02*
X168888628Y-34535999D01*
X169364819Y-34774094D02*
X168364819Y-34774094D01*
X168364819Y-34774094D02*
X168364819Y-34393142D01*
X168364819Y-34393142D02*
X168412438Y-34297904D01*
X168412438Y-34297904D02*
X168460057Y-34250285D01*
X168460057Y-34250285D02*
X168555295Y-34202666D01*
X168555295Y-34202666D02*
X168698152Y-34202666D01*
X168698152Y-34202666D02*
X168793390Y-34250285D01*
X168793390Y-34250285D02*
X168841009Y-34297904D01*
X168841009Y-34297904D02*
X168888628Y-34393142D01*
X168888628Y-34393142D02*
X168888628Y-34774094D01*
X169364819Y-33250285D02*
X169364819Y-33821713D01*
X169364819Y-33535999D02*
X168364819Y-33535999D01*
X168364819Y-33535999D02*
X168507676Y-33631237D01*
X168507676Y-33631237D02*
X168602914Y-33726475D01*
X168602914Y-33726475D02*
X168650533Y-33821713D01*
X171609047Y-33220819D02*
X171037619Y-33220819D01*
X171323333Y-33220819D02*
X171323333Y-32220819D01*
X171323333Y-32220819D02*
X171228095Y-32363676D01*
X171228095Y-32363676D02*
X171132857Y-32458914D01*
X171132857Y-32458914D02*
X171037619Y-32506533D01*
X172228095Y-32220819D02*
X172323333Y-32220819D01*
X172323333Y-32220819D02*
X172418571Y-32268438D01*
X172418571Y-32268438D02*
X172466190Y-32316057D01*
X172466190Y-32316057D02*
X172513809Y-32411295D01*
X172513809Y-32411295D02*
X172561428Y-32601771D01*
X172561428Y-32601771D02*
X172561428Y-32839866D01*
X172561428Y-32839866D02*
X172513809Y-33030342D01*
X172513809Y-33030342D02*
X172466190Y-33125580D01*
X172466190Y-33125580D02*
X172418571Y-33173200D01*
X172418571Y-33173200D02*
X172323333Y-33220819D01*
X172323333Y-33220819D02*
X172228095Y-33220819D01*
X172228095Y-33220819D02*
X172132857Y-33173200D01*
X172132857Y-33173200D02*
X172085238Y-33125580D01*
X172085238Y-33125580D02*
X172037619Y-33030342D01*
X172037619Y-33030342D02*
X171990000Y-32839866D01*
X171990000Y-32839866D02*
X171990000Y-32601771D01*
X171990000Y-32601771D02*
X172037619Y-32411295D01*
X172037619Y-32411295D02*
X172085238Y-32316057D01*
X172085238Y-32316057D02*
X172132857Y-32268438D01*
X172132857Y-32268438D02*
X172228095Y-32220819D01*
X173180476Y-32220819D02*
X173275714Y-32220819D01*
X173275714Y-32220819D02*
X173370952Y-32268438D01*
X173370952Y-32268438D02*
X173418571Y-32316057D01*
X173418571Y-32316057D02*
X173466190Y-32411295D01*
X173466190Y-32411295D02*
X173513809Y-32601771D01*
X173513809Y-32601771D02*
X173513809Y-32839866D01*
X173513809Y-32839866D02*
X173466190Y-33030342D01*
X173466190Y-33030342D02*
X173418571Y-33125580D01*
X173418571Y-33125580D02*
X173370952Y-33173200D01*
X173370952Y-33173200D02*
X173275714Y-33220819D01*
X173275714Y-33220819D02*
X173180476Y-33220819D01*
X173180476Y-33220819D02*
X173085238Y-33173200D01*
X173085238Y-33173200D02*
X173037619Y-33125580D01*
X173037619Y-33125580D02*
X172990000Y-33030342D01*
X172990000Y-33030342D02*
X172942381Y-32839866D01*
X172942381Y-32839866D02*
X172942381Y-32601771D01*
X172942381Y-32601771D02*
X172990000Y-32411295D01*
X172990000Y-32411295D02*
X173037619Y-32316057D01*
X173037619Y-32316057D02*
X173085238Y-32268438D01*
X173085238Y-32268438D02*
X173180476Y-32220819D01*
X174228095Y-33601771D02*
X174180476Y-33554152D01*
X174180476Y-33554152D02*
X174085238Y-33411295D01*
X174085238Y-33411295D02*
X174037619Y-33316057D01*
X174037619Y-33316057D02*
X173990000Y-33173200D01*
X173990000Y-33173200D02*
X173942381Y-32935104D01*
X173942381Y-32935104D02*
X173942381Y-32744628D01*
X173942381Y-32744628D02*
X173990000Y-32506533D01*
X173990000Y-32506533D02*
X174037619Y-32363676D01*
X174037619Y-32363676D02*
X174085238Y-32268438D01*
X174085238Y-32268438D02*
X174180476Y-32125580D01*
X174180476Y-32125580D02*
X174228095Y-32077961D01*
X174561429Y-32316057D02*
X174609048Y-32268438D01*
X174609048Y-32268438D02*
X174704286Y-32220819D01*
X174704286Y-32220819D02*
X174942381Y-32220819D01*
X174942381Y-32220819D02*
X175037619Y-32268438D01*
X175037619Y-32268438D02*
X175085238Y-32316057D01*
X175085238Y-32316057D02*
X175132857Y-32411295D01*
X175132857Y-32411295D02*
X175132857Y-32506533D01*
X175132857Y-32506533D02*
X175085238Y-32649390D01*
X175085238Y-32649390D02*
X174513810Y-33220819D01*
X174513810Y-33220819D02*
X175132857Y-33220819D01*
X175466191Y-32220819D02*
X175704286Y-33220819D01*
X175704286Y-33220819D02*
X175894762Y-32506533D01*
X175894762Y-32506533D02*
X176085238Y-33220819D01*
X176085238Y-33220819D02*
X176323334Y-32220819D01*
X176609048Y-33601771D02*
X176656667Y-33554152D01*
X176656667Y-33554152D02*
X176751905Y-33411295D01*
X176751905Y-33411295D02*
X176799524Y-33316057D01*
X176799524Y-33316057D02*
X176847143Y-33173200D01*
X176847143Y-33173200D02*
X176894762Y-32935104D01*
X176894762Y-32935104D02*
X176894762Y-32744628D01*
X176894762Y-32744628D02*
X176847143Y-32506533D01*
X176847143Y-32506533D02*
X176799524Y-32363676D01*
X176799524Y-32363676D02*
X176751905Y-32268438D01*
X176751905Y-32268438D02*
X176656667Y-32125580D01*
X176656667Y-32125580D02*
X176609048Y-32077961D01*
X209004819Y-34115333D02*
X209719104Y-34115333D01*
X209719104Y-34115333D02*
X209861961Y-34162952D01*
X209861961Y-34162952D02*
X209957200Y-34258190D01*
X209957200Y-34258190D02*
X210004819Y-34401047D01*
X210004819Y-34401047D02*
X210004819Y-34496285D01*
X210004819Y-33115333D02*
X210004819Y-33686761D01*
X210004819Y-33401047D02*
X209004819Y-33401047D01*
X209004819Y-33401047D02*
X209147676Y-33496285D01*
X209147676Y-33496285D02*
X209242914Y-33591523D01*
X209242914Y-33591523D02*
X209290533Y-33686761D01*
X218149819Y-35277856D02*
X217149819Y-35277856D01*
X217483152Y-34801666D02*
X218149819Y-34801666D01*
X217578390Y-34801666D02*
X217530771Y-34754047D01*
X217530771Y-34754047D02*
X217483152Y-34658809D01*
X217483152Y-34658809D02*
X217483152Y-34515952D01*
X217483152Y-34515952D02*
X217530771Y-34420714D01*
X217530771Y-34420714D02*
X217626009Y-34373095D01*
X217626009Y-34373095D02*
X218149819Y-34373095D01*
X217483152Y-33896904D02*
X218483152Y-33896904D01*
X217530771Y-33896904D02*
X217483152Y-33801666D01*
X217483152Y-33801666D02*
X217483152Y-33611190D01*
X217483152Y-33611190D02*
X217530771Y-33515952D01*
X217530771Y-33515952D02*
X217578390Y-33468333D01*
X217578390Y-33468333D02*
X217673628Y-33420714D01*
X217673628Y-33420714D02*
X217959342Y-33420714D01*
X217959342Y-33420714D02*
X218054580Y-33468333D01*
X218054580Y-33468333D02*
X218102200Y-33515952D01*
X218102200Y-33515952D02*
X218149819Y-33611190D01*
X218149819Y-33611190D02*
X218149819Y-33801666D01*
X218149819Y-33801666D02*
X218102200Y-33896904D01*
X217483152Y-32563571D02*
X218149819Y-32563571D01*
X217483152Y-32992142D02*
X218006961Y-32992142D01*
X218006961Y-32992142D02*
X218102200Y-32944523D01*
X218102200Y-32944523D02*
X218149819Y-32849285D01*
X218149819Y-32849285D02*
X218149819Y-32706428D01*
X218149819Y-32706428D02*
X218102200Y-32611190D01*
X218102200Y-32611190D02*
X218054580Y-32563571D01*
X217483152Y-32230237D02*
X217483152Y-31849285D01*
X217149819Y-32087380D02*
X218006961Y-32087380D01*
X218006961Y-32087380D02*
X218102200Y-32039761D01*
X218102200Y-32039761D02*
X218149819Y-31944523D01*
X218149819Y-31944523D02*
X218149819Y-31849285D01*
X192422960Y-52998666D02*
X192470580Y-53046285D01*
X192470580Y-53046285D02*
X192518199Y-53189142D01*
X192518199Y-53189142D02*
X192518199Y-53284380D01*
X192518199Y-53284380D02*
X192470580Y-53427237D01*
X192470580Y-53427237D02*
X192375341Y-53522475D01*
X192375341Y-53522475D02*
X192280103Y-53570094D01*
X192280103Y-53570094D02*
X192089627Y-53617713D01*
X192089627Y-53617713D02*
X191946770Y-53617713D01*
X191946770Y-53617713D02*
X191756294Y-53570094D01*
X191756294Y-53570094D02*
X191661056Y-53522475D01*
X191661056Y-53522475D02*
X191565818Y-53427237D01*
X191565818Y-53427237D02*
X191518199Y-53284380D01*
X191518199Y-53284380D02*
X191518199Y-53189142D01*
X191518199Y-53189142D02*
X191565818Y-53046285D01*
X191565818Y-53046285D02*
X191613437Y-52998666D01*
X192518199Y-52046285D02*
X192518199Y-52617713D01*
X192518199Y-52331999D02*
X191518199Y-52331999D01*
X191518199Y-52331999D02*
X191661056Y-52427237D01*
X191661056Y-52427237D02*
X191756294Y-52522475D01*
X191756294Y-52522475D02*
X191803913Y-52617713D01*
X200741532Y-54157238D02*
X201408199Y-54157238D01*
X200360580Y-54395333D02*
X201074865Y-54633428D01*
X201074865Y-54633428D02*
X201074865Y-54014381D01*
X200408199Y-53728666D02*
X200408199Y-53062000D01*
X200408199Y-53062000D02*
X201408199Y-53490571D01*
X200741532Y-52252476D02*
X201408199Y-52252476D01*
X200741532Y-52681047D02*
X201265341Y-52681047D01*
X201265341Y-52681047D02*
X201360580Y-52633428D01*
X201360580Y-52633428D02*
X201408199Y-52538190D01*
X201408199Y-52538190D02*
X201408199Y-52395333D01*
X201408199Y-52395333D02*
X201360580Y-52300095D01*
X201360580Y-52300095D02*
X201312960Y-52252476D01*
X200360580Y-51062000D02*
X201646294Y-51919142D01*
X200408199Y-50252476D02*
X200408199Y-50728666D01*
X200408199Y-50728666D02*
X200884389Y-50776285D01*
X200884389Y-50776285D02*
X200836770Y-50728666D01*
X200836770Y-50728666D02*
X200789151Y-50633428D01*
X200789151Y-50633428D02*
X200789151Y-50395333D01*
X200789151Y-50395333D02*
X200836770Y-50300095D01*
X200836770Y-50300095D02*
X200884389Y-50252476D01*
X200884389Y-50252476D02*
X200979627Y-50204857D01*
X200979627Y-50204857D02*
X201217722Y-50204857D01*
X201217722Y-50204857D02*
X201312960Y-50252476D01*
X201312960Y-50252476D02*
X201360580Y-50300095D01*
X201360580Y-50300095D02*
X201408199Y-50395333D01*
X201408199Y-50395333D02*
X201408199Y-50633428D01*
X201408199Y-50633428D02*
X201360580Y-50728666D01*
X201360580Y-50728666D02*
X201312960Y-50776285D01*
X200408199Y-49585809D02*
X200408199Y-49490571D01*
X200408199Y-49490571D02*
X200455818Y-49395333D01*
X200455818Y-49395333D02*
X200503437Y-49347714D01*
X200503437Y-49347714D02*
X200598675Y-49300095D01*
X200598675Y-49300095D02*
X200789151Y-49252476D01*
X200789151Y-49252476D02*
X201027246Y-49252476D01*
X201027246Y-49252476D02*
X201217722Y-49300095D01*
X201217722Y-49300095D02*
X201312960Y-49347714D01*
X201312960Y-49347714D02*
X201360580Y-49395333D01*
X201360580Y-49395333D02*
X201408199Y-49490571D01*
X201408199Y-49490571D02*
X201408199Y-49585809D01*
X201408199Y-49585809D02*
X201360580Y-49681047D01*
X201360580Y-49681047D02*
X201312960Y-49728666D01*
X201312960Y-49728666D02*
X201217722Y-49776285D01*
X201217722Y-49776285D02*
X201027246Y-49823904D01*
X201027246Y-49823904D02*
X200789151Y-49823904D01*
X200789151Y-49823904D02*
X200598675Y-49776285D01*
X200598675Y-49776285D02*
X200503437Y-49728666D01*
X200503437Y-49728666D02*
X200455818Y-49681047D01*
X200455818Y-49681047D02*
X200408199Y-49585809D01*
X200741532Y-48919142D02*
X201408199Y-48681047D01*
X201408199Y-48681047D02*
X200741532Y-48442952D01*
D13*
%TO.C,REF\u002A\u002A*%
X208096000Y-51886000D02*
X210496000Y-51886000D01*
X208096000Y-54286000D02*
X208096000Y-51886000D01*
X210496000Y-51886000D02*
X210496000Y-54286000D01*
X210496000Y-54286000D02*
X208096000Y-54286000D01*
%TO.C,TR1*%
X173360000Y-34673000D02*
X173360000Y-46673000D01*
X178360000Y-33923000D02*
X174110000Y-33923000D01*
X178360000Y-47423000D02*
X174110000Y-47423000D01*
X178860000Y-30923000D02*
X178860000Y-50423000D01*
X178860000Y-30923000D02*
X179610000Y-30923000D01*
X178860000Y-50423000D02*
X179610000Y-50423000D01*
X183610000Y-30923000D02*
X184360000Y-30923000D01*
X184360000Y-30923000D02*
X184360000Y-50423000D01*
X184360000Y-50423000D02*
X183610000Y-50423000D01*
X184860000Y-33923000D02*
X189110000Y-33923000D01*
X184860000Y-47423000D02*
X189110000Y-47423000D01*
X189860000Y-34673000D02*
X189860000Y-46673000D01*
X173360000Y-34673000D02*
G75*
G02*
X174110000Y-33923000I750000J0D01*
G01*
X174110000Y-47423000D02*
G75*
G02*
X173360000Y-46673000I0J750000D01*
G01*
X189110000Y-33923000D02*
G75*
G02*
X189860000Y-34673000I0J-750000D01*
G01*
X189860000Y-46673000D02*
G75*
G02*
X189110000Y-47423000I-750000J0D01*
G01*
%TO.C,RV1*%
X196176000Y-45640000D02*
X196176000Y-35640000D01*
X198676000Y-35640000D02*
X196176000Y-35640000D01*
X198676000Y-45640000D02*
X196176000Y-45640000D01*
X204676000Y-35640000D02*
X207176000Y-35640000D01*
X204676000Y-45640000D02*
X207176000Y-45640000D01*
X207176000Y-45640000D02*
X207176000Y-35640000D01*
D14*
X206456000Y-44640000D02*
G75*
G02*
X205896000Y-44640000I-280000J0D01*
G01*
X205896000Y-44640000D02*
G75*
G02*
X206456000Y-44640000I280000J0D01*
G01*
D13*
%TO.C,R2*%
X171370000Y-50800000D02*
X175120000Y-50800000D01*
X171370000Y-50800000D02*
G75*
G02*
X166630000Y-50800000I-2370000J0D01*
G01*
X166630000Y-50800000D02*
G75*
G02*
X171370000Y-50800000I2370000J0D01*
G01*
%TO.C,J2*%
X210629000Y-43561000D02*
X210629000Y-51181000D01*
X210629000Y-51181000D02*
X216599000Y-51181000D01*
X211389000Y-44321000D02*
X211389000Y-47371000D01*
X211389000Y-50421000D02*
X211389000Y-47371000D01*
X214339000Y-43571000D02*
X214339000Y-44321000D01*
X214339000Y-44321000D02*
X211389000Y-44321000D01*
X214339000Y-50421000D02*
X211389000Y-50421000D01*
X214339000Y-51171000D02*
X214339000Y-50421000D01*
X215839000Y-43571000D02*
X215839000Y-45371000D01*
X215839000Y-45371000D02*
X216589000Y-45371000D01*
X215839000Y-46871000D02*
X215839000Y-47871000D01*
X215839000Y-47871000D02*
X216589000Y-47871000D01*
X215839000Y-49371000D02*
X215839000Y-51171000D01*
X215839000Y-51171000D02*
X216589000Y-51171000D01*
X216589000Y-43571000D02*
X215839000Y-43571000D01*
X216589000Y-45371000D02*
X216589000Y-43571000D01*
X216589000Y-46871000D02*
X215839000Y-46871000D01*
X216589000Y-47871000D02*
X216589000Y-46871000D01*
X216589000Y-49371000D02*
X215839000Y-49371000D01*
X216589000Y-51171000D02*
X216589000Y-49371000D01*
X216599000Y-43561000D02*
X210629000Y-43561000D01*
X216599000Y-51181000D02*
X216599000Y-43561000D01*
X216889000Y-43271000D02*
X215639000Y-43271000D01*
X216889000Y-44521000D02*
X216889000Y-43271000D01*
%TO.C,REF\u002A\u002A*%
X205175000Y-32201000D02*
X207575000Y-32201000D01*
X205175000Y-34601000D02*
X205175000Y-32201000D01*
X207575000Y-32201000D02*
X207575000Y-34601000D01*
X207575000Y-34601000D02*
X205175000Y-34601000D01*
%TO.C,R1*%
X171370000Y-30480000D02*
X175120000Y-30480000D01*
X171370000Y-30480000D02*
G75*
G02*
X166630000Y-30480000I-2370000J0D01*
G01*
X166630000Y-30480000D02*
G75*
G02*
X171370000Y-30480000I2370000J0D01*
G01*
%TO.C,J1*%
X210629000Y-29845000D02*
X210629000Y-37465000D01*
X210629000Y-37465000D02*
X216599000Y-37465000D01*
X211389000Y-30605000D02*
X211389000Y-33655000D01*
X211389000Y-36705000D02*
X211389000Y-33655000D01*
X214339000Y-29855000D02*
X214339000Y-30605000D01*
X214339000Y-30605000D02*
X211389000Y-30605000D01*
X214339000Y-36705000D02*
X211389000Y-36705000D01*
X214339000Y-37455000D02*
X214339000Y-36705000D01*
X215839000Y-29855000D02*
X215839000Y-31655000D01*
X215839000Y-31655000D02*
X216589000Y-31655000D01*
X215839000Y-33155000D02*
X215839000Y-34155000D01*
X215839000Y-34155000D02*
X216589000Y-34155000D01*
X215839000Y-35655000D02*
X215839000Y-37455000D01*
X215839000Y-37455000D02*
X216589000Y-37455000D01*
X216589000Y-29855000D02*
X215839000Y-29855000D01*
X216589000Y-31655000D02*
X216589000Y-29855000D01*
X216589000Y-33155000D02*
X215839000Y-33155000D01*
X216589000Y-34155000D02*
X216589000Y-33155000D01*
X216589000Y-35655000D02*
X215839000Y-35655000D01*
X216589000Y-37455000D02*
X216589000Y-35655000D01*
X216599000Y-29845000D02*
X210629000Y-29845000D01*
X216599000Y-37465000D02*
X216599000Y-29845000D01*
X216889000Y-29555000D02*
X215639000Y-29555000D01*
X216889000Y-30805000D02*
X216889000Y-29555000D01*
%TO.C,C1*%
X192906380Y-51964000D02*
X192906380Y-51160000D01*
X192946380Y-52195000D02*
X192946380Y-50929000D01*
X192986380Y-52364000D02*
X192986380Y-50760000D01*
X193026380Y-52502000D02*
X193026380Y-50622000D01*
X193066380Y-52621000D02*
X193066380Y-50503000D01*
X193106380Y-52727000D02*
X193106380Y-50397000D01*
X193146380Y-52824000D02*
X193146380Y-50300000D01*
X193186380Y-52912000D02*
X193186380Y-50212000D01*
X193226380Y-52994000D02*
X193226380Y-50130000D01*
X193266380Y-53071000D02*
X193266380Y-50053000D01*
X193306380Y-53143000D02*
X193306380Y-49981000D01*
X193346380Y-53212000D02*
X193346380Y-49912000D01*
X193386380Y-53276000D02*
X193386380Y-49848000D01*
X193426380Y-53338000D02*
X193426380Y-49786000D01*
X193466380Y-53396000D02*
X193466380Y-49728000D01*
X193506380Y-53452000D02*
X193506380Y-49672000D01*
X193546380Y-53506000D02*
X193546380Y-49618000D01*
X193586380Y-53557000D02*
X193586380Y-49567000D01*
X193626380Y-53606000D02*
X193626380Y-49518000D01*
X193666380Y-53654000D02*
X193666380Y-49470000D01*
X193706380Y-53699000D02*
X193706380Y-49425000D01*
X193746380Y-53744000D02*
X193746380Y-49380000D01*
X193786380Y-53786000D02*
X193786380Y-49338000D01*
X193826380Y-53827000D02*
X193826380Y-49297000D01*
X193866380Y-50522000D02*
X193866380Y-49257000D01*
X193866380Y-53867000D02*
X193866380Y-52602000D01*
X193906380Y-50522000D02*
X193906380Y-49219000D01*
X193906380Y-53905000D02*
X193906380Y-52602000D01*
X193946380Y-50522000D02*
X193946380Y-49182000D01*
X193946380Y-53942000D02*
X193946380Y-52602000D01*
X193986380Y-50522000D02*
X193986380Y-49146000D01*
X193986380Y-53978000D02*
X193986380Y-52602000D01*
X194026380Y-50522000D02*
X194026380Y-49112000D01*
X194026380Y-54012000D02*
X194026380Y-52602000D01*
X194066380Y-50522000D02*
X194066380Y-49078000D01*
X194066380Y-54046000D02*
X194066380Y-52602000D01*
X194106380Y-50522000D02*
X194106380Y-49046000D01*
X194106380Y-54078000D02*
X194106380Y-52602000D01*
X194146380Y-50522000D02*
X194146380Y-49014000D01*
X194146380Y-54110000D02*
X194146380Y-52602000D01*
X194186380Y-50522000D02*
X194186380Y-48984000D01*
X194186380Y-54140000D02*
X194186380Y-52602000D01*
X194226380Y-50522000D02*
X194226380Y-48955000D01*
X194226380Y-54169000D02*
X194226380Y-52602000D01*
X194266380Y-50522000D02*
X194266380Y-48926000D01*
X194266380Y-54198000D02*
X194266380Y-52602000D01*
X194306380Y-50522000D02*
X194306380Y-48898000D01*
X194306380Y-54226000D02*
X194306380Y-52602000D01*
X194346380Y-50522000D02*
X194346380Y-48872000D01*
X194346380Y-54252000D02*
X194346380Y-52602000D01*
X194386380Y-50522000D02*
X194386380Y-48846000D01*
X194386380Y-54278000D02*
X194386380Y-52602000D01*
X194426380Y-50522000D02*
X194426380Y-48820000D01*
X194426380Y-54304000D02*
X194426380Y-52602000D01*
X194466380Y-50522000D02*
X194466380Y-48796000D01*
X194466380Y-54328000D02*
X194466380Y-52602000D01*
X194506380Y-50522000D02*
X194506380Y-48772000D01*
X194506380Y-54352000D02*
X194506380Y-52602000D01*
X194546380Y-50522000D02*
X194546380Y-48750000D01*
X194546380Y-54374000D02*
X194546380Y-52602000D01*
X194586380Y-50522000D02*
X194586380Y-48728000D01*
X194586380Y-54396000D02*
X194586380Y-52602000D01*
X194626380Y-50522000D02*
X194626380Y-48706000D01*
X194626380Y-54418000D02*
X194626380Y-52602000D01*
X194666380Y-50522000D02*
X194666380Y-48686000D01*
X194666380Y-54438000D02*
X194666380Y-52602000D01*
X194706380Y-50522000D02*
X194706380Y-48666000D01*
X194706380Y-54458000D02*
X194706380Y-52602000D01*
X194746380Y-50522000D02*
X194746380Y-48646000D01*
X194746380Y-54478000D02*
X194746380Y-52602000D01*
X194786380Y-50522000D02*
X194786380Y-48628000D01*
X194786380Y-54496000D02*
X194786380Y-52602000D01*
X194826380Y-50522000D02*
X194826380Y-48610000D01*
X194826380Y-54514000D02*
X194826380Y-52602000D01*
X194866380Y-50522000D02*
X194866380Y-48592000D01*
X194866380Y-54532000D02*
X194866380Y-52602000D01*
X194906380Y-50522000D02*
X194906380Y-48576000D01*
X194906380Y-54548000D02*
X194906380Y-52602000D01*
X194946380Y-50522000D02*
X194946380Y-48560000D01*
X194946380Y-54564000D02*
X194946380Y-52602000D01*
X194986380Y-50522000D02*
X194986380Y-48544000D01*
X194986380Y-54580000D02*
X194986380Y-52602000D01*
X195026380Y-50522000D02*
X195026380Y-48529000D01*
X195026380Y-54595000D02*
X195026380Y-52602000D01*
X195066380Y-50522000D02*
X195066380Y-48515000D01*
X195066380Y-54609000D02*
X195066380Y-52602000D01*
X195106380Y-50522000D02*
X195106380Y-48501000D01*
X195106380Y-54623000D02*
X195106380Y-52602000D01*
X195146380Y-50522000D02*
X195146380Y-48488000D01*
X195146380Y-54636000D02*
X195146380Y-52602000D01*
X195186380Y-50522000D02*
X195186380Y-48476000D01*
X195186380Y-54648000D02*
X195186380Y-52602000D01*
X195226380Y-50522000D02*
X195226380Y-48464000D01*
X195226380Y-54660000D02*
X195226380Y-52602000D01*
X195266380Y-50522000D02*
X195266380Y-48452000D01*
X195266380Y-54672000D02*
X195266380Y-52602000D01*
X195306380Y-50522000D02*
X195306380Y-48441000D01*
X195306380Y-54683000D02*
X195306380Y-52602000D01*
X195346380Y-50522000D02*
X195346380Y-48431000D01*
X195346380Y-54693000D02*
X195346380Y-52602000D01*
X195386380Y-50522000D02*
X195386380Y-48421000D01*
X195386380Y-54703000D02*
X195386380Y-52602000D01*
X195426380Y-50522000D02*
X195426380Y-48412000D01*
X195426380Y-54712000D02*
X195426380Y-52602000D01*
X195467380Y-50522000D02*
X195467380Y-48403000D01*
X195467380Y-54721000D02*
X195467380Y-52602000D01*
X195507380Y-50522000D02*
X195507380Y-48395000D01*
X195507380Y-54729000D02*
X195507380Y-52602000D01*
X195547380Y-50522000D02*
X195547380Y-48387000D01*
X195547380Y-54737000D02*
X195547380Y-52602000D01*
X195587380Y-50522000D02*
X195587380Y-48380000D01*
X195587380Y-54744000D02*
X195587380Y-52602000D01*
X195627380Y-50522000D02*
X195627380Y-48373000D01*
X195627380Y-54751000D02*
X195627380Y-52602000D01*
X195667380Y-50522000D02*
X195667380Y-48367000D01*
X195667380Y-54757000D02*
X195667380Y-52602000D01*
X195707380Y-50522000D02*
X195707380Y-48361000D01*
X195707380Y-54763000D02*
X195707380Y-52602000D01*
X195747380Y-50522000D02*
X195747380Y-48356000D01*
X195747380Y-54768000D02*
X195747380Y-52602000D01*
X195787380Y-50522000D02*
X195787380Y-48351000D01*
X195787380Y-54773000D02*
X195787380Y-52602000D01*
X195827380Y-50522000D02*
X195827380Y-48347000D01*
X195827380Y-54777000D02*
X195827380Y-52602000D01*
X195867380Y-50522000D02*
X195867380Y-48344000D01*
X195867380Y-54780000D02*
X195867380Y-52602000D01*
X195907380Y-50522000D02*
X195907380Y-48340000D01*
X195907380Y-54784000D02*
X195907380Y-52602000D01*
X195947380Y-54786000D02*
X195947380Y-48338000D01*
X195987380Y-54789000D02*
X195987380Y-48335000D01*
X196027380Y-54790000D02*
X196027380Y-48334000D01*
X196067380Y-54792000D02*
X196067380Y-48332000D01*
X196107380Y-54792000D02*
X196107380Y-48332000D01*
X196147380Y-54792000D02*
X196147380Y-48332000D01*
X199332621Y-53716000D02*
X199332621Y-53086000D01*
X199647621Y-53401000D02*
X199017621Y-53401000D01*
X199417380Y-51562000D02*
G75*
G02*
X192877380Y-51562000I-3270000J0D01*
G01*
X192877380Y-51562000D02*
G75*
G02*
X199417380Y-51562000I3270000J0D01*
G01*
%TD*%
M02*
