%TF.GenerationSoftware,KiCad,Pcbnew,9.0.6*%
%TF.CreationDate,2026-01-11T11:57:00+09:00*%
%TF.ProjectId,Hi-Lo_converter,48692d4c-6f5f-4636-9f6e-766572746572,rev?*%
%TF.SameCoordinates,Original*%
%TF.FileFunction,Profile,NP*%
%FSLAX46Y46*%
G04 Gerber Fmt 4.6, Leading zero omitted, Abs format (unit mm)*
G04 Created by KiCad (PCBNEW 9.0.6) date 2026-01-11 11:57:00*
%MOMM*%
%LPD*%
G01*
G04 APERTURE LIST*
%TA.AperFunction,Profile*%
%ADD10C,0.100000*%
%TD*%
G04 APERTURE END LIST*
D10*
X171999999Y-60000001D02*
G75*
G02*
X168999999Y-57000001I1J3000001D01*
G01*
X220999999Y-56499999D02*
G75*
G02*
X223999999Y-53499999I3000001J-1D01*
G01*
X165999999Y-27500000D02*
G75*
G02*
X166999999Y-26499999I1000001J0D01*
G01*
X221000001Y-57000000D02*
X220999999Y-56500000D01*
X181000001Y-57000001D02*
G75*
G02*
X178000001Y-60000001I-3000001J1D01*
G01*
X166000002Y-27500001D02*
X166000000Y-53500000D01*
X212000000Y-60000000D02*
X218000001Y-60000000D01*
X181000000Y-57000000D02*
G75*
G02*
X182500000Y-55500000I1500000J0D01*
G01*
X168999999Y-24499999D02*
G75*
G02*
X166999999Y-26499999I-1999999J-1D01*
G01*
X168999999Y-23999999D02*
G75*
G02*
X171999999Y-20999999I3000001J-1D01*
G01*
X169000001Y-24499994D02*
X168999999Y-24000000D01*
X208999999Y-24000000D02*
G75*
G02*
X211999999Y-20999999I3000001J0D01*
G01*
X167000000Y-54500000D02*
G75*
G02*
X166000000Y-53500000I0J1000000D01*
G01*
X221000001Y-24000000D02*
X220999998Y-24499988D01*
X223999999Y-27500001D02*
G75*
G02*
X220999999Y-24500001I1J3000001D01*
G01*
X225000000Y-52500000D02*
G75*
G02*
X224000000Y-53500000I-1000000J0D01*
G01*
X218000001Y-20999999D02*
G75*
G02*
X221000001Y-23999999I-1J-3000001D01*
G01*
X225000000Y-28500000D02*
X225000000Y-52500000D01*
X167000000Y-54500000D02*
G75*
G02*
X169000000Y-56500000I0J-2000000D01*
G01*
X209000000Y-24000000D02*
G75*
G02*
X207500000Y-25500000I-1500000J0D01*
G01*
X182500000Y-55500000D02*
X207500000Y-55500000D01*
X182500000Y-25499999D02*
X207500000Y-25500001D01*
X178000001Y-20999999D02*
G75*
G02*
X181000001Y-23999999I-1J-3000001D01*
G01*
X182500000Y-25499998D02*
G75*
G02*
X181000002Y-23999999I0J1499998D01*
G01*
X168999999Y-57000001D02*
X169000000Y-56500000D01*
X221000001Y-57000001D02*
G75*
G02*
X218000001Y-60000001I-3000001J1D01*
G01*
X211999999Y-21000000D02*
X218000000Y-21000000D01*
X224000000Y-27500000D02*
G75*
G02*
X225000000Y-28500000I0J-1000000D01*
G01*
X171999999Y-21000000D02*
X178000000Y-21000000D01*
X207500000Y-55500000D02*
G75*
G02*
X209000000Y-57000001I0J-1500000D01*
G01*
X178000001Y-60000000D02*
X171999999Y-60000000D01*
X211999999Y-60000001D02*
G75*
G02*
X208999999Y-57000001I1J3000001D01*
G01*
M02*
